%TF.GenerationSoftware,KiCad,Pcbnew,10.0.0*%
%TF.CreationDate,2026-06-04T16:57:15-05:00*%
%TF.ProjectId,mcu_pcb,6d63755f-7063-4622-9e6b-696361645f70,rev?*%
%TF.SameCoordinates,Original*%
%TF.FileFunction,Copper,L3,Inr*%
%TF.FilePolarity,Positive*%
%FSLAX46Y46*%
G04 Gerber Fmt 4.6, Leading zero omitted, Abs format (unit mm)*
G04 Created by KiCad (PCBNEW 10.0.0) date 2026-06-04 16:57:15*
%MOMM*%
%LPD*%
G01*
G04 APERTURE LIST*
%TA.AperFunction,ComponentPad*%
%ADD10C,5.600000*%
%TD*%
%TA.AperFunction,ComponentPad*%
%ADD11R,1.700000X1.700000*%
%TD*%
%TA.AperFunction,ComponentPad*%
%ADD12C,1.700000*%
%TD*%
%TA.AperFunction,ViaPad*%
%ADD13C,0.700000*%
%TD*%
G04 APERTURE END LIST*
D10*
%TO.N,GND_MCU*%
%TO.C,H2*%
X163500000Y-30000000D03*
%TD*%
%TO.N,GND_MCU*%
%TO.C,H4*%
X163500000Y-60000000D03*
%TD*%
%TO.N,GND_MCU*%
%TO.C,H3*%
X133500000Y-30000000D03*
%TD*%
%TO.N,GND_MCU*%
%TO.C,H1*%
X133500000Y-60000000D03*
%TD*%
D11*
%TO.N,+3V3_MCU*%
%TO.C,J2*%
X152210000Y-56210000D03*
D12*
%TO.N,/MCU/SWCLK*%
X154750000Y-56210000D03*
%TO.N,/MCU/SWDIO*%
X152210000Y-58750000D03*
%TO.N,GND_MCU*%
X154750000Y-58750000D03*
%TO.N,/MCU/NRST*%
X152210000Y-61290000D03*
%TO.N,/MCU/SWO*%
X154750000Y-61290000D03*
%TD*%
D13*
%TO.N,+3V3_MCU*%
X156821068Y-38071068D03*
X156571068Y-47321068D03*
X135071068Y-48071068D03*
X155821068Y-38571068D03*
X160321068Y-56071068D03*
X139250000Y-30222500D03*
X139821068Y-37821068D03*
X146071068Y-47571068D03*
X128000000Y-30250000D03*
X141321068Y-45100003D03*
X167321068Y-34821068D03*
X152861448Y-48030688D03*
X144571068Y-38821068D03*
X160321068Y-53571068D03*
X141250000Y-39750000D03*
X160321068Y-54821068D03*
X154571068Y-65571068D03*
%TO.N,GND_MCU*%
X167321068Y-33821068D03*
X138071068Y-37821068D03*
X152050000Y-30645000D03*
X159571068Y-27071068D03*
X156571068Y-24071068D03*
X163571068Y-41571068D03*
X166821068Y-51321068D03*
X152500000Y-25972500D03*
X137571068Y-27071068D03*
X155321068Y-51821068D03*
X130500000Y-25750000D03*
X152071068Y-47571068D03*
X137571068Y-21071068D03*
X143571068Y-21071068D03*
X139821068Y-36071068D03*
X153571068Y-21071068D03*
X154250000Y-32445000D03*
X141321068Y-44250000D03*
X161821068Y-65571068D03*
X145500000Y-26250000D03*
X147671068Y-63571068D03*
X156250000Y-27195000D03*
X145221065Y-47571068D03*
X157250000Y-28695000D03*
X143571068Y-58571068D03*
X135821068Y-57071068D03*
X162071068Y-39071068D03*
X161821068Y-47071068D03*
X145455689Y-38855686D03*
X145321068Y-58571068D03*
X144000000Y-32945000D03*
X147688036Y-27393086D03*
X147321068Y-26071068D03*
X140571068Y-24071068D03*
X171250000Y-30250000D03*
X131675000Y-43750000D03*
X165571068Y-55821068D03*
X131675000Y-39750000D03*
X143750000Y-28750000D03*
X133821068Y-64321068D03*
X150821068Y-67071068D03*
X156071068Y-39499997D03*
X169750000Y-24250000D03*
X163571068Y-39071068D03*
X135071068Y-46500000D03*
X158000000Y-32945000D03*
X159571068Y-21071068D03*
X162071068Y-41571068D03*
X151221068Y-60030379D03*
%TO.N,/MCU/STAT2*%
X148688902Y-39500000D03*
X158071068Y-36071068D03*
%TO.N,/MCU/STAT1*%
X158071068Y-34071068D03*
X148069066Y-38850000D03*
%TO.N,/MCU/OTG_FS_D+*%
X163071068Y-44821068D03*
X163071068Y-42821068D03*
%TO.N,/MCU/NRST*%
X143071068Y-48321068D03*
X137571068Y-49821068D03*
%TO.N,/MCU/ADC_IN11*%
X141321068Y-43321068D03*
%TO.N,/MCU/SPI1_SCK*%
X147071068Y-47571068D03*
X129821068Y-50571068D03*
%TO.N,/MCU/SPI1_MISO*%
X129821068Y-52571068D03*
X142571068Y-52571068D03*
%TO.N,/MCU/SPI1_MOSI*%
X127071068Y-51071068D03*
X129821068Y-51571068D03*
X127072120Y-43072120D03*
X148071068Y-47571068D03*
%TO.N,/MCU/IMU_IRQ1*%
X129821068Y-54571068D03*
X148321068Y-51071068D03*
%TO.N,/MCU/IMU_IRQ2*%
X129821068Y-55571068D03*
X149071068Y-50571068D03*
%TO.N,/MCU/SPI1_NSS_2*%
X129821068Y-44571068D03*
X149071068Y-45571068D03*
%TO.N,/MCU/BAR_IRQ*%
X150130583Y-46842314D03*
X129821068Y-45571068D03*
%TO.N,/MCU/SPI1_NSS_1*%
X151071068Y-47071068D03*
X129821068Y-53571068D03*
%TO.N,/MCU/SPI2_SCK*%
X155921068Y-46571068D03*
X148821068Y-54321068D03*
%TO.N,/MCU/SPI2_MOSI*%
X149627451Y-54589862D03*
X156071068Y-45571068D03*
%TO.N,/MCU/UART1_TX*%
X130071068Y-34571068D03*
X148571068Y-40921068D03*
%TO.N,/MCU/UART1_RX*%
X130071068Y-35571068D03*
X150230688Y-41661448D03*
%TO.N,/MCU/SWDIO*%
X156071068Y-40350000D03*
X157321068Y-57571068D03*
X156071068Y-42150000D03*
%TO.N,/MCU/SWCLK*%
X152571068Y-40150000D03*
X156071068Y-43071068D03*
%TO.N,/MCU/SPI3_SCK*%
X148742535Y-34411775D03*
X151350000Y-34428300D03*
%TO.N,Net-(U1-PD2)*%
X149821068Y-35571068D03*
X140071068Y-34821068D03*
%TO.N,/MCU/SWO*%
X149571068Y-40150000D03*
X156111448Y-44030688D03*
%TO.N,/MCU/BOOT0*%
X159321068Y-45821068D03*
X147071068Y-42321068D03*
%TO.N,Net-(C26-Pad1)*%
X142750000Y-31472500D03*
X146750000Y-27445000D03*
X151998734Y-31493455D03*
X142500000Y-28750000D03*
%TO.N,+5V*%
X168310073Y-52763168D03*
%TO.N,VBAT*%
X145571068Y-67321068D03*
X135821068Y-66571068D03*
%TD*%
%TA.AperFunction,Conductor*%
%TO.N,+3V3_MCU*%
G36*
X137006524Y-20220185D02*
G01*
X137052279Y-20272989D01*
X137062223Y-20342147D01*
X137033198Y-20405703D01*
X137027166Y-20412181D01*
X136910444Y-20528902D01*
X136910441Y-20528905D01*
X136817363Y-20668207D01*
X136753252Y-20822985D01*
X136753250Y-20822993D01*
X136720568Y-20987296D01*
X136720568Y-21154839D01*
X136753250Y-21319142D01*
X136753252Y-21319150D01*
X136817363Y-21473928D01*
X136910441Y-21613230D01*
X137028905Y-21731694D01*
X137101566Y-21780244D01*
X137168205Y-21824771D01*
X137322986Y-21888884D01*
X137487296Y-21921567D01*
X137487300Y-21921568D01*
X137487301Y-21921568D01*
X137654836Y-21921568D01*
X137654837Y-21921567D01*
X137819150Y-21888884D01*
X137973931Y-21824771D01*
X138113230Y-21731694D01*
X138231694Y-21613230D01*
X138324771Y-21473931D01*
X138388884Y-21319150D01*
X138421568Y-21154835D01*
X138421568Y-20987301D01*
X138388884Y-20822986D01*
X138324771Y-20668205D01*
X138260264Y-20571664D01*
X138231694Y-20528905D01*
X138114970Y-20412181D01*
X138081485Y-20350858D01*
X138086469Y-20281166D01*
X138128341Y-20225233D01*
X138193805Y-20200816D01*
X138202651Y-20200500D01*
X142939485Y-20200500D01*
X143006524Y-20220185D01*
X143052279Y-20272989D01*
X143062223Y-20342147D01*
X143033198Y-20405703D01*
X143027166Y-20412181D01*
X142910444Y-20528902D01*
X142910441Y-20528905D01*
X142817363Y-20668207D01*
X142753252Y-20822985D01*
X142753250Y-20822993D01*
X142720568Y-20987296D01*
X142720568Y-21154839D01*
X142753250Y-21319142D01*
X142753252Y-21319150D01*
X142817363Y-21473928D01*
X142910441Y-21613230D01*
X143028905Y-21731694D01*
X143101566Y-21780244D01*
X143168205Y-21824771D01*
X143322986Y-21888884D01*
X143487296Y-21921567D01*
X143487300Y-21921568D01*
X143487301Y-21921568D01*
X143654836Y-21921568D01*
X143654837Y-21921567D01*
X143819150Y-21888884D01*
X143973931Y-21824771D01*
X144113230Y-21731694D01*
X144231694Y-21613230D01*
X144324771Y-21473931D01*
X144388884Y-21319150D01*
X144421568Y-21154835D01*
X144421568Y-20987301D01*
X144388884Y-20822986D01*
X144324771Y-20668205D01*
X144260264Y-20571664D01*
X144231694Y-20528905D01*
X144114970Y-20412181D01*
X144081485Y-20350858D01*
X144086469Y-20281166D01*
X144128341Y-20225233D01*
X144193805Y-20200816D01*
X144202651Y-20200500D01*
X152939485Y-20200500D01*
X153006524Y-20220185D01*
X153052279Y-20272989D01*
X153062223Y-20342147D01*
X153033198Y-20405703D01*
X153027166Y-20412181D01*
X152910444Y-20528902D01*
X152910441Y-20528905D01*
X152817363Y-20668207D01*
X152753252Y-20822985D01*
X152753250Y-20822993D01*
X152720568Y-20987296D01*
X152720568Y-21154839D01*
X152753250Y-21319142D01*
X152753252Y-21319150D01*
X152817363Y-21473928D01*
X152910441Y-21613230D01*
X153028905Y-21731694D01*
X153101566Y-21780244D01*
X153168205Y-21824771D01*
X153322986Y-21888884D01*
X153487296Y-21921567D01*
X153487300Y-21921568D01*
X153487301Y-21921568D01*
X153654836Y-21921568D01*
X153654837Y-21921567D01*
X153819150Y-21888884D01*
X153973931Y-21824771D01*
X154113230Y-21731694D01*
X154231694Y-21613230D01*
X154324771Y-21473931D01*
X154388884Y-21319150D01*
X154421568Y-21154835D01*
X154421568Y-20987301D01*
X154388884Y-20822986D01*
X154324771Y-20668205D01*
X154260264Y-20571664D01*
X154231694Y-20528905D01*
X154114970Y-20412181D01*
X154081485Y-20350858D01*
X154086469Y-20281166D01*
X154128341Y-20225233D01*
X154193805Y-20200816D01*
X154202651Y-20200500D01*
X158939485Y-20200500D01*
X159006524Y-20220185D01*
X159052279Y-20272989D01*
X159062223Y-20342147D01*
X159033198Y-20405703D01*
X159027166Y-20412181D01*
X158910444Y-20528902D01*
X158910441Y-20528905D01*
X158817363Y-20668207D01*
X158753252Y-20822985D01*
X158753250Y-20822993D01*
X158720568Y-20987296D01*
X158720568Y-21154839D01*
X158753250Y-21319142D01*
X158753252Y-21319150D01*
X158817363Y-21473928D01*
X158910441Y-21613230D01*
X159028905Y-21731694D01*
X159101566Y-21780244D01*
X159168205Y-21824771D01*
X159322986Y-21888884D01*
X159487296Y-21921567D01*
X159487300Y-21921568D01*
X159487301Y-21921568D01*
X159654836Y-21921568D01*
X159654837Y-21921567D01*
X159819150Y-21888884D01*
X159973931Y-21824771D01*
X160113230Y-21731694D01*
X160231694Y-21613230D01*
X160324771Y-21473931D01*
X160388884Y-21319150D01*
X160421568Y-21154835D01*
X160421568Y-20987301D01*
X160388884Y-20822986D01*
X160324771Y-20668205D01*
X160260264Y-20571664D01*
X160231694Y-20528905D01*
X160114970Y-20412181D01*
X160081485Y-20350858D01*
X160086469Y-20281166D01*
X160128341Y-20225233D01*
X160193805Y-20200816D01*
X160202651Y-20200500D01*
X163460118Y-20200500D01*
X163498141Y-20200500D01*
X163501886Y-20200557D01*
X164087951Y-20218266D01*
X164095383Y-20218715D01*
X164641901Y-20268378D01*
X164677468Y-20271611D01*
X164684904Y-20272514D01*
X164973804Y-20316484D01*
X165262707Y-20360454D01*
X165270067Y-20361803D01*
X165841509Y-20484470D01*
X165848762Y-20486257D01*
X166411792Y-20643214D01*
X166418919Y-20645436D01*
X166933437Y-20822985D01*
X166971402Y-20836086D01*
X166978407Y-20838742D01*
X167518389Y-21062411D01*
X167525197Y-21065475D01*
X168050697Y-21321342D01*
X168057296Y-21324805D01*
X168321703Y-21473931D01*
X168566386Y-21611933D01*
X168572795Y-21615808D01*
X168895994Y-21824771D01*
X169063598Y-21933135D01*
X169063605Y-21933139D01*
X169069750Y-21937380D01*
X169540525Y-22283783D01*
X169546421Y-22288403D01*
X169995376Y-22662561D01*
X170000983Y-22667527D01*
X170426562Y-23068140D01*
X170431859Y-23073437D01*
X170832472Y-23499016D01*
X170837438Y-23504623D01*
X171211596Y-23953578D01*
X171216214Y-23959471D01*
X171562614Y-24430242D01*
X171566860Y-24436394D01*
X171884191Y-24927204D01*
X171888066Y-24933613D01*
X171963757Y-25067816D01*
X172168220Y-25430338D01*
X172175185Y-25442686D01*
X172178661Y-25449309D01*
X172217417Y-25528906D01*
X172434519Y-25974791D01*
X172437593Y-25981621D01*
X172661257Y-26521593D01*
X172663913Y-26528597D01*
X172854559Y-27081068D01*
X172856788Y-27088219D01*
X173013739Y-27651227D01*
X173015531Y-27658500D01*
X173138195Y-28229928D01*
X173139545Y-28237295D01*
X173227485Y-28815095D01*
X173228388Y-28822531D01*
X173281282Y-29404593D01*
X173281734Y-29412070D01*
X173299442Y-29998112D01*
X173299499Y-30001857D01*
X173299499Y-59998141D01*
X173299442Y-60001886D01*
X173281733Y-60587929D01*
X173281281Y-60595406D01*
X173228388Y-61177469D01*
X173227485Y-61184905D01*
X173139545Y-61762704D01*
X173138195Y-61770071D01*
X173015531Y-62341500D01*
X173013739Y-62348773D01*
X172856789Y-62911781D01*
X172854560Y-62918932D01*
X172663913Y-63471403D01*
X172661257Y-63478407D01*
X172437594Y-64018379D01*
X172434520Y-64025209D01*
X172178667Y-64550681D01*
X172175186Y-64557314D01*
X171888067Y-65066387D01*
X171884192Y-65072796D01*
X171566861Y-65563606D01*
X171562606Y-65569771D01*
X171216225Y-66040515D01*
X171211606Y-66046411D01*
X170837424Y-66495397D01*
X170832456Y-66501004D01*
X170431859Y-66926563D01*
X170426563Y-66931859D01*
X170000994Y-67332464D01*
X169995388Y-67337431D01*
X169546423Y-67711598D01*
X169540526Y-67716218D01*
X169069771Y-68062607D01*
X169063606Y-68066862D01*
X168572796Y-68384193D01*
X168566387Y-68388068D01*
X168057314Y-68675187D01*
X168050681Y-68678668D01*
X167525209Y-68934521D01*
X167518379Y-68937595D01*
X166978407Y-69161258D01*
X166971403Y-69163914D01*
X166418932Y-69354561D01*
X166411781Y-69356790D01*
X165848773Y-69513740D01*
X165841500Y-69515532D01*
X165270071Y-69638196D01*
X165262704Y-69639546D01*
X164684905Y-69727485D01*
X164677469Y-69728388D01*
X164095406Y-69781282D01*
X164087929Y-69781734D01*
X163501886Y-69799442D01*
X163498141Y-69799499D01*
X133501859Y-69799499D01*
X133498114Y-69799442D01*
X132912070Y-69781734D01*
X132904593Y-69781282D01*
X132322529Y-69728389D01*
X132315093Y-69727486D01*
X131737294Y-69639547D01*
X131729927Y-69638197D01*
X131158498Y-69515533D01*
X131151225Y-69513741D01*
X130588217Y-69356792D01*
X130581066Y-69354563D01*
X130028593Y-69163916D01*
X130021589Y-69161260D01*
X129481618Y-68937598D01*
X129474788Y-68934524D01*
X129233996Y-68817282D01*
X128949310Y-68678668D01*
X128942682Y-68675190D01*
X128905313Y-68654114D01*
X128732313Y-68556541D01*
X128433609Y-68388071D01*
X128427200Y-68384196D01*
X128109819Y-68178995D01*
X156149499Y-68178995D01*
X156176418Y-68314322D01*
X156176421Y-68314332D01*
X156229221Y-68441804D01*
X156229228Y-68441817D01*
X156305885Y-68556541D01*
X156305888Y-68556545D01*
X156403454Y-68654111D01*
X156403458Y-68654114D01*
X156518182Y-68730771D01*
X156518195Y-68730778D01*
X156645667Y-68783578D01*
X156645672Y-68783580D01*
X156645676Y-68783580D01*
X156645677Y-68783581D01*
X156781004Y-68810500D01*
X156781007Y-68810500D01*
X156918995Y-68810500D01*
X157010041Y-68792389D01*
X157054328Y-68783580D01*
X157181811Y-68730775D01*
X157296542Y-68654114D01*
X157394114Y-68556542D01*
X157470775Y-68441811D01*
X157523580Y-68314328D01*
X157532389Y-68270041D01*
X157550500Y-68178995D01*
X159149499Y-68178995D01*
X159176418Y-68314322D01*
X159176421Y-68314332D01*
X159229221Y-68441804D01*
X159229228Y-68441817D01*
X159305885Y-68556541D01*
X159305888Y-68556545D01*
X159403454Y-68654111D01*
X159403458Y-68654114D01*
X159518182Y-68730771D01*
X159518195Y-68730778D01*
X159645667Y-68783578D01*
X159645672Y-68783580D01*
X159645676Y-68783580D01*
X159645677Y-68783581D01*
X159781004Y-68810500D01*
X159781007Y-68810500D01*
X159918995Y-68810500D01*
X160010041Y-68792389D01*
X160054328Y-68783580D01*
X160181811Y-68730775D01*
X160296542Y-68654114D01*
X160394114Y-68556542D01*
X160470775Y-68441811D01*
X160523580Y-68314328D01*
X160532389Y-68270041D01*
X160550500Y-68178995D01*
X160550500Y-68041004D01*
X160523581Y-67905677D01*
X160523580Y-67905676D01*
X160523580Y-67905672D01*
X160506000Y-67863230D01*
X160470778Y-67778195D01*
X160470771Y-67778182D01*
X160394114Y-67663458D01*
X160394111Y-67663454D01*
X160296545Y-67565888D01*
X160296541Y-67565885D01*
X160181817Y-67489228D01*
X160181804Y-67489221D01*
X160054332Y-67436421D01*
X160054322Y-67436418D01*
X159918995Y-67409500D01*
X159918993Y-67409500D01*
X159781007Y-67409500D01*
X159781005Y-67409500D01*
X159645677Y-67436418D01*
X159645667Y-67436421D01*
X159518195Y-67489221D01*
X159518182Y-67489228D01*
X159403458Y-67565885D01*
X159403454Y-67565888D01*
X159305888Y-67663454D01*
X159305885Y-67663458D01*
X159229228Y-67778182D01*
X159229221Y-67778195D01*
X159176421Y-67905667D01*
X159176418Y-67905677D01*
X159149500Y-68041004D01*
X159149500Y-68041007D01*
X159149500Y-68178993D01*
X159149500Y-68178995D01*
X159149499Y-68178995D01*
X157550500Y-68178995D01*
X157550500Y-68041004D01*
X157523581Y-67905677D01*
X157523580Y-67905676D01*
X157523580Y-67905672D01*
X157506000Y-67863230D01*
X157470778Y-67778195D01*
X157470771Y-67778182D01*
X157394114Y-67663458D01*
X157394111Y-67663454D01*
X157296545Y-67565888D01*
X157296541Y-67565885D01*
X157181817Y-67489228D01*
X157181804Y-67489221D01*
X157054332Y-67436421D01*
X157054322Y-67436418D01*
X156918995Y-67409500D01*
X156918993Y-67409500D01*
X156781007Y-67409500D01*
X156781005Y-67409500D01*
X156645677Y-67436418D01*
X156645667Y-67436421D01*
X156518195Y-67489221D01*
X156518182Y-67489228D01*
X156403458Y-67565885D01*
X156403454Y-67565888D01*
X156305888Y-67663454D01*
X156305885Y-67663458D01*
X156229228Y-67778182D01*
X156229221Y-67778195D01*
X156176421Y-67905667D01*
X156176418Y-67905677D01*
X156149500Y-68041004D01*
X156149500Y-68041007D01*
X156149500Y-68178993D01*
X156149500Y-68178995D01*
X156149499Y-68178995D01*
X128109819Y-68178995D01*
X127936390Y-68066865D01*
X127930238Y-68062619D01*
X127459481Y-67716229D01*
X127453585Y-67711610D01*
X127186746Y-67489228D01*
X127004589Y-67337419D01*
X126998997Y-67332464D01*
X126798287Y-67143528D01*
X126573432Y-66931862D01*
X126568136Y-66926566D01*
X126228910Y-66566202D01*
X126193801Y-66528905D01*
X126167529Y-66500995D01*
X126162582Y-66495412D01*
X126155818Y-66487296D01*
X134970568Y-66487296D01*
X134970568Y-66654839D01*
X135003250Y-66819142D01*
X135003252Y-66819150D01*
X135067363Y-66973928D01*
X135160441Y-67113230D01*
X135278905Y-67231694D01*
X135287297Y-67237301D01*
X135418205Y-67324771D01*
X135572986Y-67388884D01*
X135676631Y-67409500D01*
X135737296Y-67421567D01*
X135737300Y-67421568D01*
X135737301Y-67421568D01*
X135904836Y-67421568D01*
X135904837Y-67421567D01*
X136069150Y-67388884D01*
X136223931Y-67324771D01*
X136354846Y-67237296D01*
X144720568Y-67237296D01*
X144720568Y-67404839D01*
X144753250Y-67569142D01*
X144753252Y-67569150D01*
X144817363Y-67723928D01*
X144910441Y-67863230D01*
X145028905Y-67981694D01*
X145117669Y-68041004D01*
X145168205Y-68074771D01*
X145322986Y-68138884D01*
X145487296Y-68171567D01*
X145487300Y-68171568D01*
X145487301Y-68171568D01*
X145654836Y-68171568D01*
X145654837Y-68171567D01*
X145819150Y-68138884D01*
X145973931Y-68074771D01*
X146113230Y-67981694D01*
X146231694Y-67863230D01*
X146324771Y-67723931D01*
X146388884Y-67569150D01*
X146421568Y-67404835D01*
X146421568Y-67237301D01*
X146388884Y-67072986D01*
X146353390Y-66987296D01*
X149970568Y-66987296D01*
X149970568Y-67154839D01*
X150003250Y-67319142D01*
X150003252Y-67319150D01*
X150067363Y-67473928D01*
X150160441Y-67613230D01*
X150278905Y-67731694D01*
X150348480Y-67778182D01*
X150418205Y-67824771D01*
X150572986Y-67888884D01*
X150695725Y-67913298D01*
X150737296Y-67921567D01*
X150737300Y-67921568D01*
X150737301Y-67921568D01*
X150904836Y-67921568D01*
X150904837Y-67921567D01*
X150916815Y-67919184D01*
X150946414Y-67913298D01*
X151002950Y-67902051D01*
X151069150Y-67888884D01*
X151223931Y-67824771D01*
X151363230Y-67731694D01*
X151481694Y-67613230D01*
X151574771Y-67473931D01*
X151638884Y-67319150D01*
X151671568Y-67154835D01*
X151671568Y-66987301D01*
X151638884Y-66822986D01*
X151574771Y-66668205D01*
X151507392Y-66567365D01*
X151481694Y-66528905D01*
X151363230Y-66410441D01*
X151223928Y-66317363D01*
X151069150Y-66253252D01*
X151069142Y-66253250D01*
X150904839Y-66220568D01*
X150904835Y-66220568D01*
X150737301Y-66220568D01*
X150737296Y-66220568D01*
X150572993Y-66253250D01*
X150572985Y-66253252D01*
X150418207Y-66317363D01*
X150278905Y-66410441D01*
X150160441Y-66528905D01*
X150067363Y-66668207D01*
X150003252Y-66822985D01*
X150003250Y-66822993D01*
X149970568Y-66987296D01*
X146353390Y-66987296D01*
X146329365Y-66929295D01*
X146324772Y-66918207D01*
X146231694Y-66778905D01*
X146113230Y-66660441D01*
X145973928Y-66567363D01*
X145819150Y-66503252D01*
X145819142Y-66503250D01*
X145654839Y-66470568D01*
X145654835Y-66470568D01*
X145487301Y-66470568D01*
X145487296Y-66470568D01*
X145322993Y-66503250D01*
X145322985Y-66503252D01*
X145168207Y-66567363D01*
X145028905Y-66660441D01*
X144910441Y-66778905D01*
X144817363Y-66918207D01*
X144753252Y-67072985D01*
X144753250Y-67072993D01*
X144720568Y-67237296D01*
X136354846Y-67237296D01*
X136363230Y-67231694D01*
X136363233Y-67231691D01*
X136451397Y-67143528D01*
X136481691Y-67113233D01*
X136481694Y-67113230D01*
X136574771Y-66973931D01*
X136638884Y-66819150D01*
X136671568Y-66654835D01*
X136671568Y-66487301D01*
X136638884Y-66322986D01*
X136574771Y-66168205D01*
X136493391Y-66046411D01*
X136481694Y-66028905D01*
X136363230Y-65910441D01*
X136223928Y-65817363D01*
X136069150Y-65753252D01*
X136069142Y-65753250D01*
X135904839Y-65720568D01*
X135904835Y-65720568D01*
X135737301Y-65720568D01*
X135737296Y-65720568D01*
X135572993Y-65753250D01*
X135572985Y-65753252D01*
X135418207Y-65817363D01*
X135278905Y-65910441D01*
X135160441Y-66028905D01*
X135067363Y-66168207D01*
X135003252Y-66322985D01*
X135003250Y-66322993D01*
X134970568Y-66487296D01*
X126155818Y-66487296D01*
X125788387Y-66046411D01*
X125783770Y-66040518D01*
X125688058Y-65910442D01*
X125437375Y-65569754D01*
X125433143Y-65563623D01*
X125383794Y-65487296D01*
X160970568Y-65487296D01*
X160970568Y-65654839D01*
X161003250Y-65819142D01*
X161003252Y-65819150D01*
X161067363Y-65973928D01*
X161160441Y-66113230D01*
X161278905Y-66231694D01*
X161371562Y-66293605D01*
X161418205Y-66324771D01*
X161572986Y-66388884D01*
X161737296Y-66421567D01*
X161737300Y-66421568D01*
X161737301Y-66421568D01*
X161904836Y-66421568D01*
X161904837Y-66421567D01*
X162069150Y-66388884D01*
X162223931Y-66324771D01*
X162363230Y-66231694D01*
X162481694Y-66113230D01*
X162574771Y-65973931D01*
X162638884Y-65819150D01*
X162671568Y-65654835D01*
X162671568Y-65487301D01*
X162638884Y-65322986D01*
X162574771Y-65168205D01*
X162512340Y-65074771D01*
X162481694Y-65028905D01*
X162363230Y-64910441D01*
X162223928Y-64817363D01*
X162069150Y-64753252D01*
X162069142Y-64753250D01*
X161904839Y-64720568D01*
X161904835Y-64720568D01*
X161737301Y-64720568D01*
X161737296Y-64720568D01*
X161572993Y-64753250D01*
X161572985Y-64753252D01*
X161418207Y-64817363D01*
X161278905Y-64910441D01*
X161160441Y-65028905D01*
X161067363Y-65168207D01*
X161003252Y-65322985D01*
X161003250Y-65322993D01*
X160970568Y-65487296D01*
X125383794Y-65487296D01*
X125277559Y-65322985D01*
X125115798Y-65072792D01*
X125111923Y-65066383D01*
X125090786Y-65028906D01*
X124824805Y-64557308D01*
X124821332Y-64550691D01*
X124758461Y-64421567D01*
X124565470Y-64025200D01*
X124562401Y-64018381D01*
X124562400Y-64018379D01*
X124338734Y-63478400D01*
X124336082Y-63471406D01*
X124335793Y-63470568D01*
X124145432Y-62918921D01*
X124143207Y-62911782D01*
X124142833Y-62910442D01*
X123986254Y-62348764D01*
X123984465Y-62341501D01*
X123947604Y-62169786D01*
X123861800Y-61770069D01*
X123860451Y-61762705D01*
X123858768Y-61751650D01*
X123772511Y-61184904D01*
X123771609Y-61177470D01*
X123753098Y-60973760D01*
X123718714Y-60595383D01*
X123718265Y-60587951D01*
X123700557Y-60001886D01*
X123700500Y-59998141D01*
X123700500Y-59837860D01*
X130199500Y-59837860D01*
X130199500Y-60162139D01*
X130231284Y-60484857D01*
X130231287Y-60484874D01*
X130294545Y-60802902D01*
X130294548Y-60802913D01*
X130388686Y-61113247D01*
X130512786Y-61412849D01*
X130512788Y-61412854D01*
X130665646Y-61698830D01*
X130665657Y-61698848D01*
X130845811Y-61968467D01*
X130845821Y-61968481D01*
X131051546Y-62219158D01*
X131280841Y-62448453D01*
X131280846Y-62448457D01*
X131280847Y-62448458D01*
X131531524Y-62654183D01*
X131801158Y-62834347D01*
X131801167Y-62834352D01*
X131801169Y-62834353D01*
X132087145Y-62987211D01*
X132087147Y-62987211D01*
X132087153Y-62987215D01*
X132386754Y-63111314D01*
X132697077Y-63205449D01*
X132697083Y-63205450D01*
X132697086Y-63205451D01*
X132697097Y-63205454D01*
X132896528Y-63245122D01*
X133015132Y-63268714D01*
X133337857Y-63300500D01*
X133337860Y-63300500D01*
X133439083Y-63300500D01*
X133506122Y-63320185D01*
X133551877Y-63372989D01*
X133561821Y-63442147D01*
X133532796Y-63505703D01*
X133486536Y-63539061D01*
X133418207Y-63567363D01*
X133278905Y-63660441D01*
X133160441Y-63778905D01*
X133067363Y-63918207D01*
X133003252Y-64072985D01*
X133003250Y-64072993D01*
X132970568Y-64237296D01*
X132970568Y-64404839D01*
X133003250Y-64569142D01*
X133003252Y-64569150D01*
X133067363Y-64723928D01*
X133160441Y-64863230D01*
X133278905Y-64981694D01*
X133326255Y-65013332D01*
X133418205Y-65074771D01*
X133572986Y-65138884D01*
X133720394Y-65168205D01*
X133737296Y-65171567D01*
X133737300Y-65171568D01*
X133737301Y-65171568D01*
X133904836Y-65171568D01*
X133904837Y-65171567D01*
X134069150Y-65138884D01*
X134223931Y-65074771D01*
X134363230Y-64981694D01*
X134481694Y-64863230D01*
X134574771Y-64723931D01*
X134638884Y-64569150D01*
X134671568Y-64404835D01*
X134671568Y-64237301D01*
X134638884Y-64072986D01*
X134574771Y-63918205D01*
X134543605Y-63871562D01*
X134481694Y-63778905D01*
X134363230Y-63660441D01*
X134249292Y-63584311D01*
X134223928Y-63567363D01*
X134069150Y-63503252D01*
X134069147Y-63503251D01*
X134048867Y-63499217D01*
X134026078Y-63487296D01*
X146820568Y-63487296D01*
X146820568Y-63654839D01*
X146853250Y-63819142D01*
X146853252Y-63819150D01*
X146917363Y-63973928D01*
X147010441Y-64113230D01*
X147128905Y-64231694D01*
X147137297Y-64237301D01*
X147268205Y-64324771D01*
X147422986Y-64388884D01*
X147587296Y-64421567D01*
X147587300Y-64421568D01*
X147587301Y-64421568D01*
X147754836Y-64421568D01*
X147754837Y-64421567D01*
X147919150Y-64388884D01*
X148073931Y-64324771D01*
X148213230Y-64231694D01*
X148331694Y-64113230D01*
X148424771Y-63973931D01*
X148488884Y-63819150D01*
X148521568Y-63654835D01*
X148521568Y-63487301D01*
X148488884Y-63322986D01*
X148424771Y-63168205D01*
X148393605Y-63121562D01*
X148331694Y-63028905D01*
X148213230Y-62910441D01*
X148073928Y-62817363D01*
X147919150Y-62753252D01*
X147919142Y-62753250D01*
X147754839Y-62720568D01*
X147754835Y-62720568D01*
X147587301Y-62720568D01*
X147587296Y-62720568D01*
X147422993Y-62753250D01*
X147422985Y-62753252D01*
X147268207Y-62817363D01*
X147128905Y-62910441D01*
X147010441Y-63028905D01*
X146917363Y-63168207D01*
X146853252Y-63322985D01*
X146853250Y-63322993D01*
X146820568Y-63487296D01*
X134026078Y-63487296D01*
X133986957Y-63466831D01*
X133952384Y-63406114D01*
X133956125Y-63336345D01*
X133996993Y-63279674D01*
X134048869Y-63255983D01*
X134103484Y-63245119D01*
X134302902Y-63205454D01*
X134302913Y-63205451D01*
X134302913Y-63205450D01*
X134302923Y-63205449D01*
X134613246Y-63111314D01*
X134912847Y-62987215D01*
X135198842Y-62834347D01*
X135468476Y-62654183D01*
X135719153Y-62448458D01*
X135948458Y-62219153D01*
X136154183Y-61968476D01*
X136334347Y-61698842D01*
X136487215Y-61412847D01*
X136611314Y-61113246D01*
X136705449Y-60802923D01*
X136705451Y-60802913D01*
X136705454Y-60802902D01*
X136738652Y-60635998D01*
X136768714Y-60484868D01*
X136800500Y-60162143D01*
X136800500Y-59946607D01*
X150370568Y-59946607D01*
X150370568Y-60114150D01*
X150403250Y-60278453D01*
X150403252Y-60278461D01*
X150467363Y-60433239D01*
X150560441Y-60572541D01*
X150678905Y-60691005D01*
X150771562Y-60752916D01*
X150818205Y-60784082D01*
X150818206Y-60784082D01*
X150818207Y-60784083D01*
X150832330Y-60789933D01*
X150886733Y-60833774D01*
X150908798Y-60900068D01*
X150902808Y-60942811D01*
X150892754Y-60973753D01*
X150859500Y-61183713D01*
X150859500Y-61396286D01*
X150881551Y-61535514D01*
X150892754Y-61606243D01*
X150945985Y-61770071D01*
X150958444Y-61808414D01*
X151054951Y-61997820D01*
X151179890Y-62169786D01*
X151330213Y-62320109D01*
X151502179Y-62445048D01*
X151502181Y-62445049D01*
X151502184Y-62445051D01*
X151691588Y-62541557D01*
X151893757Y-62607246D01*
X152103713Y-62640500D01*
X152103714Y-62640500D01*
X152316286Y-62640500D01*
X152316287Y-62640500D01*
X152526243Y-62607246D01*
X152728412Y-62541557D01*
X152917816Y-62445051D01*
X152939789Y-62429086D01*
X153089786Y-62320109D01*
X153089788Y-62320106D01*
X153089792Y-62320104D01*
X153240104Y-62169792D01*
X153240106Y-62169788D01*
X153240109Y-62169786D01*
X153365048Y-61997820D01*
X153365047Y-61997820D01*
X153365051Y-61997816D01*
X153369514Y-61989054D01*
X153417488Y-61938259D01*
X153485308Y-61921463D01*
X153551444Y-61943999D01*
X153590486Y-61989056D01*
X153594951Y-61997820D01*
X153719890Y-62169786D01*
X153870213Y-62320109D01*
X154042179Y-62445048D01*
X154042181Y-62445049D01*
X154042184Y-62445051D01*
X154231588Y-62541557D01*
X154433757Y-62607246D01*
X154643713Y-62640500D01*
X154643714Y-62640500D01*
X154856286Y-62640500D01*
X154856287Y-62640500D01*
X155066243Y-62607246D01*
X155268412Y-62541557D01*
X155457816Y-62445051D01*
X155479789Y-62429086D01*
X155629786Y-62320109D01*
X155629788Y-62320106D01*
X155629792Y-62320104D01*
X155780104Y-62169792D01*
X155780106Y-62169788D01*
X155780109Y-62169786D01*
X155905048Y-61997820D01*
X155905047Y-61997820D01*
X155905051Y-61997816D01*
X156001557Y-61808412D01*
X156067246Y-61606243D01*
X156100500Y-61396287D01*
X156100500Y-61183713D01*
X156067246Y-60973757D01*
X156001557Y-60771588D01*
X155905051Y-60582184D01*
X155905049Y-60582181D01*
X155905048Y-60582179D01*
X155780109Y-60410213D01*
X155629786Y-60259890D01*
X155457820Y-60134951D01*
X155457115Y-60134591D01*
X155449054Y-60130485D01*
X155398259Y-60082512D01*
X155381463Y-60014692D01*
X155403999Y-59948556D01*
X155449054Y-59909515D01*
X155457816Y-59905051D01*
X155479789Y-59889086D01*
X155550297Y-59837860D01*
X160199500Y-59837860D01*
X160199500Y-60162139D01*
X160231284Y-60484857D01*
X160231287Y-60484874D01*
X160294545Y-60802902D01*
X160294548Y-60802913D01*
X160388686Y-61113247D01*
X160512786Y-61412849D01*
X160512788Y-61412854D01*
X160665646Y-61698830D01*
X160665657Y-61698848D01*
X160845811Y-61968467D01*
X160845821Y-61968481D01*
X161051546Y-62219158D01*
X161280841Y-62448453D01*
X161280846Y-62448457D01*
X161280847Y-62448458D01*
X161531524Y-62654183D01*
X161801158Y-62834347D01*
X161801167Y-62834352D01*
X161801169Y-62834353D01*
X162087145Y-62987211D01*
X162087147Y-62987211D01*
X162087153Y-62987215D01*
X162386754Y-63111314D01*
X162697077Y-63205449D01*
X162697083Y-63205450D01*
X162697086Y-63205451D01*
X162697097Y-63205454D01*
X162896528Y-63245122D01*
X163015132Y-63268714D01*
X163337857Y-63300500D01*
X163337860Y-63300500D01*
X163662140Y-63300500D01*
X163662143Y-63300500D01*
X163984868Y-63268714D01*
X164142295Y-63237399D01*
X164302902Y-63205454D01*
X164302913Y-63205451D01*
X164302913Y-63205450D01*
X164302923Y-63205449D01*
X164613246Y-63111314D01*
X164912847Y-62987215D01*
X165198842Y-62834347D01*
X165468476Y-62654183D01*
X165719153Y-62448458D01*
X165948458Y-62219153D01*
X166154183Y-61968476D01*
X166334347Y-61698842D01*
X166487215Y-61412847D01*
X166611314Y-61113246D01*
X166705449Y-60802923D01*
X166705451Y-60802913D01*
X166705454Y-60802902D01*
X166738652Y-60635998D01*
X166768714Y-60484868D01*
X166800500Y-60162143D01*
X166800500Y-59837857D01*
X166768714Y-59515132D01*
X166730849Y-59324771D01*
X166705454Y-59197097D01*
X166705451Y-59197086D01*
X166705450Y-59197083D01*
X166705449Y-59197077D01*
X166611314Y-58886754D01*
X166487215Y-58587153D01*
X166461830Y-58539662D01*
X166334353Y-58301169D01*
X166334352Y-58301167D01*
X166334347Y-58301158D01*
X166154183Y-58031524D01*
X165948458Y-57780847D01*
X165948457Y-57780846D01*
X165948453Y-57780841D01*
X165719158Y-57551546D01*
X165468481Y-57345821D01*
X165468480Y-57345820D01*
X165468476Y-57345817D01*
X165198842Y-57165653D01*
X165198837Y-57165650D01*
X165198830Y-57165646D01*
X164912854Y-57012788D01*
X164912849Y-57012786D01*
X164613247Y-56888686D01*
X164302913Y-56794548D01*
X164302902Y-56794545D01*
X163984874Y-56731287D01*
X163984857Y-56731284D01*
X163740812Y-56707248D01*
X163662143Y-56699500D01*
X163337857Y-56699500D01*
X163265099Y-56706666D01*
X163015142Y-56731284D01*
X163015125Y-56731287D01*
X162697097Y-56794545D01*
X162697086Y-56794548D01*
X162386752Y-56888686D01*
X162087150Y-57012786D01*
X162087145Y-57012788D01*
X161801169Y-57165646D01*
X161801151Y-57165657D01*
X161531532Y-57345811D01*
X161531518Y-57345821D01*
X161280841Y-57551546D01*
X161051546Y-57780841D01*
X160845821Y-58031518D01*
X160845811Y-58031532D01*
X160665657Y-58301151D01*
X160665646Y-58301169D01*
X160512788Y-58587145D01*
X160512786Y-58587150D01*
X160388686Y-58886752D01*
X160294548Y-59197086D01*
X160294545Y-59197097D01*
X160231287Y-59515125D01*
X160231284Y-59515142D01*
X160199500Y-59837860D01*
X155550297Y-59837860D01*
X155629786Y-59780109D01*
X155629788Y-59780106D01*
X155629792Y-59780104D01*
X155780104Y-59629792D01*
X155780106Y-59629788D01*
X155780109Y-59629786D01*
X155905048Y-59457820D01*
X155905047Y-59457820D01*
X155905051Y-59457816D01*
X156001557Y-59268412D01*
X156067246Y-59066243D01*
X156100500Y-58856287D01*
X156100500Y-58643713D01*
X156067246Y-58433757D01*
X156001557Y-58231588D01*
X155905051Y-58042184D01*
X155905049Y-58042181D01*
X155905048Y-58042179D01*
X155780109Y-57870213D01*
X155629786Y-57719890D01*
X155457820Y-57594951D01*
X155457165Y-57594617D01*
X155451429Y-57591694D01*
X155449970Y-57590951D01*
X155449057Y-57590486D01*
X155398260Y-57542514D01*
X155384584Y-57487296D01*
X156470568Y-57487296D01*
X156470568Y-57654839D01*
X156503250Y-57819142D01*
X156503252Y-57819150D01*
X156567363Y-57973928D01*
X156660441Y-58113230D01*
X156778905Y-58231694D01*
X156863696Y-58288349D01*
X156918205Y-58324771D01*
X157072986Y-58388884D01*
X157237296Y-58421567D01*
X157237300Y-58421568D01*
X157237301Y-58421568D01*
X157404836Y-58421568D01*
X157404837Y-58421567D01*
X157569150Y-58388884D01*
X157723931Y-58324771D01*
X157863230Y-58231694D01*
X157981694Y-58113230D01*
X158074771Y-57973931D01*
X158138884Y-57819150D01*
X158171568Y-57654835D01*
X158171568Y-57487301D01*
X158138884Y-57322986D01*
X158074771Y-57168205D01*
X158022373Y-57089786D01*
X157981694Y-57028905D01*
X157863230Y-56910441D01*
X157723928Y-56817363D01*
X157569150Y-56753252D01*
X157569142Y-56753250D01*
X157404839Y-56720568D01*
X157404835Y-56720568D01*
X157237301Y-56720568D01*
X157237296Y-56720568D01*
X157072993Y-56753250D01*
X157072985Y-56753252D01*
X156918207Y-56817363D01*
X156778905Y-56910441D01*
X156660441Y-57028905D01*
X156567363Y-57168207D01*
X156503252Y-57322985D01*
X156503250Y-57322993D01*
X156470568Y-57487296D01*
X155384584Y-57487296D01*
X155381463Y-57474694D01*
X155403998Y-57408558D01*
X155449054Y-57369515D01*
X155457816Y-57365051D01*
X155544471Y-57302093D01*
X155629786Y-57240109D01*
X155629788Y-57240106D01*
X155629792Y-57240104D01*
X155780104Y-57089792D01*
X155780106Y-57089788D01*
X155780109Y-57089786D01*
X155905048Y-56917820D01*
X155905047Y-56917820D01*
X155905051Y-56917816D01*
X156001557Y-56728412D01*
X156067246Y-56526243D01*
X156100500Y-56316287D01*
X156100500Y-56103713D01*
X156067246Y-55893757D01*
X156016408Y-55737296D01*
X164720568Y-55737296D01*
X164720568Y-55904839D01*
X164753250Y-56069142D01*
X164753252Y-56069150D01*
X164817363Y-56223928D01*
X164910441Y-56363230D01*
X165028905Y-56481694D01*
X165081755Y-56517007D01*
X165168205Y-56574771D01*
X165322986Y-56638884D01*
X165470394Y-56668205D01*
X165487296Y-56671567D01*
X165487300Y-56671568D01*
X165487301Y-56671568D01*
X165654836Y-56671568D01*
X165654837Y-56671567D01*
X165819150Y-56638884D01*
X165973931Y-56574771D01*
X166113230Y-56481694D01*
X166231694Y-56363230D01*
X166324771Y-56223931D01*
X166388884Y-56069150D01*
X166421568Y-55904835D01*
X166421568Y-55818995D01*
X170904499Y-55818995D01*
X170931418Y-55954322D01*
X170931421Y-55954332D01*
X170984221Y-56081804D01*
X170984228Y-56081817D01*
X171060885Y-56196541D01*
X171060888Y-56196545D01*
X171158454Y-56294111D01*
X171158458Y-56294114D01*
X171273182Y-56370771D01*
X171273195Y-56370778D01*
X171400667Y-56423578D01*
X171400672Y-56423580D01*
X171400676Y-56423580D01*
X171400677Y-56423581D01*
X171536004Y-56450500D01*
X171536007Y-56450500D01*
X171673995Y-56450500D01*
X171765041Y-56432389D01*
X171809328Y-56423580D01*
X171936811Y-56370775D01*
X172051542Y-56294114D01*
X172149114Y-56196542D01*
X172225775Y-56081811D01*
X172278580Y-55954328D01*
X172305469Y-55819150D01*
X172305500Y-55818995D01*
X172305500Y-55681004D01*
X172278581Y-55545677D01*
X172278580Y-55545676D01*
X172278580Y-55545672D01*
X172254400Y-55487296D01*
X172225778Y-55418195D01*
X172225771Y-55418182D01*
X172149114Y-55303458D01*
X172149111Y-55303454D01*
X172051545Y-55205888D01*
X172051541Y-55205885D01*
X171936817Y-55129228D01*
X171936804Y-55129221D01*
X171809332Y-55076421D01*
X171809322Y-55076418D01*
X171673995Y-55049500D01*
X171673993Y-55049500D01*
X171536007Y-55049500D01*
X171536005Y-55049500D01*
X171400677Y-55076418D01*
X171400667Y-55076421D01*
X171273195Y-55129221D01*
X171273182Y-55129228D01*
X171158458Y-55205885D01*
X171158454Y-55205888D01*
X171060888Y-55303454D01*
X171060885Y-55303458D01*
X170984228Y-55418182D01*
X170984221Y-55418195D01*
X170931421Y-55545667D01*
X170931418Y-55545677D01*
X170904500Y-55681004D01*
X170904500Y-55681007D01*
X170904500Y-55818993D01*
X170904500Y-55818995D01*
X170904499Y-55818995D01*
X166421568Y-55818995D01*
X166421568Y-55737301D01*
X166412475Y-55691588D01*
X166388885Y-55572993D01*
X166388884Y-55572986D01*
X166324771Y-55418205D01*
X166274898Y-55343565D01*
X166231694Y-55278905D01*
X166113230Y-55160441D01*
X165973928Y-55067363D01*
X165819150Y-55003252D01*
X165819142Y-55003250D01*
X165654839Y-54970568D01*
X165654835Y-54970568D01*
X165487301Y-54970568D01*
X165487296Y-54970568D01*
X165322993Y-55003250D01*
X165322985Y-55003252D01*
X165168207Y-55067363D01*
X165028905Y-55160441D01*
X164910441Y-55278905D01*
X164817363Y-55418207D01*
X164753252Y-55572985D01*
X164753250Y-55572993D01*
X164720568Y-55737296D01*
X156016408Y-55737296D01*
X156001557Y-55691588D01*
X156001555Y-55691585D01*
X156001555Y-55691583D01*
X155927209Y-55545672D01*
X155905051Y-55502184D01*
X155905049Y-55502181D01*
X155905048Y-55502179D01*
X155780109Y-55330213D01*
X155629786Y-55179890D01*
X155457820Y-55054951D01*
X155268414Y-54958444D01*
X155268413Y-54958443D01*
X155268412Y-54958443D01*
X155066243Y-54892754D01*
X155066241Y-54892753D01*
X155066240Y-54892753D01*
X154904957Y-54867208D01*
X154856287Y-54859500D01*
X154643713Y-54859500D01*
X154595042Y-54867208D01*
X154433760Y-54892753D01*
X154231585Y-54958444D01*
X154042179Y-55054951D01*
X153870215Y-55179889D01*
X153756285Y-55293819D01*
X153694962Y-55327303D01*
X153625270Y-55322319D01*
X153569337Y-55280447D01*
X153552422Y-55249470D01*
X153503354Y-55117913D01*
X153503350Y-55117906D01*
X153417190Y-55002812D01*
X153417187Y-55002809D01*
X153302093Y-54916649D01*
X153302086Y-54916645D01*
X153167379Y-54866403D01*
X153167372Y-54866401D01*
X153107844Y-54860000D01*
X152460000Y-54860000D01*
X152460000Y-55776988D01*
X152402993Y-55744075D01*
X152275826Y-55710000D01*
X152144174Y-55710000D01*
X152017007Y-55744075D01*
X151960000Y-55776988D01*
X151960000Y-54860000D01*
X151312155Y-54860000D01*
X151252627Y-54866401D01*
X151252620Y-54866403D01*
X151117913Y-54916645D01*
X151117906Y-54916649D01*
X151002812Y-55002809D01*
X151002809Y-55002812D01*
X150916649Y-55117906D01*
X150916645Y-55117913D01*
X150866403Y-55252620D01*
X150866401Y-55252627D01*
X150860000Y-55312155D01*
X150860000Y-55960000D01*
X151776988Y-55960000D01*
X151744075Y-56017007D01*
X151710000Y-56144174D01*
X151710000Y-56275826D01*
X151744075Y-56402993D01*
X151776988Y-56460000D01*
X150860000Y-56460000D01*
X150860000Y-57107844D01*
X150866401Y-57167372D01*
X150866403Y-57167379D01*
X150916645Y-57302086D01*
X150916649Y-57302093D01*
X151002809Y-57417187D01*
X151002812Y-57417190D01*
X151117906Y-57503350D01*
X151117913Y-57503354D01*
X151249470Y-57552422D01*
X151305404Y-57594293D01*
X151329821Y-57659758D01*
X151314969Y-57728031D01*
X151293819Y-57756285D01*
X151179889Y-57870215D01*
X151054951Y-58042179D01*
X150958444Y-58231585D01*
X150892753Y-58433760D01*
X150859500Y-58643713D01*
X150859500Y-58856286D01*
X150892753Y-59066240D01*
X150892754Y-59066244D01*
X150908753Y-59115484D01*
X150910748Y-59185325D01*
X150874667Y-59245157D01*
X150838277Y-59268361D01*
X150818208Y-59276674D01*
X150818207Y-59276674D01*
X150678905Y-59369752D01*
X150560441Y-59488216D01*
X150467363Y-59627518D01*
X150403252Y-59782296D01*
X150403250Y-59782304D01*
X150370568Y-59946607D01*
X136800500Y-59946607D01*
X136800500Y-59837857D01*
X136768714Y-59515132D01*
X136730849Y-59324771D01*
X136705454Y-59197097D01*
X136705451Y-59197086D01*
X136705450Y-59197083D01*
X136705449Y-59197077D01*
X136611314Y-58886754D01*
X136487215Y-58587153D01*
X136487211Y-58587145D01*
X136461831Y-58539662D01*
X136433841Y-58487296D01*
X142720568Y-58487296D01*
X142720568Y-58654839D01*
X142753250Y-58819142D01*
X142753252Y-58819150D01*
X142817363Y-58973928D01*
X142910441Y-59113230D01*
X143028905Y-59231694D01*
X143083858Y-59268412D01*
X143168205Y-59324771D01*
X143322986Y-59388884D01*
X143487296Y-59421567D01*
X143487300Y-59421568D01*
X143487301Y-59421568D01*
X143654836Y-59421568D01*
X143654837Y-59421567D01*
X143819150Y-59388884D01*
X143973931Y-59324771D01*
X144113230Y-59231694D01*
X144231694Y-59113230D01*
X144324771Y-58973931D01*
X144331507Y-58957670D01*
X144375347Y-58903266D01*
X144441641Y-58881201D01*
X144509341Y-58898480D01*
X144556952Y-58949617D01*
X144560629Y-58957670D01*
X144567362Y-58973926D01*
X144567363Y-58973928D01*
X144660441Y-59113230D01*
X144778905Y-59231694D01*
X144833858Y-59268412D01*
X144918205Y-59324771D01*
X145072986Y-59388884D01*
X145237296Y-59421567D01*
X145237300Y-59421568D01*
X145237301Y-59421568D01*
X145404836Y-59421568D01*
X145404837Y-59421567D01*
X145569150Y-59388884D01*
X145723931Y-59324771D01*
X145863230Y-59231694D01*
X145981694Y-59113230D01*
X146074771Y-58973931D01*
X146138884Y-58819150D01*
X146171568Y-58654835D01*
X146171568Y-58487301D01*
X146138884Y-58322986D01*
X146074771Y-58168205D01*
X145996421Y-58050946D01*
X145981694Y-58028905D01*
X145863230Y-57910441D01*
X145723928Y-57817363D01*
X145569150Y-57753252D01*
X145569142Y-57753250D01*
X145404839Y-57720568D01*
X145404835Y-57720568D01*
X145237301Y-57720568D01*
X145237296Y-57720568D01*
X145072993Y-57753250D01*
X145072985Y-57753252D01*
X144918207Y-57817363D01*
X144778905Y-57910441D01*
X144660441Y-58028905D01*
X144567364Y-58168205D01*
X144560629Y-58184467D01*
X144516787Y-58238870D01*
X144450492Y-58260934D01*
X144382793Y-58243654D01*
X144335183Y-58192516D01*
X144331507Y-58184467D01*
X144324771Y-58168205D01*
X144231694Y-58028905D01*
X144113230Y-57910441D01*
X143973928Y-57817363D01*
X143819150Y-57753252D01*
X143819142Y-57753250D01*
X143654839Y-57720568D01*
X143654835Y-57720568D01*
X143487301Y-57720568D01*
X143487296Y-57720568D01*
X143322993Y-57753250D01*
X143322985Y-57753252D01*
X143168207Y-57817363D01*
X143028905Y-57910441D01*
X142910441Y-58028905D01*
X142817363Y-58168207D01*
X142753252Y-58322985D01*
X142753250Y-58322993D01*
X142720568Y-58487296D01*
X136433841Y-58487296D01*
X136334353Y-58301169D01*
X136334352Y-58301167D01*
X136334347Y-58301158D01*
X136154183Y-58031524D01*
X136154179Y-58031518D01*
X136151321Y-58028036D01*
X136124002Y-57963729D01*
X136135787Y-57894860D01*
X136182935Y-57843296D01*
X136199715Y-57834802D01*
X136223926Y-57824773D01*
X136223925Y-57824773D01*
X136223931Y-57824771D01*
X136363230Y-57731694D01*
X136481694Y-57613230D01*
X136574771Y-57473931D01*
X136638884Y-57319150D01*
X136671568Y-57154835D01*
X136671568Y-56987301D01*
X136638884Y-56822986D01*
X136574771Y-56668205D01*
X136512340Y-56574771D01*
X136481694Y-56528905D01*
X136363230Y-56410441D01*
X136223928Y-56317363D01*
X136069150Y-56253252D01*
X136069142Y-56253250D01*
X135904839Y-56220568D01*
X135904835Y-56220568D01*
X135737301Y-56220568D01*
X135737296Y-56220568D01*
X135572993Y-56253250D01*
X135572985Y-56253252D01*
X135418207Y-56317363D01*
X135278905Y-56410441D01*
X135160441Y-56528905D01*
X135067363Y-56668207D01*
X135003252Y-56822985D01*
X135003250Y-56822991D01*
X134990967Y-56884743D01*
X134958582Y-56946654D01*
X134897866Y-56981228D01*
X134828096Y-56977487D01*
X134821897Y-56975112D01*
X134613247Y-56888686D01*
X134302913Y-56794548D01*
X134302902Y-56794545D01*
X133984874Y-56731287D01*
X133984857Y-56731284D01*
X133740812Y-56707248D01*
X133662143Y-56699500D01*
X133337857Y-56699500D01*
X133265099Y-56706666D01*
X133015142Y-56731284D01*
X133015125Y-56731287D01*
X132697097Y-56794545D01*
X132697086Y-56794548D01*
X132386752Y-56888686D01*
X132087150Y-57012786D01*
X132087145Y-57012788D01*
X131801169Y-57165646D01*
X131801151Y-57165657D01*
X131531532Y-57345811D01*
X131531518Y-57345821D01*
X131280841Y-57551546D01*
X131051546Y-57780841D01*
X130845821Y-58031518D01*
X130845811Y-58031532D01*
X130665657Y-58301151D01*
X130665646Y-58301169D01*
X130512788Y-58587145D01*
X130512786Y-58587150D01*
X130388686Y-58886752D01*
X130294548Y-59197086D01*
X130294545Y-59197097D01*
X130231287Y-59515125D01*
X130231284Y-59515142D01*
X130199500Y-59837860D01*
X123700500Y-59837860D01*
X123700500Y-50987296D01*
X126220568Y-50987296D01*
X126220568Y-51154839D01*
X126253250Y-51319142D01*
X126253252Y-51319150D01*
X126317363Y-51473928D01*
X126410441Y-51613230D01*
X126528905Y-51731694D01*
X126621562Y-51793605D01*
X126668205Y-51824771D01*
X126822986Y-51888884D01*
X126987296Y-51921567D01*
X126987300Y-51921568D01*
X126987301Y-51921568D01*
X127154836Y-51921568D01*
X127154837Y-51921567D01*
X127319150Y-51888884D01*
X127473931Y-51824771D01*
X127613230Y-51731694D01*
X127731694Y-51613230D01*
X127824771Y-51473931D01*
X127888884Y-51319150D01*
X127921568Y-51154835D01*
X127921568Y-50987301D01*
X127888884Y-50822986D01*
X127824771Y-50668205D01*
X127815838Y-50654836D01*
X127745859Y-50550104D01*
X127745856Y-50550101D01*
X127731691Y-50528902D01*
X127690085Y-50487296D01*
X128970568Y-50487296D01*
X128970568Y-50654839D01*
X129003250Y-50819142D01*
X129003252Y-50819150D01*
X129067363Y-50973927D01*
X129067370Y-50973940D01*
X129086238Y-51002179D01*
X129107115Y-51068857D01*
X129088629Y-51136236D01*
X129086238Y-51139957D01*
X129067370Y-51168195D01*
X129067363Y-51168208D01*
X129003252Y-51322985D01*
X129003250Y-51322993D01*
X128970568Y-51487296D01*
X128970568Y-51654839D01*
X129003250Y-51819142D01*
X129003252Y-51819150D01*
X129067363Y-51973927D01*
X129067370Y-51973940D01*
X129086238Y-52002179D01*
X129107115Y-52068857D01*
X129088629Y-52136236D01*
X129086238Y-52139957D01*
X129067370Y-52168195D01*
X129067363Y-52168208D01*
X129003252Y-52322985D01*
X129003250Y-52322993D01*
X128970568Y-52487296D01*
X128970568Y-52654839D01*
X129003250Y-52819142D01*
X129003252Y-52819150D01*
X129067363Y-52973927D01*
X129067370Y-52973940D01*
X129086238Y-53002179D01*
X129107115Y-53068857D01*
X129088629Y-53136236D01*
X129086238Y-53139957D01*
X129067370Y-53168195D01*
X129067363Y-53168208D01*
X129003252Y-53322985D01*
X129003250Y-53322993D01*
X128970568Y-53487296D01*
X128970568Y-53654839D01*
X129003250Y-53819142D01*
X129003252Y-53819150D01*
X129067363Y-53973927D01*
X129067370Y-53973940D01*
X129086238Y-54002179D01*
X129107115Y-54068857D01*
X129088629Y-54136236D01*
X129086238Y-54139957D01*
X129067370Y-54168195D01*
X129067363Y-54168208D01*
X129003252Y-54322985D01*
X129003250Y-54322993D01*
X128970568Y-54487296D01*
X128970568Y-54654839D01*
X129003250Y-54819142D01*
X129003252Y-54819150D01*
X129067363Y-54973927D01*
X129067370Y-54973940D01*
X129086238Y-55002179D01*
X129107115Y-55068857D01*
X129088629Y-55136236D01*
X129086238Y-55139957D01*
X129067370Y-55168195D01*
X129067363Y-55168208D01*
X129003252Y-55322985D01*
X129003250Y-55322993D01*
X128970568Y-55487296D01*
X128970568Y-55654839D01*
X129003250Y-55819142D01*
X129003252Y-55819150D01*
X129067363Y-55973928D01*
X129160441Y-56113230D01*
X129278905Y-56231694D01*
X129344954Y-56275826D01*
X129418205Y-56324771D01*
X129572986Y-56388884D01*
X129737296Y-56421567D01*
X129737300Y-56421568D01*
X129737301Y-56421568D01*
X129904836Y-56421568D01*
X129904837Y-56421567D01*
X130069150Y-56388884D01*
X130223931Y-56324771D01*
X130363230Y-56231694D01*
X130481694Y-56113230D01*
X130574771Y-55973931D01*
X130638884Y-55819150D01*
X130671568Y-55654835D01*
X130671568Y-55487301D01*
X130638884Y-55322986D01*
X130574771Y-55168205D01*
X130555896Y-55139957D01*
X130535019Y-55073282D01*
X130553503Y-55005902D01*
X130555897Y-55002177D01*
X130574771Y-54973931D01*
X130638884Y-54819150D01*
X130671568Y-54654835D01*
X130671568Y-54487301D01*
X130638884Y-54322986D01*
X130603390Y-54237296D01*
X147970568Y-54237296D01*
X147970568Y-54404839D01*
X148003250Y-54569142D01*
X148003252Y-54569150D01*
X148067363Y-54723928D01*
X148160441Y-54863230D01*
X148278905Y-54981694D01*
X148371562Y-55043605D01*
X148418205Y-55074771D01*
X148572986Y-55138884D01*
X148717619Y-55167653D01*
X148737296Y-55171567D01*
X148737300Y-55171568D01*
X148737301Y-55171568D01*
X148904835Y-55171568D01*
X148924515Y-55167653D01*
X148994105Y-55173879D01*
X149036389Y-55201589D01*
X149085288Y-55250488D01*
X149150138Y-55293819D01*
X149224588Y-55343565D01*
X149379369Y-55407678D01*
X149543679Y-55440361D01*
X149543683Y-55440362D01*
X149543684Y-55440362D01*
X149711219Y-55440362D01*
X149711220Y-55440361D01*
X149875533Y-55407678D01*
X150030314Y-55343565D01*
X150169613Y-55250488D01*
X150170631Y-55249470D01*
X150198932Y-55221170D01*
X150288074Y-55132027D01*
X150288077Y-55132024D01*
X150297510Y-55117906D01*
X150381154Y-54992725D01*
X150445267Y-54837944D01*
X150477951Y-54673629D01*
X150477951Y-54506095D01*
X150445267Y-54341780D01*
X150381154Y-54186999D01*
X150321917Y-54098345D01*
X150288077Y-54047699D01*
X150169613Y-53929235D01*
X150030311Y-53836157D01*
X149875533Y-53772046D01*
X149875525Y-53772044D01*
X149711222Y-53739362D01*
X149711218Y-53739362D01*
X149543684Y-53739362D01*
X149543680Y-53739362D01*
X149523996Y-53743277D01*
X149454405Y-53737047D01*
X149412127Y-53709339D01*
X149363233Y-53660444D01*
X149363230Y-53660441D01*
X149223928Y-53567363D01*
X149069150Y-53503252D01*
X149069142Y-53503250D01*
X148904839Y-53470568D01*
X148904835Y-53470568D01*
X148737301Y-53470568D01*
X148737296Y-53470568D01*
X148572993Y-53503250D01*
X148572985Y-53503252D01*
X148418207Y-53567363D01*
X148278905Y-53660441D01*
X148160441Y-53778905D01*
X148067363Y-53918207D01*
X148003252Y-54072985D01*
X148003250Y-54072993D01*
X147970568Y-54237296D01*
X130603390Y-54237296D01*
X130574771Y-54168205D01*
X130550876Y-54132444D01*
X130546998Y-54124282D01*
X130542866Y-54098345D01*
X130535019Y-54073282D01*
X130537458Y-54064389D01*
X130536008Y-54055282D01*
X130546554Y-54031229D01*
X130553503Y-54005902D01*
X130555897Y-54002177D01*
X130574771Y-53973931D01*
X130638884Y-53819150D01*
X130671568Y-53654835D01*
X130671568Y-53487301D01*
X130638884Y-53322986D01*
X130574771Y-53168205D01*
X130555896Y-53139957D01*
X130535019Y-53073282D01*
X130553503Y-53005902D01*
X130555897Y-53002177D01*
X130574771Y-52973931D01*
X130638884Y-52819150D01*
X130671568Y-52654835D01*
X130671568Y-52487301D01*
X130671567Y-52487296D01*
X141720568Y-52487296D01*
X141720568Y-52654839D01*
X141753250Y-52819142D01*
X141753252Y-52819150D01*
X141817363Y-52973928D01*
X141910441Y-53113230D01*
X142028905Y-53231694D01*
X142121562Y-53293605D01*
X142168205Y-53324771D01*
X142322986Y-53388884D01*
X142487296Y-53421567D01*
X142487300Y-53421568D01*
X142487301Y-53421568D01*
X142654836Y-53421568D01*
X142654837Y-53421567D01*
X142819150Y-53388884D01*
X142973931Y-53324771D01*
X143113230Y-53231694D01*
X143231694Y-53113230D01*
X143324771Y-52973931D01*
X143388884Y-52819150D01*
X143416683Y-52679396D01*
X167459573Y-52679396D01*
X167459573Y-52846939D01*
X167492255Y-53011242D01*
X167492257Y-53011250D01*
X167556368Y-53166028D01*
X167649446Y-53305330D01*
X167767910Y-53423794D01*
X167807879Y-53450500D01*
X167907210Y-53516871D01*
X168061991Y-53580984D01*
X168226301Y-53613667D01*
X168226305Y-53613668D01*
X168226306Y-53613668D01*
X168393841Y-53613668D01*
X168393842Y-53613667D01*
X168558155Y-53580984D01*
X168712936Y-53516871D01*
X168852235Y-53423794D01*
X168970699Y-53305330D01*
X169063776Y-53166031D01*
X169127889Y-53011250D01*
X169160573Y-52846935D01*
X169160573Y-52818995D01*
X170904499Y-52818995D01*
X170931418Y-52954322D01*
X170931421Y-52954332D01*
X170984221Y-53081804D01*
X170984228Y-53081817D01*
X171060885Y-53196541D01*
X171060888Y-53196545D01*
X171158454Y-53294111D01*
X171158458Y-53294114D01*
X171273182Y-53370771D01*
X171273195Y-53370778D01*
X171400667Y-53423578D01*
X171400672Y-53423580D01*
X171400676Y-53423580D01*
X171400677Y-53423581D01*
X171536004Y-53450500D01*
X171536007Y-53450500D01*
X171673995Y-53450500D01*
X171765041Y-53432389D01*
X171809328Y-53423580D01*
X171936811Y-53370775D01*
X172051542Y-53294114D01*
X172149114Y-53196542D01*
X172225775Y-53081811D01*
X172278580Y-52954328D01*
X172305469Y-52819150D01*
X172305500Y-52818995D01*
X172305500Y-52681004D01*
X172278581Y-52545677D01*
X172278580Y-52545676D01*
X172278580Y-52545672D01*
X172265911Y-52515086D01*
X172225778Y-52418195D01*
X172225771Y-52418182D01*
X172149114Y-52303458D01*
X172149111Y-52303454D01*
X172051545Y-52205888D01*
X172051541Y-52205885D01*
X171936817Y-52129228D01*
X171936804Y-52129221D01*
X171809332Y-52076421D01*
X171809322Y-52076418D01*
X171673995Y-52049500D01*
X171673993Y-52049500D01*
X171536007Y-52049500D01*
X171536005Y-52049500D01*
X171400677Y-52076418D01*
X171400667Y-52076421D01*
X171273195Y-52129221D01*
X171273182Y-52129228D01*
X171158458Y-52205885D01*
X171158454Y-52205888D01*
X171060888Y-52303454D01*
X171060885Y-52303458D01*
X170984228Y-52418182D01*
X170984221Y-52418195D01*
X170931421Y-52545667D01*
X170931418Y-52545677D01*
X170904500Y-52681004D01*
X170904500Y-52681007D01*
X170904500Y-52818993D01*
X170904500Y-52818995D01*
X170904499Y-52818995D01*
X169160573Y-52818995D01*
X169160573Y-52679401D01*
X169127889Y-52515086D01*
X169063776Y-52360305D01*
X169025789Y-52303454D01*
X168970699Y-52221005D01*
X168852235Y-52102541D01*
X168712933Y-52009463D01*
X168558155Y-51945352D01*
X168558147Y-51945350D01*
X168393844Y-51912668D01*
X168393840Y-51912668D01*
X168226306Y-51912668D01*
X168226301Y-51912668D01*
X168061998Y-51945350D01*
X168061990Y-51945352D01*
X167907212Y-52009463D01*
X167767910Y-52102541D01*
X167649446Y-52221005D01*
X167556368Y-52360307D01*
X167492257Y-52515085D01*
X167492255Y-52515093D01*
X167459573Y-52679396D01*
X143416683Y-52679396D01*
X143421568Y-52654835D01*
X143421568Y-52487301D01*
X143388884Y-52322986D01*
X143324771Y-52168205D01*
X143262340Y-52074771D01*
X143231694Y-52028905D01*
X143113230Y-51910441D01*
X142973928Y-51817363D01*
X142819150Y-51753252D01*
X142819142Y-51753250D01*
X142654839Y-51720568D01*
X142654835Y-51720568D01*
X142487301Y-51720568D01*
X142487296Y-51720568D01*
X142322993Y-51753250D01*
X142322985Y-51753252D01*
X142168207Y-51817363D01*
X142028905Y-51910441D01*
X141910441Y-52028905D01*
X141817363Y-52168207D01*
X141753252Y-52322985D01*
X141753250Y-52322993D01*
X141720568Y-52487296D01*
X130671567Y-52487296D01*
X130638884Y-52322986D01*
X130574771Y-52168205D01*
X130555896Y-52139957D01*
X130535019Y-52073282D01*
X130553503Y-52005902D01*
X130555897Y-52002177D01*
X130574771Y-51973931D01*
X130638884Y-51819150D01*
X130671568Y-51654835D01*
X130671568Y-51487301D01*
X130638884Y-51322986D01*
X130574771Y-51168205D01*
X130555896Y-51139957D01*
X130535019Y-51073282D01*
X130549108Y-51013622D01*
X130552192Y-51007722D01*
X130565841Y-50987296D01*
X147470568Y-50987296D01*
X147470568Y-51154839D01*
X147503250Y-51319142D01*
X147503252Y-51319150D01*
X147567363Y-51473928D01*
X147660441Y-51613230D01*
X147778905Y-51731694D01*
X147871562Y-51793605D01*
X147918205Y-51824771D01*
X148072986Y-51888884D01*
X148237296Y-51921567D01*
X148237300Y-51921568D01*
X148237301Y-51921568D01*
X148404836Y-51921568D01*
X148404837Y-51921567D01*
X148569150Y-51888884D01*
X148723931Y-51824771D01*
X148854846Y-51737296D01*
X154470568Y-51737296D01*
X154470568Y-51904839D01*
X154503250Y-52069142D01*
X154503252Y-52069150D01*
X154567363Y-52223928D01*
X154660441Y-52363230D01*
X154778905Y-52481694D01*
X154871562Y-52543605D01*
X154918205Y-52574771D01*
X155072986Y-52638884D01*
X155237296Y-52671567D01*
X155237300Y-52671568D01*
X155237301Y-52671568D01*
X155404836Y-52671568D01*
X155404837Y-52671567D01*
X155569150Y-52638884D01*
X155723931Y-52574771D01*
X155863230Y-52481694D01*
X155981694Y-52363230D01*
X156074771Y-52223931D01*
X156138884Y-52069150D01*
X156171568Y-51904835D01*
X156171568Y-51737301D01*
X156138884Y-51572986D01*
X156074771Y-51418205D01*
X156065838Y-51404836D01*
X155995859Y-51300104D01*
X155995856Y-51300101D01*
X155981691Y-51278902D01*
X155940085Y-51237296D01*
X165970568Y-51237296D01*
X165970568Y-51404839D01*
X166003250Y-51569142D01*
X166003252Y-51569150D01*
X166067363Y-51723928D01*
X166160441Y-51863230D01*
X166278905Y-51981694D01*
X166320465Y-52009463D01*
X166418205Y-52074771D01*
X166572986Y-52138884D01*
X166720344Y-52168195D01*
X166737296Y-52171567D01*
X166737300Y-52171568D01*
X166737301Y-52171568D01*
X166904836Y-52171568D01*
X166904837Y-52171567D01*
X167069150Y-52138884D01*
X167223931Y-52074771D01*
X167363230Y-51981694D01*
X167481694Y-51863230D01*
X167574771Y-51723931D01*
X167638884Y-51569150D01*
X167671568Y-51404835D01*
X167671568Y-51237301D01*
X167638884Y-51072986D01*
X167574771Y-50918205D01*
X167511152Y-50822993D01*
X167481694Y-50778905D01*
X167363230Y-50660441D01*
X167223928Y-50567363D01*
X167069150Y-50503252D01*
X167069142Y-50503250D01*
X166904839Y-50470568D01*
X166904835Y-50470568D01*
X166737301Y-50470568D01*
X166737296Y-50470568D01*
X166572993Y-50503250D01*
X166572985Y-50503252D01*
X166418207Y-50567363D01*
X166278905Y-50660441D01*
X166160441Y-50778905D01*
X166067363Y-50918207D01*
X166003252Y-51072985D01*
X166003250Y-51072993D01*
X165970568Y-51237296D01*
X155940085Y-51237296D01*
X155863230Y-51160441D01*
X155723928Y-51067363D01*
X155569150Y-51003252D01*
X155569142Y-51003250D01*
X155404839Y-50970568D01*
X155404835Y-50970568D01*
X155237301Y-50970568D01*
X155237296Y-50970568D01*
X155072993Y-51003250D01*
X155072985Y-51003252D01*
X154918207Y-51067363D01*
X154778905Y-51160441D01*
X154660441Y-51278905D01*
X154567363Y-51418207D01*
X154503252Y-51572985D01*
X154503250Y-51572993D01*
X154470568Y-51737296D01*
X148854846Y-51737296D01*
X148863230Y-51731694D01*
X148981694Y-51613230D01*
X149074771Y-51473931D01*
X149074923Y-51473562D01*
X149077595Y-51469938D01*
X149103227Y-51450449D01*
X149127924Y-51429810D01*
X149132089Y-51428505D01*
X149133215Y-51427650D01*
X149136624Y-51427085D01*
X149153225Y-51421887D01*
X149154829Y-51421568D01*
X149154835Y-51421568D01*
X149319150Y-51388884D01*
X149473931Y-51324771D01*
X149613230Y-51231694D01*
X149731694Y-51113230D01*
X149824771Y-50973931D01*
X149888884Y-50819150D01*
X149921568Y-50654835D01*
X149921568Y-50487301D01*
X149888884Y-50322986D01*
X149824771Y-50168205D01*
X149793605Y-50121562D01*
X149731694Y-50028905D01*
X149613230Y-49910441D01*
X149473928Y-49817363D01*
X149319150Y-49753252D01*
X149319142Y-49753250D01*
X149154839Y-49720568D01*
X149154835Y-49720568D01*
X148987301Y-49720568D01*
X148987296Y-49720568D01*
X148822993Y-49753250D01*
X148822985Y-49753252D01*
X148668207Y-49817363D01*
X148528905Y-49910441D01*
X148410444Y-50028902D01*
X148410441Y-50028906D01*
X148317822Y-50167521D01*
X148264210Y-50212326D01*
X148238911Y-50220247D01*
X148072993Y-50253250D01*
X148072985Y-50253252D01*
X147918207Y-50317363D01*
X147778905Y-50410441D01*
X147660441Y-50528905D01*
X147567363Y-50668207D01*
X147503252Y-50822985D01*
X147503250Y-50822993D01*
X147470568Y-50987296D01*
X130565841Y-50987296D01*
X130574771Y-50973931D01*
X130638884Y-50819150D01*
X130671568Y-50654835D01*
X130671568Y-50487301D01*
X130638884Y-50322986D01*
X130574771Y-50168205D01*
X130543605Y-50121562D01*
X130481694Y-50028905D01*
X130363230Y-49910441D01*
X130249292Y-49834311D01*
X130223928Y-49817363D01*
X130069150Y-49753252D01*
X130069142Y-49753250D01*
X129988936Y-49737296D01*
X136720568Y-49737296D01*
X136720568Y-49904839D01*
X136753250Y-50069142D01*
X136753252Y-50069150D01*
X136817363Y-50223928D01*
X136910441Y-50363230D01*
X137028905Y-50481694D01*
X137099557Y-50528902D01*
X137168205Y-50574771D01*
X137322986Y-50638884D01*
X137470379Y-50668202D01*
X137487296Y-50671567D01*
X137487300Y-50671568D01*
X137487301Y-50671568D01*
X137654836Y-50671568D01*
X137654837Y-50671567D01*
X137819150Y-50638884D01*
X137973931Y-50574771D01*
X138113230Y-50481694D01*
X138231694Y-50363230D01*
X138324771Y-50223931D01*
X138388884Y-50069150D01*
X138421568Y-49904835D01*
X138421568Y-49737301D01*
X138388884Y-49572986D01*
X138324771Y-49418205D01*
X138293605Y-49371562D01*
X138231694Y-49278905D01*
X138113230Y-49160441D01*
X137973928Y-49067363D01*
X137819150Y-49003252D01*
X137819142Y-49003250D01*
X137654839Y-48970568D01*
X137654835Y-48970568D01*
X137487301Y-48970568D01*
X137487296Y-48970568D01*
X137322993Y-49003250D01*
X137322985Y-49003252D01*
X137168207Y-49067363D01*
X137028905Y-49160441D01*
X136910441Y-49278905D01*
X136817363Y-49418207D01*
X136753252Y-49572985D01*
X136753250Y-49572993D01*
X136720568Y-49737296D01*
X129988936Y-49737296D01*
X129904839Y-49720568D01*
X129904835Y-49720568D01*
X129737301Y-49720568D01*
X129737296Y-49720568D01*
X129572993Y-49753250D01*
X129572985Y-49753252D01*
X129418207Y-49817363D01*
X129278905Y-49910441D01*
X129160441Y-50028905D01*
X129067363Y-50168207D01*
X129003252Y-50322985D01*
X129003250Y-50322993D01*
X128970568Y-50487296D01*
X127690085Y-50487296D01*
X127613230Y-50410441D01*
X127473928Y-50317363D01*
X127319150Y-50253252D01*
X127319142Y-50253250D01*
X127154839Y-50220568D01*
X127154835Y-50220568D01*
X126987301Y-50220568D01*
X126987296Y-50220568D01*
X126822993Y-50253250D01*
X126822985Y-50253252D01*
X126668207Y-50317363D01*
X126528905Y-50410441D01*
X126410441Y-50528905D01*
X126317363Y-50668207D01*
X126253252Y-50822985D01*
X126253250Y-50822993D01*
X126220568Y-50987296D01*
X123700500Y-50987296D01*
X123700500Y-48237296D01*
X142220568Y-48237296D01*
X142220568Y-48404839D01*
X142253250Y-48569142D01*
X142253252Y-48569150D01*
X142317363Y-48723928D01*
X142410441Y-48863230D01*
X142528905Y-48981694D01*
X142621562Y-49043605D01*
X142668205Y-49074771D01*
X142822986Y-49138884D01*
X142987296Y-49171567D01*
X142987300Y-49171568D01*
X142987301Y-49171568D01*
X143154836Y-49171568D01*
X143154837Y-49171567D01*
X143319150Y-49138884D01*
X143473931Y-49074771D01*
X143613230Y-48981694D01*
X143731694Y-48863230D01*
X143824771Y-48723931D01*
X143888884Y-48569150D01*
X143921568Y-48404835D01*
X143921568Y-48237301D01*
X143888884Y-48072986D01*
X143826164Y-47921567D01*
X143824772Y-47918207D01*
X143822842Y-47915319D01*
X143770482Y-47836956D01*
X143731694Y-47778905D01*
X143613230Y-47660441D01*
X143516813Y-47596018D01*
X143473931Y-47567365D01*
X143473930Y-47567364D01*
X143473928Y-47567363D01*
X143319150Y-47503252D01*
X143319142Y-47503250D01*
X143238936Y-47487296D01*
X144370565Y-47487296D01*
X144370565Y-47654839D01*
X144403247Y-47819142D01*
X144403249Y-47819150D01*
X144467360Y-47973928D01*
X144560438Y-48113230D01*
X144678902Y-48231694D01*
X144758709Y-48285019D01*
X144818202Y-48324771D01*
X144972983Y-48388884D01*
X145137293Y-48421567D01*
X145137297Y-48421568D01*
X145137298Y-48421568D01*
X145304833Y-48421568D01*
X145304834Y-48421567D01*
X145469147Y-48388884D01*
X145623928Y-48324771D01*
X145763227Y-48231694D01*
X145881691Y-48113230D01*
X145974768Y-47973931D01*
X146031505Y-47836954D01*
X146075346Y-47782552D01*
X146141640Y-47760487D01*
X146209339Y-47777766D01*
X146256950Y-47828903D01*
X146260627Y-47836955D01*
X146317363Y-47973928D01*
X146410441Y-48113230D01*
X146528905Y-48231694D01*
X146608712Y-48285019D01*
X146668205Y-48324771D01*
X146822986Y-48388884D01*
X146987296Y-48421567D01*
X146987300Y-48421568D01*
X146987301Y-48421568D01*
X147154836Y-48421568D01*
X147154837Y-48421567D01*
X147319150Y-48388884D01*
X147473931Y-48324771D01*
X147502177Y-48305896D01*
X147568854Y-48285019D01*
X147636234Y-48303503D01*
X147639947Y-48305889D01*
X147668205Y-48324771D01*
X147822986Y-48388884D01*
X147987296Y-48421567D01*
X147987300Y-48421568D01*
X147987301Y-48421568D01*
X148154836Y-48421568D01*
X148154837Y-48421567D01*
X148319150Y-48388884D01*
X148473931Y-48324771D01*
X148613230Y-48231694D01*
X148731694Y-48113230D01*
X148824771Y-47973931D01*
X148888884Y-47819150D01*
X148921568Y-47654835D01*
X148921568Y-47487301D01*
X148888884Y-47322986D01*
X148824771Y-47168205D01*
X148788038Y-47113230D01*
X148731694Y-47028905D01*
X148613230Y-46910441D01*
X148473928Y-46817363D01*
X148319150Y-46753252D01*
X148319142Y-46753250D01*
X148154839Y-46720568D01*
X148154835Y-46720568D01*
X147987301Y-46720568D01*
X147987296Y-46720568D01*
X147822993Y-46753250D01*
X147822985Y-46753252D01*
X147668208Y-46817363D01*
X147668195Y-46817370D01*
X147639957Y-46836238D01*
X147573279Y-46857115D01*
X147505900Y-46838629D01*
X147502179Y-46836238D01*
X147473940Y-46817370D01*
X147473927Y-46817363D01*
X147319150Y-46753252D01*
X147319142Y-46753250D01*
X147154839Y-46720568D01*
X147154835Y-46720568D01*
X146987301Y-46720568D01*
X146987296Y-46720568D01*
X146822993Y-46753250D01*
X146822985Y-46753252D01*
X146668207Y-46817363D01*
X146528905Y-46910441D01*
X146410441Y-47028905D01*
X146317363Y-47168207D01*
X146260627Y-47305180D01*
X146216785Y-47359584D01*
X146150491Y-47381648D01*
X146082792Y-47364368D01*
X146035182Y-47313231D01*
X146031505Y-47305180D01*
X145974769Y-47168206D01*
X145881691Y-47028905D01*
X145763227Y-46910441D01*
X145623925Y-46817363D01*
X145469147Y-46753252D01*
X145469139Y-46753250D01*
X145304836Y-46720568D01*
X145304832Y-46720568D01*
X145137298Y-46720568D01*
X145137293Y-46720568D01*
X144972990Y-46753250D01*
X144972982Y-46753252D01*
X144818204Y-46817363D01*
X144678902Y-46910441D01*
X144560438Y-47028905D01*
X144467360Y-47168207D01*
X144403249Y-47322985D01*
X144403247Y-47322993D01*
X144370565Y-47487296D01*
X143238936Y-47487296D01*
X143154839Y-47470568D01*
X143154835Y-47470568D01*
X142987301Y-47470568D01*
X142987296Y-47470568D01*
X142822993Y-47503250D01*
X142822985Y-47503252D01*
X142668207Y-47567363D01*
X142528905Y-47660441D01*
X142410441Y-47778905D01*
X142317363Y-47918207D01*
X142253252Y-48072985D01*
X142253250Y-48072993D01*
X142220568Y-48237296D01*
X123700500Y-48237296D01*
X123700500Y-44487296D01*
X128970568Y-44487296D01*
X128970568Y-44654839D01*
X129003250Y-44819142D01*
X129003252Y-44819150D01*
X129067363Y-44973927D01*
X129067370Y-44973940D01*
X129086238Y-45002179D01*
X129107115Y-45068857D01*
X129088629Y-45136236D01*
X129086238Y-45139957D01*
X129067370Y-45168195D01*
X129067363Y-45168208D01*
X129003252Y-45322985D01*
X129003250Y-45322993D01*
X128970568Y-45487296D01*
X128970568Y-45654839D01*
X129003250Y-45819142D01*
X129003252Y-45819150D01*
X129067363Y-45973928D01*
X129160441Y-46113230D01*
X129278905Y-46231694D01*
X129337399Y-46270778D01*
X129418205Y-46324771D01*
X129572986Y-46388884D01*
X129737296Y-46421567D01*
X129737300Y-46421568D01*
X129737301Y-46421568D01*
X129904836Y-46421568D01*
X129904837Y-46421567D01*
X129931679Y-46416228D01*
X134220568Y-46416228D01*
X134220568Y-46583771D01*
X134253250Y-46748074D01*
X134253252Y-46748082D01*
X134317363Y-46902860D01*
X134410441Y-47042162D01*
X134528905Y-47160626D01*
X134621562Y-47222537D01*
X134668205Y-47253703D01*
X134822986Y-47317816D01*
X134987296Y-47350499D01*
X134987300Y-47350500D01*
X134987301Y-47350500D01*
X135154836Y-47350500D01*
X135154837Y-47350499D01*
X135319150Y-47317816D01*
X135473931Y-47253703D01*
X135613230Y-47160626D01*
X135731694Y-47042162D01*
X135824771Y-46902863D01*
X135888884Y-46748082D01*
X135921568Y-46583767D01*
X135921568Y-46416233D01*
X135888884Y-46251918D01*
X135833661Y-46118598D01*
X135824772Y-46097139D01*
X135824372Y-46096541D01*
X135757390Y-45996294D01*
X135731694Y-45957837D01*
X135613230Y-45839373D01*
X135473928Y-45746295D01*
X135319150Y-45682184D01*
X135319142Y-45682182D01*
X135154839Y-45649500D01*
X135154835Y-45649500D01*
X134987301Y-45649500D01*
X134987296Y-45649500D01*
X134822993Y-45682182D01*
X134822985Y-45682184D01*
X134668207Y-45746295D01*
X134528905Y-45839373D01*
X134410441Y-45957837D01*
X134317363Y-46097139D01*
X134253252Y-46251917D01*
X134253250Y-46251925D01*
X134220568Y-46416228D01*
X129931679Y-46416228D01*
X130069150Y-46388884D01*
X130223931Y-46324771D01*
X130363230Y-46231694D01*
X130481694Y-46113230D01*
X130574771Y-45973931D01*
X130638884Y-45819150D01*
X130671568Y-45654835D01*
X130671568Y-45487301D01*
X130671567Y-45487296D01*
X148220568Y-45487296D01*
X148220568Y-45654839D01*
X148253250Y-45819142D01*
X148253252Y-45819150D01*
X148317363Y-45973928D01*
X148410441Y-46113230D01*
X148528905Y-46231694D01*
X148587399Y-46270778D01*
X148668205Y-46324771D01*
X148822986Y-46388884D01*
X148987296Y-46421567D01*
X148987300Y-46421568D01*
X148987301Y-46421568D01*
X149154836Y-46421568D01*
X149154836Y-46421567D01*
X149177358Y-46417088D01*
X149246950Y-46423315D01*
X149302127Y-46466178D01*
X149325372Y-46532067D01*
X149316113Y-46586154D01*
X149312767Y-46594232D01*
X149312765Y-46594239D01*
X149280083Y-46758542D01*
X149280083Y-46926085D01*
X149312765Y-47090388D01*
X149312767Y-47090396D01*
X149376878Y-47245174D01*
X149469956Y-47384476D01*
X149588420Y-47502940D01*
X149681077Y-47564851D01*
X149727720Y-47596017D01*
X149882501Y-47660130D01*
X150046811Y-47692813D01*
X150046815Y-47692814D01*
X150046816Y-47692814D01*
X150214351Y-47692814D01*
X150214351Y-47692813D01*
X150378665Y-47660130D01*
X150378667Y-47660129D01*
X150379281Y-47660007D01*
X150448873Y-47666234D01*
X150491154Y-47693943D01*
X150528905Y-47731694D01*
X150597857Y-47777766D01*
X150668205Y-47824771D01*
X150822986Y-47888884D01*
X150955885Y-47915319D01*
X150987296Y-47921567D01*
X150987300Y-47921568D01*
X150987301Y-47921568D01*
X151154834Y-47921568D01*
X151154835Y-47921568D01*
X151186248Y-47915319D01*
X151255837Y-47921545D01*
X151311016Y-47964406D01*
X151313852Y-47968951D01*
X151313981Y-47968866D01*
X151410441Y-48113230D01*
X151528905Y-48231694D01*
X151608712Y-48285019D01*
X151668205Y-48324771D01*
X151822986Y-48388884D01*
X151987296Y-48421567D01*
X151987300Y-48421568D01*
X151987301Y-48421568D01*
X152154836Y-48421568D01*
X152154837Y-48421567D01*
X152319150Y-48388884D01*
X152473931Y-48324771D01*
X152613230Y-48231694D01*
X152731694Y-48113230D01*
X152824771Y-47973931D01*
X152888884Y-47819150D01*
X152921568Y-47654835D01*
X152921568Y-47487301D01*
X152888884Y-47322986D01*
X152824771Y-47168205D01*
X152788038Y-47113230D01*
X152731694Y-47028905D01*
X152613230Y-46910441D01*
X152473928Y-46817363D01*
X152319150Y-46753252D01*
X152319142Y-46753250D01*
X152154839Y-46720568D01*
X152154835Y-46720568D01*
X151987301Y-46720568D01*
X151987296Y-46720568D01*
X151955887Y-46726816D01*
X151932433Y-46724717D01*
X151915805Y-46727412D01*
X151903709Y-46722147D01*
X151886295Y-46720589D01*
X151868665Y-46706893D01*
X151851741Y-46699527D01*
X151834558Y-46680397D01*
X151831118Y-46677725D01*
X151828552Y-46674027D01*
X151824941Y-46668615D01*
X151824771Y-46668205D01*
X151746279Y-46550734D01*
X151745858Y-46550103D01*
X151745856Y-46550101D01*
X151731691Y-46528902D01*
X151690085Y-46487296D01*
X155070568Y-46487296D01*
X155070568Y-46654839D01*
X155103250Y-46819142D01*
X155103252Y-46819150D01*
X155167363Y-46973928D01*
X155260441Y-47113230D01*
X155378905Y-47231694D01*
X155411846Y-47253704D01*
X155518205Y-47324771D01*
X155672986Y-47388884D01*
X155837296Y-47421567D01*
X155837300Y-47421568D01*
X155837301Y-47421568D01*
X156004836Y-47421568D01*
X156004837Y-47421567D01*
X156169150Y-47388884D01*
X156323931Y-47324771D01*
X156463230Y-47231694D01*
X156581694Y-47113230D01*
X156665841Y-46987296D01*
X160970568Y-46987296D01*
X160970568Y-47154839D01*
X161003250Y-47319142D01*
X161003252Y-47319150D01*
X161067363Y-47473928D01*
X161160441Y-47613230D01*
X161278905Y-47731694D01*
X161347857Y-47777766D01*
X161418205Y-47824771D01*
X161572986Y-47888884D01*
X161705885Y-47915319D01*
X161737296Y-47921567D01*
X161737300Y-47921568D01*
X161737301Y-47921568D01*
X161904836Y-47921568D01*
X161904837Y-47921567D01*
X162069150Y-47888884D01*
X162223931Y-47824771D01*
X162363230Y-47731694D01*
X162481694Y-47613230D01*
X162574771Y-47473931D01*
X162638884Y-47319150D01*
X162671568Y-47154835D01*
X162671568Y-46987301D01*
X162638884Y-46822986D01*
X162574771Y-46668205D01*
X162512340Y-46574771D01*
X162481694Y-46528905D01*
X162363230Y-46410441D01*
X162223928Y-46317363D01*
X162069150Y-46253252D01*
X162069142Y-46253250D01*
X161904839Y-46220568D01*
X161904835Y-46220568D01*
X161737301Y-46220568D01*
X161737296Y-46220568D01*
X161572993Y-46253250D01*
X161572985Y-46253252D01*
X161418207Y-46317363D01*
X161278905Y-46410441D01*
X161160441Y-46528905D01*
X161067363Y-46668207D01*
X161003252Y-46822985D01*
X161003250Y-46822993D01*
X160970568Y-46987296D01*
X156665841Y-46987296D01*
X156674771Y-46973931D01*
X156738884Y-46819150D01*
X156771568Y-46654835D01*
X156771568Y-46487301D01*
X156738884Y-46322986D01*
X156707047Y-46246128D01*
X156699579Y-46176660D01*
X156728642Y-46118598D01*
X156727833Y-46117934D01*
X156730761Y-46114366D01*
X156730854Y-46114181D01*
X156731250Y-46113769D01*
X156731696Y-46113227D01*
X156742447Y-46097137D01*
X156824771Y-45973931D01*
X156888884Y-45819150D01*
X156905166Y-45737296D01*
X158470568Y-45737296D01*
X158470568Y-45904839D01*
X158503250Y-46069142D01*
X158503252Y-46069150D01*
X158567363Y-46223928D01*
X158660441Y-46363230D01*
X158778905Y-46481694D01*
X158787297Y-46487301D01*
X158918205Y-46574771D01*
X159072986Y-46638884D01*
X159220394Y-46668205D01*
X159237296Y-46671567D01*
X159237300Y-46671568D01*
X159237301Y-46671568D01*
X159404836Y-46671568D01*
X159404837Y-46671567D01*
X159569150Y-46638884D01*
X159723931Y-46574771D01*
X159863230Y-46481694D01*
X159981694Y-46363230D01*
X160074771Y-46223931D01*
X160138884Y-46069150D01*
X160171568Y-45904835D01*
X160171568Y-45737301D01*
X160167927Y-45718995D01*
X167349499Y-45718995D01*
X167376418Y-45854322D01*
X167376421Y-45854332D01*
X167429221Y-45981804D01*
X167429228Y-45981817D01*
X167505885Y-46096541D01*
X167505888Y-46096545D01*
X167603454Y-46194111D01*
X167603458Y-46194114D01*
X167718182Y-46270771D01*
X167718195Y-46270778D01*
X167844238Y-46322986D01*
X167845672Y-46323580D01*
X167845676Y-46323580D01*
X167845677Y-46323581D01*
X167981004Y-46350500D01*
X167981007Y-46350500D01*
X168118995Y-46350500D01*
X168248340Y-46324771D01*
X168254328Y-46323580D01*
X168381811Y-46270775D01*
X168496542Y-46194114D01*
X168594114Y-46096542D01*
X168670775Y-45981811D01*
X168723580Y-45854328D01*
X168745069Y-45746297D01*
X168750500Y-45718995D01*
X168750500Y-45581004D01*
X168723581Y-45445677D01*
X168723580Y-45445676D01*
X168723580Y-45445672D01*
X168672762Y-45322985D01*
X168670778Y-45318195D01*
X168670771Y-45318182D01*
X168594114Y-45203458D01*
X168594111Y-45203454D01*
X168496545Y-45105888D01*
X168496541Y-45105885D01*
X168381817Y-45029228D01*
X168381804Y-45029221D01*
X168254332Y-44976421D01*
X168254322Y-44976418D01*
X168118995Y-44949500D01*
X168118993Y-44949500D01*
X167981007Y-44949500D01*
X167981005Y-44949500D01*
X167845677Y-44976418D01*
X167845667Y-44976421D01*
X167718195Y-45029221D01*
X167718182Y-45029228D01*
X167603458Y-45105885D01*
X167603454Y-45105888D01*
X167505888Y-45203454D01*
X167505885Y-45203458D01*
X167429228Y-45318182D01*
X167429221Y-45318195D01*
X167376421Y-45445667D01*
X167376418Y-45445677D01*
X167349500Y-45581004D01*
X167349500Y-45581007D01*
X167349500Y-45718993D01*
X167349500Y-45718995D01*
X167349499Y-45718995D01*
X160167927Y-45718995D01*
X160138884Y-45572986D01*
X160074771Y-45418205D01*
X160011152Y-45322993D01*
X159981694Y-45278905D01*
X159863230Y-45160441D01*
X159723928Y-45067363D01*
X159569150Y-45003252D01*
X159569142Y-45003250D01*
X159404839Y-44970568D01*
X159404835Y-44970568D01*
X159237301Y-44970568D01*
X159237296Y-44970568D01*
X159072993Y-45003250D01*
X159072985Y-45003252D01*
X158918207Y-45067363D01*
X158778905Y-45160441D01*
X158660441Y-45278905D01*
X158567363Y-45418207D01*
X158503252Y-45572985D01*
X158503250Y-45572993D01*
X158470568Y-45737296D01*
X156905166Y-45737296D01*
X156921568Y-45654835D01*
X156921568Y-45487301D01*
X156888884Y-45322986D01*
X156824771Y-45168205D01*
X156779531Y-45100499D01*
X156731694Y-45028905D01*
X156608923Y-44906134D01*
X156609787Y-44905269D01*
X156574081Y-44852847D01*
X156572212Y-44783003D01*
X156599886Y-44737296D01*
X162220568Y-44737296D01*
X162220568Y-44904839D01*
X162253250Y-45069142D01*
X162253252Y-45069150D01*
X162317363Y-45223928D01*
X162410441Y-45363230D01*
X162528905Y-45481694D01*
X162537297Y-45487301D01*
X162668205Y-45574771D01*
X162668206Y-45574771D01*
X162668207Y-45574772D01*
X162683260Y-45581007D01*
X162822986Y-45638884D01*
X162987296Y-45671567D01*
X162987300Y-45671568D01*
X162987301Y-45671568D01*
X163154836Y-45671568D01*
X163154837Y-45671567D01*
X163319150Y-45638884D01*
X163473931Y-45574771D01*
X163613230Y-45481694D01*
X163731694Y-45363230D01*
X163824771Y-45223931D01*
X163888884Y-45069150D01*
X163921568Y-44904835D01*
X163921568Y-44737301D01*
X163888884Y-44572986D01*
X163824771Y-44418205D01*
X163761152Y-44322993D01*
X163731694Y-44278905D01*
X163613230Y-44160441D01*
X163473928Y-44067363D01*
X163319150Y-44003252D01*
X163319142Y-44003250D01*
X163154839Y-43970568D01*
X163154835Y-43970568D01*
X162987301Y-43970568D01*
X162987296Y-43970568D01*
X162822993Y-44003250D01*
X162822985Y-44003252D01*
X162668207Y-44067363D01*
X162528905Y-44160441D01*
X162410441Y-44278905D01*
X162317363Y-44418207D01*
X162253252Y-44572985D01*
X162253250Y-44572993D01*
X162220568Y-44737296D01*
X156599886Y-44737296D01*
X156608399Y-44723235D01*
X156611164Y-44720781D01*
X156616891Y-44715848D01*
X156653610Y-44691314D01*
X156772074Y-44572850D01*
X156865151Y-44433551D01*
X156929264Y-44278770D01*
X156961948Y-44114455D01*
X156961948Y-43946921D01*
X156929264Y-43782606D01*
X156869732Y-43638884D01*
X156865152Y-43627827D01*
X156837696Y-43586736D01*
X156816818Y-43520058D01*
X156826237Y-43470392D01*
X156853391Y-43404836D01*
X156888884Y-43319150D01*
X156921568Y-43154835D01*
X156921568Y-42987301D01*
X156888884Y-42822986D01*
X156824771Y-42668205D01*
X156822440Y-42662577D01*
X156823744Y-42662036D01*
X156810946Y-42600597D01*
X156823215Y-42558812D01*
X156822440Y-42558491D01*
X156841719Y-42511947D01*
X156888884Y-42398082D01*
X156921568Y-42233767D01*
X156921568Y-42066233D01*
X156888884Y-41901918D01*
X156824771Y-41747137D01*
X156776418Y-41674772D01*
X156731694Y-41607837D01*
X156613230Y-41489373D01*
X156610122Y-41487296D01*
X161220568Y-41487296D01*
X161220568Y-41654839D01*
X161253250Y-41819142D01*
X161253252Y-41819150D01*
X161317363Y-41973928D01*
X161410441Y-42113230D01*
X161528905Y-42231694D01*
X161621562Y-42293605D01*
X161668205Y-42324771D01*
X161822986Y-42388884D01*
X161970394Y-42418205D01*
X161987296Y-42421567D01*
X161987300Y-42421568D01*
X162132276Y-42421568D01*
X162199315Y-42441253D01*
X162245070Y-42494057D01*
X162255014Y-42563215D01*
X162253893Y-42569759D01*
X162220568Y-42737296D01*
X162220568Y-42904839D01*
X162253250Y-43069142D01*
X162253252Y-43069150D01*
X162317363Y-43223928D01*
X162410441Y-43363230D01*
X162528905Y-43481694D01*
X162587224Y-43520661D01*
X162668205Y-43574771D01*
X162822986Y-43638884D01*
X162960455Y-43666228D01*
X162987296Y-43671567D01*
X162987300Y-43671568D01*
X162987301Y-43671568D01*
X163154836Y-43671568D01*
X163154837Y-43671567D01*
X163319150Y-43638884D01*
X163473931Y-43574771D01*
X163613230Y-43481694D01*
X163731694Y-43363230D01*
X163824771Y-43223931D01*
X163888884Y-43069150D01*
X163921568Y-42904835D01*
X163921568Y-42737301D01*
X163888884Y-42572986D01*
X163861033Y-42505750D01*
X163853565Y-42436282D01*
X163884840Y-42373802D01*
X163928138Y-42343738D01*
X163973931Y-42324771D01*
X164113230Y-42231694D01*
X164231694Y-42113230D01*
X164324771Y-41973931D01*
X164388884Y-41819150D01*
X164421568Y-41654835D01*
X164421568Y-41487301D01*
X164388884Y-41322986D01*
X164387231Y-41318995D01*
X167349499Y-41318995D01*
X167376418Y-41454322D01*
X167376421Y-41454332D01*
X167429221Y-41581804D01*
X167429228Y-41581817D01*
X167505885Y-41696541D01*
X167505888Y-41696545D01*
X167603454Y-41794111D01*
X167603458Y-41794114D01*
X167718182Y-41870771D01*
X167718195Y-41870778D01*
X167832700Y-41918207D01*
X167845672Y-41923580D01*
X167845676Y-41923580D01*
X167845677Y-41923581D01*
X167981004Y-41950500D01*
X167981007Y-41950500D01*
X168118995Y-41950500D01*
X168210041Y-41932389D01*
X168254328Y-41923580D01*
X168381811Y-41870775D01*
X168496542Y-41794114D01*
X168594114Y-41696542D01*
X168670775Y-41581811D01*
X168670824Y-41581694D01*
X168707589Y-41492933D01*
X168723580Y-41454328D01*
X168741436Y-41364561D01*
X168750500Y-41318995D01*
X168750500Y-41181004D01*
X168723581Y-41045677D01*
X168723580Y-41045676D01*
X168723580Y-41045672D01*
X168709064Y-41010626D01*
X168670778Y-40918195D01*
X168670771Y-40918182D01*
X168594114Y-40803458D01*
X168594111Y-40803454D01*
X168496545Y-40705888D01*
X168496541Y-40705885D01*
X168381817Y-40629228D01*
X168381804Y-40629221D01*
X168254332Y-40576421D01*
X168254322Y-40576418D01*
X168118995Y-40549500D01*
X168118993Y-40549500D01*
X167981007Y-40549500D01*
X167981005Y-40549500D01*
X167845677Y-40576418D01*
X167845667Y-40576421D01*
X167718195Y-40629221D01*
X167718182Y-40629228D01*
X167603458Y-40705885D01*
X167603454Y-40705888D01*
X167505888Y-40803454D01*
X167505885Y-40803458D01*
X167429228Y-40918182D01*
X167429221Y-40918195D01*
X167376421Y-41045667D01*
X167376418Y-41045677D01*
X167349500Y-41181004D01*
X167349500Y-41181007D01*
X167349500Y-41318993D01*
X167349500Y-41318995D01*
X167349499Y-41318995D01*
X164387231Y-41318995D01*
X164330073Y-41181004D01*
X164324773Y-41168209D01*
X164324772Y-41168207D01*
X164231694Y-41028905D01*
X164113230Y-40910441D01*
X163973928Y-40817363D01*
X163819150Y-40753252D01*
X163819142Y-40753250D01*
X163654839Y-40720568D01*
X163654835Y-40720568D01*
X163487301Y-40720568D01*
X163487296Y-40720568D01*
X163322993Y-40753250D01*
X163322985Y-40753252D01*
X163168207Y-40817363D01*
X163028905Y-40910441D01*
X163028902Y-40910444D01*
X162908749Y-41030598D01*
X162847426Y-41064083D01*
X162777734Y-41059099D01*
X162733387Y-41030598D01*
X162613230Y-40910441D01*
X162473928Y-40817363D01*
X162319150Y-40753252D01*
X162319142Y-40753250D01*
X162154839Y-40720568D01*
X162154835Y-40720568D01*
X161987301Y-40720568D01*
X161987296Y-40720568D01*
X161822993Y-40753250D01*
X161822985Y-40753252D01*
X161668207Y-40817363D01*
X161528905Y-40910441D01*
X161410441Y-41028905D01*
X161317363Y-41168207D01*
X161253252Y-41322985D01*
X161253250Y-41322993D01*
X161220568Y-41487296D01*
X156610122Y-41487296D01*
X156473928Y-41396295D01*
X156397314Y-41364561D01*
X156342911Y-41320720D01*
X156320846Y-41254426D01*
X156338125Y-41186727D01*
X156389262Y-41139116D01*
X156397314Y-41135439D01*
X156473931Y-41103703D01*
X156613230Y-41010626D01*
X156731694Y-40892162D01*
X156824771Y-40752863D01*
X156888884Y-40598082D01*
X156921568Y-40433767D01*
X156921568Y-40266233D01*
X156888884Y-40101918D01*
X156835255Y-39972449D01*
X156827787Y-39902981D01*
X156835251Y-39877557D01*
X156888884Y-39748079D01*
X156921568Y-39583764D01*
X156921568Y-39416230D01*
X156888884Y-39251915D01*
X156824771Y-39097134D01*
X156751379Y-38987296D01*
X161220568Y-38987296D01*
X161220568Y-39154839D01*
X161253250Y-39319142D01*
X161253252Y-39319150D01*
X161317363Y-39473928D01*
X161410441Y-39613230D01*
X161528905Y-39731694D01*
X161553432Y-39748082D01*
X161668205Y-39824771D01*
X161822986Y-39888884D01*
X161987296Y-39921567D01*
X161987300Y-39921568D01*
X161987301Y-39921568D01*
X162154836Y-39921568D01*
X162154837Y-39921567D01*
X162319150Y-39888884D01*
X162473931Y-39824771D01*
X162613230Y-39731694D01*
X162671423Y-39673501D01*
X162733387Y-39611538D01*
X162794710Y-39578053D01*
X162864402Y-39583037D01*
X162908749Y-39611538D01*
X163028905Y-39731694D01*
X163053432Y-39748082D01*
X163168205Y-39824771D01*
X163322986Y-39888884D01*
X163487296Y-39921567D01*
X163487300Y-39921568D01*
X163487301Y-39921568D01*
X163654836Y-39921568D01*
X163654837Y-39921567D01*
X163819150Y-39888884D01*
X163973931Y-39824771D01*
X164113230Y-39731694D01*
X164231694Y-39613230D01*
X164324771Y-39473931D01*
X164388884Y-39319150D01*
X164421568Y-39154835D01*
X164421568Y-38987301D01*
X164388884Y-38822986D01*
X164339295Y-38703269D01*
X164324772Y-38668207D01*
X164312270Y-38649497D01*
X164255199Y-38564083D01*
X164231694Y-38528905D01*
X164113230Y-38410441D01*
X163973928Y-38317363D01*
X163819150Y-38253252D01*
X163819142Y-38253250D01*
X163654839Y-38220568D01*
X163654835Y-38220568D01*
X163487301Y-38220568D01*
X163487296Y-38220568D01*
X163322993Y-38253250D01*
X163322985Y-38253252D01*
X163168207Y-38317363D01*
X163028905Y-38410441D01*
X163028902Y-38410444D01*
X162908749Y-38530598D01*
X162847426Y-38564083D01*
X162777734Y-38559099D01*
X162733387Y-38530598D01*
X162613230Y-38410441D01*
X162473928Y-38317363D01*
X162319150Y-38253252D01*
X162319142Y-38253250D01*
X162154839Y-38220568D01*
X162154835Y-38220568D01*
X161987301Y-38220568D01*
X161987296Y-38220568D01*
X161822993Y-38253250D01*
X161822985Y-38253252D01*
X161668207Y-38317363D01*
X161528905Y-38410441D01*
X161410441Y-38528905D01*
X161317363Y-38668207D01*
X161253252Y-38822985D01*
X161253250Y-38822993D01*
X161220568Y-38987296D01*
X156751379Y-38987296D01*
X156731694Y-38957835D01*
X156731693Y-38957834D01*
X156731691Y-38957831D01*
X156613230Y-38839370D01*
X156473928Y-38746292D01*
X156319150Y-38682181D01*
X156319142Y-38682179D01*
X156154839Y-38649497D01*
X156154835Y-38649497D01*
X155987301Y-38649497D01*
X155987296Y-38649497D01*
X155822993Y-38682179D01*
X155822985Y-38682181D01*
X155668207Y-38746292D01*
X155528905Y-38839370D01*
X155410441Y-38957834D01*
X155317363Y-39097136D01*
X155253252Y-39251914D01*
X155253250Y-39251922D01*
X155220568Y-39416225D01*
X155220568Y-39583768D01*
X155253250Y-39748071D01*
X155253252Y-39748079D01*
X155306879Y-39877545D01*
X155314348Y-39947014D01*
X155306879Y-39972451D01*
X155253252Y-40101917D01*
X155253250Y-40101925D01*
X155220568Y-40266228D01*
X155220568Y-40433771D01*
X155253250Y-40598074D01*
X155253252Y-40598082D01*
X155317363Y-40752860D01*
X155410441Y-40892162D01*
X155528905Y-41010626D01*
X155608910Y-41064083D01*
X155668205Y-41103703D01*
X155668206Y-41103703D01*
X155668207Y-41103704D01*
X155744821Y-41135439D01*
X155799224Y-41179280D01*
X155821289Y-41245575D01*
X155804009Y-41313274D01*
X155752872Y-41360884D01*
X155744821Y-41364561D01*
X155668207Y-41396295D01*
X155528905Y-41489373D01*
X155410441Y-41607837D01*
X155317363Y-41747139D01*
X155253252Y-41901917D01*
X155253250Y-41901925D01*
X155220568Y-42066228D01*
X155220568Y-42233771D01*
X155253250Y-42398074D01*
X155253252Y-42398082D01*
X155319696Y-42558491D01*
X155318394Y-42559029D01*
X155331188Y-42620492D01*
X155318924Y-42662257D01*
X155319696Y-42662577D01*
X155253252Y-42822985D01*
X155253250Y-42822993D01*
X155220568Y-42987296D01*
X155220568Y-43154839D01*
X155253250Y-43319142D01*
X155253252Y-43319150D01*
X155317363Y-43473927D01*
X155317368Y-43473937D01*
X155344819Y-43515020D01*
X155365697Y-43581698D01*
X155356278Y-43631363D01*
X155293633Y-43782601D01*
X155293630Y-43782613D01*
X155260948Y-43946916D01*
X155260948Y-44114459D01*
X155293630Y-44278762D01*
X155293632Y-44278770D01*
X155357743Y-44433548D01*
X155450821Y-44572850D01*
X155573593Y-44695622D01*
X155572726Y-44696488D01*
X155608433Y-44748905D01*
X155610304Y-44818749D01*
X155574118Y-44878518D01*
X155559325Y-44890116D01*
X155528906Y-44910441D01*
X155528902Y-44910444D01*
X155410441Y-45028905D01*
X155317363Y-45168207D01*
X155253252Y-45322985D01*
X155253250Y-45322993D01*
X155220568Y-45487296D01*
X155220568Y-45654839D01*
X155253250Y-45819142D01*
X155253252Y-45819150D01*
X155285087Y-45896006D01*
X155292556Y-45965476D01*
X155263492Y-46023536D01*
X155264303Y-46024202D01*
X155261372Y-46027772D01*
X155261281Y-46027955D01*
X155260890Y-46028359D01*
X155260439Y-46028909D01*
X155167363Y-46168207D01*
X155103252Y-46322985D01*
X155103250Y-46322993D01*
X155070568Y-46487296D01*
X151690085Y-46487296D01*
X151613230Y-46410441D01*
X151473928Y-46317363D01*
X151319150Y-46253252D01*
X151319142Y-46253250D01*
X151154839Y-46220568D01*
X151154835Y-46220568D01*
X150987301Y-46220568D01*
X150987296Y-46220568D01*
X150822368Y-46253374D01*
X150752776Y-46247147D01*
X150710496Y-46219438D01*
X150672745Y-46181687D01*
X150533443Y-46088609D01*
X150378665Y-46024498D01*
X150378657Y-46024496D01*
X150214354Y-45991814D01*
X150214350Y-45991814D01*
X150046816Y-45991814D01*
X150046811Y-45991814D01*
X150024287Y-45996294D01*
X149954696Y-45990064D01*
X149899520Y-45947199D01*
X149876278Y-45881309D01*
X149885539Y-45827223D01*
X149888884Y-45819150D01*
X149921568Y-45654835D01*
X149921568Y-45487301D01*
X149888884Y-45322986D01*
X149824771Y-45168205D01*
X149779531Y-45100499D01*
X149731694Y-45028905D01*
X149613230Y-44910441D01*
X149473928Y-44817363D01*
X149319150Y-44753252D01*
X149319142Y-44753250D01*
X149154839Y-44720568D01*
X149154835Y-44720568D01*
X148987301Y-44720568D01*
X148987296Y-44720568D01*
X148822993Y-44753250D01*
X148822985Y-44753252D01*
X148668207Y-44817363D01*
X148528905Y-44910441D01*
X148410441Y-45028905D01*
X148317363Y-45168207D01*
X148253252Y-45322985D01*
X148253250Y-45322993D01*
X148220568Y-45487296D01*
X130671567Y-45487296D01*
X130638884Y-45322986D01*
X130574771Y-45168205D01*
X130555896Y-45139957D01*
X130535019Y-45073282D01*
X130553503Y-45005902D01*
X130555897Y-45002177D01*
X130574771Y-44973931D01*
X130638884Y-44819150D01*
X130671568Y-44654835D01*
X130671568Y-44487301D01*
X130638884Y-44322986D01*
X130574771Y-44168205D01*
X130507392Y-44067365D01*
X130481694Y-44028905D01*
X130363230Y-43910441D01*
X130223928Y-43817363D01*
X130120934Y-43774702D01*
X130069150Y-43753252D01*
X130069142Y-43753250D01*
X129904839Y-43720568D01*
X129904835Y-43720568D01*
X129737301Y-43720568D01*
X129737296Y-43720568D01*
X129572993Y-43753250D01*
X129572985Y-43753252D01*
X129418207Y-43817363D01*
X129278905Y-43910441D01*
X129160441Y-44028905D01*
X129067363Y-44168207D01*
X129003252Y-44322985D01*
X129003250Y-44322993D01*
X128970568Y-44487296D01*
X123700500Y-44487296D01*
X123700500Y-42988348D01*
X126221620Y-42988348D01*
X126221620Y-43155891D01*
X126254302Y-43320194D01*
X126254304Y-43320202D01*
X126318415Y-43474980D01*
X126411493Y-43614282D01*
X126529957Y-43732746D01*
X126604571Y-43782601D01*
X126669257Y-43825823D01*
X126824038Y-43889936D01*
X126927130Y-43910442D01*
X126988348Y-43922619D01*
X126988352Y-43922620D01*
X126988353Y-43922620D01*
X127155888Y-43922620D01*
X127155889Y-43922619D01*
X127320202Y-43889936D01*
X127474983Y-43825823D01*
X127614282Y-43732746D01*
X127680800Y-43666228D01*
X130824500Y-43666228D01*
X130824500Y-43833771D01*
X130857182Y-43998074D01*
X130857184Y-43998082D01*
X130921295Y-44152860D01*
X131014373Y-44292162D01*
X131132837Y-44410626D01*
X131225494Y-44472537D01*
X131272137Y-44503703D01*
X131426918Y-44567816D01*
X131591228Y-44600499D01*
X131591232Y-44600500D01*
X131591233Y-44600500D01*
X131758768Y-44600500D01*
X131758769Y-44600499D01*
X131923082Y-44567816D01*
X132077863Y-44503703D01*
X132217162Y-44410626D01*
X132335626Y-44292162D01*
X132428703Y-44152863D01*
X132492816Y-43998082D01*
X132525500Y-43833767D01*
X132525500Y-43666233D01*
X132492816Y-43501918D01*
X132428703Y-43347137D01*
X132355309Y-43237296D01*
X140470568Y-43237296D01*
X140470568Y-43404839D01*
X140503250Y-43569142D01*
X140503252Y-43569150D01*
X140567364Y-43723931D01*
X140569049Y-43727082D01*
X140569432Y-43728921D01*
X140569696Y-43729559D01*
X140569575Y-43729609D01*
X140583290Y-43795485D01*
X140569049Y-43843986D01*
X140567364Y-43847136D01*
X140503252Y-44001917D01*
X140503250Y-44001925D01*
X140470568Y-44166228D01*
X140470568Y-44333771D01*
X140503250Y-44498074D01*
X140503252Y-44498082D01*
X140567363Y-44652860D01*
X140660441Y-44792162D01*
X140778905Y-44910626D01*
X140868615Y-44970568D01*
X140918205Y-45003703D01*
X140918206Y-45003703D01*
X140918207Y-45003704D01*
X140953269Y-45018227D01*
X141072986Y-45067816D01*
X141237296Y-45100499D01*
X141237300Y-45100500D01*
X141237301Y-45100500D01*
X141404836Y-45100500D01*
X141404837Y-45100499D01*
X141569150Y-45067816D01*
X141723931Y-45003703D01*
X141863230Y-44910626D01*
X141981694Y-44792162D01*
X142074771Y-44652863D01*
X142138884Y-44498082D01*
X142171568Y-44333767D01*
X142171568Y-44166233D01*
X142138884Y-44001918D01*
X142074771Y-43847137D01*
X142074771Y-43847136D01*
X142073092Y-43843996D01*
X142072709Y-43842159D01*
X142072440Y-43841509D01*
X142072563Y-43841457D01*
X142058844Y-43775595D01*
X142073092Y-43727072D01*
X142074771Y-43723931D01*
X142076164Y-43720568D01*
X142138884Y-43569150D01*
X142171568Y-43404835D01*
X142171568Y-43237301D01*
X142138884Y-43072986D01*
X142074771Y-42918205D01*
X142011855Y-42824045D01*
X141981694Y-42778905D01*
X141863230Y-42660441D01*
X141723928Y-42567363D01*
X141569150Y-42503252D01*
X141569142Y-42503250D01*
X141404839Y-42470568D01*
X141404835Y-42470568D01*
X141237301Y-42470568D01*
X141237296Y-42470568D01*
X141072993Y-42503250D01*
X141072985Y-42503252D01*
X140918207Y-42567363D01*
X140778905Y-42660441D01*
X140660441Y-42778905D01*
X140567363Y-42918207D01*
X140503252Y-43072985D01*
X140503250Y-43072993D01*
X140470568Y-43237296D01*
X132355309Y-43237296D01*
X132335626Y-43207838D01*
X132335625Y-43207837D01*
X132335623Y-43207834D01*
X132217162Y-43089373D01*
X132077860Y-42996295D01*
X131923082Y-42932184D01*
X131923074Y-42932182D01*
X131758771Y-42899500D01*
X131758767Y-42899500D01*
X131591233Y-42899500D01*
X131591228Y-42899500D01*
X131426925Y-42932182D01*
X131426917Y-42932184D01*
X131272139Y-42996295D01*
X131132837Y-43089373D01*
X131014373Y-43207837D01*
X130921295Y-43347139D01*
X130857184Y-43501917D01*
X130857182Y-43501925D01*
X130824500Y-43666228D01*
X127680800Y-43666228D01*
X127732746Y-43614282D01*
X127825823Y-43474983D01*
X127889936Y-43320202D01*
X127922620Y-43155887D01*
X127922620Y-42988353D01*
X127889936Y-42824038D01*
X127825823Y-42669257D01*
X127779946Y-42600597D01*
X127732746Y-42529957D01*
X127614285Y-42411496D01*
X127614281Y-42411493D01*
X127498770Y-42334311D01*
X127497727Y-42333614D01*
X127474983Y-42318417D01*
X127474980Y-42318415D01*
X127474979Y-42318415D01*
X127320202Y-42254304D01*
X127320194Y-42254302D01*
X127234699Y-42237296D01*
X146220568Y-42237296D01*
X146220568Y-42404839D01*
X146253250Y-42569142D01*
X146253252Y-42569150D01*
X146317363Y-42723928D01*
X146410441Y-42863230D01*
X146528905Y-42981694D01*
X146621562Y-43043605D01*
X146668205Y-43074771D01*
X146822986Y-43138884D01*
X146987296Y-43171567D01*
X146987300Y-43171568D01*
X146987301Y-43171568D01*
X147154836Y-43171568D01*
X147154837Y-43171567D01*
X147319150Y-43138884D01*
X147473931Y-43074771D01*
X147613230Y-42981694D01*
X147731694Y-42863230D01*
X147824771Y-42723931D01*
X147888884Y-42569150D01*
X147921568Y-42404835D01*
X147921568Y-42237301D01*
X147888884Y-42072986D01*
X147826998Y-41923581D01*
X147824772Y-41918207D01*
X147818974Y-41909530D01*
X147793076Y-41870771D01*
X147731694Y-41778905D01*
X147613230Y-41660441D01*
X147473928Y-41567363D01*
X147319150Y-41503252D01*
X147319142Y-41503250D01*
X147154839Y-41470568D01*
X147154835Y-41470568D01*
X146987301Y-41470568D01*
X146987296Y-41470568D01*
X146822993Y-41503250D01*
X146822985Y-41503252D01*
X146668207Y-41567363D01*
X146528905Y-41660441D01*
X146410441Y-41778905D01*
X146317363Y-41918207D01*
X146253252Y-42072985D01*
X146253250Y-42072993D01*
X146220568Y-42237296D01*
X127234699Y-42237296D01*
X127155891Y-42221620D01*
X127155887Y-42221620D01*
X126988353Y-42221620D01*
X126988348Y-42221620D01*
X126824045Y-42254302D01*
X126824037Y-42254304D01*
X126669259Y-42318415D01*
X126529957Y-42411493D01*
X126411493Y-42529957D01*
X126318415Y-42669259D01*
X126254304Y-42824037D01*
X126254302Y-42824045D01*
X126221620Y-42988348D01*
X123700500Y-42988348D01*
X123700500Y-39666228D01*
X130824500Y-39666228D01*
X130824500Y-39833771D01*
X130857182Y-39998074D01*
X130857184Y-39998082D01*
X130921295Y-40152860D01*
X131014373Y-40292162D01*
X131132837Y-40410626D01*
X131225494Y-40472537D01*
X131272137Y-40503703D01*
X131426918Y-40567816D01*
X131579037Y-40598074D01*
X131591228Y-40600499D01*
X131591232Y-40600500D01*
X131591233Y-40600500D01*
X131758768Y-40600500D01*
X131758769Y-40600499D01*
X131923082Y-40567816D01*
X132077863Y-40503703D01*
X132217162Y-40410626D01*
X132335626Y-40292162D01*
X132428703Y-40152863D01*
X132492816Y-39998082D01*
X132525500Y-39833767D01*
X132525500Y-39666233D01*
X132492816Y-39501918D01*
X132428703Y-39347137D01*
X132365082Y-39251922D01*
X132335626Y-39207837D01*
X132217162Y-39089373D01*
X132077860Y-38996295D01*
X131923082Y-38932184D01*
X131923074Y-38932182D01*
X131758771Y-38899500D01*
X131758767Y-38899500D01*
X131591233Y-38899500D01*
X131591228Y-38899500D01*
X131426925Y-38932182D01*
X131426917Y-38932184D01*
X131272139Y-38996295D01*
X131132837Y-39089373D01*
X131014373Y-39207837D01*
X130921295Y-39347139D01*
X130857184Y-39501917D01*
X130857182Y-39501925D01*
X130824500Y-39666228D01*
X123700500Y-39666228D01*
X123700500Y-38771914D01*
X144605189Y-38771914D01*
X144605189Y-38939457D01*
X144637871Y-39103760D01*
X144637873Y-39103768D01*
X144701984Y-39258546D01*
X144795062Y-39397848D01*
X144913526Y-39516312D01*
X145005929Y-39578053D01*
X145052826Y-39609389D01*
X145207607Y-39673502D01*
X145349369Y-39701700D01*
X145371917Y-39706185D01*
X145371921Y-39706186D01*
X145371922Y-39706186D01*
X145539457Y-39706186D01*
X145539458Y-39706185D01*
X145703771Y-39673502D01*
X145858552Y-39609389D01*
X145997851Y-39516312D01*
X146116315Y-39397848D01*
X146209392Y-39258549D01*
X146273505Y-39103768D01*
X146306189Y-38939453D01*
X146306189Y-38771919D01*
X146305057Y-38766228D01*
X147218566Y-38766228D01*
X147218566Y-38933771D01*
X147251248Y-39098074D01*
X147251250Y-39098082D01*
X147315361Y-39252860D01*
X147408439Y-39392162D01*
X147526903Y-39510626D01*
X147619560Y-39572537D01*
X147666203Y-39603703D01*
X147666204Y-39603703D01*
X147666205Y-39603704D01*
X147666207Y-39603705D01*
X147685118Y-39611538D01*
X147796951Y-39657861D01*
X147851354Y-39701700D01*
X147868660Y-39742449D01*
X147869317Y-39742250D01*
X147871086Y-39748082D01*
X147935197Y-39902860D01*
X148028275Y-40042162D01*
X148052537Y-40066424D01*
X148086022Y-40127747D01*
X148081038Y-40197439D01*
X148039166Y-40253372D01*
X148033754Y-40257202D01*
X148028908Y-40260439D01*
X148028899Y-40260448D01*
X147910444Y-40378902D01*
X147910441Y-40378905D01*
X147817363Y-40518207D01*
X147753252Y-40672985D01*
X147753250Y-40672993D01*
X147720568Y-40837296D01*
X147720568Y-41004839D01*
X147753250Y-41169142D01*
X147753252Y-41169150D01*
X147817363Y-41323928D01*
X147910441Y-41463230D01*
X148028905Y-41581694D01*
X148068033Y-41607838D01*
X148168205Y-41674771D01*
X148322986Y-41738884D01*
X148487296Y-41771567D01*
X148487300Y-41771568D01*
X148487301Y-41771568D01*
X148654836Y-41771568D01*
X148654837Y-41771567D01*
X148819150Y-41738884D01*
X148973931Y-41674771D01*
X149113230Y-41581694D01*
X149127561Y-41567363D01*
X149168507Y-41526418D01*
X149229830Y-41492933D01*
X149299522Y-41497917D01*
X149355455Y-41539789D01*
X149379872Y-41605253D01*
X149380188Y-41614099D01*
X149380188Y-41745219D01*
X149412870Y-41909522D01*
X149412872Y-41909530D01*
X149476983Y-42064308D01*
X149570061Y-42203610D01*
X149688525Y-42322074D01*
X149720945Y-42343736D01*
X149827825Y-42415151D01*
X149982606Y-42479264D01*
X150146916Y-42511947D01*
X150146920Y-42511948D01*
X150146921Y-42511948D01*
X150314456Y-42511948D01*
X150314457Y-42511947D01*
X150478770Y-42479264D01*
X150633551Y-42415151D01*
X150772850Y-42322074D01*
X150891314Y-42203610D01*
X150984391Y-42064311D01*
X151048504Y-41909530D01*
X151081188Y-41745215D01*
X151081188Y-41577681D01*
X151048504Y-41413366D01*
X150984391Y-41258585D01*
X150931401Y-41179280D01*
X150891314Y-41119285D01*
X150772850Y-41000821D01*
X150633548Y-40907743D01*
X150478770Y-40843632D01*
X150478764Y-40843630D01*
X150353357Y-40818685D01*
X150291446Y-40786300D01*
X150256872Y-40725584D01*
X150260612Y-40655815D01*
X150274445Y-40628180D01*
X150324771Y-40552863D01*
X150388884Y-40398082D01*
X150421568Y-40233767D01*
X150421568Y-40066233D01*
X150421567Y-40066228D01*
X151720568Y-40066228D01*
X151720568Y-40233771D01*
X151753250Y-40398074D01*
X151753252Y-40398082D01*
X151817363Y-40552860D01*
X151910441Y-40692162D01*
X152028905Y-40810626D01*
X152121562Y-40872537D01*
X152168205Y-40903703D01*
X152322986Y-40967816D01*
X152487296Y-41000499D01*
X152487300Y-41000500D01*
X152487301Y-41000500D01*
X152654836Y-41000500D01*
X152654837Y-41000499D01*
X152819150Y-40967816D01*
X152973931Y-40903703D01*
X153113230Y-40810626D01*
X153231694Y-40692162D01*
X153324771Y-40552863D01*
X153388884Y-40398082D01*
X153421568Y-40233767D01*
X153421568Y-40066233D01*
X153388884Y-39901918D01*
X153339295Y-39782201D01*
X153324772Y-39747139D01*
X153321638Y-39742449D01*
X153275570Y-39673503D01*
X153231694Y-39607837D01*
X153113230Y-39489373D01*
X152973928Y-39396295D01*
X152819150Y-39332184D01*
X152819142Y-39332182D01*
X152654839Y-39299500D01*
X152654835Y-39299500D01*
X152487301Y-39299500D01*
X152487296Y-39299500D01*
X152322993Y-39332182D01*
X152322985Y-39332184D01*
X152168207Y-39396295D01*
X152028905Y-39489373D01*
X151910441Y-39607837D01*
X151817363Y-39747139D01*
X151753252Y-39901917D01*
X151753250Y-39901925D01*
X151720568Y-40066228D01*
X150421567Y-40066228D01*
X150388884Y-39901918D01*
X150339295Y-39782201D01*
X150324772Y-39747139D01*
X150321638Y-39742449D01*
X150275570Y-39673503D01*
X150231694Y-39607837D01*
X150113230Y-39489373D01*
X149973928Y-39396295D01*
X149819150Y-39332184D01*
X149819142Y-39332182D01*
X149654839Y-39299500D01*
X149654835Y-39299500D01*
X149609281Y-39299500D01*
X149542242Y-39279815D01*
X149496487Y-39227011D01*
X149494720Y-39222953D01*
X149442606Y-39097139D01*
X149349528Y-38957837D01*
X149231064Y-38839373D01*
X149091762Y-38746295D01*
X148961016Y-38692138D01*
X148906612Y-38648296D01*
X148889308Y-38607548D01*
X148888650Y-38607748D01*
X148886883Y-38601925D01*
X148886882Y-38601918D01*
X148822769Y-38447137D01*
X148736058Y-38317365D01*
X148729692Y-38307837D01*
X148611228Y-38189373D01*
X148471926Y-38096295D01*
X148317148Y-38032184D01*
X148317140Y-38032182D01*
X148152837Y-37999500D01*
X148152833Y-37999500D01*
X147985299Y-37999500D01*
X147985294Y-37999500D01*
X147820991Y-38032182D01*
X147820983Y-38032184D01*
X147666205Y-38096295D01*
X147526903Y-38189373D01*
X147408439Y-38307837D01*
X147315361Y-38447139D01*
X147251250Y-38601917D01*
X147251248Y-38601925D01*
X147218566Y-38766228D01*
X146305057Y-38766228D01*
X146273505Y-38607604D01*
X146209392Y-38452823D01*
X146149528Y-38363230D01*
X146116315Y-38313523D01*
X145997851Y-38195059D01*
X145858549Y-38101981D01*
X145703771Y-38037870D01*
X145703763Y-38037868D01*
X145539460Y-38005186D01*
X145539456Y-38005186D01*
X145371922Y-38005186D01*
X145371917Y-38005186D01*
X145207614Y-38037868D01*
X145207606Y-38037870D01*
X145052828Y-38101981D01*
X144913526Y-38195059D01*
X144795062Y-38313523D01*
X144701984Y-38452825D01*
X144637873Y-38607603D01*
X144637871Y-38607611D01*
X144605189Y-38771914D01*
X123700500Y-38771914D01*
X123700500Y-37737296D01*
X137220568Y-37737296D01*
X137220568Y-37904839D01*
X137253250Y-38069142D01*
X137253252Y-38069150D01*
X137317363Y-38223928D01*
X137410441Y-38363230D01*
X137528905Y-38481694D01*
X137621562Y-38543605D01*
X137668205Y-38574771D01*
X137822986Y-38638884D01*
X137970394Y-38668205D01*
X137987296Y-38671567D01*
X137987300Y-38671568D01*
X137987301Y-38671568D01*
X138154836Y-38671568D01*
X138154837Y-38671567D01*
X138199604Y-38662663D01*
X138292377Y-38644210D01*
X138305463Y-38641606D01*
X138319150Y-38638884D01*
X138473931Y-38574771D01*
X138613230Y-38481694D01*
X138731694Y-38363230D01*
X138824771Y-38223931D01*
X138888884Y-38069150D01*
X138921568Y-37904835D01*
X138921568Y-37737301D01*
X138888884Y-37572986D01*
X138824771Y-37418205D01*
X138793605Y-37371562D01*
X138731694Y-37278905D01*
X138613230Y-37160441D01*
X138473928Y-37067363D01*
X138319150Y-37003252D01*
X138319142Y-37003250D01*
X138154839Y-36970568D01*
X138154835Y-36970568D01*
X137987301Y-36970568D01*
X137987296Y-36970568D01*
X137822993Y-37003250D01*
X137822985Y-37003252D01*
X137668207Y-37067363D01*
X137528905Y-37160441D01*
X137410441Y-37278905D01*
X137317363Y-37418207D01*
X137253252Y-37572985D01*
X137253250Y-37572993D01*
X137220568Y-37737296D01*
X123700500Y-37737296D01*
X123700500Y-34487296D01*
X129220568Y-34487296D01*
X129220568Y-34654839D01*
X129253250Y-34819142D01*
X129253252Y-34819150D01*
X129317363Y-34973927D01*
X129317370Y-34973940D01*
X129336238Y-35002179D01*
X129357115Y-35068857D01*
X129338629Y-35136236D01*
X129336238Y-35139957D01*
X129317370Y-35168195D01*
X129317363Y-35168208D01*
X129253252Y-35322985D01*
X129253250Y-35322993D01*
X129220568Y-35487296D01*
X129220568Y-35654839D01*
X129253250Y-35819142D01*
X129253252Y-35819150D01*
X129317363Y-35973928D01*
X129410441Y-36113230D01*
X129528905Y-36231694D01*
X129621562Y-36293605D01*
X129668205Y-36324771D01*
X129822986Y-36388884D01*
X129987296Y-36421567D01*
X129987300Y-36421568D01*
X129987301Y-36421568D01*
X130154836Y-36421568D01*
X130154837Y-36421567D01*
X130319150Y-36388884D01*
X130473931Y-36324771D01*
X130613230Y-36231694D01*
X130731694Y-36113230D01*
X130815841Y-35987296D01*
X138970568Y-35987296D01*
X138970568Y-36154839D01*
X139003250Y-36319142D01*
X139003252Y-36319150D01*
X139067363Y-36473928D01*
X139160441Y-36613230D01*
X139278905Y-36731694D01*
X139371562Y-36793605D01*
X139418205Y-36824771D01*
X139572986Y-36888884D01*
X139737296Y-36921567D01*
X139737300Y-36921568D01*
X139737301Y-36921568D01*
X139904836Y-36921568D01*
X139904837Y-36921567D01*
X140069150Y-36888884D01*
X140223931Y-36824771D01*
X140363230Y-36731694D01*
X140481694Y-36613230D01*
X140574771Y-36473931D01*
X140638884Y-36319150D01*
X140671568Y-36154835D01*
X140671568Y-35987301D01*
X140638884Y-35822986D01*
X140574771Y-35668205D01*
X140569374Y-35660128D01*
X140548497Y-35593453D01*
X140566981Y-35526073D01*
X140603589Y-35488135D01*
X140613230Y-35481694D01*
X140731694Y-35363230D01*
X140824771Y-35223931D01*
X140888884Y-35069150D01*
X140921568Y-34904835D01*
X140921568Y-34737301D01*
X140888884Y-34572986D01*
X140824771Y-34418205D01*
X140775544Y-34344532D01*
X140764500Y-34328003D01*
X147892035Y-34328003D01*
X147892035Y-34495546D01*
X147924717Y-34659849D01*
X147924719Y-34659857D01*
X147988830Y-34814635D01*
X148081908Y-34953937D01*
X148200372Y-35072401D01*
X148225104Y-35088926D01*
X148339672Y-35165478D01*
X148339673Y-35165478D01*
X148339674Y-35165479D01*
X148374736Y-35180002D01*
X148494453Y-35229591D01*
X148658763Y-35262274D01*
X148658767Y-35262275D01*
X148658768Y-35262275D01*
X148826300Y-35262275D01*
X148826302Y-35262275D01*
X148841101Y-35259331D01*
X148910690Y-35265557D01*
X148965869Y-35308418D01*
X148989115Y-35374308D01*
X148986911Y-35405138D01*
X148970568Y-35487302D01*
X148970568Y-35654839D01*
X149003250Y-35819142D01*
X149003252Y-35819150D01*
X149067363Y-35973928D01*
X149160441Y-36113230D01*
X149278905Y-36231694D01*
X149371562Y-36293605D01*
X149418205Y-36324771D01*
X149572986Y-36388884D01*
X149737296Y-36421567D01*
X149737300Y-36421568D01*
X149737301Y-36421568D01*
X149904836Y-36421568D01*
X149904837Y-36421567D01*
X150069150Y-36388884D01*
X150223931Y-36324771D01*
X150363230Y-36231694D01*
X150481694Y-36113230D01*
X150565841Y-35987296D01*
X157220568Y-35987296D01*
X157220568Y-36154839D01*
X157253250Y-36319142D01*
X157253252Y-36319150D01*
X157317363Y-36473928D01*
X157410441Y-36613230D01*
X157528905Y-36731694D01*
X157621562Y-36793605D01*
X157668205Y-36824771D01*
X157822986Y-36888884D01*
X157987296Y-36921567D01*
X157987300Y-36921568D01*
X157987301Y-36921568D01*
X158154836Y-36921568D01*
X158154837Y-36921567D01*
X158319150Y-36888884D01*
X158473931Y-36824771D01*
X158613230Y-36731694D01*
X158731694Y-36613230D01*
X158824771Y-36473931D01*
X158888884Y-36319150D01*
X158921568Y-36154835D01*
X158921568Y-35987301D01*
X158888884Y-35822986D01*
X158824771Y-35668205D01*
X158750485Y-35557028D01*
X158731694Y-35528905D01*
X158613230Y-35410441D01*
X158473928Y-35317363D01*
X158319150Y-35253252D01*
X158319142Y-35253250D01*
X158154839Y-35220568D01*
X158154835Y-35220568D01*
X157987301Y-35220568D01*
X157987296Y-35220568D01*
X157822993Y-35253250D01*
X157822985Y-35253252D01*
X157668207Y-35317363D01*
X157528905Y-35410441D01*
X157410441Y-35528905D01*
X157317363Y-35668207D01*
X157253252Y-35822985D01*
X157253250Y-35822993D01*
X157220568Y-35987296D01*
X150565841Y-35987296D01*
X150574771Y-35973931D01*
X150638884Y-35819150D01*
X150671568Y-35654835D01*
X150671568Y-35487301D01*
X150638884Y-35322986D01*
X150592471Y-35210936D01*
X150585002Y-35141467D01*
X150616277Y-35078987D01*
X150676366Y-35043335D01*
X150746191Y-35045829D01*
X150794713Y-35075802D01*
X150807837Y-35088926D01*
X150878642Y-35136236D01*
X150947137Y-35182003D01*
X151101918Y-35246116D01*
X151266228Y-35278799D01*
X151266232Y-35278800D01*
X151266233Y-35278800D01*
X151433768Y-35278800D01*
X151433769Y-35278799D01*
X151598082Y-35246116D01*
X151752863Y-35182003D01*
X151892162Y-35088926D01*
X152010626Y-34970462D01*
X152103703Y-34831163D01*
X152167816Y-34676382D01*
X152200500Y-34512067D01*
X152200500Y-34344533D01*
X152167816Y-34180218D01*
X152103703Y-34025437D01*
X152067041Y-33970568D01*
X152010626Y-33886137D01*
X151892162Y-33767673D01*
X151752860Y-33674595D01*
X151598082Y-33610484D01*
X151598074Y-33610482D01*
X151433771Y-33577800D01*
X151433767Y-33577800D01*
X151266233Y-33577800D01*
X151266228Y-33577800D01*
X151101925Y-33610482D01*
X151101917Y-33610484D01*
X150947139Y-33674595D01*
X150807837Y-33767673D01*
X150689373Y-33886137D01*
X150596295Y-34025439D01*
X150532184Y-34180217D01*
X150532182Y-34180225D01*
X150499500Y-34344528D01*
X150499500Y-34512071D01*
X150532182Y-34676374D01*
X150532185Y-34676386D01*
X150578596Y-34788432D01*
X150586065Y-34857901D01*
X150554790Y-34920380D01*
X150494701Y-34956032D01*
X150424876Y-34953538D01*
X150376354Y-34923565D01*
X150363230Y-34910441D01*
X150223928Y-34817363D01*
X150069150Y-34753252D01*
X150069142Y-34753250D01*
X149904839Y-34720568D01*
X149904835Y-34720568D01*
X149737301Y-34720568D01*
X149737300Y-34720568D01*
X149722497Y-34723512D01*
X149652905Y-34717283D01*
X149597729Y-34674418D01*
X149574487Y-34608528D01*
X149576691Y-34577705D01*
X149593035Y-34495542D01*
X149593035Y-34328008D01*
X149560351Y-34163693D01*
X149504520Y-34028906D01*
X149496239Y-34008914D01*
X149492454Y-34003250D01*
X149465072Y-33962269D01*
X149403161Y-33869612D01*
X149284697Y-33751148D01*
X149145395Y-33658070D01*
X148990617Y-33593959D01*
X148990609Y-33593957D01*
X148826306Y-33561275D01*
X148826302Y-33561275D01*
X148658768Y-33561275D01*
X148658763Y-33561275D01*
X148494460Y-33593957D01*
X148494452Y-33593959D01*
X148339674Y-33658070D01*
X148200372Y-33751148D01*
X148081908Y-33869612D01*
X147988830Y-34008914D01*
X147924719Y-34163692D01*
X147924717Y-34163700D01*
X147892035Y-34328003D01*
X140764500Y-34328003D01*
X140731694Y-34278905D01*
X140613230Y-34160441D01*
X140473928Y-34067363D01*
X140319150Y-34003252D01*
X140319142Y-34003250D01*
X140154839Y-33970568D01*
X140154835Y-33970568D01*
X139987301Y-33970568D01*
X139987296Y-33970568D01*
X139822993Y-34003250D01*
X139822985Y-34003252D01*
X139668207Y-34067363D01*
X139528905Y-34160441D01*
X139410441Y-34278905D01*
X139317363Y-34418207D01*
X139253252Y-34572985D01*
X139253250Y-34572993D01*
X139220568Y-34737296D01*
X139220568Y-34904839D01*
X139253250Y-35069142D01*
X139253252Y-35069150D01*
X139299997Y-35182003D01*
X139317365Y-35223931D01*
X139321147Y-35229591D01*
X139322761Y-35232006D01*
X139343638Y-35298684D01*
X139325153Y-35366064D01*
X139288556Y-35403993D01*
X139278908Y-35410441D01*
X139278902Y-35410445D01*
X139278899Y-35410448D01*
X139160444Y-35528902D01*
X139160441Y-35528905D01*
X139067363Y-35668207D01*
X139003252Y-35822985D01*
X139003250Y-35822993D01*
X138970568Y-35987296D01*
X130815841Y-35987296D01*
X130824771Y-35973931D01*
X130888884Y-35819150D01*
X130921568Y-35654835D01*
X130921568Y-35487301D01*
X130888884Y-35322986D01*
X130824771Y-35168205D01*
X130805896Y-35139957D01*
X130785019Y-35073282D01*
X130803503Y-35005902D01*
X130805897Y-35002177D01*
X130824771Y-34973931D01*
X130888884Y-34819150D01*
X130921568Y-34654835D01*
X130921568Y-34487301D01*
X130888884Y-34322986D01*
X130824771Y-34168205D01*
X130793605Y-34121562D01*
X130731694Y-34028905D01*
X130613230Y-33910441D01*
X130473928Y-33817363D01*
X130319150Y-33753252D01*
X130319142Y-33753250D01*
X130154839Y-33720568D01*
X130154835Y-33720568D01*
X129987301Y-33720568D01*
X129987296Y-33720568D01*
X129822993Y-33753250D01*
X129822985Y-33753252D01*
X129668207Y-33817363D01*
X129528905Y-33910441D01*
X129410441Y-34028905D01*
X129317363Y-34168207D01*
X129253252Y-34322985D01*
X129253250Y-34322993D01*
X129220568Y-34487296D01*
X123700500Y-34487296D01*
X123700500Y-30001858D01*
X123700557Y-29998113D01*
X123702376Y-29937915D01*
X123705399Y-29837857D01*
X130199500Y-29837857D01*
X130199500Y-30162143D01*
X130199903Y-30166232D01*
X130231284Y-30484857D01*
X130231287Y-30484874D01*
X130294545Y-30802902D01*
X130294548Y-30802913D01*
X130388686Y-31113247D01*
X130434735Y-31224418D01*
X130511476Y-31409688D01*
X130512786Y-31412849D01*
X130512788Y-31412854D01*
X130665646Y-31698830D01*
X130665657Y-31698848D01*
X130845811Y-31968467D01*
X130845821Y-31968481D01*
X131051546Y-32219158D01*
X131280841Y-32448453D01*
X131280846Y-32448457D01*
X131280847Y-32448458D01*
X131531524Y-32654183D01*
X131801158Y-32834347D01*
X131801167Y-32834352D01*
X131801169Y-32834353D01*
X132087145Y-32987211D01*
X132087147Y-32987211D01*
X132087153Y-32987215D01*
X132386754Y-33111314D01*
X132697077Y-33205449D01*
X132697083Y-33205450D01*
X132697086Y-33205451D01*
X132697097Y-33205454D01*
X132896528Y-33245122D01*
X133015132Y-33268714D01*
X133337857Y-33300500D01*
X133337860Y-33300500D01*
X133662140Y-33300500D01*
X133662143Y-33300500D01*
X133984868Y-33268714D01*
X134142295Y-33237399D01*
X134302902Y-33205454D01*
X134302913Y-33205451D01*
X134302913Y-33205450D01*
X134302923Y-33205449D01*
X134613246Y-33111314D01*
X134912847Y-32987215D01*
X135198842Y-32834347D01*
X135468476Y-32654183D01*
X135719153Y-32448458D01*
X135948458Y-32219153D01*
X136154183Y-31968476D01*
X136334347Y-31698842D01*
X136487215Y-31412847D01*
X136497205Y-31388728D01*
X141899500Y-31388728D01*
X141899500Y-31556271D01*
X141932182Y-31720574D01*
X141932184Y-31720582D01*
X141996295Y-31875360D01*
X142089373Y-32014662D01*
X142207837Y-32133126D01*
X142294894Y-32191295D01*
X142347137Y-32226203D01*
X142347138Y-32226203D01*
X142347139Y-32226204D01*
X142382201Y-32240727D01*
X142501918Y-32290316D01*
X142666228Y-32322999D01*
X142666232Y-32323000D01*
X142666233Y-32323000D01*
X142833768Y-32323000D01*
X142833769Y-32322999D01*
X142998082Y-32290316D01*
X143152863Y-32226203D01*
X143200452Y-32194404D01*
X143267126Y-32173528D01*
X143334506Y-32192012D01*
X143381196Y-32243990D01*
X143392373Y-32312960D01*
X143364488Y-32377024D01*
X143357023Y-32385187D01*
X143339373Y-32402837D01*
X143246295Y-32542139D01*
X143182184Y-32696917D01*
X143182182Y-32696925D01*
X143149500Y-32861228D01*
X143149500Y-33028771D01*
X143182182Y-33193074D01*
X143182184Y-33193082D01*
X143246295Y-33347860D01*
X143339373Y-33487162D01*
X143457837Y-33605626D01*
X143536326Y-33658070D01*
X143597137Y-33698703D01*
X143751918Y-33762816D01*
X143916228Y-33795499D01*
X143916232Y-33795500D01*
X143916233Y-33795500D01*
X144083768Y-33795500D01*
X144083769Y-33795499D01*
X144248082Y-33762816D01*
X144402863Y-33698703D01*
X144542162Y-33605626D01*
X144660626Y-33487162D01*
X144753703Y-33347863D01*
X144817816Y-33193082D01*
X144850500Y-33028767D01*
X144850500Y-32861233D01*
X144817816Y-32696918D01*
X144753703Y-32542137D01*
X144722537Y-32495494D01*
X144660626Y-32402837D01*
X144619017Y-32361228D01*
X153399500Y-32361228D01*
X153399500Y-32528771D01*
X153432182Y-32693074D01*
X153432184Y-32693082D01*
X153496295Y-32847860D01*
X153589373Y-32987162D01*
X153707837Y-33105626D01*
X153800494Y-33167537D01*
X153847137Y-33198703D01*
X154001918Y-33262816D01*
X154166228Y-33295499D01*
X154166232Y-33295500D01*
X154166233Y-33295500D01*
X154333768Y-33295500D01*
X154333769Y-33295499D01*
X154498082Y-33262816D01*
X154652863Y-33198703D01*
X154792162Y-33105626D01*
X154910626Y-32987162D01*
X154994773Y-32861228D01*
X157149500Y-32861228D01*
X157149500Y-33028771D01*
X157182182Y-33193074D01*
X157182184Y-33193082D01*
X157246295Y-33347860D01*
X157342758Y-33492227D01*
X157340449Y-33493769D01*
X157362949Y-33547346D01*
X157350880Y-33616165D01*
X157342829Y-33630094D01*
X157317367Y-33668200D01*
X157317363Y-33668208D01*
X157253252Y-33822985D01*
X157253250Y-33822993D01*
X157220568Y-33987296D01*
X157220568Y-34154839D01*
X157253250Y-34319142D01*
X157253252Y-34319150D01*
X157317363Y-34473928D01*
X157410441Y-34613230D01*
X157528905Y-34731694D01*
X157599572Y-34778912D01*
X157668205Y-34824771D01*
X157668206Y-34824771D01*
X157668207Y-34824772D01*
X157703269Y-34839295D01*
X157822986Y-34888884D01*
X157987296Y-34921567D01*
X157987300Y-34921568D01*
X157987301Y-34921568D01*
X158154836Y-34921568D01*
X158154837Y-34921567D01*
X158319150Y-34888884D01*
X158473931Y-34824771D01*
X158613230Y-34731694D01*
X158731694Y-34613230D01*
X158824771Y-34473931D01*
X158888884Y-34319150D01*
X158921568Y-34154835D01*
X158921568Y-33987301D01*
X158888884Y-33822986D01*
X158853390Y-33737296D01*
X166470568Y-33737296D01*
X166470568Y-33904839D01*
X166503250Y-34069142D01*
X166503252Y-34069150D01*
X166567363Y-34223928D01*
X166660441Y-34363230D01*
X166778905Y-34481694D01*
X166824368Y-34512071D01*
X166918205Y-34574771D01*
X167072986Y-34638884D01*
X167237296Y-34671567D01*
X167237300Y-34671568D01*
X167237301Y-34671568D01*
X167404836Y-34671568D01*
X167404837Y-34671567D01*
X167569150Y-34638884D01*
X167723931Y-34574771D01*
X167863230Y-34481694D01*
X167981694Y-34363230D01*
X168074771Y-34223931D01*
X168138884Y-34069150D01*
X168171568Y-33904835D01*
X168171568Y-33737301D01*
X168138884Y-33572986D01*
X168074771Y-33418205D01*
X168027770Y-33347863D01*
X167981694Y-33278905D01*
X167863230Y-33160441D01*
X167723928Y-33067363D01*
X167569150Y-33003252D01*
X167569142Y-33003250D01*
X167404839Y-32970568D01*
X167404835Y-32970568D01*
X167237301Y-32970568D01*
X167237296Y-32970568D01*
X167072993Y-33003250D01*
X167072985Y-33003252D01*
X166918207Y-33067363D01*
X166778905Y-33160441D01*
X166660441Y-33278905D01*
X166567363Y-33418207D01*
X166503252Y-33572985D01*
X166503250Y-33572993D01*
X166470568Y-33737296D01*
X158853390Y-33737296D01*
X158824771Y-33668205D01*
X158761152Y-33572993D01*
X158728310Y-33523841D01*
X158730773Y-33522194D01*
X158708234Y-33469724D01*
X158719742Y-33400809D01*
X158728235Y-33385977D01*
X158753703Y-33347863D01*
X158817816Y-33193082D01*
X158850500Y-33028767D01*
X158850500Y-32861233D01*
X158817816Y-32696918D01*
X158753703Y-32542137D01*
X158722537Y-32495494D01*
X158660626Y-32402837D01*
X158542162Y-32284373D01*
X158402860Y-32191295D01*
X158248082Y-32127184D01*
X158248074Y-32127182D01*
X158083771Y-32094500D01*
X158083767Y-32094500D01*
X157916233Y-32094500D01*
X157916228Y-32094500D01*
X157751925Y-32127182D01*
X157751917Y-32127184D01*
X157597139Y-32191295D01*
X157457837Y-32284373D01*
X157339373Y-32402837D01*
X157246295Y-32542139D01*
X157182184Y-32696917D01*
X157182182Y-32696925D01*
X157149500Y-32861228D01*
X154994773Y-32861228D01*
X155003703Y-32847863D01*
X155067816Y-32693082D01*
X155100500Y-32528767D01*
X155100500Y-32361233D01*
X155067816Y-32196918D01*
X155003703Y-32042137D01*
X154972537Y-31995494D01*
X154910626Y-31902837D01*
X154792162Y-31784373D01*
X154652860Y-31691295D01*
X154498082Y-31627184D01*
X154498074Y-31627182D01*
X154333771Y-31594500D01*
X154333767Y-31594500D01*
X154166233Y-31594500D01*
X154166228Y-31594500D01*
X154001925Y-31627182D01*
X154001917Y-31627184D01*
X153847139Y-31691295D01*
X153707837Y-31784373D01*
X153589373Y-31902837D01*
X153496295Y-32042139D01*
X153432184Y-32196917D01*
X153432182Y-32196925D01*
X153399500Y-32361228D01*
X144619017Y-32361228D01*
X144542162Y-32284373D01*
X144402860Y-32191295D01*
X144248082Y-32127184D01*
X144248074Y-32127182D01*
X144083771Y-32094500D01*
X144083767Y-32094500D01*
X143916233Y-32094500D01*
X143916228Y-32094500D01*
X143751925Y-32127182D01*
X143751917Y-32127184D01*
X143597138Y-32191296D01*
X143597136Y-32191297D01*
X143549548Y-32223094D01*
X143482871Y-32243971D01*
X143415491Y-32225486D01*
X143368801Y-32173506D01*
X143357626Y-32104536D01*
X143385513Y-32040473D01*
X143392980Y-32032308D01*
X143410626Y-32014662D01*
X143441483Y-31968481D01*
X143503703Y-31875363D01*
X143567816Y-31720582D01*
X143600500Y-31556267D01*
X143600500Y-31409683D01*
X151148234Y-31409683D01*
X151148234Y-31577226D01*
X151180916Y-31741529D01*
X151180918Y-31741537D01*
X151245029Y-31896315D01*
X151338107Y-32035617D01*
X151456571Y-32154081D01*
X151516922Y-32194406D01*
X151595871Y-32247158D01*
X151750652Y-32311271D01*
X151914962Y-32343954D01*
X151914966Y-32343955D01*
X151914967Y-32343955D01*
X152082502Y-32343955D01*
X152082503Y-32343954D01*
X152246816Y-32311271D01*
X152401597Y-32247158D01*
X152540896Y-32154081D01*
X152659360Y-32035617D01*
X152752437Y-31896318D01*
X152816550Y-31741537D01*
X152849234Y-31577222D01*
X152849234Y-31409688D01*
X152816550Y-31245373D01*
X152786492Y-31172809D01*
X152779024Y-31103344D01*
X152797957Y-31056462D01*
X152803703Y-31047863D01*
X152867816Y-30893082D01*
X152900500Y-30728767D01*
X152900500Y-30561233D01*
X152867816Y-30396918D01*
X152803703Y-30242137D01*
X152772537Y-30195494D01*
X152710626Y-30102837D01*
X152592164Y-29984375D01*
X152555860Y-29960118D01*
X152452863Y-29891297D01*
X152452862Y-29891296D01*
X152452860Y-29891295D01*
X152323849Y-29837857D01*
X160199500Y-29837857D01*
X160199500Y-30162143D01*
X160199903Y-30166232D01*
X160231284Y-30484857D01*
X160231287Y-30484874D01*
X160294545Y-30802902D01*
X160294548Y-30802913D01*
X160388686Y-31113247D01*
X160434735Y-31224418D01*
X160511476Y-31409688D01*
X160512786Y-31412849D01*
X160512788Y-31412854D01*
X160665646Y-31698830D01*
X160665657Y-31698848D01*
X160845811Y-31968467D01*
X160845821Y-31968481D01*
X161051546Y-32219158D01*
X161280841Y-32448453D01*
X161280846Y-32448457D01*
X161280847Y-32448458D01*
X161531524Y-32654183D01*
X161801158Y-32834347D01*
X161801167Y-32834352D01*
X161801169Y-32834353D01*
X162087145Y-32987211D01*
X162087147Y-32987211D01*
X162087153Y-32987215D01*
X162386754Y-33111314D01*
X162697077Y-33205449D01*
X162697083Y-33205450D01*
X162697086Y-33205451D01*
X162697097Y-33205454D01*
X162896528Y-33245122D01*
X163015132Y-33268714D01*
X163337857Y-33300500D01*
X163337860Y-33300500D01*
X163662140Y-33300500D01*
X163662143Y-33300500D01*
X163984868Y-33268714D01*
X164142295Y-33237399D01*
X164302902Y-33205454D01*
X164302913Y-33205451D01*
X164302913Y-33205450D01*
X164302923Y-33205449D01*
X164613246Y-33111314D01*
X164912847Y-32987215D01*
X165198842Y-32834347D01*
X165468476Y-32654183D01*
X165719153Y-32448458D01*
X165948458Y-32219153D01*
X166154183Y-31968476D01*
X166334347Y-31698842D01*
X166487215Y-31412847D01*
X166611314Y-31113246D01*
X166705449Y-30802923D01*
X166705451Y-30802913D01*
X166705454Y-30802902D01*
X166753525Y-30561228D01*
X166768714Y-30484868D01*
X166800098Y-30166228D01*
X170399500Y-30166228D01*
X170399500Y-30333771D01*
X170432182Y-30498074D01*
X170432184Y-30498082D01*
X170496295Y-30652860D01*
X170589373Y-30792162D01*
X170707837Y-30910626D01*
X170790176Y-30965643D01*
X170847137Y-31003703D01*
X171001918Y-31067816D01*
X171116422Y-31090592D01*
X171166228Y-31100499D01*
X171166232Y-31100500D01*
X171166233Y-31100500D01*
X171333768Y-31100500D01*
X171333769Y-31100499D01*
X171498082Y-31067816D01*
X171652863Y-31003703D01*
X171792162Y-30910626D01*
X171910626Y-30792162D01*
X172003703Y-30652863D01*
X172067816Y-30498082D01*
X172100500Y-30333767D01*
X172100500Y-30166233D01*
X172067816Y-30001918D01*
X172003703Y-29847137D01*
X171968532Y-29794500D01*
X171910626Y-29707837D01*
X171792162Y-29589373D01*
X171652860Y-29496295D01*
X171498082Y-29432184D01*
X171498074Y-29432182D01*
X171333771Y-29399500D01*
X171333767Y-29399500D01*
X171166233Y-29399500D01*
X171166228Y-29399500D01*
X171001925Y-29432182D01*
X171001917Y-29432184D01*
X170847139Y-29496295D01*
X170707837Y-29589373D01*
X170589373Y-29707837D01*
X170496295Y-29847139D01*
X170432184Y-30001917D01*
X170432182Y-30001925D01*
X170399500Y-30166228D01*
X166800098Y-30166228D01*
X166800500Y-30162143D01*
X166800500Y-29837857D01*
X166768714Y-29515132D01*
X166741812Y-29379888D01*
X166705454Y-29197097D01*
X166705451Y-29197086D01*
X166705450Y-29197083D01*
X166705449Y-29197077D01*
X166611314Y-28886754D01*
X166487215Y-28587153D01*
X166421648Y-28464487D01*
X166334353Y-28301169D01*
X166334352Y-28301167D01*
X166334347Y-28301158D01*
X166154183Y-28031524D01*
X165948458Y-27780847D01*
X165948457Y-27780846D01*
X165948453Y-27780841D01*
X165719158Y-27551546D01*
X165468481Y-27345821D01*
X165468480Y-27345820D01*
X165468476Y-27345817D01*
X165198842Y-27165653D01*
X165198837Y-27165650D01*
X165198830Y-27165646D01*
X164912854Y-27012788D01*
X164912849Y-27012786D01*
X164890923Y-27003704D01*
X164753847Y-26946925D01*
X164613247Y-26888686D01*
X164302913Y-26794548D01*
X164302902Y-26794545D01*
X163984874Y-26731287D01*
X163984857Y-26731284D01*
X163740812Y-26707248D01*
X163662143Y-26699500D01*
X163337857Y-26699500D01*
X163265099Y-26706666D01*
X163015142Y-26731284D01*
X163015125Y-26731287D01*
X162697097Y-26794545D01*
X162697086Y-26794548D01*
X162386752Y-26888686D01*
X162087150Y-27012786D01*
X162087145Y-27012788D01*
X161801169Y-27165646D01*
X161801151Y-27165657D01*
X161531532Y-27345811D01*
X161531518Y-27345821D01*
X161280841Y-27551546D01*
X161051546Y-27780841D01*
X160845821Y-28031518D01*
X160845811Y-28031532D01*
X160665657Y-28301151D01*
X160665646Y-28301169D01*
X160512788Y-28587145D01*
X160512786Y-28587150D01*
X160388686Y-28886752D01*
X160294548Y-29197086D01*
X160294545Y-29197097D01*
X160231287Y-29515125D01*
X160231284Y-29515142D01*
X160213888Y-29691773D01*
X160199500Y-29837857D01*
X152323849Y-29837857D01*
X152298082Y-29827184D01*
X152298074Y-29827182D01*
X152133771Y-29794500D01*
X152133767Y-29794500D01*
X151966233Y-29794500D01*
X151966228Y-29794500D01*
X151801925Y-29827182D01*
X151801917Y-29827184D01*
X151647139Y-29891295D01*
X151507837Y-29984373D01*
X151389373Y-30102837D01*
X151296295Y-30242139D01*
X151232184Y-30396917D01*
X151232182Y-30396925D01*
X151199500Y-30561228D01*
X151199500Y-30728771D01*
X151232182Y-30893074D01*
X151232185Y-30893086D01*
X151262239Y-30965643D01*
X151269708Y-31035112D01*
X151250785Y-31081979D01*
X151245030Y-31090592D01*
X151180918Y-31245372D01*
X151180916Y-31245380D01*
X151148234Y-31409683D01*
X143600500Y-31409683D01*
X143600500Y-31388733D01*
X143567816Y-31224418D01*
X143503703Y-31069637D01*
X143459647Y-31003703D01*
X143410626Y-30930337D01*
X143292162Y-30811873D01*
X143152860Y-30718795D01*
X142998082Y-30654684D01*
X142998074Y-30654682D01*
X142833771Y-30622000D01*
X142833767Y-30622000D01*
X142666233Y-30622000D01*
X142666228Y-30622000D01*
X142501925Y-30654682D01*
X142501917Y-30654684D01*
X142347139Y-30718795D01*
X142207837Y-30811873D01*
X142089373Y-30930337D01*
X141996295Y-31069639D01*
X141932184Y-31224417D01*
X141932182Y-31224425D01*
X141899500Y-31388728D01*
X136497205Y-31388728D01*
X136611314Y-31113246D01*
X136705449Y-30802923D01*
X136705451Y-30802913D01*
X136705454Y-30802902D01*
X136753525Y-30561228D01*
X136768714Y-30484868D01*
X136800500Y-30162143D01*
X136800500Y-29837857D01*
X136768714Y-29515132D01*
X136741812Y-29379888D01*
X136705454Y-29197097D01*
X136705451Y-29197086D01*
X136705450Y-29197083D01*
X136705449Y-29197077D01*
X136611314Y-28886754D01*
X136519969Y-28666228D01*
X141649500Y-28666228D01*
X141649500Y-28833771D01*
X141682182Y-28998074D01*
X141682184Y-28998082D01*
X141746295Y-29152860D01*
X141839373Y-29292162D01*
X141957837Y-29410626D01*
X142050494Y-29472537D01*
X142097137Y-29503703D01*
X142097138Y-29503703D01*
X142097139Y-29503704D01*
X142119140Y-29512817D01*
X142251918Y-29567816D01*
X142416228Y-29600499D01*
X142416232Y-29600500D01*
X142416233Y-29600500D01*
X142583768Y-29600500D01*
X142583769Y-29600499D01*
X142748082Y-29567816D01*
X142902863Y-29503703D01*
X143042162Y-29410626D01*
X143042164Y-29410624D01*
X143046331Y-29407205D01*
X143110639Y-29379888D01*
X143179507Y-29391676D01*
X143203669Y-29407205D01*
X143207835Y-29410624D01*
X143207838Y-29410626D01*
X143347137Y-29503703D01*
X143347138Y-29503703D01*
X143347139Y-29503704D01*
X143369140Y-29512817D01*
X143501918Y-29567816D01*
X143666228Y-29600499D01*
X143666232Y-29600500D01*
X143666233Y-29600500D01*
X143833768Y-29600500D01*
X143833769Y-29600499D01*
X143998082Y-29567816D01*
X144152863Y-29503703D01*
X144292162Y-29410626D01*
X144410626Y-29292162D01*
X144503703Y-29152863D01*
X144567816Y-28998082D01*
X144600500Y-28833767D01*
X144600500Y-28666233D01*
X144567816Y-28501918D01*
X144503703Y-28347137D01*
X144447362Y-28262817D01*
X144410626Y-28207837D01*
X144292162Y-28089373D01*
X144152860Y-27996295D01*
X143998082Y-27932184D01*
X143998074Y-27932182D01*
X143833771Y-27899500D01*
X143833767Y-27899500D01*
X143666233Y-27899500D01*
X143666228Y-27899500D01*
X143501925Y-27932182D01*
X143501917Y-27932184D01*
X143347139Y-27996295D01*
X143207838Y-28089373D01*
X143203663Y-28092800D01*
X143139353Y-28120112D01*
X143070485Y-28108319D01*
X143046337Y-28092800D01*
X143042161Y-28089373D01*
X142902860Y-27996295D01*
X142748082Y-27932184D01*
X142748074Y-27932182D01*
X142583771Y-27899500D01*
X142583767Y-27899500D01*
X142416233Y-27899500D01*
X142416228Y-27899500D01*
X142251925Y-27932182D01*
X142251917Y-27932184D01*
X142097139Y-27996295D01*
X141957837Y-28089373D01*
X141839373Y-28207837D01*
X141746295Y-28347139D01*
X141682184Y-28501917D01*
X141682182Y-28501925D01*
X141649500Y-28666228D01*
X136519969Y-28666228D01*
X136487215Y-28587153D01*
X136421648Y-28464487D01*
X136334353Y-28301169D01*
X136334352Y-28301167D01*
X136334347Y-28301158D01*
X136154183Y-28031524D01*
X135948458Y-27780847D01*
X135948457Y-27780846D01*
X135948453Y-27780841D01*
X135719158Y-27551546D01*
X135468481Y-27345821D01*
X135468480Y-27345820D01*
X135468476Y-27345817D01*
X135198842Y-27165653D01*
X135198837Y-27165650D01*
X135198830Y-27165646D01*
X135058367Y-27090567D01*
X134912854Y-27012788D01*
X134912849Y-27012786D01*
X134890923Y-27003704D01*
X134851311Y-26987296D01*
X136720568Y-26987296D01*
X136720568Y-27154839D01*
X136753250Y-27319142D01*
X136753252Y-27319150D01*
X136817363Y-27473928D01*
X136910441Y-27613230D01*
X137028905Y-27731694D01*
X137102459Y-27780841D01*
X137168205Y-27824771D01*
X137322986Y-27888884D01*
X137487296Y-27921567D01*
X137487300Y-27921568D01*
X137487301Y-27921568D01*
X137654836Y-27921568D01*
X137654837Y-27921567D01*
X137819150Y-27888884D01*
X137973931Y-27824771D01*
X138113230Y-27731694D01*
X138231694Y-27613230D01*
X138324771Y-27473931D01*
X138388884Y-27319150D01*
X138421568Y-27154835D01*
X138421568Y-26987301D01*
X138388884Y-26822986D01*
X138324771Y-26668205D01*
X138257693Y-26567816D01*
X138231694Y-26528905D01*
X138113230Y-26410441D01*
X137973928Y-26317363D01*
X137870934Y-26274702D01*
X137819150Y-26253252D01*
X137819142Y-26253250D01*
X137654839Y-26220568D01*
X137654835Y-26220568D01*
X137487301Y-26220568D01*
X137487296Y-26220568D01*
X137322993Y-26253250D01*
X137322985Y-26253252D01*
X137168207Y-26317363D01*
X137028905Y-26410441D01*
X136910441Y-26528905D01*
X136817363Y-26668207D01*
X136753252Y-26822985D01*
X136753250Y-26822993D01*
X136720568Y-26987296D01*
X134851311Y-26987296D01*
X134753847Y-26946925D01*
X134613247Y-26888686D01*
X134302913Y-26794548D01*
X134302902Y-26794545D01*
X133984874Y-26731287D01*
X133984857Y-26731284D01*
X133740812Y-26707248D01*
X133662143Y-26699500D01*
X133337857Y-26699500D01*
X133265099Y-26706666D01*
X133015142Y-26731284D01*
X133015125Y-26731287D01*
X132697097Y-26794545D01*
X132697086Y-26794548D01*
X132386752Y-26888686D01*
X132087150Y-27012786D01*
X132087145Y-27012788D01*
X131801169Y-27165646D01*
X131801151Y-27165657D01*
X131531532Y-27345811D01*
X131531518Y-27345821D01*
X131280841Y-27551546D01*
X131051546Y-27780841D01*
X130845821Y-28031518D01*
X130845811Y-28031532D01*
X130665657Y-28301151D01*
X130665646Y-28301169D01*
X130512788Y-28587145D01*
X130512786Y-28587150D01*
X130388686Y-28886752D01*
X130294548Y-29197086D01*
X130294545Y-29197097D01*
X130231287Y-29515125D01*
X130231284Y-29515142D01*
X130213888Y-29691773D01*
X130199500Y-29837857D01*
X123705399Y-29837857D01*
X123718265Y-29412046D01*
X123718714Y-29404618D01*
X123771610Y-28822525D01*
X123772513Y-28815095D01*
X123843734Y-28347139D01*
X123860452Y-28237291D01*
X123861802Y-28229927D01*
X123866544Y-28207837D01*
X123984470Y-27658481D01*
X123986258Y-27651227D01*
X124143214Y-27088195D01*
X124145430Y-27081087D01*
X124336090Y-26528573D01*
X124338730Y-26521611D01*
X124562412Y-25981596D01*
X124565465Y-25974812D01*
X124715715Y-25666228D01*
X129649500Y-25666228D01*
X129649500Y-25833771D01*
X129682182Y-25998074D01*
X129682184Y-25998082D01*
X129746295Y-26152860D01*
X129839373Y-26292162D01*
X129957837Y-26410626D01*
X130003737Y-26441295D01*
X130097137Y-26503703D01*
X130251918Y-26567816D01*
X130394329Y-26596143D01*
X130416228Y-26600499D01*
X130416232Y-26600500D01*
X130416233Y-26600500D01*
X130583768Y-26600500D01*
X130583769Y-26600499D01*
X130748082Y-26567816D01*
X130902863Y-26503703D01*
X131042162Y-26410626D01*
X131160626Y-26292162D01*
X131244773Y-26166228D01*
X144649500Y-26166228D01*
X144649500Y-26333771D01*
X144682182Y-26498074D01*
X144682184Y-26498082D01*
X144746295Y-26652860D01*
X144839373Y-26792162D01*
X144957837Y-26910626D01*
X145012163Y-26946925D01*
X145097137Y-27003703D01*
X145251918Y-27067816D01*
X145416228Y-27100499D01*
X145416232Y-27100500D01*
X145416233Y-27100500D01*
X145583768Y-27100500D01*
X145583769Y-27100499D01*
X145748082Y-27067816D01*
X145762370Y-27061897D01*
X145831835Y-27054426D01*
X145894316Y-27085698D01*
X145929971Y-27145785D01*
X145931441Y-27200648D01*
X145899500Y-27361228D01*
X145899500Y-27528771D01*
X145932182Y-27693074D01*
X145932184Y-27693082D01*
X145996295Y-27847860D01*
X146089373Y-27987162D01*
X146207837Y-28105626D01*
X146269444Y-28146790D01*
X146347137Y-28198703D01*
X146347138Y-28198703D01*
X146347139Y-28198704D01*
X146376585Y-28210901D01*
X146501918Y-28262816D01*
X146649321Y-28292136D01*
X146666228Y-28295499D01*
X146666232Y-28295500D01*
X146666233Y-28295500D01*
X146833768Y-28295500D01*
X146833769Y-28295499D01*
X146998082Y-28262816D01*
X147152863Y-28198703D01*
X147196350Y-28169645D01*
X147263022Y-28148768D01*
X147312689Y-28158186D01*
X147439954Y-28210902D01*
X147572642Y-28237295D01*
X147604264Y-28243585D01*
X147604268Y-28243586D01*
X147604269Y-28243586D01*
X147771804Y-28243586D01*
X147771805Y-28243585D01*
X147936118Y-28210902D01*
X148090899Y-28146789D01*
X148230198Y-28053712D01*
X148348662Y-27935248D01*
X148441739Y-27795949D01*
X148505852Y-27641168D01*
X148538536Y-27476853D01*
X148538536Y-27309319D01*
X148507808Y-27154836D01*
X148505853Y-27145008D01*
X148505852Y-27145005D01*
X148491861Y-27111228D01*
X155399500Y-27111228D01*
X155399500Y-27278771D01*
X155432182Y-27443074D01*
X155432184Y-27443082D01*
X155496295Y-27597860D01*
X155589373Y-27737162D01*
X155707837Y-27855626D01*
X155757613Y-27888885D01*
X155847137Y-27948703D01*
X156001918Y-28012816D01*
X156113647Y-28035040D01*
X156166228Y-28045499D01*
X156166232Y-28045500D01*
X156166233Y-28045500D01*
X156333768Y-28045500D01*
X156333768Y-28045499D01*
X156417658Y-28028813D01*
X156487247Y-28035040D01*
X156542425Y-28077902D01*
X156565670Y-28143792D01*
X156549603Y-28211789D01*
X156544951Y-28219319D01*
X156496297Y-28292136D01*
X156496296Y-28292138D01*
X156432184Y-28446917D01*
X156432182Y-28446925D01*
X156399500Y-28611228D01*
X156399500Y-28778771D01*
X156432182Y-28943074D01*
X156432184Y-28943082D01*
X156496295Y-29097860D01*
X156589373Y-29237162D01*
X156707837Y-29355626D01*
X156744148Y-29379888D01*
X156847137Y-29448703D01*
X157001918Y-29512816D01*
X157166228Y-29545499D01*
X157166232Y-29545500D01*
X157166233Y-29545500D01*
X157333768Y-29545500D01*
X157333769Y-29545499D01*
X157498082Y-29512816D01*
X157652863Y-29448703D01*
X157792162Y-29355626D01*
X157910626Y-29237162D01*
X158003703Y-29097863D01*
X158067816Y-28943082D01*
X158100500Y-28778767D01*
X158100500Y-28611233D01*
X158067816Y-28446918D01*
X158003703Y-28292137D01*
X157962136Y-28229928D01*
X157910626Y-28152837D01*
X157792162Y-28034373D01*
X157652860Y-27941295D01*
X157498082Y-27877184D01*
X157498074Y-27877182D01*
X157333771Y-27844500D01*
X157333767Y-27844500D01*
X157166233Y-27844500D01*
X157166228Y-27844500D01*
X157082342Y-27861186D01*
X157012750Y-27854959D01*
X156957573Y-27812095D01*
X156934329Y-27746205D01*
X156950397Y-27678209D01*
X156955049Y-27670678D01*
X156963187Y-27658499D01*
X157003703Y-27597863D01*
X157067816Y-27443082D01*
X157100500Y-27278767D01*
X157100500Y-27111233D01*
X157090687Y-27061898D01*
X157079449Y-27005400D01*
X157075848Y-26987296D01*
X158720568Y-26987296D01*
X158720568Y-27154839D01*
X158753250Y-27319142D01*
X158753252Y-27319150D01*
X158817363Y-27473928D01*
X158910441Y-27613230D01*
X159028905Y-27731694D01*
X159102459Y-27780841D01*
X159168205Y-27824771D01*
X159322986Y-27888884D01*
X159487296Y-27921567D01*
X159487300Y-27921568D01*
X159487301Y-27921568D01*
X159654836Y-27921568D01*
X159654837Y-27921567D01*
X159819150Y-27888884D01*
X159973931Y-27824771D01*
X160113230Y-27731694D01*
X160231694Y-27613230D01*
X160324771Y-27473931D01*
X160388884Y-27319150D01*
X160421568Y-27154835D01*
X160421568Y-26987301D01*
X160388884Y-26822986D01*
X160324771Y-26668205D01*
X160257693Y-26567816D01*
X160231694Y-26528905D01*
X160113230Y-26410441D01*
X159973928Y-26317363D01*
X159819150Y-26253252D01*
X159819142Y-26253250D01*
X159654839Y-26220568D01*
X159654835Y-26220568D01*
X159487301Y-26220568D01*
X159487296Y-26220568D01*
X159322993Y-26253250D01*
X159322985Y-26253252D01*
X159168207Y-26317363D01*
X159028905Y-26410441D01*
X158910441Y-26528905D01*
X158817363Y-26668207D01*
X158753252Y-26822985D01*
X158753250Y-26822993D01*
X158720568Y-26987296D01*
X157075848Y-26987296D01*
X157067817Y-26946925D01*
X157067816Y-26946918D01*
X157004702Y-26794548D01*
X157003704Y-26792139D01*
X157002485Y-26790315D01*
X156963044Y-26731287D01*
X156910626Y-26652837D01*
X156792162Y-26534373D01*
X156652860Y-26441295D01*
X156498082Y-26377184D01*
X156498074Y-26377182D01*
X156333771Y-26344500D01*
X156333767Y-26344500D01*
X156166233Y-26344500D01*
X156166228Y-26344500D01*
X156001925Y-26377182D01*
X156001917Y-26377184D01*
X155847139Y-26441295D01*
X155707837Y-26534373D01*
X155589373Y-26652837D01*
X155496295Y-26792139D01*
X155432184Y-26946917D01*
X155432182Y-26946925D01*
X155399500Y-27111228D01*
X148491861Y-27111228D01*
X148487417Y-27100500D01*
X148441739Y-26990223D01*
X148373894Y-26888686D01*
X148348662Y-26850923D01*
X148230201Y-26732462D01*
X148230193Y-26732456D01*
X148106422Y-26649755D01*
X148061616Y-26596143D01*
X148052909Y-26526818D01*
X148072211Y-26477761D01*
X148074771Y-26473931D01*
X148138884Y-26319150D01*
X148171568Y-26154835D01*
X148171568Y-25987301D01*
X148151961Y-25888728D01*
X151649500Y-25888728D01*
X151649500Y-26056271D01*
X151682182Y-26220574D01*
X151682184Y-26220582D01*
X151746295Y-26375360D01*
X151839373Y-26514662D01*
X151957837Y-26633126D01*
X152044897Y-26691297D01*
X152097137Y-26726203D01*
X152097138Y-26726203D01*
X152097139Y-26726204D01*
X152112247Y-26732462D01*
X152251918Y-26790316D01*
X152416158Y-26822985D01*
X152416228Y-26822999D01*
X152416232Y-26823000D01*
X152416233Y-26823000D01*
X152583768Y-26823000D01*
X152583769Y-26822999D01*
X152748082Y-26790316D01*
X152902863Y-26726203D01*
X153042162Y-26633126D01*
X153160626Y-26514662D01*
X153253703Y-26375363D01*
X153317816Y-26220582D01*
X153350500Y-26056267D01*
X153350500Y-25888733D01*
X153317816Y-25724418D01*
X153253703Y-25569637D01*
X153208459Y-25501925D01*
X153160626Y-25430337D01*
X153042162Y-25311873D01*
X152902860Y-25218795D01*
X152748082Y-25154684D01*
X152748074Y-25154682D01*
X152583771Y-25122000D01*
X152583767Y-25122000D01*
X152416233Y-25122000D01*
X152416228Y-25122000D01*
X152251925Y-25154682D01*
X152251917Y-25154684D01*
X152097139Y-25218795D01*
X151957837Y-25311873D01*
X151839373Y-25430337D01*
X151746295Y-25569639D01*
X151682184Y-25724417D01*
X151682182Y-25724425D01*
X151649500Y-25888728D01*
X148151961Y-25888728D01*
X148138884Y-25822986D01*
X148074771Y-25668205D01*
X147984105Y-25532514D01*
X147981694Y-25528905D01*
X147863230Y-25410441D01*
X147723928Y-25317363D01*
X147569150Y-25253252D01*
X147569142Y-25253250D01*
X147404839Y-25220568D01*
X147404835Y-25220568D01*
X147237301Y-25220568D01*
X147237296Y-25220568D01*
X147072993Y-25253250D01*
X147072985Y-25253252D01*
X146918207Y-25317363D01*
X146778905Y-25410441D01*
X146660441Y-25528905D01*
X146567363Y-25668207D01*
X146503252Y-25822985D01*
X146503250Y-25822990D01*
X146498794Y-25845395D01*
X146466408Y-25907306D01*
X146405692Y-25941879D01*
X146335922Y-25938138D01*
X146279251Y-25897271D01*
X146262616Y-25868654D01*
X146253705Y-25847141D01*
X146253704Y-25847139D01*
X146160626Y-25707837D01*
X146042162Y-25589373D01*
X145902860Y-25496295D01*
X145748082Y-25432184D01*
X145748074Y-25432182D01*
X145583771Y-25399500D01*
X145583767Y-25399500D01*
X145416233Y-25399500D01*
X145416228Y-25399500D01*
X145251925Y-25432182D01*
X145251917Y-25432184D01*
X145097139Y-25496295D01*
X144957837Y-25589373D01*
X144839373Y-25707837D01*
X144746295Y-25847139D01*
X144682184Y-26001917D01*
X144682182Y-26001925D01*
X144649500Y-26166228D01*
X131244773Y-26166228D01*
X131253703Y-26152863D01*
X131317816Y-25998082D01*
X131350500Y-25833767D01*
X131350500Y-25666233D01*
X131317816Y-25501918D01*
X131253703Y-25347137D01*
X131190971Y-25253252D01*
X131160626Y-25207837D01*
X131042162Y-25089373D01*
X130902860Y-24996295D01*
X130748082Y-24932184D01*
X130748074Y-24932182D01*
X130583771Y-24899500D01*
X130583767Y-24899500D01*
X130416233Y-24899500D01*
X130416228Y-24899500D01*
X130251925Y-24932182D01*
X130251917Y-24932184D01*
X130097139Y-24996295D01*
X129957837Y-25089373D01*
X129839373Y-25207837D01*
X129746295Y-25347139D01*
X129682184Y-25501917D01*
X129682182Y-25501925D01*
X129649500Y-25666228D01*
X124715715Y-25666228D01*
X124821341Y-25449293D01*
X124824799Y-25442705D01*
X125111935Y-24933599D01*
X125115800Y-24927208D01*
X125293179Y-24652860D01*
X125433149Y-24436371D01*
X125437365Y-24430262D01*
X125763305Y-23987296D01*
X139720568Y-23987296D01*
X139720568Y-24154839D01*
X139753250Y-24319142D01*
X139753252Y-24319150D01*
X139817363Y-24473928D01*
X139910441Y-24613230D01*
X140028905Y-24731694D01*
X140119402Y-24792162D01*
X140168205Y-24824771D01*
X140322986Y-24888884D01*
X140487296Y-24921567D01*
X140487300Y-24921568D01*
X140487301Y-24921568D01*
X140654836Y-24921568D01*
X140654837Y-24921567D01*
X140819150Y-24888884D01*
X140973931Y-24824771D01*
X141113230Y-24731694D01*
X141231694Y-24613230D01*
X141324771Y-24473931D01*
X141388884Y-24319150D01*
X141421568Y-24154835D01*
X141421568Y-23987301D01*
X141421567Y-23987296D01*
X155720568Y-23987296D01*
X155720568Y-24154839D01*
X155753250Y-24319142D01*
X155753252Y-24319150D01*
X155817363Y-24473928D01*
X155910441Y-24613230D01*
X156028905Y-24731694D01*
X156119402Y-24792162D01*
X156168205Y-24824771D01*
X156322986Y-24888884D01*
X156487296Y-24921567D01*
X156487300Y-24921568D01*
X156487301Y-24921568D01*
X156654836Y-24921568D01*
X156654837Y-24921567D01*
X156819150Y-24888884D01*
X156973931Y-24824771D01*
X157113230Y-24731694D01*
X157231694Y-24613230D01*
X157324771Y-24473931D01*
X157388884Y-24319150D01*
X157419302Y-24166228D01*
X168899500Y-24166228D01*
X168899500Y-24333771D01*
X168932182Y-24498074D01*
X168932184Y-24498082D01*
X168996295Y-24652860D01*
X169089373Y-24792162D01*
X169207837Y-24910626D01*
X169242240Y-24933613D01*
X169347137Y-25003703D01*
X169501918Y-25067816D01*
X169666228Y-25100499D01*
X169666232Y-25100500D01*
X169666233Y-25100500D01*
X169833768Y-25100500D01*
X169833769Y-25100499D01*
X169998082Y-25067816D01*
X170152863Y-25003703D01*
X170292162Y-24910626D01*
X170410626Y-24792162D01*
X170503703Y-24652863D01*
X170567816Y-24498082D01*
X170600500Y-24333767D01*
X170600500Y-24166233D01*
X170567816Y-24001918D01*
X170503703Y-23847137D01*
X170472537Y-23800494D01*
X170410626Y-23707837D01*
X170292162Y-23589373D01*
X170152860Y-23496295D01*
X169998082Y-23432184D01*
X169998074Y-23432182D01*
X169833771Y-23399500D01*
X169833767Y-23399500D01*
X169666233Y-23399500D01*
X169666228Y-23399500D01*
X169501925Y-23432182D01*
X169501917Y-23432184D01*
X169347139Y-23496295D01*
X169207837Y-23589373D01*
X169089373Y-23707837D01*
X168996295Y-23847139D01*
X168932184Y-24001917D01*
X168932182Y-24001925D01*
X168899500Y-24166228D01*
X157419302Y-24166228D01*
X157421568Y-24154835D01*
X157421568Y-23987301D01*
X157388884Y-23822986D01*
X157324771Y-23668205D01*
X157272097Y-23589373D01*
X157231694Y-23528905D01*
X157113230Y-23410441D01*
X156973928Y-23317363D01*
X156819150Y-23253252D01*
X156819142Y-23253250D01*
X156654839Y-23220568D01*
X156654835Y-23220568D01*
X156487301Y-23220568D01*
X156487296Y-23220568D01*
X156322993Y-23253250D01*
X156322985Y-23253252D01*
X156168207Y-23317363D01*
X156028905Y-23410441D01*
X155910441Y-23528905D01*
X155817363Y-23668207D01*
X155753252Y-23822985D01*
X155753250Y-23822993D01*
X155720568Y-23987296D01*
X141421567Y-23987296D01*
X141388884Y-23822986D01*
X141324771Y-23668205D01*
X141272097Y-23589373D01*
X141231694Y-23528905D01*
X141113230Y-23410441D01*
X140973928Y-23317363D01*
X140819150Y-23253252D01*
X140819142Y-23253250D01*
X140654839Y-23220568D01*
X140654835Y-23220568D01*
X140487301Y-23220568D01*
X140487296Y-23220568D01*
X140322993Y-23253250D01*
X140322985Y-23253252D01*
X140168207Y-23317363D01*
X140028905Y-23410441D01*
X139910441Y-23528905D01*
X139817363Y-23668207D01*
X139753252Y-23822985D01*
X139753250Y-23822993D01*
X139720568Y-23987296D01*
X125763305Y-23987296D01*
X125783794Y-23959451D01*
X125788382Y-23953595D01*
X126162582Y-23504590D01*
X126167533Y-23499003D01*
X126230433Y-23432184D01*
X126568138Y-23073433D01*
X126573434Y-23068138D01*
X126999003Y-22667533D01*
X127004590Y-22662582D01*
X127453611Y-22288369D01*
X127459451Y-22283794D01*
X127930262Y-21937365D01*
X127936371Y-21933149D01*
X128255286Y-21726954D01*
X128427208Y-21615800D01*
X128433604Y-21611933D01*
X128942705Y-21324799D01*
X128949293Y-21321341D01*
X129474812Y-21065465D01*
X129481596Y-21062412D01*
X130021611Y-20838730D01*
X130028573Y-20836090D01*
X130581087Y-20645430D01*
X130588195Y-20643214D01*
X131151243Y-20486253D01*
X131158481Y-20484470D01*
X131729936Y-20361800D01*
X131737291Y-20360452D01*
X132315096Y-20272512D01*
X132322525Y-20271610D01*
X132904618Y-20218714D01*
X132912046Y-20218265D01*
X133498114Y-20200557D01*
X133501859Y-20200500D01*
X133539882Y-20200500D01*
X136939485Y-20200500D01*
X137006524Y-20220185D01*
G37*
%TD.AperFunction*%
%TD*%
M02*
