%TF.GenerationSoftware,KiCad,Pcbnew,10.0.0*%
%TF.CreationDate,2026-07-13T15:55:05-05:00*%
%TF.ProjectId,no_fly_zone,6e6f5f66-6c79-45f7-9a6f-6e652e6b6963,rev?*%
%TF.SameCoordinates,Original*%
%TF.FileFunction,Paste,Top*%
%TF.FilePolarity,Positive*%
%FSLAX46Y46*%
G04 Gerber Fmt 4.6, Leading zero omitted, Abs format (unit mm)*
G04 Created by KiCad (PCBNEW 10.0.0) date 2026-07-13 15:55:05*
%MOMM*%
%LPD*%
G01*
G04 APERTURE LIST*
G04 Aperture macros list*
%AMRoundRect*
0 Rectangle with rounded corners*
0 $1 Rounding radius*
0 $2 $3 $4 $5 $6 $7 $8 $9 X,Y pos of 4 corners*
0 Add a 4 corners polygon primitive as box body*
4,1,4,$2,$3,$4,$5,$6,$7,$8,$9,$2,$3,0*
0 Add four circle primitives for the rounded corners*
1,1,$1+$1,$2,$3*
1,1,$1+$1,$4,$5*
1,1,$1+$1,$6,$7*
1,1,$1+$1,$8,$9*
0 Add four rect primitives between the rounded corners*
20,1,$1+$1,$2,$3,$4,$5,0*
20,1,$1+$1,$4,$5,$6,$7,0*
20,1,$1+$1,$6,$7,$8,$9,0*
20,1,$1+$1,$8,$9,$2,$3,0*%
G04 Aperture macros list end*
%ADD10RoundRect,0.250000X-0.262500X-0.450000X0.262500X-0.450000X0.262500X0.450000X-0.262500X0.450000X0*%
%ADD11RoundRect,0.250000X0.450000X-0.262500X0.450000X0.262500X-0.450000X0.262500X-0.450000X-0.262500X0*%
%ADD12RoundRect,0.243750X-0.243750X-0.456250X0.243750X-0.456250X0.243750X0.456250X-0.243750X0.456250X0*%
%ADD13RoundRect,0.250000X0.262500X0.450000X-0.262500X0.450000X-0.262500X-0.450000X0.262500X-0.450000X0*%
%ADD14RoundRect,0.250000X-0.475000X0.250000X-0.475000X-0.250000X0.475000X-0.250000X0.475000X0.250000X0*%
%ADD15R,0.800000X1.000000*%
%ADD16R,1.500000X0.700000*%
%ADD17RoundRect,0.250000X-0.250000X-0.475000X0.250000X-0.475000X0.250000X0.475000X-0.250000X0.475000X0*%
%ADD18RoundRect,0.243750X0.243750X0.456250X-0.243750X0.456250X-0.243750X-0.456250X0.243750X-0.456250X0*%
%ADD19RoundRect,0.135000X0.135000X0.185000X-0.135000X0.185000X-0.135000X-0.185000X0.135000X-0.185000X0*%
%ADD20RoundRect,0.250000X0.250000X0.475000X-0.250000X0.475000X-0.250000X-0.475000X0.250000X-0.475000X0*%
%ADD21RoundRect,0.075000X-0.700000X-0.075000X0.700000X-0.075000X0.700000X0.075000X-0.700000X0.075000X0*%
%ADD22RoundRect,0.075000X-0.075000X-0.700000X0.075000X-0.700000X0.075000X0.700000X-0.075000X0.700000X0*%
%ADD23RoundRect,0.140000X-0.170000X0.140000X-0.170000X-0.140000X0.170000X-0.140000X0.170000X0.140000X0*%
%ADD24RoundRect,0.250000X0.475000X-0.250000X0.475000X0.250000X-0.475000X0.250000X-0.475000X-0.250000X0*%
%ADD25R,0.550000X0.250000*%
%ADD26RoundRect,0.135000X-0.185000X0.135000X-0.185000X-0.135000X0.185000X-0.135000X0.185000X0.135000X0*%
%ADD27RoundRect,0.140000X-0.140000X-0.170000X0.140000X-0.170000X0.140000X0.170000X-0.140000X0.170000X0*%
%ADD28RoundRect,0.250000X0.255000X-0.255000X0.255000X0.255000X-0.255000X0.255000X-0.255000X-0.255000X0*%
%ADD29RoundRect,0.062500X0.062500X-0.350000X0.062500X0.350000X-0.062500X0.350000X-0.062500X-0.350000X0*%
%ADD30RoundRect,0.062500X0.350000X-0.062500X0.350000X0.062500X-0.350000X0.062500X-0.350000X-0.062500X0*%
%ADD31RoundRect,0.140000X0.170000X-0.140000X0.170000X0.140000X-0.170000X0.140000X-0.170000X-0.140000X0*%
%ADD32RoundRect,0.100000X0.175000X0.100000X-0.175000X0.100000X-0.175000X-0.100000X0.175000X-0.100000X0*%
%ADD33RoundRect,0.100000X0.100000X0.175000X-0.100000X0.175000X-0.100000X-0.175000X0.100000X-0.175000X0*%
%ADD34R,1.200000X1.400000*%
%ADD35R,2.400000X1.900000*%
%ADD36RoundRect,0.100000X0.100000X-0.125000X0.100000X0.125000X-0.100000X0.125000X-0.100000X-0.125000X0*%
%ADD37RoundRect,0.150000X-0.625000X0.150000X-0.625000X-0.150000X0.625000X-0.150000X0.625000X0.150000X0*%
%ADD38RoundRect,0.250000X-0.650000X0.350000X-0.650000X-0.350000X0.650000X-0.350000X0.650000X0.350000X0*%
%ADD39R,0.250000X0.900000*%
%ADD40R,0.900000X0.250000*%
%ADD41R,0.500000X2.300000*%
%ADD42R,2.000000X2.500000*%
%ADD43R,1.600000X1.400000*%
%ADD44R,1.500000X3.500000*%
%ADD45RoundRect,0.140000X0.140000X0.170000X-0.140000X0.170000X-0.140000X-0.170000X0.140000X-0.170000X0*%
G04 APERTURE END LIST*
D10*
%TO.C,R12*%
X133750000Y-107500000D03*
X135575000Y-107500000D03*
%TD*%
D11*
%TO.C,R1*%
X169095000Y-102912500D03*
X169095000Y-101087500D03*
%TD*%
D12*
%TO.C,D2*%
X169625000Y-81500000D03*
X171500000Y-81500000D03*
%TD*%
%TO.C,D3*%
X169625000Y-117500000D03*
X171500000Y-117500000D03*
%TD*%
D13*
%TO.C,R4*%
X165662500Y-107000000D03*
X163837500Y-107000000D03*
%TD*%
D14*
%TO.C,C9*%
X149500000Y-109800000D03*
X149500000Y-111700000D03*
%TD*%
D15*
%TO.C,SW3*%
X127610000Y-88900000D03*
X125400000Y-88900000D03*
X127610000Y-96200000D03*
X125400000Y-96200000D03*
D16*
X128260000Y-90300000D03*
X128260000Y-93300000D03*
X128260000Y-94800000D03*
%TD*%
D17*
%TO.C,C14*%
X161250000Y-94600000D03*
X163150000Y-94600000D03*
%TD*%
D18*
%TO.C,D4*%
X165687500Y-121000000D03*
X163812500Y-121000000D03*
%TD*%
D19*
%TO.C,R10*%
X147260000Y-82250000D03*
X146240000Y-82250000D03*
%TD*%
D14*
%TO.C,C6*%
X156500000Y-92350000D03*
X156500000Y-94250000D03*
%TD*%
D20*
%TO.C,C15*%
X161052500Y-106475000D03*
X159152500Y-106475000D03*
%TD*%
D14*
%TO.C,C5*%
X151750000Y-104050000D03*
X151750000Y-105950000D03*
%TD*%
D21*
%TO.C,U1*%
X140575000Y-94000000D03*
X140575000Y-94500000D03*
X140575000Y-95000000D03*
X140575000Y-95500000D03*
X140575000Y-96000000D03*
X140575000Y-96500000D03*
X140575000Y-97000000D03*
X140575000Y-97500000D03*
X140575000Y-98000000D03*
X140575000Y-98500000D03*
X140575000Y-99000000D03*
X140575000Y-99500000D03*
X140575000Y-100000000D03*
X140575000Y-100500000D03*
X140575000Y-101000000D03*
X140575000Y-101500000D03*
D22*
X142500000Y-103425000D03*
X143000000Y-103425000D03*
X143500000Y-103425000D03*
X144000000Y-103425000D03*
X144500000Y-103425000D03*
X145000000Y-103425000D03*
X145500000Y-103425000D03*
X146000000Y-103425000D03*
X146500000Y-103425000D03*
X147000000Y-103425000D03*
X147500000Y-103425000D03*
X148000000Y-103425000D03*
X148500000Y-103425000D03*
X149000000Y-103425000D03*
X149500000Y-103425000D03*
X150000000Y-103425000D03*
D21*
X151925000Y-101500000D03*
X151925000Y-101000000D03*
X151925000Y-100500000D03*
X151925000Y-100000000D03*
X151925000Y-99500000D03*
X151925000Y-99000000D03*
X151925000Y-98500000D03*
X151925000Y-98000000D03*
X151925000Y-97500000D03*
X151925000Y-97000000D03*
X151925000Y-96500000D03*
X151925000Y-96000000D03*
X151925000Y-95500000D03*
X151925000Y-95000000D03*
X151925000Y-94500000D03*
X151925000Y-94000000D03*
D22*
X150000000Y-92075000D03*
X149500000Y-92075000D03*
X149000000Y-92075000D03*
X148500000Y-92075000D03*
X148000000Y-92075000D03*
X147500000Y-92075000D03*
X147000000Y-92075000D03*
X146500000Y-92075000D03*
X146000000Y-92075000D03*
X145500000Y-92075000D03*
X145000000Y-92075000D03*
X144500000Y-92075000D03*
X144000000Y-92075000D03*
X143500000Y-92075000D03*
X143000000Y-92075000D03*
X142500000Y-92075000D03*
%TD*%
D23*
%TO.C,C24*%
X146750000Y-85540000D03*
X146750000Y-86500000D03*
%TD*%
D13*
%TO.C,FB1*%
X143825000Y-84000000D03*
X142000000Y-84000000D03*
%TD*%
D17*
%TO.C,C12*%
X147850000Y-105750000D03*
X149750000Y-105750000D03*
%TD*%
D20*
%TO.C,C1*%
X143200000Y-105750000D03*
X141300000Y-105750000D03*
%TD*%
D24*
%TO.C,C13*%
X162950000Y-98650000D03*
X162950000Y-96750000D03*
%TD*%
D15*
%TO.C,SW2*%
X171890000Y-107400000D03*
X174100000Y-107400000D03*
X171890000Y-100100000D03*
X174100000Y-100100000D03*
D16*
X171240000Y-106000000D03*
X171240000Y-103000000D03*
X171240000Y-101500000D03*
%TD*%
D25*
%TO.C,FL1*%
X150150000Y-79750000D03*
X150150000Y-80250000D03*
X150150000Y-80750000D03*
X151000000Y-80750000D03*
X151000000Y-80250000D03*
X151000000Y-79750000D03*
%TD*%
D10*
%TO.C,R3*%
X163837500Y-91000000D03*
X165662500Y-91000000D03*
%TD*%
D26*
%TO.C,R11*%
X153750000Y-82490000D03*
X153750000Y-83510000D03*
%TD*%
D27*
%TO.C,C26*%
X155070000Y-80750000D03*
X156030000Y-80750000D03*
%TD*%
D17*
%TO.C,C3*%
X142350000Y-89750000D03*
X144250000Y-89750000D03*
%TD*%
D14*
%TO.C,C2*%
X154250000Y-92350000D03*
X154250000Y-94250000D03*
%TD*%
D28*
%TO.C,U7*%
X149625000Y-84812500D03*
X150875000Y-84812500D03*
X149625000Y-83562500D03*
X150875000Y-83562500D03*
D29*
X149250000Y-86125000D03*
X149750000Y-86125000D03*
X150250000Y-86125000D03*
X150750000Y-86125000D03*
X151250000Y-86125000D03*
D30*
X152187500Y-85187500D03*
X152187500Y-84687500D03*
X152187500Y-84187500D03*
X152187500Y-83687500D03*
X152187500Y-83187500D03*
D29*
X151250000Y-82250000D03*
X150750000Y-82250000D03*
X150250000Y-82250000D03*
X149750000Y-82250000D03*
X149250000Y-82250000D03*
D30*
X148312500Y-83187500D03*
X148312500Y-83687500D03*
X148312500Y-84187500D03*
X148312500Y-84687500D03*
X148312500Y-85187500D03*
%TD*%
D20*
%TO.C,C10*%
X134250000Y-93250000D03*
X132350000Y-93250000D03*
%TD*%
D24*
%TO.C,C4*%
X140250000Y-91450000D03*
X140250000Y-89550000D03*
%TD*%
D27*
%TO.C,C23*%
X152250000Y-80500000D03*
X153210000Y-80500000D03*
%TD*%
D20*
%TO.C,C11*%
X134250000Y-97750000D03*
X132350000Y-97750000D03*
%TD*%
D31*
%TO.C,C21*%
X145500000Y-84460000D03*
X145500000Y-83500000D03*
%TD*%
D10*
%TO.C,R2*%
X163837500Y-88750000D03*
X165662500Y-88750000D03*
%TD*%
D24*
%TO.C,C8*%
X134500000Y-101700000D03*
X134500000Y-99800000D03*
%TD*%
D32*
%TO.C,U3*%
X161000000Y-104100000D03*
X161000000Y-103500000D03*
D33*
X160675000Y-102875000D03*
X160075000Y-102875000D03*
X159475000Y-102875000D03*
D32*
X159150000Y-103500000D03*
X159150000Y-104100000D03*
D33*
X159475000Y-104725000D03*
X160075000Y-104725000D03*
X160675000Y-104725000D03*
%TD*%
D34*
%TO.C,Y2*%
X157100000Y-84500000D03*
X157100000Y-82300000D03*
X155500000Y-82300000D03*
X155500000Y-84500000D03*
%TD*%
D35*
%TO.C,Y1*%
X137000000Y-93450000D03*
X137000000Y-97550000D03*
%TD*%
D31*
%TO.C,C22*%
X146750000Y-84460000D03*
X146750000Y-83500000D03*
%TD*%
D24*
%TO.C,C7*%
X136750000Y-101700000D03*
X136750000Y-99800000D03*
%TD*%
D36*
%TO.C,U6*%
X155000000Y-107150000D03*
X155800000Y-107150000D03*
X155400000Y-106000000D03*
%TD*%
D37*
%TO.C,J1*%
X129750000Y-100500000D03*
X129750000Y-101500000D03*
X129750000Y-102500000D03*
X129750000Y-103500000D03*
X129750000Y-104500000D03*
X129750000Y-105500000D03*
X129750000Y-106500000D03*
X129750000Y-107500000D03*
D38*
X125875000Y-99200000D03*
X125875000Y-108800000D03*
%TD*%
D12*
%TO.C,D1*%
X163812500Y-77000000D03*
X165687500Y-77000000D03*
%TD*%
D39*
%TO.C,U2*%
X159200000Y-99100000D03*
X159700000Y-99100000D03*
X160200000Y-99100000D03*
X160700000Y-99100000D03*
D40*
X161050000Y-98250000D03*
X161050000Y-97750000D03*
X161050000Y-97250000D03*
D39*
X160700000Y-96400000D03*
X160200000Y-96400000D03*
X159700000Y-96400000D03*
X159200000Y-96400000D03*
D40*
X158850000Y-97250000D03*
X158850000Y-97750000D03*
X158850000Y-98250000D03*
%TD*%
D13*
%TO.C,R6*%
X165662500Y-109250000D03*
X163837500Y-109250000D03*
%TD*%
D41*
%TO.C,J3*%
X153100000Y-115900000D03*
X153900000Y-115900000D03*
X154700000Y-115900000D03*
X155500000Y-115900000D03*
X156300000Y-115900000D03*
D42*
X150250000Y-116000000D03*
X150250000Y-121500000D03*
X159150000Y-116000000D03*
X159150000Y-121500000D03*
%TD*%
D43*
%TO.C,SW1*%
X159100000Y-112250000D03*
X151900000Y-112250000D03*
X159100000Y-109250000D03*
X151900000Y-109250000D03*
%TD*%
D44*
%TO.C,J4*%
X150150000Y-75950000D03*
X152850000Y-75950000D03*
X147450000Y-75950000D03*
%TD*%
D45*
%TO.C,C25*%
X157520000Y-86080000D03*
X156560000Y-86080000D03*
%TD*%
M02*
