%TF.GenerationSoftware,KiCad,Pcbnew,10.0.0*%
%TF.CreationDate,2026-07-13T15:55:05-05:00*%
%TF.ProjectId,no_fly_zone,6e6f5f66-6c79-45f7-9a6f-6e652e6b6963,rev?*%
%TF.SameCoordinates,Original*%
%TF.FileFunction,Soldermask,Bot*%
%TF.FilePolarity,Negative*%
%FSLAX46Y46*%
G04 Gerber Fmt 4.6, Leading zero omitted, Abs format (unit mm)*
G04 Created by KiCad (PCBNEW 10.0.0) date 2026-07-13 15:55:05*
%MOMM*%
%LPD*%
G01*
G04 APERTURE LIST*
G04 Aperture macros list*
%AMRoundRect*
0 Rectangle with rounded corners*
0 $1 Rounding radius*
0 $2 $3 $4 $5 $6 $7 $8 $9 X,Y pos of 4 corners*
0 Add a 4 corners polygon primitive as box body*
4,1,4,$2,$3,$4,$5,$6,$7,$8,$9,$2,$3,0*
0 Add four circle primitives for the rounded corners*
1,1,$1+$1,$2,$3*
1,1,$1+$1,$4,$5*
1,1,$1+$1,$6,$7*
1,1,$1+$1,$8,$9*
0 Add four rect primitives between the rounded corners*
20,1,$1+$1,$2,$3,$4,$5,0*
20,1,$1+$1,$4,$5,$6,$7,0*
20,1,$1+$1,$6,$7,$8,$9,0*
20,1,$1+$1,$8,$9,$2,$3,0*%
G04 Aperture macros list end*
%ADD10C,5.600000*%
%ADD11R,1.700000X1.700000*%
%ADD12C,1.700000*%
%ADD13C,0.900000*%
%ADD14RoundRect,0.102000X-0.750000X1.750000X-0.750000X-1.750000X0.750000X-1.750000X0.750000X1.750000X0*%
%ADD15RoundRect,0.250000X0.250000X0.475000X-0.250000X0.475000X-0.250000X-0.475000X0.250000X-0.475000X0*%
%ADD16RoundRect,0.250000X-0.475000X0.250000X-0.475000X-0.250000X0.475000X-0.250000X0.475000X0.250000X0*%
%ADD17RoundRect,0.218750X-0.218750X-0.381250X0.218750X-0.381250X0.218750X0.381250X-0.218750X0.381250X0*%
%ADD18RoundRect,0.250000X0.262500X0.450000X-0.262500X0.450000X-0.262500X-0.450000X0.262500X-0.450000X0*%
%ADD19RoundRect,0.150000X0.150000X-0.512500X0.150000X0.512500X-0.150000X0.512500X-0.150000X-0.512500X0*%
%ADD20RoundRect,0.250000X0.475000X-0.250000X0.475000X0.250000X-0.475000X0.250000X-0.475000X-0.250000X0*%
%ADD21RoundRect,0.250000X-0.262500X-0.450000X0.262500X-0.450000X0.262500X0.450000X-0.262500X0.450000X0*%
G04 APERTURE END LIST*
D10*
%TO.C,H1*%
X134750000Y-84000000D03*
%TD*%
D11*
%TO.C,J2*%
X140670000Y-111250000D03*
D12*
X140670000Y-113790000D03*
X143210000Y-111250000D03*
X143210000Y-113790000D03*
X145750000Y-111250000D03*
X145750000Y-113790000D03*
%TD*%
D13*
%TO.C,SW3*%
X126500000Y-91050000D03*
X126500000Y-94050000D03*
%TD*%
D10*
%TO.C,H3*%
X164750000Y-84000000D03*
%TD*%
D13*
%TO.C,SW2*%
X173000000Y-105250000D03*
X173000000Y-102250000D03*
%TD*%
D10*
%TO.C,H2*%
X134750000Y-114000000D03*
%TD*%
%TO.C,H4*%
X164750000Y-114000000D03*
%TD*%
D13*
%TO.C,J3*%
X152500000Y-118550000D03*
X156900000Y-118550000D03*
%TD*%
D14*
%TO.C,J4*%
X152850000Y-75950000D03*
X147450000Y-75950000D03*
%TD*%
D15*
%TO.C,C20*%
X135462500Y-108412500D03*
X133562500Y-108412500D03*
%TD*%
D16*
%TO.C,C18*%
X130750000Y-93250000D03*
X130750000Y-95150000D03*
%TD*%
%TO.C,C19*%
X137000000Y-91300000D03*
X137000000Y-93200000D03*
%TD*%
D17*
%TO.C,L1*%
X132350000Y-101800000D03*
X134475000Y-101800000D03*
%TD*%
D18*
%TO.C,R5*%
X130225000Y-110637500D03*
X128400000Y-110637500D03*
%TD*%
D19*
%TO.C,U5*%
X134750000Y-93000000D03*
X133800000Y-93000000D03*
X132850000Y-93000000D03*
X132850000Y-90725000D03*
X134750000Y-90725000D03*
%TD*%
%TO.C,U4*%
X132112500Y-106137500D03*
X131162500Y-106137500D03*
X130212500Y-106137500D03*
X130212500Y-103862500D03*
X131162500Y-103862500D03*
X132112500Y-103862500D03*
%TD*%
D18*
%TO.C,R9*%
X142325000Y-107145000D03*
X140500000Y-107145000D03*
%TD*%
D20*
%TO.C,C16*%
X133975000Y-105912500D03*
X133975000Y-104012500D03*
%TD*%
D21*
%TO.C,R8*%
X140500000Y-105000000D03*
X142325000Y-105000000D03*
%TD*%
%TO.C,R7*%
X128400000Y-108387500D03*
X130225000Y-108387500D03*
%TD*%
D15*
%TO.C,C17*%
X129550000Y-101637500D03*
X127650000Y-101637500D03*
%TD*%
M02*
