%TF.GenerationSoftware,KiCad,Pcbnew,10.0.0*%
%TF.CreationDate,2026-07-13T15:55:05-05:00*%
%TF.ProjectId,no_fly_zone,6e6f5f66-6c79-45f7-9a6f-6e652e6b6963,rev?*%
%TF.SameCoordinates,Original*%
%TF.FileFunction,Legend,Top*%
%TF.FilePolarity,Positive*%
%FSLAX46Y46*%
G04 Gerber Fmt 4.6, Leading zero omitted, Abs format (unit mm)*
G04 Created by KiCad (PCBNEW 10.0.0) date 2026-07-13 15:55:05*
%MOMM*%
%LPD*%
G01*
G04 APERTURE LIST*
%ADD10C,0.150000*%
%ADD11C,0.100000*%
%ADD12C,0.425000*%
%ADD13C,0.153000*%
%ADD14C,0.158750*%
%ADD15C,0.120000*%
%ADD16C,0.127000*%
%ADD17C,0.200000*%
G04 APERTURE END LIST*
D10*
X168750000Y-97000000D02*
X168250000Y-96750000D01*
X168750000Y-96500000D01*
X168750000Y-97000000D01*
G36*
X168750000Y-97000000D02*
G01*
X168250000Y-96750000D01*
X168750000Y-96500000D01*
X168750000Y-97000000D01*
G37*
X169500000Y-90603553D02*
X169000000Y-90353553D01*
X169500000Y-90103553D01*
X169500000Y-90603553D01*
G36*
X169500000Y-90603553D02*
G01*
X169000000Y-90353553D01*
X169500000Y-90103553D01*
X169500000Y-90603553D01*
G37*
X170000000Y-96500000D02*
X169500000Y-96250000D01*
X170000000Y-96000000D01*
X170000000Y-96500000D01*
G36*
X170000000Y-96500000D02*
G01*
X169500000Y-96250000D01*
X170000000Y-96000000D01*
X170000000Y-96500000D01*
G37*
X172000000Y-88103553D02*
X171500000Y-88103553D01*
X171750000Y-87603553D01*
X172000000Y-88103553D01*
G36*
X172000000Y-88103553D02*
G01*
X171500000Y-88103553D01*
X171750000Y-87603553D01*
X172000000Y-88103553D01*
G37*
X172000000Y-93750000D02*
X171500000Y-93750000D01*
X171750000Y-93250000D01*
X172000000Y-93750000D01*
G36*
X172000000Y-93750000D02*
G01*
X171500000Y-93750000D01*
X171750000Y-93250000D01*
X172000000Y-93750000D01*
G37*
X172250000Y-97250000D02*
X171750000Y-97500000D01*
X171750000Y-97000000D01*
X172250000Y-97250000D01*
G36*
X172250000Y-97250000D02*
G01*
X171750000Y-97500000D01*
X171750000Y-97000000D01*
X172250000Y-97250000D01*
G37*
X172500000Y-95000000D02*
X172000000Y-95000000D01*
X172250000Y-94500000D01*
X172500000Y-95000000D01*
G36*
X172500000Y-95000000D02*
G01*
X172000000Y-95000000D01*
X172250000Y-94500000D01*
X172500000Y-95000000D01*
G37*
D11*
X128750000Y-117125000D02*
X128750000Y-121375000D01*
X128750000Y-119250000D02*
X138500000Y-119250000D01*
X128750000Y-121375000D02*
X138500000Y-121375000D01*
D12*
X131812500Y-100600000D02*
G75*
G02*
X131387500Y-100600000I-212500J0D01*
G01*
X131387500Y-100600000D02*
G75*
G02*
X131812500Y-100600000I212500J0D01*
G01*
D11*
X132250000Y-117125000D02*
X132250000Y-121375000D01*
X135500000Y-117125000D02*
X135500000Y-121375000D01*
X138500000Y-117125000D02*
X128750000Y-117125000D01*
X138500000Y-117125000D02*
X138500000Y-121375000D01*
D10*
X168750000Y-96750000D02*
X171250000Y-96750000D01*
X169396447Y-90353553D02*
X171396447Y-90353553D01*
D13*
X169970747Y-96250856D02*
G75*
G02*
X170000005Y-97250085I-47J-500044D01*
G01*
D10*
X171749989Y-96216761D02*
X171750002Y-93716761D01*
X171750000Y-90000000D02*
X171750000Y-88000000D01*
X171750001Y-90353553D02*
X171750001Y-90353553D01*
X171750001Y-90353553D01*
X171750001Y-90353553D01*
X171750001Y-90353553D01*
X171750001Y-90353553D01*
X171750001Y-90353554D01*
X171750001Y-90353554D01*
X171750001Y-90353554D01*
X171750001Y-90353554D01*
X171750001Y-90353554D01*
X171750001Y-90353554D01*
X171750001Y-90353554D01*
X171750000Y-90353554D01*
X171750000Y-90353554D01*
X171750000Y-90353554D01*
X171750000Y-90353554D01*
X171750000Y-90353554D01*
X171750000Y-90353554D01*
X171750000Y-90353554D01*
X171750000Y-90353554D01*
X171750000Y-90353554D01*
X171750000Y-90353554D01*
X171750000Y-90353554D01*
X171750000Y-90353554D01*
X171749999Y-90353554D01*
X171749999Y-90353554D01*
X171749999Y-90353554D01*
X171749999Y-90353554D01*
X171749999Y-90353554D01*
X171749999Y-90353554D01*
X171749999Y-90353553D01*
X171749999Y-90353553D01*
X171749999Y-90353553D01*
X171749999Y-90353553D01*
X171749999Y-90353553D01*
X171749999Y-90353553D01*
X171749999Y-90353553D02*
X171749999Y-90353553D01*
X171749999Y-90353553D01*
X171749999Y-90353553D01*
X171749999Y-90353553D01*
X171749999Y-90353553D01*
X171749999Y-90353553D01*
X171749999Y-90353552D01*
X171749999Y-90353552D01*
X171749999Y-90353552D01*
X171749999Y-90353552D01*
X171749999Y-90353552D01*
X171750000Y-90353552D01*
X171750000Y-90353552D01*
X171750000Y-90353552D01*
X171750000Y-90353552D01*
X171750000Y-90353552D01*
X171750000Y-90353552D01*
X171750000Y-90353552D01*
X171750000Y-90353552D01*
X171750000Y-90353552D01*
X171750000Y-90353552D01*
X171750000Y-90353552D01*
X171750000Y-90353552D01*
X171750001Y-90353552D01*
X171750001Y-90353552D01*
X171750001Y-90353552D01*
X171750001Y-90353552D01*
X171750001Y-90353552D01*
X171750001Y-90353552D01*
X171750001Y-90353553D01*
X171750001Y-90353553D01*
X171750001Y-90353553D01*
X171750001Y-90353553D01*
X171750001Y-90353553D01*
X171750001Y-90353553D01*
X171750001Y-90353553D01*
X172103553Y-90353553D02*
G75*
G02*
X171396447Y-90353553I-353553J0D01*
G01*
X171396447Y-90353553D02*
G75*
G02*
X172103553Y-90353553I353553J0D01*
G01*
D13*
X171750001Y-96750000D02*
X171750001Y-96750000D01*
X171750001Y-96750000D01*
X171750001Y-96750000D01*
X171750001Y-96750000D01*
X171750001Y-96750000D01*
X171750001Y-96750001D01*
X171750001Y-96750001D01*
X171750001Y-96750001D01*
X171750001Y-96750001D01*
X171750001Y-96750001D01*
X171750001Y-96750001D01*
X171750001Y-96750001D01*
X171750000Y-96750001D01*
X171750000Y-96750001D01*
X171750000Y-96750001D01*
X171750000Y-96750001D01*
X171750000Y-96750001D01*
X171750000Y-96750001D01*
X171750000Y-96750001D01*
X171750000Y-96750001D01*
X171750000Y-96750001D01*
X171750000Y-96750001D01*
X171750000Y-96750001D01*
X171750000Y-96750001D01*
X171749999Y-96750001D01*
X171749999Y-96750001D01*
X171749999Y-96750001D01*
X171749999Y-96750001D01*
X171749999Y-96750001D01*
X171749999Y-96750001D01*
X171749999Y-96750000D01*
X171749999Y-96750000D01*
X171749999Y-96750000D01*
X171749999Y-96750000D01*
X171749999Y-96750000D01*
X171749999Y-96750000D01*
X171749999Y-96750000D02*
X171749999Y-96750000D01*
X171749999Y-96750000D01*
X171749999Y-96750000D01*
X171749999Y-96750000D01*
X171749999Y-96750000D01*
X171749999Y-96750000D01*
X171749999Y-96749999D01*
X171749999Y-96749999D01*
X171749999Y-96749999D01*
X171749999Y-96749999D01*
X171749999Y-96749999D01*
X171750000Y-96749999D01*
X171750000Y-96749999D01*
X171750000Y-96749999D01*
X171750000Y-96749999D01*
X171750000Y-96749999D01*
X171750000Y-96749999D01*
X171750000Y-96749999D01*
X171750000Y-96749999D01*
X171750000Y-96749999D01*
X171750000Y-96749999D01*
X171750000Y-96749999D01*
X171750000Y-96749999D01*
X171750001Y-96749999D01*
X171750001Y-96749999D01*
X171750001Y-96749999D01*
X171750001Y-96749999D01*
X171750001Y-96749999D01*
X171750001Y-96749999D01*
X171750001Y-96750000D01*
X171750001Y-96750000D01*
X171750001Y-96750000D01*
X171750001Y-96750000D01*
X171750001Y-96750000D01*
X171750001Y-96750000D01*
X171750001Y-96750000D01*
X171786273Y-97255241D02*
G75*
G02*
X171749994Y-96216828I27J519841D01*
G01*
X172235367Y-95000214D02*
G75*
G02*
X171236290Y-95029463I-499967J14D01*
G01*
D10*
G36*
X128200020Y-111455930D02*
G01*
X125400668Y-111455930D01*
X125400668Y-110269819D01*
X125511779Y-110269819D01*
X125511779Y-111269819D01*
X125513220Y-111284451D01*
X125524419Y-111311487D01*
X125545111Y-111332179D01*
X125572147Y-111343378D01*
X125586779Y-111344819D01*
X126062969Y-111344819D01*
X126077601Y-111343378D01*
X126104637Y-111332179D01*
X126125329Y-111311487D01*
X126136528Y-111284451D01*
X126136528Y-111255187D01*
X126125329Y-111228151D01*
X126104637Y-111207459D01*
X126077601Y-111196260D01*
X126062969Y-111194819D01*
X125661779Y-111194819D01*
X125661779Y-110821009D01*
X125920112Y-110821009D01*
X125934744Y-110819568D01*
X125961780Y-110808369D01*
X125982472Y-110787677D01*
X125993671Y-110760641D01*
X125993671Y-110731377D01*
X125982472Y-110704341D01*
X125961780Y-110683649D01*
X125934744Y-110672450D01*
X125920112Y-110671009D01*
X125661779Y-110671009D01*
X125661779Y-110460295D01*
X126368922Y-110460295D01*
X126368922Y-110555533D01*
X126370363Y-110570165D01*
X126371394Y-110572654D01*
X126371585Y-110575342D01*
X126376840Y-110589074D01*
X126424459Y-110684312D01*
X126428423Y-110690611D01*
X126429181Y-110692439D01*
X126430869Y-110694495D01*
X126432291Y-110696755D01*
X126433789Y-110698054D01*
X126438508Y-110703804D01*
X126486127Y-110751423D01*
X126491876Y-110756141D01*
X126493176Y-110757640D01*
X126495435Y-110759061D01*
X126497492Y-110760750D01*
X126499319Y-110761507D01*
X126505619Y-110765472D01*
X126600857Y-110813091D01*
X126601926Y-110813500D01*
X126602362Y-110813823D01*
X126608498Y-110816015D01*
X126614588Y-110818346D01*
X126615128Y-110818384D01*
X126616208Y-110818770D01*
X126798698Y-110864392D01*
X126875685Y-110902886D01*
X126906092Y-110933293D01*
X126940350Y-111001809D01*
X126940350Y-111061637D01*
X126906091Y-111130153D01*
X126875684Y-111160561D01*
X126807169Y-111194819D01*
X126598949Y-111194819D01*
X126467639Y-111151049D01*
X126453302Y-111147789D01*
X126424112Y-111149864D01*
X126397939Y-111162950D01*
X126378765Y-111185057D01*
X126369511Y-111212820D01*
X126371586Y-111242010D01*
X126384672Y-111268183D01*
X126406779Y-111287357D01*
X126420205Y-111293351D01*
X126563061Y-111340970D01*
X126570316Y-111342619D01*
X126572147Y-111343378D01*
X126574800Y-111343639D01*
X126577398Y-111344230D01*
X126579372Y-111344089D01*
X126586779Y-111344819D01*
X126824874Y-111344819D01*
X126839506Y-111343378D01*
X126841995Y-111342346D01*
X126844683Y-111342156D01*
X126858415Y-111336901D01*
X126953653Y-111289282D01*
X126959952Y-111285317D01*
X126961780Y-111284560D01*
X126963836Y-111282872D01*
X126966096Y-111281450D01*
X126967396Y-111279950D01*
X126973146Y-111275232D01*
X127020764Y-111227613D01*
X127025482Y-111221863D01*
X127026981Y-111220564D01*
X127028402Y-111218305D01*
X127030092Y-111216247D01*
X127030849Y-111214417D01*
X127034813Y-111208121D01*
X127082432Y-111112883D01*
X127087687Y-111099152D01*
X127087878Y-111096462D01*
X127088909Y-111093974D01*
X127090350Y-111079342D01*
X127090350Y-110984104D01*
X127088909Y-110969472D01*
X127087878Y-110966983D01*
X127087687Y-110964294D01*
X127082432Y-110950563D01*
X127034813Y-110855325D01*
X127030848Y-110849025D01*
X127030091Y-110847198D01*
X127028402Y-110845141D01*
X127026981Y-110842882D01*
X127025482Y-110841582D01*
X127020764Y-110835833D01*
X126973145Y-110788214D01*
X126967395Y-110783495D01*
X126966096Y-110781997D01*
X126963836Y-110780575D01*
X126961780Y-110778887D01*
X126959952Y-110778129D01*
X126953653Y-110774165D01*
X126858415Y-110726546D01*
X126857345Y-110726136D01*
X126856910Y-110725814D01*
X126850764Y-110723618D01*
X126844683Y-110721291D01*
X126844143Y-110721252D01*
X126843064Y-110720867D01*
X126753157Y-110698390D01*
X127321303Y-110698390D01*
X127321303Y-110841247D01*
X127321554Y-110843800D01*
X127321392Y-110844893D01*
X127322201Y-110850366D01*
X127322744Y-110855879D01*
X127323166Y-110856900D01*
X127323542Y-110859437D01*
X127371161Y-111049913D01*
X127371546Y-111050992D01*
X127371585Y-111051532D01*
X127373912Y-111057613D01*
X127376108Y-111063759D01*
X127376430Y-111064194D01*
X127376840Y-111065264D01*
X127424459Y-111160502D01*
X127428422Y-111166798D01*
X127429180Y-111168628D01*
X127430869Y-111170686D01*
X127432291Y-111172945D01*
X127433789Y-111174244D01*
X127438508Y-111179994D01*
X127533746Y-111275233D01*
X127545111Y-111284561D01*
X127547601Y-111285592D01*
X127549636Y-111287357D01*
X127563062Y-111293351D01*
X127705918Y-111340970D01*
X127713173Y-111342619D01*
X127715004Y-111343378D01*
X127717657Y-111343639D01*
X127720255Y-111344230D01*
X127722229Y-111344089D01*
X127729636Y-111344819D01*
X127824874Y-111344819D01*
X127832279Y-111344089D01*
X127834254Y-111344230D01*
X127836851Y-111343639D01*
X127839506Y-111343378D01*
X127841337Y-111342619D01*
X127848591Y-111340970D01*
X127991448Y-111293351D01*
X128004873Y-111287357D01*
X128006908Y-111285591D01*
X128009399Y-111284560D01*
X128020765Y-111275232D01*
X128068383Y-111227613D01*
X128077711Y-111216247D01*
X128088909Y-111189211D01*
X128088909Y-111159948D01*
X128077710Y-111132912D01*
X128057017Y-111112219D01*
X128029981Y-111101021D01*
X128000718Y-111101021D01*
X127973682Y-111112220D01*
X127962316Y-111121548D01*
X127927217Y-111156647D01*
X127812704Y-111194819D01*
X127741806Y-111194819D01*
X127627293Y-111156648D01*
X127553180Y-111082534D01*
X127514686Y-111005547D01*
X127471303Y-110832013D01*
X127471303Y-110707624D01*
X127514686Y-110534090D01*
X127553180Y-110457103D01*
X127627293Y-110382990D01*
X127741806Y-110344819D01*
X127812704Y-110344819D01*
X127927217Y-110382990D01*
X127962317Y-110418090D01*
X127973682Y-110427417D01*
X128000718Y-110438616D01*
X128029981Y-110438616D01*
X128057017Y-110427417D01*
X128077710Y-110406724D01*
X128088909Y-110379688D01*
X128088909Y-110350425D01*
X128077710Y-110323389D01*
X128068383Y-110312024D01*
X128020764Y-110264405D01*
X128009399Y-110255078D01*
X128006908Y-110254046D01*
X128004873Y-110252281D01*
X127991448Y-110246287D01*
X127848591Y-110198668D01*
X127841337Y-110197018D01*
X127839506Y-110196260D01*
X127836851Y-110195998D01*
X127834254Y-110195408D01*
X127832279Y-110195548D01*
X127824874Y-110194819D01*
X127729636Y-110194819D01*
X127722229Y-110195548D01*
X127720255Y-110195408D01*
X127717657Y-110195998D01*
X127715004Y-110196260D01*
X127713173Y-110197018D01*
X127705918Y-110198668D01*
X127563062Y-110246287D01*
X127549636Y-110252281D01*
X127547601Y-110254045D01*
X127545111Y-110255077D01*
X127533746Y-110264405D01*
X127438508Y-110359643D01*
X127433789Y-110365392D01*
X127432291Y-110366692D01*
X127430869Y-110368951D01*
X127429181Y-110371008D01*
X127428423Y-110372835D01*
X127424459Y-110379135D01*
X127376840Y-110474373D01*
X127376430Y-110475442D01*
X127376108Y-110475878D01*
X127373912Y-110482023D01*
X127371585Y-110488105D01*
X127371546Y-110488644D01*
X127371161Y-110489724D01*
X127323542Y-110680200D01*
X127323166Y-110682736D01*
X127322744Y-110683758D01*
X127322201Y-110689270D01*
X127321392Y-110694744D01*
X127321554Y-110695836D01*
X127321303Y-110698390D01*
X126753157Y-110698390D01*
X126660574Y-110675244D01*
X126583587Y-110636751D01*
X126553180Y-110606344D01*
X126518922Y-110537828D01*
X126518922Y-110478000D01*
X126553180Y-110409484D01*
X126583587Y-110379077D01*
X126652103Y-110344819D01*
X126860323Y-110344819D01*
X126991632Y-110388589D01*
X127005969Y-110391849D01*
X127035159Y-110389774D01*
X127061333Y-110376688D01*
X127080507Y-110354580D01*
X127089761Y-110326818D01*
X127087686Y-110297628D01*
X127074599Y-110271455D01*
X127052492Y-110252281D01*
X127039067Y-110246287D01*
X126896210Y-110198668D01*
X126888956Y-110197018D01*
X126887125Y-110196260D01*
X126884470Y-110195998D01*
X126881873Y-110195408D01*
X126879898Y-110195548D01*
X126872493Y-110194819D01*
X126634398Y-110194819D01*
X126619766Y-110196260D01*
X126617277Y-110197290D01*
X126614588Y-110197482D01*
X126600857Y-110202737D01*
X126505619Y-110250356D01*
X126499319Y-110254320D01*
X126497492Y-110255078D01*
X126495435Y-110256766D01*
X126493176Y-110258188D01*
X126491876Y-110259686D01*
X126486127Y-110264405D01*
X126438508Y-110312024D01*
X126433789Y-110317773D01*
X126432291Y-110319073D01*
X126430869Y-110321332D01*
X126429181Y-110323389D01*
X126428423Y-110325216D01*
X126424459Y-110331516D01*
X126376840Y-110426754D01*
X126371585Y-110440486D01*
X126371394Y-110443173D01*
X126370363Y-110445663D01*
X126368922Y-110460295D01*
X125661779Y-110460295D01*
X125661779Y-110344819D01*
X126062969Y-110344819D01*
X126077601Y-110343378D01*
X126104637Y-110332179D01*
X126125329Y-110311487D01*
X126136528Y-110284451D01*
X126136528Y-110255187D01*
X126125329Y-110228151D01*
X126104637Y-110207459D01*
X126077601Y-110196260D01*
X126062969Y-110194819D01*
X125586779Y-110194819D01*
X125572147Y-110196260D01*
X125545111Y-110207459D01*
X125524419Y-110228151D01*
X125513220Y-110255187D01*
X125511779Y-110269819D01*
X125400668Y-110269819D01*
X125400668Y-110083708D01*
X128200020Y-110083708D01*
X128200020Y-111455930D01*
G37*
G36*
X129711925Y-87455930D02*
G01*
X126008400Y-87455930D01*
X126008400Y-86279199D01*
X126119511Y-86279199D01*
X126122771Y-86293536D01*
X126456104Y-87293536D01*
X126462098Y-87306961D01*
X126465608Y-87311008D01*
X126468005Y-87315802D01*
X126475113Y-87321967D01*
X126481272Y-87329068D01*
X126486061Y-87331462D01*
X126490112Y-87334976D01*
X126499037Y-87337950D01*
X126507445Y-87342155D01*
X126512789Y-87342534D01*
X126517875Y-87344230D01*
X126527255Y-87343563D01*
X126536635Y-87344230D01*
X126541720Y-87342534D01*
X126547065Y-87342155D01*
X126555475Y-87337949D01*
X126564397Y-87334976D01*
X126568444Y-87331465D01*
X126573238Y-87329069D01*
X126579401Y-87321963D01*
X126586505Y-87315802D01*
X126588900Y-87311010D01*
X126592412Y-87306962D01*
X126598406Y-87293536D01*
X126876153Y-86460295D01*
X127071303Y-86460295D01*
X127071303Y-86555533D01*
X127072744Y-86570165D01*
X127073775Y-86572654D01*
X127073966Y-86575342D01*
X127079221Y-86589074D01*
X127126840Y-86684312D01*
X127130804Y-86690611D01*
X127131562Y-86692439D01*
X127133250Y-86694495D01*
X127134672Y-86696755D01*
X127136170Y-86698054D01*
X127140889Y-86703804D01*
X127188508Y-86751423D01*
X127194257Y-86756141D01*
X127195557Y-86757640D01*
X127197816Y-86759061D01*
X127199873Y-86760750D01*
X127201700Y-86761507D01*
X127208000Y-86765472D01*
X127303238Y-86813091D01*
X127304307Y-86813500D01*
X127304743Y-86813823D01*
X127310879Y-86816015D01*
X127316969Y-86818346D01*
X127317509Y-86818384D01*
X127318589Y-86818770D01*
X127501079Y-86864392D01*
X127578066Y-86902886D01*
X127608473Y-86933293D01*
X127642731Y-87001809D01*
X127642731Y-87061637D01*
X127608472Y-87130153D01*
X127578065Y-87160561D01*
X127509550Y-87194819D01*
X127301330Y-87194819D01*
X127170020Y-87151049D01*
X127155683Y-87147789D01*
X127126493Y-87149864D01*
X127100320Y-87162950D01*
X127081146Y-87185057D01*
X127071892Y-87212820D01*
X127073967Y-87242010D01*
X127087053Y-87268183D01*
X127109160Y-87287357D01*
X127122586Y-87293351D01*
X127265442Y-87340970D01*
X127272697Y-87342619D01*
X127274528Y-87343378D01*
X127277181Y-87343639D01*
X127279779Y-87344230D01*
X127281753Y-87344089D01*
X127289160Y-87344819D01*
X127527255Y-87344819D01*
X127541887Y-87343378D01*
X127544376Y-87342346D01*
X127547064Y-87342156D01*
X127560796Y-87336901D01*
X127656034Y-87289282D01*
X127662333Y-87285317D01*
X127664161Y-87284560D01*
X127666217Y-87282872D01*
X127668477Y-87281450D01*
X127669777Y-87279950D01*
X127675527Y-87275232D01*
X127723145Y-87227613D01*
X127727863Y-87221863D01*
X127729362Y-87220564D01*
X127730783Y-87218305D01*
X127732473Y-87216247D01*
X127733230Y-87214417D01*
X127737194Y-87208121D01*
X127784813Y-87112883D01*
X127790068Y-87099152D01*
X127790259Y-87096462D01*
X127791290Y-87093974D01*
X127792731Y-87079342D01*
X127792731Y-86984104D01*
X127791290Y-86969472D01*
X127790259Y-86966983D01*
X127790068Y-86964294D01*
X127784813Y-86950563D01*
X127737194Y-86855325D01*
X127733229Y-86849025D01*
X127732472Y-86847198D01*
X127730783Y-86845141D01*
X127729362Y-86842882D01*
X127727863Y-86841582D01*
X127723145Y-86835833D01*
X127675526Y-86788214D01*
X127669776Y-86783495D01*
X127668477Y-86781997D01*
X127666217Y-86780575D01*
X127664161Y-86778887D01*
X127662333Y-86778129D01*
X127656034Y-86774165D01*
X127560796Y-86726546D01*
X127559726Y-86726136D01*
X127559291Y-86725814D01*
X127553145Y-86723618D01*
X127547064Y-86721291D01*
X127546524Y-86721252D01*
X127545445Y-86720867D01*
X127362955Y-86675244D01*
X127285968Y-86636751D01*
X127255561Y-86606344D01*
X127221303Y-86537828D01*
X127221303Y-86478000D01*
X127255561Y-86409484D01*
X127285968Y-86379077D01*
X127354484Y-86344819D01*
X127562704Y-86344819D01*
X127694013Y-86388589D01*
X127708350Y-86391849D01*
X127737540Y-86389774D01*
X127763714Y-86376688D01*
X127782888Y-86354580D01*
X127792142Y-86326818D01*
X127790067Y-86297628D01*
X127776980Y-86271455D01*
X127775094Y-86269819D01*
X128071303Y-86269819D01*
X128071303Y-87269819D01*
X128072744Y-87284451D01*
X128083943Y-87311487D01*
X128104635Y-87332179D01*
X128131671Y-87343378D01*
X128146303Y-87344819D01*
X128622493Y-87344819D01*
X128637125Y-87343378D01*
X128664161Y-87332179D01*
X128684853Y-87311487D01*
X128696052Y-87284451D01*
X128696052Y-87255187D01*
X128684853Y-87228151D01*
X128664161Y-87207459D01*
X128637125Y-87196260D01*
X128622493Y-87194819D01*
X128221303Y-87194819D01*
X128221303Y-86821009D01*
X128479636Y-86821009D01*
X128494268Y-86819568D01*
X128521304Y-86808369D01*
X128541996Y-86787677D01*
X128553195Y-86760641D01*
X128553195Y-86731377D01*
X128541996Y-86704341D01*
X128521304Y-86683649D01*
X128494268Y-86672450D01*
X128479636Y-86671009D01*
X128221303Y-86671009D01*
X128221303Y-86344819D01*
X128622493Y-86344819D01*
X128637125Y-86343378D01*
X128664161Y-86332179D01*
X128684853Y-86311487D01*
X128696052Y-86284451D01*
X128696052Y-86269819D01*
X128976065Y-86269819D01*
X128976065Y-87269819D01*
X128977506Y-87284451D01*
X128988705Y-87311487D01*
X129009397Y-87332179D01*
X129036433Y-87343378D01*
X129051065Y-87344819D01*
X129527255Y-87344819D01*
X129541887Y-87343378D01*
X129568923Y-87332179D01*
X129589615Y-87311487D01*
X129600814Y-87284451D01*
X129600814Y-87255187D01*
X129589615Y-87228151D01*
X129568923Y-87207459D01*
X129541887Y-87196260D01*
X129527255Y-87194819D01*
X129126065Y-87194819D01*
X129126065Y-86269819D01*
X129124624Y-86255187D01*
X129113425Y-86228151D01*
X129092733Y-86207459D01*
X129065697Y-86196260D01*
X129036433Y-86196260D01*
X129009397Y-86207459D01*
X128988705Y-86228151D01*
X128977506Y-86255187D01*
X128976065Y-86269819D01*
X128696052Y-86269819D01*
X128696052Y-86255187D01*
X128684853Y-86228151D01*
X128664161Y-86207459D01*
X128637125Y-86196260D01*
X128622493Y-86194819D01*
X128146303Y-86194819D01*
X128131671Y-86196260D01*
X128104635Y-86207459D01*
X128083943Y-86228151D01*
X128072744Y-86255187D01*
X128071303Y-86269819D01*
X127775094Y-86269819D01*
X127754873Y-86252281D01*
X127741448Y-86246287D01*
X127598591Y-86198668D01*
X127591337Y-86197018D01*
X127589506Y-86196260D01*
X127586851Y-86195998D01*
X127584254Y-86195408D01*
X127582279Y-86195548D01*
X127574874Y-86194819D01*
X127336779Y-86194819D01*
X127322147Y-86196260D01*
X127319658Y-86197290D01*
X127316969Y-86197482D01*
X127303238Y-86202737D01*
X127208000Y-86250356D01*
X127201700Y-86254320D01*
X127199873Y-86255078D01*
X127197816Y-86256766D01*
X127195557Y-86258188D01*
X127194257Y-86259686D01*
X127188508Y-86264405D01*
X127140889Y-86312024D01*
X127136170Y-86317773D01*
X127134672Y-86319073D01*
X127133250Y-86321332D01*
X127131562Y-86323389D01*
X127130804Y-86325216D01*
X127126840Y-86331516D01*
X127079221Y-86426754D01*
X127073966Y-86440486D01*
X127073775Y-86443173D01*
X127072744Y-86445663D01*
X127071303Y-86460295D01*
X126876153Y-86460295D01*
X126931739Y-86293536D01*
X126934999Y-86279200D01*
X126932924Y-86250010D01*
X126919838Y-86223836D01*
X126897730Y-86204662D01*
X126869968Y-86195408D01*
X126840778Y-86197483D01*
X126814605Y-86210570D01*
X126795431Y-86232677D01*
X126789437Y-86246102D01*
X126527255Y-87032648D01*
X126265073Y-86246102D01*
X126259079Y-86232676D01*
X126239905Y-86210569D01*
X126213732Y-86197483D01*
X126184542Y-86195408D01*
X126156779Y-86204662D01*
X126134672Y-86223836D01*
X126121586Y-86250009D01*
X126119511Y-86279199D01*
X126008400Y-86279199D01*
X126008400Y-86083708D01*
X129711925Y-86083708D01*
X129711925Y-87455930D01*
G37*
X128991541Y-117744819D02*
X129610588Y-117744819D01*
X129610588Y-117744819D02*
X129277255Y-118125771D01*
X129277255Y-118125771D02*
X129420112Y-118125771D01*
X129420112Y-118125771D02*
X129515350Y-118173390D01*
X129515350Y-118173390D02*
X129562969Y-118221009D01*
X129562969Y-118221009D02*
X129610588Y-118316247D01*
X129610588Y-118316247D02*
X129610588Y-118554342D01*
X129610588Y-118554342D02*
X129562969Y-118649580D01*
X129562969Y-118649580D02*
X129515350Y-118697200D01*
X129515350Y-118697200D02*
X129420112Y-118744819D01*
X129420112Y-118744819D02*
X129134398Y-118744819D01*
X129134398Y-118744819D02*
X129039160Y-118697200D01*
X129039160Y-118697200D02*
X128991541Y-118649580D01*
X130039160Y-118649580D02*
X130086779Y-118697200D01*
X130086779Y-118697200D02*
X130039160Y-118744819D01*
X130039160Y-118744819D02*
X129991541Y-118697200D01*
X129991541Y-118697200D02*
X130039160Y-118649580D01*
X130039160Y-118649580D02*
X130039160Y-118744819D01*
X130420112Y-117744819D02*
X131039159Y-117744819D01*
X131039159Y-117744819D02*
X130705826Y-118125771D01*
X130705826Y-118125771D02*
X130848683Y-118125771D01*
X130848683Y-118125771D02*
X130943921Y-118173390D01*
X130943921Y-118173390D02*
X130991540Y-118221009D01*
X130991540Y-118221009D02*
X131039159Y-118316247D01*
X131039159Y-118316247D02*
X131039159Y-118554342D01*
X131039159Y-118554342D02*
X130991540Y-118649580D01*
X130991540Y-118649580D02*
X130943921Y-118697200D01*
X130943921Y-118697200D02*
X130848683Y-118744819D01*
X130848683Y-118744819D02*
X130562969Y-118744819D01*
X130562969Y-118744819D02*
X130467731Y-118697200D01*
X130467731Y-118697200D02*
X130420112Y-118649580D01*
X131324874Y-117744819D02*
X131658207Y-118744819D01*
X131658207Y-118744819D02*
X131991540Y-117744819D01*
X129700588Y-119807438D02*
X129605350Y-119759819D01*
X129605350Y-119759819D02*
X129462493Y-119759819D01*
X129462493Y-119759819D02*
X129319636Y-119807438D01*
X129319636Y-119807438D02*
X129224398Y-119902676D01*
X129224398Y-119902676D02*
X129176779Y-119997914D01*
X129176779Y-119997914D02*
X129129160Y-120188390D01*
X129129160Y-120188390D02*
X129129160Y-120331247D01*
X129129160Y-120331247D02*
X129176779Y-120521723D01*
X129176779Y-120521723D02*
X129224398Y-120616961D01*
X129224398Y-120616961D02*
X129319636Y-120712200D01*
X129319636Y-120712200D02*
X129462493Y-120759819D01*
X129462493Y-120759819D02*
X129557731Y-120759819D01*
X129557731Y-120759819D02*
X129700588Y-120712200D01*
X129700588Y-120712200D02*
X129748207Y-120664580D01*
X129748207Y-120664580D02*
X129748207Y-120331247D01*
X129748207Y-120331247D02*
X129557731Y-120331247D01*
X130176779Y-120759819D02*
X130176779Y-119759819D01*
X130176779Y-119759819D02*
X130748207Y-120759819D01*
X130748207Y-120759819D02*
X130748207Y-119759819D01*
X131224398Y-120759819D02*
X131224398Y-119759819D01*
X131224398Y-119759819D02*
X131462493Y-119759819D01*
X131462493Y-119759819D02*
X131605350Y-119807438D01*
X131605350Y-119807438D02*
X131700588Y-119902676D01*
X131700588Y-119902676D02*
X131748207Y-119997914D01*
X131748207Y-119997914D02*
X131795826Y-120188390D01*
X131795826Y-120188390D02*
X131795826Y-120331247D01*
X131795826Y-120331247D02*
X131748207Y-120521723D01*
X131748207Y-120521723D02*
X131700588Y-120616961D01*
X131700588Y-120616961D02*
X131605350Y-120712200D01*
X131605350Y-120712200D02*
X131462493Y-120759819D01*
X131462493Y-120759819D02*
X131224398Y-120759819D01*
G36*
X129972455Y-90459180D02*
G01*
X129998949Y-90485674D01*
X130033207Y-90554190D01*
X130033207Y-90661637D01*
X129998948Y-90730153D01*
X129968541Y-90760561D01*
X129900026Y-90794819D01*
X129611779Y-90794819D01*
X129611779Y-90421009D01*
X129857942Y-90421009D01*
X129972455Y-90459180D01*
G37*
G36*
X129920923Y-89979077D02*
G01*
X129951330Y-90009484D01*
X129985588Y-90078000D01*
X129985588Y-90137828D01*
X129951330Y-90206344D01*
X129920923Y-90236751D01*
X129852407Y-90271009D01*
X129611779Y-90271009D01*
X129611779Y-89944819D01*
X129852407Y-89944819D01*
X129920923Y-89979077D01*
G37*
G36*
X130861293Y-90509104D02*
G01*
X130593217Y-90509104D01*
X130727255Y-90106989D01*
X130861293Y-90509104D01*
G37*
G36*
X132007163Y-91055930D02*
G01*
X129350668Y-91055930D01*
X129350668Y-89869819D01*
X129461779Y-89869819D01*
X129461779Y-90869819D01*
X129463220Y-90884451D01*
X129474419Y-90911487D01*
X129495111Y-90932179D01*
X129522147Y-90943378D01*
X129536779Y-90944819D01*
X129917731Y-90944819D01*
X129932363Y-90943378D01*
X129934852Y-90942346D01*
X129937540Y-90942156D01*
X129951272Y-90936901D01*
X130046510Y-90889282D01*
X130052809Y-90885317D01*
X130054637Y-90884560D01*
X130056693Y-90882872D01*
X130058953Y-90881450D01*
X130060253Y-90879950D01*
X130066003Y-90875232D01*
X130080796Y-90860439D01*
X130319511Y-90860439D01*
X130321586Y-90889629D01*
X130334672Y-90915802D01*
X130356779Y-90934976D01*
X130384542Y-90944230D01*
X130413732Y-90942155D01*
X130439905Y-90929069D01*
X130459079Y-90906962D01*
X130465073Y-90893536D01*
X130543217Y-90659104D01*
X130911293Y-90659104D01*
X130989437Y-90893536D01*
X130995431Y-90906961D01*
X131014605Y-90929068D01*
X131040778Y-90942155D01*
X131069968Y-90944230D01*
X131097730Y-90934976D01*
X131119838Y-90915802D01*
X131132924Y-90889628D01*
X131134999Y-90860438D01*
X131131739Y-90846102D01*
X130801434Y-89855187D01*
X131177506Y-89855187D01*
X131177506Y-89884451D01*
X131188705Y-89911487D01*
X131209397Y-89932179D01*
X131236433Y-89943378D01*
X131251065Y-89944819D01*
X131461779Y-89944819D01*
X131461779Y-90869819D01*
X131463220Y-90884451D01*
X131474419Y-90911487D01*
X131495111Y-90932179D01*
X131522147Y-90943378D01*
X131551411Y-90943378D01*
X131578447Y-90932179D01*
X131599139Y-90911487D01*
X131610338Y-90884451D01*
X131611779Y-90869819D01*
X131611779Y-89944819D01*
X131822493Y-89944819D01*
X131837125Y-89943378D01*
X131864161Y-89932179D01*
X131884853Y-89911487D01*
X131896052Y-89884451D01*
X131896052Y-89855187D01*
X131884853Y-89828151D01*
X131864161Y-89807459D01*
X131837125Y-89796260D01*
X131822493Y-89794819D01*
X131251065Y-89794819D01*
X131236433Y-89796260D01*
X131209397Y-89807459D01*
X131188705Y-89828151D01*
X131177506Y-89855187D01*
X130801434Y-89855187D01*
X130798406Y-89846102D01*
X130792412Y-89832676D01*
X130788900Y-89828627D01*
X130786505Y-89823836D01*
X130779401Y-89817674D01*
X130773238Y-89810569D01*
X130768444Y-89808172D01*
X130764397Y-89804662D01*
X130755475Y-89801688D01*
X130747065Y-89797483D01*
X130741720Y-89797103D01*
X130736635Y-89795408D01*
X130727255Y-89796074D01*
X130717875Y-89795408D01*
X130712789Y-89797103D01*
X130707445Y-89797483D01*
X130699037Y-89801687D01*
X130690112Y-89804662D01*
X130686061Y-89808175D01*
X130681272Y-89810570D01*
X130675113Y-89817670D01*
X130668005Y-89823836D01*
X130665608Y-89828629D01*
X130662098Y-89832677D01*
X130656104Y-89846102D01*
X130322771Y-90846102D01*
X130319511Y-90860439D01*
X130080796Y-90860439D01*
X130113621Y-90827613D01*
X130118339Y-90821863D01*
X130119838Y-90820564D01*
X130121259Y-90818305D01*
X130122949Y-90816247D01*
X130123706Y-90814417D01*
X130127670Y-90808121D01*
X130175289Y-90712883D01*
X130180544Y-90699152D01*
X130180735Y-90696462D01*
X130181766Y-90693974D01*
X130183207Y-90679342D01*
X130183207Y-90536485D01*
X130181766Y-90521853D01*
X130180735Y-90519364D01*
X130180544Y-90516675D01*
X130175289Y-90502944D01*
X130127670Y-90407706D01*
X130123705Y-90401406D01*
X130122948Y-90399579D01*
X130121259Y-90397522D01*
X130119838Y-90395263D01*
X130118339Y-90393963D01*
X130113621Y-90388214D01*
X130066002Y-90340595D01*
X130054637Y-90331268D01*
X130052146Y-90330236D01*
X130050111Y-90328471D01*
X130044043Y-90325762D01*
X130066002Y-90303804D01*
X130070720Y-90298054D01*
X130072219Y-90296755D01*
X130073640Y-90294495D01*
X130075329Y-90292439D01*
X130076086Y-90290611D01*
X130080051Y-90284312D01*
X130127670Y-90189074D01*
X130132925Y-90175343D01*
X130133116Y-90172653D01*
X130134147Y-90170165D01*
X130135588Y-90155533D01*
X130135588Y-90060295D01*
X130134147Y-90045663D01*
X130133116Y-90043174D01*
X130132925Y-90040485D01*
X130127670Y-90026754D01*
X130080051Y-89931516D01*
X130076086Y-89925216D01*
X130075329Y-89923389D01*
X130073640Y-89921332D01*
X130072219Y-89919073D01*
X130070720Y-89917773D01*
X130066002Y-89912024D01*
X130018383Y-89864405D01*
X130012633Y-89859686D01*
X130011334Y-89858188D01*
X130009074Y-89856766D01*
X130007018Y-89855078D01*
X130005190Y-89854320D01*
X129998891Y-89850356D01*
X129903653Y-89802737D01*
X129889921Y-89797482D01*
X129887233Y-89797291D01*
X129884744Y-89796260D01*
X129870112Y-89794819D01*
X129536779Y-89794819D01*
X129522147Y-89796260D01*
X129495111Y-89807459D01*
X129474419Y-89828151D01*
X129463220Y-89855187D01*
X129461779Y-89869819D01*
X129350668Y-89869819D01*
X129350668Y-89683708D01*
X132007163Y-89683708D01*
X132007163Y-91055930D01*
G37*
G36*
X131972455Y-95059180D02*
G01*
X131998949Y-95085674D01*
X132033207Y-95154190D01*
X132033207Y-95261637D01*
X131998948Y-95330153D01*
X131968541Y-95360561D01*
X131900026Y-95394819D01*
X131611779Y-95394819D01*
X131611779Y-95021009D01*
X131857942Y-95021009D01*
X131972455Y-95059180D01*
G37*
G36*
X131920923Y-94579077D02*
G01*
X131951330Y-94609484D01*
X131985588Y-94678000D01*
X131985588Y-94737828D01*
X131951330Y-94806344D01*
X131920923Y-94836751D01*
X131852407Y-94871009D01*
X131611779Y-94871009D01*
X131611779Y-94544819D01*
X131852407Y-94544819D01*
X131920923Y-94579077D01*
G37*
G36*
X132294318Y-95655930D02*
G01*
X129350668Y-95655930D01*
X129350668Y-94469819D01*
X129461779Y-94469819D01*
X129461779Y-95279342D01*
X129463220Y-95293974D01*
X129464251Y-95296463D01*
X129464442Y-95299151D01*
X129469697Y-95312883D01*
X129517316Y-95408121D01*
X129521279Y-95414417D01*
X129522037Y-95416247D01*
X129523726Y-95418305D01*
X129525148Y-95420564D01*
X129526646Y-95421863D01*
X129531364Y-95427612D01*
X129578983Y-95475232D01*
X129584732Y-95479950D01*
X129586033Y-95481450D01*
X129588292Y-95482872D01*
X129590349Y-95484560D01*
X129592176Y-95485317D01*
X129598476Y-95489282D01*
X129693714Y-95536901D01*
X129707445Y-95542156D01*
X129710134Y-95542347D01*
X129712623Y-95543378D01*
X129727255Y-95544819D01*
X129917731Y-95544819D01*
X129932363Y-95543378D01*
X129934852Y-95542346D01*
X129937540Y-95542156D01*
X129951272Y-95536901D01*
X130046510Y-95489282D01*
X130052809Y-95485317D01*
X130054637Y-95484560D01*
X130056693Y-95482872D01*
X130058953Y-95481450D01*
X130060253Y-95479950D01*
X130066003Y-95475232D01*
X130113621Y-95427613D01*
X130118339Y-95421863D01*
X130119838Y-95420564D01*
X130121259Y-95418305D01*
X130122949Y-95416247D01*
X130123706Y-95414417D01*
X130127670Y-95408121D01*
X130175289Y-95312883D01*
X130180544Y-95299152D01*
X130180735Y-95296462D01*
X130181766Y-95293974D01*
X130183207Y-95279342D01*
X130183207Y-94660295D01*
X130461779Y-94660295D01*
X130461779Y-94755533D01*
X130463220Y-94770165D01*
X130464251Y-94772654D01*
X130464442Y-94775342D01*
X130469697Y-94789074D01*
X130517316Y-94884312D01*
X130521280Y-94890611D01*
X130522038Y-94892439D01*
X130523726Y-94894495D01*
X130525148Y-94896755D01*
X130526646Y-94898054D01*
X130531365Y-94903804D01*
X130578984Y-94951423D01*
X130584733Y-94956141D01*
X130586033Y-94957640D01*
X130588292Y-94959061D01*
X130590349Y-94960750D01*
X130592176Y-94961507D01*
X130598476Y-94965472D01*
X130693714Y-95013091D01*
X130694783Y-95013500D01*
X130695219Y-95013823D01*
X130701355Y-95016015D01*
X130707445Y-95018346D01*
X130707985Y-95018384D01*
X130709065Y-95018770D01*
X130891555Y-95064392D01*
X130968542Y-95102886D01*
X130998949Y-95133293D01*
X131033207Y-95201809D01*
X131033207Y-95261637D01*
X130998948Y-95330153D01*
X130968541Y-95360561D01*
X130900026Y-95394819D01*
X130691806Y-95394819D01*
X130560496Y-95351049D01*
X130546159Y-95347789D01*
X130516969Y-95349864D01*
X130490796Y-95362950D01*
X130471622Y-95385057D01*
X130462368Y-95412820D01*
X130464443Y-95442010D01*
X130477529Y-95468183D01*
X130499636Y-95487357D01*
X130513062Y-95493351D01*
X130655918Y-95540970D01*
X130663173Y-95542619D01*
X130665004Y-95543378D01*
X130667657Y-95543639D01*
X130670255Y-95544230D01*
X130672229Y-95544089D01*
X130679636Y-95544819D01*
X130917731Y-95544819D01*
X130932363Y-95543378D01*
X130934852Y-95542346D01*
X130937540Y-95542156D01*
X130951272Y-95536901D01*
X131046510Y-95489282D01*
X131052809Y-95485317D01*
X131054637Y-95484560D01*
X131056693Y-95482872D01*
X131058953Y-95481450D01*
X131060253Y-95479950D01*
X131066003Y-95475232D01*
X131113621Y-95427613D01*
X131118339Y-95421863D01*
X131119838Y-95420564D01*
X131121259Y-95418305D01*
X131122949Y-95416247D01*
X131123706Y-95414417D01*
X131127670Y-95408121D01*
X131175289Y-95312883D01*
X131180544Y-95299152D01*
X131180735Y-95296462D01*
X131181766Y-95293974D01*
X131183207Y-95279342D01*
X131183207Y-95184104D01*
X131181766Y-95169472D01*
X131180735Y-95166983D01*
X131180544Y-95164294D01*
X131175289Y-95150563D01*
X131127670Y-95055325D01*
X131123705Y-95049025D01*
X131122948Y-95047198D01*
X131121259Y-95045141D01*
X131119838Y-95042882D01*
X131118339Y-95041582D01*
X131113621Y-95035833D01*
X131066002Y-94988214D01*
X131060252Y-94983495D01*
X131058953Y-94981997D01*
X131056693Y-94980575D01*
X131054637Y-94978887D01*
X131052809Y-94978129D01*
X131046510Y-94974165D01*
X130951272Y-94926546D01*
X130950202Y-94926136D01*
X130949767Y-94925814D01*
X130943621Y-94923618D01*
X130937540Y-94921291D01*
X130937000Y-94921252D01*
X130935921Y-94920867D01*
X130753431Y-94875244D01*
X130676444Y-94836751D01*
X130646037Y-94806344D01*
X130611779Y-94737828D01*
X130611779Y-94678000D01*
X130646037Y-94609484D01*
X130676444Y-94579077D01*
X130744960Y-94544819D01*
X130953180Y-94544819D01*
X131084489Y-94588589D01*
X131098826Y-94591849D01*
X131128016Y-94589774D01*
X131154190Y-94576688D01*
X131173364Y-94554580D01*
X131182618Y-94526818D01*
X131180543Y-94497628D01*
X131167456Y-94471455D01*
X131165570Y-94469819D01*
X131461779Y-94469819D01*
X131461779Y-95469819D01*
X131463220Y-95484451D01*
X131474419Y-95511487D01*
X131495111Y-95532179D01*
X131522147Y-95543378D01*
X131536779Y-95544819D01*
X131917731Y-95544819D01*
X131932363Y-95543378D01*
X131934852Y-95542346D01*
X131937540Y-95542156D01*
X131951272Y-95536901D01*
X132046510Y-95489282D01*
X132052809Y-95485317D01*
X132054637Y-95484560D01*
X132056693Y-95482872D01*
X132058953Y-95481450D01*
X132060253Y-95479950D01*
X132066003Y-95475232D01*
X132113621Y-95427613D01*
X132118339Y-95421863D01*
X132119838Y-95420564D01*
X132121259Y-95418305D01*
X132122949Y-95416247D01*
X132123706Y-95414417D01*
X132127670Y-95408121D01*
X132175289Y-95312883D01*
X132180544Y-95299152D01*
X132180735Y-95296462D01*
X132181766Y-95293974D01*
X132183207Y-95279342D01*
X132183207Y-95136485D01*
X132181766Y-95121853D01*
X132180735Y-95119364D01*
X132180544Y-95116675D01*
X132175289Y-95102944D01*
X132127670Y-95007706D01*
X132123705Y-95001406D01*
X132122948Y-94999579D01*
X132121259Y-94997522D01*
X132119838Y-94995263D01*
X132118339Y-94993963D01*
X132113621Y-94988214D01*
X132066002Y-94940595D01*
X132054637Y-94931268D01*
X132052146Y-94930236D01*
X132050111Y-94928471D01*
X132044043Y-94925762D01*
X132066002Y-94903804D01*
X132070720Y-94898054D01*
X132072219Y-94896755D01*
X132073640Y-94894495D01*
X132075329Y-94892439D01*
X132076086Y-94890611D01*
X132080051Y-94884312D01*
X132127670Y-94789074D01*
X132132925Y-94775343D01*
X132133116Y-94772653D01*
X132134147Y-94770165D01*
X132135588Y-94755533D01*
X132135588Y-94660295D01*
X132134147Y-94645663D01*
X132133116Y-94643174D01*
X132132925Y-94640485D01*
X132127670Y-94626754D01*
X132080051Y-94531516D01*
X132076086Y-94525216D01*
X132075329Y-94523389D01*
X132073640Y-94521332D01*
X132072219Y-94519073D01*
X132070720Y-94517773D01*
X132066002Y-94512024D01*
X132018383Y-94464405D01*
X132012633Y-94459686D01*
X132011334Y-94458188D01*
X132009074Y-94456766D01*
X132007018Y-94455078D01*
X132005190Y-94454320D01*
X131998891Y-94450356D01*
X131903653Y-94402737D01*
X131889921Y-94397482D01*
X131887233Y-94397291D01*
X131884744Y-94396260D01*
X131870112Y-94394819D01*
X131536779Y-94394819D01*
X131522147Y-94396260D01*
X131495111Y-94407459D01*
X131474419Y-94428151D01*
X131463220Y-94455187D01*
X131461779Y-94469819D01*
X131165570Y-94469819D01*
X131145349Y-94452281D01*
X131131924Y-94446287D01*
X130989067Y-94398668D01*
X130981813Y-94397018D01*
X130979982Y-94396260D01*
X130977327Y-94395998D01*
X130974730Y-94395408D01*
X130972755Y-94395548D01*
X130965350Y-94394819D01*
X130727255Y-94394819D01*
X130712623Y-94396260D01*
X130710134Y-94397290D01*
X130707445Y-94397482D01*
X130693714Y-94402737D01*
X130598476Y-94450356D01*
X130592176Y-94454320D01*
X130590349Y-94455078D01*
X130588292Y-94456766D01*
X130586033Y-94458188D01*
X130584733Y-94459686D01*
X130578984Y-94464405D01*
X130531365Y-94512024D01*
X130526646Y-94517773D01*
X130525148Y-94519073D01*
X130523726Y-94521332D01*
X130522038Y-94523389D01*
X130521280Y-94525216D01*
X130517316Y-94531516D01*
X130469697Y-94626754D01*
X130464442Y-94640486D01*
X130464251Y-94643173D01*
X130463220Y-94645663D01*
X130461779Y-94660295D01*
X130183207Y-94660295D01*
X130183207Y-94469819D01*
X130181766Y-94455187D01*
X130170567Y-94428151D01*
X130149875Y-94407459D01*
X130122839Y-94396260D01*
X130093575Y-94396260D01*
X130066539Y-94407459D01*
X130045847Y-94428151D01*
X130034648Y-94455187D01*
X130033207Y-94469819D01*
X130033207Y-95261637D01*
X129998948Y-95330153D01*
X129968541Y-95360561D01*
X129900026Y-95394819D01*
X129744960Y-95394819D01*
X129676444Y-95360561D01*
X129646037Y-95330153D01*
X129611779Y-95261637D01*
X129611779Y-94469819D01*
X129610338Y-94455187D01*
X129599139Y-94428151D01*
X129578447Y-94407459D01*
X129551411Y-94396260D01*
X129522147Y-94396260D01*
X129495111Y-94407459D01*
X129474419Y-94428151D01*
X129463220Y-94455187D01*
X129461779Y-94469819D01*
X129350668Y-94469819D01*
X129350668Y-94283708D01*
X132294318Y-94283708D01*
X132294318Y-95655930D01*
G37*
X132509160Y-120697200D02*
X132652017Y-120744819D01*
X132652017Y-120744819D02*
X132890112Y-120744819D01*
X132890112Y-120744819D02*
X132985350Y-120697200D01*
X132985350Y-120697200D02*
X133032969Y-120649580D01*
X133032969Y-120649580D02*
X133080588Y-120554342D01*
X133080588Y-120554342D02*
X133080588Y-120459104D01*
X133080588Y-120459104D02*
X133032969Y-120363866D01*
X133032969Y-120363866D02*
X132985350Y-120316247D01*
X132985350Y-120316247D02*
X132890112Y-120268628D01*
X132890112Y-120268628D02*
X132699636Y-120221009D01*
X132699636Y-120221009D02*
X132604398Y-120173390D01*
X132604398Y-120173390D02*
X132556779Y-120125771D01*
X132556779Y-120125771D02*
X132509160Y-120030533D01*
X132509160Y-120030533D02*
X132509160Y-119935295D01*
X132509160Y-119935295D02*
X132556779Y-119840057D01*
X132556779Y-119840057D02*
X132604398Y-119792438D01*
X132604398Y-119792438D02*
X132699636Y-119744819D01*
X132699636Y-119744819D02*
X132937731Y-119744819D01*
X132937731Y-119744819D02*
X133080588Y-119792438D01*
X133413922Y-119744819D02*
X133652017Y-120744819D01*
X133652017Y-120744819D02*
X133842493Y-120030533D01*
X133842493Y-120030533D02*
X134032969Y-120744819D01*
X134032969Y-120744819D02*
X134271065Y-119744819D01*
X134842493Y-119744819D02*
X135032969Y-119744819D01*
X135032969Y-119744819D02*
X135128207Y-119792438D01*
X135128207Y-119792438D02*
X135223445Y-119887676D01*
X135223445Y-119887676D02*
X135271064Y-120078152D01*
X135271064Y-120078152D02*
X135271064Y-120411485D01*
X135271064Y-120411485D02*
X135223445Y-120601961D01*
X135223445Y-120601961D02*
X135128207Y-120697200D01*
X135128207Y-120697200D02*
X135032969Y-120744819D01*
X135032969Y-120744819D02*
X134842493Y-120744819D01*
X134842493Y-120744819D02*
X134747255Y-120697200D01*
X134747255Y-120697200D02*
X134652017Y-120601961D01*
X134652017Y-120601961D02*
X134604398Y-120411485D01*
X134604398Y-120411485D02*
X134604398Y-120078152D01*
X134604398Y-120078152D02*
X134652017Y-119887676D01*
X134652017Y-119887676D02*
X134747255Y-119792438D01*
X134747255Y-119792438D02*
X134842493Y-119744819D01*
X133298207Y-118744819D02*
X132964874Y-118268628D01*
X132726779Y-118744819D02*
X132726779Y-117744819D01*
X132726779Y-117744819D02*
X133107731Y-117744819D01*
X133107731Y-117744819D02*
X133202969Y-117792438D01*
X133202969Y-117792438D02*
X133250588Y-117840057D01*
X133250588Y-117840057D02*
X133298207Y-117935295D01*
X133298207Y-117935295D02*
X133298207Y-118078152D01*
X133298207Y-118078152D02*
X133250588Y-118173390D01*
X133250588Y-118173390D02*
X133202969Y-118221009D01*
X133202969Y-118221009D02*
X133107731Y-118268628D01*
X133107731Y-118268628D02*
X132726779Y-118268628D01*
X133679160Y-118697200D02*
X133822017Y-118744819D01*
X133822017Y-118744819D02*
X134060112Y-118744819D01*
X134060112Y-118744819D02*
X134155350Y-118697200D01*
X134155350Y-118697200D02*
X134202969Y-118649580D01*
X134202969Y-118649580D02*
X134250588Y-118554342D01*
X134250588Y-118554342D02*
X134250588Y-118459104D01*
X134250588Y-118459104D02*
X134202969Y-118363866D01*
X134202969Y-118363866D02*
X134155350Y-118316247D01*
X134155350Y-118316247D02*
X134060112Y-118268628D01*
X134060112Y-118268628D02*
X133869636Y-118221009D01*
X133869636Y-118221009D02*
X133774398Y-118173390D01*
X133774398Y-118173390D02*
X133726779Y-118125771D01*
X133726779Y-118125771D02*
X133679160Y-118030533D01*
X133679160Y-118030533D02*
X133679160Y-117935295D01*
X133679160Y-117935295D02*
X133726779Y-117840057D01*
X133726779Y-117840057D02*
X133774398Y-117792438D01*
X133774398Y-117792438D02*
X133869636Y-117744819D01*
X133869636Y-117744819D02*
X134107731Y-117744819D01*
X134107731Y-117744819D02*
X134250588Y-117792438D01*
X134536303Y-117744819D02*
X135107731Y-117744819D01*
X134822017Y-118744819D02*
X134822017Y-117744819D01*
X136408207Y-118649580D02*
X136360588Y-118697200D01*
X136360588Y-118697200D02*
X136217731Y-118744819D01*
X136217731Y-118744819D02*
X136122493Y-118744819D01*
X136122493Y-118744819D02*
X135979636Y-118697200D01*
X135979636Y-118697200D02*
X135884398Y-118601961D01*
X135884398Y-118601961D02*
X135836779Y-118506723D01*
X135836779Y-118506723D02*
X135789160Y-118316247D01*
X135789160Y-118316247D02*
X135789160Y-118173390D01*
X135789160Y-118173390D02*
X135836779Y-117982914D01*
X135836779Y-117982914D02*
X135884398Y-117887676D01*
X135884398Y-117887676D02*
X135979636Y-117792438D01*
X135979636Y-117792438D02*
X136122493Y-117744819D01*
X136122493Y-117744819D02*
X136217731Y-117744819D01*
X136217731Y-117744819D02*
X136360588Y-117792438D01*
X136360588Y-117792438D02*
X136408207Y-117840057D01*
X137312969Y-118744819D02*
X136836779Y-118744819D01*
X136836779Y-118744819D02*
X136836779Y-117744819D01*
X137646303Y-118744819D02*
X137646303Y-117744819D01*
X138217731Y-118744819D02*
X137789160Y-118173390D01*
X138217731Y-117744819D02*
X137646303Y-118316247D01*
X135956779Y-120744819D02*
X135956779Y-119744819D01*
X135956779Y-119744819D02*
X136194874Y-119744819D01*
X136194874Y-119744819D02*
X136337731Y-119792438D01*
X136337731Y-119792438D02*
X136432969Y-119887676D01*
X136432969Y-119887676D02*
X136480588Y-119982914D01*
X136480588Y-119982914D02*
X136528207Y-120173390D01*
X136528207Y-120173390D02*
X136528207Y-120316247D01*
X136528207Y-120316247D02*
X136480588Y-120506723D01*
X136480588Y-120506723D02*
X136432969Y-120601961D01*
X136432969Y-120601961D02*
X136337731Y-120697200D01*
X136337731Y-120697200D02*
X136194874Y-120744819D01*
X136194874Y-120744819D02*
X135956779Y-120744819D01*
X136956779Y-120744819D02*
X136956779Y-119744819D01*
X137623445Y-119744819D02*
X137813921Y-119744819D01*
X137813921Y-119744819D02*
X137909159Y-119792438D01*
X137909159Y-119792438D02*
X138004397Y-119887676D01*
X138004397Y-119887676D02*
X138052016Y-120078152D01*
X138052016Y-120078152D02*
X138052016Y-120411485D01*
X138052016Y-120411485D02*
X138004397Y-120601961D01*
X138004397Y-120601961D02*
X137909159Y-120697200D01*
X137909159Y-120697200D02*
X137813921Y-120744819D01*
X137813921Y-120744819D02*
X137623445Y-120744819D01*
X137623445Y-120744819D02*
X137528207Y-120697200D01*
X137528207Y-120697200D02*
X137432969Y-120601961D01*
X137432969Y-120601961D02*
X137385350Y-120411485D01*
X137385350Y-120411485D02*
X137385350Y-120078152D01*
X137385350Y-120078152D02*
X137432969Y-119887676D01*
X137432969Y-119887676D02*
X137528207Y-119792438D01*
X137528207Y-119792438D02*
X137623445Y-119744819D01*
G36*
X137347217Y-108052990D02*
G01*
X137421330Y-108127103D01*
X137459823Y-108204090D01*
X137503207Y-108377624D01*
X137503207Y-108502013D01*
X137459823Y-108675547D01*
X137421329Y-108752534D01*
X137347217Y-108826647D01*
X137232704Y-108864819D01*
X137081779Y-108864819D01*
X137081779Y-108014819D01*
X137232704Y-108014819D01*
X137347217Y-108052990D01*
G37*
G36*
X139347217Y-108529180D02*
G01*
X139373711Y-108555674D01*
X139407969Y-108624190D01*
X139407969Y-108731637D01*
X139373710Y-108800153D01*
X139343303Y-108830561D01*
X139274788Y-108864819D01*
X138986541Y-108864819D01*
X138986541Y-108491009D01*
X139232704Y-108491009D01*
X139347217Y-108529180D01*
G37*
G36*
X139295685Y-108049077D02*
G01*
X139326092Y-108079484D01*
X139360350Y-108148000D01*
X139360350Y-108207828D01*
X139326092Y-108276344D01*
X139295685Y-108306751D01*
X139227169Y-108341009D01*
X138986541Y-108341009D01*
X138986541Y-108014819D01*
X139227169Y-108014819D01*
X139295685Y-108049077D01*
G37*
G36*
X141716699Y-109125930D02*
G01*
X136820668Y-109125930D01*
X136820668Y-107939819D01*
X136931779Y-107939819D01*
X136931779Y-108939819D01*
X136933220Y-108954451D01*
X136944419Y-108981487D01*
X136965111Y-109002179D01*
X136992147Y-109013378D01*
X137006779Y-109014819D01*
X137244874Y-109014819D01*
X137252279Y-109014089D01*
X137254254Y-109014230D01*
X137256851Y-109013639D01*
X137259506Y-109013378D01*
X137261337Y-109012619D01*
X137268591Y-109010970D01*
X137411448Y-108963351D01*
X137424873Y-108957357D01*
X137426908Y-108955591D01*
X137429399Y-108954560D01*
X137440764Y-108945233D01*
X137536003Y-108849993D01*
X137540720Y-108844244D01*
X137542219Y-108842945D01*
X137543640Y-108840686D01*
X137545330Y-108838628D01*
X137546087Y-108836798D01*
X137550051Y-108830502D01*
X137597670Y-108735264D01*
X137598079Y-108734194D01*
X137598402Y-108733759D01*
X137600594Y-108727622D01*
X137602925Y-108721533D01*
X137602963Y-108720992D01*
X137603349Y-108719913D01*
X137650968Y-108529437D01*
X137651343Y-108526900D01*
X137651766Y-108525879D01*
X137652308Y-108520366D01*
X137653118Y-108514893D01*
X137652955Y-108513800D01*
X137653207Y-108511247D01*
X137653207Y-108368390D01*
X137652955Y-108365836D01*
X137653118Y-108364744D01*
X137652308Y-108359270D01*
X137651766Y-108353758D01*
X137651343Y-108352736D01*
X137650968Y-108350200D01*
X137603349Y-108159724D01*
X137602963Y-108158644D01*
X137602925Y-108158104D01*
X137600594Y-108152014D01*
X137598402Y-108145878D01*
X137598079Y-108145442D01*
X137597670Y-108144373D01*
X137550051Y-108049135D01*
X137546088Y-108042840D01*
X137545330Y-108041008D01*
X137543638Y-108038946D01*
X137542219Y-108036692D01*
X137540722Y-108035393D01*
X137536002Y-108029643D01*
X137446178Y-107939819D01*
X137931779Y-107939819D01*
X137931779Y-108939819D01*
X137933220Y-108954451D01*
X137944419Y-108981487D01*
X137965111Y-109002179D01*
X137992147Y-109013378D01*
X138006779Y-109014819D01*
X138482969Y-109014819D01*
X138497601Y-109013378D01*
X138524637Y-109002179D01*
X138545329Y-108981487D01*
X138556528Y-108954451D01*
X138556528Y-108925187D01*
X138545329Y-108898151D01*
X138524637Y-108877459D01*
X138497601Y-108866260D01*
X138482969Y-108864819D01*
X138081779Y-108864819D01*
X138081779Y-108491009D01*
X138340112Y-108491009D01*
X138354744Y-108489568D01*
X138381780Y-108478369D01*
X138402472Y-108457677D01*
X138413671Y-108430641D01*
X138413671Y-108401377D01*
X138402472Y-108374341D01*
X138381780Y-108353649D01*
X138354744Y-108342450D01*
X138340112Y-108341009D01*
X138081779Y-108341009D01*
X138081779Y-108014819D01*
X138482969Y-108014819D01*
X138497601Y-108013378D01*
X138524637Y-108002179D01*
X138545329Y-107981487D01*
X138556528Y-107954451D01*
X138556528Y-107939819D01*
X138836541Y-107939819D01*
X138836541Y-108939819D01*
X138837982Y-108954451D01*
X138849181Y-108981487D01*
X138869873Y-109002179D01*
X138896909Y-109013378D01*
X138911541Y-109014819D01*
X139292493Y-109014819D01*
X139307125Y-109013378D01*
X139309614Y-109012346D01*
X139312302Y-109012156D01*
X139326034Y-109006901D01*
X139421272Y-108959282D01*
X139427571Y-108955317D01*
X139429399Y-108954560D01*
X139431455Y-108952872D01*
X139433715Y-108951450D01*
X139435015Y-108949950D01*
X139440765Y-108945232D01*
X139488383Y-108897613D01*
X139493101Y-108891863D01*
X139494600Y-108890564D01*
X139496021Y-108888305D01*
X139497711Y-108886247D01*
X139498468Y-108884417D01*
X139502432Y-108878121D01*
X139550051Y-108782883D01*
X139555306Y-108769152D01*
X139555497Y-108766462D01*
X139556528Y-108763974D01*
X139557969Y-108749342D01*
X139557969Y-108606485D01*
X139556528Y-108591853D01*
X139555497Y-108589364D01*
X139555306Y-108586675D01*
X139550051Y-108572944D01*
X139502432Y-108477706D01*
X139498467Y-108471406D01*
X139497710Y-108469579D01*
X139496021Y-108467522D01*
X139494600Y-108465263D01*
X139493101Y-108463963D01*
X139488383Y-108458214D01*
X139440764Y-108410595D01*
X139429399Y-108401268D01*
X139426908Y-108400236D01*
X139424873Y-108398471D01*
X139418805Y-108395762D01*
X139440764Y-108373804D01*
X139445482Y-108368054D01*
X139446981Y-108366755D01*
X139448402Y-108364495D01*
X139450091Y-108362439D01*
X139450848Y-108360611D01*
X139454813Y-108354312D01*
X139502432Y-108259074D01*
X139507687Y-108245343D01*
X139507878Y-108242653D01*
X139508909Y-108240165D01*
X139510350Y-108225533D01*
X139510350Y-108130295D01*
X139508909Y-108115663D01*
X139507878Y-108113174D01*
X139507687Y-108110485D01*
X139502432Y-108096754D01*
X139454813Y-108001516D01*
X139450848Y-107995216D01*
X139450091Y-107993389D01*
X139448402Y-107991332D01*
X139446981Y-107989073D01*
X139445482Y-107987773D01*
X139440764Y-107982024D01*
X139398559Y-107939819D01*
X139836541Y-107939819D01*
X139836541Y-108749342D01*
X139837982Y-108763974D01*
X139839013Y-108766463D01*
X139839204Y-108769151D01*
X139844459Y-108782883D01*
X139892078Y-108878121D01*
X139896041Y-108884417D01*
X139896799Y-108886247D01*
X139898488Y-108888305D01*
X139899910Y-108890564D01*
X139901408Y-108891863D01*
X139906126Y-108897612D01*
X139953745Y-108945232D01*
X139959494Y-108949950D01*
X139960795Y-108951450D01*
X139963054Y-108952872D01*
X139965111Y-108954560D01*
X139966938Y-108955317D01*
X139973238Y-108959282D01*
X140068476Y-109006901D01*
X140082207Y-109012156D01*
X140084896Y-109012347D01*
X140087385Y-109013378D01*
X140102017Y-109014819D01*
X140292493Y-109014819D01*
X140307125Y-109013378D01*
X140309614Y-109012346D01*
X140312302Y-109012156D01*
X140326034Y-109006901D01*
X140421272Y-108959282D01*
X140427571Y-108955317D01*
X140429399Y-108954560D01*
X140431455Y-108952872D01*
X140433715Y-108951450D01*
X140435015Y-108949950D01*
X140440765Y-108945232D01*
X140488383Y-108897613D01*
X140493101Y-108891863D01*
X140494600Y-108890564D01*
X140496021Y-108888305D01*
X140497711Y-108886247D01*
X140498468Y-108884417D01*
X140502432Y-108878121D01*
X140550051Y-108782883D01*
X140555306Y-108769152D01*
X140555497Y-108766462D01*
X140556528Y-108763974D01*
X140557969Y-108749342D01*
X140557969Y-108368390D01*
X140836541Y-108368390D01*
X140836541Y-108511247D01*
X140836792Y-108513800D01*
X140836630Y-108514893D01*
X140837439Y-108520366D01*
X140837982Y-108525879D01*
X140838404Y-108526900D01*
X140838780Y-108529437D01*
X140886399Y-108719913D01*
X140886784Y-108720992D01*
X140886823Y-108721532D01*
X140889150Y-108727613D01*
X140891346Y-108733759D01*
X140891668Y-108734194D01*
X140892078Y-108735264D01*
X140939697Y-108830502D01*
X140943660Y-108836798D01*
X140944418Y-108838628D01*
X140946107Y-108840686D01*
X140947529Y-108842945D01*
X140949027Y-108844244D01*
X140953746Y-108849994D01*
X141048984Y-108945233D01*
X141060349Y-108954561D01*
X141062839Y-108955592D01*
X141064874Y-108957357D01*
X141078300Y-108963351D01*
X141221156Y-109010970D01*
X141228411Y-109012619D01*
X141230242Y-109013378D01*
X141232895Y-109013639D01*
X141235493Y-109014230D01*
X141237467Y-109014089D01*
X141244874Y-109014819D01*
X141340112Y-109014819D01*
X141347517Y-109014089D01*
X141349492Y-109014230D01*
X141352089Y-109013639D01*
X141354744Y-109013378D01*
X141356575Y-109012619D01*
X141363829Y-109010970D01*
X141506686Y-108963351D01*
X141520111Y-108957357D01*
X141522146Y-108955591D01*
X141524637Y-108954560D01*
X141536003Y-108945232D01*
X141583621Y-108897613D01*
X141592949Y-108886247D01*
X141600230Y-108868668D01*
X141604147Y-108859212D01*
X141605588Y-108844580D01*
X141605588Y-108511247D01*
X141604147Y-108496615D01*
X141592948Y-108469579D01*
X141572256Y-108448887D01*
X141545220Y-108437688D01*
X141530588Y-108436247D01*
X141340112Y-108436247D01*
X141325480Y-108437688D01*
X141298444Y-108448887D01*
X141277752Y-108469579D01*
X141266553Y-108496615D01*
X141266553Y-108525879D01*
X141277752Y-108552915D01*
X141298444Y-108573607D01*
X141325480Y-108584806D01*
X141340112Y-108586247D01*
X141455588Y-108586247D01*
X141455588Y-108813514D01*
X141442455Y-108826647D01*
X141327942Y-108864819D01*
X141257044Y-108864819D01*
X141142531Y-108826648D01*
X141068418Y-108752534D01*
X141029924Y-108675547D01*
X140986541Y-108502013D01*
X140986541Y-108377624D01*
X141029924Y-108204090D01*
X141068418Y-108127103D01*
X141142531Y-108052990D01*
X141257044Y-108014819D01*
X141370026Y-108014819D01*
X141449428Y-108054520D01*
X141463159Y-108059775D01*
X141492349Y-108061849D01*
X141520111Y-108052595D01*
X141542218Y-108033422D01*
X141555306Y-108007247D01*
X141557380Y-107978057D01*
X141548126Y-107950296D01*
X141528953Y-107928188D01*
X141516510Y-107920356D01*
X141421272Y-107872737D01*
X141407540Y-107867482D01*
X141404852Y-107867291D01*
X141402363Y-107866260D01*
X141387731Y-107864819D01*
X141244874Y-107864819D01*
X141237467Y-107865548D01*
X141235493Y-107865408D01*
X141232895Y-107865998D01*
X141230242Y-107866260D01*
X141228411Y-107867018D01*
X141221156Y-107868668D01*
X141078300Y-107916287D01*
X141064874Y-107922281D01*
X141062839Y-107924045D01*
X141060349Y-107925077D01*
X141048984Y-107934405D01*
X140953746Y-108029643D01*
X140949027Y-108035392D01*
X140947529Y-108036692D01*
X140946107Y-108038951D01*
X140944419Y-108041008D01*
X140943661Y-108042835D01*
X140939697Y-108049135D01*
X140892078Y-108144373D01*
X140891668Y-108145442D01*
X140891346Y-108145878D01*
X140889150Y-108152023D01*
X140886823Y-108158105D01*
X140886784Y-108158644D01*
X140886399Y-108159724D01*
X140838780Y-108350200D01*
X140838404Y-108352736D01*
X140837982Y-108353758D01*
X140837439Y-108359270D01*
X140836630Y-108364744D01*
X140836792Y-108365836D01*
X140836541Y-108368390D01*
X140557969Y-108368390D01*
X140557969Y-107939819D01*
X140556528Y-107925187D01*
X140545329Y-107898151D01*
X140524637Y-107877459D01*
X140497601Y-107866260D01*
X140468337Y-107866260D01*
X140441301Y-107877459D01*
X140420609Y-107898151D01*
X140409410Y-107925187D01*
X140407969Y-107939819D01*
X140407969Y-108731637D01*
X140373710Y-108800153D01*
X140343303Y-108830561D01*
X140274788Y-108864819D01*
X140119722Y-108864819D01*
X140051206Y-108830561D01*
X140020799Y-108800153D01*
X139986541Y-108731637D01*
X139986541Y-107939819D01*
X139985100Y-107925187D01*
X139973901Y-107898151D01*
X139953209Y-107877459D01*
X139926173Y-107866260D01*
X139896909Y-107866260D01*
X139869873Y-107877459D01*
X139849181Y-107898151D01*
X139837982Y-107925187D01*
X139836541Y-107939819D01*
X139398559Y-107939819D01*
X139393145Y-107934405D01*
X139387395Y-107929686D01*
X139386096Y-107928188D01*
X139383836Y-107926766D01*
X139381780Y-107925078D01*
X139379952Y-107924320D01*
X139373653Y-107920356D01*
X139278415Y-107872737D01*
X139264683Y-107867482D01*
X139261995Y-107867291D01*
X139259506Y-107866260D01*
X139244874Y-107864819D01*
X138911541Y-107864819D01*
X138896909Y-107866260D01*
X138869873Y-107877459D01*
X138849181Y-107898151D01*
X138837982Y-107925187D01*
X138836541Y-107939819D01*
X138556528Y-107939819D01*
X138556528Y-107925187D01*
X138545329Y-107898151D01*
X138524637Y-107877459D01*
X138497601Y-107866260D01*
X138482969Y-107864819D01*
X138006779Y-107864819D01*
X137992147Y-107866260D01*
X137965111Y-107877459D01*
X137944419Y-107898151D01*
X137933220Y-107925187D01*
X137931779Y-107939819D01*
X137446178Y-107939819D01*
X137440764Y-107934405D01*
X137429399Y-107925078D01*
X137426908Y-107924046D01*
X137424873Y-107922281D01*
X137411448Y-107916287D01*
X137268591Y-107868668D01*
X137261337Y-107867018D01*
X137259506Y-107866260D01*
X137256851Y-107865998D01*
X137254254Y-107865408D01*
X137252279Y-107865548D01*
X137244874Y-107864819D01*
X137006779Y-107864819D01*
X136992147Y-107866260D01*
X136965111Y-107877459D01*
X136944419Y-107898151D01*
X136933220Y-107925187D01*
X136931779Y-107939819D01*
X136820668Y-107939819D01*
X136820668Y-107753708D01*
X141716699Y-107753708D01*
X141716699Y-109125930D01*
G37*
G36*
X148368542Y-107629077D02*
G01*
X148398949Y-107659484D01*
X148433207Y-107728000D01*
X148433207Y-107835447D01*
X148398949Y-107903963D01*
X148368542Y-107934370D01*
X148300026Y-107968628D01*
X148011779Y-107968628D01*
X148011779Y-107594819D01*
X148300026Y-107594819D01*
X148368542Y-107629077D01*
G37*
G36*
X150502401Y-108705930D02*
G01*
X147750668Y-108705930D01*
X147750668Y-107519819D01*
X147861779Y-107519819D01*
X147861779Y-108519819D01*
X147863220Y-108534451D01*
X147874419Y-108561487D01*
X147895111Y-108582179D01*
X147922147Y-108593378D01*
X147951411Y-108593378D01*
X147978447Y-108582179D01*
X147999139Y-108561487D01*
X148010338Y-108534451D01*
X148011779Y-108519819D01*
X148011779Y-108118628D01*
X148135825Y-108118628D01*
X148446765Y-108562829D01*
X148456336Y-108573989D01*
X148481015Y-108589716D01*
X148509832Y-108594802D01*
X148538403Y-108588472D01*
X148562377Y-108571690D01*
X148578104Y-108547012D01*
X148583189Y-108518194D01*
X148576860Y-108489623D01*
X148569650Y-108476810D01*
X148318846Y-108118518D01*
X148332363Y-108117187D01*
X148334852Y-108116155D01*
X148337540Y-108115965D01*
X148351272Y-108110710D01*
X148446510Y-108063091D01*
X148452809Y-108059126D01*
X148454637Y-108058369D01*
X148456693Y-108056680D01*
X148458953Y-108055259D01*
X148460252Y-108053760D01*
X148466002Y-108049042D01*
X148513621Y-108001423D01*
X148518339Y-107995673D01*
X148519838Y-107994374D01*
X148521259Y-107992114D01*
X148522948Y-107990058D01*
X148523705Y-107988230D01*
X148527670Y-107981931D01*
X148575289Y-107886693D01*
X148580544Y-107872962D01*
X148580735Y-107870272D01*
X148581766Y-107867784D01*
X148583207Y-107853152D01*
X148583207Y-107710295D01*
X148814160Y-107710295D01*
X148814160Y-107805533D01*
X148815601Y-107820165D01*
X148816632Y-107822654D01*
X148816823Y-107825342D01*
X148822078Y-107839074D01*
X148869697Y-107934312D01*
X148873661Y-107940611D01*
X148874419Y-107942439D01*
X148876107Y-107944495D01*
X148877529Y-107946755D01*
X148879027Y-107948054D01*
X148883746Y-107953804D01*
X148931365Y-108001423D01*
X148937114Y-108006141D01*
X148938414Y-108007640D01*
X148940673Y-108009061D01*
X148942730Y-108010750D01*
X148944557Y-108011507D01*
X148950857Y-108015472D01*
X149046095Y-108063091D01*
X149047164Y-108063500D01*
X149047600Y-108063823D01*
X149053736Y-108066015D01*
X149059826Y-108068346D01*
X149060366Y-108068384D01*
X149061446Y-108068770D01*
X149243936Y-108114392D01*
X149320923Y-108152886D01*
X149351330Y-108183293D01*
X149385588Y-108251809D01*
X149385588Y-108311637D01*
X149351329Y-108380153D01*
X149320922Y-108410561D01*
X149252407Y-108444819D01*
X149044187Y-108444819D01*
X148912877Y-108401049D01*
X148898540Y-108397789D01*
X148869350Y-108399864D01*
X148843177Y-108412950D01*
X148824003Y-108435057D01*
X148814749Y-108462820D01*
X148816824Y-108492010D01*
X148829910Y-108518183D01*
X148852017Y-108537357D01*
X148865443Y-108543351D01*
X149008299Y-108590970D01*
X149015554Y-108592619D01*
X149017385Y-108593378D01*
X149020038Y-108593639D01*
X149022636Y-108594230D01*
X149024610Y-108594089D01*
X149032017Y-108594819D01*
X149270112Y-108594819D01*
X149284744Y-108593378D01*
X149287233Y-108592346D01*
X149289921Y-108592156D01*
X149303653Y-108586901D01*
X149398891Y-108539282D01*
X149405190Y-108535317D01*
X149407018Y-108534560D01*
X149409074Y-108532872D01*
X149411334Y-108531450D01*
X149412634Y-108529950D01*
X149418384Y-108525232D01*
X149466002Y-108477613D01*
X149470720Y-108471863D01*
X149472219Y-108470564D01*
X149473640Y-108468305D01*
X149475330Y-108466247D01*
X149476087Y-108464417D01*
X149480051Y-108458121D01*
X149527670Y-108362883D01*
X149532925Y-108349152D01*
X149533116Y-108346462D01*
X149534147Y-108343974D01*
X149535588Y-108329342D01*
X149535588Y-108234104D01*
X149534147Y-108219472D01*
X149533116Y-108216983D01*
X149532925Y-108214294D01*
X149527670Y-108200563D01*
X149480051Y-108105325D01*
X149476086Y-108099025D01*
X149475329Y-108097198D01*
X149473640Y-108095141D01*
X149472219Y-108092882D01*
X149470720Y-108091582D01*
X149466002Y-108085833D01*
X149418383Y-108038214D01*
X149412633Y-108033495D01*
X149411334Y-108031997D01*
X149409074Y-108030575D01*
X149407018Y-108028887D01*
X149405190Y-108028129D01*
X149398891Y-108024165D01*
X149303653Y-107976546D01*
X149302583Y-107976136D01*
X149302148Y-107975814D01*
X149296002Y-107973618D01*
X149289921Y-107971291D01*
X149289381Y-107971252D01*
X149288302Y-107970867D01*
X149105812Y-107925244D01*
X149028825Y-107886751D01*
X148998418Y-107856344D01*
X148964160Y-107787828D01*
X148964160Y-107728000D01*
X148998418Y-107659484D01*
X149028825Y-107629077D01*
X149097341Y-107594819D01*
X149305561Y-107594819D01*
X149436870Y-107638589D01*
X149451207Y-107641849D01*
X149480397Y-107639774D01*
X149506571Y-107626688D01*
X149525745Y-107604580D01*
X149534999Y-107576818D01*
X149532924Y-107547628D01*
X149519837Y-107521455D01*
X149501081Y-107505187D01*
X149672744Y-107505187D01*
X149672744Y-107534451D01*
X149683943Y-107561487D01*
X149704635Y-107582179D01*
X149731671Y-107593378D01*
X149746303Y-107594819D01*
X149957017Y-107594819D01*
X149957017Y-108519819D01*
X149958458Y-108534451D01*
X149969657Y-108561487D01*
X149990349Y-108582179D01*
X150017385Y-108593378D01*
X150046649Y-108593378D01*
X150073685Y-108582179D01*
X150094377Y-108561487D01*
X150105576Y-108534451D01*
X150107017Y-108519819D01*
X150107017Y-107594819D01*
X150317731Y-107594819D01*
X150332363Y-107593378D01*
X150359399Y-107582179D01*
X150380091Y-107561487D01*
X150391290Y-107534451D01*
X150391290Y-107505187D01*
X150380091Y-107478151D01*
X150359399Y-107457459D01*
X150332363Y-107446260D01*
X150317731Y-107444819D01*
X149746303Y-107444819D01*
X149731671Y-107446260D01*
X149704635Y-107457459D01*
X149683943Y-107478151D01*
X149672744Y-107505187D01*
X149501081Y-107505187D01*
X149497730Y-107502281D01*
X149484305Y-107496287D01*
X149341448Y-107448668D01*
X149334194Y-107447018D01*
X149332363Y-107446260D01*
X149329708Y-107445998D01*
X149327111Y-107445408D01*
X149325136Y-107445548D01*
X149317731Y-107444819D01*
X149079636Y-107444819D01*
X149065004Y-107446260D01*
X149062515Y-107447290D01*
X149059826Y-107447482D01*
X149046095Y-107452737D01*
X148950857Y-107500356D01*
X148944557Y-107504320D01*
X148942730Y-107505078D01*
X148940673Y-107506766D01*
X148938414Y-107508188D01*
X148937114Y-107509686D01*
X148931365Y-107514405D01*
X148883746Y-107562024D01*
X148879027Y-107567773D01*
X148877529Y-107569073D01*
X148876107Y-107571332D01*
X148874419Y-107573389D01*
X148873661Y-107575216D01*
X148869697Y-107581516D01*
X148822078Y-107676754D01*
X148816823Y-107690486D01*
X148816632Y-107693173D01*
X148815601Y-107695663D01*
X148814160Y-107710295D01*
X148583207Y-107710295D01*
X148581766Y-107695663D01*
X148580735Y-107693174D01*
X148580544Y-107690485D01*
X148575289Y-107676754D01*
X148527670Y-107581516D01*
X148523705Y-107575216D01*
X148522948Y-107573389D01*
X148521259Y-107571332D01*
X148519838Y-107569073D01*
X148518339Y-107567773D01*
X148513621Y-107562024D01*
X148466002Y-107514405D01*
X148460252Y-107509686D01*
X148458953Y-107508188D01*
X148456693Y-107506766D01*
X148454637Y-107505078D01*
X148452809Y-107504320D01*
X148446510Y-107500356D01*
X148351272Y-107452737D01*
X148337540Y-107447482D01*
X148334852Y-107447291D01*
X148332363Y-107446260D01*
X148317731Y-107444819D01*
X147936779Y-107444819D01*
X147922147Y-107446260D01*
X147895111Y-107457459D01*
X147874419Y-107478151D01*
X147863220Y-107505187D01*
X147861779Y-107519819D01*
X147750668Y-107519819D01*
X147750668Y-107333708D01*
X150502401Y-107333708D01*
X150502401Y-108705930D01*
G37*
G36*
X164875579Y-75259104D02*
G01*
X164607503Y-75259104D01*
X164741541Y-74856989D01*
X164875579Y-75259104D01*
G37*
G36*
X166878592Y-75805930D02*
G01*
X162603049Y-75805930D01*
X162603049Y-74810295D01*
X162714160Y-74810295D01*
X162714160Y-74905533D01*
X162715601Y-74920165D01*
X162716632Y-74922654D01*
X162716823Y-74925342D01*
X162722078Y-74939074D01*
X162769697Y-75034312D01*
X162773661Y-75040611D01*
X162774419Y-75042439D01*
X162776107Y-75044495D01*
X162777529Y-75046755D01*
X162779027Y-75048054D01*
X162783746Y-75053804D01*
X162831365Y-75101423D01*
X162837114Y-75106141D01*
X162838414Y-75107640D01*
X162840673Y-75109061D01*
X162842730Y-75110750D01*
X162844557Y-75111507D01*
X162850857Y-75115472D01*
X162946095Y-75163091D01*
X162947164Y-75163500D01*
X162947600Y-75163823D01*
X162953736Y-75166015D01*
X162959826Y-75168346D01*
X162960366Y-75168384D01*
X162961446Y-75168770D01*
X163143936Y-75214392D01*
X163220923Y-75252886D01*
X163251330Y-75283293D01*
X163285588Y-75351809D01*
X163285588Y-75411637D01*
X163251329Y-75480153D01*
X163220922Y-75510561D01*
X163152407Y-75544819D01*
X162944187Y-75544819D01*
X162812877Y-75501049D01*
X162798540Y-75497789D01*
X162769350Y-75499864D01*
X162743177Y-75512950D01*
X162724003Y-75535057D01*
X162714749Y-75562820D01*
X162716824Y-75592010D01*
X162729910Y-75618183D01*
X162752017Y-75637357D01*
X162765443Y-75643351D01*
X162908299Y-75690970D01*
X162915554Y-75692619D01*
X162917385Y-75693378D01*
X162920038Y-75693639D01*
X162922636Y-75694230D01*
X162924610Y-75694089D01*
X162932017Y-75694819D01*
X163170112Y-75694819D01*
X163184744Y-75693378D01*
X163187233Y-75692346D01*
X163189921Y-75692156D01*
X163203653Y-75686901D01*
X163298891Y-75639282D01*
X163305190Y-75635317D01*
X163307018Y-75634560D01*
X163309074Y-75632872D01*
X163311334Y-75631450D01*
X163312634Y-75629950D01*
X163318384Y-75625232D01*
X163366002Y-75577613D01*
X163370720Y-75571863D01*
X163372219Y-75570564D01*
X163373640Y-75568305D01*
X163375330Y-75566247D01*
X163376087Y-75564417D01*
X163380051Y-75558121D01*
X163427670Y-75462883D01*
X163432925Y-75449152D01*
X163433116Y-75446462D01*
X163434147Y-75443974D01*
X163435588Y-75429342D01*
X163435588Y-75334104D01*
X163434147Y-75319472D01*
X163433116Y-75316983D01*
X163432925Y-75314294D01*
X163427670Y-75300563D01*
X163380051Y-75205325D01*
X163376086Y-75199025D01*
X163375329Y-75197198D01*
X163373640Y-75195141D01*
X163372219Y-75192882D01*
X163370720Y-75191582D01*
X163366002Y-75185833D01*
X163318383Y-75138214D01*
X163312633Y-75133495D01*
X163311334Y-75131997D01*
X163309074Y-75130575D01*
X163307018Y-75128887D01*
X163305190Y-75128129D01*
X163298891Y-75124165D01*
X163203653Y-75076546D01*
X163202583Y-75076136D01*
X163202148Y-75075814D01*
X163196002Y-75073618D01*
X163189921Y-75071291D01*
X163189381Y-75071252D01*
X163188302Y-75070867D01*
X163005812Y-75025244D01*
X162928825Y-74986751D01*
X162898418Y-74956344D01*
X162864160Y-74887828D01*
X162864160Y-74828000D01*
X162898418Y-74759484D01*
X162928825Y-74729077D01*
X162997341Y-74694819D01*
X163205561Y-74694819D01*
X163336870Y-74738589D01*
X163351207Y-74741849D01*
X163380397Y-74739774D01*
X163406571Y-74726688D01*
X163425745Y-74704580D01*
X163434999Y-74676818D01*
X163432924Y-74647628D01*
X163419837Y-74621455D01*
X163401081Y-74605187D01*
X163572744Y-74605187D01*
X163572744Y-74634451D01*
X163583943Y-74661487D01*
X163604635Y-74682179D01*
X163631671Y-74693378D01*
X163646303Y-74694819D01*
X163857017Y-74694819D01*
X163857017Y-75619819D01*
X163858458Y-75634451D01*
X163869657Y-75661487D01*
X163890349Y-75682179D01*
X163917385Y-75693378D01*
X163946649Y-75693378D01*
X163973685Y-75682179D01*
X163994377Y-75661487D01*
X164005576Y-75634451D01*
X164007017Y-75619819D01*
X164007017Y-75610439D01*
X164333797Y-75610439D01*
X164335872Y-75639629D01*
X164348958Y-75665802D01*
X164371065Y-75684976D01*
X164398828Y-75694230D01*
X164428018Y-75692155D01*
X164454191Y-75679069D01*
X164473365Y-75656962D01*
X164479359Y-75643536D01*
X164557503Y-75409104D01*
X164925579Y-75409104D01*
X165003723Y-75643536D01*
X165009717Y-75656961D01*
X165028891Y-75679068D01*
X165055064Y-75692155D01*
X165084254Y-75694230D01*
X165112016Y-75684976D01*
X165134124Y-75665802D01*
X165147210Y-75639628D01*
X165149285Y-75610438D01*
X165146025Y-75596102D01*
X164815720Y-74605187D01*
X165191792Y-74605187D01*
X165191792Y-74634451D01*
X165202991Y-74661487D01*
X165223683Y-74682179D01*
X165250719Y-74693378D01*
X165265351Y-74694819D01*
X165476065Y-74694819D01*
X165476065Y-75619819D01*
X165477506Y-75634451D01*
X165488705Y-75661487D01*
X165509397Y-75682179D01*
X165536433Y-75693378D01*
X165565697Y-75693378D01*
X165592733Y-75682179D01*
X165613425Y-75661487D01*
X165624624Y-75634451D01*
X165626065Y-75619819D01*
X165626065Y-74896152D01*
X166048083Y-74896152D01*
X166050157Y-74925342D01*
X166063244Y-74951517D01*
X166085352Y-74970690D01*
X166113113Y-74979944D01*
X166142303Y-74977870D01*
X166156035Y-74972615D01*
X166251273Y-74924996D01*
X166257572Y-74921031D01*
X166259400Y-74920274D01*
X166261456Y-74918585D01*
X166263716Y-74917164D01*
X166265015Y-74915665D01*
X166270765Y-74910947D01*
X166333208Y-74848504D01*
X166333208Y-75544819D01*
X166122494Y-75544819D01*
X166107862Y-75546260D01*
X166080826Y-75557459D01*
X166060134Y-75578151D01*
X166048935Y-75605187D01*
X166048935Y-75634451D01*
X166060134Y-75661487D01*
X166080826Y-75682179D01*
X166107862Y-75693378D01*
X166122494Y-75694819D01*
X166693922Y-75694819D01*
X166708554Y-75693378D01*
X166735590Y-75682179D01*
X166756282Y-75661487D01*
X166767481Y-75634451D01*
X166767481Y-75605187D01*
X166756282Y-75578151D01*
X166735590Y-75557459D01*
X166708554Y-75546260D01*
X166693922Y-75544819D01*
X166483208Y-75544819D01*
X166483208Y-74619819D01*
X166483202Y-74619766D01*
X166483208Y-74619740D01*
X166483192Y-74619663D01*
X166481767Y-74605187D01*
X166478925Y-74598326D01*
X166477469Y-74591045D01*
X166473379Y-74584938D01*
X166470568Y-74578151D01*
X166465319Y-74572902D01*
X166461186Y-74566730D01*
X166455069Y-74562652D01*
X166449876Y-74557459D01*
X166443016Y-74554617D01*
X166436837Y-74550498D01*
X166429628Y-74549072D01*
X166422840Y-74546260D01*
X166415413Y-74546260D01*
X166408129Y-74544819D01*
X166400924Y-74546260D01*
X166393576Y-74546260D01*
X166386715Y-74549101D01*
X166379435Y-74550558D01*
X166373329Y-74554646D01*
X166366540Y-74557459D01*
X166361289Y-74562709D01*
X166355120Y-74566841D01*
X166345899Y-74578099D01*
X166345848Y-74578151D01*
X166345838Y-74578173D01*
X166345804Y-74578216D01*
X166254684Y-74714896D01*
X166173305Y-74796275D01*
X166088953Y-74838451D01*
X166076510Y-74846283D01*
X166057337Y-74868391D01*
X166048083Y-74896152D01*
X165626065Y-74896152D01*
X165626065Y-74694819D01*
X165836779Y-74694819D01*
X165851411Y-74693378D01*
X165878447Y-74682179D01*
X165899139Y-74661487D01*
X165910338Y-74634451D01*
X165910338Y-74605187D01*
X165899139Y-74578151D01*
X165878447Y-74557459D01*
X165851411Y-74546260D01*
X165836779Y-74544819D01*
X165265351Y-74544819D01*
X165250719Y-74546260D01*
X165223683Y-74557459D01*
X165202991Y-74578151D01*
X165191792Y-74605187D01*
X164815720Y-74605187D01*
X164812692Y-74596102D01*
X164806698Y-74582676D01*
X164803186Y-74578627D01*
X164800791Y-74573836D01*
X164793687Y-74567674D01*
X164787524Y-74560569D01*
X164782730Y-74558172D01*
X164778683Y-74554662D01*
X164769761Y-74551688D01*
X164761351Y-74547483D01*
X164756006Y-74547103D01*
X164750921Y-74545408D01*
X164741541Y-74546074D01*
X164732161Y-74545408D01*
X164727075Y-74547103D01*
X164721731Y-74547483D01*
X164713323Y-74551687D01*
X164704398Y-74554662D01*
X164700347Y-74558175D01*
X164695558Y-74560570D01*
X164689399Y-74567670D01*
X164682291Y-74573836D01*
X164679894Y-74578629D01*
X164676384Y-74582677D01*
X164670390Y-74596102D01*
X164337057Y-75596102D01*
X164333797Y-75610439D01*
X164007017Y-75610439D01*
X164007017Y-74694819D01*
X164217731Y-74694819D01*
X164232363Y-74693378D01*
X164259399Y-74682179D01*
X164280091Y-74661487D01*
X164291290Y-74634451D01*
X164291290Y-74605187D01*
X164280091Y-74578151D01*
X164259399Y-74557459D01*
X164232363Y-74546260D01*
X164217731Y-74544819D01*
X163646303Y-74544819D01*
X163631671Y-74546260D01*
X163604635Y-74557459D01*
X163583943Y-74578151D01*
X163572744Y-74605187D01*
X163401081Y-74605187D01*
X163397730Y-74602281D01*
X163384305Y-74596287D01*
X163241448Y-74548668D01*
X163234194Y-74547018D01*
X163232363Y-74546260D01*
X163229708Y-74545998D01*
X163227111Y-74545408D01*
X163225136Y-74545548D01*
X163217731Y-74544819D01*
X162979636Y-74544819D01*
X162965004Y-74546260D01*
X162962515Y-74547290D01*
X162959826Y-74547482D01*
X162946095Y-74552737D01*
X162850857Y-74600356D01*
X162844557Y-74604320D01*
X162842730Y-74605078D01*
X162840673Y-74606766D01*
X162838414Y-74608188D01*
X162837114Y-74609686D01*
X162831365Y-74614405D01*
X162783746Y-74662024D01*
X162779027Y-74667773D01*
X162777529Y-74669073D01*
X162776107Y-74671332D01*
X162774419Y-74673389D01*
X162773661Y-74675216D01*
X162769697Y-74681516D01*
X162722078Y-74776754D01*
X162716823Y-74790486D01*
X162716632Y-74793173D01*
X162715601Y-74795663D01*
X162714160Y-74810295D01*
X162603049Y-74810295D01*
X162603049Y-74433708D01*
X166878592Y-74433708D01*
X166878592Y-75805930D01*
G37*
G36*
X165911399Y-118729077D02*
G01*
X165941806Y-118759484D01*
X165976064Y-118828000D01*
X165976064Y-118935447D01*
X165941806Y-119003963D01*
X165911399Y-119034370D01*
X165842883Y-119068628D01*
X165554636Y-119068628D01*
X165554636Y-118694819D01*
X165842883Y-118694819D01*
X165911399Y-118729077D01*
G37*
G36*
X163768542Y-118729077D02*
G01*
X163798949Y-118759484D01*
X163833207Y-118828000D01*
X163833207Y-118935447D01*
X163798949Y-119003963D01*
X163768542Y-119034370D01*
X163700026Y-119068628D01*
X163411779Y-119068628D01*
X163411779Y-118694819D01*
X163700026Y-118694819D01*
X163768542Y-118729077D01*
G37*
G36*
X166237175Y-119805913D02*
G01*
X163150668Y-119805913D01*
X163150668Y-118619819D01*
X163261779Y-118619819D01*
X163261779Y-119619819D01*
X163263220Y-119634451D01*
X163274419Y-119661487D01*
X163295111Y-119682179D01*
X163322147Y-119693378D01*
X163351411Y-119693378D01*
X163378447Y-119682179D01*
X163399139Y-119661487D01*
X163410338Y-119634451D01*
X163411779Y-119619819D01*
X163411779Y-119218628D01*
X163717731Y-119218628D01*
X163732363Y-119217187D01*
X163734852Y-119216155D01*
X163737540Y-119215965D01*
X163751272Y-119210710D01*
X163846510Y-119163091D01*
X163852809Y-119159126D01*
X163854637Y-119158369D01*
X163856693Y-119156680D01*
X163858953Y-119155259D01*
X163860252Y-119153760D01*
X163866002Y-119149042D01*
X163913621Y-119101423D01*
X163918339Y-119095673D01*
X163919838Y-119094374D01*
X163921259Y-119092114D01*
X163922948Y-119090058D01*
X163923705Y-119088230D01*
X163927670Y-119081931D01*
X163975289Y-118986693D01*
X163980544Y-118972962D01*
X163980735Y-118970272D01*
X163981766Y-118967784D01*
X163983207Y-118953152D01*
X163983207Y-118810295D01*
X163981766Y-118795663D01*
X163980735Y-118793174D01*
X163980544Y-118790485D01*
X163975289Y-118776754D01*
X163927670Y-118681516D01*
X163923705Y-118675216D01*
X163922948Y-118673389D01*
X163921259Y-118671332D01*
X163919838Y-118669073D01*
X163918339Y-118667773D01*
X163913621Y-118662024D01*
X163874220Y-118622623D01*
X164166593Y-118622623D01*
X164168581Y-118637191D01*
X164406676Y-119637191D01*
X164408405Y-119642210D01*
X164408645Y-119644012D01*
X164409587Y-119645640D01*
X164411466Y-119651091D01*
X164417852Y-119659915D01*
X164423307Y-119669337D01*
X164426364Y-119671677D01*
X164428623Y-119674798D01*
X164437898Y-119680505D01*
X164446545Y-119687124D01*
X164450265Y-119688116D01*
X164453545Y-119690134D01*
X164464299Y-119691858D01*
X164474821Y-119694664D01*
X164478636Y-119694157D01*
X164482440Y-119694767D01*
X164493038Y-119692243D01*
X164503829Y-119690810D01*
X164507160Y-119688881D01*
X164510908Y-119687989D01*
X164519732Y-119681602D01*
X164529154Y-119676148D01*
X164531494Y-119673090D01*
X164534615Y-119670832D01*
X164540322Y-119661556D01*
X164546941Y-119652910D01*
X164548966Y-119647510D01*
X164549951Y-119645910D01*
X164550238Y-119644118D01*
X164552104Y-119639144D01*
X164670111Y-119196613D01*
X164788120Y-119639144D01*
X164789985Y-119644119D01*
X164790273Y-119645910D01*
X164791257Y-119647509D01*
X164793283Y-119652911D01*
X164799903Y-119661559D01*
X164805609Y-119670832D01*
X164808729Y-119673090D01*
X164811070Y-119676148D01*
X164820491Y-119681602D01*
X164829316Y-119687989D01*
X164833063Y-119688881D01*
X164836395Y-119690810D01*
X164847188Y-119692244D01*
X164857784Y-119694767D01*
X164861585Y-119694157D01*
X164865404Y-119694665D01*
X164875935Y-119691856D01*
X164886679Y-119690134D01*
X164889955Y-119688118D01*
X164893679Y-119687125D01*
X164902329Y-119680503D01*
X164911601Y-119674798D01*
X164913859Y-119671677D01*
X164916917Y-119669337D01*
X164922372Y-119659914D01*
X164928758Y-119651091D01*
X164930635Y-119645642D01*
X164931579Y-119644013D01*
X164931818Y-119642209D01*
X164933548Y-119637191D01*
X165171644Y-118637191D01*
X165173632Y-118622623D01*
X165173182Y-118619819D01*
X165404636Y-118619819D01*
X165404636Y-119619819D01*
X165406077Y-119634451D01*
X165417276Y-119661487D01*
X165437968Y-119682179D01*
X165465004Y-119693378D01*
X165494268Y-119693378D01*
X165521304Y-119682179D01*
X165541996Y-119661487D01*
X165553195Y-119634451D01*
X165554636Y-119619819D01*
X165554636Y-119218628D01*
X165678682Y-119218628D01*
X165989622Y-119662829D01*
X165999193Y-119673989D01*
X166023872Y-119689716D01*
X166052689Y-119694802D01*
X166081260Y-119688472D01*
X166105234Y-119671690D01*
X166120961Y-119647012D01*
X166126046Y-119618194D01*
X166119717Y-119589623D01*
X166112507Y-119576810D01*
X165861703Y-119218518D01*
X165875220Y-119217187D01*
X165877709Y-119216155D01*
X165880397Y-119215965D01*
X165894129Y-119210710D01*
X165989367Y-119163091D01*
X165995666Y-119159126D01*
X165997494Y-119158369D01*
X165999550Y-119156680D01*
X166001810Y-119155259D01*
X166003109Y-119153760D01*
X166008859Y-119149042D01*
X166056478Y-119101423D01*
X166061196Y-119095673D01*
X166062695Y-119094374D01*
X166064116Y-119092114D01*
X166065805Y-119090058D01*
X166066562Y-119088230D01*
X166070527Y-119081931D01*
X166118146Y-118986693D01*
X166123401Y-118972962D01*
X166123592Y-118970272D01*
X166124623Y-118967784D01*
X166126064Y-118953152D01*
X166126064Y-118810295D01*
X166124623Y-118795663D01*
X166123592Y-118793174D01*
X166123401Y-118790485D01*
X166118146Y-118776754D01*
X166070527Y-118681516D01*
X166066562Y-118675216D01*
X166065805Y-118673389D01*
X166064116Y-118671332D01*
X166062695Y-118669073D01*
X166061196Y-118667773D01*
X166056478Y-118662024D01*
X166008859Y-118614405D01*
X166003109Y-118609686D01*
X166001810Y-118608188D01*
X165999550Y-118606766D01*
X165997494Y-118605078D01*
X165995666Y-118604320D01*
X165989367Y-118600356D01*
X165894129Y-118552737D01*
X165880397Y-118547482D01*
X165877709Y-118547291D01*
X165875220Y-118546260D01*
X165860588Y-118544819D01*
X165479636Y-118544819D01*
X165465004Y-118546260D01*
X165437968Y-118557459D01*
X165417276Y-118578151D01*
X165406077Y-118605187D01*
X165404636Y-118619819D01*
X165173182Y-118619819D01*
X165168999Y-118593728D01*
X165153663Y-118568806D01*
X165129956Y-118551650D01*
X165101488Y-118544871D01*
X165072593Y-118549504D01*
X165047671Y-118564840D01*
X165030514Y-118588547D01*
X165025724Y-118602448D01*
X164856471Y-119313303D01*
X164742580Y-118886208D01*
X164741294Y-118882780D01*
X164741103Y-118881339D01*
X164740111Y-118879626D01*
X164737417Y-118872442D01*
X164731402Y-118864583D01*
X164726441Y-118856015D01*
X164722582Y-118853061D01*
X164719630Y-118849204D01*
X164711065Y-118844245D01*
X164703203Y-118838227D01*
X164698506Y-118836974D01*
X164694305Y-118834542D01*
X164684498Y-118833239D01*
X164674928Y-118830687D01*
X164670109Y-118831327D01*
X164665297Y-118830688D01*
X164655736Y-118833237D01*
X164645919Y-118834542D01*
X164641713Y-118836976D01*
X164637021Y-118838228D01*
X164629161Y-118844243D01*
X164620594Y-118849204D01*
X164617640Y-118853062D01*
X164613783Y-118856015D01*
X164608824Y-118864580D01*
X164602807Y-118872441D01*
X164600110Y-118879630D01*
X164599121Y-118881340D01*
X164598929Y-118882779D01*
X164597644Y-118886208D01*
X164483752Y-119313303D01*
X164314501Y-118602447D01*
X164309711Y-118588547D01*
X164292554Y-118564840D01*
X164267632Y-118549504D01*
X164238737Y-118544871D01*
X164210269Y-118551649D01*
X164186562Y-118568806D01*
X164171226Y-118593728D01*
X164166593Y-118622623D01*
X163874220Y-118622623D01*
X163866002Y-118614405D01*
X163860252Y-118609686D01*
X163858953Y-118608188D01*
X163856693Y-118606766D01*
X163854637Y-118605078D01*
X163852809Y-118604320D01*
X163846510Y-118600356D01*
X163751272Y-118552737D01*
X163737540Y-118547482D01*
X163734852Y-118547291D01*
X163732363Y-118546260D01*
X163717731Y-118544819D01*
X163336779Y-118544819D01*
X163322147Y-118546260D01*
X163295111Y-118557459D01*
X163274419Y-118578151D01*
X163263220Y-118605187D01*
X163261779Y-118619819D01*
X163150668Y-118619819D01*
X163150668Y-118433708D01*
X166237175Y-118433708D01*
X166237175Y-119805913D01*
G37*
G36*
X167022455Y-104709180D02*
G01*
X167048949Y-104735674D01*
X167083207Y-104804190D01*
X167083207Y-104911637D01*
X167048948Y-104980153D01*
X167018541Y-105010561D01*
X166950026Y-105044819D01*
X166661779Y-105044819D01*
X166661779Y-104671009D01*
X166907942Y-104671009D01*
X167022455Y-104709180D01*
G37*
G36*
X166970923Y-104229077D02*
G01*
X167001330Y-104259484D01*
X167035588Y-104328000D01*
X167035588Y-104387828D01*
X167001330Y-104456344D01*
X166970923Y-104486751D01*
X166902407Y-104521009D01*
X166661779Y-104521009D01*
X166661779Y-104194819D01*
X166902407Y-104194819D01*
X166970923Y-104229077D01*
G37*
G36*
X168018542Y-104229077D02*
G01*
X168090484Y-104301019D01*
X168130826Y-104462386D01*
X168130826Y-104777251D01*
X168090484Y-104938617D01*
X168018541Y-105010561D01*
X167950026Y-105044819D01*
X167794960Y-105044819D01*
X167726444Y-105010561D01*
X167654501Y-104938617D01*
X167614160Y-104777251D01*
X167614160Y-104462386D01*
X167654501Y-104301019D01*
X167726444Y-104229077D01*
X167794960Y-104194819D01*
X167950026Y-104194819D01*
X168018542Y-104229077D01*
G37*
G36*
X169066161Y-104229077D02*
G01*
X169138103Y-104301019D01*
X169178445Y-104462386D01*
X169178445Y-104777251D01*
X169138103Y-104938617D01*
X169066160Y-105010561D01*
X168997645Y-105044819D01*
X168842579Y-105044819D01*
X168774063Y-105010561D01*
X168702120Y-104938617D01*
X168661779Y-104777251D01*
X168661779Y-104462386D01*
X168702120Y-104301019D01*
X168774063Y-104229077D01*
X168842579Y-104194819D01*
X168997645Y-104194819D01*
X169066161Y-104229077D01*
G37*
G36*
X170295258Y-105305930D02*
G01*
X166400668Y-105305930D01*
X166400668Y-104119819D01*
X166511779Y-104119819D01*
X166511779Y-105119819D01*
X166513220Y-105134451D01*
X166524419Y-105161487D01*
X166545111Y-105182179D01*
X166572147Y-105193378D01*
X166586779Y-105194819D01*
X166967731Y-105194819D01*
X166982363Y-105193378D01*
X166984852Y-105192346D01*
X166987540Y-105192156D01*
X167001272Y-105186901D01*
X167096510Y-105139282D01*
X167102809Y-105135317D01*
X167104637Y-105134560D01*
X167106693Y-105132872D01*
X167108953Y-105131450D01*
X167110253Y-105129950D01*
X167116003Y-105125232D01*
X167163621Y-105077613D01*
X167168339Y-105071863D01*
X167169838Y-105070564D01*
X167171259Y-105068305D01*
X167172949Y-105066247D01*
X167173706Y-105064417D01*
X167177670Y-105058121D01*
X167225289Y-104962883D01*
X167230544Y-104949152D01*
X167230735Y-104946462D01*
X167231766Y-104943974D01*
X167233207Y-104929342D01*
X167233207Y-104786485D01*
X167231766Y-104771853D01*
X167230735Y-104769364D01*
X167230544Y-104766675D01*
X167225289Y-104752944D01*
X167177670Y-104657706D01*
X167173705Y-104651406D01*
X167172948Y-104649579D01*
X167171259Y-104647522D01*
X167169838Y-104645263D01*
X167168339Y-104643963D01*
X167163621Y-104638214D01*
X167116002Y-104590595D01*
X167104637Y-104581268D01*
X167102146Y-104580236D01*
X167100111Y-104578471D01*
X167094043Y-104575762D01*
X167116002Y-104553804D01*
X167120720Y-104548054D01*
X167122219Y-104546755D01*
X167123640Y-104544495D01*
X167125329Y-104542439D01*
X167126086Y-104540611D01*
X167130051Y-104534312D01*
X167170631Y-104453152D01*
X167464160Y-104453152D01*
X167464160Y-104786485D01*
X167464411Y-104789038D01*
X167464249Y-104790131D01*
X167465058Y-104795604D01*
X167465601Y-104801117D01*
X167466023Y-104802138D01*
X167466399Y-104804675D01*
X167514018Y-104995151D01*
X167518965Y-105008997D01*
X167522284Y-105013476D01*
X167524418Y-105018628D01*
X167533746Y-105029994D01*
X167628984Y-105125233D01*
X167634734Y-105129953D01*
X167636033Y-105131450D01*
X167638287Y-105132869D01*
X167640349Y-105134561D01*
X167642181Y-105135319D01*
X167648476Y-105139282D01*
X167743714Y-105186901D01*
X167757445Y-105192156D01*
X167760134Y-105192347D01*
X167762623Y-105193378D01*
X167777255Y-105194819D01*
X167967731Y-105194819D01*
X167982363Y-105193378D01*
X167984852Y-105192346D01*
X167987540Y-105192156D01*
X168001272Y-105186901D01*
X168096510Y-105139282D01*
X168102809Y-105135317D01*
X168104637Y-105134560D01*
X168106693Y-105132871D01*
X168108953Y-105131450D01*
X168110252Y-105129951D01*
X168116002Y-105125233D01*
X168211241Y-105029993D01*
X168220568Y-105018628D01*
X168222701Y-105013476D01*
X168226021Y-105008997D01*
X168230968Y-104995151D01*
X168278587Y-104804675D01*
X168278962Y-104802138D01*
X168279385Y-104801117D01*
X168279927Y-104795604D01*
X168280737Y-104790131D01*
X168280574Y-104789038D01*
X168280826Y-104786485D01*
X168280826Y-104453152D01*
X168511779Y-104453152D01*
X168511779Y-104786485D01*
X168512030Y-104789038D01*
X168511868Y-104790131D01*
X168512677Y-104795604D01*
X168513220Y-104801117D01*
X168513642Y-104802138D01*
X168514018Y-104804675D01*
X168561637Y-104995151D01*
X168566584Y-105008997D01*
X168569903Y-105013476D01*
X168572037Y-105018628D01*
X168581365Y-105029994D01*
X168676603Y-105125233D01*
X168682353Y-105129953D01*
X168683652Y-105131450D01*
X168685906Y-105132869D01*
X168687968Y-105134561D01*
X168689800Y-105135319D01*
X168696095Y-105139282D01*
X168791333Y-105186901D01*
X168805064Y-105192156D01*
X168807753Y-105192347D01*
X168810242Y-105193378D01*
X168824874Y-105194819D01*
X169015350Y-105194819D01*
X169029982Y-105193378D01*
X169032471Y-105192346D01*
X169035159Y-105192156D01*
X169048891Y-105186901D01*
X169144129Y-105139282D01*
X169150428Y-105135317D01*
X169152256Y-105134560D01*
X169154312Y-105132871D01*
X169156572Y-105131450D01*
X169157871Y-105129951D01*
X169163621Y-105125233D01*
X169258860Y-105029993D01*
X169268187Y-105018628D01*
X169270320Y-105013476D01*
X169273640Y-105008997D01*
X169278587Y-104995151D01*
X169326206Y-104804675D01*
X169326581Y-104802138D01*
X169327004Y-104801117D01*
X169327546Y-104795604D01*
X169328356Y-104790131D01*
X169328193Y-104789038D01*
X169328445Y-104786485D01*
X169328445Y-104453152D01*
X169328193Y-104450598D01*
X169328356Y-104449506D01*
X169327546Y-104444032D01*
X169327004Y-104438520D01*
X169326581Y-104437498D01*
X169326206Y-104434962D01*
X169278587Y-104244486D01*
X169273640Y-104230640D01*
X169270321Y-104226161D01*
X169268187Y-104221008D01*
X169258859Y-104209643D01*
X169163621Y-104114405D01*
X169157871Y-104109686D01*
X169156572Y-104108188D01*
X169154312Y-104106766D01*
X169152389Y-104105187D01*
X169465601Y-104105187D01*
X169465601Y-104134451D01*
X169476800Y-104161487D01*
X169497492Y-104182179D01*
X169524528Y-104193378D01*
X169539160Y-104194819D01*
X169749874Y-104194819D01*
X169749874Y-105119819D01*
X169751315Y-105134451D01*
X169762514Y-105161487D01*
X169783206Y-105182179D01*
X169810242Y-105193378D01*
X169839506Y-105193378D01*
X169866542Y-105182179D01*
X169887234Y-105161487D01*
X169898433Y-105134451D01*
X169899874Y-105119819D01*
X169899874Y-104194819D01*
X170110588Y-104194819D01*
X170125220Y-104193378D01*
X170152256Y-104182179D01*
X170172948Y-104161487D01*
X170184147Y-104134451D01*
X170184147Y-104105187D01*
X170172948Y-104078151D01*
X170152256Y-104057459D01*
X170125220Y-104046260D01*
X170110588Y-104044819D01*
X169539160Y-104044819D01*
X169524528Y-104046260D01*
X169497492Y-104057459D01*
X169476800Y-104078151D01*
X169465601Y-104105187D01*
X169152389Y-104105187D01*
X169152256Y-104105078D01*
X169150428Y-104104320D01*
X169144129Y-104100356D01*
X169048891Y-104052737D01*
X169035159Y-104047482D01*
X169032471Y-104047291D01*
X169029982Y-104046260D01*
X169015350Y-104044819D01*
X168824874Y-104044819D01*
X168810242Y-104046260D01*
X168807753Y-104047290D01*
X168805064Y-104047482D01*
X168791333Y-104052737D01*
X168696095Y-104100356D01*
X168689800Y-104104318D01*
X168687968Y-104105077D01*
X168685906Y-104106768D01*
X168683652Y-104108188D01*
X168682353Y-104109684D01*
X168676603Y-104114405D01*
X168581365Y-104209643D01*
X168572038Y-104221008D01*
X168569904Y-104226158D01*
X168566584Y-104230640D01*
X168561637Y-104244486D01*
X168514018Y-104434962D01*
X168513642Y-104437498D01*
X168513220Y-104438520D01*
X168512677Y-104444032D01*
X168511868Y-104449506D01*
X168512030Y-104450598D01*
X168511779Y-104453152D01*
X168280826Y-104453152D01*
X168280574Y-104450598D01*
X168280737Y-104449506D01*
X168279927Y-104444032D01*
X168279385Y-104438520D01*
X168278962Y-104437498D01*
X168278587Y-104434962D01*
X168230968Y-104244486D01*
X168226021Y-104230640D01*
X168222702Y-104226161D01*
X168220568Y-104221008D01*
X168211240Y-104209643D01*
X168116002Y-104114405D01*
X168110252Y-104109686D01*
X168108953Y-104108188D01*
X168106693Y-104106766D01*
X168104637Y-104105078D01*
X168102809Y-104104320D01*
X168096510Y-104100356D01*
X168001272Y-104052737D01*
X167987540Y-104047482D01*
X167984852Y-104047291D01*
X167982363Y-104046260D01*
X167967731Y-104044819D01*
X167777255Y-104044819D01*
X167762623Y-104046260D01*
X167760134Y-104047290D01*
X167757445Y-104047482D01*
X167743714Y-104052737D01*
X167648476Y-104100356D01*
X167642181Y-104104318D01*
X167640349Y-104105077D01*
X167638287Y-104106768D01*
X167636033Y-104108188D01*
X167634734Y-104109684D01*
X167628984Y-104114405D01*
X167533746Y-104209643D01*
X167524419Y-104221008D01*
X167522285Y-104226158D01*
X167518965Y-104230640D01*
X167514018Y-104244486D01*
X167466399Y-104434962D01*
X167466023Y-104437498D01*
X167465601Y-104438520D01*
X167465058Y-104444032D01*
X167464249Y-104449506D01*
X167464411Y-104450598D01*
X167464160Y-104453152D01*
X167170631Y-104453152D01*
X167177670Y-104439074D01*
X167182925Y-104425343D01*
X167183116Y-104422653D01*
X167184147Y-104420165D01*
X167185588Y-104405533D01*
X167185588Y-104310295D01*
X167184147Y-104295663D01*
X167183116Y-104293174D01*
X167182925Y-104290485D01*
X167177670Y-104276754D01*
X167130051Y-104181516D01*
X167126086Y-104175216D01*
X167125329Y-104173389D01*
X167123640Y-104171332D01*
X167122219Y-104169073D01*
X167120720Y-104167773D01*
X167116002Y-104162024D01*
X167068383Y-104114405D01*
X167062633Y-104109686D01*
X167061334Y-104108188D01*
X167059074Y-104106766D01*
X167057018Y-104105078D01*
X167055190Y-104104320D01*
X167048891Y-104100356D01*
X166953653Y-104052737D01*
X166939921Y-104047482D01*
X166937233Y-104047291D01*
X166934744Y-104046260D01*
X166920112Y-104044819D01*
X166586779Y-104044819D01*
X166572147Y-104046260D01*
X166545111Y-104057459D01*
X166524419Y-104078151D01*
X166513220Y-104105187D01*
X166511779Y-104119819D01*
X166400668Y-104119819D01*
X166400668Y-103933708D01*
X170295258Y-103933708D01*
X170295258Y-105305930D01*
G37*
X168277255Y-90247181D02*
X168277255Y-90723372D01*
X167943922Y-89723372D02*
X168277255Y-90247181D01*
X168277255Y-90247181D02*
X168610588Y-89723372D01*
G36*
X170625579Y-79759104D02*
G01*
X170357503Y-79759104D01*
X170491541Y-79356989D01*
X170625579Y-79759104D01*
G37*
G36*
X172630033Y-80305930D02*
G01*
X168353049Y-80305930D01*
X168353049Y-79310295D01*
X168464160Y-79310295D01*
X168464160Y-79405533D01*
X168465601Y-79420165D01*
X168466632Y-79422654D01*
X168466823Y-79425342D01*
X168472078Y-79439074D01*
X168519697Y-79534312D01*
X168523661Y-79540611D01*
X168524419Y-79542439D01*
X168526107Y-79544495D01*
X168527529Y-79546755D01*
X168529027Y-79548054D01*
X168533746Y-79553804D01*
X168581365Y-79601423D01*
X168587114Y-79606141D01*
X168588414Y-79607640D01*
X168590673Y-79609061D01*
X168592730Y-79610750D01*
X168594557Y-79611507D01*
X168600857Y-79615472D01*
X168696095Y-79663091D01*
X168697164Y-79663500D01*
X168697600Y-79663823D01*
X168703736Y-79666015D01*
X168709826Y-79668346D01*
X168710366Y-79668384D01*
X168711446Y-79668770D01*
X168893936Y-79714392D01*
X168970923Y-79752886D01*
X169001330Y-79783293D01*
X169035588Y-79851809D01*
X169035588Y-79911637D01*
X169001329Y-79980153D01*
X168970922Y-80010561D01*
X168902407Y-80044819D01*
X168694187Y-80044819D01*
X168562877Y-80001049D01*
X168548540Y-79997789D01*
X168519350Y-79999864D01*
X168493177Y-80012950D01*
X168474003Y-80035057D01*
X168464749Y-80062820D01*
X168466824Y-80092010D01*
X168479910Y-80118183D01*
X168502017Y-80137357D01*
X168515443Y-80143351D01*
X168658299Y-80190970D01*
X168665554Y-80192619D01*
X168667385Y-80193378D01*
X168670038Y-80193639D01*
X168672636Y-80194230D01*
X168674610Y-80194089D01*
X168682017Y-80194819D01*
X168920112Y-80194819D01*
X168934744Y-80193378D01*
X168937233Y-80192346D01*
X168939921Y-80192156D01*
X168953653Y-80186901D01*
X169048891Y-80139282D01*
X169055190Y-80135317D01*
X169057018Y-80134560D01*
X169059074Y-80132872D01*
X169061334Y-80131450D01*
X169062634Y-80129950D01*
X169068384Y-80125232D01*
X169116002Y-80077613D01*
X169120720Y-80071863D01*
X169122219Y-80070564D01*
X169123640Y-80068305D01*
X169125330Y-80066247D01*
X169126087Y-80064417D01*
X169130051Y-80058121D01*
X169177670Y-79962883D01*
X169182925Y-79949152D01*
X169183116Y-79946462D01*
X169184147Y-79943974D01*
X169185588Y-79929342D01*
X169185588Y-79834104D01*
X169184147Y-79819472D01*
X169183116Y-79816983D01*
X169182925Y-79814294D01*
X169177670Y-79800563D01*
X169130051Y-79705325D01*
X169126086Y-79699025D01*
X169125329Y-79697198D01*
X169123640Y-79695141D01*
X169122219Y-79692882D01*
X169120720Y-79691582D01*
X169116002Y-79685833D01*
X169068383Y-79638214D01*
X169062633Y-79633495D01*
X169061334Y-79631997D01*
X169059074Y-79630575D01*
X169057018Y-79628887D01*
X169055190Y-79628129D01*
X169048891Y-79624165D01*
X168953653Y-79576546D01*
X168952583Y-79576136D01*
X168952148Y-79575814D01*
X168946002Y-79573618D01*
X168939921Y-79571291D01*
X168939381Y-79571252D01*
X168938302Y-79570867D01*
X168755812Y-79525244D01*
X168678825Y-79486751D01*
X168648418Y-79456344D01*
X168614160Y-79387828D01*
X168614160Y-79328000D01*
X168648418Y-79259484D01*
X168678825Y-79229077D01*
X168747341Y-79194819D01*
X168955561Y-79194819D01*
X169086870Y-79238589D01*
X169101207Y-79241849D01*
X169130397Y-79239774D01*
X169156571Y-79226688D01*
X169175745Y-79204580D01*
X169184999Y-79176818D01*
X169182924Y-79147628D01*
X169169837Y-79121455D01*
X169151081Y-79105187D01*
X169322744Y-79105187D01*
X169322744Y-79134451D01*
X169333943Y-79161487D01*
X169354635Y-79182179D01*
X169381671Y-79193378D01*
X169396303Y-79194819D01*
X169607017Y-79194819D01*
X169607017Y-80119819D01*
X169608458Y-80134451D01*
X169619657Y-80161487D01*
X169640349Y-80182179D01*
X169667385Y-80193378D01*
X169696649Y-80193378D01*
X169723685Y-80182179D01*
X169744377Y-80161487D01*
X169755576Y-80134451D01*
X169757017Y-80119819D01*
X169757017Y-80110439D01*
X170083797Y-80110439D01*
X170085872Y-80139629D01*
X170098958Y-80165802D01*
X170121065Y-80184976D01*
X170148828Y-80194230D01*
X170178018Y-80192155D01*
X170204191Y-80179069D01*
X170223365Y-80156962D01*
X170229359Y-80143536D01*
X170307503Y-79909104D01*
X170675579Y-79909104D01*
X170753723Y-80143536D01*
X170759717Y-80156961D01*
X170778891Y-80179068D01*
X170805064Y-80192155D01*
X170834254Y-80194230D01*
X170862016Y-80184976D01*
X170884124Y-80165802D01*
X170897210Y-80139628D01*
X170899285Y-80110438D01*
X170896025Y-80096102D01*
X170565720Y-79105187D01*
X170941792Y-79105187D01*
X170941792Y-79134451D01*
X170952991Y-79161487D01*
X170973683Y-79182179D01*
X171000719Y-79193378D01*
X171015351Y-79194819D01*
X171226065Y-79194819D01*
X171226065Y-80119819D01*
X171227506Y-80134451D01*
X171238705Y-80161487D01*
X171259397Y-80182179D01*
X171286433Y-80193378D01*
X171315697Y-80193378D01*
X171342733Y-80182179D01*
X171363425Y-80161487D01*
X171374624Y-80134451D01*
X171376065Y-80119819D01*
X171376065Y-80105187D01*
X171751316Y-80105187D01*
X171751316Y-80134451D01*
X171762515Y-80161487D01*
X171783207Y-80182179D01*
X171810243Y-80193378D01*
X171824875Y-80194819D01*
X172443922Y-80194819D01*
X172458554Y-80193378D01*
X172485590Y-80182179D01*
X172506282Y-80161487D01*
X172517481Y-80134451D01*
X172517481Y-80105187D01*
X172506282Y-80078151D01*
X172485590Y-80057459D01*
X172458554Y-80046260D01*
X172443922Y-80044819D01*
X172005941Y-80044819D01*
X172449336Y-79601423D01*
X172458664Y-79590058D01*
X172459695Y-79587567D01*
X172461460Y-79585533D01*
X172467454Y-79572107D01*
X172515073Y-79429251D01*
X172516722Y-79421995D01*
X172517481Y-79420165D01*
X172517742Y-79417511D01*
X172518333Y-79414914D01*
X172518192Y-79412939D01*
X172518922Y-79405533D01*
X172518922Y-79310295D01*
X172517481Y-79295663D01*
X172516450Y-79293174D01*
X172516259Y-79290485D01*
X172511004Y-79276754D01*
X172463385Y-79181516D01*
X172459420Y-79175216D01*
X172458663Y-79173389D01*
X172456974Y-79171332D01*
X172455553Y-79169073D01*
X172454054Y-79167773D01*
X172449336Y-79162024D01*
X172401717Y-79114405D01*
X172395967Y-79109686D01*
X172394668Y-79108188D01*
X172392408Y-79106766D01*
X172390352Y-79105078D01*
X172388524Y-79104320D01*
X172382225Y-79100356D01*
X172286987Y-79052737D01*
X172273255Y-79047482D01*
X172270567Y-79047291D01*
X172268078Y-79046260D01*
X172253446Y-79044819D01*
X172015351Y-79044819D01*
X172000719Y-79046260D01*
X171998230Y-79047290D01*
X171995541Y-79047482D01*
X171981810Y-79052737D01*
X171886572Y-79100356D01*
X171880272Y-79104320D01*
X171878445Y-79105078D01*
X171876388Y-79106766D01*
X171874129Y-79108188D01*
X171872829Y-79109686D01*
X171867080Y-79114405D01*
X171819461Y-79162024D01*
X171810134Y-79173389D01*
X171798935Y-79200426D01*
X171798935Y-79229688D01*
X171810134Y-79256725D01*
X171830826Y-79277417D01*
X171857863Y-79288616D01*
X171887125Y-79288616D01*
X171914162Y-79277417D01*
X171925527Y-79268090D01*
X171964540Y-79229077D01*
X172033056Y-79194819D01*
X172235741Y-79194819D01*
X172304257Y-79229077D01*
X172334664Y-79259484D01*
X172368922Y-79328000D01*
X172368922Y-79393363D01*
X172330750Y-79507876D01*
X171771842Y-80066786D01*
X171762515Y-80078151D01*
X171751316Y-80105187D01*
X171376065Y-80105187D01*
X171376065Y-79194819D01*
X171586779Y-79194819D01*
X171601411Y-79193378D01*
X171628447Y-79182179D01*
X171649139Y-79161487D01*
X171660338Y-79134451D01*
X171660338Y-79105187D01*
X171649139Y-79078151D01*
X171628447Y-79057459D01*
X171601411Y-79046260D01*
X171586779Y-79044819D01*
X171015351Y-79044819D01*
X171000719Y-79046260D01*
X170973683Y-79057459D01*
X170952991Y-79078151D01*
X170941792Y-79105187D01*
X170565720Y-79105187D01*
X170562692Y-79096102D01*
X170556698Y-79082676D01*
X170553186Y-79078627D01*
X170550791Y-79073836D01*
X170543687Y-79067674D01*
X170537524Y-79060569D01*
X170532730Y-79058172D01*
X170528683Y-79054662D01*
X170519761Y-79051688D01*
X170511351Y-79047483D01*
X170506006Y-79047103D01*
X170500921Y-79045408D01*
X170491541Y-79046074D01*
X170482161Y-79045408D01*
X170477075Y-79047103D01*
X170471731Y-79047483D01*
X170463323Y-79051687D01*
X170454398Y-79054662D01*
X170450347Y-79058175D01*
X170445558Y-79060570D01*
X170439399Y-79067670D01*
X170432291Y-79073836D01*
X170429894Y-79078629D01*
X170426384Y-79082677D01*
X170420390Y-79096102D01*
X170087057Y-80096102D01*
X170083797Y-80110439D01*
X169757017Y-80110439D01*
X169757017Y-79194819D01*
X169967731Y-79194819D01*
X169982363Y-79193378D01*
X170009399Y-79182179D01*
X170030091Y-79161487D01*
X170041290Y-79134451D01*
X170041290Y-79105187D01*
X170030091Y-79078151D01*
X170009399Y-79057459D01*
X169982363Y-79046260D01*
X169967731Y-79044819D01*
X169396303Y-79044819D01*
X169381671Y-79046260D01*
X169354635Y-79057459D01*
X169333943Y-79078151D01*
X169322744Y-79105187D01*
X169151081Y-79105187D01*
X169147730Y-79102281D01*
X169134305Y-79096287D01*
X168991448Y-79048668D01*
X168984194Y-79047018D01*
X168982363Y-79046260D01*
X168979708Y-79045998D01*
X168977111Y-79045408D01*
X168975136Y-79045548D01*
X168967731Y-79044819D01*
X168729636Y-79044819D01*
X168715004Y-79046260D01*
X168712515Y-79047290D01*
X168709826Y-79047482D01*
X168696095Y-79052737D01*
X168600857Y-79100356D01*
X168594557Y-79104320D01*
X168592730Y-79105078D01*
X168590673Y-79106766D01*
X168588414Y-79108188D01*
X168587114Y-79109686D01*
X168581365Y-79114405D01*
X168533746Y-79162024D01*
X168529027Y-79167773D01*
X168527529Y-79169073D01*
X168526107Y-79171332D01*
X168524419Y-79173389D01*
X168523661Y-79175216D01*
X168519697Y-79181516D01*
X168472078Y-79276754D01*
X168466823Y-79290486D01*
X168466632Y-79293173D01*
X168465601Y-79295663D01*
X168464160Y-79310295D01*
X168353049Y-79310295D01*
X168353049Y-78933708D01*
X172630033Y-78933708D01*
X172630033Y-80305930D01*
G37*
G36*
X170625579Y-115759104D02*
G01*
X170357503Y-115759104D01*
X170491541Y-115356989D01*
X170625579Y-115759104D01*
G37*
G36*
X172630033Y-116305930D02*
G01*
X168353049Y-116305930D01*
X168353049Y-115310295D01*
X168464160Y-115310295D01*
X168464160Y-115405533D01*
X168465601Y-115420165D01*
X168466632Y-115422654D01*
X168466823Y-115425342D01*
X168472078Y-115439074D01*
X168519697Y-115534312D01*
X168523661Y-115540611D01*
X168524419Y-115542439D01*
X168526107Y-115544495D01*
X168527529Y-115546755D01*
X168529027Y-115548054D01*
X168533746Y-115553804D01*
X168581365Y-115601423D01*
X168587114Y-115606141D01*
X168588414Y-115607640D01*
X168590673Y-115609061D01*
X168592730Y-115610750D01*
X168594557Y-115611507D01*
X168600857Y-115615472D01*
X168696095Y-115663091D01*
X168697164Y-115663500D01*
X168697600Y-115663823D01*
X168703736Y-115666015D01*
X168709826Y-115668346D01*
X168710366Y-115668384D01*
X168711446Y-115668770D01*
X168893936Y-115714392D01*
X168970923Y-115752886D01*
X169001330Y-115783293D01*
X169035588Y-115851809D01*
X169035588Y-115911637D01*
X169001329Y-115980153D01*
X168970922Y-116010561D01*
X168902407Y-116044819D01*
X168694187Y-116044819D01*
X168562877Y-116001049D01*
X168548540Y-115997789D01*
X168519350Y-115999864D01*
X168493177Y-116012950D01*
X168474003Y-116035057D01*
X168464749Y-116062820D01*
X168466824Y-116092010D01*
X168479910Y-116118183D01*
X168502017Y-116137357D01*
X168515443Y-116143351D01*
X168658299Y-116190970D01*
X168665554Y-116192619D01*
X168667385Y-116193378D01*
X168670038Y-116193639D01*
X168672636Y-116194230D01*
X168674610Y-116194089D01*
X168682017Y-116194819D01*
X168920112Y-116194819D01*
X168934744Y-116193378D01*
X168937233Y-116192346D01*
X168939921Y-116192156D01*
X168953653Y-116186901D01*
X169048891Y-116139282D01*
X169055190Y-116135317D01*
X169057018Y-116134560D01*
X169059074Y-116132872D01*
X169061334Y-116131450D01*
X169062634Y-116129950D01*
X169068384Y-116125232D01*
X169116002Y-116077613D01*
X169120720Y-116071863D01*
X169122219Y-116070564D01*
X169123640Y-116068305D01*
X169125330Y-116066247D01*
X169126087Y-116064417D01*
X169130051Y-116058121D01*
X169177670Y-115962883D01*
X169182925Y-115949152D01*
X169183116Y-115946462D01*
X169184147Y-115943974D01*
X169185588Y-115929342D01*
X169185588Y-115834104D01*
X169184147Y-115819472D01*
X169183116Y-115816983D01*
X169182925Y-115814294D01*
X169177670Y-115800563D01*
X169130051Y-115705325D01*
X169126086Y-115699025D01*
X169125329Y-115697198D01*
X169123640Y-115695141D01*
X169122219Y-115692882D01*
X169120720Y-115691582D01*
X169116002Y-115685833D01*
X169068383Y-115638214D01*
X169062633Y-115633495D01*
X169061334Y-115631997D01*
X169059074Y-115630575D01*
X169057018Y-115628887D01*
X169055190Y-115628129D01*
X169048891Y-115624165D01*
X168953653Y-115576546D01*
X168952583Y-115576136D01*
X168952148Y-115575814D01*
X168946002Y-115573618D01*
X168939921Y-115571291D01*
X168939381Y-115571252D01*
X168938302Y-115570867D01*
X168755812Y-115525244D01*
X168678825Y-115486751D01*
X168648418Y-115456344D01*
X168614160Y-115387828D01*
X168614160Y-115328000D01*
X168648418Y-115259484D01*
X168678825Y-115229077D01*
X168747341Y-115194819D01*
X168955561Y-115194819D01*
X169086870Y-115238589D01*
X169101207Y-115241849D01*
X169130397Y-115239774D01*
X169156571Y-115226688D01*
X169175745Y-115204580D01*
X169184999Y-115176818D01*
X169182924Y-115147628D01*
X169169837Y-115121455D01*
X169151081Y-115105187D01*
X169322744Y-115105187D01*
X169322744Y-115134451D01*
X169333943Y-115161487D01*
X169354635Y-115182179D01*
X169381671Y-115193378D01*
X169396303Y-115194819D01*
X169607017Y-115194819D01*
X169607017Y-116119819D01*
X169608458Y-116134451D01*
X169619657Y-116161487D01*
X169640349Y-116182179D01*
X169667385Y-116193378D01*
X169696649Y-116193378D01*
X169723685Y-116182179D01*
X169744377Y-116161487D01*
X169755576Y-116134451D01*
X169757017Y-116119819D01*
X169757017Y-116110439D01*
X170083797Y-116110439D01*
X170085872Y-116139629D01*
X170098958Y-116165802D01*
X170121065Y-116184976D01*
X170148828Y-116194230D01*
X170178018Y-116192155D01*
X170204191Y-116179069D01*
X170223365Y-116156962D01*
X170229359Y-116143536D01*
X170307503Y-115909104D01*
X170675579Y-115909104D01*
X170753723Y-116143536D01*
X170759717Y-116156961D01*
X170778891Y-116179068D01*
X170805064Y-116192155D01*
X170834254Y-116194230D01*
X170862016Y-116184976D01*
X170884124Y-116165802D01*
X170897210Y-116139628D01*
X170899285Y-116110438D01*
X170896025Y-116096102D01*
X170565720Y-115105187D01*
X170941792Y-115105187D01*
X170941792Y-115134451D01*
X170952991Y-115161487D01*
X170973683Y-115182179D01*
X171000719Y-115193378D01*
X171015351Y-115194819D01*
X171226065Y-115194819D01*
X171226065Y-116119819D01*
X171227506Y-116134451D01*
X171238705Y-116161487D01*
X171259397Y-116182179D01*
X171286433Y-116193378D01*
X171315697Y-116193378D01*
X171342733Y-116182179D01*
X171363425Y-116161487D01*
X171374624Y-116134451D01*
X171376065Y-116119819D01*
X171376065Y-115194819D01*
X171586779Y-115194819D01*
X171601411Y-115193378D01*
X171628447Y-115182179D01*
X171649139Y-115161487D01*
X171660338Y-115134451D01*
X171660338Y-115105187D01*
X171751316Y-115105187D01*
X171751316Y-115134451D01*
X171762515Y-115161487D01*
X171783207Y-115182179D01*
X171810243Y-115193378D01*
X171824875Y-115194819D01*
X172278640Y-115194819D01*
X172054146Y-115451383D01*
X172049624Y-115457707D01*
X172048229Y-115459103D01*
X172047680Y-115460426D01*
X172045595Y-115463344D01*
X172041693Y-115474881D01*
X172037030Y-115486139D01*
X172037030Y-115488669D01*
X172036220Y-115491065D01*
X172037030Y-115503218D01*
X172037030Y-115515403D01*
X172037997Y-115517739D01*
X172038166Y-115520263D01*
X172043568Y-115531188D01*
X172048229Y-115542439D01*
X172050015Y-115544225D01*
X172051138Y-115546495D01*
X172060310Y-115554520D01*
X172068921Y-115563131D01*
X172071257Y-115564099D01*
X172073162Y-115565765D01*
X172084699Y-115569666D01*
X172095957Y-115574330D01*
X172099527Y-115574681D01*
X172100883Y-115575140D01*
X172102850Y-115575008D01*
X172110589Y-115575771D01*
X172235741Y-115575771D01*
X172304257Y-115610029D01*
X172334664Y-115640436D01*
X172368922Y-115708952D01*
X172368922Y-115911637D01*
X172334663Y-115980153D01*
X172304256Y-116010561D01*
X172235741Y-116044819D01*
X171985437Y-116044819D01*
X171916921Y-116010561D01*
X171877909Y-115971548D01*
X171866543Y-115962220D01*
X171839507Y-115951021D01*
X171810244Y-115951021D01*
X171783208Y-115962219D01*
X171762515Y-115982912D01*
X171751316Y-116009948D01*
X171751316Y-116039211D01*
X171762514Y-116066247D01*
X171771841Y-116077612D01*
X171819460Y-116125232D01*
X171825209Y-116129950D01*
X171826510Y-116131450D01*
X171828769Y-116132872D01*
X171830826Y-116134560D01*
X171832653Y-116135317D01*
X171838953Y-116139282D01*
X171934191Y-116186901D01*
X171947922Y-116192156D01*
X171950611Y-116192347D01*
X171953100Y-116193378D01*
X171967732Y-116194819D01*
X172253446Y-116194819D01*
X172268078Y-116193378D01*
X172270567Y-116192346D01*
X172273255Y-116192156D01*
X172286987Y-116186901D01*
X172382225Y-116139282D01*
X172388524Y-116135317D01*
X172390352Y-116134560D01*
X172392408Y-116132872D01*
X172394668Y-116131450D01*
X172395968Y-116129950D01*
X172401718Y-116125232D01*
X172449336Y-116077613D01*
X172454054Y-116071863D01*
X172455553Y-116070564D01*
X172456974Y-116068305D01*
X172458664Y-116066247D01*
X172459421Y-116064417D01*
X172463385Y-116058121D01*
X172511004Y-115962883D01*
X172516259Y-115949152D01*
X172516450Y-115946462D01*
X172517481Y-115943974D01*
X172518922Y-115929342D01*
X172518922Y-115691247D01*
X172517481Y-115676615D01*
X172516450Y-115674126D01*
X172516259Y-115671437D01*
X172511004Y-115657706D01*
X172463385Y-115562468D01*
X172459420Y-115556168D01*
X172458663Y-115554341D01*
X172456974Y-115552284D01*
X172455553Y-115550025D01*
X172454054Y-115548725D01*
X172449336Y-115542976D01*
X172401717Y-115495357D01*
X172395967Y-115490638D01*
X172394668Y-115489140D01*
X172392408Y-115487718D01*
X172390352Y-115486030D01*
X172388524Y-115485272D01*
X172382225Y-115481308D01*
X172286987Y-115433689D01*
X172273469Y-115428516D01*
X172500365Y-115169207D01*
X172504886Y-115162882D01*
X172506282Y-115161487D01*
X172506830Y-115160163D01*
X172508916Y-115157246D01*
X172512817Y-115145708D01*
X172517481Y-115134451D01*
X172517481Y-115131920D01*
X172518291Y-115129525D01*
X172517481Y-115117371D01*
X172517481Y-115105187D01*
X172516513Y-115102850D01*
X172516345Y-115100327D01*
X172510942Y-115089401D01*
X172506282Y-115078151D01*
X172504495Y-115076364D01*
X172503373Y-115074095D01*
X172494200Y-115066069D01*
X172485590Y-115057459D01*
X172483253Y-115056490D01*
X172481349Y-115054825D01*
X172469811Y-115050923D01*
X172458554Y-115046260D01*
X172454983Y-115045908D01*
X172453628Y-115045450D01*
X172451660Y-115045581D01*
X172443922Y-115044819D01*
X171824875Y-115044819D01*
X171810243Y-115046260D01*
X171783207Y-115057459D01*
X171762515Y-115078151D01*
X171751316Y-115105187D01*
X171660338Y-115105187D01*
X171649139Y-115078151D01*
X171628447Y-115057459D01*
X171601411Y-115046260D01*
X171586779Y-115044819D01*
X171015351Y-115044819D01*
X171000719Y-115046260D01*
X170973683Y-115057459D01*
X170952991Y-115078151D01*
X170941792Y-115105187D01*
X170565720Y-115105187D01*
X170562692Y-115096102D01*
X170556698Y-115082676D01*
X170553186Y-115078627D01*
X170550791Y-115073836D01*
X170543687Y-115067674D01*
X170537524Y-115060569D01*
X170532730Y-115058172D01*
X170528683Y-115054662D01*
X170519761Y-115051688D01*
X170511351Y-115047483D01*
X170506006Y-115047103D01*
X170500921Y-115045408D01*
X170491541Y-115046074D01*
X170482161Y-115045408D01*
X170477075Y-115047103D01*
X170471731Y-115047483D01*
X170463323Y-115051687D01*
X170454398Y-115054662D01*
X170450347Y-115058175D01*
X170445558Y-115060570D01*
X170439399Y-115067670D01*
X170432291Y-115073836D01*
X170429894Y-115078629D01*
X170426384Y-115082677D01*
X170420390Y-115096102D01*
X170087057Y-116096102D01*
X170083797Y-116110439D01*
X169757017Y-116110439D01*
X169757017Y-115194819D01*
X169967731Y-115194819D01*
X169982363Y-115193378D01*
X170009399Y-115182179D01*
X170030091Y-115161487D01*
X170041290Y-115134451D01*
X170041290Y-115105187D01*
X170030091Y-115078151D01*
X170009399Y-115057459D01*
X169982363Y-115046260D01*
X169967731Y-115044819D01*
X169396303Y-115044819D01*
X169381671Y-115046260D01*
X169354635Y-115057459D01*
X169333943Y-115078151D01*
X169322744Y-115105187D01*
X169151081Y-115105187D01*
X169147730Y-115102281D01*
X169134305Y-115096287D01*
X168991448Y-115048668D01*
X168984194Y-115047018D01*
X168982363Y-115046260D01*
X168979708Y-115045998D01*
X168977111Y-115045408D01*
X168975136Y-115045548D01*
X168967731Y-115044819D01*
X168729636Y-115044819D01*
X168715004Y-115046260D01*
X168712515Y-115047290D01*
X168709826Y-115047482D01*
X168696095Y-115052737D01*
X168600857Y-115100356D01*
X168594557Y-115104320D01*
X168592730Y-115105078D01*
X168590673Y-115106766D01*
X168588414Y-115108188D01*
X168587114Y-115109686D01*
X168581365Y-115114405D01*
X168533746Y-115162024D01*
X168529027Y-115167773D01*
X168527529Y-115169073D01*
X168526107Y-115171332D01*
X168524419Y-115173389D01*
X168523661Y-115175216D01*
X168519697Y-115181516D01*
X168472078Y-115276754D01*
X168466823Y-115290486D01*
X168466632Y-115293173D01*
X168465601Y-115295663D01*
X168464160Y-115310295D01*
X168353049Y-115310295D01*
X168353049Y-114933708D01*
X172630033Y-114933708D01*
X172630033Y-116305930D01*
G37*
X171491541Y-86223372D02*
X172158207Y-87223372D01*
X172158207Y-86223372D02*
X171491541Y-87223372D01*
G36*
X172177217Y-108732990D02*
G01*
X172251330Y-108807103D01*
X172289823Y-108884090D01*
X172333207Y-109057624D01*
X172333207Y-109182013D01*
X172289823Y-109355547D01*
X172251329Y-109432534D01*
X172177217Y-109506647D01*
X172062704Y-109544819D01*
X171911779Y-109544819D01*
X171911779Y-108694819D01*
X172062704Y-108694819D01*
X172177217Y-108732990D01*
G37*
G36*
X174451461Y-109805930D02*
G01*
X171650668Y-109805930D01*
X171650668Y-108619819D01*
X171761779Y-108619819D01*
X171761779Y-109619819D01*
X171763220Y-109634451D01*
X171774419Y-109661487D01*
X171795111Y-109682179D01*
X171822147Y-109693378D01*
X171836779Y-109694819D01*
X172074874Y-109694819D01*
X172082279Y-109694089D01*
X172084254Y-109694230D01*
X172086851Y-109693639D01*
X172089506Y-109693378D01*
X172091337Y-109692619D01*
X172098591Y-109690970D01*
X172241448Y-109643351D01*
X172254873Y-109637357D01*
X172256908Y-109635591D01*
X172259399Y-109634560D01*
X172270764Y-109625233D01*
X172366003Y-109529993D01*
X172370720Y-109524244D01*
X172372219Y-109522945D01*
X172373640Y-109520686D01*
X172375330Y-109518628D01*
X172376087Y-109516798D01*
X172380051Y-109510502D01*
X172427670Y-109415264D01*
X172428079Y-109414194D01*
X172428402Y-109413759D01*
X172430594Y-109407622D01*
X172432925Y-109401533D01*
X172432963Y-109400992D01*
X172433349Y-109399913D01*
X172480968Y-109209437D01*
X172481343Y-109206900D01*
X172481766Y-109205879D01*
X172482308Y-109200366D01*
X172483118Y-109194893D01*
X172482955Y-109193800D01*
X172483207Y-109191247D01*
X172483207Y-109048390D01*
X172482955Y-109045836D01*
X172483118Y-109044744D01*
X172482308Y-109039270D01*
X172481766Y-109033758D01*
X172481343Y-109032736D01*
X172480968Y-109030200D01*
X172433349Y-108839724D01*
X172432963Y-108838644D01*
X172432925Y-108838104D01*
X172430594Y-108832014D01*
X172428402Y-108825878D01*
X172428079Y-108825442D01*
X172427670Y-108824373D01*
X172380051Y-108729135D01*
X172376088Y-108722840D01*
X172375330Y-108721008D01*
X172373638Y-108718946D01*
X172372219Y-108716692D01*
X172370722Y-108715393D01*
X172366002Y-108709643D01*
X172276178Y-108619819D01*
X172761779Y-108619819D01*
X172761779Y-109619819D01*
X172763220Y-109634451D01*
X172774419Y-109661487D01*
X172795111Y-109682179D01*
X172822147Y-109693378D01*
X172851411Y-109693378D01*
X172878447Y-109682179D01*
X172899139Y-109661487D01*
X172910338Y-109634451D01*
X172911779Y-109619819D01*
X172911779Y-109171009D01*
X173170112Y-109171009D01*
X173184744Y-109169568D01*
X173211780Y-109158369D01*
X173232472Y-109137677D01*
X173243671Y-109110641D01*
X173243671Y-109081377D01*
X173232472Y-109054341D01*
X173211780Y-109033649D01*
X173184744Y-109022450D01*
X173170112Y-109021009D01*
X172911779Y-109021009D01*
X172911779Y-108694819D01*
X173312969Y-108694819D01*
X173327601Y-108693378D01*
X173354637Y-108682179D01*
X173375329Y-108661487D01*
X173386528Y-108634451D01*
X173386528Y-108619819D01*
X173618922Y-108619819D01*
X173618922Y-109429342D01*
X173620363Y-109443974D01*
X173621394Y-109446463D01*
X173621585Y-109449151D01*
X173626840Y-109462883D01*
X173674459Y-109558121D01*
X173678422Y-109564417D01*
X173679180Y-109566247D01*
X173680869Y-109568305D01*
X173682291Y-109570564D01*
X173683789Y-109571863D01*
X173688507Y-109577612D01*
X173736126Y-109625232D01*
X173741875Y-109629950D01*
X173743176Y-109631450D01*
X173745435Y-109632872D01*
X173747492Y-109634560D01*
X173749319Y-109635317D01*
X173755619Y-109639282D01*
X173850857Y-109686901D01*
X173864588Y-109692156D01*
X173867277Y-109692347D01*
X173869766Y-109693378D01*
X173884398Y-109694819D01*
X174074874Y-109694819D01*
X174089506Y-109693378D01*
X174091995Y-109692346D01*
X174094683Y-109692156D01*
X174108415Y-109686901D01*
X174203653Y-109639282D01*
X174209952Y-109635317D01*
X174211780Y-109634560D01*
X174213836Y-109632872D01*
X174216096Y-109631450D01*
X174217396Y-109629950D01*
X174223146Y-109625232D01*
X174270764Y-109577613D01*
X174275482Y-109571863D01*
X174276981Y-109570564D01*
X174278402Y-109568305D01*
X174280092Y-109566247D01*
X174280849Y-109564417D01*
X174284813Y-109558121D01*
X174332432Y-109462883D01*
X174337687Y-109449152D01*
X174337878Y-109446462D01*
X174338909Y-109443974D01*
X174340350Y-109429342D01*
X174340350Y-108619819D01*
X174338909Y-108605187D01*
X174327710Y-108578151D01*
X174307018Y-108557459D01*
X174279982Y-108546260D01*
X174250718Y-108546260D01*
X174223682Y-108557459D01*
X174202990Y-108578151D01*
X174191791Y-108605187D01*
X174190350Y-108619819D01*
X174190350Y-109411637D01*
X174156091Y-109480153D01*
X174125684Y-109510561D01*
X174057169Y-109544819D01*
X173902103Y-109544819D01*
X173833587Y-109510561D01*
X173803180Y-109480153D01*
X173768922Y-109411637D01*
X173768922Y-108619819D01*
X173767481Y-108605187D01*
X173756282Y-108578151D01*
X173735590Y-108557459D01*
X173708554Y-108546260D01*
X173679290Y-108546260D01*
X173652254Y-108557459D01*
X173631562Y-108578151D01*
X173620363Y-108605187D01*
X173618922Y-108619819D01*
X173386528Y-108619819D01*
X173386528Y-108605187D01*
X173375329Y-108578151D01*
X173354637Y-108557459D01*
X173327601Y-108546260D01*
X173312969Y-108544819D01*
X172836779Y-108544819D01*
X172822147Y-108546260D01*
X172795111Y-108557459D01*
X172774419Y-108578151D01*
X172763220Y-108605187D01*
X172761779Y-108619819D01*
X172276178Y-108619819D01*
X172270764Y-108614405D01*
X172259399Y-108605078D01*
X172256908Y-108604046D01*
X172254873Y-108602281D01*
X172241448Y-108596287D01*
X172098591Y-108548668D01*
X172091337Y-108547018D01*
X172089506Y-108546260D01*
X172086851Y-108545998D01*
X172084254Y-108545408D01*
X172082279Y-108545548D01*
X172074874Y-108544819D01*
X171836779Y-108544819D01*
X171822147Y-108546260D01*
X171795111Y-108557459D01*
X171774419Y-108578151D01*
X171763220Y-108605187D01*
X171761779Y-108619819D01*
X171650668Y-108619819D01*
X171650668Y-108433708D01*
X174451461Y-108433708D01*
X174451461Y-109805930D01*
G37*
X172741541Y-89723372D02*
X173408207Y-89723372D01*
X173408207Y-89723372D02*
X172741541Y-90723372D01*
X172741541Y-90723372D02*
X173408207Y-90723372D01*
X174027255Y-97643628D02*
X174027255Y-98119819D01*
X173693922Y-97119819D02*
X174027255Y-97643628D01*
X174027255Y-97643628D02*
X174360588Y-97119819D01*
D13*
X168160180Y-98119663D02*
X167826847Y-97643472D01*
X167588752Y-98119663D02*
X167588752Y-97119663D01*
X167588752Y-97119663D02*
X167969704Y-97119663D01*
X167969704Y-97119663D02*
X168064942Y-97167282D01*
X168064942Y-97167282D02*
X168112561Y-97214901D01*
X168112561Y-97214901D02*
X168160180Y-97310139D01*
X168160180Y-97310139D02*
X168160180Y-97452996D01*
X168160180Y-97452996D02*
X168112561Y-97548234D01*
X168112561Y-97548234D02*
X168064942Y-97595853D01*
X168064942Y-97595853D02*
X167969704Y-97643472D01*
X167969704Y-97643472D02*
X167588752Y-97643472D01*
X172588752Y-93619663D02*
X172588752Y-92619663D01*
X172588752Y-92619663D02*
X172969704Y-92619663D01*
X172969704Y-92619663D02*
X173064942Y-92667282D01*
X173064942Y-92667282D02*
X173112561Y-92714901D01*
X173112561Y-92714901D02*
X173160180Y-92810139D01*
X173160180Y-92810139D02*
X173160180Y-92952996D01*
X173160180Y-92952996D02*
X173112561Y-93048234D01*
X173112561Y-93048234D02*
X173064942Y-93095853D01*
X173064942Y-93095853D02*
X172969704Y-93143472D01*
X172969704Y-93143472D02*
X172588752Y-93143472D01*
D14*
X166266190Y-97329271D02*
X166568571Y-97329271D01*
X166568571Y-97329271D02*
X166568571Y-97087366D01*
X166568571Y-97087366D02*
X166447619Y-97026890D01*
X166447619Y-97026890D02*
X166326666Y-96905937D01*
X166326666Y-96905937D02*
X166266190Y-96724509D01*
X166266190Y-96724509D02*
X166266190Y-96422128D01*
X166266190Y-96422128D02*
X166326666Y-96240699D01*
X166326666Y-96240699D02*
X166447619Y-96119747D01*
X166447619Y-96119747D02*
X166629047Y-96059271D01*
X166629047Y-96059271D02*
X166870952Y-96059271D01*
X166870952Y-96059271D02*
X167052381Y-96119747D01*
X167052381Y-96119747D02*
X167173333Y-96240699D01*
X167173333Y-96240699D02*
X167233809Y-96422128D01*
X167233809Y-96422128D02*
X167233809Y-96724509D01*
X167233809Y-96724509D02*
X167173333Y-96905937D01*
X167173333Y-96905937D02*
X167052381Y-97026890D01*
X167052381Y-97026890D02*
X166931428Y-97087366D01*
X166931428Y-97087366D02*
X166931428Y-97329271D01*
X166931428Y-97329271D02*
X167233809Y-97329271D01*
X171266190Y-92829271D02*
X171568571Y-92829271D01*
X171568571Y-92829271D02*
X171568571Y-92587366D01*
X171568571Y-92587366D02*
X171447619Y-92526890D01*
X171447619Y-92526890D02*
X171326666Y-92405937D01*
X171326666Y-92405937D02*
X171266190Y-92224509D01*
X171266190Y-92224509D02*
X171266190Y-91922128D01*
X171266190Y-91922128D02*
X171326666Y-91740699D01*
X171326666Y-91740699D02*
X171447619Y-91619747D01*
X171447619Y-91619747D02*
X171629047Y-91559271D01*
X171629047Y-91559271D02*
X171870952Y-91559271D01*
X171870952Y-91559271D02*
X172052381Y-91619747D01*
X172052381Y-91619747D02*
X172173333Y-91740699D01*
X172173333Y-91740699D02*
X172233809Y-91922128D01*
X172233809Y-91922128D02*
X172233809Y-92224509D01*
X172233809Y-92224509D02*
X172173333Y-92405937D01*
X172173333Y-92405937D02*
X172052381Y-92526890D01*
X172052381Y-92526890D02*
X171931428Y-92587366D01*
X171931428Y-92587366D02*
X171931428Y-92829271D01*
X171931428Y-92829271D02*
X172233809Y-92829271D01*
X172516190Y-97329271D02*
X172818571Y-97329271D01*
X172818571Y-97329271D02*
X172818571Y-97087366D01*
X172818571Y-97087366D02*
X172697619Y-97026890D01*
X172697619Y-97026890D02*
X172576666Y-96905937D01*
X172576666Y-96905937D02*
X172516190Y-96724509D01*
X172516190Y-96724509D02*
X172516190Y-96422128D01*
X172516190Y-96422128D02*
X172576666Y-96240699D01*
X172576666Y-96240699D02*
X172697619Y-96119747D01*
X172697619Y-96119747D02*
X172879047Y-96059271D01*
X172879047Y-96059271D02*
X173120952Y-96059271D01*
X173120952Y-96059271D02*
X173302381Y-96119747D01*
X173302381Y-96119747D02*
X173423333Y-96240699D01*
X173423333Y-96240699D02*
X173483809Y-96422128D01*
X173483809Y-96422128D02*
X173483809Y-96724509D01*
X173483809Y-96724509D02*
X173423333Y-96905937D01*
X173423333Y-96905937D02*
X173302381Y-97026890D01*
X173302381Y-97026890D02*
X173181428Y-97087366D01*
X173181428Y-97087366D02*
X173181428Y-97329271D01*
X173181428Y-97329271D02*
X173483809Y-97329271D01*
%TO.C,R12*%
D15*
X134435436Y-106765000D02*
X134889564Y-106765000D01*
X134435436Y-108235000D02*
X134889564Y-108235000D01*
%TO.C,R1*%
X168360000Y-102227064D02*
X168360000Y-101772936D01*
X169830000Y-102227064D02*
X169830000Y-101772936D01*
%TO.C,D2*%
X168877500Y-80540000D02*
X168877500Y-82460000D01*
X168877500Y-82460000D02*
X171562500Y-82460000D01*
X171562500Y-80540000D02*
X168877500Y-80540000D01*
%TO.C,D3*%
X168877500Y-116540000D02*
X168877500Y-118460000D01*
X168877500Y-118460000D02*
X171562500Y-118460000D01*
X171562500Y-116540000D02*
X168877500Y-116540000D01*
%TO.C,R4*%
X164977064Y-106265000D02*
X164522936Y-106265000D01*
X164977064Y-107735000D02*
X164522936Y-107735000D01*
%TO.C,J2*%
X139340000Y-110140000D02*
X140670000Y-110140000D01*
X139340000Y-111250000D02*
X139340000Y-110140000D01*
X139340000Y-115250000D02*
X147080000Y-115250000D01*
X139340000Y-123880000D02*
X139340000Y-115250000D01*
X139340000Y-123880000D02*
X147080000Y-123880000D01*
X139460000Y-123880000D02*
X139460000Y-115250000D01*
X139578095Y-123880000D02*
X139578095Y-115250000D01*
X139696190Y-123880000D02*
X139696190Y-115250000D01*
X139814285Y-123880000D02*
X139814285Y-115250000D01*
X139932380Y-123880000D02*
X139932380Y-115250000D01*
X140050475Y-123880000D02*
X140050475Y-115250000D01*
X140168570Y-123880000D02*
X140168570Y-115250000D01*
X140286665Y-123880000D02*
X140286665Y-115250000D01*
X140310000Y-112740000D02*
X140310000Y-112360000D01*
X140310000Y-115250000D02*
X140310000Y-114840000D01*
X140404760Y-123880000D02*
X140404760Y-115250000D01*
X140522855Y-123880000D02*
X140522855Y-115250000D01*
X140640950Y-123880000D02*
X140640950Y-115250000D01*
X140759045Y-123880000D02*
X140759045Y-115250000D01*
X140877140Y-123880000D02*
X140877140Y-115250000D01*
X140995235Y-123880000D02*
X140995235Y-115250000D01*
X141030000Y-112740000D02*
X141030000Y-112360000D01*
X141030000Y-115250000D02*
X141030000Y-114840000D01*
X141113330Y-123880000D02*
X141113330Y-115250000D01*
X141231425Y-123880000D02*
X141231425Y-115250000D01*
X141349520Y-123880000D02*
X141349520Y-115250000D01*
X141467615Y-123880000D02*
X141467615Y-115250000D01*
X141585710Y-123880000D02*
X141585710Y-115250000D01*
X141703805Y-123880000D02*
X141703805Y-115250000D01*
X141821900Y-123880000D02*
X141821900Y-115250000D01*
X141940000Y-123880000D02*
X141940000Y-115250000D01*
X142850000Y-112740000D02*
X142850000Y-112300000D01*
X142850000Y-115250000D02*
X142850000Y-114840000D01*
X143570000Y-112740000D02*
X143570000Y-112300000D01*
X143570000Y-115250000D02*
X143570000Y-114840000D01*
X144480000Y-123880000D02*
X144480000Y-115250000D01*
X145390000Y-112740000D02*
X145390000Y-112300000D01*
X145390000Y-115250000D02*
X145390000Y-114840000D01*
X146110000Y-112740000D02*
X146110000Y-112300000D01*
X146110000Y-115250000D02*
X146110000Y-114840000D01*
X147080000Y-123880000D02*
X147080000Y-115250000D01*
%TO.C,C9*%
X148765000Y-110488748D02*
X148765000Y-111011252D01*
X150235000Y-110488748D02*
X150235000Y-111011252D01*
%TO.C,SW3*%
X123600000Y-91350000D02*
X123600000Y-92250000D01*
X123810000Y-91150000D02*
X123600000Y-91350000D01*
X123810000Y-92450000D02*
X123600000Y-92250000D01*
X123810000Y-92450000D02*
X125100000Y-92450000D01*
X125100000Y-89700000D02*
X125100000Y-95400000D01*
X125100000Y-91150000D02*
X123810000Y-91150000D01*
X126110000Y-96000000D02*
X126900000Y-96000000D01*
X126900000Y-89100000D02*
X126110000Y-89100000D01*
X127950000Y-90950000D02*
X127950000Y-92650000D01*
X127950000Y-93950000D02*
X127950000Y-94150000D01*
%TO.C,C14*%
X161938748Y-93865000D02*
X162461252Y-93865000D01*
X161938748Y-95335000D02*
X162461252Y-95335000D01*
%TO.C,D4*%
X163750000Y-121960000D02*
X166435000Y-121960000D01*
X166435000Y-120040000D02*
X163750000Y-120040000D01*
X166435000Y-121960000D02*
X166435000Y-120040000D01*
%TO.C,R10*%
X146903641Y-81870000D02*
X146596359Y-81870000D01*
X146903641Y-82630000D02*
X146596359Y-82630000D01*
%TO.C,C6*%
X155765000Y-93038748D02*
X155765000Y-93561252D01*
X157235000Y-93038748D02*
X157235000Y-93561252D01*
%TO.C,C15*%
X160363752Y-105740000D02*
X159841248Y-105740000D01*
X160363752Y-107210000D02*
X159841248Y-107210000D01*
%TO.C,C5*%
X151015000Y-104738748D02*
X151015000Y-105261252D01*
X152485000Y-104738748D02*
X152485000Y-105261252D01*
%TO.C,U1*%
X141140000Y-92640000D02*
X141140000Y-93590000D01*
X141140000Y-102860000D02*
X141140000Y-101910000D01*
X142090000Y-92640000D02*
X141140000Y-92640000D01*
X142090000Y-102860000D02*
X141140000Y-102860000D01*
X150410000Y-92640000D02*
X151360000Y-92640000D01*
X150410000Y-102860000D02*
X151360000Y-102860000D01*
X151360000Y-92640000D02*
X151360000Y-93590000D01*
X151360000Y-102860000D02*
X151360000Y-101910000D01*
X140525000Y-93590000D02*
X140185000Y-93120000D01*
X140865000Y-93120000D01*
X140525000Y-93590000D01*
G36*
X140525000Y-93590000D02*
G01*
X140185000Y-93120000D01*
X140865000Y-93120000D01*
X140525000Y-93590000D01*
G37*
%TO.C,C24*%
X146390000Y-85912164D02*
X146390000Y-86127836D01*
X147110000Y-85912164D02*
X147110000Y-86127836D01*
%TO.C,FB1*%
X143139564Y-83265000D02*
X142685436Y-83265000D01*
X143139564Y-84735000D02*
X142685436Y-84735000D01*
%TO.C,C12*%
X148538748Y-105015000D02*
X149061252Y-105015000D01*
X148538748Y-106485000D02*
X149061252Y-106485000D01*
%TO.C,C1*%
X142511252Y-105015000D02*
X141988748Y-105015000D01*
X142511252Y-106485000D02*
X141988748Y-106485000D01*
%TO.C,C13*%
X162215000Y-97961252D02*
X162215000Y-97438748D01*
X163685000Y-97961252D02*
X163685000Y-97438748D01*
%TO.C,SW2*%
X171550000Y-102350000D02*
X171550000Y-102150000D01*
X171550000Y-105350000D02*
X171550000Y-103650000D01*
X172600000Y-107200000D02*
X173390000Y-107200000D01*
X173390000Y-100300000D02*
X172600000Y-100300000D01*
X174400000Y-105150000D02*
X175690000Y-105150000D01*
X174400000Y-106600000D02*
X174400000Y-100900000D01*
X175690000Y-103850000D02*
X174400000Y-103850000D01*
X175690000Y-103850000D02*
X175900000Y-104050000D01*
X175690000Y-105150000D02*
X175900000Y-104950000D01*
X175900000Y-104950000D02*
X175900000Y-104050000D01*
%TO.C,FL1*%
D16*
X150175000Y-79305000D02*
X150975000Y-79305000D01*
X150175000Y-81195000D02*
X150975000Y-81195000D01*
D11*
X149525000Y-79750000D02*
G75*
G02*
X149425000Y-79750000I-50000J0D01*
G01*
X149425000Y-79750000D02*
G75*
G02*
X149525000Y-79750000I50000J0D01*
G01*
%TO.C,R3*%
D15*
X164522936Y-90265000D02*
X164977064Y-90265000D01*
X164522936Y-91735000D02*
X164977064Y-91735000D01*
%TO.C,R11*%
X153370000Y-82846359D02*
X153370000Y-83153641D01*
X154130000Y-82846359D02*
X154130000Y-83153641D01*
%TO.C,C26*%
X155442164Y-80390000D02*
X155657836Y-80390000D01*
X155442164Y-81110000D02*
X155657836Y-81110000D01*
%TO.C,C3*%
X143038748Y-89015000D02*
X143561252Y-89015000D01*
X143038748Y-90485000D02*
X143561252Y-90485000D01*
%TO.C,C2*%
X153515000Y-93038748D02*
X153515000Y-93561252D01*
X154985000Y-93038748D02*
X154985000Y-93561252D01*
%TO.C,U7*%
X148140000Y-82077500D02*
X148865000Y-82077500D01*
X148140000Y-82802500D02*
X148140000Y-82077500D01*
X148140000Y-85572500D02*
X148140000Y-85997500D01*
X148865000Y-86297500D02*
X148380000Y-86297500D01*
X152360000Y-82077500D02*
X151635000Y-82077500D01*
X152360000Y-82802500D02*
X152360000Y-82077500D01*
X152360000Y-85572500D02*
X152360000Y-86297500D01*
X152360000Y-86297500D02*
X151635000Y-86297500D01*
X148140000Y-86297500D02*
X147810000Y-86537500D01*
X147810000Y-86057500D01*
X148140000Y-86297500D01*
G36*
X148140000Y-86297500D02*
G01*
X147810000Y-86537500D01*
X147810000Y-86057500D01*
X148140000Y-86297500D01*
G37*
%TO.C,C10*%
X133561252Y-92515000D02*
X133038748Y-92515000D01*
X133561252Y-93985000D02*
X133038748Y-93985000D01*
%TO.C,C4*%
X139515000Y-90761252D02*
X139515000Y-90238748D01*
X140985000Y-90761252D02*
X140985000Y-90238748D01*
%TO.C,C23*%
X152622164Y-80140000D02*
X152837836Y-80140000D01*
X152622164Y-80860000D02*
X152837836Y-80860000D01*
%TO.C,C11*%
X133561252Y-97015000D02*
X133038748Y-97015000D01*
X133561252Y-98485000D02*
X133038748Y-98485000D01*
%TO.C,C21*%
X145140000Y-84087836D02*
X145140000Y-83872164D01*
X145860000Y-84087836D02*
X145860000Y-83872164D01*
%TO.C,R2*%
X164522936Y-88015000D02*
X164977064Y-88015000D01*
X164522936Y-89485000D02*
X164977064Y-89485000D01*
%TO.C,C8*%
X133765000Y-101011252D02*
X133765000Y-100488748D01*
X135235000Y-101011252D02*
X135235000Y-100488748D01*
%TO.C,U3*%
X158715000Y-102440000D02*
X158715000Y-103040000D01*
X158715000Y-105160000D02*
X158715000Y-104560000D01*
X159015000Y-102440000D02*
X158715000Y-102440000D01*
X159015000Y-105160000D02*
X158715000Y-105160000D01*
X161135000Y-102440000D02*
X161435000Y-102440000D01*
X161435000Y-102440000D02*
X161435000Y-103040000D01*
X161435000Y-104560000D02*
X161435000Y-104920000D01*
X161675000Y-105490000D02*
X161195000Y-105490000D01*
X161435000Y-105160000D01*
X161675000Y-105490000D01*
G36*
X161675000Y-105490000D02*
G01*
X161195000Y-105490000D01*
X161435000Y-105160000D01*
X161675000Y-105490000D01*
G37*
%TO.C,Y2*%
D16*
X155050000Y-83480000D02*
X155050000Y-83320000D01*
X157550000Y-83480000D02*
X157550000Y-83320000D01*
D17*
X158550000Y-84500000D02*
G75*
G02*
X158350000Y-84500000I-100000J0D01*
G01*
X158350000Y-84500000D02*
G75*
G02*
X158550000Y-84500000I100000J0D01*
G01*
%TO.C,Y1*%
D16*
X135400000Y-93000000D02*
X135400000Y-98000000D01*
X138600000Y-93000000D02*
X138600000Y-98000000D01*
%TO.C,C22*%
D15*
X146390000Y-84087836D02*
X146390000Y-83872164D01*
X147110000Y-84087836D02*
X147110000Y-83872164D01*
%TO.C,C7*%
X136015000Y-101011252D02*
X136015000Y-100488748D01*
X137485000Y-101011252D02*
X137485000Y-100488748D01*
%TO.C,U6*%
X154540000Y-106075000D02*
X154540000Y-107275000D01*
X156260000Y-106275000D02*
X156260000Y-106875000D01*
D10*
X155075000Y-107725000D02*
G75*
G02*
X154925000Y-107725000I-75000J0D01*
G01*
X154925000Y-107725000D02*
G75*
G02*
X155075000Y-107725000I75000J0D01*
G01*
%TO.C,J1*%
D15*
X125065000Y-100060000D02*
X125065000Y-107940000D01*
X127035000Y-98890000D02*
X129535000Y-98890000D01*
X127035000Y-109110000D02*
X129535000Y-109110000D01*
X129535000Y-98890000D02*
X129535000Y-99940000D01*
X129535000Y-99940000D02*
X130525000Y-99940000D01*
X129535000Y-109110000D02*
X129535000Y-108060000D01*
%TO.C,D1*%
X163065000Y-76040000D02*
X163065000Y-77960000D01*
X163065000Y-77960000D02*
X165750000Y-77960000D01*
X165750000Y-76040000D02*
X163065000Y-76040000D01*
%TO.C,U2*%
D17*
X158700000Y-96250000D02*
X158950000Y-96250000D01*
X158700000Y-96500000D02*
X158700000Y-96250000D01*
X158700000Y-99250000D02*
X158700000Y-99000000D01*
X158950000Y-99250000D02*
X158700000Y-99250000D01*
X160950000Y-96250000D02*
X161200000Y-96250000D01*
X161200000Y-96250000D02*
X161200000Y-96500000D01*
X161200000Y-99000000D02*
X161200000Y-99250000D01*
X161200000Y-99250000D02*
X160950000Y-99250000D01*
X158650000Y-99650000D02*
G75*
G02*
X158450000Y-99650000I-100000J0D01*
G01*
X158450000Y-99650000D02*
G75*
G02*
X158650000Y-99650000I100000J0D01*
G01*
%TO.C,R6*%
D15*
X164977064Y-108515000D02*
X164522936Y-108515000D01*
X164977064Y-109985000D02*
X164522936Y-109985000D01*
%TO.C,J3*%
D16*
X150950000Y-119930000D02*
X150950000Y-117570000D01*
X150950000Y-123070000D02*
X150950000Y-123750000D01*
X151570000Y-115250000D02*
X152530000Y-115250000D01*
X157830000Y-115250000D02*
X156870000Y-115250000D01*
X158450000Y-119930000D02*
X158450000Y-117570000D01*
X158450000Y-123070000D02*
X158450000Y-123750000D01*
D17*
X153200000Y-114150000D02*
G75*
G02*
X153000000Y-114150000I-100000J0D01*
G01*
X153000000Y-114150000D02*
G75*
G02*
X153200000Y-114150000I100000J0D01*
G01*
%TO.C,SW1*%
D15*
X153130000Y-108380000D02*
X153130000Y-108780000D01*
X153130000Y-109720000D02*
X153130000Y-111780000D01*
X153130000Y-113120000D02*
X153130000Y-112720000D01*
X157870000Y-108380000D02*
X153130000Y-108380000D01*
X157870000Y-108380000D02*
X157870000Y-108780000D01*
X157870000Y-109720000D02*
X157870000Y-111780000D01*
X157870000Y-113120000D02*
X153130000Y-113120000D01*
X157870000Y-113120000D02*
X157870000Y-112720000D01*
%TO.C,J4*%
D17*
X150250000Y-78350000D02*
G75*
G02*
X150050000Y-78350000I-100000J0D01*
G01*
X150050000Y-78350000D02*
G75*
G02*
X150250000Y-78350000I100000J0D01*
G01*
%TO.C,C25*%
D15*
X157147836Y-85720000D02*
X156932164Y-85720000D01*
X157147836Y-86440000D02*
X156932164Y-86440000D01*
%TD*%
M02*
