M48
; DRILL file KiCad 10.0.0 date 2026-07-13T15:55:09
; FORMAT={-:-/ absolute / metric / decimal}
; #@! TF.CreationDate,2026-07-13T15:55:09-05:00
; #@! TF.GenerationSoftware,Kicad,Pcbnew,10.0.0
; #@! TF.FileFunction,Plated,1,4,PTH
FMAT,2
METRIC
; #@! TA.AperFunction,Plated,PTH,ViaDrill
T1C0.300
; #@! TA.AperFunction,Plated,PTH,ComponentDrill
T2C1.000
; #@! TA.AperFunction,Plated,PTH,ComponentDrill
T3C3.200
%
G90
G05
T1
X125.5Y-82.75
X125.5Y-86.75
X126.5Y-88.0
X127.75Y-104.25
X127.75Y-105.25
X128.0Y-80.75
X128.0Y-84.75
X129.5Y-88.0
X129.5Y-93.25
X130.5Y-78.75
X130.5Y-82.75
X130.5Y-86.75
X131.0Y-101.5
X131.25Y-88.0
X131.963Y-107.8
X131.963Y-108.8
X132.5Y-94.75
X132.5Y-96.25
X132.5Y-100.0
X133.0Y-76.75
X133.0Y-80.75
X133.0Y-88.0
X134.25Y-94.75
X134.25Y-96.25
X134.75Y-88.0
X135.5Y-74.75
X135.5Y-78.75
X136.5Y-88.0
X138.0Y-76.75
X138.0Y-80.75
X138.0Y-84.75
X138.25Y-88.0
X139.25Y-107.25
X140.25Y-88.25
X140.5Y-74.75
X140.5Y-78.75
X140.5Y-82.5
X140.5Y-84.0
X142.0Y-94.25
X142.0Y-99.25
X142.0Y-100.25
X142.25Y-93.5
X142.25Y-97.0
X142.5Y-108.75
X142.75Y-100.75
X142.75Y-102.0
X143.0Y-76.75
X143.0Y-80.75
X143.25Y-93.5
X144.0Y-85.25
X144.0Y-88.0
X145.0Y-82.25
X145.5Y-74.75
X145.5Y-75.75
X145.5Y-76.75
X145.5Y-77.75
X145.5Y-78.75
X145.5Y-79.75
X145.75Y-88.0
X146.5Y-78.75
X146.5Y-79.75
X147.25Y-93.5
X147.45Y-75.95
X147.5Y-78.75
X147.5Y-79.75
X148.0Y-102.0
X148.5Y-78.75
X148.5Y-79.75
X149.0Y-81.0
X149.0Y-93.25
X149.25Y-102.0
X149.96Y-87.71
X150.165Y-102.085
X150.5Y-95.75
X150.5Y-97.25
X150.5Y-99.5
X151.0Y-91.0
X151.375Y-102.375
X151.75Y-78.75
X151.75Y-111.0
X152.75Y-78.75
X152.85Y-75.95
X153.2Y-106.0
X153.25Y-88.0
X153.5Y-85.25
X153.5Y-96.75
X153.539Y-84.369
X153.542Y-97.599
X153.625Y-101.15
X153.649Y-98.899
X153.649Y-102.351
X153.75Y-78.75
X153.75Y-79.75
X154.25Y-99.5
X154.25Y-100.5
X154.75Y-74.75
X154.75Y-75.75
X154.75Y-76.75
X154.75Y-77.75
X154.75Y-78.75
X154.75Y-79.75
X155.0Y-88.0
X155.4Y-105.2
X156.0Y-112.0
X156.0Y-113.0
X156.5Y-97.75
X156.5Y-98.75
X156.75Y-88.0
X157.25Y-76.75
X157.25Y-80.75
X157.25Y-112.0
X157.25Y-113.0
X157.481Y-97.806
X157.75Y-97.0
X157.75Y-98.75
X158.0Y-92.5
X158.0Y-94.25
X158.0Y-103.5
X158.0Y-104.35
X158.0Y-105.25
X158.025Y-106.425
X158.5Y-88.0
X159.0Y-101.75
X159.65Y-100.25
X159.75Y-74.75
X159.75Y-78.75
X159.75Y-82.75
X159.75Y-86.75
X160.0Y-95.25
X160.0Y-101.75
X160.25Y-88.0
X160.45Y-100.25
X161.0Y-101.75
X161.25Y-93.25
X161.5Y-99.25
X162.0Y-88.0
X162.0Y-103.5
X162.25Y-76.75
X162.25Y-80.75
X162.25Y-106.5
X162.25Y-108.0
X162.75Y-109.25
X162.75Y-121.0
X162.85Y-103.5
X164.25Y-94.55
X164.25Y-96.75
X164.25Y-98.75
X164.75Y-74.75
X164.75Y-78.75
X166.75Y-93.5
X166.75Y-94.5
X167.25Y-76.75
X167.5Y-101.0
X168.0Y-92.5
X168.0Y-93.5
X168.0Y-94.5
X169.25Y-92.5
X169.25Y-93.5
X169.25Y-94.5
X169.5Y-118.75
X169.75Y-78.75
X169.75Y-82.75
X170.0Y-88.0
X170.75Y-100.25
X170.75Y-107.0
X171.75Y-88.0
X173.5Y-88.0
X174.0Y-86.75
T2
X140.67Y-111.25
X140.67Y-113.79
X143.21Y-111.25
X143.21Y-113.79
X145.75Y-111.25
X145.75Y-113.79
T3
X134.75Y-84.0
X134.75Y-114.0
X164.75Y-84.0
X164.75Y-114.0
M30
