%TF.GenerationSoftware,KiCad,Pcbnew,10.0.0*%
%TF.CreationDate,2026-06-04T16:58:12-05:00*%
%TF.ProjectId,sensors_pcb,73656e73-6f72-4735-9f70-63622e6b6963,rev?*%
%TF.SameCoordinates,Original*%
%TF.FileFunction,Legend,Top*%
%TF.FilePolarity,Positive*%
%FSLAX46Y46*%
G04 Gerber Fmt 4.6, Leading zero omitted, Abs format (unit mm)*
G04 Created by KiCad (PCBNEW 10.0.0) date 2026-06-04 16:58:12*
%MOMM*%
%LPD*%
G01*
G04 APERTURE LIST*
%ADD10C,0.100000*%
%ADD11C,0.320598*%
%ADD12C,0.339736*%
%ADD13C,0.153000*%
%ADD14C,0.158750*%
%ADD15C,0.120000*%
%ADD16C,0.300000*%
%ADD17C,0.200000*%
%ADD18C,0.127000*%
%ADD19C,0.000000*%
G04 APERTURE END LIST*
D10*
X138958738Y-52033884D02*
X137958738Y-52033884D01*
X138458738Y-51533884D01*
X138958738Y-52033884D01*
G36*
X138958738Y-52033884D02*
G01*
X137958738Y-52033884D01*
X138458738Y-51533884D01*
X138958738Y-52033884D01*
G37*
X141816117Y-54914352D02*
X141316117Y-55414352D01*
X141316117Y-54414352D01*
X141816117Y-54914352D01*
G36*
X141816117Y-54914352D02*
G01*
X141316117Y-55414352D01*
X141316117Y-54414352D01*
X141816117Y-54914352D01*
G37*
X155142621Y-37369532D02*
X154142621Y-37369532D01*
X154642621Y-36869532D01*
X155142621Y-37369532D01*
G36*
X155142621Y-37369532D02*
G01*
X154142621Y-37369532D01*
X154642621Y-36869532D01*
X155142621Y-37369532D01*
G37*
X155250000Y-46000000D02*
X154250000Y-46000000D01*
X154750000Y-45500000D01*
X155250000Y-46000000D01*
G36*
X155250000Y-46000000D02*
G01*
X154250000Y-46000000D01*
X154750000Y-45500000D01*
X155250000Y-46000000D01*
G37*
X158000000Y-40250000D02*
X157500000Y-40750000D01*
X157500000Y-39750000D01*
X158000000Y-40250000D01*
G36*
X158000000Y-40250000D02*
G01*
X157500000Y-40750000D01*
X157500000Y-39750000D01*
X158000000Y-40250000D01*
G37*
X158107379Y-48880468D02*
X157607379Y-49380468D01*
X157607379Y-48380468D01*
X158107379Y-48880468D01*
G36*
X158107379Y-48880468D02*
G01*
X157607379Y-49380468D01*
X157607379Y-48380468D01*
X158107379Y-48880468D01*
G37*
D11*
X135660299Y-31750000D02*
G75*
G02*
X135339701Y-31750000I-160299J0D01*
G01*
X135339701Y-31750000D02*
G75*
G02*
X135660299Y-31750000I160299J0D01*
G01*
D12*
X135919868Y-43000000D02*
G75*
G02*
X135580132Y-43000000I-169868J0D01*
G01*
X135580132Y-43000000D02*
G75*
G02*
X135919868Y-43000000I169868J0D01*
G01*
D13*
X138450000Y-54370098D02*
X138450000Y-51900000D01*
X138480000Y-54884782D02*
G75*
G02*
X138440000Y-54884782I-20000J0D01*
G01*
X138440000Y-54884782D02*
G75*
G02*
X138480000Y-54884782I20000J0D01*
G01*
X138927785Y-54884782D02*
G75*
G02*
X137992215Y-54884782I-467785J0D01*
G01*
X137992215Y-54884782D02*
G75*
G02*
X138927785Y-54884782I467785J0D01*
G01*
X138974782Y-54884782D02*
X141450046Y-54884782D01*
D12*
X147169868Y-53500000D02*
G75*
G02*
X146830132Y-53500000I-169868J0D01*
G01*
X146830132Y-53500000D02*
G75*
G02*
X147169868Y-53500000I169868J0D01*
G01*
D13*
X154057379Y-48940468D02*
X154254696Y-49272628D01*
X154254696Y-49272628D02*
X154480063Y-48948737D01*
X154262012Y-48940468D02*
X154057379Y-48940468D01*
X154262012Y-48940468D02*
G75*
G02*
X155261130Y-48911217I499988J-32D01*
G01*
X154267379Y-48940575D02*
X154267379Y-49240789D01*
X154487379Y-48940682D02*
X154262012Y-48940468D01*
X154633883Y-39705746D02*
X154633883Y-37235648D01*
X154663883Y-40220430D02*
G75*
G02*
X154623883Y-40220430I-20000J0D01*
G01*
X154623883Y-40220430D02*
G75*
G02*
X154663883Y-40220430I20000J0D01*
G01*
X155111668Y-40220430D02*
G75*
G02*
X154176098Y-40220430I-467785J0D01*
G01*
X154176098Y-40220430D02*
G75*
G02*
X155111668Y-40220430I467785J0D01*
G01*
X154741262Y-48336214D02*
X154741262Y-45866116D01*
X154771262Y-48850898D02*
G75*
G02*
X154731262Y-48850898I-20000J0D01*
G01*
X154731262Y-48850898D02*
G75*
G02*
X154771262Y-48850898I20000J0D01*
G01*
X155007379Y-46880468D02*
X155232746Y-46880682D01*
X155158665Y-40220430D02*
X157633929Y-40220430D01*
X155227379Y-46880575D02*
X155227379Y-46580361D01*
X155232746Y-46880682D02*
G75*
G02*
X154233510Y-46909940I-500046J-18D01*
G01*
X155232746Y-46880682D02*
X155437379Y-46880682D01*
X155240062Y-46548522D02*
X155014695Y-46872413D01*
X155266044Y-48850898D02*
X157741308Y-48850898D01*
X155437379Y-46880682D02*
X155240062Y-46548522D01*
X156676632Y-49329612D02*
G75*
G02*
X156647378Y-48330443I-32J500012D01*
G01*
X156707379Y-49325835D02*
X156707379Y-49530468D01*
X156707379Y-49530468D02*
X157039539Y-49333151D01*
X156707486Y-49320468D02*
X157007700Y-49320468D01*
X156707593Y-49100468D02*
X156707379Y-49325835D01*
X157039539Y-49333151D02*
X156715648Y-49107784D01*
D12*
X161419868Y-31000000D02*
G75*
G02*
X161080132Y-31000000I-169868J0D01*
G01*
X161080132Y-31000000D02*
G75*
G02*
X161419868Y-31000000I169868J0D01*
G01*
D13*
G36*
X135773617Y-30210335D02*
G01*
X135799688Y-30236405D01*
X135833680Y-30304389D01*
X135833680Y-30411126D01*
X135799687Y-30479110D01*
X135769627Y-30509171D01*
X135701644Y-30543163D01*
X135415252Y-30543163D01*
X135415252Y-30172353D01*
X135659672Y-30172353D01*
X135773617Y-30210335D01*
G37*
G36*
X135722007Y-29730154D02*
G01*
X135752069Y-29760215D01*
X135786061Y-29828199D01*
X135786061Y-29887317D01*
X135752069Y-29955300D01*
X135722007Y-29985361D01*
X135654025Y-30019353D01*
X135415252Y-30019353D01*
X135415252Y-29696163D01*
X135654025Y-29696163D01*
X135722007Y-29730154D01*
G37*
G36*
X137626769Y-29730154D02*
G01*
X137656831Y-29760215D01*
X137690823Y-29828199D01*
X137690823Y-29934936D01*
X137656831Y-30002919D01*
X137626769Y-30032980D01*
X137558787Y-30066972D01*
X137272395Y-30066972D01*
X137272395Y-29696163D01*
X137558787Y-29696163D01*
X137626769Y-29730154D01*
G37*
G36*
X136661185Y-30257448D02*
G01*
X136397271Y-30257448D01*
X136529228Y-29861576D01*
X136661185Y-30257448D01*
G37*
G36*
X137954934Y-30807274D02*
G01*
X135151141Y-30807274D01*
X135151141Y-29619663D01*
X135262252Y-29619663D01*
X135262252Y-30619663D01*
X135263722Y-30634587D01*
X135275145Y-30662164D01*
X135296251Y-30683270D01*
X135323828Y-30694693D01*
X135338752Y-30696163D01*
X135719704Y-30696163D01*
X135734628Y-30694693D01*
X135737168Y-30693640D01*
X135739910Y-30693446D01*
X135753916Y-30688087D01*
X135849154Y-30640468D01*
X135855578Y-30636423D01*
X135857444Y-30635651D01*
X135859543Y-30633927D01*
X135861845Y-30632479D01*
X135863169Y-30630952D01*
X135869036Y-30626137D01*
X135885078Y-30610095D01*
X136119996Y-30610095D01*
X136122112Y-30639869D01*
X136135461Y-30666566D01*
X136158010Y-30686123D01*
X136186327Y-30695562D01*
X136216101Y-30693446D01*
X136242798Y-30680097D01*
X136262355Y-30657548D01*
X136268469Y-30643854D01*
X136346271Y-30410448D01*
X136712185Y-30410448D01*
X136789987Y-30643854D01*
X136796101Y-30657547D01*
X136815658Y-30680097D01*
X136842355Y-30693445D01*
X136872129Y-30695562D01*
X136900446Y-30686123D01*
X136922995Y-30666565D01*
X136936344Y-30639868D01*
X136938460Y-30610094D01*
X136935135Y-30595471D01*
X136609866Y-29619663D01*
X137119395Y-29619663D01*
X137119395Y-30619663D01*
X137120865Y-30634587D01*
X137132288Y-30662164D01*
X137153394Y-30683270D01*
X137180971Y-30694693D01*
X137210819Y-30694693D01*
X137238396Y-30683270D01*
X137259502Y-30662164D01*
X137270925Y-30634587D01*
X137272395Y-30619663D01*
X137272395Y-30219972D01*
X137394160Y-30219972D01*
X137704652Y-30663533D01*
X137714414Y-30674916D01*
X137739587Y-30690958D01*
X137768981Y-30696145D01*
X137798124Y-30689689D01*
X137822576Y-30672572D01*
X137838617Y-30647399D01*
X137843805Y-30618005D01*
X137837348Y-30588863D01*
X137829994Y-30575793D01*
X137580657Y-30219596D01*
X137591771Y-30218502D01*
X137594311Y-30217449D01*
X137597053Y-30217255D01*
X137611059Y-30211896D01*
X137706297Y-30164277D01*
X137712723Y-30160231D01*
X137714586Y-30159460D01*
X137716684Y-30157738D01*
X137718988Y-30156288D01*
X137720312Y-30154761D01*
X137726179Y-30149947D01*
X137773797Y-30102328D01*
X137778612Y-30096461D01*
X137780139Y-30095137D01*
X137781587Y-30092835D01*
X137783311Y-30090736D01*
X137784083Y-30088870D01*
X137788128Y-30082446D01*
X137835747Y-29987208D01*
X137841106Y-29973202D01*
X137841300Y-29970460D01*
X137842353Y-29967920D01*
X137843823Y-29952996D01*
X137843823Y-29810139D01*
X137842353Y-29795215D01*
X137841300Y-29792674D01*
X137841106Y-29789933D01*
X137835747Y-29775927D01*
X137788128Y-29680689D01*
X137784083Y-29674264D01*
X137783311Y-29672399D01*
X137781587Y-29670299D01*
X137780139Y-29667998D01*
X137778612Y-29666673D01*
X137773797Y-29660807D01*
X137726179Y-29613188D01*
X137720312Y-29608373D01*
X137718988Y-29606847D01*
X137716684Y-29605396D01*
X137714586Y-29603675D01*
X137712723Y-29602903D01*
X137706297Y-29598858D01*
X137611059Y-29551239D01*
X137597053Y-29545880D01*
X137594311Y-29545685D01*
X137591771Y-29544633D01*
X137576847Y-29543163D01*
X137195895Y-29543163D01*
X137180971Y-29544633D01*
X137153394Y-29556056D01*
X137132288Y-29577162D01*
X137120865Y-29604739D01*
X137119395Y-29619663D01*
X136609866Y-29619663D01*
X136601802Y-29595472D01*
X136595688Y-29581778D01*
X136592105Y-29577646D01*
X136589662Y-29572761D01*
X136582418Y-29566477D01*
X136576131Y-29559229D01*
X136571242Y-29556784D01*
X136567113Y-29553203D01*
X136558013Y-29550169D01*
X136549434Y-29545880D01*
X136543981Y-29545492D01*
X136538796Y-29543764D01*
X136529230Y-29544444D01*
X136519660Y-29543764D01*
X136514471Y-29545493D01*
X136509022Y-29545881D01*
X136500447Y-29550168D01*
X136491343Y-29553203D01*
X136487212Y-29556785D01*
X136482325Y-29559229D01*
X136476041Y-29566474D01*
X136468794Y-29572760D01*
X136466348Y-29577650D01*
X136462768Y-29581779D01*
X136456654Y-29595472D01*
X136123321Y-30595472D01*
X136119996Y-30610095D01*
X135885078Y-30610095D01*
X135916655Y-30578517D01*
X135921467Y-30572652D01*
X135922996Y-30571327D01*
X135924446Y-30569022D01*
X135926168Y-30566925D01*
X135926939Y-30565062D01*
X135930985Y-30558636D01*
X135978604Y-30463398D01*
X135983963Y-30449392D01*
X135984157Y-30446650D01*
X135985210Y-30444110D01*
X135986680Y-30429186D01*
X135986680Y-30286329D01*
X135985210Y-30271405D01*
X135984157Y-30268864D01*
X135983963Y-30266123D01*
X135978604Y-30252117D01*
X135930985Y-30156879D01*
X135926940Y-30150454D01*
X135926168Y-30148589D01*
X135924444Y-30146489D01*
X135922996Y-30144188D01*
X135921469Y-30142863D01*
X135916654Y-30136997D01*
X135869036Y-30089378D01*
X135857443Y-30079865D01*
X135854902Y-30078812D01*
X135852826Y-30077012D01*
X135848613Y-30075131D01*
X135869035Y-30054709D01*
X135873850Y-30048842D01*
X135875377Y-30047518D01*
X135876825Y-30045216D01*
X135878549Y-30043117D01*
X135879321Y-30041251D01*
X135883366Y-30034827D01*
X135930985Y-29939589D01*
X135936344Y-29925583D01*
X135936538Y-29922841D01*
X135937591Y-29920301D01*
X135939061Y-29905377D01*
X135939061Y-29810139D01*
X135937591Y-29795215D01*
X135936538Y-29792674D01*
X135936344Y-29789933D01*
X135930985Y-29775927D01*
X135883366Y-29680689D01*
X135879321Y-29674264D01*
X135878549Y-29672399D01*
X135876825Y-29670299D01*
X135875377Y-29667998D01*
X135873850Y-29666673D01*
X135869035Y-29660807D01*
X135821417Y-29613188D01*
X135815550Y-29608373D01*
X135814226Y-29606847D01*
X135811922Y-29605396D01*
X135809824Y-29603675D01*
X135807961Y-29602903D01*
X135801535Y-29598858D01*
X135706297Y-29551239D01*
X135692291Y-29545880D01*
X135689549Y-29545685D01*
X135687009Y-29544633D01*
X135672085Y-29543163D01*
X135338752Y-29543163D01*
X135323828Y-29544633D01*
X135296251Y-29556056D01*
X135275145Y-29577162D01*
X135263722Y-29604739D01*
X135262252Y-29619663D01*
X135151141Y-29619663D01*
X135151141Y-29432052D01*
X137954934Y-29432052D01*
X137954934Y-30807274D01*
G37*
G36*
X137716838Y-42057274D02*
G01*
X135151141Y-42057274D01*
X135151141Y-40869663D01*
X135262252Y-40869663D01*
X135262252Y-41869663D01*
X135263722Y-41884587D01*
X135275145Y-41912164D01*
X135296251Y-41933270D01*
X135323828Y-41944693D01*
X135353676Y-41944693D01*
X135381253Y-41933270D01*
X135402359Y-41912164D01*
X135413782Y-41884587D01*
X135415252Y-41869663D01*
X135415252Y-40869663D01*
X135738442Y-40869663D01*
X135738442Y-41869663D01*
X135739912Y-41884587D01*
X135751335Y-41912164D01*
X135772441Y-41933270D01*
X135800018Y-41944693D01*
X135829866Y-41944693D01*
X135857443Y-41933270D01*
X135878549Y-41912164D01*
X135889972Y-41884587D01*
X135891442Y-41869663D01*
X135891442Y-41214491D01*
X136078952Y-41616299D01*
X136082190Y-41621766D01*
X136082863Y-41623615D01*
X136084060Y-41624922D01*
X136086595Y-41629201D01*
X136095167Y-41637051D01*
X136103022Y-41645628D01*
X136106104Y-41647066D01*
X136108609Y-41649360D01*
X136119530Y-41653331D01*
X136130070Y-41658250D01*
X136133465Y-41658399D01*
X136136660Y-41659561D01*
X136148275Y-41659050D01*
X136159890Y-41659561D01*
X136163084Y-41658399D01*
X136166480Y-41658250D01*
X136177017Y-41653332D01*
X136187942Y-41649360D01*
X136190447Y-41647065D01*
X136193528Y-41645628D01*
X136201380Y-41637053D01*
X136209955Y-41629201D01*
X136212489Y-41624922D01*
X136213687Y-41623615D01*
X136214359Y-41621766D01*
X136217598Y-41616299D01*
X136405108Y-41214491D01*
X136405108Y-41869663D01*
X136406578Y-41884587D01*
X136418001Y-41912164D01*
X136439107Y-41933270D01*
X136466684Y-41944693D01*
X136496532Y-41944693D01*
X136524109Y-41933270D01*
X136545215Y-41912164D01*
X136556638Y-41884587D01*
X136558108Y-41869663D01*
X136558108Y-40869663D01*
X136881299Y-40869663D01*
X136881299Y-41679186D01*
X136882769Y-41694110D01*
X136883821Y-41696650D01*
X136884016Y-41699392D01*
X136889375Y-41713398D01*
X136936994Y-41808636D01*
X136941036Y-41815058D01*
X136941810Y-41816925D01*
X136943534Y-41819026D01*
X136944983Y-41821327D01*
X136946509Y-41822650D01*
X136951324Y-41828517D01*
X136998943Y-41876137D01*
X137004809Y-41880952D01*
X137006134Y-41882479D01*
X137008435Y-41883927D01*
X137010535Y-41885651D01*
X137012400Y-41886423D01*
X137018825Y-41890468D01*
X137114063Y-41938087D01*
X137128069Y-41943446D01*
X137130810Y-41943640D01*
X137133351Y-41944693D01*
X137148275Y-41946163D01*
X137338751Y-41946163D01*
X137353675Y-41944693D01*
X137356215Y-41943640D01*
X137358957Y-41943446D01*
X137372963Y-41938087D01*
X137468201Y-41890468D01*
X137474625Y-41886423D01*
X137476491Y-41885651D01*
X137478590Y-41883927D01*
X137480892Y-41882479D01*
X137482216Y-41880952D01*
X137488083Y-41876137D01*
X137535702Y-41828517D01*
X137540514Y-41822652D01*
X137542043Y-41821327D01*
X137543493Y-41819022D01*
X137545215Y-41816925D01*
X137545986Y-41815062D01*
X137550032Y-41808636D01*
X137597651Y-41713398D01*
X137603010Y-41699392D01*
X137603204Y-41696650D01*
X137604257Y-41694110D01*
X137605727Y-41679186D01*
X137605727Y-40869663D01*
X137604257Y-40854739D01*
X137592834Y-40827162D01*
X137571728Y-40806056D01*
X137544151Y-40794633D01*
X137514303Y-40794633D01*
X137486726Y-40806056D01*
X137465620Y-40827162D01*
X137454197Y-40854739D01*
X137452727Y-40869663D01*
X137452727Y-41661126D01*
X137418734Y-41729110D01*
X137388674Y-41759171D01*
X137320691Y-41793163D01*
X137166335Y-41793163D01*
X137098351Y-41759171D01*
X137068291Y-41729110D01*
X137034299Y-41661126D01*
X137034299Y-40869663D01*
X137032829Y-40854739D01*
X137021406Y-40827162D01*
X137000300Y-40806056D01*
X136972723Y-40794633D01*
X136942875Y-40794633D01*
X136915298Y-40806056D01*
X136894192Y-40827162D01*
X136882769Y-40854739D01*
X136881299Y-40869663D01*
X136558108Y-40869663D01*
X136557141Y-40859852D01*
X136557221Y-40858048D01*
X136556868Y-40857078D01*
X136556638Y-40854739D01*
X136551557Y-40842474D01*
X136547020Y-40829996D01*
X136545867Y-40828737D01*
X136545215Y-40827162D01*
X136535831Y-40817778D01*
X136526861Y-40807983D01*
X136525314Y-40807261D01*
X136524109Y-40806056D01*
X136511849Y-40800977D01*
X136499813Y-40795361D01*
X136498108Y-40795286D01*
X136496532Y-40794633D01*
X136483254Y-40794633D01*
X136469993Y-40794050D01*
X136468390Y-40794633D01*
X136466684Y-40794633D01*
X136454415Y-40799715D01*
X136441942Y-40804251D01*
X136440684Y-40805402D01*
X136439107Y-40806056D01*
X136429718Y-40815444D01*
X136419928Y-40824410D01*
X136418729Y-40826433D01*
X136418001Y-40827162D01*
X136417311Y-40828827D01*
X136412285Y-40837312D01*
X136148274Y-41403048D01*
X135884265Y-40837312D01*
X135879238Y-40828827D01*
X135878549Y-40827162D01*
X135877820Y-40826433D01*
X135876622Y-40824410D01*
X135866826Y-40815439D01*
X135857443Y-40806056D01*
X135855867Y-40805403D01*
X135854609Y-40804251D01*
X135842130Y-40799713D01*
X135829866Y-40794633D01*
X135828160Y-40794633D01*
X135826557Y-40794050D01*
X135813296Y-40794633D01*
X135800018Y-40794633D01*
X135798441Y-40795286D01*
X135796737Y-40795361D01*
X135784700Y-40800977D01*
X135772441Y-40806056D01*
X135771235Y-40807261D01*
X135769689Y-40807983D01*
X135760718Y-40817778D01*
X135751335Y-40827162D01*
X135750682Y-40828737D01*
X135749530Y-40829996D01*
X135744992Y-40842474D01*
X135739912Y-40854739D01*
X135739681Y-40857078D01*
X135739329Y-40858048D01*
X135739408Y-40859852D01*
X135738442Y-40869663D01*
X135415252Y-40869663D01*
X135413782Y-40854739D01*
X135402359Y-40827162D01*
X135381253Y-40806056D01*
X135353676Y-40794633D01*
X135323828Y-40794633D01*
X135296251Y-40806056D01*
X135275145Y-40827162D01*
X135263722Y-40854739D01*
X135262252Y-40869663D01*
X135151141Y-40869663D01*
X135151141Y-40682939D01*
X137716838Y-40682939D01*
X137716838Y-42057274D01*
G37*
X138193514Y-55769663D02*
X138860180Y-55769663D01*
X138860180Y-55769663D02*
X138193514Y-56769663D01*
X138193514Y-56769663D02*
X138860180Y-56769663D01*
X138243514Y-50119663D02*
X138910180Y-51119663D01*
X138910180Y-50119663D02*
X138243514Y-51119663D01*
X142529228Y-54893472D02*
X142529228Y-55369663D01*
X142195895Y-54369663D02*
X142529228Y-54893472D01*
X142529228Y-54893472D02*
X142862561Y-54369663D01*
G36*
X153554042Y-54507448D02*
G01*
X153290128Y-54507448D01*
X153422085Y-54111576D01*
X153554042Y-54507448D01*
G37*
G36*
X154847791Y-55057274D02*
G01*
X151901141Y-55057274D01*
X151901141Y-53869663D01*
X152012252Y-53869663D01*
X152012252Y-54869663D01*
X152013722Y-54884587D01*
X152025145Y-54912164D01*
X152046251Y-54933270D01*
X152073828Y-54944693D01*
X152103676Y-54944693D01*
X152131253Y-54933270D01*
X152152359Y-54912164D01*
X152163782Y-54884587D01*
X152165252Y-54869663D01*
X152165252Y-54214491D01*
X152352762Y-54616299D01*
X152356000Y-54621766D01*
X152356673Y-54623615D01*
X152357870Y-54624922D01*
X152360405Y-54629201D01*
X152368977Y-54637051D01*
X152376832Y-54645628D01*
X152379914Y-54647066D01*
X152382419Y-54649360D01*
X152393340Y-54653331D01*
X152403880Y-54658250D01*
X152407275Y-54658399D01*
X152410470Y-54659561D01*
X152422085Y-54659050D01*
X152433700Y-54659561D01*
X152436894Y-54658399D01*
X152440290Y-54658250D01*
X152450827Y-54653332D01*
X152461752Y-54649360D01*
X152464257Y-54647065D01*
X152467338Y-54645628D01*
X152475190Y-54637053D01*
X152483765Y-54629201D01*
X152486299Y-54624922D01*
X152487497Y-54623615D01*
X152488169Y-54621766D01*
X152491408Y-54616299D01*
X152678918Y-54214491D01*
X152678918Y-54869663D01*
X152680388Y-54884587D01*
X152691811Y-54912164D01*
X152712917Y-54933270D01*
X152740494Y-54944693D01*
X152770342Y-54944693D01*
X152797919Y-54933270D01*
X152819025Y-54912164D01*
X152830448Y-54884587D01*
X152831918Y-54869663D01*
X152831918Y-54860095D01*
X153012853Y-54860095D01*
X153014969Y-54889869D01*
X153028318Y-54916566D01*
X153050867Y-54936123D01*
X153079184Y-54945562D01*
X153108958Y-54943446D01*
X153135655Y-54930097D01*
X153155212Y-54907548D01*
X153161326Y-54893854D01*
X153239128Y-54660448D01*
X153605042Y-54660448D01*
X153682844Y-54893854D01*
X153688958Y-54907547D01*
X153708515Y-54930097D01*
X153735212Y-54943445D01*
X153764986Y-54945562D01*
X153793303Y-54936123D01*
X153815852Y-54916565D01*
X153829201Y-54889868D01*
X153831317Y-54860094D01*
X153827992Y-54845471D01*
X153645580Y-54298234D01*
X153964633Y-54298234D01*
X153964633Y-54441091D01*
X153964889Y-54443696D01*
X153964724Y-54444810D01*
X153965549Y-54450391D01*
X153966103Y-54456015D01*
X153966534Y-54457056D01*
X153966917Y-54459645D01*
X154014536Y-54650121D01*
X154014929Y-54651223D01*
X154014969Y-54651773D01*
X154017347Y-54657988D01*
X154019582Y-54664243D01*
X154019909Y-54664684D01*
X154020328Y-54665779D01*
X154067947Y-54761017D01*
X154071992Y-54767443D01*
X154072764Y-54769306D01*
X154074485Y-54771403D01*
X154075936Y-54773708D01*
X154077464Y-54775033D01*
X154082277Y-54780898D01*
X154177515Y-54876138D01*
X154189108Y-54885651D01*
X154191647Y-54886702D01*
X154193724Y-54888504D01*
X154207418Y-54894618D01*
X154350274Y-54942237D01*
X154357676Y-54943920D01*
X154359542Y-54944693D01*
X154362247Y-54944959D01*
X154364897Y-54945562D01*
X154366911Y-54945418D01*
X154374466Y-54946163D01*
X154469704Y-54946163D01*
X154477258Y-54945418D01*
X154479272Y-54945562D01*
X154481921Y-54944959D01*
X154484628Y-54944693D01*
X154486495Y-54943919D01*
X154493895Y-54942237D01*
X154636752Y-54894618D01*
X154650445Y-54888504D01*
X154652520Y-54886704D01*
X154655063Y-54885651D01*
X154666655Y-54876137D01*
X154714274Y-54828517D01*
X154723787Y-54816925D01*
X154735210Y-54789348D01*
X154736680Y-54774424D01*
X154736680Y-54441091D01*
X154735210Y-54426167D01*
X154723787Y-54398590D01*
X154702681Y-54377484D01*
X154675104Y-54366061D01*
X154660180Y-54364591D01*
X154469704Y-54364591D01*
X154454780Y-54366061D01*
X154427203Y-54377484D01*
X154406097Y-54398590D01*
X154394674Y-54426167D01*
X154394674Y-54456015D01*
X154406097Y-54483592D01*
X154427203Y-54504698D01*
X154454780Y-54516121D01*
X154469704Y-54517591D01*
X154583680Y-54517591D01*
X154583680Y-54742737D01*
X154571237Y-54755180D01*
X154457291Y-54793163D01*
X154386879Y-54793163D01*
X154272933Y-54755181D01*
X154199244Y-54681491D01*
X154160931Y-54604865D01*
X154117633Y-54431673D01*
X154117633Y-54307652D01*
X154160931Y-54134460D01*
X154199243Y-54057836D01*
X154272934Y-53984144D01*
X154386879Y-53946163D01*
X154499263Y-53946163D01*
X154578349Y-53985706D01*
X154592355Y-53991065D01*
X154622129Y-53993181D01*
X154650446Y-53983742D01*
X154672995Y-53964185D01*
X154686344Y-53937488D01*
X154688460Y-53907714D01*
X154679021Y-53879397D01*
X154659464Y-53856847D01*
X154646773Y-53848858D01*
X154551535Y-53801239D01*
X154537529Y-53795880D01*
X154534787Y-53795685D01*
X154532247Y-53794633D01*
X154517323Y-53793163D01*
X154374466Y-53793163D01*
X154366911Y-53793907D01*
X154364897Y-53793764D01*
X154362247Y-53794366D01*
X154359542Y-53794633D01*
X154357676Y-53795405D01*
X154350274Y-53797089D01*
X154207418Y-53844708D01*
X154193724Y-53850822D01*
X154191647Y-53852623D01*
X154189108Y-53853675D01*
X154177515Y-53863188D01*
X154082277Y-53958426D01*
X154077462Y-53964292D01*
X154075936Y-53965617D01*
X154074485Y-53967920D01*
X154072764Y-53970019D01*
X154071992Y-53971881D01*
X154067947Y-53978308D01*
X154020328Y-54073546D01*
X154019909Y-54074640D01*
X154019582Y-54075082D01*
X154017347Y-54081336D01*
X154014969Y-54087552D01*
X154014929Y-54088101D01*
X154014536Y-54089204D01*
X153966917Y-54279680D01*
X153966534Y-54282268D01*
X153966103Y-54283310D01*
X153965549Y-54288933D01*
X153964724Y-54294515D01*
X153964889Y-54295628D01*
X153964633Y-54298234D01*
X153645580Y-54298234D01*
X153494659Y-53845472D01*
X153488545Y-53831778D01*
X153484962Y-53827646D01*
X153482519Y-53822761D01*
X153475275Y-53816477D01*
X153468988Y-53809229D01*
X153464099Y-53806784D01*
X153459970Y-53803203D01*
X153450870Y-53800169D01*
X153442291Y-53795880D01*
X153436838Y-53795492D01*
X153431653Y-53793764D01*
X153422087Y-53794444D01*
X153412517Y-53793764D01*
X153407328Y-53795493D01*
X153401879Y-53795881D01*
X153393304Y-53800168D01*
X153384200Y-53803203D01*
X153380069Y-53806785D01*
X153375182Y-53809229D01*
X153368898Y-53816474D01*
X153361651Y-53822760D01*
X153359205Y-53827650D01*
X153355625Y-53831779D01*
X153349511Y-53845472D01*
X153016178Y-54845472D01*
X153012853Y-54860095D01*
X152831918Y-54860095D01*
X152831918Y-53869663D01*
X152830951Y-53859852D01*
X152831031Y-53858048D01*
X152830678Y-53857078D01*
X152830448Y-53854739D01*
X152825367Y-53842474D01*
X152820830Y-53829996D01*
X152819677Y-53828737D01*
X152819025Y-53827162D01*
X152809641Y-53817778D01*
X152800671Y-53807983D01*
X152799124Y-53807261D01*
X152797919Y-53806056D01*
X152785659Y-53800977D01*
X152773623Y-53795361D01*
X152771918Y-53795286D01*
X152770342Y-53794633D01*
X152757064Y-53794633D01*
X152743803Y-53794050D01*
X152742200Y-53794633D01*
X152740494Y-53794633D01*
X152728225Y-53799715D01*
X152715752Y-53804251D01*
X152714494Y-53805402D01*
X152712917Y-53806056D01*
X152703528Y-53815444D01*
X152693738Y-53824410D01*
X152692539Y-53826433D01*
X152691811Y-53827162D01*
X152691121Y-53828827D01*
X152686095Y-53837312D01*
X152422084Y-54403048D01*
X152158075Y-53837312D01*
X152153048Y-53828827D01*
X152152359Y-53827162D01*
X152151630Y-53826433D01*
X152150432Y-53824410D01*
X152140636Y-53815439D01*
X152131253Y-53806056D01*
X152129677Y-53805403D01*
X152128419Y-53804251D01*
X152115940Y-53799713D01*
X152103676Y-53794633D01*
X152101970Y-53794633D01*
X152100367Y-53794050D01*
X152087106Y-53794633D01*
X152073828Y-53794633D01*
X152072251Y-53795286D01*
X152070547Y-53795361D01*
X152058510Y-53800977D01*
X152046251Y-53806056D01*
X152045045Y-53807261D01*
X152043499Y-53807983D01*
X152034528Y-53817778D01*
X152025145Y-53827162D01*
X152024492Y-53828737D01*
X152023340Y-53829996D01*
X152018802Y-53842474D01*
X152013722Y-53854739D01*
X152013491Y-53857078D01*
X152013139Y-53858048D01*
X152013218Y-53859852D01*
X152012252Y-53869663D01*
X151901141Y-53869663D01*
X151901141Y-53682052D01*
X154847791Y-53682052D01*
X154847791Y-55057274D01*
G37*
X154377397Y-41105311D02*
X155044063Y-41105311D01*
X155044063Y-41105311D02*
X154377397Y-42105311D01*
X154377397Y-42105311D02*
X155044063Y-42105311D01*
X154713111Y-35979120D02*
X154713111Y-36455311D01*
X154379778Y-35455311D02*
X154713111Y-35979120D01*
X154713111Y-35979120D02*
X155046444Y-35455311D01*
X156410180Y-45619663D02*
X156076847Y-45143472D01*
X155838752Y-45619663D02*
X155838752Y-44619663D01*
X155838752Y-44619663D02*
X156219704Y-44619663D01*
X156219704Y-44619663D02*
X156314942Y-44667282D01*
X156314942Y-44667282D02*
X156362561Y-44714901D01*
X156362561Y-44714901D02*
X156410180Y-44810139D01*
X156410180Y-44810139D02*
X156410180Y-44952996D01*
X156410180Y-44952996D02*
X156362561Y-45048234D01*
X156362561Y-45048234D02*
X156314942Y-45095853D01*
X156314942Y-45095853D02*
X156219704Y-45143472D01*
X156219704Y-45143472D02*
X155838752Y-45143472D01*
X156029228Y-51143472D02*
X156029228Y-51619663D01*
X155695895Y-50619663D02*
X156029228Y-51143472D01*
X156029228Y-51143472D02*
X156362561Y-50619663D01*
X158427397Y-39705311D02*
X159094063Y-40705311D01*
X159094063Y-39705311D02*
X158427397Y-40705311D01*
G36*
X160519626Y-28980154D02*
G01*
X160549688Y-29010215D01*
X160583680Y-29078199D01*
X160583680Y-29184936D01*
X160549688Y-29252919D01*
X160519626Y-29282980D01*
X160451644Y-29316972D01*
X160165252Y-29316972D01*
X160165252Y-28946163D01*
X160451644Y-28946163D01*
X160519626Y-28980154D01*
G37*
G36*
X161800172Y-30057274D02*
G01*
X158853522Y-30057274D01*
X158853522Y-29298234D01*
X158964633Y-29298234D01*
X158964633Y-29441091D01*
X158964889Y-29443696D01*
X158964724Y-29444810D01*
X158965549Y-29450391D01*
X158966103Y-29456015D01*
X158966534Y-29457056D01*
X158966917Y-29459645D01*
X159014536Y-29650121D01*
X159014929Y-29651223D01*
X159014969Y-29651773D01*
X159017347Y-29657988D01*
X159019582Y-29664243D01*
X159019909Y-29664684D01*
X159020328Y-29665779D01*
X159067947Y-29761017D01*
X159071992Y-29767443D01*
X159072764Y-29769306D01*
X159074485Y-29771403D01*
X159075936Y-29773708D01*
X159077464Y-29775033D01*
X159082277Y-29780898D01*
X159177515Y-29876138D01*
X159189108Y-29885651D01*
X159191647Y-29886702D01*
X159193724Y-29888504D01*
X159207418Y-29894618D01*
X159350274Y-29942237D01*
X159357676Y-29943920D01*
X159359542Y-29944693D01*
X159362247Y-29944959D01*
X159364897Y-29945562D01*
X159366911Y-29945418D01*
X159374466Y-29946163D01*
X159469704Y-29946163D01*
X159477258Y-29945418D01*
X159479272Y-29945562D01*
X159481921Y-29944959D01*
X159484628Y-29944693D01*
X159486495Y-29943919D01*
X159493895Y-29942237D01*
X159636752Y-29894618D01*
X159650445Y-29888504D01*
X159652520Y-29886704D01*
X159655063Y-29885651D01*
X159666655Y-29876137D01*
X159714274Y-29828517D01*
X159723787Y-29816925D01*
X159735210Y-29789348D01*
X159736680Y-29774424D01*
X159736680Y-29441091D01*
X159735210Y-29426167D01*
X159723787Y-29398590D01*
X159702681Y-29377484D01*
X159675104Y-29366061D01*
X159660180Y-29364591D01*
X159469704Y-29364591D01*
X159454780Y-29366061D01*
X159427203Y-29377484D01*
X159406097Y-29398590D01*
X159394674Y-29426167D01*
X159394674Y-29456015D01*
X159406097Y-29483592D01*
X159427203Y-29504698D01*
X159454780Y-29516121D01*
X159469704Y-29517591D01*
X159583680Y-29517591D01*
X159583680Y-29742737D01*
X159571237Y-29755180D01*
X159457291Y-29793163D01*
X159386879Y-29793163D01*
X159272933Y-29755181D01*
X159199244Y-29681491D01*
X159160931Y-29604865D01*
X159117633Y-29431673D01*
X159117633Y-29307652D01*
X159160931Y-29134460D01*
X159199243Y-29057836D01*
X159272934Y-28984144D01*
X159386879Y-28946163D01*
X159499263Y-28946163D01*
X159578349Y-28985706D01*
X159592355Y-28991065D01*
X159622129Y-28993181D01*
X159650446Y-28983742D01*
X159672995Y-28964185D01*
X159686344Y-28937488D01*
X159688460Y-28907714D01*
X159679021Y-28879397D01*
X159670579Y-28869663D01*
X160012252Y-28869663D01*
X160012252Y-29869663D01*
X160013722Y-29884587D01*
X160025145Y-29912164D01*
X160046251Y-29933270D01*
X160073828Y-29944693D01*
X160103676Y-29944693D01*
X160131253Y-29933270D01*
X160152359Y-29912164D01*
X160163782Y-29884587D01*
X160165252Y-29869663D01*
X160165252Y-29469972D01*
X160469704Y-29469972D01*
X160484628Y-29468502D01*
X160487168Y-29467449D01*
X160489910Y-29467255D01*
X160503916Y-29461896D01*
X160599154Y-29414277D01*
X160605580Y-29410231D01*
X160607443Y-29409460D01*
X160609541Y-29407738D01*
X160611845Y-29406288D01*
X160613169Y-29404761D01*
X160619036Y-29399947D01*
X160666654Y-29352328D01*
X160671469Y-29346461D01*
X160672996Y-29345137D01*
X160674444Y-29342835D01*
X160676168Y-29340736D01*
X160676940Y-29338870D01*
X160680985Y-29332446D01*
X160728604Y-29237208D01*
X160733963Y-29223202D01*
X160734157Y-29220460D01*
X160735210Y-29217920D01*
X160736680Y-29202996D01*
X160736680Y-29060139D01*
X160964633Y-29060139D01*
X160964633Y-29155377D01*
X160966103Y-29170301D01*
X160967155Y-29172841D01*
X160967350Y-29175583D01*
X160972709Y-29189589D01*
X161020328Y-29284827D01*
X161024373Y-29291253D01*
X161025145Y-29293116D01*
X161026866Y-29295214D01*
X161028317Y-29297518D01*
X161029843Y-29298842D01*
X161034658Y-29304709D01*
X161082277Y-29352327D01*
X161088143Y-29357142D01*
X161089468Y-29358669D01*
X161091769Y-29360117D01*
X161093869Y-29361841D01*
X161095734Y-29362613D01*
X161102159Y-29366658D01*
X161197397Y-29414277D01*
X161198491Y-29414695D01*
X161198933Y-29415023D01*
X161205187Y-29417257D01*
X161211403Y-29419636D01*
X161211952Y-29419675D01*
X161213055Y-29420069D01*
X161395383Y-29465651D01*
X161472007Y-29503963D01*
X161502069Y-29534024D01*
X161536061Y-29602008D01*
X161536061Y-29661126D01*
X161502068Y-29729110D01*
X161472008Y-29759171D01*
X161404025Y-29793163D01*
X161196403Y-29793163D01*
X161065324Y-29749470D01*
X161050701Y-29746145D01*
X161020927Y-29748261D01*
X160994230Y-29761610D01*
X160974673Y-29784159D01*
X160965234Y-29812476D01*
X160967350Y-29842250D01*
X160980699Y-29868947D01*
X161003248Y-29888504D01*
X161016942Y-29894618D01*
X161159798Y-29942237D01*
X161167200Y-29943920D01*
X161169066Y-29944693D01*
X161171771Y-29944959D01*
X161174421Y-29945562D01*
X161176435Y-29945418D01*
X161183990Y-29946163D01*
X161422085Y-29946163D01*
X161437009Y-29944693D01*
X161439549Y-29943640D01*
X161442291Y-29943446D01*
X161456297Y-29938087D01*
X161551535Y-29890468D01*
X161557959Y-29886423D01*
X161559825Y-29885651D01*
X161561924Y-29883927D01*
X161564226Y-29882479D01*
X161565550Y-29880952D01*
X161571417Y-29876137D01*
X161619036Y-29828517D01*
X161623848Y-29822652D01*
X161625377Y-29821327D01*
X161626827Y-29819022D01*
X161628549Y-29816925D01*
X161629320Y-29815062D01*
X161633366Y-29808636D01*
X161680985Y-29713398D01*
X161686344Y-29699392D01*
X161686538Y-29696650D01*
X161687591Y-29694110D01*
X161689061Y-29679186D01*
X161689061Y-29583948D01*
X161687591Y-29569024D01*
X161686538Y-29566483D01*
X161686344Y-29563742D01*
X161680985Y-29549736D01*
X161633366Y-29454498D01*
X161629321Y-29448073D01*
X161628549Y-29446208D01*
X161626825Y-29444108D01*
X161625377Y-29441807D01*
X161623850Y-29440482D01*
X161619035Y-29434616D01*
X161571417Y-29386997D01*
X161565550Y-29382182D01*
X161564226Y-29380656D01*
X161561922Y-29379205D01*
X161559824Y-29377484D01*
X161557961Y-29376712D01*
X161551535Y-29372667D01*
X161456297Y-29325048D01*
X161455202Y-29324629D01*
X161454761Y-29324302D01*
X161448506Y-29322067D01*
X161442291Y-29319689D01*
X161441741Y-29319649D01*
X161440639Y-29319256D01*
X161258311Y-29273674D01*
X161181685Y-29235361D01*
X161151624Y-29205299D01*
X161117633Y-29137317D01*
X161117633Y-29078199D01*
X161151624Y-29010216D01*
X161181685Y-28980154D01*
X161249669Y-28946163D01*
X161457291Y-28946163D01*
X161588369Y-28989856D01*
X161602992Y-28993181D01*
X161632766Y-28991065D01*
X161659463Y-28977716D01*
X161679021Y-28955167D01*
X161688460Y-28926850D01*
X161686343Y-28897076D01*
X161672995Y-28870379D01*
X161650445Y-28850822D01*
X161636752Y-28844708D01*
X161493895Y-28797089D01*
X161486495Y-28795406D01*
X161484628Y-28794633D01*
X161481921Y-28794366D01*
X161479272Y-28793764D01*
X161477258Y-28793907D01*
X161469704Y-28793163D01*
X161231609Y-28793163D01*
X161216685Y-28794633D01*
X161214144Y-28795685D01*
X161211403Y-28795880D01*
X161197397Y-28801239D01*
X161102159Y-28848858D01*
X161095734Y-28852902D01*
X161093869Y-28853675D01*
X161091769Y-28855398D01*
X161089468Y-28856847D01*
X161088143Y-28858373D01*
X161082277Y-28863189D01*
X161034658Y-28910807D01*
X161029843Y-28916673D01*
X161028317Y-28917998D01*
X161026866Y-28920301D01*
X161025145Y-28922400D01*
X161024373Y-28924262D01*
X161020328Y-28930689D01*
X160972709Y-29025927D01*
X160967350Y-29039933D01*
X160967155Y-29042674D01*
X160966103Y-29045215D01*
X160964633Y-29060139D01*
X160736680Y-29060139D01*
X160735210Y-29045215D01*
X160734157Y-29042674D01*
X160733963Y-29039933D01*
X160728604Y-29025927D01*
X160680985Y-28930689D01*
X160676940Y-28924264D01*
X160676168Y-28922399D01*
X160674444Y-28920299D01*
X160672996Y-28917998D01*
X160671469Y-28916673D01*
X160666654Y-28910807D01*
X160619036Y-28863188D01*
X160613169Y-28858373D01*
X160611845Y-28856847D01*
X160609541Y-28855396D01*
X160607443Y-28853675D01*
X160605580Y-28852903D01*
X160599154Y-28848858D01*
X160503916Y-28801239D01*
X160489910Y-28795880D01*
X160487168Y-28795685D01*
X160484628Y-28794633D01*
X160469704Y-28793163D01*
X160088752Y-28793163D01*
X160073828Y-28794633D01*
X160046251Y-28806056D01*
X160025145Y-28827162D01*
X160013722Y-28854739D01*
X160012252Y-28869663D01*
X159670579Y-28869663D01*
X159659464Y-28856847D01*
X159646773Y-28848858D01*
X159551535Y-28801239D01*
X159537529Y-28795880D01*
X159534787Y-28795685D01*
X159532247Y-28794633D01*
X159517323Y-28793163D01*
X159374466Y-28793163D01*
X159366911Y-28793907D01*
X159364897Y-28793764D01*
X159362247Y-28794366D01*
X159359542Y-28794633D01*
X159357676Y-28795405D01*
X159350274Y-28797089D01*
X159207418Y-28844708D01*
X159193724Y-28850822D01*
X159191647Y-28852623D01*
X159189108Y-28853675D01*
X159177515Y-28863188D01*
X159082277Y-28958426D01*
X159077462Y-28964292D01*
X159075936Y-28965617D01*
X159074485Y-28967920D01*
X159072764Y-28970019D01*
X159071992Y-28971881D01*
X159067947Y-28978308D01*
X159020328Y-29073546D01*
X159019909Y-29074640D01*
X159019582Y-29075082D01*
X159017347Y-29081336D01*
X159014969Y-29087552D01*
X159014929Y-29088101D01*
X159014536Y-29089204D01*
X158966917Y-29279680D01*
X158966534Y-29282268D01*
X158966103Y-29283310D01*
X158965549Y-29288933D01*
X158964724Y-29294515D01*
X158964889Y-29295628D01*
X158964633Y-29298234D01*
X158853522Y-29298234D01*
X158853522Y-28682052D01*
X161800172Y-28682052D01*
X161800172Y-30057274D01*
G37*
G36*
X161681124Y-37307087D02*
G01*
X159258885Y-37307087D01*
X159258885Y-36129231D01*
X159369996Y-36129231D01*
X159373321Y-36143854D01*
X159706654Y-37143854D01*
X159712768Y-37157547D01*
X159716348Y-37161675D01*
X159718794Y-37166566D01*
X159726041Y-37172851D01*
X159732325Y-37180097D01*
X159737212Y-37182540D01*
X159741343Y-37186123D01*
X159750447Y-37189157D01*
X159759022Y-37193445D01*
X159764471Y-37193832D01*
X159769660Y-37195562D01*
X159779230Y-37194881D01*
X159788796Y-37195562D01*
X159793981Y-37193833D01*
X159799434Y-37193446D01*
X159808013Y-37189156D01*
X159817113Y-37186123D01*
X159821242Y-37182541D01*
X159826131Y-37180097D01*
X159832418Y-37172848D01*
X159839662Y-37166565D01*
X159842105Y-37161679D01*
X159845688Y-37157548D01*
X159851802Y-37143854D01*
X160185135Y-36143855D01*
X160188460Y-36129232D01*
X160187780Y-36119663D01*
X160369395Y-36119663D01*
X160369395Y-37119663D01*
X160370865Y-37134587D01*
X160382288Y-37162164D01*
X160403394Y-37183270D01*
X160430971Y-37194693D01*
X160460819Y-37194693D01*
X160488396Y-37183270D01*
X160509502Y-37162164D01*
X160520925Y-37134587D01*
X160522395Y-37119663D01*
X160522395Y-36119663D01*
X160845585Y-36119663D01*
X160845585Y-37119663D01*
X160847055Y-37134587D01*
X160858478Y-37162164D01*
X160879584Y-37183270D01*
X160907161Y-37194693D01*
X160937009Y-37194693D01*
X160964586Y-37183270D01*
X160985692Y-37162164D01*
X160997115Y-37134587D01*
X160998585Y-37119663D01*
X160998585Y-36407730D01*
X161427092Y-37157618D01*
X161429327Y-37160766D01*
X161429906Y-37162164D01*
X161431330Y-37163588D01*
X161435773Y-37169846D01*
X161443818Y-37176076D01*
X161451012Y-37183270D01*
X161455517Y-37185136D01*
X161459373Y-37188122D01*
X161469188Y-37190798D01*
X161478589Y-37194693D01*
X161483466Y-37194693D01*
X161488170Y-37195976D01*
X161498263Y-37194693D01*
X161508437Y-37194693D01*
X161512941Y-37192827D01*
X161517781Y-37192212D01*
X161526618Y-37187161D01*
X161536014Y-37183270D01*
X161539460Y-37179823D01*
X161543696Y-37177403D01*
X161549926Y-37169357D01*
X161557120Y-37162164D01*
X161558986Y-37157658D01*
X161561972Y-37153803D01*
X161564648Y-37143987D01*
X161568543Y-37134587D01*
X161569294Y-37126953D01*
X161569826Y-37125006D01*
X161569634Y-37123502D01*
X161570013Y-37119663D01*
X161570013Y-36119663D01*
X161568543Y-36104739D01*
X161557120Y-36077162D01*
X161536014Y-36056056D01*
X161508437Y-36044633D01*
X161478589Y-36044633D01*
X161451012Y-36056056D01*
X161429906Y-36077162D01*
X161418483Y-36104739D01*
X161417013Y-36119663D01*
X161417013Y-36831596D01*
X160988506Y-36081708D01*
X160986270Y-36078559D01*
X160985692Y-36077162D01*
X160984267Y-36075737D01*
X160979825Y-36069480D01*
X160971779Y-36063249D01*
X160964586Y-36056056D01*
X160960080Y-36054189D01*
X160956225Y-36051204D01*
X160946409Y-36048527D01*
X160937009Y-36044633D01*
X160932132Y-36044633D01*
X160927428Y-36043350D01*
X160917335Y-36044633D01*
X160907161Y-36044633D01*
X160902656Y-36046498D01*
X160897817Y-36047114D01*
X160888979Y-36052164D01*
X160879584Y-36056056D01*
X160876137Y-36059502D01*
X160871902Y-36061923D01*
X160865671Y-36069968D01*
X160858478Y-36077162D01*
X160856611Y-36081667D01*
X160853626Y-36085523D01*
X160850949Y-36095338D01*
X160847055Y-36104739D01*
X160846303Y-36112372D01*
X160845772Y-36114320D01*
X160845963Y-36115823D01*
X160845585Y-36119663D01*
X160522395Y-36119663D01*
X160520925Y-36104739D01*
X160509502Y-36077162D01*
X160488396Y-36056056D01*
X160460819Y-36044633D01*
X160430971Y-36044633D01*
X160403394Y-36056056D01*
X160382288Y-36077162D01*
X160370865Y-36104739D01*
X160369395Y-36119663D01*
X160187780Y-36119663D01*
X160186344Y-36099458D01*
X160172995Y-36072761D01*
X160150446Y-36053203D01*
X160122129Y-36043764D01*
X160092355Y-36045881D01*
X160065658Y-36059229D01*
X160046101Y-36081779D01*
X160039987Y-36095472D01*
X159779228Y-36877749D01*
X159518469Y-36095472D01*
X159512355Y-36081778D01*
X159492798Y-36059229D01*
X159466101Y-36045880D01*
X159436327Y-36043764D01*
X159408010Y-36053203D01*
X159385461Y-36072760D01*
X159372112Y-36099457D01*
X159369996Y-36129231D01*
X159258885Y-36129231D01*
X159258885Y-35932239D01*
X161681124Y-35932239D01*
X161681124Y-37307087D01*
G37*
X160088752Y-50000131D02*
X160088752Y-49000131D01*
X160088752Y-49000131D02*
X160469704Y-49000131D01*
X160469704Y-49000131D02*
X160564942Y-49047750D01*
X160564942Y-49047750D02*
X160612561Y-49095369D01*
X160612561Y-49095369D02*
X160660180Y-49190607D01*
X160660180Y-49190607D02*
X160660180Y-49333464D01*
X160660180Y-49333464D02*
X160612561Y-49428702D01*
X160612561Y-49428702D02*
X160564942Y-49476321D01*
X160564942Y-49476321D02*
X160469704Y-49523940D01*
X160469704Y-49523940D02*
X160088752Y-49523940D01*
X160713752Y-38188710D02*
X161475657Y-38188710D01*
X160713752Y-39438710D02*
X161475657Y-39438710D01*
X161094704Y-39819663D02*
X161094704Y-39057758D01*
G36*
X167054042Y-42757448D02*
G01*
X166790128Y-42757448D01*
X166922085Y-42361576D01*
X167054042Y-42757448D01*
G37*
G36*
X168347791Y-43307274D02*
G01*
X161307373Y-43307274D01*
X161307373Y-42104739D01*
X161418484Y-42104739D01*
X161418484Y-42134587D01*
X161429907Y-42162164D01*
X161451013Y-42183270D01*
X161478590Y-42194693D01*
X161493514Y-42196163D01*
X161943972Y-42196163D01*
X161721656Y-42450239D01*
X161717043Y-42456691D01*
X161715621Y-42458114D01*
X161715062Y-42459463D01*
X161712935Y-42462439D01*
X161708955Y-42474205D01*
X161704198Y-42485691D01*
X161704198Y-42488272D01*
X161703372Y-42490715D01*
X161704198Y-42503107D01*
X161704198Y-42515539D01*
X161705185Y-42517922D01*
X161705357Y-42520497D01*
X161710865Y-42531636D01*
X161715621Y-42543116D01*
X161717445Y-42544940D01*
X161718589Y-42547253D01*
X161727940Y-42555435D01*
X161736727Y-42564222D01*
X161739110Y-42565209D01*
X161741052Y-42566908D01*
X161752818Y-42570887D01*
X161764304Y-42575645D01*
X161767946Y-42576003D01*
X161769328Y-42576471D01*
X161771333Y-42576337D01*
X161779228Y-42577115D01*
X161904025Y-42577115D01*
X161972007Y-42611106D01*
X162002069Y-42641167D01*
X162036061Y-42709151D01*
X162036061Y-42911126D01*
X162002068Y-42979110D01*
X161972008Y-43009171D01*
X161904025Y-43043163D01*
X161654431Y-43043163D01*
X161586447Y-43009171D01*
X161547608Y-42970331D01*
X161536016Y-42960817D01*
X161508439Y-42949394D01*
X161478591Y-42949394D01*
X161451013Y-42960816D01*
X161429907Y-42981922D01*
X161418484Y-43009499D01*
X161418484Y-43039347D01*
X161429906Y-43066925D01*
X161439420Y-43078517D01*
X161487039Y-43126137D01*
X161492905Y-43130952D01*
X161494230Y-43132479D01*
X161496531Y-43133927D01*
X161498631Y-43135651D01*
X161500496Y-43136423D01*
X161506921Y-43140468D01*
X161602159Y-43188087D01*
X161616165Y-43193446D01*
X161618906Y-43193640D01*
X161621447Y-43194693D01*
X161636371Y-43196163D01*
X161922085Y-43196163D01*
X161937009Y-43194693D01*
X161939549Y-43193640D01*
X161942291Y-43193446D01*
X161956297Y-43188087D01*
X162051535Y-43140468D01*
X162057959Y-43136423D01*
X162059825Y-43135651D01*
X162061924Y-43133927D01*
X162064226Y-43132479D01*
X162065550Y-43130952D01*
X162071417Y-43126137D01*
X162119036Y-43078517D01*
X162123848Y-43072652D01*
X162125377Y-43071327D01*
X162126827Y-43069022D01*
X162128549Y-43066925D01*
X162129320Y-43065062D01*
X162133366Y-43058636D01*
X162134124Y-43057121D01*
X162418484Y-43057121D01*
X162418484Y-43086969D01*
X162429907Y-43114546D01*
X162429911Y-43114550D01*
X162439420Y-43126138D01*
X162487039Y-43173756D01*
X162498631Y-43183270D01*
X162510054Y-43188001D01*
X162526209Y-43194693D01*
X162556057Y-43194693D01*
X162583634Y-43183270D01*
X162595227Y-43173757D01*
X162642845Y-43126138D01*
X162652359Y-43114546D01*
X162663781Y-43086969D01*
X162663781Y-43077161D01*
X162663782Y-43057120D01*
X162652359Y-43029543D01*
X162642846Y-43017951D01*
X162595227Y-42970331D01*
X162583635Y-42960817D01*
X162556058Y-42949394D01*
X162556057Y-42949394D01*
X162526209Y-42949394D01*
X162518132Y-42952739D01*
X162498632Y-42960816D01*
X162498631Y-42960817D01*
X162487039Y-42970331D01*
X162439420Y-43017951D01*
X162429906Y-43029543D01*
X162418484Y-43057121D01*
X162134124Y-43057121D01*
X162180985Y-42963398D01*
X162186344Y-42949392D01*
X162186538Y-42946650D01*
X162187591Y-42944110D01*
X162189061Y-42929186D01*
X162189061Y-42691091D01*
X162187591Y-42676167D01*
X162186538Y-42673626D01*
X162186344Y-42670885D01*
X162180985Y-42656879D01*
X162133366Y-42561641D01*
X162129321Y-42555216D01*
X162128549Y-42553351D01*
X162126825Y-42551251D01*
X162125377Y-42548950D01*
X162123850Y-42547625D01*
X162119035Y-42541759D01*
X162071417Y-42494140D01*
X162065550Y-42489325D01*
X162064226Y-42487799D01*
X162061922Y-42486348D01*
X162059824Y-42484627D01*
X162057961Y-42483855D01*
X162051535Y-42479810D01*
X161956297Y-42432191D01*
X161944649Y-42427734D01*
X162170133Y-42170039D01*
X162174745Y-42163586D01*
X162176168Y-42162164D01*
X162176726Y-42160814D01*
X162178854Y-42157839D01*
X162182833Y-42146072D01*
X162187591Y-42134587D01*
X162187591Y-42132005D01*
X162188417Y-42129563D01*
X162187591Y-42117170D01*
X162187591Y-42104739D01*
X162847055Y-42104739D01*
X162847055Y-42134587D01*
X162858478Y-42162164D01*
X162879584Y-42183270D01*
X162907161Y-42194693D01*
X162922085Y-42196163D01*
X163372543Y-42196163D01*
X163150227Y-42450239D01*
X163145614Y-42456691D01*
X163144192Y-42458114D01*
X163143633Y-42459463D01*
X163141506Y-42462439D01*
X163137526Y-42474205D01*
X163132769Y-42485691D01*
X163132769Y-42488272D01*
X163131943Y-42490715D01*
X163132769Y-42503107D01*
X163132769Y-42515539D01*
X163133756Y-42517922D01*
X163133928Y-42520497D01*
X163139436Y-42531636D01*
X163144192Y-42543116D01*
X163146016Y-42544940D01*
X163147160Y-42547253D01*
X163156511Y-42555435D01*
X163165298Y-42564222D01*
X163167681Y-42565209D01*
X163169623Y-42566908D01*
X163181389Y-42570887D01*
X163192875Y-42575645D01*
X163196517Y-42576003D01*
X163197899Y-42576471D01*
X163199904Y-42576337D01*
X163207799Y-42577115D01*
X163332596Y-42577115D01*
X163400578Y-42611106D01*
X163430640Y-42641167D01*
X163464632Y-42709151D01*
X163464632Y-42911126D01*
X163430639Y-42979110D01*
X163400579Y-43009171D01*
X163332596Y-43043163D01*
X163083002Y-43043163D01*
X163015018Y-43009171D01*
X162976179Y-42970331D01*
X162964587Y-42960817D01*
X162937010Y-42949394D01*
X162907162Y-42949394D01*
X162879584Y-42960816D01*
X162858478Y-42981922D01*
X162847055Y-43009499D01*
X162847055Y-43039347D01*
X162858477Y-43066925D01*
X162867991Y-43078517D01*
X162915610Y-43126137D01*
X162921476Y-43130952D01*
X162922801Y-43132479D01*
X162925102Y-43133927D01*
X162927202Y-43135651D01*
X162929067Y-43136423D01*
X162935492Y-43140468D01*
X163030730Y-43188087D01*
X163044736Y-43193446D01*
X163047477Y-43193640D01*
X163050018Y-43194693D01*
X163064942Y-43196163D01*
X163350656Y-43196163D01*
X163365580Y-43194693D01*
X163368120Y-43193640D01*
X163370862Y-43193446D01*
X163384868Y-43188087D01*
X163480106Y-43140468D01*
X163486530Y-43136423D01*
X163488396Y-43135651D01*
X163490495Y-43133927D01*
X163492797Y-43132479D01*
X163494121Y-43130952D01*
X163499988Y-43126137D01*
X163547607Y-43078517D01*
X163552419Y-43072652D01*
X163553948Y-43071327D01*
X163555398Y-43069022D01*
X163557120Y-43066925D01*
X163557891Y-43065062D01*
X163561937Y-43058636D01*
X163609556Y-42963398D01*
X163614915Y-42949392D01*
X163615109Y-42946650D01*
X163616162Y-42944110D01*
X163617632Y-42929186D01*
X163617632Y-42691091D01*
X163616162Y-42676167D01*
X163615109Y-42673626D01*
X163614915Y-42670885D01*
X163609556Y-42656879D01*
X163561937Y-42561641D01*
X163557892Y-42555216D01*
X163557120Y-42553351D01*
X163555396Y-42551251D01*
X163553948Y-42548950D01*
X163552421Y-42547625D01*
X163547606Y-42541759D01*
X163499988Y-42494140D01*
X163494121Y-42489325D01*
X163492797Y-42487799D01*
X163490493Y-42486348D01*
X163488395Y-42484627D01*
X163486532Y-42483855D01*
X163480106Y-42479810D01*
X163384868Y-42432191D01*
X163373220Y-42427734D01*
X163598704Y-42170039D01*
X163603316Y-42163586D01*
X163604739Y-42162164D01*
X163605297Y-42160814D01*
X163607425Y-42157839D01*
X163611404Y-42146072D01*
X163616162Y-42134587D01*
X163616162Y-42132005D01*
X163616988Y-42129563D01*
X163616966Y-42129231D01*
X163750948Y-42129231D01*
X163754273Y-42143854D01*
X164087606Y-43143854D01*
X164093720Y-43157547D01*
X164097300Y-43161675D01*
X164099746Y-43166566D01*
X164106993Y-43172851D01*
X164113277Y-43180097D01*
X164118164Y-43182540D01*
X164122295Y-43186123D01*
X164131399Y-43189157D01*
X164139974Y-43193445D01*
X164145423Y-43193832D01*
X164150612Y-43195562D01*
X164160182Y-43194881D01*
X164169748Y-43195562D01*
X164174933Y-43193833D01*
X164180386Y-43193446D01*
X164188965Y-43189156D01*
X164198065Y-43186123D01*
X164202194Y-43182541D01*
X164207083Y-43180097D01*
X164213370Y-43172848D01*
X164220614Y-43166565D01*
X164223057Y-43161679D01*
X164226640Y-43157548D01*
X164232754Y-43143854D01*
X164566087Y-42143855D01*
X164569412Y-42129232D01*
X164568732Y-42119663D01*
X165512252Y-42119663D01*
X165512252Y-43119663D01*
X165513722Y-43134587D01*
X165525145Y-43162164D01*
X165546251Y-43183270D01*
X165573828Y-43194693D01*
X165603676Y-43194693D01*
X165631253Y-43183270D01*
X165652359Y-43162164D01*
X165663782Y-43134587D01*
X165665252Y-43119663D01*
X165665252Y-42464491D01*
X165852762Y-42866299D01*
X165856000Y-42871766D01*
X165856673Y-42873615D01*
X165857870Y-42874922D01*
X165860405Y-42879201D01*
X165868977Y-42887051D01*
X165876832Y-42895628D01*
X165879914Y-42897066D01*
X165882419Y-42899360D01*
X165893340Y-42903331D01*
X165903880Y-42908250D01*
X165907275Y-42908399D01*
X165910470Y-42909561D01*
X165922085Y-42909050D01*
X165933700Y-42909561D01*
X165936894Y-42908399D01*
X165940290Y-42908250D01*
X165950827Y-42903332D01*
X165961752Y-42899360D01*
X165964257Y-42897065D01*
X165967338Y-42895628D01*
X165975190Y-42887053D01*
X165983765Y-42879201D01*
X165986299Y-42874922D01*
X165987497Y-42873615D01*
X165988169Y-42871766D01*
X165991408Y-42866299D01*
X166178918Y-42464491D01*
X166178918Y-43119663D01*
X166180388Y-43134587D01*
X166191811Y-43162164D01*
X166212917Y-43183270D01*
X166240494Y-43194693D01*
X166270342Y-43194693D01*
X166297919Y-43183270D01*
X166319025Y-43162164D01*
X166330448Y-43134587D01*
X166331918Y-43119663D01*
X166331918Y-43110095D01*
X166512853Y-43110095D01*
X166514969Y-43139869D01*
X166528318Y-43166566D01*
X166550867Y-43186123D01*
X166579184Y-43195562D01*
X166608958Y-43193446D01*
X166635655Y-43180097D01*
X166655212Y-43157548D01*
X166661326Y-43143854D01*
X166739128Y-42910448D01*
X167105042Y-42910448D01*
X167182844Y-43143854D01*
X167188958Y-43157547D01*
X167208515Y-43180097D01*
X167235212Y-43193445D01*
X167264986Y-43195562D01*
X167293303Y-43186123D01*
X167315852Y-43166565D01*
X167329201Y-43139868D01*
X167331317Y-43110094D01*
X167327992Y-43095471D01*
X167002696Y-42119583D01*
X167417014Y-42119583D01*
X167422807Y-42148865D01*
X167429862Y-42162098D01*
X167734905Y-42619663D01*
X167429862Y-43077228D01*
X167422807Y-43090461D01*
X167417014Y-43119743D01*
X167422868Y-43149012D01*
X167439477Y-43173813D01*
X167464312Y-43190370D01*
X167493594Y-43196163D01*
X167522863Y-43190309D01*
X167547664Y-43173700D01*
X167557166Y-43162098D01*
X167826847Y-42757575D01*
X168096528Y-43162097D01*
X168106030Y-43173700D01*
X168130831Y-43190309D01*
X168160100Y-43196162D01*
X168189382Y-43190370D01*
X168214217Y-43173813D01*
X168230826Y-43149012D01*
X168236680Y-43119743D01*
X168230887Y-43090461D01*
X168223832Y-43077228D01*
X167918788Y-42619663D01*
X168223832Y-42162098D01*
X168230887Y-42148865D01*
X168236680Y-42119583D01*
X168230826Y-42090314D01*
X168214217Y-42065513D01*
X168189382Y-42048956D01*
X168160100Y-42043164D01*
X168130831Y-42049017D01*
X168106030Y-42065626D01*
X168096528Y-42077229D01*
X167826847Y-42481750D01*
X167557166Y-42077228D01*
X167547664Y-42065626D01*
X167522863Y-42049017D01*
X167493594Y-42043163D01*
X167464312Y-42048956D01*
X167439477Y-42065513D01*
X167422868Y-42090314D01*
X167417014Y-42119583D01*
X167002696Y-42119583D01*
X166994659Y-42095472D01*
X166988545Y-42081778D01*
X166984962Y-42077646D01*
X166982519Y-42072761D01*
X166975275Y-42066477D01*
X166968988Y-42059229D01*
X166964099Y-42056784D01*
X166959970Y-42053203D01*
X166950870Y-42050169D01*
X166942291Y-42045880D01*
X166936838Y-42045492D01*
X166931653Y-42043764D01*
X166922087Y-42044444D01*
X166912517Y-42043764D01*
X166907328Y-42045493D01*
X166901879Y-42045881D01*
X166893304Y-42050168D01*
X166884200Y-42053203D01*
X166880069Y-42056785D01*
X166875182Y-42059229D01*
X166868898Y-42066474D01*
X166861651Y-42072760D01*
X166859205Y-42077650D01*
X166855625Y-42081779D01*
X166849511Y-42095472D01*
X166516178Y-43095472D01*
X166512853Y-43110095D01*
X166331918Y-43110095D01*
X166331918Y-42119663D01*
X166330951Y-42109852D01*
X166331031Y-42108048D01*
X166330678Y-42107078D01*
X166330448Y-42104739D01*
X166325367Y-42092474D01*
X166320830Y-42079996D01*
X166319677Y-42078737D01*
X166319025Y-42077162D01*
X166309641Y-42067778D01*
X166300671Y-42057983D01*
X166299124Y-42057261D01*
X166297919Y-42056056D01*
X166285659Y-42050977D01*
X166273623Y-42045361D01*
X166271918Y-42045286D01*
X166270342Y-42044633D01*
X166257064Y-42044633D01*
X166243803Y-42044050D01*
X166242200Y-42044633D01*
X166240494Y-42044633D01*
X166228225Y-42049715D01*
X166215752Y-42054251D01*
X166214494Y-42055402D01*
X166212917Y-42056056D01*
X166203528Y-42065444D01*
X166193738Y-42074410D01*
X166192539Y-42076433D01*
X166191811Y-42077162D01*
X166191121Y-42078827D01*
X166186095Y-42087312D01*
X165922084Y-42653048D01*
X165658075Y-42087312D01*
X165653048Y-42078827D01*
X165652359Y-42077162D01*
X165651630Y-42076433D01*
X165650432Y-42074410D01*
X165640636Y-42065439D01*
X165631253Y-42056056D01*
X165629677Y-42055403D01*
X165628419Y-42054251D01*
X165615940Y-42049713D01*
X165603676Y-42044633D01*
X165601970Y-42044633D01*
X165600367Y-42044050D01*
X165587106Y-42044633D01*
X165573828Y-42044633D01*
X165572251Y-42045286D01*
X165570547Y-42045361D01*
X165558510Y-42050977D01*
X165546251Y-42056056D01*
X165545045Y-42057261D01*
X165543499Y-42057983D01*
X165534528Y-42067778D01*
X165525145Y-42077162D01*
X165524492Y-42078737D01*
X165523340Y-42079996D01*
X165518802Y-42092474D01*
X165513722Y-42104739D01*
X165513491Y-42107078D01*
X165513139Y-42108048D01*
X165513218Y-42109852D01*
X165512252Y-42119663D01*
X164568732Y-42119663D01*
X164567296Y-42099458D01*
X164553947Y-42072761D01*
X164531398Y-42053203D01*
X164503081Y-42043764D01*
X164473307Y-42045881D01*
X164446610Y-42059229D01*
X164427053Y-42081779D01*
X164420939Y-42095472D01*
X164160180Y-42877749D01*
X163899421Y-42095472D01*
X163893307Y-42081778D01*
X163873750Y-42059229D01*
X163847053Y-42045880D01*
X163817279Y-42043764D01*
X163788962Y-42053203D01*
X163766413Y-42072760D01*
X163753064Y-42099457D01*
X163750948Y-42129231D01*
X163616966Y-42129231D01*
X163616162Y-42117170D01*
X163616162Y-42104739D01*
X163615174Y-42102355D01*
X163615003Y-42099781D01*
X163609494Y-42088641D01*
X163604739Y-42077162D01*
X163602914Y-42075337D01*
X163601771Y-42073025D01*
X163592419Y-42064842D01*
X163583633Y-42056056D01*
X163581249Y-42055068D01*
X163579308Y-42053370D01*
X163567541Y-42049390D01*
X163556056Y-42044633D01*
X163552413Y-42044274D01*
X163551032Y-42043807D01*
X163549026Y-42043940D01*
X163541132Y-42043163D01*
X162922085Y-42043163D01*
X162907161Y-42044633D01*
X162879584Y-42056056D01*
X162858478Y-42077162D01*
X162847055Y-42104739D01*
X162187591Y-42104739D01*
X162186603Y-42102355D01*
X162186432Y-42099781D01*
X162180923Y-42088641D01*
X162176168Y-42077162D01*
X162174343Y-42075337D01*
X162173200Y-42073025D01*
X162163848Y-42064842D01*
X162155062Y-42056056D01*
X162152678Y-42055068D01*
X162150737Y-42053370D01*
X162138970Y-42049390D01*
X162127485Y-42044633D01*
X162123842Y-42044274D01*
X162122461Y-42043807D01*
X162120455Y-42043940D01*
X162112561Y-42043163D01*
X161493514Y-42043163D01*
X161478590Y-42044633D01*
X161451013Y-42056056D01*
X161429907Y-42077162D01*
X161418484Y-42104739D01*
X161307373Y-42104739D01*
X161307373Y-41932052D01*
X168347791Y-41932052D01*
X168347791Y-43307274D01*
G37*
G36*
X167662483Y-44480154D02*
G01*
X167692545Y-44510215D01*
X167726537Y-44578199D01*
X167726537Y-44684936D01*
X167692545Y-44752919D01*
X167662483Y-44782980D01*
X167594501Y-44816972D01*
X167308109Y-44816972D01*
X167308109Y-44446163D01*
X167594501Y-44446163D01*
X167662483Y-44480154D01*
G37*
G36*
X165519626Y-44480154D02*
G01*
X165549688Y-44510215D01*
X165583680Y-44578199D01*
X165583680Y-44684936D01*
X165549688Y-44752919D01*
X165519626Y-44782980D01*
X165451644Y-44816972D01*
X165165252Y-44816972D01*
X165165252Y-44446163D01*
X165451644Y-44446163D01*
X165519626Y-44480154D01*
G37*
G36*
X167990648Y-45557256D02*
G01*
X164901141Y-45557256D01*
X164901141Y-44369663D01*
X165012252Y-44369663D01*
X165012252Y-45369663D01*
X165013722Y-45384587D01*
X165025145Y-45412164D01*
X165046251Y-45433270D01*
X165073828Y-45444693D01*
X165103676Y-45444693D01*
X165131253Y-45433270D01*
X165152359Y-45412164D01*
X165163782Y-45384587D01*
X165165252Y-45369663D01*
X165165252Y-44969972D01*
X165469704Y-44969972D01*
X165484628Y-44968502D01*
X165487168Y-44967449D01*
X165489910Y-44967255D01*
X165503916Y-44961896D01*
X165599154Y-44914277D01*
X165605580Y-44910231D01*
X165607443Y-44909460D01*
X165609541Y-44907738D01*
X165611845Y-44906288D01*
X165613169Y-44904761D01*
X165619036Y-44899947D01*
X165666654Y-44852328D01*
X165671469Y-44846461D01*
X165672996Y-44845137D01*
X165674444Y-44842835D01*
X165676168Y-44840736D01*
X165676940Y-44838870D01*
X165680985Y-44832446D01*
X165728604Y-44737208D01*
X165733963Y-44723202D01*
X165734157Y-44720460D01*
X165735210Y-44717920D01*
X165736680Y-44702996D01*
X165736680Y-44560139D01*
X165735210Y-44545215D01*
X165734157Y-44542674D01*
X165733963Y-44539933D01*
X165728604Y-44525927D01*
X165680985Y-44430689D01*
X165676940Y-44424264D01*
X165676168Y-44422399D01*
X165674444Y-44420299D01*
X165672996Y-44417998D01*
X165671469Y-44416673D01*
X165666654Y-44410807D01*
X165628371Y-44372523D01*
X165917068Y-44372523D01*
X165919094Y-44387382D01*
X166157189Y-45387382D01*
X166158955Y-45392506D01*
X166159199Y-45394340D01*
X166160158Y-45395997D01*
X166162076Y-45401560D01*
X166168590Y-45410561D01*
X166174154Y-45420171D01*
X166177272Y-45422557D01*
X166179576Y-45425741D01*
X166189038Y-45431564D01*
X166197857Y-45438314D01*
X166201651Y-45439325D01*
X166204996Y-45441384D01*
X166215960Y-45443141D01*
X166226697Y-45446005D01*
X166230591Y-45445487D01*
X166234469Y-45446109D01*
X166245276Y-45443536D01*
X166256286Y-45442073D01*
X166259683Y-45440106D01*
X166263506Y-45439196D01*
X166272507Y-45432681D01*
X166282117Y-45427118D01*
X166284503Y-45423999D01*
X166287687Y-45421696D01*
X166293510Y-45412233D01*
X166300260Y-45403415D01*
X166302324Y-45397909D01*
X166303330Y-45396276D01*
X166303623Y-45394447D01*
X166305526Y-45389374D01*
X166422084Y-44952277D01*
X166538644Y-45389375D01*
X166540547Y-45394450D01*
X166540840Y-45396275D01*
X166541843Y-45397905D01*
X166543910Y-45403416D01*
X166550663Y-45412238D01*
X166556483Y-45421696D01*
X166559665Y-45423999D01*
X166562053Y-45427118D01*
X166571664Y-45432683D01*
X166580664Y-45439196D01*
X166584484Y-45440105D01*
X166587884Y-45442074D01*
X166598899Y-45443537D01*
X166609701Y-45446109D01*
X166613577Y-45445487D01*
X166617473Y-45446005D01*
X166628215Y-45443140D01*
X166639173Y-45441384D01*
X166642513Y-45439328D01*
X166646314Y-45438315D01*
X166655142Y-45431556D01*
X166664594Y-45425741D01*
X166666895Y-45422560D01*
X166670016Y-45420172D01*
X166675581Y-45410559D01*
X166682094Y-45401560D01*
X166684011Y-45395997D01*
X166684971Y-45394340D01*
X166685214Y-45392506D01*
X166686981Y-45387382D01*
X166925077Y-44387382D01*
X166927103Y-44372524D01*
X166926644Y-44369663D01*
X167155109Y-44369663D01*
X167155109Y-45369663D01*
X167156579Y-45384587D01*
X167168002Y-45412164D01*
X167189108Y-45433270D01*
X167216685Y-45444693D01*
X167246533Y-45444693D01*
X167274110Y-45433270D01*
X167295216Y-45412164D01*
X167306639Y-45384587D01*
X167308109Y-45369663D01*
X167308109Y-44969972D01*
X167429874Y-44969972D01*
X167740366Y-45413533D01*
X167750128Y-45424916D01*
X167775301Y-45440958D01*
X167804695Y-45446145D01*
X167833838Y-45439689D01*
X167858290Y-45422572D01*
X167874331Y-45397399D01*
X167879519Y-45368005D01*
X167873062Y-45338863D01*
X167865708Y-45325793D01*
X167616371Y-44969596D01*
X167627485Y-44968502D01*
X167630025Y-44967449D01*
X167632767Y-44967255D01*
X167646773Y-44961896D01*
X167742011Y-44914277D01*
X167748437Y-44910231D01*
X167750300Y-44909460D01*
X167752398Y-44907738D01*
X167754702Y-44906288D01*
X167756026Y-44904761D01*
X167761893Y-44899947D01*
X167809511Y-44852328D01*
X167814326Y-44846461D01*
X167815853Y-44845137D01*
X167817301Y-44842835D01*
X167819025Y-44840736D01*
X167819797Y-44838870D01*
X167823842Y-44832446D01*
X167871461Y-44737208D01*
X167876820Y-44723202D01*
X167877014Y-44720460D01*
X167878067Y-44717920D01*
X167879537Y-44702996D01*
X167879537Y-44560139D01*
X167878067Y-44545215D01*
X167877014Y-44542674D01*
X167876820Y-44539933D01*
X167871461Y-44525927D01*
X167823842Y-44430689D01*
X167819797Y-44424264D01*
X167819025Y-44422399D01*
X167817301Y-44420299D01*
X167815853Y-44417998D01*
X167814326Y-44416673D01*
X167809511Y-44410807D01*
X167761893Y-44363188D01*
X167756026Y-44358373D01*
X167754702Y-44356847D01*
X167752398Y-44355396D01*
X167750300Y-44353675D01*
X167748437Y-44352903D01*
X167742011Y-44348858D01*
X167646773Y-44301239D01*
X167632767Y-44295880D01*
X167630025Y-44295685D01*
X167627485Y-44294633D01*
X167612561Y-44293163D01*
X167231609Y-44293163D01*
X167216685Y-44294633D01*
X167189108Y-44306056D01*
X167168002Y-44327162D01*
X167156579Y-44354739D01*
X167155109Y-44369663D01*
X166926644Y-44369663D01*
X166922378Y-44343051D01*
X166906735Y-44317630D01*
X166882554Y-44300130D01*
X166853517Y-44293217D01*
X166824044Y-44297942D01*
X166798624Y-44313585D01*
X166781124Y-44337766D01*
X166776237Y-44351944D01*
X166608362Y-45057016D01*
X166496002Y-44635666D01*
X166494690Y-44632167D01*
X166494495Y-44630700D01*
X166493485Y-44628956D01*
X166490736Y-44621625D01*
X166484600Y-44613609D01*
X166479540Y-44604868D01*
X166475602Y-44601854D01*
X166472593Y-44597922D01*
X166463862Y-44592867D01*
X166455838Y-44586725D01*
X166451046Y-44585447D01*
X166446762Y-44582967D01*
X166436757Y-44581637D01*
X166426997Y-44579035D01*
X166422084Y-44579687D01*
X166417173Y-44579035D01*
X166407420Y-44581635D01*
X166397408Y-44582966D01*
X166393117Y-44585449D01*
X166388333Y-44586726D01*
X166380317Y-44592861D01*
X166371577Y-44597922D01*
X166368564Y-44601857D01*
X166364630Y-44604869D01*
X166359572Y-44613605D01*
X166353434Y-44621624D01*
X166350683Y-44628958D01*
X166349675Y-44630700D01*
X166349480Y-44632166D01*
X166348168Y-44635665D01*
X166235808Y-45057015D01*
X166067934Y-44351944D01*
X166063047Y-44337766D01*
X166045547Y-44313585D01*
X166020127Y-44297942D01*
X165990654Y-44293217D01*
X165961617Y-44300130D01*
X165937436Y-44317630D01*
X165921793Y-44343050D01*
X165917068Y-44372523D01*
X165628371Y-44372523D01*
X165619036Y-44363188D01*
X165613169Y-44358373D01*
X165611845Y-44356847D01*
X165609541Y-44355396D01*
X165607443Y-44353675D01*
X165605580Y-44352903D01*
X165599154Y-44348858D01*
X165503916Y-44301239D01*
X165489910Y-44295880D01*
X165487168Y-44295685D01*
X165484628Y-44294633D01*
X165469704Y-44293163D01*
X165088752Y-44293163D01*
X165073828Y-44294633D01*
X165046251Y-44306056D01*
X165025145Y-44327162D01*
X165013722Y-44354739D01*
X165012252Y-44369663D01*
X164901141Y-44369663D01*
X164901141Y-44182052D01*
X167990648Y-44182052D01*
X167990648Y-45557256D01*
G37*
D14*
X154266190Y-45079271D02*
X154568571Y-45079271D01*
X154568571Y-45079271D02*
X154568571Y-44837366D01*
X154568571Y-44837366D02*
X154447619Y-44776890D01*
X154447619Y-44776890D02*
X154326666Y-44655937D01*
X154326666Y-44655937D02*
X154266190Y-44474509D01*
X154266190Y-44474509D02*
X154266190Y-44172128D01*
X154266190Y-44172128D02*
X154326666Y-43990699D01*
X154326666Y-43990699D02*
X154447619Y-43869747D01*
X154447619Y-43869747D02*
X154629047Y-43809271D01*
X154629047Y-43809271D02*
X154870952Y-43809271D01*
X154870952Y-43809271D02*
X155052381Y-43869747D01*
X155052381Y-43869747D02*
X155173333Y-43990699D01*
X155173333Y-43990699D02*
X155233809Y-44172128D01*
X155233809Y-44172128D02*
X155233809Y-44474509D01*
X155233809Y-44474509D02*
X155173333Y-44655937D01*
X155173333Y-44655937D02*
X155052381Y-44776890D01*
X155052381Y-44776890D02*
X154931428Y-44837366D01*
X154931428Y-44837366D02*
X154931428Y-45079271D01*
X154931428Y-45079271D02*
X155233809Y-45079271D01*
X154266190Y-51079271D02*
X154568571Y-51079271D01*
X154568571Y-51079271D02*
X154568571Y-50837366D01*
X154568571Y-50837366D02*
X154447619Y-50776890D01*
X154447619Y-50776890D02*
X154326666Y-50655937D01*
X154326666Y-50655937D02*
X154266190Y-50474509D01*
X154266190Y-50474509D02*
X154266190Y-50172128D01*
X154266190Y-50172128D02*
X154326666Y-49990699D01*
X154326666Y-49990699D02*
X154447619Y-49869747D01*
X154447619Y-49869747D02*
X154629047Y-49809271D01*
X154629047Y-49809271D02*
X154870952Y-49809271D01*
X154870952Y-49809271D02*
X155052381Y-49869747D01*
X155052381Y-49869747D02*
X155173333Y-49990699D01*
X155173333Y-49990699D02*
X155233809Y-50172128D01*
X155233809Y-50172128D02*
X155233809Y-50474509D01*
X155233809Y-50474509D02*
X155173333Y-50655937D01*
X155173333Y-50655937D02*
X155052381Y-50776890D01*
X155052381Y-50776890D02*
X154931428Y-50837366D01*
X154931428Y-50837366D02*
X154931428Y-51079271D01*
X154931428Y-51079271D02*
X155233809Y-51079271D01*
X158516190Y-49459739D02*
X158818571Y-49459739D01*
X158818571Y-49459739D02*
X158818571Y-49217834D01*
X158818571Y-49217834D02*
X158697619Y-49157358D01*
X158697619Y-49157358D02*
X158576666Y-49036405D01*
X158576666Y-49036405D02*
X158516190Y-48854977D01*
X158516190Y-48854977D02*
X158516190Y-48552596D01*
X158516190Y-48552596D02*
X158576666Y-48371167D01*
X158576666Y-48371167D02*
X158697619Y-48250215D01*
X158697619Y-48250215D02*
X158879047Y-48189739D01*
X158879047Y-48189739D02*
X159120952Y-48189739D01*
X159120952Y-48189739D02*
X159302381Y-48250215D01*
X159302381Y-48250215D02*
X159423333Y-48371167D01*
X159423333Y-48371167D02*
X159483809Y-48552596D01*
X159483809Y-48552596D02*
X159483809Y-48854977D01*
X159483809Y-48854977D02*
X159423333Y-49036405D01*
X159423333Y-49036405D02*
X159302381Y-49157358D01*
X159302381Y-49157358D02*
X159181428Y-49217834D01*
X159181428Y-49217834D02*
X159181428Y-49459739D01*
X159181428Y-49459739D02*
X159483809Y-49459739D01*
D13*
X147607142Y-46109424D02*
X147559523Y-46157044D01*
X147559523Y-46157044D02*
X147416666Y-46204663D01*
X147416666Y-46204663D02*
X147321428Y-46204663D01*
X147321428Y-46204663D02*
X147178571Y-46157044D01*
X147178571Y-46157044D02*
X147083333Y-46061805D01*
X147083333Y-46061805D02*
X147035714Y-45966567D01*
X147035714Y-45966567D02*
X146988095Y-45776091D01*
X146988095Y-45776091D02*
X146988095Y-45633234D01*
X146988095Y-45633234D02*
X147035714Y-45442758D01*
X147035714Y-45442758D02*
X147083333Y-45347520D01*
X147083333Y-45347520D02*
X147178571Y-45252282D01*
X147178571Y-45252282D02*
X147321428Y-45204663D01*
X147321428Y-45204663D02*
X147416666Y-45204663D01*
X147416666Y-45204663D02*
X147559523Y-45252282D01*
X147559523Y-45252282D02*
X147607142Y-45299901D01*
X148559523Y-46204663D02*
X147988095Y-46204663D01*
X148273809Y-46204663D02*
X148273809Y-45204663D01*
X148273809Y-45204663D02*
X148178571Y-45347520D01*
X148178571Y-45347520D02*
X148083333Y-45442758D01*
X148083333Y-45442758D02*
X147988095Y-45490377D01*
X149416666Y-45537996D02*
X149416666Y-46204663D01*
X149178571Y-45157044D02*
X148940476Y-45871329D01*
X148940476Y-45871329D02*
X149559523Y-45871329D01*
X158357142Y-22859424D02*
X158309523Y-22907044D01*
X158309523Y-22907044D02*
X158166666Y-22954663D01*
X158166666Y-22954663D02*
X158071428Y-22954663D01*
X158071428Y-22954663D02*
X157928571Y-22907044D01*
X157928571Y-22907044D02*
X157833333Y-22811805D01*
X157833333Y-22811805D02*
X157785714Y-22716567D01*
X157785714Y-22716567D02*
X157738095Y-22526091D01*
X157738095Y-22526091D02*
X157738095Y-22383234D01*
X157738095Y-22383234D02*
X157785714Y-22192758D01*
X157785714Y-22192758D02*
X157833333Y-22097520D01*
X157833333Y-22097520D02*
X157928571Y-22002282D01*
X157928571Y-22002282D02*
X158071428Y-21954663D01*
X158071428Y-21954663D02*
X158166666Y-21954663D01*
X158166666Y-21954663D02*
X158309523Y-22002282D01*
X158309523Y-22002282D02*
X158357142Y-22049901D01*
X159309523Y-22954663D02*
X158738095Y-22954663D01*
X159023809Y-22954663D02*
X159023809Y-21954663D01*
X159023809Y-21954663D02*
X158928571Y-22097520D01*
X158928571Y-22097520D02*
X158833333Y-22192758D01*
X158833333Y-22192758D02*
X158738095Y-22240377D01*
X159642857Y-21954663D02*
X160261904Y-21954663D01*
X160261904Y-21954663D02*
X159928571Y-22335615D01*
X159928571Y-22335615D02*
X160071428Y-22335615D01*
X160071428Y-22335615D02*
X160166666Y-22383234D01*
X160166666Y-22383234D02*
X160214285Y-22430853D01*
X160214285Y-22430853D02*
X160261904Y-22526091D01*
X160261904Y-22526091D02*
X160261904Y-22764186D01*
X160261904Y-22764186D02*
X160214285Y-22859424D01*
X160214285Y-22859424D02*
X160166666Y-22907044D01*
X160166666Y-22907044D02*
X160071428Y-22954663D01*
X160071428Y-22954663D02*
X159785714Y-22954663D01*
X159785714Y-22954663D02*
X159690476Y-22907044D01*
X159690476Y-22907044D02*
X159642857Y-22859424D01*
X149738095Y-21204663D02*
X149738095Y-22014186D01*
X149738095Y-22014186D02*
X149785714Y-22109424D01*
X149785714Y-22109424D02*
X149833333Y-22157044D01*
X149833333Y-22157044D02*
X149928571Y-22204663D01*
X149928571Y-22204663D02*
X150119047Y-22204663D01*
X150119047Y-22204663D02*
X150214285Y-22157044D01*
X150214285Y-22157044D02*
X150261904Y-22109424D01*
X150261904Y-22109424D02*
X150309523Y-22014186D01*
X150309523Y-22014186D02*
X150309523Y-21204663D01*
X150690476Y-21204663D02*
X151309523Y-21204663D01*
X151309523Y-21204663D02*
X150976190Y-21585615D01*
X150976190Y-21585615D02*
X151119047Y-21585615D01*
X151119047Y-21585615D02*
X151214285Y-21633234D01*
X151214285Y-21633234D02*
X151261904Y-21680853D01*
X151261904Y-21680853D02*
X151309523Y-21776091D01*
X151309523Y-21776091D02*
X151309523Y-22014186D01*
X151309523Y-22014186D02*
X151261904Y-22109424D01*
X151261904Y-22109424D02*
X151214285Y-22157044D01*
X151214285Y-22157044D02*
X151119047Y-22204663D01*
X151119047Y-22204663D02*
X150833333Y-22204663D01*
X150833333Y-22204663D02*
X150738095Y-22157044D01*
X150738095Y-22157044D02*
X150690476Y-22109424D01*
X150357142Y-42859424D02*
X150309523Y-42907044D01*
X150309523Y-42907044D02*
X150166666Y-42954663D01*
X150166666Y-42954663D02*
X150071428Y-42954663D01*
X150071428Y-42954663D02*
X149928571Y-42907044D01*
X149928571Y-42907044D02*
X149833333Y-42811805D01*
X149833333Y-42811805D02*
X149785714Y-42716567D01*
X149785714Y-42716567D02*
X149738095Y-42526091D01*
X149738095Y-42526091D02*
X149738095Y-42383234D01*
X149738095Y-42383234D02*
X149785714Y-42192758D01*
X149785714Y-42192758D02*
X149833333Y-42097520D01*
X149833333Y-42097520D02*
X149928571Y-42002282D01*
X149928571Y-42002282D02*
X150071428Y-41954663D01*
X150071428Y-41954663D02*
X150166666Y-41954663D01*
X150166666Y-41954663D02*
X150309523Y-42002282D01*
X150309523Y-42002282D02*
X150357142Y-42049901D01*
X150738095Y-42049901D02*
X150785714Y-42002282D01*
X150785714Y-42002282D02*
X150880952Y-41954663D01*
X150880952Y-41954663D02*
X151119047Y-41954663D01*
X151119047Y-41954663D02*
X151214285Y-42002282D01*
X151214285Y-42002282D02*
X151261904Y-42049901D01*
X151261904Y-42049901D02*
X151309523Y-42145139D01*
X151309523Y-42145139D02*
X151309523Y-42240377D01*
X151309523Y-42240377D02*
X151261904Y-42383234D01*
X151261904Y-42383234D02*
X150690476Y-42954663D01*
X150690476Y-42954663D02*
X151309523Y-42954663D01*
X151928571Y-41954663D02*
X152023809Y-41954663D01*
X152023809Y-41954663D02*
X152119047Y-42002282D01*
X152119047Y-42002282D02*
X152166666Y-42049901D01*
X152166666Y-42049901D02*
X152214285Y-42145139D01*
X152214285Y-42145139D02*
X152261904Y-42335615D01*
X152261904Y-42335615D02*
X152261904Y-42573710D01*
X152261904Y-42573710D02*
X152214285Y-42764186D01*
X152214285Y-42764186D02*
X152166666Y-42859424D01*
X152166666Y-42859424D02*
X152119047Y-42907044D01*
X152119047Y-42907044D02*
X152023809Y-42954663D01*
X152023809Y-42954663D02*
X151928571Y-42954663D01*
X151928571Y-42954663D02*
X151833333Y-42907044D01*
X151833333Y-42907044D02*
X151785714Y-42859424D01*
X151785714Y-42859424D02*
X151738095Y-42764186D01*
X151738095Y-42764186D02*
X151690476Y-42573710D01*
X151690476Y-42573710D02*
X151690476Y-42335615D01*
X151690476Y-42335615D02*
X151738095Y-42145139D01*
X151738095Y-42145139D02*
X151785714Y-42049901D01*
X151785714Y-42049901D02*
X151833333Y-42002282D01*
X151833333Y-42002282D02*
X151928571Y-41954663D01*
X165761905Y-50954663D02*
X165761905Y-49954663D01*
X165761905Y-49954663D02*
X166000000Y-49954663D01*
X166000000Y-49954663D02*
X166142857Y-50002282D01*
X166142857Y-50002282D02*
X166238095Y-50097520D01*
X166238095Y-50097520D02*
X166285714Y-50192758D01*
X166285714Y-50192758D02*
X166333333Y-50383234D01*
X166333333Y-50383234D02*
X166333333Y-50526091D01*
X166333333Y-50526091D02*
X166285714Y-50716567D01*
X166285714Y-50716567D02*
X166238095Y-50811805D01*
X166238095Y-50811805D02*
X166142857Y-50907044D01*
X166142857Y-50907044D02*
X166000000Y-50954663D01*
X166000000Y-50954663D02*
X165761905Y-50954663D01*
X167190476Y-50287996D02*
X167190476Y-50954663D01*
X166952381Y-49907044D02*
X166714286Y-50621329D01*
X166714286Y-50621329D02*
X167333333Y-50621329D01*
X137988095Y-32174663D02*
X137988095Y-32984186D01*
X137988095Y-32984186D02*
X138035714Y-33079424D01*
X138035714Y-33079424D02*
X138083333Y-33127044D01*
X138083333Y-33127044D02*
X138178571Y-33174663D01*
X138178571Y-33174663D02*
X138369047Y-33174663D01*
X138369047Y-33174663D02*
X138464285Y-33127044D01*
X138464285Y-33127044D02*
X138511904Y-33079424D01*
X138511904Y-33079424D02*
X138559523Y-32984186D01*
X138559523Y-32984186D02*
X138559523Y-32174663D01*
X139511904Y-32174663D02*
X139035714Y-32174663D01*
X139035714Y-32174663D02*
X138988095Y-32650853D01*
X138988095Y-32650853D02*
X139035714Y-32603234D01*
X139035714Y-32603234D02*
X139130952Y-32555615D01*
X139130952Y-32555615D02*
X139369047Y-32555615D01*
X139369047Y-32555615D02*
X139464285Y-32603234D01*
X139464285Y-32603234D02*
X139511904Y-32650853D01*
X139511904Y-32650853D02*
X139559523Y-32746091D01*
X139559523Y-32746091D02*
X139559523Y-32984186D01*
X139559523Y-32984186D02*
X139511904Y-33079424D01*
X139511904Y-33079424D02*
X139464285Y-33127044D01*
X139464285Y-33127044D02*
X139369047Y-33174663D01*
X139369047Y-33174663D02*
X139130952Y-33174663D01*
X139130952Y-33174663D02*
X139035714Y-33127044D01*
X139035714Y-33127044D02*
X138988095Y-33079424D01*
X150333333Y-52704663D02*
X150000000Y-52228472D01*
X149761905Y-52704663D02*
X149761905Y-51704663D01*
X149761905Y-51704663D02*
X150142857Y-51704663D01*
X150142857Y-51704663D02*
X150238095Y-51752282D01*
X150238095Y-51752282D02*
X150285714Y-51799901D01*
X150285714Y-51799901D02*
X150333333Y-51895139D01*
X150333333Y-51895139D02*
X150333333Y-52037996D01*
X150333333Y-52037996D02*
X150285714Y-52133234D01*
X150285714Y-52133234D02*
X150238095Y-52180853D01*
X150238095Y-52180853D02*
X150142857Y-52228472D01*
X150142857Y-52228472D02*
X149761905Y-52228472D01*
X151238095Y-51704663D02*
X150761905Y-51704663D01*
X150761905Y-51704663D02*
X150714286Y-52180853D01*
X150714286Y-52180853D02*
X150761905Y-52133234D01*
X150761905Y-52133234D02*
X150857143Y-52085615D01*
X150857143Y-52085615D02*
X151095238Y-52085615D01*
X151095238Y-52085615D02*
X151190476Y-52133234D01*
X151190476Y-52133234D02*
X151238095Y-52180853D01*
X151238095Y-52180853D02*
X151285714Y-52276091D01*
X151285714Y-52276091D02*
X151285714Y-52514186D01*
X151285714Y-52514186D02*
X151238095Y-52609424D01*
X151238095Y-52609424D02*
X151190476Y-52657044D01*
X151190476Y-52657044D02*
X151095238Y-52704663D01*
X151095238Y-52704663D02*
X150857143Y-52704663D01*
X150857143Y-52704663D02*
X150761905Y-52657044D01*
X150761905Y-52657044D02*
X150714286Y-52609424D01*
X141287142Y-32929424D02*
X141239523Y-32977044D01*
X141239523Y-32977044D02*
X141096666Y-33024663D01*
X141096666Y-33024663D02*
X141001428Y-33024663D01*
X141001428Y-33024663D02*
X140858571Y-32977044D01*
X140858571Y-32977044D02*
X140763333Y-32881805D01*
X140763333Y-32881805D02*
X140715714Y-32786567D01*
X140715714Y-32786567D02*
X140668095Y-32596091D01*
X140668095Y-32596091D02*
X140668095Y-32453234D01*
X140668095Y-32453234D02*
X140715714Y-32262758D01*
X140715714Y-32262758D02*
X140763333Y-32167520D01*
X140763333Y-32167520D02*
X140858571Y-32072282D01*
X140858571Y-32072282D02*
X141001428Y-32024663D01*
X141001428Y-32024663D02*
X141096666Y-32024663D01*
X141096666Y-32024663D02*
X141239523Y-32072282D01*
X141239523Y-32072282D02*
X141287142Y-32119901D01*
X142239523Y-33024663D02*
X141668095Y-33024663D01*
X141953809Y-33024663D02*
X141953809Y-32024663D01*
X141953809Y-32024663D02*
X141858571Y-32167520D01*
X141858571Y-32167520D02*
X141763333Y-32262758D01*
X141763333Y-32262758D02*
X141668095Y-32310377D01*
X142810952Y-32453234D02*
X142715714Y-32405615D01*
X142715714Y-32405615D02*
X142668095Y-32357996D01*
X142668095Y-32357996D02*
X142620476Y-32262758D01*
X142620476Y-32262758D02*
X142620476Y-32215139D01*
X142620476Y-32215139D02*
X142668095Y-32119901D01*
X142668095Y-32119901D02*
X142715714Y-32072282D01*
X142715714Y-32072282D02*
X142810952Y-32024663D01*
X142810952Y-32024663D02*
X143001428Y-32024663D01*
X143001428Y-32024663D02*
X143096666Y-32072282D01*
X143096666Y-32072282D02*
X143144285Y-32119901D01*
X143144285Y-32119901D02*
X143191904Y-32215139D01*
X143191904Y-32215139D02*
X143191904Y-32262758D01*
X143191904Y-32262758D02*
X143144285Y-32357996D01*
X143144285Y-32357996D02*
X143096666Y-32405615D01*
X143096666Y-32405615D02*
X143001428Y-32453234D01*
X143001428Y-32453234D02*
X142810952Y-32453234D01*
X142810952Y-32453234D02*
X142715714Y-32500853D01*
X142715714Y-32500853D02*
X142668095Y-32548472D01*
X142668095Y-32548472D02*
X142620476Y-32643710D01*
X142620476Y-32643710D02*
X142620476Y-32834186D01*
X142620476Y-32834186D02*
X142668095Y-32929424D01*
X142668095Y-32929424D02*
X142715714Y-32977044D01*
X142715714Y-32977044D02*
X142810952Y-33024663D01*
X142810952Y-33024663D02*
X143001428Y-33024663D01*
X143001428Y-33024663D02*
X143096666Y-32977044D01*
X143096666Y-32977044D02*
X143144285Y-32929424D01*
X143144285Y-32929424D02*
X143191904Y-32834186D01*
X143191904Y-32834186D02*
X143191904Y-32643710D01*
X143191904Y-32643710D02*
X143144285Y-32548472D01*
X143144285Y-32548472D02*
X143096666Y-32500853D01*
X143096666Y-32500853D02*
X143001428Y-32453234D01*
X163333333Y-50959663D02*
X163000000Y-50483472D01*
X162761905Y-50959663D02*
X162761905Y-49959663D01*
X162761905Y-49959663D02*
X163142857Y-49959663D01*
X163142857Y-49959663D02*
X163238095Y-50007282D01*
X163238095Y-50007282D02*
X163285714Y-50054901D01*
X163285714Y-50054901D02*
X163333333Y-50150139D01*
X163333333Y-50150139D02*
X163333333Y-50292996D01*
X163333333Y-50292996D02*
X163285714Y-50388234D01*
X163285714Y-50388234D02*
X163238095Y-50435853D01*
X163238095Y-50435853D02*
X163142857Y-50483472D01*
X163142857Y-50483472D02*
X162761905Y-50483472D01*
X164190476Y-49959663D02*
X164000000Y-49959663D01*
X164000000Y-49959663D02*
X163904762Y-50007282D01*
X163904762Y-50007282D02*
X163857143Y-50054901D01*
X163857143Y-50054901D02*
X163761905Y-50197758D01*
X163761905Y-50197758D02*
X163714286Y-50388234D01*
X163714286Y-50388234D02*
X163714286Y-50769186D01*
X163714286Y-50769186D02*
X163761905Y-50864424D01*
X163761905Y-50864424D02*
X163809524Y-50912044D01*
X163809524Y-50912044D02*
X163904762Y-50959663D01*
X163904762Y-50959663D02*
X164095238Y-50959663D01*
X164095238Y-50959663D02*
X164190476Y-50912044D01*
X164190476Y-50912044D02*
X164238095Y-50864424D01*
X164238095Y-50864424D02*
X164285714Y-50769186D01*
X164285714Y-50769186D02*
X164285714Y-50531091D01*
X164285714Y-50531091D02*
X164238095Y-50435853D01*
X164238095Y-50435853D02*
X164190476Y-50388234D01*
X164190476Y-50388234D02*
X164095238Y-50340615D01*
X164095238Y-50340615D02*
X163904762Y-50340615D01*
X163904762Y-50340615D02*
X163809524Y-50388234D01*
X163809524Y-50388234D02*
X163761905Y-50435853D01*
X163761905Y-50435853D02*
X163714286Y-50531091D01*
X148844642Y-50159424D02*
X148797023Y-50207044D01*
X148797023Y-50207044D02*
X148654166Y-50254663D01*
X148654166Y-50254663D02*
X148558928Y-50254663D01*
X148558928Y-50254663D02*
X148416071Y-50207044D01*
X148416071Y-50207044D02*
X148320833Y-50111805D01*
X148320833Y-50111805D02*
X148273214Y-50016567D01*
X148273214Y-50016567D02*
X148225595Y-49826091D01*
X148225595Y-49826091D02*
X148225595Y-49683234D01*
X148225595Y-49683234D02*
X148273214Y-49492758D01*
X148273214Y-49492758D02*
X148320833Y-49397520D01*
X148320833Y-49397520D02*
X148416071Y-49302282D01*
X148416071Y-49302282D02*
X148558928Y-49254663D01*
X148558928Y-49254663D02*
X148654166Y-49254663D01*
X148654166Y-49254663D02*
X148797023Y-49302282D01*
X148797023Y-49302282D02*
X148844642Y-49349901D01*
X149797023Y-50254663D02*
X149225595Y-50254663D01*
X149511309Y-50254663D02*
X149511309Y-49254663D01*
X149511309Y-49254663D02*
X149416071Y-49397520D01*
X149416071Y-49397520D02*
X149320833Y-49492758D01*
X149320833Y-49492758D02*
X149225595Y-49540377D01*
X150130357Y-49254663D02*
X150797023Y-49254663D01*
X150797023Y-49254663D02*
X150368452Y-50254663D01*
X142333333Y-30142163D02*
X141857143Y-30142163D01*
X141857143Y-30142163D02*
X141857143Y-29142163D01*
X143190476Y-30142163D02*
X142619048Y-30142163D01*
X142904762Y-30142163D02*
X142904762Y-29142163D01*
X142904762Y-29142163D02*
X142809524Y-29285020D01*
X142809524Y-29285020D02*
X142714286Y-29380258D01*
X142714286Y-29380258D02*
X142619048Y-29427877D01*
X138182142Y-48359424D02*
X138134523Y-48407044D01*
X138134523Y-48407044D02*
X137991666Y-48454663D01*
X137991666Y-48454663D02*
X137896428Y-48454663D01*
X137896428Y-48454663D02*
X137753571Y-48407044D01*
X137753571Y-48407044D02*
X137658333Y-48311805D01*
X137658333Y-48311805D02*
X137610714Y-48216567D01*
X137610714Y-48216567D02*
X137563095Y-48026091D01*
X137563095Y-48026091D02*
X137563095Y-47883234D01*
X137563095Y-47883234D02*
X137610714Y-47692758D01*
X137610714Y-47692758D02*
X137658333Y-47597520D01*
X137658333Y-47597520D02*
X137753571Y-47502282D01*
X137753571Y-47502282D02*
X137896428Y-47454663D01*
X137896428Y-47454663D02*
X137991666Y-47454663D01*
X137991666Y-47454663D02*
X138134523Y-47502282D01*
X138134523Y-47502282D02*
X138182142Y-47549901D01*
X139134523Y-48454663D02*
X138563095Y-48454663D01*
X138848809Y-48454663D02*
X138848809Y-47454663D01*
X138848809Y-47454663D02*
X138753571Y-47597520D01*
X138753571Y-47597520D02*
X138658333Y-47692758D01*
X138658333Y-47692758D02*
X138563095Y-47740377D01*
X139991666Y-47454663D02*
X139801190Y-47454663D01*
X139801190Y-47454663D02*
X139705952Y-47502282D01*
X139705952Y-47502282D02*
X139658333Y-47549901D01*
X139658333Y-47549901D02*
X139563095Y-47692758D01*
X139563095Y-47692758D02*
X139515476Y-47883234D01*
X139515476Y-47883234D02*
X139515476Y-48264186D01*
X139515476Y-48264186D02*
X139563095Y-48359424D01*
X139563095Y-48359424D02*
X139610714Y-48407044D01*
X139610714Y-48407044D02*
X139705952Y-48454663D01*
X139705952Y-48454663D02*
X139896428Y-48454663D01*
X139896428Y-48454663D02*
X139991666Y-48407044D01*
X139991666Y-48407044D02*
X140039285Y-48359424D01*
X140039285Y-48359424D02*
X140086904Y-48264186D01*
X140086904Y-48264186D02*
X140086904Y-48026091D01*
X140086904Y-48026091D02*
X140039285Y-47930853D01*
X140039285Y-47930853D02*
X139991666Y-47883234D01*
X139991666Y-47883234D02*
X139896428Y-47835615D01*
X139896428Y-47835615D02*
X139705952Y-47835615D01*
X139705952Y-47835615D02*
X139610714Y-47883234D01*
X139610714Y-47883234D02*
X139563095Y-47930853D01*
X139563095Y-47930853D02*
X139515476Y-48026091D01*
X149988095Y-35704663D02*
X149988095Y-36514186D01*
X149988095Y-36514186D02*
X150035714Y-36609424D01*
X150035714Y-36609424D02*
X150083333Y-36657044D01*
X150083333Y-36657044D02*
X150178571Y-36704663D01*
X150178571Y-36704663D02*
X150369047Y-36704663D01*
X150369047Y-36704663D02*
X150464285Y-36657044D01*
X150464285Y-36657044D02*
X150511904Y-36609424D01*
X150511904Y-36609424D02*
X150559523Y-36514186D01*
X150559523Y-36514186D02*
X150559523Y-35704663D01*
X151464285Y-36037996D02*
X151464285Y-36704663D01*
X151226190Y-35657044D02*
X150988095Y-36371329D01*
X150988095Y-36371329D02*
X151607142Y-36371329D01*
X147607142Y-44359424D02*
X147559523Y-44407044D01*
X147559523Y-44407044D02*
X147416666Y-44454663D01*
X147416666Y-44454663D02*
X147321428Y-44454663D01*
X147321428Y-44454663D02*
X147178571Y-44407044D01*
X147178571Y-44407044D02*
X147083333Y-44311805D01*
X147083333Y-44311805D02*
X147035714Y-44216567D01*
X147035714Y-44216567D02*
X146988095Y-44026091D01*
X146988095Y-44026091D02*
X146988095Y-43883234D01*
X146988095Y-43883234D02*
X147035714Y-43692758D01*
X147035714Y-43692758D02*
X147083333Y-43597520D01*
X147083333Y-43597520D02*
X147178571Y-43502282D01*
X147178571Y-43502282D02*
X147321428Y-43454663D01*
X147321428Y-43454663D02*
X147416666Y-43454663D01*
X147416666Y-43454663D02*
X147559523Y-43502282D01*
X147559523Y-43502282D02*
X147607142Y-43549901D01*
X148559523Y-44454663D02*
X147988095Y-44454663D01*
X148273809Y-44454663D02*
X148273809Y-43454663D01*
X148273809Y-43454663D02*
X148178571Y-43597520D01*
X148178571Y-43597520D02*
X148083333Y-43692758D01*
X148083333Y-43692758D02*
X147988095Y-43740377D01*
X149464285Y-43454663D02*
X148988095Y-43454663D01*
X148988095Y-43454663D02*
X148940476Y-43930853D01*
X148940476Y-43930853D02*
X148988095Y-43883234D01*
X148988095Y-43883234D02*
X149083333Y-43835615D01*
X149083333Y-43835615D02*
X149321428Y-43835615D01*
X149321428Y-43835615D02*
X149416666Y-43883234D01*
X149416666Y-43883234D02*
X149464285Y-43930853D01*
X149464285Y-43930853D02*
X149511904Y-44026091D01*
X149511904Y-44026091D02*
X149511904Y-44264186D01*
X149511904Y-44264186D02*
X149464285Y-44359424D01*
X149464285Y-44359424D02*
X149416666Y-44407044D01*
X149416666Y-44407044D02*
X149321428Y-44454663D01*
X149321428Y-44454663D02*
X149083333Y-44454663D01*
X149083333Y-44454663D02*
X148988095Y-44407044D01*
X148988095Y-44407044D02*
X148940476Y-44359424D01*
X141488095Y-50954663D02*
X141488095Y-51764186D01*
X141488095Y-51764186D02*
X141535714Y-51859424D01*
X141535714Y-51859424D02*
X141583333Y-51907044D01*
X141583333Y-51907044D02*
X141678571Y-51954663D01*
X141678571Y-51954663D02*
X141869047Y-51954663D01*
X141869047Y-51954663D02*
X141964285Y-51907044D01*
X141964285Y-51907044D02*
X142011904Y-51859424D01*
X142011904Y-51859424D02*
X142059523Y-51764186D01*
X142059523Y-51764186D02*
X142059523Y-50954663D01*
X142488095Y-51049901D02*
X142535714Y-51002282D01*
X142535714Y-51002282D02*
X142630952Y-50954663D01*
X142630952Y-50954663D02*
X142869047Y-50954663D01*
X142869047Y-50954663D02*
X142964285Y-51002282D01*
X142964285Y-51002282D02*
X143011904Y-51049901D01*
X143011904Y-51049901D02*
X143059523Y-51145139D01*
X143059523Y-51145139D02*
X143059523Y-51240377D01*
X143059523Y-51240377D02*
X143011904Y-51383234D01*
X143011904Y-51383234D02*
X142440476Y-51954663D01*
X142440476Y-51954663D02*
X143059523Y-51954663D01*
X143944642Y-41271924D02*
X143897023Y-41319544D01*
X143897023Y-41319544D02*
X143754166Y-41367163D01*
X143754166Y-41367163D02*
X143658928Y-41367163D01*
X143658928Y-41367163D02*
X143516071Y-41319544D01*
X143516071Y-41319544D02*
X143420833Y-41224305D01*
X143420833Y-41224305D02*
X143373214Y-41129067D01*
X143373214Y-41129067D02*
X143325595Y-40938591D01*
X143325595Y-40938591D02*
X143325595Y-40795734D01*
X143325595Y-40795734D02*
X143373214Y-40605258D01*
X143373214Y-40605258D02*
X143420833Y-40510020D01*
X143420833Y-40510020D02*
X143516071Y-40414782D01*
X143516071Y-40414782D02*
X143658928Y-40367163D01*
X143658928Y-40367163D02*
X143754166Y-40367163D01*
X143754166Y-40367163D02*
X143897023Y-40414782D01*
X143897023Y-40414782D02*
X143944642Y-40462401D01*
X144897023Y-41367163D02*
X144325595Y-41367163D01*
X144611309Y-41367163D02*
X144611309Y-40367163D01*
X144611309Y-40367163D02*
X144516071Y-40510020D01*
X144516071Y-40510020D02*
X144420833Y-40605258D01*
X144420833Y-40605258D02*
X144325595Y-40652877D01*
X145373214Y-41367163D02*
X145563690Y-41367163D01*
X145563690Y-41367163D02*
X145658928Y-41319544D01*
X145658928Y-41319544D02*
X145706547Y-41271924D01*
X145706547Y-41271924D02*
X145801785Y-41129067D01*
X145801785Y-41129067D02*
X145849404Y-40938591D01*
X145849404Y-40938591D02*
X145849404Y-40557639D01*
X145849404Y-40557639D02*
X145801785Y-40462401D01*
X145801785Y-40462401D02*
X145754166Y-40414782D01*
X145754166Y-40414782D02*
X145658928Y-40367163D01*
X145658928Y-40367163D02*
X145468452Y-40367163D01*
X145468452Y-40367163D02*
X145373214Y-40414782D01*
X145373214Y-40414782D02*
X145325595Y-40462401D01*
X145325595Y-40462401D02*
X145277976Y-40557639D01*
X145277976Y-40557639D02*
X145277976Y-40795734D01*
X145277976Y-40795734D02*
X145325595Y-40890972D01*
X145325595Y-40890972D02*
X145373214Y-40938591D01*
X145373214Y-40938591D02*
X145468452Y-40986210D01*
X145468452Y-40986210D02*
X145658928Y-40986210D01*
X145658928Y-40986210D02*
X145754166Y-40938591D01*
X145754166Y-40938591D02*
X145801785Y-40890972D01*
X145801785Y-40890972D02*
X145849404Y-40795734D01*
%TO.C,J9*%
D15*
X145390000Y-55215000D02*
X146440000Y-55215000D01*
X145390000Y-57715000D02*
X145390000Y-55215000D01*
X146440000Y-55215000D02*
X146440000Y-54225000D01*
X146560000Y-59685000D02*
X150440000Y-59685000D01*
X151610000Y-55215000D02*
X150560000Y-55215000D01*
X151610000Y-57715000D02*
X151610000Y-55215000D01*
%TO.C,J11*%
X163715000Y-29390000D02*
X163715000Y-30440000D01*
X163715000Y-33560000D02*
X162725000Y-33560000D01*
X163715000Y-34610000D02*
X163715000Y-33560000D01*
X166215000Y-29390000D02*
X163715000Y-29390000D01*
X166215000Y-34610000D02*
X163715000Y-34610000D01*
X168185000Y-33440000D02*
X168185000Y-30560000D01*
%TO.C,J5*%
X128815000Y-42560000D02*
X128815000Y-48440000D01*
X130785000Y-41390000D02*
X133285000Y-41390000D01*
X130785000Y-49610000D02*
X133285000Y-49610000D01*
X133285000Y-41390000D02*
X133285000Y-42440000D01*
X133285000Y-42440000D02*
X134275000Y-42440000D01*
X133285000Y-49610000D02*
X133285000Y-48560000D01*
%TO.C,C14*%
X144613748Y-45515000D02*
X145136252Y-45515000D01*
X144613748Y-46985000D02*
X145136252Y-46985000D01*
%TO.C,C13*%
X158265000Y-25488748D02*
X158265000Y-26011252D01*
X159735000Y-25488748D02*
X159735000Y-26011252D01*
%TO.C,U3*%
D10*
X145825000Y-22700000D02*
X155525000Y-22700000D01*
X155525000Y-32800000D01*
X145825000Y-32800000D01*
X145825000Y-22700000D01*
D16*
X157425000Y-32250000D02*
G75*
G02*
X157125000Y-32250000I-150000J0D01*
G01*
X157125000Y-32250000D02*
G75*
G02*
X157425000Y-32250000I150000J0D01*
G01*
%TO.C,C20*%
D15*
X150265000Y-39763748D02*
X150265000Y-40286252D01*
X151735000Y-39763748D02*
X151735000Y-40286252D01*
%TO.C,D4*%
X165540000Y-46065000D02*
X165540000Y-48750000D01*
X167460000Y-46065000D02*
X165540000Y-46065000D01*
X167460000Y-48750000D02*
X167460000Y-46065000D01*
%TO.C,U5*%
X137345000Y-33690000D02*
X137945000Y-33690000D01*
X137345000Y-33990000D02*
X137345000Y-33690000D01*
X137345000Y-36110000D02*
X137345000Y-36410000D01*
X137345000Y-36410000D02*
X137945000Y-36410000D01*
X139465000Y-33690000D02*
X139825000Y-33690000D01*
X140065000Y-36110000D02*
X140065000Y-36410000D01*
X140065000Y-36410000D02*
X139465000Y-36410000D01*
X140395000Y-33930000D02*
X140065000Y-33690000D01*
X140395000Y-33450000D01*
X140395000Y-33930000D01*
G36*
X140395000Y-33930000D02*
G01*
X140065000Y-33690000D01*
X140395000Y-33450000D01*
X140395000Y-33930000D01*
G37*
%TO.C,R5*%
X147814564Y-51515000D02*
X147360436Y-51515000D01*
X147814564Y-52985000D02*
X147360436Y-52985000D01*
%TO.C,J7*%
X128815000Y-31260000D02*
X128815000Y-36140000D01*
X130785000Y-30090000D02*
X133285000Y-30090000D01*
X130785000Y-37310000D02*
X133285000Y-37310000D01*
X133285000Y-30090000D02*
X133285000Y-31140000D01*
X133285000Y-31140000D02*
X134275000Y-31140000D01*
X133285000Y-37310000D02*
X133285000Y-36260000D01*
%TO.C,C18*%
X141265000Y-34738748D02*
X141265000Y-35261252D01*
X142735000Y-34738748D02*
X142735000Y-35261252D01*
%TO.C,R6*%
X162765000Y-47522936D02*
X162765000Y-47977064D01*
X164235000Y-47522936D02*
X164235000Y-47977064D01*
%TO.C,C17*%
X146215000Y-49511252D02*
X146215000Y-48988748D01*
X147685000Y-49511252D02*
X147685000Y-48988748D01*
%TO.C,L1*%
X141940000Y-26600378D02*
X141940000Y-27399622D01*
X143060000Y-26600378D02*
X143060000Y-27399622D01*
%TO.C,C16*%
X140840000Y-48211252D02*
X140840000Y-47688748D01*
X142310000Y-48211252D02*
X142310000Y-47688748D01*
%TO.C,U4*%
D17*
X146400000Y-36500000D02*
X146650000Y-36500000D01*
X146400000Y-36750000D02*
X146400000Y-36500000D01*
X146400000Y-39000000D02*
X146400000Y-38750000D01*
X146650000Y-39000000D02*
X146400000Y-39000000D01*
X149150000Y-36500000D02*
X149400000Y-36500000D01*
X149400000Y-36500000D02*
X149400000Y-36750000D01*
X149400000Y-38750000D02*
X149400000Y-39000000D01*
X149400000Y-39000000D02*
X149150000Y-39000000D01*
X146100000Y-36350000D02*
G75*
G02*
X145900000Y-36350000I-100000J0D01*
G01*
X145900000Y-36350000D02*
G75*
G02*
X146100000Y-36350000I100000J0D01*
G01*
%TO.C,J3*%
D15*
X163590000Y-36590000D02*
X163590000Y-37640000D01*
X163590000Y-39760000D02*
X162600000Y-39760000D01*
X163590000Y-40810000D02*
X163590000Y-39760000D01*
X166090000Y-36590000D02*
X163590000Y-36590000D01*
X166090000Y-40810000D02*
X163590000Y-40810000D01*
X168060000Y-39640000D02*
X168060000Y-37760000D01*
%TO.C,C15*%
X144613748Y-43265000D02*
X145136252Y-43265000D01*
X144613748Y-44735000D02*
X145136252Y-44735000D01*
%TO.C,J13*%
D18*
X143575000Y-20450000D02*
X140975000Y-20450000D01*
%TO.C,U2*%
D10*
D19*
X143575000Y-50800000D02*
X143574999Y-50800000D01*
X143574999Y-50800000D01*
X143574999Y-50800000D01*
X143574999Y-50800000D01*
X143574999Y-50800000D01*
X143574999Y-50800000D01*
X143574999Y-50800000D01*
X143574999Y-50799999D01*
X143574999Y-50799999D01*
X143574999Y-50799999D01*
X143574999Y-50799999D01*
X143574999Y-50799999D01*
X143575000Y-50799999D01*
X143575000Y-50799999D01*
X143575000Y-50799999D01*
X143575000Y-50799999D01*
X143575000Y-50799999D01*
X143575000Y-50799999D01*
X143575000Y-50799999D01*
X143575000Y-50799999D01*
X143575000Y-50799999D01*
X143575000Y-50799999D01*
X143575000Y-50799999D01*
X143575000Y-50799999D01*
X143575001Y-50799999D01*
X143575001Y-50799999D01*
X143575001Y-50799999D01*
X143575001Y-50799999D01*
X143575001Y-50799999D01*
X143575001Y-50799999D01*
X143575001Y-50800000D01*
X143575001Y-50800000D01*
X143575001Y-50800000D01*
X143575001Y-50800000D01*
X143575001Y-50800000D01*
X143575001Y-50800000D01*
X143575001Y-50800000D01*
X143575000Y-50800000D01*
X143575000Y-50800000D02*
X143575001Y-50800000D01*
X143575001Y-50800000D01*
X143575001Y-50800000D01*
X143575001Y-50800000D01*
X143575001Y-50800000D01*
X143575001Y-50800000D01*
X143575001Y-50800001D01*
X143575001Y-50800001D01*
X143575001Y-50800001D01*
X143575001Y-50800001D01*
X143575001Y-50800001D01*
X143575001Y-50800001D01*
X143575001Y-50800001D01*
X143575000Y-50800001D01*
X143575000Y-50800001D01*
X143575000Y-50800001D01*
X143575000Y-50800001D01*
X143575000Y-50800001D01*
X143575000Y-50800001D01*
X143575000Y-50800001D01*
X143575000Y-50800001D01*
X143575000Y-50800001D01*
X143575000Y-50800001D01*
X143575000Y-50800001D01*
X143575000Y-50800001D01*
X143574999Y-50800001D01*
X143574999Y-50800001D01*
X143574999Y-50800001D01*
X143574999Y-50800001D01*
X143574999Y-50800001D01*
X143574999Y-50800001D01*
X143574999Y-50800000D01*
X143574999Y-50800000D01*
X143574999Y-50800000D01*
X143574999Y-50800000D01*
X143574999Y-50800000D01*
X143574999Y-50800000D01*
X143575000Y-50800000D01*
D10*
D19*
X143575000Y-50900000D02*
X143574999Y-50900000D01*
X143574999Y-50900000D01*
X143574999Y-50900000D01*
X143574999Y-50900000D01*
X143574999Y-50900000D01*
X143574999Y-50900000D01*
X143574999Y-50900000D01*
X143574999Y-50899999D01*
X143574999Y-50899999D01*
X143574999Y-50899999D01*
X143574999Y-50899999D01*
X143574999Y-50899999D01*
X143575000Y-50899999D01*
X143575000Y-50899999D01*
X143575000Y-50899999D01*
X143575000Y-50899999D01*
X143575000Y-50899999D01*
X143575000Y-50899999D01*
X143575000Y-50899999D01*
X143575000Y-50899999D01*
X143575000Y-50899999D01*
X143575000Y-50899999D01*
X143575000Y-50899999D01*
X143575000Y-50899999D01*
X143575001Y-50899999D01*
X143575001Y-50899999D01*
X143575001Y-50899999D01*
X143575001Y-50899999D01*
X143575001Y-50899999D01*
X143575001Y-50899999D01*
X143575001Y-50900000D01*
X143575001Y-50900000D01*
X143575001Y-50900000D01*
X143575001Y-50900000D01*
X143575001Y-50900000D01*
X143575001Y-50900000D01*
X143575001Y-50900000D01*
X143575000Y-50900000D01*
X143575000Y-50900000D02*
X143575001Y-50900000D01*
X143575001Y-50900000D01*
X143575001Y-50900000D01*
X143575001Y-50900000D01*
X143575001Y-50900000D01*
X143575001Y-50900000D01*
X143575001Y-50900001D01*
X143575001Y-50900001D01*
X143575001Y-50900001D01*
X143575001Y-50900001D01*
X143575001Y-50900001D01*
X143575001Y-50900001D01*
X143575001Y-50900001D01*
X143575000Y-50900001D01*
X143575000Y-50900001D01*
X143575000Y-50900001D01*
X143575000Y-50900001D01*
X143575000Y-50900001D01*
X143575000Y-50900001D01*
X143575000Y-50900001D01*
X143575000Y-50900001D01*
X143575000Y-50900001D01*
X143575000Y-50900001D01*
X143575000Y-50900001D01*
X143575000Y-50900001D01*
X143574999Y-50900001D01*
X143574999Y-50900001D01*
X143574999Y-50900001D01*
X143574999Y-50900001D01*
X143574999Y-50900001D01*
X143574999Y-50900001D01*
X143574999Y-50900000D01*
X143574999Y-50900000D01*
X143574999Y-50900000D01*
X143574999Y-50900000D01*
X143574999Y-50900000D01*
X143574999Y-50900000D01*
X143575000Y-50900000D01*
D10*
X143575000Y-50800000D02*
G75*
G02*
X143575000Y-50900000I0J-50000D01*
G01*
X143575000Y-50900000D02*
G75*
G02*
X143575000Y-50800000I0J50000D01*
G01*
%TO.C,C19*%
D15*
X147538748Y-40015000D02*
X148061252Y-40015000D01*
X147538748Y-41485000D02*
X148061252Y-41485000D01*
%TD*%
M02*
