M48
; DRILL file KiCad 10.0.0 date 2026-06-04T16:58:23
; FORMAT={-:-/ absolute / metric / decimal}
; #@! TF.CreationDate,2026-06-04T16:58:23-05:00
; #@! TF.GenerationSoftware,Kicad,Pcbnew,10.0.0
; #@! TF.FileFunction,Plated,1,4,PTH
FMAT,2
METRIC
; #@! TA.AperFunction,Plated,PTH,ViaDrill
T1C0.300
; #@! TA.AperFunction,Plated,PTH,ComponentDrill
T2C3.200
%
G90
G05
T1
X135.0Y-46.0
X135.0Y-48.0
X136.75Y-34.45
X139.5Y-21.75
X140.75Y-37.0
X141.575Y-45.75
X141.575Y-50.25
X142.75Y-44.0
X143.325Y-48.0
X143.5Y-33.95
X144.25Y-26.0
X144.325Y-48.0
X144.75Y-51.0
X145.0Y-21.75
X145.25Y-48.0
X145.585Y-38.085
X146.75Y-22.5
X146.75Y-42.25
X147.25Y-47.0
X148.487Y-48.25
X148.5Y-35.5
X148.75Y-42.25
X149.0Y-53.75
X150.0Y-53.75
X150.25Y-37.85
X152.5Y-39.0
X152.5Y-41.0
X156.5Y-33.5
X157.0Y-35.25
X157.0Y-37.5
X157.0Y-39.5
X157.0Y-41.5
X157.25Y-24.75
X157.25Y-27.0
X157.25Y-30.25
X159.0Y-23.5
X159.0Y-28.0
X161.0Y-35.25
X161.25Y-40.5
X161.5Y-33.0
X162.0Y-48.75
X165.0Y-48.75
T2
X133.5Y-25.0
X133.5Y-55.0
X163.5Y-25.0
X163.5Y-55.0
M30
