%TF.GenerationSoftware,KiCad,Pcbnew,10.0.0*%
%TF.CreationDate,2026-06-04T16:58:12-05:00*%
%TF.ProjectId,sensors_pcb,73656e73-6f72-4735-9f70-63622e6b6963,rev?*%
%TF.SameCoordinates,Original*%
%TF.FileFunction,Legend,Bot*%
%TF.FilePolarity,Positive*%
%FSLAX46Y46*%
G04 Gerber Fmt 4.6, Leading zero omitted, Abs format (unit mm)*
G04 Created by KiCad (PCBNEW 10.0.0) date 2026-06-04 16:58:12*
%MOMM*%
%LPD*%
G01*
G04 APERTURE LIST*
%ADD10C,0.153000*%
G04 APERTURE END LIST*
D10*
G36*
X146663550Y-31111106D02*
G01*
X146693612Y-31141167D01*
X146727604Y-31209151D01*
X146727604Y-31411126D01*
X146693611Y-31479110D01*
X146663551Y-31509171D01*
X146595568Y-31543163D01*
X146441212Y-31543163D01*
X146373228Y-31509171D01*
X146343168Y-31479110D01*
X146309176Y-31411126D01*
X146309176Y-31209151D01*
X146343167Y-31141168D01*
X146373228Y-31111106D01*
X146441212Y-31077115D01*
X146595568Y-31077115D01*
X146663550Y-31111106D01*
G37*
G36*
X150520693Y-30730154D02*
G01*
X150550755Y-30760215D01*
X150589068Y-30836841D01*
X150632366Y-31010033D01*
X150632366Y-31229292D01*
X150589068Y-31402484D01*
X150550754Y-31479110D01*
X150520694Y-31509171D01*
X150452711Y-31543163D01*
X150393593Y-31543163D01*
X150325609Y-31509171D01*
X150295549Y-31479110D01*
X150257236Y-31402484D01*
X150213938Y-31229292D01*
X150213938Y-31010033D01*
X150257236Y-30836841D01*
X150295548Y-30760216D01*
X150325609Y-30730154D01*
X150393593Y-30696163D01*
X150452711Y-30696163D01*
X150520693Y-30730154D01*
G37*
G36*
X150896477Y-32045369D02*
G01*
X146045065Y-32045369D01*
X146045065Y-31191091D01*
X146156176Y-31191091D01*
X146156176Y-31429186D01*
X146157646Y-31444110D01*
X146158698Y-31446650D01*
X146158893Y-31449392D01*
X146164252Y-31463398D01*
X146211871Y-31558636D01*
X146215913Y-31565058D01*
X146216687Y-31566925D01*
X146218411Y-31569026D01*
X146219860Y-31571327D01*
X146221386Y-31572650D01*
X146226201Y-31578517D01*
X146273820Y-31626137D01*
X146279686Y-31630952D01*
X146281011Y-31632479D01*
X146283312Y-31633927D01*
X146285412Y-31635651D01*
X146287277Y-31636423D01*
X146293702Y-31640468D01*
X146388940Y-31688087D01*
X146402946Y-31693446D01*
X146405687Y-31693640D01*
X146408228Y-31694693D01*
X146423152Y-31696163D01*
X146613628Y-31696163D01*
X146628552Y-31694693D01*
X146631092Y-31693640D01*
X146633834Y-31693446D01*
X146647840Y-31688087D01*
X146743078Y-31640468D01*
X146749502Y-31636423D01*
X146751368Y-31635651D01*
X146753467Y-31633927D01*
X146755769Y-31632479D01*
X146757093Y-31630952D01*
X146762960Y-31626137D01*
X146810579Y-31578517D01*
X146815391Y-31572652D01*
X146816920Y-31571327D01*
X146818370Y-31569022D01*
X146820092Y-31566925D01*
X146820863Y-31565062D01*
X146824909Y-31558636D01*
X146872528Y-31463398D01*
X146877887Y-31449392D01*
X146878081Y-31446650D01*
X146879134Y-31444110D01*
X146880604Y-31429186D01*
X146880604Y-31048234D01*
X146880347Y-31045628D01*
X146880513Y-31044515D01*
X146879687Y-31038933D01*
X146879134Y-31033310D01*
X146878702Y-31032268D01*
X146878320Y-31029680D01*
X146830701Y-30839204D01*
X146827558Y-30830408D01*
X146827192Y-30828557D01*
X146826296Y-30826877D01*
X146825655Y-30825082D01*
X146824529Y-30823563D01*
X146820137Y-30815324D01*
X146816680Y-30810139D01*
X147108557Y-30810139D01*
X147108557Y-30905377D01*
X147109301Y-30912931D01*
X147109158Y-30914945D01*
X147109760Y-30917594D01*
X147110027Y-30920301D01*
X147110800Y-30922168D01*
X147112483Y-30929568D01*
X147160102Y-31072425D01*
X147166216Y-31086118D01*
X147168016Y-31088194D01*
X147169069Y-31090735D01*
X147178582Y-31102328D01*
X147619416Y-31543163D01*
X147185057Y-31543163D01*
X147170133Y-31544633D01*
X147142556Y-31556056D01*
X147121450Y-31577162D01*
X147110027Y-31604739D01*
X147110027Y-31634587D01*
X147121450Y-31662164D01*
X147142556Y-31683270D01*
X147170133Y-31694693D01*
X147185057Y-31696163D01*
X147804104Y-31696163D01*
X147819028Y-31694693D01*
X147846605Y-31683270D01*
X147867711Y-31662164D01*
X147879134Y-31634587D01*
X147879134Y-31604739D01*
X147867711Y-31577162D01*
X147858198Y-31565569D01*
X147299538Y-31006908D01*
X147261557Y-30892963D01*
X147261557Y-30828199D01*
X147295548Y-30760216D01*
X147325609Y-30730154D01*
X147393593Y-30696163D01*
X147595568Y-30696163D01*
X147663550Y-30730154D01*
X147702391Y-30768994D01*
X147713983Y-30778508D01*
X147741560Y-30789930D01*
X147771409Y-30789930D01*
X147798986Y-30778508D01*
X147820092Y-30757402D01*
X147831514Y-30729825D01*
X147831514Y-30699976D01*
X147820092Y-30672399D01*
X147810578Y-30660807D01*
X147762960Y-30613188D01*
X147757093Y-30608373D01*
X147755769Y-30606847D01*
X147753465Y-30605396D01*
X147751367Y-30603675D01*
X147749504Y-30602903D01*
X147743078Y-30598858D01*
X147689290Y-30571964D01*
X147965700Y-30571964D01*
X147971493Y-30601246D01*
X147978548Y-30614479D01*
X148835690Y-31900193D01*
X148845192Y-31911795D01*
X148869993Y-31928404D01*
X148899262Y-31934258D01*
X148928544Y-31928465D01*
X148953379Y-31911909D01*
X148969988Y-31887107D01*
X148975842Y-31857839D01*
X148970049Y-31828557D01*
X148962994Y-31815324D01*
X148546839Y-31191091D01*
X149108557Y-31191091D01*
X149108557Y-31429186D01*
X149110027Y-31444110D01*
X149111079Y-31446650D01*
X149111274Y-31449392D01*
X149116633Y-31463398D01*
X149164252Y-31558636D01*
X149168294Y-31565058D01*
X149169068Y-31566925D01*
X149170792Y-31569026D01*
X149172241Y-31571327D01*
X149173767Y-31572650D01*
X149178582Y-31578517D01*
X149226201Y-31626137D01*
X149232067Y-31630952D01*
X149233392Y-31632479D01*
X149235693Y-31633927D01*
X149237793Y-31635651D01*
X149239658Y-31636423D01*
X149246083Y-31640468D01*
X149341321Y-31688087D01*
X149355327Y-31693446D01*
X149358068Y-31693640D01*
X149360609Y-31694693D01*
X149375533Y-31696163D01*
X149613628Y-31696163D01*
X149628552Y-31694693D01*
X149631092Y-31693640D01*
X149633834Y-31693446D01*
X149647840Y-31688087D01*
X149743078Y-31640468D01*
X149749502Y-31636423D01*
X149751368Y-31635651D01*
X149753467Y-31633927D01*
X149755769Y-31632479D01*
X149757093Y-31630952D01*
X149762960Y-31626137D01*
X149810579Y-31578517D01*
X149820092Y-31566925D01*
X149831515Y-31539348D01*
X149831514Y-31509499D01*
X149820092Y-31481922D01*
X149798986Y-31460817D01*
X149771408Y-31449394D01*
X149741560Y-31449395D01*
X149713983Y-31460817D01*
X149702391Y-31470331D01*
X149663551Y-31509171D01*
X149595568Y-31543163D01*
X149393593Y-31543163D01*
X149325609Y-31509171D01*
X149295549Y-31479110D01*
X149261557Y-31411126D01*
X149261557Y-31209151D01*
X149295548Y-31141168D01*
X149325609Y-31111106D01*
X149393593Y-31077115D01*
X149595568Y-31077115D01*
X149663550Y-31111106D01*
X149702391Y-31149946D01*
X149713983Y-31159460D01*
X149717544Y-31160935D01*
X149720524Y-31163373D01*
X149731230Y-31166603D01*
X149741560Y-31170882D01*
X149745409Y-31170882D01*
X149749101Y-31171996D01*
X149760241Y-31170882D01*
X149771409Y-31170882D01*
X149774963Y-31169409D01*
X149778801Y-31169026D01*
X149788659Y-31163736D01*
X149798986Y-31159460D01*
X149801710Y-31156735D01*
X149805104Y-31154915D01*
X149812182Y-31146263D01*
X149820092Y-31138354D01*
X149821566Y-31134794D01*
X149824005Y-31131814D01*
X149827236Y-31121104D01*
X149831514Y-31110777D01*
X149831514Y-31106928D01*
X149832628Y-31103237D01*
X149832605Y-31088241D01*
X149823842Y-31000615D01*
X150060938Y-31000615D01*
X150060938Y-31238710D01*
X150061194Y-31241315D01*
X150061029Y-31242429D01*
X150061854Y-31248010D01*
X150062408Y-31253634D01*
X150062839Y-31254675D01*
X150063222Y-31257264D01*
X150110841Y-31447740D01*
X150111234Y-31448842D01*
X150111274Y-31449392D01*
X150113652Y-31455607D01*
X150115887Y-31461862D01*
X150116214Y-31462303D01*
X150116633Y-31463398D01*
X150164252Y-31558636D01*
X150168294Y-31565058D01*
X150169068Y-31566925D01*
X150170792Y-31569026D01*
X150172241Y-31571327D01*
X150173767Y-31572650D01*
X150178582Y-31578517D01*
X150226201Y-31626137D01*
X150232067Y-31630952D01*
X150233392Y-31632479D01*
X150235693Y-31633927D01*
X150237793Y-31635651D01*
X150239658Y-31636423D01*
X150246083Y-31640468D01*
X150341321Y-31688087D01*
X150355327Y-31693446D01*
X150358068Y-31693640D01*
X150360609Y-31694693D01*
X150375533Y-31696163D01*
X150470771Y-31696163D01*
X150485695Y-31694693D01*
X150488235Y-31693640D01*
X150490977Y-31693446D01*
X150504983Y-31688087D01*
X150600221Y-31640468D01*
X150606645Y-31636423D01*
X150608511Y-31635651D01*
X150610610Y-31633927D01*
X150612912Y-31632479D01*
X150614236Y-31630952D01*
X150620103Y-31626137D01*
X150667722Y-31578517D01*
X150672534Y-31572652D01*
X150674063Y-31571327D01*
X150675513Y-31569022D01*
X150677235Y-31566925D01*
X150678006Y-31565062D01*
X150682052Y-31558636D01*
X150729671Y-31463398D01*
X150730089Y-31462303D01*
X150730417Y-31461862D01*
X150732651Y-31455607D01*
X150735030Y-31449392D01*
X150735069Y-31448842D01*
X150735463Y-31447740D01*
X150783082Y-31257264D01*
X150783464Y-31254675D01*
X150783896Y-31253634D01*
X150784449Y-31248010D01*
X150785275Y-31242429D01*
X150785109Y-31241315D01*
X150785366Y-31238710D01*
X150785366Y-31000615D01*
X150785109Y-30998009D01*
X150785275Y-30996896D01*
X150784449Y-30991314D01*
X150783896Y-30985691D01*
X150783464Y-30984649D01*
X150783082Y-30982061D01*
X150735463Y-30791585D01*
X150735069Y-30790482D01*
X150735030Y-30789933D01*
X150732651Y-30783717D01*
X150730417Y-30777463D01*
X150730089Y-30777021D01*
X150729671Y-30775927D01*
X150682052Y-30680689D01*
X150678007Y-30674264D01*
X150677235Y-30672399D01*
X150675511Y-30670299D01*
X150674063Y-30667998D01*
X150672536Y-30666673D01*
X150667721Y-30660807D01*
X150620103Y-30613188D01*
X150614236Y-30608373D01*
X150612912Y-30606847D01*
X150610608Y-30605396D01*
X150608510Y-30603675D01*
X150606647Y-30602903D01*
X150600221Y-30598858D01*
X150504983Y-30551239D01*
X150490977Y-30545880D01*
X150488235Y-30545685D01*
X150485695Y-30544633D01*
X150470771Y-30543163D01*
X150375533Y-30543163D01*
X150360609Y-30544633D01*
X150358068Y-30545685D01*
X150355327Y-30545880D01*
X150341321Y-30551239D01*
X150246083Y-30598858D01*
X150239658Y-30602902D01*
X150237793Y-30603675D01*
X150235693Y-30605398D01*
X150233392Y-30606847D01*
X150232067Y-30608373D01*
X150226201Y-30613189D01*
X150178582Y-30660807D01*
X150173767Y-30666673D01*
X150172241Y-30667998D01*
X150170790Y-30670301D01*
X150169069Y-30672400D01*
X150168297Y-30674262D01*
X150164252Y-30680689D01*
X150116633Y-30775927D01*
X150116214Y-30777021D01*
X150115887Y-30777463D01*
X150113652Y-30783717D01*
X150111274Y-30789933D01*
X150111234Y-30790482D01*
X150110841Y-30791585D01*
X150063222Y-30982061D01*
X150062839Y-30984649D01*
X150062408Y-30985691D01*
X150061854Y-30991314D01*
X150061029Y-30996896D01*
X150061194Y-30998009D01*
X150060938Y-31000615D01*
X149823842Y-31000615D01*
X149784986Y-30612051D01*
X149783896Y-30606612D01*
X149783896Y-30604739D01*
X149783168Y-30602982D01*
X149782039Y-30597347D01*
X149776751Y-30587491D01*
X149772473Y-30577162D01*
X149769748Y-30574437D01*
X149767928Y-30571044D01*
X149759276Y-30563965D01*
X149751367Y-30556056D01*
X149747807Y-30554581D01*
X149744827Y-30552143D01*
X149734122Y-30548912D01*
X149723790Y-30544633D01*
X149718072Y-30544069D01*
X149716250Y-30543520D01*
X149714384Y-30543706D01*
X149708866Y-30543163D01*
X149232676Y-30543163D01*
X149217752Y-30544633D01*
X149190175Y-30556056D01*
X149169069Y-30577162D01*
X149157646Y-30604739D01*
X149157646Y-30634587D01*
X149169069Y-30662164D01*
X149190175Y-30683270D01*
X149217752Y-30694693D01*
X149232676Y-30696163D01*
X149639635Y-30696163D01*
X149664048Y-30940295D01*
X149647840Y-30932191D01*
X149633834Y-30926832D01*
X149631092Y-30926637D01*
X149628552Y-30925585D01*
X149613628Y-30924115D01*
X149375533Y-30924115D01*
X149360609Y-30925585D01*
X149358068Y-30926637D01*
X149355327Y-30926832D01*
X149341321Y-30932191D01*
X149246083Y-30979810D01*
X149239658Y-30983854D01*
X149237793Y-30984627D01*
X149235693Y-30986350D01*
X149233392Y-30987799D01*
X149232067Y-30989325D01*
X149226201Y-30994141D01*
X149178582Y-31041759D01*
X149173767Y-31047625D01*
X149172241Y-31048950D01*
X149170790Y-31051253D01*
X149169069Y-31053352D01*
X149168297Y-31055214D01*
X149164252Y-31061641D01*
X149116633Y-31156879D01*
X149111274Y-31170885D01*
X149111079Y-31173626D01*
X149110027Y-31176167D01*
X149108557Y-31191091D01*
X148546839Y-31191091D01*
X148105852Y-30529609D01*
X148096350Y-30518007D01*
X148071549Y-30501398D01*
X148042280Y-30495544D01*
X148012998Y-30501337D01*
X147988163Y-30517894D01*
X147971554Y-30542695D01*
X147965700Y-30571964D01*
X147689290Y-30571964D01*
X147647840Y-30551239D01*
X147633834Y-30545880D01*
X147631092Y-30545685D01*
X147628552Y-30544633D01*
X147613628Y-30543163D01*
X147375533Y-30543163D01*
X147360609Y-30544633D01*
X147358068Y-30545685D01*
X147355327Y-30545880D01*
X147341321Y-30551239D01*
X147246083Y-30598858D01*
X147239658Y-30602902D01*
X147237793Y-30603675D01*
X147235693Y-30605398D01*
X147233392Y-30606847D01*
X147232067Y-30608373D01*
X147226201Y-30613189D01*
X147178582Y-30660807D01*
X147173767Y-30666673D01*
X147172241Y-30667998D01*
X147170790Y-30670301D01*
X147169069Y-30672400D01*
X147168297Y-30674262D01*
X147164252Y-30680689D01*
X147116633Y-30775927D01*
X147111274Y-30789933D01*
X147111079Y-30792674D01*
X147110027Y-30795215D01*
X147108557Y-30810139D01*
X146816680Y-30810139D01*
X146724899Y-30672466D01*
X146724864Y-30672423D01*
X146724854Y-30672399D01*
X146720201Y-30666730D01*
X146715397Y-30660864D01*
X146715374Y-30660848D01*
X146715340Y-30660807D01*
X146667722Y-30613188D01*
X146661855Y-30608373D01*
X146660531Y-30606847D01*
X146658227Y-30605396D01*
X146656129Y-30603675D01*
X146654266Y-30602903D01*
X146647840Y-30598858D01*
X146552602Y-30551239D01*
X146538596Y-30545880D01*
X146535854Y-30545685D01*
X146533314Y-30544633D01*
X146518390Y-30543163D01*
X146327914Y-30543163D01*
X146312990Y-30544633D01*
X146285413Y-30556056D01*
X146264307Y-30577162D01*
X146252884Y-30604739D01*
X146252884Y-30634587D01*
X146264307Y-30662164D01*
X146285413Y-30683270D01*
X146312990Y-30694693D01*
X146327914Y-30696163D01*
X146500330Y-30696163D01*
X146568312Y-30730154D01*
X146601795Y-30763636D01*
X146685483Y-30889168D01*
X146703152Y-30959847D01*
X146647840Y-30932191D01*
X146633834Y-30926832D01*
X146631092Y-30926637D01*
X146628552Y-30925585D01*
X146613628Y-30924115D01*
X146423152Y-30924115D01*
X146408228Y-30925585D01*
X146405687Y-30926637D01*
X146402946Y-30926832D01*
X146388940Y-30932191D01*
X146293702Y-30979810D01*
X146287277Y-30983854D01*
X146285412Y-30984627D01*
X146283312Y-30986350D01*
X146281011Y-30987799D01*
X146279686Y-30989325D01*
X146273820Y-30994141D01*
X146226201Y-31041759D01*
X146221386Y-31047625D01*
X146219860Y-31048950D01*
X146218409Y-31051253D01*
X146216688Y-31053352D01*
X146215916Y-31055214D01*
X146211871Y-31061641D01*
X146164252Y-31156879D01*
X146158893Y-31170885D01*
X146158698Y-31173626D01*
X146157646Y-31176167D01*
X146156176Y-31191091D01*
X146045065Y-31191091D01*
X146045065Y-30384433D01*
X150896477Y-30384433D01*
X150896477Y-32045369D01*
G37*
G36*
X140032595Y-28730154D02*
G01*
X140062657Y-28760215D01*
X140100970Y-28836841D01*
X140144268Y-29010033D01*
X140144268Y-29229292D01*
X140100970Y-29402484D01*
X140062656Y-29479110D01*
X140032596Y-29509171D01*
X139964613Y-29543163D01*
X139905495Y-29543163D01*
X139837511Y-29509171D01*
X139807451Y-29479110D01*
X139769138Y-29402484D01*
X139725840Y-29229292D01*
X139725840Y-29010033D01*
X139769138Y-28836841D01*
X139807450Y-28760216D01*
X139837511Y-28730154D01*
X139905495Y-28696163D01*
X139964613Y-28696163D01*
X140032595Y-28730154D01*
G37*
G36*
X143925653Y-29057635D02*
G01*
X143953792Y-29113913D01*
X143953792Y-29193013D01*
X143630602Y-29128376D01*
X143630602Y-29113913D01*
X143658741Y-29057635D01*
X143715019Y-29029496D01*
X143869375Y-29029496D01*
X143925653Y-29057635D01*
G37*
G36*
X148544701Y-29057635D02*
G01*
X148572840Y-29113913D01*
X148572840Y-29193013D01*
X148249650Y-29128376D01*
X148249650Y-29113913D01*
X148277789Y-29057635D01*
X148334067Y-29029496D01*
X148488423Y-29029496D01*
X148544701Y-29057635D01*
G37*
G36*
X150318310Y-29063487D02*
G01*
X150348372Y-29093548D01*
X150382364Y-29161532D01*
X150382364Y-29411126D01*
X150348371Y-29479110D01*
X150318311Y-29509171D01*
X150250328Y-29543163D01*
X150143591Y-29543163D01*
X150075607Y-29509171D01*
X150045547Y-29479110D01*
X150011555Y-29411126D01*
X150011555Y-29161532D01*
X150045546Y-29093549D01*
X150075607Y-29063487D01*
X150143591Y-29029496D01*
X150250328Y-29029496D01*
X150318310Y-29063487D01*
G37*
G36*
X155413550Y-29063487D02*
G01*
X155443612Y-29093548D01*
X155477604Y-29161532D01*
X155477604Y-29411126D01*
X155443611Y-29479110D01*
X155413551Y-29509171D01*
X155345568Y-29543163D01*
X155238831Y-29543163D01*
X155170847Y-29509171D01*
X155140787Y-29479110D01*
X155106795Y-29411126D01*
X155106795Y-29161532D01*
X155140786Y-29093549D01*
X155170847Y-29063487D01*
X155238831Y-29029496D01*
X155345568Y-29029496D01*
X155413550Y-29063487D01*
G37*
G36*
X144906173Y-29066972D02*
G01*
X144619781Y-29066972D01*
X144551797Y-29032980D01*
X144521736Y-29002918D01*
X144487745Y-28934936D01*
X144487745Y-28828199D01*
X144521736Y-28760216D01*
X144551797Y-28730154D01*
X144619781Y-28696163D01*
X144906173Y-28696163D01*
X144906173Y-29066972D01*
G37*
G36*
X156598858Y-30140006D02*
G01*
X139461729Y-30140006D01*
X139461729Y-29699977D01*
X151383835Y-29699977D01*
X151383835Y-29729825D01*
X151395258Y-29757402D01*
X151416364Y-29778508D01*
X151443941Y-29789931D01*
X151458865Y-29791401D01*
X152220770Y-29791401D01*
X152235694Y-29789931D01*
X152263271Y-29778508D01*
X152284377Y-29757402D01*
X152295800Y-29729825D01*
X152295800Y-29699977D01*
X152284377Y-29672400D01*
X152263271Y-29651294D01*
X152235694Y-29639871D01*
X152220770Y-29638401D01*
X151458865Y-29638401D01*
X151443941Y-29639871D01*
X151416364Y-29651294D01*
X151395258Y-29672400D01*
X151383835Y-29699977D01*
X139461729Y-29699977D01*
X139461729Y-29000615D01*
X139572840Y-29000615D01*
X139572840Y-29238710D01*
X139573096Y-29241315D01*
X139572931Y-29242429D01*
X139573756Y-29248010D01*
X139574310Y-29253634D01*
X139574741Y-29254675D01*
X139575124Y-29257264D01*
X139622743Y-29447740D01*
X139623136Y-29448842D01*
X139623176Y-29449392D01*
X139625554Y-29455607D01*
X139627789Y-29461862D01*
X139628116Y-29462303D01*
X139628535Y-29463398D01*
X139676154Y-29558636D01*
X139680196Y-29565058D01*
X139680970Y-29566925D01*
X139682694Y-29569026D01*
X139684143Y-29571327D01*
X139685669Y-29572650D01*
X139690484Y-29578517D01*
X139738103Y-29626137D01*
X139743969Y-29630952D01*
X139745294Y-29632479D01*
X139747595Y-29633927D01*
X139749695Y-29635651D01*
X139751560Y-29636423D01*
X139757985Y-29640468D01*
X139853223Y-29688087D01*
X139867229Y-29693446D01*
X139869970Y-29693640D01*
X139872511Y-29694693D01*
X139887435Y-29696163D01*
X139982673Y-29696163D01*
X139997597Y-29694693D01*
X140000137Y-29693640D01*
X140002879Y-29693446D01*
X140016885Y-29688087D01*
X140112123Y-29640468D01*
X140118547Y-29636423D01*
X140120413Y-29635651D01*
X140122512Y-29633927D01*
X140124814Y-29632479D01*
X140126138Y-29630952D01*
X140132005Y-29626137D01*
X140179624Y-29578517D01*
X140184436Y-29572652D01*
X140185965Y-29571327D01*
X140187415Y-29569022D01*
X140189137Y-29566925D01*
X140189908Y-29565062D01*
X140193954Y-29558636D01*
X140194712Y-29557121D01*
X140526690Y-29557121D01*
X140526690Y-29586969D01*
X140538113Y-29614546D01*
X140538117Y-29614550D01*
X140547626Y-29626138D01*
X140595245Y-29673756D01*
X140606837Y-29683270D01*
X140617970Y-29687881D01*
X140634415Y-29694693D01*
X140664263Y-29694693D01*
X140691840Y-29683270D01*
X140703433Y-29673757D01*
X140751051Y-29626138D01*
X140760565Y-29614546D01*
X140764627Y-29604739D01*
X141002881Y-29604739D01*
X141002881Y-29634587D01*
X141014304Y-29662164D01*
X141035410Y-29683270D01*
X141062987Y-29694693D01*
X141077911Y-29696163D01*
X141649339Y-29696163D01*
X141664263Y-29694693D01*
X141691840Y-29683270D01*
X141712946Y-29662164D01*
X141724369Y-29634587D01*
X141724369Y-29604739D01*
X141712946Y-29577162D01*
X141691840Y-29556056D01*
X141664263Y-29544633D01*
X141649339Y-29543163D01*
X141440125Y-29543163D01*
X141440125Y-28851970D01*
X141500007Y-28911852D01*
X141505873Y-28916666D01*
X141507198Y-28918193D01*
X141509501Y-28919643D01*
X141511600Y-28921365D01*
X141513462Y-28922136D01*
X141519889Y-28926182D01*
X141615127Y-28973801D01*
X141629133Y-28979160D01*
X141658907Y-28981276D01*
X141687224Y-28971837D01*
X141696056Y-28964177D01*
X142668900Y-28964177D01*
X142672535Y-28978726D01*
X142910630Y-29645392D01*
X142917033Y-29658953D01*
X142919612Y-29661801D01*
X142921255Y-29665270D01*
X142929551Y-29672780D01*
X142937066Y-29681081D01*
X142940536Y-29682724D01*
X142943383Y-29685302D01*
X142953924Y-29689066D01*
X142964041Y-29693859D01*
X142967876Y-29694049D01*
X142971492Y-29695341D01*
X142982673Y-29694785D01*
X142993854Y-29695341D01*
X142997469Y-29694049D01*
X143001305Y-29693859D01*
X143011421Y-29689066D01*
X143021963Y-29685302D01*
X143024809Y-29682724D01*
X143028280Y-29681081D01*
X143035792Y-29672782D01*
X143044091Y-29665270D01*
X143045734Y-29661800D01*
X143048312Y-29658953D01*
X143054716Y-29645393D01*
X143250980Y-29095853D01*
X143477602Y-29095853D01*
X143477602Y-29191091D01*
X143479072Y-29206015D01*
X143481940Y-29212939D01*
X143483395Y-29220292D01*
X143487596Y-29226594D01*
X143490495Y-29233592D01*
X143495794Y-29238891D01*
X143499952Y-29245128D01*
X143506246Y-29249343D01*
X143511601Y-29254698D01*
X143518524Y-29257565D01*
X143524753Y-29261737D01*
X143539099Y-29266105D01*
X143539177Y-29266120D01*
X143539178Y-29266121D01*
X143539179Y-29266121D01*
X143953792Y-29349043D01*
X143953792Y-29458746D01*
X143925653Y-29515024D01*
X143869375Y-29543163D01*
X143715019Y-29543163D01*
X143635933Y-29503620D01*
X143621927Y-29498261D01*
X143592153Y-29496145D01*
X143563836Y-29505584D01*
X143541286Y-29525141D01*
X143527938Y-29551838D01*
X143525822Y-29581612D01*
X143535261Y-29609929D01*
X143554818Y-29632479D01*
X143567509Y-29640468D01*
X143662747Y-29688087D01*
X143676753Y-29693446D01*
X143679494Y-29693640D01*
X143682035Y-29694693D01*
X143696959Y-29696163D01*
X143887435Y-29696163D01*
X143902359Y-29694693D01*
X143904899Y-29693640D01*
X143907641Y-29693446D01*
X143921647Y-29688087D01*
X144016885Y-29640468D01*
X144019382Y-29638895D01*
X144020558Y-29638504D01*
X144022022Y-29637234D01*
X144029576Y-29632479D01*
X144035861Y-29625232D01*
X144043108Y-29618947D01*
X144047863Y-29611393D01*
X144049133Y-29609929D01*
X144049524Y-29608753D01*
X144051097Y-29606256D01*
X144098716Y-29511017D01*
X144104075Y-29497011D01*
X144104269Y-29494269D01*
X144105322Y-29491729D01*
X144106792Y-29476805D01*
X144106792Y-29095853D01*
X144105322Y-29080929D01*
X144104269Y-29078388D01*
X144104075Y-29075647D01*
X144098716Y-29061641D01*
X144051097Y-28966403D01*
X144049524Y-28963905D01*
X144049133Y-28962730D01*
X144047863Y-28961265D01*
X144043108Y-28953712D01*
X144035861Y-28947426D01*
X144029576Y-28940180D01*
X144022022Y-28935424D01*
X144020558Y-28934155D01*
X144019382Y-28933763D01*
X144016885Y-28932191D01*
X143921647Y-28884572D01*
X143907641Y-28879213D01*
X143904899Y-28879018D01*
X143902359Y-28877966D01*
X143887435Y-28876496D01*
X143696959Y-28876496D01*
X143682035Y-28877966D01*
X143679494Y-28879018D01*
X143676753Y-28879213D01*
X143662747Y-28884572D01*
X143567509Y-28932191D01*
X143565011Y-28933763D01*
X143563836Y-28934155D01*
X143562371Y-28935424D01*
X143554818Y-28940180D01*
X143548532Y-28947426D01*
X143541286Y-28953712D01*
X143536530Y-28961265D01*
X143535261Y-28962730D01*
X143534869Y-28963905D01*
X143533297Y-28966403D01*
X143485678Y-29061641D01*
X143480319Y-29075647D01*
X143480124Y-29078388D01*
X143479072Y-29080929D01*
X143477602Y-29095853D01*
X143250980Y-29095853D01*
X143292811Y-28978726D01*
X143296446Y-28964177D01*
X143294964Y-28934365D01*
X143282186Y-28907389D01*
X143260058Y-28887357D01*
X143231949Y-28877318D01*
X143202136Y-28878800D01*
X143175161Y-28891578D01*
X143155128Y-28913706D01*
X143148725Y-28927267D01*
X142982673Y-29392212D01*
X142816621Y-28927266D01*
X142810217Y-28913706D01*
X142790185Y-28891578D01*
X142763210Y-28878800D01*
X142733397Y-28877318D01*
X142705288Y-28887357D01*
X142683160Y-28907389D01*
X142670382Y-28934364D01*
X142668900Y-28964177D01*
X141696056Y-28964177D01*
X141709773Y-28952280D01*
X141723122Y-28925583D01*
X141725238Y-28895809D01*
X141715799Y-28867492D01*
X141696242Y-28844942D01*
X141683551Y-28836953D01*
X141629923Y-28810139D01*
X144334745Y-28810139D01*
X144334745Y-28952996D01*
X144336215Y-28967920D01*
X144337267Y-28970460D01*
X144337462Y-28973202D01*
X144342821Y-28987208D01*
X144390440Y-29082446D01*
X144394485Y-29088872D01*
X144395257Y-29090735D01*
X144396978Y-29092833D01*
X144398429Y-29095137D01*
X144399955Y-29096461D01*
X144404770Y-29102328D01*
X144452389Y-29149946D01*
X144458255Y-29154761D01*
X144459580Y-29156288D01*
X144461881Y-29157736D01*
X144463981Y-29159460D01*
X144465846Y-29160232D01*
X144472271Y-29164277D01*
X144567509Y-29211896D01*
X144581515Y-29217255D01*
X144584256Y-29217449D01*
X144586797Y-29218502D01*
X144597910Y-29219596D01*
X144348574Y-29575793D01*
X144341220Y-29588862D01*
X144334763Y-29618005D01*
X144339951Y-29647399D01*
X144355992Y-29672572D01*
X144380444Y-29689688D01*
X144409587Y-29696145D01*
X144438981Y-29690957D01*
X144464154Y-29674916D01*
X144473916Y-29663533D01*
X144784408Y-29219972D01*
X144906173Y-29219972D01*
X144906173Y-29619663D01*
X144907643Y-29634587D01*
X144919066Y-29662164D01*
X144940172Y-29683270D01*
X144967749Y-29694693D01*
X144997597Y-29694693D01*
X145025174Y-29683270D01*
X145046280Y-29662164D01*
X145057703Y-29634587D01*
X145059173Y-29619663D01*
X145059173Y-29223786D01*
X146145739Y-29223786D01*
X146145739Y-29253634D01*
X146157162Y-29281211D01*
X146178268Y-29302317D01*
X146205845Y-29313740D01*
X146220769Y-29315210D01*
X146982673Y-29315210D01*
X146997597Y-29313740D01*
X147025174Y-29302317D01*
X147046280Y-29281211D01*
X147057703Y-29253634D01*
X147057703Y-29223786D01*
X147046280Y-29196209D01*
X147025174Y-29175103D01*
X146997597Y-29163680D01*
X146982673Y-29162210D01*
X146220769Y-29162210D01*
X146205845Y-29163680D01*
X146178268Y-29175103D01*
X146157162Y-29196209D01*
X146145739Y-29223786D01*
X145059173Y-29223786D01*
X145059173Y-29095853D01*
X148096650Y-29095853D01*
X148096650Y-29191091D01*
X148098120Y-29206015D01*
X148100988Y-29212939D01*
X148102443Y-29220292D01*
X148106644Y-29226594D01*
X148109543Y-29233592D01*
X148114842Y-29238891D01*
X148119000Y-29245128D01*
X148125294Y-29249343D01*
X148130649Y-29254698D01*
X148137572Y-29257565D01*
X148143801Y-29261737D01*
X148158147Y-29266105D01*
X148158225Y-29266120D01*
X148158226Y-29266121D01*
X148158227Y-29266121D01*
X148572840Y-29349043D01*
X148572840Y-29458746D01*
X148544701Y-29515024D01*
X148488423Y-29543163D01*
X148334067Y-29543163D01*
X148254981Y-29503620D01*
X148240975Y-29498261D01*
X148211201Y-29496145D01*
X148182884Y-29505584D01*
X148160334Y-29525141D01*
X148146986Y-29551838D01*
X148144870Y-29581612D01*
X148154309Y-29609929D01*
X148173866Y-29632479D01*
X148186557Y-29640468D01*
X148281795Y-29688087D01*
X148295801Y-29693446D01*
X148298542Y-29693640D01*
X148301083Y-29694693D01*
X148316007Y-29696163D01*
X148506483Y-29696163D01*
X148521407Y-29694693D01*
X148523947Y-29693640D01*
X148526689Y-29693446D01*
X148540695Y-29688087D01*
X148635933Y-29640468D01*
X148638430Y-29638895D01*
X148639606Y-29638504D01*
X148641070Y-29637234D01*
X148648624Y-29632479D01*
X148654909Y-29625232D01*
X148662156Y-29618947D01*
X148666911Y-29611393D01*
X148668181Y-29609929D01*
X148668572Y-29608753D01*
X148670145Y-29606256D01*
X148717764Y-29511017D01*
X148723123Y-29497011D01*
X148723317Y-29494269D01*
X148724370Y-29491729D01*
X148725840Y-29476805D01*
X148725840Y-29095853D01*
X149001412Y-29095853D01*
X149001412Y-29619663D01*
X149002882Y-29634587D01*
X149014305Y-29662164D01*
X149035411Y-29683270D01*
X149062988Y-29694693D01*
X149092836Y-29694693D01*
X149120413Y-29683270D01*
X149141519Y-29662164D01*
X149152942Y-29634587D01*
X149154412Y-29619663D01*
X149154412Y-29113913D01*
X149182551Y-29057635D01*
X149238829Y-29029496D01*
X149345566Y-29029496D01*
X149413548Y-29063487D01*
X149429983Y-29079921D01*
X149429983Y-29619663D01*
X149431453Y-29634587D01*
X149442876Y-29662164D01*
X149463982Y-29683270D01*
X149491559Y-29694693D01*
X149521407Y-29694693D01*
X149548984Y-29683270D01*
X149570090Y-29662164D01*
X149581513Y-29634587D01*
X149582983Y-29619663D01*
X149582983Y-29143472D01*
X149858555Y-29143472D01*
X149858555Y-29429186D01*
X149860025Y-29444110D01*
X149861077Y-29446650D01*
X149861272Y-29449392D01*
X149866631Y-29463398D01*
X149914250Y-29558636D01*
X149918292Y-29565058D01*
X149919066Y-29566925D01*
X149920790Y-29569026D01*
X149922239Y-29571327D01*
X149923765Y-29572650D01*
X149928580Y-29578517D01*
X149976199Y-29626137D01*
X149982065Y-29630952D01*
X149983390Y-29632479D01*
X149985691Y-29633927D01*
X149987791Y-29635651D01*
X149989656Y-29636423D01*
X149996081Y-29640468D01*
X150091319Y-29688087D01*
X150105325Y-29693446D01*
X150108066Y-29693640D01*
X150110607Y-29694693D01*
X150125531Y-29696163D01*
X150268388Y-29696163D01*
X150283312Y-29694693D01*
X150285852Y-29693640D01*
X150288594Y-29693446D01*
X150302600Y-29688087D01*
X150397838Y-29640468D01*
X150404262Y-29636423D01*
X150406128Y-29635651D01*
X150408227Y-29633927D01*
X150410529Y-29632479D01*
X150411853Y-29630952D01*
X150417720Y-29626137D01*
X150465339Y-29578517D01*
X150470151Y-29572652D01*
X150471680Y-29571327D01*
X150473130Y-29569022D01*
X150474852Y-29566925D01*
X150475623Y-29565062D01*
X150479669Y-29558636D01*
X150527288Y-29463398D01*
X150532647Y-29449392D01*
X150532841Y-29446650D01*
X150533894Y-29444110D01*
X150535364Y-29429186D01*
X150535364Y-29143472D01*
X150533894Y-29128548D01*
X150532841Y-29126007D01*
X150532647Y-29123266D01*
X150527288Y-29109260D01*
X150479669Y-29014022D01*
X150475624Y-29007597D01*
X150474852Y-29005732D01*
X150473128Y-29003632D01*
X150471680Y-29001331D01*
X150470153Y-29000006D01*
X150465338Y-28994140D01*
X150430073Y-28958874D01*
X150715925Y-28958874D01*
X150717168Y-28963309D01*
X150717168Y-28967920D01*
X150721163Y-28977565D01*
X150723980Y-28987616D01*
X150727820Y-28993635D01*
X150728591Y-28995497D01*
X150729740Y-28996646D01*
X150732045Y-29000259D01*
X151158612Y-29543163D01*
X150792198Y-29543163D01*
X150777274Y-29544633D01*
X150749697Y-29556056D01*
X150728591Y-29577162D01*
X150717168Y-29604739D01*
X150717168Y-29634587D01*
X150728591Y-29662164D01*
X150749697Y-29683270D01*
X150777274Y-29694693D01*
X150792198Y-29696163D01*
X151316007Y-29696163D01*
X151320274Y-29695742D01*
X151321885Y-29695936D01*
X151323821Y-29695393D01*
X151330931Y-29694693D01*
X151340576Y-29690697D01*
X151350627Y-29687881D01*
X151354251Y-29685033D01*
X151358508Y-29683270D01*
X151365887Y-29675890D01*
X151374097Y-29669440D01*
X151376355Y-29665422D01*
X151379614Y-29662164D01*
X151383609Y-29652518D01*
X151388724Y-29643420D01*
X151389272Y-29638845D01*
X151391037Y-29634587D01*
X151391037Y-29624143D01*
X151392280Y-29613785D01*
X151391037Y-29609349D01*
X151391037Y-29604739D01*
X151387041Y-29595093D01*
X151384225Y-29585043D01*
X151380384Y-29579023D01*
X151379614Y-29577162D01*
X151378464Y-29576012D01*
X151376160Y-29572400D01*
X150949593Y-29029496D01*
X151316007Y-29029496D01*
X151330931Y-29028026D01*
X151358508Y-29016603D01*
X151379614Y-28995497D01*
X151391037Y-28967920D01*
X151391037Y-28964177D01*
X152287949Y-28964177D01*
X152291584Y-28978726D01*
X152529679Y-29645392D01*
X152530293Y-29646693D01*
X152530694Y-29648074D01*
X152625931Y-29886169D01*
X152632839Y-29899480D01*
X152633171Y-29899820D01*
X152633353Y-29900259D01*
X152642866Y-29911852D01*
X152690485Y-29959470D01*
X152696351Y-29964285D01*
X152697676Y-29965812D01*
X152699977Y-29967260D01*
X152702077Y-29968984D01*
X152703942Y-29969756D01*
X152710367Y-29973801D01*
X152805605Y-30021420D01*
X152819611Y-30026779D01*
X152849385Y-30028895D01*
X152877702Y-30019456D01*
X152900251Y-29999899D01*
X152913600Y-29973202D01*
X152915716Y-29943428D01*
X152906277Y-29915111D01*
X152886720Y-29892561D01*
X152874029Y-29884572D01*
X152789893Y-29842504D01*
X152762156Y-29814766D01*
X152716240Y-29699977D01*
X154002884Y-29699977D01*
X154002884Y-29729825D01*
X154014307Y-29757402D01*
X154035413Y-29778508D01*
X154062990Y-29789931D01*
X154077914Y-29791401D01*
X154839819Y-29791401D01*
X154854743Y-29789931D01*
X154882320Y-29778508D01*
X154903426Y-29757402D01*
X154914849Y-29729825D01*
X154914849Y-29699977D01*
X154903426Y-29672400D01*
X154882320Y-29651294D01*
X154854743Y-29639871D01*
X154839819Y-29638401D01*
X154077914Y-29638401D01*
X154062990Y-29639871D01*
X154035413Y-29651294D01*
X154014307Y-29672400D01*
X154002884Y-29699977D01*
X152716240Y-29699977D01*
X152683501Y-29618130D01*
X152686371Y-29610095D01*
X153049633Y-29610095D01*
X153051749Y-29639869D01*
X153065097Y-29666566D01*
X153087647Y-29686123D01*
X153115964Y-29695562D01*
X153145738Y-29693446D01*
X153159744Y-29688087D01*
X153254982Y-29640468D01*
X153257479Y-29638895D01*
X153258655Y-29638504D01*
X153260119Y-29637234D01*
X153267673Y-29632479D01*
X153273958Y-29625232D01*
X153281205Y-29618947D01*
X153285960Y-29611393D01*
X153287230Y-29609929D01*
X153287621Y-29608753D01*
X153289194Y-29606256D01*
X153336813Y-29511017D01*
X153342172Y-29497011D01*
X153342366Y-29494269D01*
X153343419Y-29491729D01*
X153344889Y-29476805D01*
X153344889Y-28619663D01*
X153343419Y-28604739D01*
X153526693Y-28604739D01*
X153526693Y-28634587D01*
X153538116Y-28662164D01*
X153559222Y-28683270D01*
X153586799Y-28694693D01*
X153601723Y-28696163D01*
X153678901Y-28696163D01*
X153735179Y-28724302D01*
X153763318Y-28780580D01*
X153763318Y-28876496D01*
X153601723Y-28876496D01*
X153586799Y-28877966D01*
X153559222Y-28889389D01*
X153538116Y-28910495D01*
X153526693Y-28938072D01*
X153526693Y-28967920D01*
X153538116Y-28995497D01*
X153559222Y-29016603D01*
X153586799Y-29028026D01*
X153601723Y-29029496D01*
X153763318Y-29029496D01*
X153763318Y-29619663D01*
X153764788Y-29634587D01*
X153776211Y-29662164D01*
X153797317Y-29683270D01*
X153824894Y-29694693D01*
X153854742Y-29694693D01*
X153882319Y-29683270D01*
X153903425Y-29662164D01*
X153914848Y-29634587D01*
X153916318Y-29619663D01*
X153916318Y-29143472D01*
X154953795Y-29143472D01*
X154953795Y-29429186D01*
X154955265Y-29444110D01*
X154956317Y-29446650D01*
X154956512Y-29449392D01*
X154961871Y-29463398D01*
X155009490Y-29558636D01*
X155013532Y-29565058D01*
X155014306Y-29566925D01*
X155016030Y-29569026D01*
X155017479Y-29571327D01*
X155019005Y-29572650D01*
X155023820Y-29578517D01*
X155071439Y-29626137D01*
X155077305Y-29630952D01*
X155078630Y-29632479D01*
X155080931Y-29633927D01*
X155083031Y-29635651D01*
X155084896Y-29636423D01*
X155091321Y-29640468D01*
X155186559Y-29688087D01*
X155200565Y-29693446D01*
X155203306Y-29693640D01*
X155205847Y-29694693D01*
X155220771Y-29696163D01*
X155363628Y-29696163D01*
X155378552Y-29694693D01*
X155381092Y-29693640D01*
X155383834Y-29693446D01*
X155397840Y-29688087D01*
X155493078Y-29640468D01*
X155499502Y-29636423D01*
X155501368Y-29635651D01*
X155503467Y-29633927D01*
X155505769Y-29632479D01*
X155507093Y-29630952D01*
X155512960Y-29626137D01*
X155560579Y-29578517D01*
X155565391Y-29572652D01*
X155566920Y-29571327D01*
X155568370Y-29569022D01*
X155570092Y-29566925D01*
X155570863Y-29565062D01*
X155574909Y-29558636D01*
X155622528Y-29463398D01*
X155627887Y-29449392D01*
X155628081Y-29446650D01*
X155629134Y-29444110D01*
X155630604Y-29429186D01*
X155630604Y-29143472D01*
X155629134Y-29128548D01*
X155628081Y-29126007D01*
X155627887Y-29123266D01*
X155622528Y-29109260D01*
X155615824Y-29095853D01*
X155906176Y-29095853D01*
X155906176Y-29619663D01*
X155907646Y-29634587D01*
X155919069Y-29662164D01*
X155940175Y-29683270D01*
X155967752Y-29694693D01*
X155997600Y-29694693D01*
X156025177Y-29683270D01*
X156046283Y-29662164D01*
X156057706Y-29634587D01*
X156059176Y-29619663D01*
X156059176Y-29113913D01*
X156087315Y-29057635D01*
X156143593Y-29029496D01*
X156250330Y-29029496D01*
X156318312Y-29063487D01*
X156334747Y-29079921D01*
X156334747Y-29619663D01*
X156336217Y-29634587D01*
X156347640Y-29662164D01*
X156368746Y-29683270D01*
X156396323Y-29694693D01*
X156426171Y-29694693D01*
X156453748Y-29683270D01*
X156474854Y-29662164D01*
X156486277Y-29634587D01*
X156487747Y-29619663D01*
X156487747Y-28952996D01*
X156486277Y-28938072D01*
X156474854Y-28910495D01*
X156453748Y-28889389D01*
X156426171Y-28877966D01*
X156396323Y-28877966D01*
X156368746Y-28889389D01*
X156349909Y-28908225D01*
X156302602Y-28884572D01*
X156288596Y-28879213D01*
X156285854Y-28879018D01*
X156283314Y-28877966D01*
X156268390Y-28876496D01*
X156125533Y-28876496D01*
X156110609Y-28877966D01*
X156108068Y-28879018D01*
X156105327Y-28879213D01*
X156091321Y-28884572D01*
X155996083Y-28932191D01*
X155993585Y-28933763D01*
X155992410Y-28934155D01*
X155990945Y-28935424D01*
X155983392Y-28940180D01*
X155977106Y-28947426D01*
X155969860Y-28953712D01*
X155965104Y-28961265D01*
X155963835Y-28962730D01*
X155963443Y-28963905D01*
X155961871Y-28966403D01*
X155914252Y-29061641D01*
X155908893Y-29075647D01*
X155908698Y-29078388D01*
X155907646Y-29080929D01*
X155906176Y-29095853D01*
X155615824Y-29095853D01*
X155574909Y-29014022D01*
X155570864Y-29007597D01*
X155570092Y-29005732D01*
X155568368Y-29003632D01*
X155566920Y-29001331D01*
X155565393Y-29000006D01*
X155560578Y-28994140D01*
X155512960Y-28946521D01*
X155507093Y-28941706D01*
X155505769Y-28940180D01*
X155503465Y-28938729D01*
X155501367Y-28937008D01*
X155499504Y-28936236D01*
X155493078Y-28932191D01*
X155397840Y-28884572D01*
X155383834Y-28879213D01*
X155381092Y-28879018D01*
X155378552Y-28877966D01*
X155363628Y-28876496D01*
X155220771Y-28876496D01*
X155205847Y-28877966D01*
X155203306Y-28879018D01*
X155200565Y-28879213D01*
X155186559Y-28884572D01*
X155091321Y-28932191D01*
X155084896Y-28936235D01*
X155083031Y-28937008D01*
X155080931Y-28938731D01*
X155078630Y-28940180D01*
X155077305Y-28941706D01*
X155071439Y-28946522D01*
X155023820Y-28994140D01*
X155019005Y-29000006D01*
X155017479Y-29001331D01*
X155016028Y-29003634D01*
X155014307Y-29005733D01*
X155013535Y-29007595D01*
X155009490Y-29014022D01*
X154961871Y-29109260D01*
X154956512Y-29123266D01*
X154956317Y-29126007D01*
X154955265Y-29128548D01*
X154953795Y-29143472D01*
X153916318Y-29143472D01*
X153916318Y-29029496D01*
X153982675Y-29029496D01*
X153997599Y-29028026D01*
X154025176Y-29016603D01*
X154046282Y-28995497D01*
X154057705Y-28967920D01*
X154057705Y-28938072D01*
X154046282Y-28910495D01*
X154025176Y-28889389D01*
X153997599Y-28877966D01*
X153982675Y-28876496D01*
X153916318Y-28876496D01*
X153916318Y-28762520D01*
X153914848Y-28747596D01*
X153913795Y-28745055D01*
X153913601Y-28742314D01*
X153908242Y-28728308D01*
X153860623Y-28633070D01*
X153859050Y-28630572D01*
X153858659Y-28629397D01*
X153857389Y-28627932D01*
X153852634Y-28620379D01*
X153845387Y-28614093D01*
X153839102Y-28606847D01*
X153831548Y-28602091D01*
X153830084Y-28600822D01*
X153828908Y-28600430D01*
X153826411Y-28598858D01*
X153731173Y-28551239D01*
X153717167Y-28545880D01*
X153714425Y-28545685D01*
X153711885Y-28544633D01*
X153696961Y-28543163D01*
X153601723Y-28543163D01*
X153586799Y-28544633D01*
X153559222Y-28556056D01*
X153538116Y-28577162D01*
X153526693Y-28604739D01*
X153343419Y-28604739D01*
X153331996Y-28577162D01*
X153310890Y-28556056D01*
X153283313Y-28544633D01*
X153253465Y-28544633D01*
X153225888Y-28556056D01*
X153204782Y-28577162D01*
X153193359Y-28604739D01*
X153191889Y-28619663D01*
X153191889Y-29458746D01*
X153163750Y-29515024D01*
X153091320Y-29551239D01*
X153078629Y-29559228D01*
X153059072Y-29581778D01*
X153049633Y-29610095D01*
X152686371Y-29610095D01*
X152911860Y-28978726D01*
X152915495Y-28964177D01*
X152914013Y-28934365D01*
X152901235Y-28907389D01*
X152879107Y-28887357D01*
X152850998Y-28877318D01*
X152821185Y-28878800D01*
X152794210Y-28891578D01*
X152774177Y-28913706D01*
X152767774Y-28927267D01*
X152601722Y-29392212D01*
X152435670Y-28927266D01*
X152429266Y-28913706D01*
X152409234Y-28891578D01*
X152382259Y-28878800D01*
X152352446Y-28877318D01*
X152324337Y-28887357D01*
X152302209Y-28907389D01*
X152289431Y-28934364D01*
X152287949Y-28964177D01*
X151391037Y-28964177D01*
X151391037Y-28938072D01*
X151379614Y-28910495D01*
X151358508Y-28889389D01*
X151330931Y-28877966D01*
X151316007Y-28876496D01*
X150792198Y-28876496D01*
X150787930Y-28876916D01*
X150786320Y-28876723D01*
X150784383Y-28877265D01*
X150777274Y-28877966D01*
X150767628Y-28881961D01*
X150757578Y-28884778D01*
X150753953Y-28887625D01*
X150749697Y-28889389D01*
X150742317Y-28896768D01*
X150734108Y-28903219D01*
X150731849Y-28907236D01*
X150728591Y-28910495D01*
X150724595Y-28920140D01*
X150719481Y-28929239D01*
X150718932Y-28933813D01*
X150717168Y-28938072D01*
X150717168Y-28948515D01*
X150715925Y-28958874D01*
X150430073Y-28958874D01*
X150417720Y-28946521D01*
X150411853Y-28941706D01*
X150410529Y-28940180D01*
X150408225Y-28938729D01*
X150406127Y-28937008D01*
X150404264Y-28936236D01*
X150397838Y-28932191D01*
X150302600Y-28884572D01*
X150288594Y-28879213D01*
X150285852Y-28879018D01*
X150283312Y-28877966D01*
X150268388Y-28876496D01*
X150125531Y-28876496D01*
X150110607Y-28877966D01*
X150108066Y-28879018D01*
X150105325Y-28879213D01*
X150091319Y-28884572D01*
X149996081Y-28932191D01*
X149989656Y-28936235D01*
X149987791Y-28937008D01*
X149985691Y-28938731D01*
X149983390Y-28940180D01*
X149982065Y-28941706D01*
X149976199Y-28946522D01*
X149928580Y-28994140D01*
X149923765Y-29000006D01*
X149922239Y-29001331D01*
X149920788Y-29003634D01*
X149919067Y-29005733D01*
X149918295Y-29007595D01*
X149914250Y-29014022D01*
X149866631Y-29109260D01*
X149861272Y-29123266D01*
X149861077Y-29126007D01*
X149860025Y-29128548D01*
X149858555Y-29143472D01*
X149582983Y-29143472D01*
X149582983Y-28952996D01*
X149581513Y-28938072D01*
X149570090Y-28910495D01*
X149548984Y-28889389D01*
X149521407Y-28877966D01*
X149491559Y-28877966D01*
X149463982Y-28889389D01*
X149445145Y-28908225D01*
X149397838Y-28884572D01*
X149383832Y-28879213D01*
X149381090Y-28879018D01*
X149378550Y-28877966D01*
X149363626Y-28876496D01*
X149220769Y-28876496D01*
X149205845Y-28877966D01*
X149203304Y-28879018D01*
X149200563Y-28879213D01*
X149186557Y-28884572D01*
X149091319Y-28932191D01*
X149088821Y-28933763D01*
X149087646Y-28934155D01*
X149086181Y-28935424D01*
X149078628Y-28940180D01*
X149072342Y-28947426D01*
X149065096Y-28953712D01*
X149060340Y-28961265D01*
X149059071Y-28962730D01*
X149058679Y-28963905D01*
X149057107Y-28966403D01*
X149009488Y-29061641D01*
X149004129Y-29075647D01*
X149003934Y-29078388D01*
X149002882Y-29080929D01*
X149001412Y-29095853D01*
X148725840Y-29095853D01*
X148724370Y-29080929D01*
X148723317Y-29078388D01*
X148723123Y-29075647D01*
X148717764Y-29061641D01*
X148670145Y-28966403D01*
X148668572Y-28963905D01*
X148668181Y-28962730D01*
X148666911Y-28961265D01*
X148662156Y-28953712D01*
X148654909Y-28947426D01*
X148648624Y-28940180D01*
X148641070Y-28935424D01*
X148639606Y-28934155D01*
X148638430Y-28933763D01*
X148635933Y-28932191D01*
X148540695Y-28884572D01*
X148526689Y-28879213D01*
X148523947Y-28879018D01*
X148521407Y-28877966D01*
X148506483Y-28876496D01*
X148316007Y-28876496D01*
X148301083Y-28877966D01*
X148298542Y-28879018D01*
X148295801Y-28879213D01*
X148281795Y-28884572D01*
X148186557Y-28932191D01*
X148184059Y-28933763D01*
X148182884Y-28934155D01*
X148181419Y-28935424D01*
X148173866Y-28940180D01*
X148167580Y-28947426D01*
X148160334Y-28953712D01*
X148155578Y-28961265D01*
X148154309Y-28962730D01*
X148153917Y-28963905D01*
X148152345Y-28966403D01*
X148104726Y-29061641D01*
X148099367Y-29075647D01*
X148099172Y-29078388D01*
X148098120Y-29080929D01*
X148096650Y-29095853D01*
X145059173Y-29095853D01*
X145059173Y-28619663D01*
X145057703Y-28604739D01*
X145046280Y-28577162D01*
X145025174Y-28556056D01*
X144997597Y-28544633D01*
X144982673Y-28543163D01*
X144601721Y-28543163D01*
X144586797Y-28544633D01*
X144584256Y-28545685D01*
X144581515Y-28545880D01*
X144567509Y-28551239D01*
X144472271Y-28598858D01*
X144465846Y-28602902D01*
X144463981Y-28603675D01*
X144461881Y-28605398D01*
X144459580Y-28606847D01*
X144458255Y-28608373D01*
X144452389Y-28613189D01*
X144404770Y-28660807D01*
X144399955Y-28666673D01*
X144398429Y-28667998D01*
X144396978Y-28670301D01*
X144395257Y-28672400D01*
X144394485Y-28674262D01*
X144390440Y-28680689D01*
X144342821Y-28775927D01*
X144337462Y-28789933D01*
X144337267Y-28792674D01*
X144336215Y-28795215D01*
X144334745Y-28810139D01*
X141629923Y-28810139D01*
X141599417Y-28794886D01*
X141518311Y-28713780D01*
X141427277Y-28577228D01*
X141427241Y-28577184D01*
X141427232Y-28577162D01*
X141427181Y-28577111D01*
X141417775Y-28565626D01*
X141411480Y-28561410D01*
X141406126Y-28556056D01*
X141399202Y-28553188D01*
X141392974Y-28549017D01*
X141385546Y-28547531D01*
X141378549Y-28544633D01*
X141371055Y-28544633D01*
X141363705Y-28543163D01*
X141356275Y-28544633D01*
X141348701Y-28544633D01*
X141341776Y-28547501D01*
X141334423Y-28548956D01*
X141328119Y-28553158D01*
X141321124Y-28556056D01*
X141315825Y-28561354D01*
X141309588Y-28565513D01*
X141305372Y-28571807D01*
X141300018Y-28577162D01*
X141297150Y-28584085D01*
X141292979Y-28590314D01*
X141291493Y-28597741D01*
X141288595Y-28604739D01*
X141287140Y-28619505D01*
X141287125Y-28619583D01*
X141287130Y-28619609D01*
X141287125Y-28619663D01*
X141287125Y-29543163D01*
X141077911Y-29543163D01*
X141062987Y-29544633D01*
X141035410Y-29556056D01*
X141014304Y-29577162D01*
X141002881Y-29604739D01*
X140764627Y-29604739D01*
X140771987Y-29586969D01*
X140771987Y-29572400D01*
X140771988Y-29557120D01*
X140760565Y-29529543D01*
X140751052Y-29517951D01*
X140703433Y-29470331D01*
X140691841Y-29460817D01*
X140664264Y-29449394D01*
X140664263Y-29449394D01*
X140634415Y-29449394D01*
X140626338Y-29452739D01*
X140606838Y-29460816D01*
X140606837Y-29460817D01*
X140595245Y-29470331D01*
X140547626Y-29517951D01*
X140538112Y-29529543D01*
X140526690Y-29557121D01*
X140194712Y-29557121D01*
X140241573Y-29463398D01*
X140241991Y-29462303D01*
X140242319Y-29461862D01*
X140244553Y-29455607D01*
X140246932Y-29449392D01*
X140246971Y-29448842D01*
X140247365Y-29447740D01*
X140294984Y-29257264D01*
X140295366Y-29254675D01*
X140295798Y-29253634D01*
X140296351Y-29248010D01*
X140297177Y-29242429D01*
X140297011Y-29241315D01*
X140297268Y-29238710D01*
X140297268Y-29000615D01*
X140297011Y-28998009D01*
X140297177Y-28996896D01*
X140296351Y-28991314D01*
X140295798Y-28985691D01*
X140295366Y-28984649D01*
X140294984Y-28982061D01*
X140247365Y-28791585D01*
X140246971Y-28790482D01*
X140246932Y-28789933D01*
X140244553Y-28783717D01*
X140242319Y-28777463D01*
X140241991Y-28777021D01*
X140241573Y-28775927D01*
X140193954Y-28680689D01*
X140189909Y-28674264D01*
X140189137Y-28672399D01*
X140187413Y-28670299D01*
X140185965Y-28667998D01*
X140184438Y-28666673D01*
X140179623Y-28660807D01*
X140132005Y-28613188D01*
X140126138Y-28608373D01*
X140124814Y-28606847D01*
X140122510Y-28605396D01*
X140120412Y-28603675D01*
X140118549Y-28602903D01*
X140112123Y-28598858D01*
X140016885Y-28551239D01*
X140002879Y-28545880D01*
X140000137Y-28545685D01*
X139997597Y-28544633D01*
X139982673Y-28543163D01*
X139887435Y-28543163D01*
X139872511Y-28544633D01*
X139869970Y-28545685D01*
X139867229Y-28545880D01*
X139853223Y-28551239D01*
X139757985Y-28598858D01*
X139751560Y-28602902D01*
X139749695Y-28603675D01*
X139747595Y-28605398D01*
X139745294Y-28606847D01*
X139743969Y-28608373D01*
X139738103Y-28613189D01*
X139690484Y-28660807D01*
X139685669Y-28666673D01*
X139684143Y-28667998D01*
X139682692Y-28670301D01*
X139680971Y-28672400D01*
X139680199Y-28674262D01*
X139676154Y-28680689D01*
X139628535Y-28775927D01*
X139628116Y-28777021D01*
X139627789Y-28777463D01*
X139625554Y-28783717D01*
X139623176Y-28789933D01*
X139623136Y-28790482D01*
X139622743Y-28791585D01*
X139575124Y-28982061D01*
X139574741Y-28984649D01*
X139574310Y-28985691D01*
X139573756Y-28991314D01*
X139572931Y-28996896D01*
X139573096Y-28998009D01*
X139572840Y-29000615D01*
X139461729Y-29000615D01*
X139461729Y-28432052D01*
X156598858Y-28432052D01*
X156598858Y-30140006D01*
G37*
M02*
