%TF.GenerationSoftware,KiCad,Pcbnew,10.0.0*%
%TF.CreationDate,2026-06-04T16:58:12-05:00*%
%TF.ProjectId,sensors_pcb,73656e73-6f72-4735-9f70-63622e6b6963,rev?*%
%TF.SameCoordinates,Original*%
%TF.FileFunction,Soldermask,Top*%
%TF.FilePolarity,Negative*%
%FSLAX46Y46*%
G04 Gerber Fmt 4.6, Leading zero omitted, Abs format (unit mm)*
G04 Created by KiCad (PCBNEW 10.0.0) date 2026-06-04 16:58:12*
%MOMM*%
%LPD*%
G01*
G04 APERTURE LIST*
G04 Aperture macros list*
%AMRoundRect*
0 Rectangle with rounded corners*
0 $1 Rounding radius*
0 $2 $3 $4 $5 $6 $7 $8 $9 X,Y pos of 4 corners*
0 Add a 4 corners polygon primitive as box body*
4,1,4,$2,$3,$4,$5,$6,$7,$8,$9,$2,$3,0*
0 Add four circle primitives for the rounded corners*
1,1,$1+$1,$2,$3*
1,1,$1+$1,$4,$5*
1,1,$1+$1,$6,$7*
1,1,$1+$1,$8,$9*
0 Add four rect primitives between the rounded corners*
20,1,$1+$1,$2,$3,$4,$5,0*
20,1,$1+$1,$4,$5,$6,$7,0*
20,1,$1+$1,$6,$7,$8,$9,0*
20,1,$1+$1,$8,$9,$2,$3,0*%
G04 Aperture macros list end*
%ADD10RoundRect,0.150000X-0.150000X-0.625000X0.150000X-0.625000X0.150000X0.625000X-0.150000X0.625000X0*%
%ADD11RoundRect,0.250000X-0.350000X-0.650000X0.350000X-0.650000X0.350000X0.650000X-0.350000X0.650000X0*%
%ADD12RoundRect,0.150000X0.625000X-0.150000X0.625000X0.150000X-0.625000X0.150000X-0.625000X-0.150000X0*%
%ADD13RoundRect,0.250000X0.650000X-0.350000X0.650000X0.350000X-0.650000X0.350000X-0.650000X-0.350000X0*%
%ADD14RoundRect,0.150000X-0.625000X0.150000X-0.625000X-0.150000X0.625000X-0.150000X0.625000X0.150000X0*%
%ADD15RoundRect,0.250000X-0.650000X0.350000X-0.650000X-0.350000X0.650000X-0.350000X0.650000X0.350000X0*%
%ADD16C,5.600000*%
%ADD17RoundRect,0.250000X-0.250000X-0.475000X0.250000X-0.475000X0.250000X0.475000X-0.250000X0.475000X0*%
%ADD18RoundRect,0.250000X-0.475000X0.250000X-0.475000X-0.250000X0.475000X-0.250000X0.475000X0.250000X0*%
%ADD19R,1.800000X0.800000*%
%ADD20RoundRect,0.243750X-0.456250X0.243750X-0.456250X-0.243750X0.456250X-0.243750X0.456250X0.243750X0*%
%ADD21RoundRect,0.100000X-0.100000X0.175000X-0.100000X-0.175000X0.100000X-0.175000X0.100000X0.175000X0*%
%ADD22RoundRect,0.100000X-0.175000X0.100000X-0.175000X-0.100000X0.175000X-0.100000X0.175000X0.100000X0*%
%ADD23RoundRect,0.250000X0.262500X0.450000X-0.262500X0.450000X-0.262500X-0.450000X0.262500X-0.450000X0*%
%ADD24RoundRect,0.250000X-0.450000X0.262500X-0.450000X-0.262500X0.450000X-0.262500X0.450000X0.262500X0*%
%ADD25RoundRect,0.250000X0.475000X-0.250000X0.475000X0.250000X-0.475000X0.250000X-0.475000X-0.250000X0*%
%ADD26RoundRect,0.218750X-0.381250X0.218750X-0.381250X-0.218750X0.381250X-0.218750X0.381250X0.218750X0*%
%ADD27RoundRect,0.102000X-0.450000X-0.125000X0.450000X-0.125000X0.450000X0.125000X-0.450000X0.125000X0*%
%ADD28RoundRect,0.102000X-0.125000X-0.450000X0.125000X-0.450000X0.125000X0.450000X-0.125000X0.450000X0*%
%ADD29RoundRect,0.102000X-0.550000X-1.125000X0.550000X-1.125000X0.550000X1.125000X-0.550000X1.125000X0*%
%ADD30RoundRect,0.102000X-0.525000X-0.550000X0.525000X-0.550000X0.525000X0.550000X-0.525000X0.550000X0*%
%ADD31R,0.300000X0.350000*%
%ADD32R,0.350000X0.300000*%
G04 APERTURE END LIST*
D10*
%TO.C,J9*%
X147000000Y-55000000D03*
X148000000Y-55000000D03*
X149000000Y-55000000D03*
X150000000Y-55000000D03*
D11*
X145700000Y-58875000D03*
X151300000Y-58875000D03*
%TD*%
D12*
%TO.C,J11*%
X163500000Y-33000000D03*
X163500000Y-32000000D03*
X163500000Y-31000000D03*
D13*
X167375000Y-34300000D03*
X167375000Y-29700000D03*
%TD*%
D14*
%TO.C,J5*%
X133500000Y-43000000D03*
X133500000Y-44000000D03*
X133500000Y-45000000D03*
X133500000Y-46000000D03*
X133500000Y-47000000D03*
X133500000Y-48000000D03*
D15*
X129625000Y-41700000D03*
X129625000Y-49300000D03*
%TD*%
D16*
%TO.C,H6*%
X163500000Y-25000000D03*
%TD*%
D17*
%TO.C,C14*%
X143925000Y-46250000D03*
X145825000Y-46250000D03*
%TD*%
D18*
%TO.C,C13*%
X159000000Y-24800000D03*
X159000000Y-26700000D03*
%TD*%
D19*
%TO.C,U3*%
X155525000Y-32150000D03*
X155525000Y-31050000D03*
X155525000Y-29950000D03*
X155525000Y-28850000D03*
X155525000Y-27750000D03*
X155525000Y-26650000D03*
X155525000Y-25550000D03*
X155525000Y-24450000D03*
X155525000Y-23350000D03*
X145825000Y-23350000D03*
X145825000Y-24450000D03*
X145825000Y-25550000D03*
X145825000Y-26650000D03*
X145825000Y-27750000D03*
X145825000Y-28850000D03*
X145825000Y-29950000D03*
X145825000Y-31050000D03*
X145825000Y-32150000D03*
%TD*%
D18*
%TO.C,C20*%
X151000000Y-39075000D03*
X151000000Y-40975000D03*
%TD*%
D20*
%TO.C,D4*%
X166500000Y-46812500D03*
X166500000Y-48687500D03*
%TD*%
D21*
%TO.C,U5*%
X139005000Y-34125000D03*
X138405000Y-34125000D03*
D22*
X137780000Y-34450000D03*
X137780000Y-35050000D03*
X137780000Y-35650000D03*
D21*
X138405000Y-35975000D03*
X139005000Y-35975000D03*
D22*
X139630000Y-35650000D03*
X139630000Y-35050000D03*
X139630000Y-34450000D03*
%TD*%
D23*
%TO.C,R5*%
X148500000Y-52250000D03*
X146675000Y-52250000D03*
%TD*%
D14*
%TO.C,J7*%
X133500000Y-31700000D03*
X133500000Y-32700000D03*
X133500000Y-33700000D03*
X133500000Y-34700000D03*
X133500000Y-35700000D03*
D15*
X129625000Y-30400000D03*
X129625000Y-37000000D03*
%TD*%
D18*
%TO.C,C18*%
X142000000Y-34050000D03*
X142000000Y-35950000D03*
%TD*%
D24*
%TO.C,R6*%
X163500000Y-46837500D03*
X163500000Y-48662500D03*
%TD*%
D25*
%TO.C,C17*%
X146950000Y-50200000D03*
X146950000Y-48300000D03*
%TD*%
D26*
%TO.C,L1*%
X142500000Y-25937500D03*
X142500000Y-28062500D03*
%TD*%
D25*
%TO.C,C16*%
X141575000Y-48900000D03*
X141575000Y-47000000D03*
%TD*%
D27*
%TO.C,U4*%
X146550000Y-37000000D03*
X146550000Y-37500000D03*
X146550000Y-38000000D03*
X146550000Y-38500000D03*
D28*
X147400000Y-38850000D03*
X147900000Y-38850000D03*
X148400000Y-38850000D03*
D27*
X149250000Y-38500000D03*
X149250000Y-38000000D03*
X149250000Y-37500000D03*
X149250000Y-37000000D03*
D28*
X148400000Y-36650000D03*
X147900000Y-36650000D03*
X147400000Y-36650000D03*
%TD*%
D12*
%TO.C,J3*%
X163375000Y-39200000D03*
X163375000Y-38200000D03*
D13*
X167250000Y-40500000D03*
X167250000Y-36900000D03*
%TD*%
D17*
%TO.C,C15*%
X143925000Y-44000000D03*
X145825000Y-44000000D03*
%TD*%
D29*
%TO.C,J13*%
X140800000Y-21750000D03*
X143750000Y-21750000D03*
D30*
X142275000Y-23300000D03*
%TD*%
D31*
%TO.C,U2*%
X143575000Y-50250000D03*
X144075000Y-50250000D03*
X144575000Y-50250000D03*
X145075000Y-50250000D03*
D32*
X145075000Y-49750000D03*
X145075000Y-49250000D03*
D31*
X145075000Y-48750000D03*
X144575000Y-48750000D03*
X144075000Y-48750000D03*
X143575000Y-48750000D03*
D32*
X143575000Y-49250000D03*
X143575000Y-49750000D03*
%TD*%
D17*
%TO.C,C19*%
X146850000Y-40750000D03*
X148750000Y-40750000D03*
%TD*%
D16*
%TO.C,H8*%
X163500000Y-55000000D03*
%TD*%
%TO.C,H7*%
X133500000Y-55000000D03*
%TD*%
%TO.C,H5*%
X133500000Y-25000000D03*
%TD*%
M02*
