%TF.GenerationSoftware,KiCad,Pcbnew,10.0.0*%
%TF.CreationDate,2026-06-04T16:58:12-05:00*%
%TF.ProjectId,sensors_pcb,73656e73-6f72-4735-9f70-63622e6b6963,rev?*%
%TF.SameCoordinates,Original*%
%TF.FileFunction,Copper,L2,Inr*%
%TF.FilePolarity,Positive*%
%FSLAX46Y46*%
G04 Gerber Fmt 4.6, Leading zero omitted, Abs format (unit mm)*
G04 Created by KiCad (PCBNEW 10.0.0) date 2026-06-04 16:58:12*
%MOMM*%
%LPD*%
G01*
G04 APERTURE LIST*
%TA.AperFunction,ComponentPad*%
%ADD10C,5.600000*%
%TD*%
%TA.AperFunction,ViaPad*%
%ADD11C,0.700000*%
%TD*%
G04 APERTURE END LIST*
D10*
%TO.N,GND_SENS*%
%TO.C,H6*%
X163500000Y-25000000D03*
%TD*%
%TO.N,GND_SENS*%
%TO.C,H8*%
X163500000Y-55000000D03*
%TD*%
%TO.N,GND_SENS*%
%TO.C,H7*%
X133500000Y-55000000D03*
%TD*%
%TO.N,GND_SENS*%
%TO.C,H5*%
X133500000Y-25000000D03*
%TD*%
D11*
%TO.N,/Sensors/IIS2_CS*%
X144750000Y-51000000D03*
X149000000Y-53750000D03*
%TO.N,/Sensors/IIS2_IRQ*%
X145250000Y-48000000D03*
X150000000Y-53750000D03*
%TO.N,/Sensors/GPS_TX*%
X157250000Y-30250000D03*
X161500000Y-33000000D03*
%TO.N,/Sensors/IMU_CS*%
X148500000Y-35500000D03*
X135000000Y-46000000D03*
%TO.N,/Sensors/IMU_INT2*%
X150250000Y-37850000D03*
X135000000Y-48000000D03*
%TO.N,GND_SENS*%
X140750000Y-37000000D03*
X152500000Y-41000000D03*
X157000000Y-37500000D03*
X147250000Y-47000000D03*
X144325000Y-48000000D03*
X156500000Y-33500000D03*
X141575000Y-45750000D03*
X157000000Y-35250000D03*
X161000000Y-35250000D03*
X139500000Y-21750000D03*
X162000000Y-48750000D03*
X145584620Y-38084620D03*
X144250000Y-26000000D03*
X148750000Y-42250000D03*
X146750000Y-22500000D03*
X159000000Y-28000000D03*
X145000000Y-21750000D03*
X148487500Y-48250000D03*
X136750000Y-34450000D03*
%TO.N,+3V3_SENS*%
X146750000Y-42250000D03*
X165000000Y-48750000D03*
X157000000Y-41500000D03*
X143500000Y-33950000D03*
X157000000Y-39500000D03*
X142750000Y-44000000D03*
X141575000Y-50250000D03*
X143325000Y-48000000D03*
X161250000Y-40500000D03*
X159000000Y-23500000D03*
X157250000Y-24750000D03*
X157250000Y-27000000D03*
X152500000Y-39000000D03*
%TD*%
%TA.AperFunction,Conductor*%
%TO.N,GND_SENS*%
G36*
X163502702Y-20200617D02*
G01*
X163912917Y-20218528D01*
X163923654Y-20219468D01*
X164328057Y-20272708D01*
X164338699Y-20274584D01*
X164736924Y-20362868D01*
X164747355Y-20365663D01*
X165136379Y-20488323D01*
X165146514Y-20492012D01*
X165523363Y-20648108D01*
X165533155Y-20652674D01*
X165894965Y-20841020D01*
X165904305Y-20846413D01*
X166189636Y-21028189D01*
X166248309Y-21065568D01*
X166257170Y-21071772D01*
X166580766Y-21320076D01*
X166589053Y-21327030D01*
X166889767Y-21602583D01*
X166897416Y-21610232D01*
X167172969Y-21910946D01*
X167179923Y-21919233D01*
X167428227Y-22242829D01*
X167434431Y-22251690D01*
X167653578Y-22595680D01*
X167658983Y-22605042D01*
X167732515Y-22746295D01*
X167847322Y-22966838D01*
X167851894Y-22976642D01*
X168007981Y-23353470D01*
X168011681Y-23363635D01*
X168134332Y-23752632D01*
X168137132Y-23763082D01*
X168225414Y-24161297D01*
X168227292Y-24171950D01*
X168280529Y-24576326D01*
X168281472Y-24587102D01*
X168299382Y-24997297D01*
X168299500Y-25002706D01*
X168299500Y-54997293D01*
X168299382Y-55002702D01*
X168281472Y-55412897D01*
X168280529Y-55423674D01*
X168227291Y-55828050D01*
X168225413Y-55838702D01*
X168137131Y-56236917D01*
X168134331Y-56247366D01*
X168011681Y-56636363D01*
X168007981Y-56646529D01*
X167851893Y-57023357D01*
X167847321Y-57033161D01*
X167658986Y-57394950D01*
X167653577Y-57404318D01*
X167434430Y-57748308D01*
X167428226Y-57757169D01*
X167179922Y-58080765D01*
X167172968Y-58089052D01*
X166897415Y-58389766D01*
X166889766Y-58397415D01*
X166589052Y-58672968D01*
X166580765Y-58679922D01*
X166257169Y-58928226D01*
X166248308Y-58934430D01*
X165904318Y-59153577D01*
X165894950Y-59158986D01*
X165533161Y-59347321D01*
X165523357Y-59351893D01*
X165146529Y-59507981D01*
X165136363Y-59511681D01*
X164747366Y-59634331D01*
X164736917Y-59637131D01*
X164338702Y-59725413D01*
X164328050Y-59727291D01*
X163923674Y-59780529D01*
X163912897Y-59781472D01*
X163502703Y-59799382D01*
X163497294Y-59799500D01*
X133502706Y-59799500D01*
X133497297Y-59799382D01*
X133087102Y-59781472D01*
X133076326Y-59780529D01*
X132671950Y-59727292D01*
X132661297Y-59725414D01*
X132263082Y-59637132D01*
X132252632Y-59634332D01*
X131863635Y-59511681D01*
X131853470Y-59507981D01*
X131476642Y-59351894D01*
X131466838Y-59347322D01*
X131347126Y-59285004D01*
X131105042Y-59158983D01*
X131095686Y-59153582D01*
X130923685Y-59044004D01*
X130751690Y-58934431D01*
X130742829Y-58928227D01*
X130419233Y-58679923D01*
X130410946Y-58672969D01*
X130110232Y-58397416D01*
X130102583Y-58389767D01*
X129827030Y-58089053D01*
X129820076Y-58080766D01*
X129571772Y-57757170D01*
X129565568Y-57748309D01*
X129512069Y-57664333D01*
X129346413Y-57404305D01*
X129341020Y-57394965D01*
X129152674Y-57033155D01*
X129148105Y-57023357D01*
X128992012Y-56646514D01*
X128988323Y-56636379D01*
X128865663Y-56247355D01*
X128862867Y-56236917D01*
X128774585Y-55838702D01*
X128772708Y-55828057D01*
X128719468Y-55423654D01*
X128718528Y-55412917D01*
X128700618Y-55002702D01*
X128700500Y-54997293D01*
X128700500Y-53666228D01*
X148149500Y-53666228D01*
X148149500Y-53833771D01*
X148182182Y-53998074D01*
X148182184Y-53998082D01*
X148246295Y-54152860D01*
X148339373Y-54292162D01*
X148457837Y-54410626D01*
X148537644Y-54463951D01*
X148597137Y-54503703D01*
X148751918Y-54567816D01*
X148916228Y-54600499D01*
X148916232Y-54600500D01*
X148916233Y-54600500D01*
X149083768Y-54600500D01*
X149083769Y-54600499D01*
X149248082Y-54567816D01*
X149402863Y-54503703D01*
X149431109Y-54484828D01*
X149497786Y-54463951D01*
X149565166Y-54482435D01*
X149568879Y-54484821D01*
X149597137Y-54503703D01*
X149751918Y-54567816D01*
X149916228Y-54600499D01*
X149916232Y-54600500D01*
X149916233Y-54600500D01*
X150083768Y-54600500D01*
X150083769Y-54600499D01*
X150248082Y-54567816D01*
X150402863Y-54503703D01*
X150542162Y-54410626D01*
X150660626Y-54292162D01*
X150753703Y-54152863D01*
X150817816Y-53998082D01*
X150850500Y-53833767D01*
X150850500Y-53666233D01*
X150817816Y-53501918D01*
X150753703Y-53347137D01*
X150722537Y-53300494D01*
X150660626Y-53207837D01*
X150542162Y-53089373D01*
X150402860Y-52996295D01*
X150248082Y-52932184D01*
X150248074Y-52932182D01*
X150083771Y-52899500D01*
X150083767Y-52899500D01*
X149916233Y-52899500D01*
X149916228Y-52899500D01*
X149751925Y-52932182D01*
X149751917Y-52932184D01*
X149597140Y-52996295D01*
X149597127Y-52996302D01*
X149568889Y-53015170D01*
X149502211Y-53036047D01*
X149434832Y-53017561D01*
X149431111Y-53015170D01*
X149402872Y-52996302D01*
X149402859Y-52996295D01*
X149248082Y-52932184D01*
X149248074Y-52932182D01*
X149083771Y-52899500D01*
X149083767Y-52899500D01*
X148916233Y-52899500D01*
X148916228Y-52899500D01*
X148751925Y-52932182D01*
X148751917Y-52932184D01*
X148597139Y-52996295D01*
X148457837Y-53089373D01*
X148339373Y-53207837D01*
X148246295Y-53347139D01*
X148182184Y-53501917D01*
X148182182Y-53501925D01*
X148149500Y-53666228D01*
X128700500Y-53666228D01*
X128700500Y-50166228D01*
X140724500Y-50166228D01*
X140724500Y-50333771D01*
X140757182Y-50498074D01*
X140757184Y-50498082D01*
X140821295Y-50652860D01*
X140914373Y-50792162D01*
X141032837Y-50910626D01*
X141041229Y-50916233D01*
X141172137Y-51003703D01*
X141326918Y-51067816D01*
X141491228Y-51100499D01*
X141491232Y-51100500D01*
X141491233Y-51100500D01*
X141658768Y-51100500D01*
X141658769Y-51100499D01*
X141823082Y-51067816D01*
X141977863Y-51003703D01*
X142108778Y-50916228D01*
X143899500Y-50916228D01*
X143899500Y-51083771D01*
X143932182Y-51248074D01*
X143932184Y-51248082D01*
X143996295Y-51402860D01*
X144089373Y-51542162D01*
X144207837Y-51660626D01*
X144300494Y-51722537D01*
X144347137Y-51753703D01*
X144501918Y-51817816D01*
X144666228Y-51850499D01*
X144666232Y-51850500D01*
X144666233Y-51850500D01*
X144833768Y-51850500D01*
X144833769Y-51850499D01*
X144998082Y-51817816D01*
X145152863Y-51753703D01*
X145292162Y-51660626D01*
X145410626Y-51542162D01*
X145503703Y-51402863D01*
X145567816Y-51248082D01*
X145600500Y-51083767D01*
X145600500Y-50916233D01*
X145567816Y-50751918D01*
X145503703Y-50597137D01*
X145472537Y-50550494D01*
X145410626Y-50457837D01*
X145292162Y-50339373D01*
X145152860Y-50246295D01*
X144998082Y-50182184D01*
X144998074Y-50182182D01*
X144833771Y-50149500D01*
X144833767Y-50149500D01*
X144666233Y-50149500D01*
X144666228Y-50149500D01*
X144501925Y-50182182D01*
X144501917Y-50182184D01*
X144347139Y-50246295D01*
X144207837Y-50339373D01*
X144089373Y-50457837D01*
X143996295Y-50597139D01*
X143932184Y-50751917D01*
X143932182Y-50751925D01*
X143899500Y-50916228D01*
X142108778Y-50916228D01*
X142117162Y-50910626D01*
X142117165Y-50910623D01*
X142205329Y-50822460D01*
X142235623Y-50792165D01*
X142235626Y-50792162D01*
X142328703Y-50652863D01*
X142392816Y-50498082D01*
X142425500Y-50333767D01*
X142425500Y-50166233D01*
X142392816Y-50001918D01*
X142328703Y-49847137D01*
X142297537Y-49800494D01*
X142235626Y-49707837D01*
X142117162Y-49589373D01*
X141977860Y-49496295D01*
X141823082Y-49432184D01*
X141823074Y-49432182D01*
X141658771Y-49399500D01*
X141658767Y-49399500D01*
X141491233Y-49399500D01*
X141491228Y-49399500D01*
X141326925Y-49432182D01*
X141326917Y-49432184D01*
X141172139Y-49496295D01*
X141032837Y-49589373D01*
X140914373Y-49707837D01*
X140821295Y-49847139D01*
X140757184Y-50001917D01*
X140757182Y-50001925D01*
X140724500Y-50166228D01*
X128700500Y-50166228D01*
X128700500Y-47916228D01*
X134149500Y-47916228D01*
X134149500Y-48083771D01*
X134182182Y-48248074D01*
X134182184Y-48248082D01*
X134246295Y-48402860D01*
X134339373Y-48542162D01*
X134457837Y-48660626D01*
X134466229Y-48666233D01*
X134597137Y-48753703D01*
X134751918Y-48817816D01*
X134916228Y-48850499D01*
X134916232Y-48850500D01*
X134916233Y-48850500D01*
X135083768Y-48850500D01*
X135083769Y-48850499D01*
X135248082Y-48817816D01*
X135402863Y-48753703D01*
X135542162Y-48660626D01*
X135660626Y-48542162D01*
X135753703Y-48402863D01*
X135817816Y-48248082D01*
X135850500Y-48083767D01*
X135850500Y-47916233D01*
X135850499Y-47916228D01*
X142474500Y-47916228D01*
X142474500Y-48083771D01*
X142507182Y-48248074D01*
X142507184Y-48248082D01*
X142571295Y-48402860D01*
X142664373Y-48542162D01*
X142782837Y-48660626D01*
X142791229Y-48666233D01*
X142922137Y-48753703D01*
X143076918Y-48817816D01*
X143241228Y-48850499D01*
X143241232Y-48850500D01*
X143241233Y-48850500D01*
X143408768Y-48850500D01*
X143408769Y-48850499D01*
X143573082Y-48817816D01*
X143727863Y-48753703D01*
X143867162Y-48660626D01*
X143985626Y-48542162D01*
X144078703Y-48402863D01*
X144142816Y-48248082D01*
X144165883Y-48132117D01*
X144198267Y-48070206D01*
X144258983Y-48035632D01*
X144328753Y-48039371D01*
X144385425Y-48080237D01*
X144409117Y-48132117D01*
X144432182Y-48248074D01*
X144432184Y-48248082D01*
X144496295Y-48402860D01*
X144589373Y-48542162D01*
X144707837Y-48660626D01*
X144716229Y-48666233D01*
X144847137Y-48753703D01*
X145001918Y-48817816D01*
X145166228Y-48850499D01*
X145166232Y-48850500D01*
X145166233Y-48850500D01*
X145333768Y-48850500D01*
X145333769Y-48850499D01*
X145498082Y-48817816D01*
X145652863Y-48753703D01*
X145783778Y-48666228D01*
X164149500Y-48666228D01*
X164149500Y-48833771D01*
X164182182Y-48998074D01*
X164182184Y-48998082D01*
X164246295Y-49152860D01*
X164339373Y-49292162D01*
X164457837Y-49410626D01*
X164550494Y-49472537D01*
X164597137Y-49503703D01*
X164751918Y-49567816D01*
X164916228Y-49600499D01*
X164916232Y-49600500D01*
X164916233Y-49600500D01*
X165083768Y-49600500D01*
X165083769Y-49600499D01*
X165248082Y-49567816D01*
X165402863Y-49503703D01*
X165542162Y-49410626D01*
X165660626Y-49292162D01*
X165753703Y-49152863D01*
X165817816Y-48998082D01*
X165850500Y-48833767D01*
X165850500Y-48666233D01*
X165817816Y-48501918D01*
X165753703Y-48347137D01*
X165722537Y-48300494D01*
X165660626Y-48207837D01*
X165542162Y-48089373D01*
X165402860Y-47996295D01*
X165248082Y-47932184D01*
X165248074Y-47932182D01*
X165083771Y-47899500D01*
X165083767Y-47899500D01*
X164916233Y-47899500D01*
X164916228Y-47899500D01*
X164751925Y-47932182D01*
X164751917Y-47932184D01*
X164597139Y-47996295D01*
X164457837Y-48089373D01*
X164339373Y-48207837D01*
X164246295Y-48347139D01*
X164182184Y-48501917D01*
X164182182Y-48501925D01*
X164149500Y-48666228D01*
X145783778Y-48666228D01*
X145792162Y-48660626D01*
X145792165Y-48660623D01*
X145880329Y-48572460D01*
X145910623Y-48542165D01*
X145910626Y-48542162D01*
X146003703Y-48402863D01*
X146067816Y-48248082D01*
X146100500Y-48083767D01*
X146100500Y-47916233D01*
X146067816Y-47751918D01*
X146003703Y-47597137D01*
X145972537Y-47550494D01*
X145910626Y-47457837D01*
X145792162Y-47339373D01*
X145652860Y-47246295D01*
X145498082Y-47182184D01*
X145498074Y-47182182D01*
X145333771Y-47149500D01*
X145333767Y-47149500D01*
X145166233Y-47149500D01*
X145166228Y-47149500D01*
X145001925Y-47182182D01*
X145001917Y-47182184D01*
X144847139Y-47246295D01*
X144707837Y-47339373D01*
X144589373Y-47457837D01*
X144496295Y-47597139D01*
X144432184Y-47751917D01*
X144432182Y-47751925D01*
X144409117Y-47867882D01*
X144376732Y-47929793D01*
X144316017Y-47964367D01*
X144246247Y-47960628D01*
X144189575Y-47919762D01*
X144165883Y-47867882D01*
X144142817Y-47751925D01*
X144142816Y-47751918D01*
X144078703Y-47597137D01*
X144047537Y-47550494D01*
X143985626Y-47457837D01*
X143867162Y-47339373D01*
X143727860Y-47246295D01*
X143573082Y-47182184D01*
X143573074Y-47182182D01*
X143408771Y-47149500D01*
X143408767Y-47149500D01*
X143241233Y-47149500D01*
X143241228Y-47149500D01*
X143076925Y-47182182D01*
X143076917Y-47182184D01*
X142922139Y-47246295D01*
X142782837Y-47339373D01*
X142664373Y-47457837D01*
X142571295Y-47597139D01*
X142507184Y-47751917D01*
X142507182Y-47751925D01*
X142474500Y-47916228D01*
X135850499Y-47916228D01*
X135817816Y-47751918D01*
X135753703Y-47597137D01*
X135722537Y-47550494D01*
X135660626Y-47457837D01*
X135542162Y-47339373D01*
X135402860Y-47246295D01*
X135248082Y-47182184D01*
X135248074Y-47182182D01*
X135083771Y-47149500D01*
X135083767Y-47149500D01*
X134916233Y-47149500D01*
X134916228Y-47149500D01*
X134751925Y-47182182D01*
X134751917Y-47182184D01*
X134597139Y-47246295D01*
X134457837Y-47339373D01*
X134339373Y-47457837D01*
X134246295Y-47597139D01*
X134182184Y-47751917D01*
X134182182Y-47751925D01*
X134149500Y-47916228D01*
X128700500Y-47916228D01*
X128700500Y-45916228D01*
X134149500Y-45916228D01*
X134149500Y-46083771D01*
X134182182Y-46248074D01*
X134182184Y-46248082D01*
X134246295Y-46402860D01*
X134339373Y-46542162D01*
X134457837Y-46660626D01*
X134550494Y-46722537D01*
X134597137Y-46753703D01*
X134751918Y-46817816D01*
X134916228Y-46850499D01*
X134916232Y-46850500D01*
X134916233Y-46850500D01*
X135083768Y-46850500D01*
X135083769Y-46850499D01*
X135248082Y-46817816D01*
X135402863Y-46753703D01*
X135542162Y-46660626D01*
X135660626Y-46542162D01*
X135753703Y-46402863D01*
X135817816Y-46248082D01*
X135850500Y-46083767D01*
X135850500Y-45916233D01*
X135817816Y-45751918D01*
X135753703Y-45597137D01*
X135722537Y-45550494D01*
X135660626Y-45457837D01*
X135542162Y-45339373D01*
X135402860Y-45246295D01*
X135248082Y-45182184D01*
X135248074Y-45182182D01*
X135083771Y-45149500D01*
X135083767Y-45149500D01*
X134916233Y-45149500D01*
X134916228Y-45149500D01*
X134751925Y-45182182D01*
X134751917Y-45182184D01*
X134597139Y-45246295D01*
X134457837Y-45339373D01*
X134339373Y-45457837D01*
X134246295Y-45597139D01*
X134182184Y-45751917D01*
X134182182Y-45751925D01*
X134149500Y-45916228D01*
X128700500Y-45916228D01*
X128700500Y-43916228D01*
X141899500Y-43916228D01*
X141899500Y-44083771D01*
X141932182Y-44248074D01*
X141932184Y-44248082D01*
X141996295Y-44402860D01*
X142089373Y-44542162D01*
X142207837Y-44660626D01*
X142300494Y-44722537D01*
X142347137Y-44753703D01*
X142501918Y-44817816D01*
X142666228Y-44850499D01*
X142666232Y-44850500D01*
X142666233Y-44850500D01*
X142833768Y-44850500D01*
X142833769Y-44850499D01*
X142998082Y-44817816D01*
X143152863Y-44753703D01*
X143292162Y-44660626D01*
X143410626Y-44542162D01*
X143503703Y-44402863D01*
X143567816Y-44248082D01*
X143600500Y-44083767D01*
X143600500Y-43916233D01*
X143567816Y-43751918D01*
X143503703Y-43597137D01*
X143472537Y-43550494D01*
X143410626Y-43457837D01*
X143292162Y-43339373D01*
X143152860Y-43246295D01*
X142998082Y-43182184D01*
X142998074Y-43182182D01*
X142833771Y-43149500D01*
X142833767Y-43149500D01*
X142666233Y-43149500D01*
X142666228Y-43149500D01*
X142501925Y-43182182D01*
X142501917Y-43182184D01*
X142347139Y-43246295D01*
X142207837Y-43339373D01*
X142089373Y-43457837D01*
X141996295Y-43597139D01*
X141932184Y-43751917D01*
X141932182Y-43751925D01*
X141899500Y-43916228D01*
X128700500Y-43916228D01*
X128700500Y-42166228D01*
X145899500Y-42166228D01*
X145899500Y-42333771D01*
X145932182Y-42498074D01*
X145932184Y-42498082D01*
X145996295Y-42652860D01*
X146089373Y-42792162D01*
X146207837Y-42910626D01*
X146300494Y-42972537D01*
X146347137Y-43003703D01*
X146501918Y-43067816D01*
X146666228Y-43100499D01*
X146666232Y-43100500D01*
X146666233Y-43100500D01*
X146833768Y-43100500D01*
X146833769Y-43100499D01*
X146998082Y-43067816D01*
X147152863Y-43003703D01*
X147292162Y-42910626D01*
X147410626Y-42792162D01*
X147503703Y-42652863D01*
X147567816Y-42498082D01*
X147600500Y-42333767D01*
X147600500Y-42166233D01*
X147567816Y-42001918D01*
X147503703Y-41847137D01*
X147472537Y-41800494D01*
X147410626Y-41707837D01*
X147292162Y-41589373D01*
X147178224Y-41513243D01*
X147152860Y-41496295D01*
X146998082Y-41432184D01*
X146998074Y-41432182D01*
X146917868Y-41416228D01*
X156149500Y-41416228D01*
X156149500Y-41583771D01*
X156182182Y-41748074D01*
X156182184Y-41748082D01*
X156246295Y-41902860D01*
X156339373Y-42042162D01*
X156457837Y-42160626D01*
X156466229Y-42166233D01*
X156597137Y-42253703D01*
X156751918Y-42317816D01*
X156916228Y-42350499D01*
X156916232Y-42350500D01*
X156916233Y-42350500D01*
X157083768Y-42350500D01*
X157083769Y-42350499D01*
X157248082Y-42317816D01*
X157402863Y-42253703D01*
X157542162Y-42160626D01*
X157660626Y-42042162D01*
X157753703Y-41902863D01*
X157817816Y-41748082D01*
X157850500Y-41583767D01*
X157850500Y-41416233D01*
X157817816Y-41251918D01*
X157753703Y-41097137D01*
X157716970Y-41042162D01*
X157660626Y-40957837D01*
X157542162Y-40839373D01*
X157402860Y-40746295D01*
X157248082Y-40682184D01*
X157248074Y-40682182D01*
X157083771Y-40649500D01*
X157083767Y-40649500D01*
X156916233Y-40649500D01*
X156916228Y-40649500D01*
X156751925Y-40682182D01*
X156751917Y-40682184D01*
X156597139Y-40746295D01*
X156457837Y-40839373D01*
X156339373Y-40957837D01*
X156246295Y-41097139D01*
X156182184Y-41251917D01*
X156182182Y-41251925D01*
X156149500Y-41416228D01*
X146917868Y-41416228D01*
X146833771Y-41399500D01*
X146833767Y-41399500D01*
X146666233Y-41399500D01*
X146666228Y-41399500D01*
X146501925Y-41432182D01*
X146501917Y-41432184D01*
X146347139Y-41496295D01*
X146207837Y-41589373D01*
X146089373Y-41707837D01*
X145996295Y-41847139D01*
X145932184Y-42001917D01*
X145932182Y-42001925D01*
X145899500Y-42166228D01*
X128700500Y-42166228D01*
X128700500Y-40416228D01*
X160399500Y-40416228D01*
X160399500Y-40583771D01*
X160432182Y-40748074D01*
X160432184Y-40748082D01*
X160496295Y-40902860D01*
X160589373Y-41042162D01*
X160707837Y-41160626D01*
X160800494Y-41222537D01*
X160847137Y-41253703D01*
X161001918Y-41317816D01*
X161166228Y-41350499D01*
X161166232Y-41350500D01*
X161166233Y-41350500D01*
X161333768Y-41350500D01*
X161333769Y-41350499D01*
X161498082Y-41317816D01*
X161652863Y-41253703D01*
X161792162Y-41160626D01*
X161910626Y-41042162D01*
X162003703Y-40902863D01*
X162067816Y-40748082D01*
X162100500Y-40583767D01*
X162100500Y-40416233D01*
X162067816Y-40251918D01*
X162003703Y-40097137D01*
X161966970Y-40042162D01*
X161910626Y-39957837D01*
X161792162Y-39839373D01*
X161652860Y-39746295D01*
X161498082Y-39682184D01*
X161498074Y-39682182D01*
X161333771Y-39649500D01*
X161333767Y-39649500D01*
X161166233Y-39649500D01*
X161166228Y-39649500D01*
X161001925Y-39682182D01*
X161001917Y-39682184D01*
X160847139Y-39746295D01*
X160707837Y-39839373D01*
X160589373Y-39957837D01*
X160496295Y-40097139D01*
X160432184Y-40251917D01*
X160432182Y-40251925D01*
X160399500Y-40416228D01*
X128700500Y-40416228D01*
X128700500Y-38916228D01*
X151649500Y-38916228D01*
X151649500Y-39083771D01*
X151682182Y-39248074D01*
X151682184Y-39248082D01*
X151746295Y-39402860D01*
X151839373Y-39542162D01*
X151957837Y-39660626D01*
X152050494Y-39722537D01*
X152097137Y-39753703D01*
X152251918Y-39817816D01*
X152416228Y-39850499D01*
X152416232Y-39850500D01*
X152416233Y-39850500D01*
X152583768Y-39850500D01*
X152583769Y-39850499D01*
X152748082Y-39817816D01*
X152902863Y-39753703D01*
X153042162Y-39660626D01*
X153160626Y-39542162D01*
X153244773Y-39416228D01*
X156149500Y-39416228D01*
X156149500Y-39583771D01*
X156182182Y-39748074D01*
X156182184Y-39748082D01*
X156246295Y-39902860D01*
X156339373Y-40042162D01*
X156457837Y-40160626D01*
X156550494Y-40222537D01*
X156597137Y-40253703D01*
X156751918Y-40317816D01*
X156916228Y-40350499D01*
X156916232Y-40350500D01*
X156916233Y-40350500D01*
X157083768Y-40350500D01*
X157083769Y-40350499D01*
X157248082Y-40317816D01*
X157402863Y-40253703D01*
X157542162Y-40160626D01*
X157660626Y-40042162D01*
X157753703Y-39902863D01*
X157817816Y-39748082D01*
X157850500Y-39583767D01*
X157850500Y-39416233D01*
X157817816Y-39251918D01*
X157753703Y-39097137D01*
X157722537Y-39050494D01*
X157660626Y-38957837D01*
X157542162Y-38839373D01*
X157402860Y-38746295D01*
X157248082Y-38682184D01*
X157248074Y-38682182D01*
X157083771Y-38649500D01*
X157083767Y-38649500D01*
X156916233Y-38649500D01*
X156916228Y-38649500D01*
X156751925Y-38682182D01*
X156751917Y-38682184D01*
X156597139Y-38746295D01*
X156457837Y-38839373D01*
X156339373Y-38957837D01*
X156246295Y-39097139D01*
X156182184Y-39251917D01*
X156182182Y-39251925D01*
X156149500Y-39416228D01*
X153244773Y-39416228D01*
X153253703Y-39402863D01*
X153317816Y-39248082D01*
X153350500Y-39083767D01*
X153350500Y-38916233D01*
X153317816Y-38751918D01*
X153253703Y-38597137D01*
X153195898Y-38510626D01*
X153160626Y-38457837D01*
X153042162Y-38339373D01*
X152902860Y-38246295D01*
X152748082Y-38182184D01*
X152748074Y-38182182D01*
X152583771Y-38149500D01*
X152583767Y-38149500D01*
X152416233Y-38149500D01*
X152416228Y-38149500D01*
X152251925Y-38182182D01*
X152251917Y-38182184D01*
X152097139Y-38246295D01*
X151957837Y-38339373D01*
X151839373Y-38457837D01*
X151746295Y-38597139D01*
X151682184Y-38751917D01*
X151682182Y-38751925D01*
X151649500Y-38916228D01*
X128700500Y-38916228D01*
X128700500Y-37766228D01*
X149399500Y-37766228D01*
X149399500Y-37933771D01*
X149432182Y-38098074D01*
X149432184Y-38098082D01*
X149496295Y-38252860D01*
X149589373Y-38392162D01*
X149707837Y-38510626D01*
X149800494Y-38572537D01*
X149847137Y-38603703D01*
X150001918Y-38667816D01*
X150166228Y-38700499D01*
X150166232Y-38700500D01*
X150166233Y-38700500D01*
X150333768Y-38700500D01*
X150333769Y-38700499D01*
X150498082Y-38667816D01*
X150652863Y-38603703D01*
X150792162Y-38510626D01*
X150910626Y-38392162D01*
X151003703Y-38252863D01*
X151067816Y-38098082D01*
X151100500Y-37933767D01*
X151100500Y-37766233D01*
X151067816Y-37601918D01*
X151003703Y-37447137D01*
X150972537Y-37400494D01*
X150910626Y-37307837D01*
X150792162Y-37189373D01*
X150652860Y-37096295D01*
X150498082Y-37032184D01*
X150498074Y-37032182D01*
X150333771Y-36999500D01*
X150333767Y-36999500D01*
X150166233Y-36999500D01*
X150166228Y-36999500D01*
X150001925Y-37032182D01*
X150001917Y-37032184D01*
X149847139Y-37096295D01*
X149707837Y-37189373D01*
X149589373Y-37307837D01*
X149496295Y-37447139D01*
X149432184Y-37601917D01*
X149432182Y-37601925D01*
X149399500Y-37766228D01*
X128700500Y-37766228D01*
X128700500Y-35416228D01*
X147649500Y-35416228D01*
X147649500Y-35583771D01*
X147682182Y-35748074D01*
X147682184Y-35748082D01*
X147746295Y-35902860D01*
X147839373Y-36042162D01*
X147957837Y-36160626D01*
X148050494Y-36222537D01*
X148097137Y-36253703D01*
X148251918Y-36317816D01*
X148416228Y-36350499D01*
X148416232Y-36350500D01*
X148416233Y-36350500D01*
X148583768Y-36350500D01*
X148583769Y-36350499D01*
X148748082Y-36317816D01*
X148902863Y-36253703D01*
X149042162Y-36160626D01*
X149160626Y-36042162D01*
X149253703Y-35902863D01*
X149317816Y-35748082D01*
X149350500Y-35583767D01*
X149350500Y-35416233D01*
X149317816Y-35251918D01*
X149253703Y-35097137D01*
X149222537Y-35050494D01*
X149160626Y-34957837D01*
X149042162Y-34839373D01*
X148902860Y-34746295D01*
X148748082Y-34682184D01*
X148748074Y-34682182D01*
X148583771Y-34649500D01*
X148583767Y-34649500D01*
X148416233Y-34649500D01*
X148416228Y-34649500D01*
X148251925Y-34682182D01*
X148251917Y-34682184D01*
X148097139Y-34746295D01*
X147957837Y-34839373D01*
X147839373Y-34957837D01*
X147746295Y-35097139D01*
X147682184Y-35251917D01*
X147682182Y-35251925D01*
X147649500Y-35416228D01*
X128700500Y-35416228D01*
X128700500Y-33866228D01*
X142649500Y-33866228D01*
X142649500Y-34033771D01*
X142682182Y-34198074D01*
X142682184Y-34198082D01*
X142746295Y-34352860D01*
X142839373Y-34492162D01*
X142957837Y-34610626D01*
X143050494Y-34672537D01*
X143097137Y-34703703D01*
X143251918Y-34767816D01*
X143416228Y-34800499D01*
X143416232Y-34800500D01*
X143416233Y-34800500D01*
X143583768Y-34800500D01*
X143583769Y-34800499D01*
X143748082Y-34767816D01*
X143902863Y-34703703D01*
X144042162Y-34610626D01*
X144160626Y-34492162D01*
X144253703Y-34352863D01*
X144317816Y-34198082D01*
X144350500Y-34033767D01*
X144350500Y-33866233D01*
X144317816Y-33701918D01*
X144253703Y-33547137D01*
X144222537Y-33500494D01*
X144160626Y-33407837D01*
X144042162Y-33289373D01*
X143902860Y-33196295D01*
X143748082Y-33132184D01*
X143748074Y-33132182D01*
X143583771Y-33099500D01*
X143583767Y-33099500D01*
X143416233Y-33099500D01*
X143416228Y-33099500D01*
X143251925Y-33132182D01*
X143251917Y-33132184D01*
X143097139Y-33196295D01*
X142957837Y-33289373D01*
X142839373Y-33407837D01*
X142746295Y-33547139D01*
X142682184Y-33701917D01*
X142682182Y-33701925D01*
X142649500Y-33866228D01*
X128700500Y-33866228D01*
X128700500Y-32916228D01*
X160649500Y-32916228D01*
X160649500Y-33083771D01*
X160682182Y-33248074D01*
X160682184Y-33248082D01*
X160746295Y-33402860D01*
X160839373Y-33542162D01*
X160957837Y-33660626D01*
X161019646Y-33701925D01*
X161097137Y-33753703D01*
X161251918Y-33817816D01*
X161416228Y-33850499D01*
X161416232Y-33850500D01*
X161416233Y-33850500D01*
X161583768Y-33850500D01*
X161583769Y-33850499D01*
X161748082Y-33817816D01*
X161902863Y-33753703D01*
X162042162Y-33660626D01*
X162160626Y-33542162D01*
X162253703Y-33402863D01*
X162317816Y-33248082D01*
X162350500Y-33083767D01*
X162350500Y-32916233D01*
X162317816Y-32751918D01*
X162253703Y-32597137D01*
X162222537Y-32550494D01*
X162160626Y-32457837D01*
X162042162Y-32339373D01*
X161902860Y-32246295D01*
X161748082Y-32182184D01*
X161748074Y-32182182D01*
X161583771Y-32149500D01*
X161583767Y-32149500D01*
X161416233Y-32149500D01*
X161416228Y-32149500D01*
X161251925Y-32182182D01*
X161251917Y-32182184D01*
X161097139Y-32246295D01*
X160957837Y-32339373D01*
X160839373Y-32457837D01*
X160746295Y-32597139D01*
X160682184Y-32751917D01*
X160682182Y-32751925D01*
X160649500Y-32916228D01*
X128700500Y-32916228D01*
X128700500Y-30166228D01*
X156399500Y-30166228D01*
X156399500Y-30333771D01*
X156432182Y-30498074D01*
X156432184Y-30498082D01*
X156496295Y-30652860D01*
X156589373Y-30792162D01*
X156707837Y-30910626D01*
X156800494Y-30972537D01*
X156847137Y-31003703D01*
X157001918Y-31067816D01*
X157166228Y-31100499D01*
X157166232Y-31100500D01*
X157166233Y-31100500D01*
X157333768Y-31100500D01*
X157333769Y-31100499D01*
X157498082Y-31067816D01*
X157652863Y-31003703D01*
X157792162Y-30910626D01*
X157910626Y-30792162D01*
X158003703Y-30652863D01*
X158067816Y-30498082D01*
X158100500Y-30333767D01*
X158100500Y-30166233D01*
X158067816Y-30001918D01*
X158003703Y-29847137D01*
X157972537Y-29800494D01*
X157910626Y-29707837D01*
X157792162Y-29589373D01*
X157652860Y-29496295D01*
X157498082Y-29432184D01*
X157498074Y-29432182D01*
X157333771Y-29399500D01*
X157333767Y-29399500D01*
X157166233Y-29399500D01*
X157166228Y-29399500D01*
X157001925Y-29432182D01*
X157001917Y-29432184D01*
X156847139Y-29496295D01*
X156707837Y-29589373D01*
X156589373Y-29707837D01*
X156496295Y-29847139D01*
X156432184Y-30001917D01*
X156432182Y-30001925D01*
X156399500Y-30166228D01*
X128700500Y-30166228D01*
X128700500Y-26916228D01*
X156399500Y-26916228D01*
X156399500Y-27083771D01*
X156432182Y-27248074D01*
X156432184Y-27248082D01*
X156496295Y-27402860D01*
X156589373Y-27542162D01*
X156707837Y-27660626D01*
X156800494Y-27722537D01*
X156847137Y-27753703D01*
X157001918Y-27817816D01*
X157166228Y-27850499D01*
X157166232Y-27850500D01*
X157166233Y-27850500D01*
X157333768Y-27850500D01*
X157333769Y-27850499D01*
X157498082Y-27817816D01*
X157652863Y-27753703D01*
X157792162Y-27660626D01*
X157910626Y-27542162D01*
X158003703Y-27402863D01*
X158067816Y-27248082D01*
X158100500Y-27083767D01*
X158100500Y-26916233D01*
X158067816Y-26751918D01*
X158003703Y-26597137D01*
X157972537Y-26550494D01*
X157910626Y-26457837D01*
X157792162Y-26339373D01*
X157652860Y-26246295D01*
X157498082Y-26182184D01*
X157498074Y-26182182D01*
X157333771Y-26149500D01*
X157333767Y-26149500D01*
X157166233Y-26149500D01*
X157166228Y-26149500D01*
X157001925Y-26182182D01*
X157001917Y-26182184D01*
X156847139Y-26246295D01*
X156707837Y-26339373D01*
X156589373Y-26457837D01*
X156496295Y-26597139D01*
X156432184Y-26751917D01*
X156432182Y-26751925D01*
X156399500Y-26916228D01*
X128700500Y-26916228D01*
X128700500Y-25002706D01*
X128700618Y-24997297D01*
X128702241Y-24960118D01*
X128715072Y-24666228D01*
X156399500Y-24666228D01*
X156399500Y-24833771D01*
X156432182Y-24998074D01*
X156432184Y-24998082D01*
X156496295Y-25152860D01*
X156589373Y-25292162D01*
X156707837Y-25410626D01*
X156800494Y-25472537D01*
X156847137Y-25503703D01*
X157001918Y-25567816D01*
X157166228Y-25600499D01*
X157166232Y-25600500D01*
X157166233Y-25600500D01*
X157333768Y-25600500D01*
X157333769Y-25600499D01*
X157498082Y-25567816D01*
X157652863Y-25503703D01*
X157792162Y-25410626D01*
X157910626Y-25292162D01*
X158003703Y-25152863D01*
X158067816Y-24998082D01*
X158100500Y-24833767D01*
X158100500Y-24666233D01*
X158067816Y-24501918D01*
X158003703Y-24347137D01*
X157941272Y-24253703D01*
X157910626Y-24207837D01*
X157792162Y-24089373D01*
X157652860Y-23996295D01*
X157498082Y-23932184D01*
X157498074Y-23932182D01*
X157333771Y-23899500D01*
X157333767Y-23899500D01*
X157166233Y-23899500D01*
X157166228Y-23899500D01*
X157001925Y-23932182D01*
X157001917Y-23932184D01*
X156847139Y-23996295D01*
X156707837Y-24089373D01*
X156589373Y-24207837D01*
X156496295Y-24347139D01*
X156432184Y-24501917D01*
X156432182Y-24501925D01*
X156399500Y-24666228D01*
X128715072Y-24666228D01*
X128718528Y-24587080D01*
X128719468Y-24576347D01*
X128772709Y-24171938D01*
X128774585Y-24161297D01*
X128862870Y-23763068D01*
X128865663Y-23752645D01*
X128971734Y-23416228D01*
X158149500Y-23416228D01*
X158149500Y-23583771D01*
X158182182Y-23748074D01*
X158182184Y-23748082D01*
X158246295Y-23902860D01*
X158339373Y-24042162D01*
X158457837Y-24160626D01*
X158474785Y-24171950D01*
X158597137Y-24253703D01*
X158751918Y-24317816D01*
X158899326Y-24347137D01*
X158916228Y-24350499D01*
X158916232Y-24350500D01*
X158916233Y-24350500D01*
X159083768Y-24350500D01*
X159083769Y-24350499D01*
X159248082Y-24317816D01*
X159402863Y-24253703D01*
X159542162Y-24160626D01*
X159660626Y-24042162D01*
X159753703Y-23902863D01*
X159817816Y-23748082D01*
X159850500Y-23583767D01*
X159850500Y-23416233D01*
X159817816Y-23251918D01*
X159768227Y-23132201D01*
X159753704Y-23097139D01*
X159660626Y-22957837D01*
X159542162Y-22839373D01*
X159402860Y-22746295D01*
X159248082Y-22682184D01*
X159248074Y-22682182D01*
X159083771Y-22649500D01*
X159083767Y-22649500D01*
X158916233Y-22649500D01*
X158916228Y-22649500D01*
X158751925Y-22682182D01*
X158751917Y-22682184D01*
X158597139Y-22746295D01*
X158457837Y-22839373D01*
X158339373Y-22957837D01*
X158246295Y-23097139D01*
X158182184Y-23251917D01*
X158182182Y-23251925D01*
X158149500Y-23416228D01*
X128971734Y-23416228D01*
X128988320Y-23363625D01*
X128992016Y-23353473D01*
X129148111Y-22976627D01*
X129152669Y-22966853D01*
X129341025Y-22605024D01*
X129346407Y-22595703D01*
X129565574Y-22251680D01*
X129571765Y-22242837D01*
X129820083Y-21919224D01*
X129827021Y-21910955D01*
X130102594Y-21610220D01*
X130110220Y-21602594D01*
X130410955Y-21327021D01*
X130419224Y-21320083D01*
X130742837Y-21071765D01*
X130751680Y-21065574D01*
X131095703Y-20846407D01*
X131105024Y-20841025D01*
X131466853Y-20652669D01*
X131476627Y-20648111D01*
X131853482Y-20492012D01*
X131863634Y-20488318D01*
X132252639Y-20365665D01*
X132263068Y-20362870D01*
X132661308Y-20274582D01*
X132671938Y-20272709D01*
X133076347Y-20219468D01*
X133087080Y-20218528D01*
X133497297Y-20200617D01*
X133502706Y-20200500D01*
X133539882Y-20200500D01*
X163460118Y-20200500D01*
X163497294Y-20200500D01*
X163502702Y-20200617D01*
G37*
%TD.AperFunction*%
%TD*%
M02*
