%TF.GenerationSoftware,KiCad,Pcbnew,10.0.0*%
%TF.CreationDate,2026-09-07T00:58:55-05:00*%
%TF.ProjectId,no_fly_zone,6e6f5f66-6c79-45f7-9a6f-6e652e6b6963,rev?*%
%TF.SameCoordinates,Original*%
%TF.FileFunction,Copper,L1,Top*%
%TF.FilePolarity,Positive*%
%FSLAX46Y46*%
G04 Gerber Fmt 4.6, Leading zero omitted, Abs format (unit mm)*
G04 Created by KiCad (PCBNEW 10.0.0) date 2026-09-07 00:58:55*
%MOMM*%
%LPD*%
G01*
G04 APERTURE LIST*
G04 Aperture macros list*
%AMRoundRect*
0 Rectangle with rounded corners*
0 $1 Rounding radius*
0 $2 $3 $4 $5 $6 $7 $8 $9 X,Y pos of 4 corners*
0 Add a 4 corners polygon primitive as box body*
4,1,4,$2,$3,$4,$5,$6,$7,$8,$9,$2,$3,0*
0 Add four circle primitives for the rounded corners*
1,1,$1+$1,$2,$3*
1,1,$1+$1,$4,$5*
1,1,$1+$1,$6,$7*
1,1,$1+$1,$8,$9*
0 Add four rect primitives between the rounded corners*
20,1,$1+$1,$2,$3,$4,$5,0*
20,1,$1+$1,$4,$5,$6,$7,0*
20,1,$1+$1,$6,$7,$8,$9,0*
20,1,$1+$1,$8,$9,$2,$3,0*%
G04 Aperture macros list end*
%TA.AperFunction,SMDPad,CuDef*%
%ADD10RoundRect,0.200000X-0.275000X0.200000X-0.275000X-0.200000X0.275000X-0.200000X0.275000X0.200000X0*%
%TD*%
%TA.AperFunction,SMDPad,CuDef*%
%ADD11RoundRect,0.200000X-0.200000X-0.275000X0.200000X-0.275000X0.200000X0.275000X-0.200000X0.275000X0*%
%TD*%
%TA.AperFunction,SMDPad,CuDef*%
%ADD12R,1.200000X1.400000*%
%TD*%
%TA.AperFunction,SMDPad,CuDef*%
%ADD13R,0.250000X0.900000*%
%TD*%
%TA.AperFunction,SMDPad,CuDef*%
%ADD14R,0.900000X0.250000*%
%TD*%
%TA.AperFunction,SMDPad,CuDef*%
%ADD15R,1.500000X3.500000*%
%TD*%
%TA.AperFunction,SMDPad,CuDef*%
%ADD16R,1.600000X1.400000*%
%TD*%
%TA.AperFunction,SMDPad,CuDef*%
%ADD17RoundRect,0.135000X-0.185000X0.135000X-0.185000X-0.135000X0.185000X-0.135000X0.185000X0.135000X0*%
%TD*%
%TA.AperFunction,SMDPad,CuDef*%
%ADD18RoundRect,0.218750X0.218750X0.256250X-0.218750X0.256250X-0.218750X-0.256250X0.218750X-0.256250X0*%
%TD*%
%TA.AperFunction,SMDPad,CuDef*%
%ADD19RoundRect,0.225000X0.225000X0.250000X-0.225000X0.250000X-0.225000X-0.250000X0.225000X-0.250000X0*%
%TD*%
%TA.AperFunction,SMDPad,CuDef*%
%ADD20RoundRect,0.140000X-0.170000X0.140000X-0.170000X-0.140000X0.170000X-0.140000X0.170000X0.140000X0*%
%TD*%
%TA.AperFunction,SMDPad,CuDef*%
%ADD21RoundRect,0.140000X0.170000X-0.140000X0.170000X0.140000X-0.170000X0.140000X-0.170000X-0.140000X0*%
%TD*%
%TA.AperFunction,SMDPad,CuDef*%
%ADD22RoundRect,0.150000X-0.625000X0.150000X-0.625000X-0.150000X0.625000X-0.150000X0.625000X0.150000X0*%
%TD*%
%TA.AperFunction,SMDPad,CuDef*%
%ADD23RoundRect,0.250000X-0.650000X0.350000X-0.650000X-0.350000X0.650000X-0.350000X0.650000X0.350000X0*%
%TD*%
%TA.AperFunction,SMDPad,CuDef*%
%ADD24R,0.550000X0.250000*%
%TD*%
%TA.AperFunction,ComponentPad*%
%ADD25C,5.600000*%
%TD*%
%TA.AperFunction,SMDPad,CuDef*%
%ADD26RoundRect,0.140000X-0.140000X-0.170000X0.140000X-0.170000X0.140000X0.170000X-0.140000X0.170000X0*%
%TD*%
%TA.AperFunction,SMDPad,CuDef*%
%ADD27RoundRect,0.225000X0.250000X-0.225000X0.250000X0.225000X-0.250000X0.225000X-0.250000X-0.225000X0*%
%TD*%
%TA.AperFunction,SMDPad,CuDef*%
%ADD28R,2.400000X1.900000*%
%TD*%
%TA.AperFunction,SMDPad,CuDef*%
%ADD29RoundRect,0.100000X0.100000X-0.125000X0.100000X0.125000X-0.100000X0.125000X-0.100000X-0.125000X0*%
%TD*%
%TA.AperFunction,SMDPad,CuDef*%
%ADD30RoundRect,0.135000X0.135000X0.185000X-0.135000X0.185000X-0.135000X-0.185000X0.135000X-0.185000X0*%
%TD*%
%TA.AperFunction,SMDPad,CuDef*%
%ADD31RoundRect,0.140000X0.140000X0.170000X-0.140000X0.170000X-0.140000X-0.170000X0.140000X-0.170000X0*%
%TD*%
%TA.AperFunction,SMDPad,CuDef*%
%ADD32RoundRect,0.062500X0.062500X-0.350000X0.062500X0.350000X-0.062500X0.350000X-0.062500X-0.350000X0*%
%TD*%
%TA.AperFunction,SMDPad,CuDef*%
%ADD33RoundRect,0.062500X0.350000X-0.062500X0.350000X0.062500X-0.350000X0.062500X-0.350000X-0.062500X0*%
%TD*%
%TA.AperFunction,HeatsinkPad*%
%ADD34R,2.500000X2.500000*%
%TD*%
%TA.AperFunction,SMDPad,CuDef*%
%ADD35RoundRect,0.225000X-0.225000X-0.250000X0.225000X-0.250000X0.225000X0.250000X-0.225000X0.250000X0*%
%TD*%
%TA.AperFunction,SMDPad,CuDef*%
%ADD36RoundRect,0.250000X0.650000X-1.000000X0.650000X1.000000X-0.650000X1.000000X-0.650000X-1.000000X0*%
%TD*%
%TA.AperFunction,SMDPad,CuDef*%
%ADD37RoundRect,0.100000X-0.100000X0.175000X-0.100000X-0.175000X0.100000X-0.175000X0.100000X0.175000X0*%
%TD*%
%TA.AperFunction,SMDPad,CuDef*%
%ADD38RoundRect,0.100000X-0.175000X0.100000X-0.175000X-0.100000X0.175000X-0.100000X0.175000X0.100000X0*%
%TD*%
%TA.AperFunction,SMDPad,CuDef*%
%ADD39RoundRect,0.225000X-0.250000X0.225000X-0.250000X-0.225000X0.250000X-0.225000X0.250000X0.225000X0*%
%TD*%
%TA.AperFunction,SMDPad,CuDef*%
%ADD40R,0.500000X2.300000*%
%TD*%
%TA.AperFunction,SMDPad,CuDef*%
%ADD41R,2.000000X2.500000*%
%TD*%
%TA.AperFunction,SMDPad,CuDef*%
%ADD42R,0.740000X2.790000*%
%TD*%
%TA.AperFunction,SMDPad,CuDef*%
%ADD43RoundRect,0.075000X-0.700000X-0.075000X0.700000X-0.075000X0.700000X0.075000X-0.700000X0.075000X0*%
%TD*%
%TA.AperFunction,SMDPad,CuDef*%
%ADD44RoundRect,0.075000X-0.075000X-0.700000X0.075000X-0.700000X0.075000X0.700000X-0.075000X0.700000X0*%
%TD*%
%TA.AperFunction,ViaPad*%
%ADD45C,0.600000*%
%TD*%
%TA.AperFunction,ViaPad*%
%ADD46C,0.700000*%
%TD*%
%TA.AperFunction,Conductor*%
%ADD47C,0.500000*%
%TD*%
%TA.AperFunction,Conductor*%
%ADD48C,0.300000*%
%TD*%
%TA.AperFunction,Conductor*%
%ADD49C,0.250000*%
%TD*%
%TA.AperFunction,Conductor*%
%ADD50C,0.355000*%
%TD*%
%TA.AperFunction,Conductor*%
%ADD51C,0.345000*%
%TD*%
G04 APERTURE END LIST*
D10*
%TO.P,R2,1*%
%TO.N,GND*%
X149500000Y-96287499D03*
%TO.P,R2,2*%
%TO.N,/MCU/BOOT0*%
X149500000Y-97937499D03*
%TD*%
D11*
%TO.P,R1,1*%
%TO.N,/CURR_SENSE*%
X143875000Y-111800000D03*
%TO.P,R1,2*%
%TO.N,/MCU/ADC_IN7*%
X145525000Y-111800000D03*
%TD*%
D12*
%TO.P,Y2,1,1_1*%
%TO.N,Net-(U7-XC2)*%
X162600000Y-92700000D03*
%TO.P,Y2,2,G_2*%
%TO.N,GND*%
X162600000Y-90500000D03*
%TO.P,Y2,3,3_3*%
%TO.N,Net-(U7-XC1)*%
X161000000Y-90500000D03*
%TO.P,Y2,4,G_4*%
%TO.N,GND*%
X161000000Y-92700000D03*
%TD*%
D13*
%TO.P,U2,1,SDO/SA0_1*%
%TO.N,/MCU/SPI2_MISO*%
X165550000Y-100575000D03*
%TO.P,U2,2,SDX_2*%
%TO.N,GND*%
X166050000Y-100575000D03*
%TO.P,U2,3,SCX_3*%
X166550000Y-100575000D03*
%TO.P,U2,4,INT1_4*%
%TO.N,/MCU/IMU_IRQ1*%
X167050000Y-100575000D03*
D14*
%TO.P,U2,5,VDDIO_5*%
%TO.N,+3V3*%
X167400000Y-99725000D03*
%TO.P,U2,6,GND_6*%
%TO.N,GND*%
X167400000Y-99225000D03*
%TO.P,U2,7,GND_7*%
X167400000Y-98725000D03*
D13*
%TO.P,U2,8,VDD_8*%
%TO.N,+3V3*%
X167050000Y-97875000D03*
%TO.P,U2,9,INT2_9*%
%TO.N,/MCU/IMU_IRQ2*%
X166550000Y-97875000D03*
%TO.P,U2,10,NC_10*%
%TO.N,unconnected-(U2-NC-Pad10)*%
X166050000Y-97875000D03*
%TO.P,U2,11,NC_11*%
%TO.N,unconnected-(U2-NC-Pad11)*%
X165550000Y-97875000D03*
D14*
%TO.P,U2,12,CS_12*%
%TO.N,/MCU/SPI2_NSS_2*%
X165200000Y-98725000D03*
%TO.P,U2,13,SCL_13*%
%TO.N,/MCU/SPI2_SCK*%
X165200000Y-99225000D03*
%TO.P,U2,14,SDA_14*%
%TO.N,/MCU/SPI2_MOSI*%
X165200000Y-99725000D03*
%TD*%
D15*
%TO.P,J4,1*%
%TO.N,Net-(FL1-UNBALPRT)*%
X155600000Y-84300000D03*
%TO.P,J4,G1*%
%TO.N,GND*%
X158300000Y-84300000D03*
%TO.P,J4,G2*%
X152900000Y-84300000D03*
%TD*%
D16*
%TO.P,SW1,1,1_1*%
%TO.N,GND*%
X173100000Y-112000000D03*
X165900000Y-112000000D03*
%TO.P,SW1,2,2_2*%
%TO.N,/MCU/NRST*%
X173100000Y-109000000D03*
X165900000Y-109000000D03*
%TD*%
D17*
%TO.P,R12,1*%
%TO.N,Net-(U7-XC1)*%
X159337500Y-90990000D03*
%TO.P,R12,2*%
%TO.N,Net-(U7-XC2)*%
X159337500Y-92010000D03*
%TD*%
D18*
%TO.P,D5,1,K_1*%
%TO.N,Net-(D5-K)*%
X173887501Y-92000000D03*
%TO.P,D5,2,A_2*%
%TO.N,+3V3*%
X172312499Y-92000000D03*
%TD*%
%TO.P,D3,1,K_1*%
%TO.N,GND*%
X173887501Y-101450000D03*
%TO.P,D3,2,A_2*%
%TO.N,Net-(D3-A)*%
X172312499Y-101450000D03*
%TD*%
D19*
%TO.P,C11,1*%
%TO.N,/MCU/HSE_OUT*%
X146800000Y-105700000D03*
%TO.P,C11,2*%
%TO.N,GND*%
X145250000Y-105700000D03*
%TD*%
D20*
%TO.P,C24,1*%
%TO.N,Net-(U7-DVDD)*%
X152300000Y-93740000D03*
%TO.P,C24,2*%
%TO.N,GND*%
X152300000Y-94700000D03*
%TD*%
D21*
%TO.P,C22,1*%
%TO.N,+3V3*%
X152300000Y-92560000D03*
%TO.P,C22,2*%
%TO.N,GND*%
X152300000Y-91600000D03*
%TD*%
D22*
%TO.P,J1,1,Pin_1_1*%
%TO.N,GND*%
X141300000Y-104700000D03*
%TO.P,J1,2,Pin_2_2*%
%TO.N,+VBAT*%
X141300000Y-105700000D03*
%TO.P,J1,3,Pin_3_3*%
%TO.N,/ESC1*%
X141300000Y-106700000D03*
%TO.P,J1,4,Pin_4_4*%
%TO.N,/ESC2*%
X141300000Y-107700000D03*
%TO.P,J1,5,Pin_5_5*%
%TO.N,/ESC3*%
X141300000Y-108700000D03*
%TO.P,J1,6,Pin_6_6*%
%TO.N,/ESC4*%
X141300000Y-109700000D03*
%TO.P,J1,7,Pin_7_7*%
%TO.N,/NC*%
X141300000Y-110700000D03*
%TO.P,J1,8,Pin_8_8*%
%TO.N,/CURR_SENSE*%
X141300000Y-111700000D03*
D23*
%TO.P,J1,MP*%
%TO.N,N/C*%
X137425000Y-103400000D03*
X137425000Y-113000000D03*
%TD*%
D24*
%TO.P,FL1,1,UNBALPRT_1*%
%TO.N,Net-(FL1-UNBALPRT)*%
X155550000Y-87700000D03*
%TO.P,FL1,2,GND_2*%
%TO.N,GND*%
X155550000Y-88200000D03*
%TO.P,FL1,3,BALPRT1_3*%
%TO.N,Net-(FL1-BALPRT1)*%
X155550000Y-88700000D03*
%TO.P,FL1,4,BALPRT2_4*%
%TO.N,Net-(FL1-BALPRT2)*%
X156400000Y-88700000D03*
%TO.P,FL1,5,DCFEED+RFGND/GND_5*%
%TO.N,Net-(FL1-DCFEED+RFGND{slash}GND)*%
X156400000Y-88200000D03*
%TO.P,FL1,6*%
%TO.N,N/C*%
X156400000Y-87700000D03*
%TD*%
D25*
%TO.P,H2,1,1_1*%
%TO.N,GND*%
X171300000Y-87300000D03*
%TD*%
D26*
%TO.P,C26,1*%
%TO.N,Net-(U7-XC1)*%
X160977500Y-88860000D03*
%TO.P,C26,2*%
%TO.N,GND*%
X161937500Y-88860000D03*
%TD*%
D18*
%TO.P,D2,1,K_1*%
%TO.N,GND*%
X173887501Y-98250000D03*
%TO.P,D2,2,A_2*%
%TO.N,Net-(D2-A)*%
X172312499Y-98250000D03*
%TD*%
D25*
%TO.P,H3,1,1_1*%
%TO.N,GND*%
X141300000Y-117300000D03*
%TD*%
%TO.P,H4,1,1_1*%
%TO.N,GND*%
X171300000Y-117300000D03*
%TD*%
D27*
%TO.P,C14,1*%
%TO.N,+3V3*%
X169300000Y-99700000D03*
%TO.P,C14,2*%
%TO.N,GND*%
X169300000Y-98150000D03*
%TD*%
D28*
%TO.P,Y1,1,1_1*%
%TO.N,/MCU/HSE_IN*%
X145700000Y-99500000D03*
%TO.P,Y1,2,2_2*%
%TO.N,/MCU/HSE_OUT*%
X145700000Y-103600000D03*
%TD*%
D29*
%TO.P,U6,1*%
%TO.N,/MCU/OTG_FS_D-*%
X160600000Y-112049999D03*
%TO.P,U6,2*%
%TO.N,/MCU/OTG_FS_D+*%
X161400000Y-112049999D03*
%TO.P,U6,3*%
%TO.N,GND*%
X161000000Y-110900000D03*
%TD*%
D30*
%TO.P,R11,1*%
%TO.N,Net-(U7-IREF)*%
X152820000Y-90300000D03*
%TO.P,R11,2*%
%TO.N,GND*%
X151800000Y-90300000D03*
%TD*%
D26*
%TO.P,C23,1*%
%TO.N,Net-(FL1-DCFEED+RFGND{slash}GND)*%
X157740000Y-88200000D03*
%TO.P,C23,2*%
%TO.N,GND*%
X158700000Y-88200000D03*
%TD*%
D31*
%TO.P,C25,1*%
%TO.N,Net-(U7-XC2)*%
X162580000Y-94300000D03*
%TO.P,C25,2*%
%TO.N,GND*%
X161620000Y-94300000D03*
%TD*%
D32*
%TO.P,U7,1,CE_1*%
%TO.N,/MCU/RF_CE*%
X154762500Y-94237500D03*
%TO.P,U7,2,CSN_2*%
%TO.N,/MCU/SPI3_NSS*%
X155262500Y-94237500D03*
%TO.P,U7,3,SCK_3*%
%TO.N,/MCU/SPI3_SCK*%
X155762500Y-94237500D03*
%TO.P,U7,4,MOSI_4*%
%TO.N,/MCU/SPI3_MOSI*%
X156262500Y-94237500D03*
%TO.P,U7,5,MISO_5*%
%TO.N,/MCU/SPI3_MISO*%
X156762500Y-94237500D03*
D33*
%TO.P,U7,6,IRQ_6*%
%TO.N,/MCU/RF_IRQ*%
X157700000Y-93300000D03*
%TO.P,U7,7,VDD_7*%
%TO.N,+3V3*%
X157700000Y-92800000D03*
%TO.P,U7,8,VSS_8*%
%TO.N,GND*%
X157700000Y-92300000D03*
%TO.P,U7,9,XC2_9*%
%TO.N,Net-(U7-XC2)*%
X157700000Y-91800000D03*
%TO.P,U7,10,XC1_10*%
%TO.N,Net-(U7-XC1)*%
X157700000Y-91300000D03*
D32*
%TO.P,U7,11,VDD_PA_11*%
%TO.N,Net-(FL1-DCFEED+RFGND{slash}GND)*%
X156762500Y-90362500D03*
%TO.P,U7,12,ANT1_12*%
%TO.N,Net-(FL1-BALPRT2)*%
X156262500Y-90362500D03*
%TO.P,U7,13,ANT2_13*%
%TO.N,Net-(FL1-BALPRT1)*%
X155762500Y-90362500D03*
%TO.P,U7,14,VSS_14*%
%TO.N,GND*%
X155262500Y-90362500D03*
%TO.P,U7,15,VDD_15*%
%TO.N,+3V3*%
X154762500Y-90362500D03*
D33*
%TO.P,U7,16,IREF_16*%
%TO.N,Net-(U7-IREF)*%
X153825000Y-91300000D03*
%TO.P,U7,17,VSS_17*%
%TO.N,GND*%
X153825000Y-91800000D03*
%TO.P,U7,18,VDD_18*%
%TO.N,+3V3*%
X153825000Y-92300000D03*
%TO.P,U7,19,DVDD_19*%
%TO.N,Net-(U7-DVDD)*%
X153825000Y-92800000D03*
%TO.P,U7,20,VSS_20*%
%TO.N,GND*%
X153825000Y-93300000D03*
D34*
%TO.P,U7,21*%
%TO.N,N/C*%
X155762500Y-92300000D03*
%TD*%
D35*
%TO.P,C13,1*%
%TO.N,+3V3*%
X167500000Y-96000000D03*
%TO.P,C13,2*%
%TO.N,GND*%
X169050000Y-96000000D03*
%TD*%
D36*
%TO.P,D4,1,A1_1*%
%TO.N,+VBAT*%
X140600000Y-100300001D03*
%TO.P,D4,2,A2_2*%
%TO.N,GND*%
X140600000Y-96299999D03*
%TD*%
D37*
%TO.P,U3,1,Vdd_IO_1*%
%TO.N,+3V3*%
X166600000Y-104075000D03*
%TO.P,U3,2,SCL_2*%
%TO.N,/MCU/SPI2_SCK*%
X166000000Y-104075000D03*
D38*
%TO.P,U3,3,GND_3*%
%TO.N,GND*%
X165375000Y-104400000D03*
%TO.P,U3,4,SDA_4*%
%TO.N,/MCU/SPI2_MOSI*%
X165375000Y-105000000D03*
%TO.P,U3,5,SA0_5*%
%TO.N,/MCU/SPI2_MISO*%
X165375000Y-105600000D03*
D37*
%TO.P,U3,6,~{CS}_6*%
%TO.N,/MCU/SPI2_NSS_1*%
X166000000Y-105925000D03*
%TO.P,U3,7,INT_DRDY_7*%
%TO.N,/MCU/BAR_IRQ*%
X166600000Y-105925000D03*
D38*
%TO.P,U3,8,GND_8*%
%TO.N,GND*%
X167225000Y-105600000D03*
%TO.P,U3,9,GND_9*%
X167225000Y-105000000D03*
%TO.P,U3,10,VDD_10*%
%TO.N,+3V3*%
X167225000Y-104400000D03*
%TD*%
D39*
%TO.P,C15,1*%
%TO.N,+3V3*%
X169000000Y-104225000D03*
%TO.P,C15,2*%
%TO.N,GND*%
X169000000Y-105775000D03*
%TD*%
D18*
%TO.P,D1,1,K_1*%
%TO.N,GND*%
X173900000Y-95100000D03*
%TO.P,D1,2,A_2*%
%TO.N,Net-(D1-A)*%
X172324998Y-95100000D03*
%TD*%
D40*
%TO.P,J3,1,VBUS_1*%
%TO.N,+VBUS*%
X159800000Y-114900000D03*
%TO.P,J3,2,D-_2*%
%TO.N,/MCU/OTG_FS_D-*%
X160600000Y-114900000D03*
%TO.P,J3,3,D+_3*%
%TO.N,/MCU/OTG_FS_D+*%
X161400000Y-114900000D03*
%TO.P,J3,4,ID_4*%
%TO.N,unconnected-(J3-ID-Pad4)*%
X162200000Y-114900000D03*
%TO.P,J3,5,GND_5*%
%TO.N,GND*%
X163000000Y-114900000D03*
D41*
%TO.P,J3,SH,Shield_SH*%
%TO.N,unconnected-(J3-Shield-PadSH)_3*%
X156950000Y-115000000D03*
%TO.N,unconnected-(J3-Shield-PadSH)*%
X156950000Y-120500000D03*
%TO.N,unconnected-(J3-Shield-PadSH)_1*%
X165850000Y-115000000D03*
%TO.N,unconnected-(J3-Shield-PadSH)_2*%
X165850000Y-120500000D03*
%TD*%
D21*
%TO.P,C21,1*%
%TO.N,+3V3*%
X151100000Y-92560000D03*
%TO.P,C21,2*%
%TO.N,GND*%
X151100000Y-91600000D03*
%TD*%
D19*
%TO.P,C10,1*%
%TO.N,/MCU/HSE_IN*%
X146800000Y-97400000D03*
%TO.P,C10,2*%
%TO.N,GND*%
X145250000Y-97400000D03*
%TD*%
D42*
%TO.P,J2,1,NC_1*%
%TO.N,unconnected-(J2-NC-Pad1)*%
X153600000Y-115165000D03*
%TO.P,J2,2,NC_2*%
%TO.N,unconnected-(J2-NC-Pad2)*%
X153600000Y-119235000D03*
%TO.P,J2,3,VCC_3*%
%TO.N,+3V3*%
X152330000Y-115165000D03*
%TO.P,J2,4,JTMS/SWDIO_4*%
%TO.N,/MCU/SWDIO*%
X152330000Y-119235000D03*
%TO.P,J2,5,GND_5*%
%TO.N,GND*%
X151060000Y-115165000D03*
%TO.P,J2,6,JCLK/SWCLK_6*%
%TO.N,/MCU/SWCLK*%
X151060000Y-119235000D03*
%TO.P,J2,7,GND_7*%
%TO.N,GND*%
X149790000Y-115165000D03*
%TO.P,J2,8,JTDO/SWO_8*%
%TO.N,/MCU/SWO*%
X149790000Y-119235000D03*
%TO.P,J2,9,JRCLK/NC_9*%
%TO.N,unconnected-(J2-JRCLK{slash}NC-Pad9)*%
X148520000Y-115165000D03*
%TO.P,J2,10,JTDI/NC_10*%
%TO.N,unconnected-(J2-JTDI{slash}NC-Pad10)*%
X148520000Y-119235000D03*
%TO.P,J2,11,GNDDetect_11*%
%TO.N,GND*%
X147250000Y-115165000D03*
%TO.P,J2,12,~{RST}_12*%
%TO.N,/MCU/NRST*%
X147250000Y-119235000D03*
%TO.P,J2,13,VCP_RX_13*%
%TO.N,/MCU/UART3_RX*%
X145980000Y-115165000D03*
%TO.P,J2,14,VCP_TX_14*%
%TO.N,/MCU/UART3_TX*%
X145980000Y-119235000D03*
%TD*%
D25*
%TO.P,H1,1,1_1*%
%TO.N,GND*%
X141300000Y-87300000D03*
%TD*%
D43*
%TO.P,U1,1,VBAT_1*%
%TO.N,+3V3*%
X149175000Y-100425001D03*
%TO.P,U1,2,PC13_2*%
%TO.N,unconnected-(U1-PC13-Pad2)*%
X149175000Y-100925000D03*
%TO.P,U1,3,PC14_3*%
%TO.N,unconnected-(U1-PC14-Pad3)*%
X149175000Y-101425000D03*
%TO.P,U1,4,PC15_4*%
%TO.N,unconnected-(U1-PC15-Pad4)*%
X149175000Y-101925000D03*
%TO.P,U1,5,PH0_5*%
%TO.N,/MCU/HSE_IN*%
X149175000Y-102425000D03*
%TO.P,U1,6,PH1_6*%
%TO.N,/MCU/HSE_OUT*%
X149175000Y-102925001D03*
%TO.P,U1,7,NRST_7*%
%TO.N,/MCU/NRST*%
X149175000Y-103425000D03*
%TO.P,U1,8,PC0_8*%
%TO.N,unconnected-(U1-PC0-Pad8)*%
X149175000Y-103925000D03*
%TO.P,U1,9,PC1_9*%
%TO.N,unconnected-(U1-PC1-Pad9)*%
X149175000Y-104425000D03*
%TO.P,U1,10,PC2_10*%
%TO.N,unconnected-(U1-PC2-Pad10)*%
X149175000Y-104925000D03*
%TO.P,U1,11,PC3_11*%
%TO.N,unconnected-(U1-PC3-Pad11)*%
X149175000Y-105424999D03*
%TO.P,U1,12,VSSA_12*%
%TO.N,GND*%
X149175000Y-105925000D03*
%TO.P,U1,13,VDDA_13*%
%TO.N,+3V3*%
X149175000Y-106425000D03*
%TO.P,U1,14,PA0_14*%
%TO.N,/ESC1*%
X149175000Y-106925000D03*
%TO.P,U1,15,PA1_15*%
%TO.N,/ESC2*%
X149175000Y-107425000D03*
%TO.P,U1,16,PA2_16*%
%TO.N,/ESC3*%
X149175000Y-107924999D03*
D44*
%TO.P,U1,17,PA3_17*%
%TO.N,/ESC4*%
X151100001Y-109850000D03*
%TO.P,U1,18,VSS_18*%
%TO.N,GND*%
X151600000Y-109850000D03*
%TO.P,U1,19,VDD_19*%
%TO.N,+3V3*%
X152100000Y-109850000D03*
%TO.P,U1,20,PA4_20*%
%TO.N,unconnected-(U1-PA4-Pad20)*%
X152600000Y-109850000D03*
%TO.P,U1,21,PA5_21*%
%TO.N,unconnected-(U1-PA5-Pad21)*%
X153100000Y-109850000D03*
%TO.P,U1,22,PA6_22*%
%TO.N,/MCU/ADC_IN6*%
X153600001Y-109850000D03*
%TO.P,U1,23,PA7_23*%
%TO.N,/MCU/ADC_IN7*%
X154100000Y-109850000D03*
%TO.P,U1,24,PC4_24*%
%TO.N,unconnected-(U1-PC4-Pad24)*%
X154600000Y-109850000D03*
%TO.P,U1,25,PC5_25*%
%TO.N,/MCU/UART3_RX*%
X155100000Y-109850000D03*
%TO.P,U1,26,PB0_26*%
%TO.N,unconnected-(U1-PB0-Pad26)*%
X155600000Y-109850000D03*
%TO.P,U1,27,PB1_27*%
%TO.N,unconnected-(U1-PB1-Pad27)*%
X156099999Y-109850000D03*
%TO.P,U1,28,PB2_28*%
%TO.N,unconnected-(U1-PB2-Pad28)*%
X156600000Y-109850000D03*
%TO.P,U1,29,PB10_29*%
%TO.N,/MCU/UART3_TX*%
X157100000Y-109850000D03*
%TO.P,U1,30,VCAP_1_30*%
%TO.N,/MCU/VCAP*%
X157600000Y-109850000D03*
%TO.P,U1,31,VSS_31*%
%TO.N,GND*%
X158100000Y-109850000D03*
%TO.P,U1,32,VDD_32*%
%TO.N,+3V3*%
X158599999Y-109850000D03*
D43*
%TO.P,U1,33,PB12_33*%
%TO.N,/MCU/SPI2_NSS_1*%
X160525000Y-107924999D03*
%TO.P,U1,34,PB13_34*%
%TO.N,/MCU/SPI2_SCK*%
X160525000Y-107425000D03*
%TO.P,U1,35,PB14_35*%
%TO.N,/MCU/SPI2_MISO*%
X160525000Y-106925000D03*
%TO.P,U1,36,PB15_36*%
%TO.N,/MCU/SPI2_MOSI*%
X160525000Y-106425000D03*
%TO.P,U1,37,PC6_37*%
%TO.N,/MCU/SPI2_NSS_2*%
X160525000Y-105925000D03*
%TO.P,U1,38,PC7_38*%
%TO.N,/MCU/BAR_IRQ*%
X160525000Y-105424999D03*
%TO.P,U1,39,PC8_39*%
%TO.N,unconnected-(U1-PC8-Pad39)*%
X160525000Y-104925000D03*
%TO.P,U1,40,PC9_40*%
%TO.N,unconnected-(U1-PC9-Pad40)*%
X160525000Y-104425000D03*
%TO.P,U1,41,PA8_41*%
%TO.N,/MCU/IMU_IRQ1*%
X160525000Y-103925000D03*
%TO.P,U1,42,PA9_42*%
%TO.N,/MCU/IMU_IRQ2*%
X160525000Y-103425000D03*
%TO.P,U1,43,PA10_43*%
%TO.N,unconnected-(U1-PA10-Pad43)*%
X160525000Y-102925001D03*
%TO.P,U1,44,PA11_44*%
%TO.N,/MCU/OTG_FS_D-*%
X160525000Y-102425000D03*
%TO.P,U1,45,PA12_45*%
%TO.N,/MCU/OTG_FS_D+*%
X160525000Y-101925000D03*
%TO.P,U1,46,PA13_46*%
%TO.N,/MCU/SWDIO*%
X160525000Y-101425000D03*
%TO.P,U1,47,VSS_47*%
%TO.N,GND*%
X160525000Y-100925000D03*
%TO.P,U1,48,VDD_48*%
%TO.N,+3V3*%
X160525000Y-100425001D03*
D44*
%TO.P,U1,49,PA14_49*%
%TO.N,/MCU/SWCLK*%
X158599999Y-98500000D03*
%TO.P,U1,50,PA15_50*%
%TO.N,/MCU/RF_IRQ*%
X158100000Y-98500000D03*
%TO.P,U1,51,PC10_51*%
%TO.N,/MCU/SPI3_SCK*%
X157600000Y-98500000D03*
%TO.P,U1,52,PC11_52*%
%TO.N,/MCU/SPI3_MISO*%
X157100000Y-98500000D03*
%TO.P,U1,53,PC12_53*%
%TO.N,/MCU/SPI3_MOSI*%
X156600000Y-98500000D03*
%TO.P,U1,54,PD2_54*%
%TO.N,unconnected-(U1-PD2-Pad54)*%
X156099999Y-98500000D03*
%TO.P,U1,55,PB3_55*%
%TO.N,/MCU/SWO*%
X155600000Y-98500000D03*
%TO.P,U1,56,PB4_56*%
%TO.N,/MCU/STAT1*%
X155100000Y-98500000D03*
%TO.P,U1,57,PB5_57*%
%TO.N,/MCU/STAT2*%
X154600000Y-98500000D03*
%TO.P,U1,58,PB6_58*%
%TO.N,/MCU/SPI3_NSS*%
X154100000Y-98500000D03*
%TO.P,U1,59,PB7_59*%
%TO.N,/MCU/RF_CE*%
X153600001Y-98500000D03*
%TO.P,U1,60,BOOT0_60*%
%TO.N,/MCU/BOOT0*%
X153100000Y-98500000D03*
%TO.P,U1,61,PB8_61*%
%TO.N,/MCU/STAT3*%
X152600000Y-98500000D03*
%TO.P,U1,62,PB9_62*%
%TO.N,unconnected-(U1-PB9-Pad62)*%
X152100000Y-98500000D03*
%TO.P,U1,63,VSS_63*%
%TO.N,GND*%
X151600000Y-98500000D03*
%TO.P,U1,64,VDD_64*%
%TO.N,+3V3*%
X151100001Y-98500000D03*
%TD*%
D45*
%TO.N,GND*%
X150570000Y-95910000D03*
D46*
X146800000Y-85900000D03*
X146800000Y-88900000D03*
X171200000Y-107000000D03*
D45*
X174800000Y-98250000D03*
X167300000Y-103000000D03*
D46*
X152200000Y-87000000D03*
X159800000Y-85400000D03*
X164300000Y-112400000D03*
X173000000Y-106100000D03*
X146800000Y-82900000D03*
X150200000Y-88900000D03*
X148500000Y-92700000D03*
X157400000Y-87000000D03*
X148500000Y-85200000D03*
X148500000Y-88200000D03*
X160200000Y-97600000D03*
D45*
X164600000Y-104400000D03*
D46*
X162300000Y-82900000D03*
X165700000Y-84400000D03*
X150200000Y-90400000D03*
D45*
X164200000Y-97600000D03*
D46*
X151300000Y-111200000D03*
X146800000Y-91900000D03*
X161025000Y-84400000D03*
X175400000Y-106100000D03*
X148700000Y-99300000D03*
X172400000Y-105200000D03*
X157200000Y-99800000D03*
X170600000Y-106100000D03*
X146800000Y-90400000D03*
X174900000Y-95100000D03*
X147300000Y-113165000D03*
X164300000Y-111300000D03*
X153800000Y-103400000D03*
X159800000Y-88600000D03*
X162325000Y-87400000D03*
X158300000Y-84200000D03*
X146800000Y-87400000D03*
X146800000Y-84400000D03*
D45*
X163400000Y-106900000D03*
X171400000Y-93600000D03*
D46*
X143000000Y-97900000D03*
X142100000Y-97300000D03*
X144200000Y-105600000D03*
X149800000Y-113165000D03*
X161900000Y-100900000D03*
X143700000Y-108600000D03*
D45*
X168000000Y-105600000D03*
D46*
X165700000Y-91900000D03*
X168100000Y-112300000D03*
X164000000Y-91200000D03*
X159800000Y-87800000D03*
X151800000Y-97200000D03*
X164000000Y-88200000D03*
X152800000Y-103400000D03*
X143000000Y-96800000D03*
X151400000Y-83700000D03*
X171800000Y-112000000D03*
X150200000Y-87400000D03*
X150200000Y-84400000D03*
X151100000Y-113165000D03*
X165700000Y-85900000D03*
X157943449Y-108598513D03*
X171800000Y-106100000D03*
D45*
X165900000Y-101525000D03*
D46*
X154800000Y-99800000D03*
X161025000Y-85900000D03*
X161025000Y-82900000D03*
X150200000Y-85900000D03*
X162300000Y-85900000D03*
X150500000Y-105600000D03*
X159800000Y-84600000D03*
X174800000Y-105200000D03*
X159800000Y-83700000D03*
X174200000Y-106100000D03*
D45*
X158586940Y-92375000D03*
D46*
X152900000Y-84200000D03*
X144500000Y-113000000D03*
D45*
X165800000Y-96200000D03*
D46*
X146800000Y-93400000D03*
D45*
X163200000Y-99300000D03*
D46*
X173600000Y-105200000D03*
X148500000Y-89700000D03*
X161000000Y-87400000D03*
D45*
X148700000Y-117200000D03*
D46*
X172400000Y-107000000D03*
X157200000Y-101400000D03*
X153800000Y-88200000D03*
X144300000Y-97900000D03*
X143000000Y-95800000D03*
X153000000Y-87000000D03*
X148500000Y-86700000D03*
X150700000Y-102100000D03*
D45*
X163400000Y-101400000D03*
X162346967Y-110716193D03*
D46*
X153000000Y-88600000D03*
X159000000Y-87000000D03*
X152200000Y-88200000D03*
X151800000Y-103400000D03*
D45*
X157700000Y-96100000D03*
X164100000Y-106200000D03*
D46*
X151400000Y-84600000D03*
X148500000Y-83700000D03*
D45*
X159626278Y-110742463D03*
D46*
X154600000Y-87800000D03*
X151100000Y-94700000D03*
X173600000Y-107000000D03*
X164000000Y-92700000D03*
X164000000Y-89700000D03*
X151400000Y-86200000D03*
X165700000Y-87400000D03*
D45*
X161000000Y-110200000D03*
D46*
X174800000Y-107000000D03*
X151400000Y-82900000D03*
X139900000Y-108600000D03*
X153800000Y-87000000D03*
X151400000Y-87000000D03*
X165700000Y-88900000D03*
X164000000Y-86700000D03*
D45*
X163300000Y-100100000D03*
D46*
X162300000Y-84400000D03*
X154600000Y-87000000D03*
X165700000Y-90400000D03*
X163600000Y-111800000D03*
X153000000Y-87800000D03*
X171200000Y-105200000D03*
X165700000Y-82900000D03*
X150200000Y-82850000D03*
X164000000Y-83700000D03*
X159800000Y-86200000D03*
X151400000Y-85400000D03*
X159800000Y-87000000D03*
X158200000Y-87000000D03*
D45*
X162000000Y-103200000D03*
X168300000Y-98625000D03*
D46*
X154600000Y-88600000D03*
D45*
X159300000Y-104150003D03*
X169000000Y-97000000D03*
D46*
X150200000Y-91900000D03*
X159800000Y-82900000D03*
D45*
X174800000Y-101450000D03*
D46*
X148500000Y-91200000D03*
X164000000Y-85200000D03*
D45*
%TO.N,/MCU/SPI2_MISO*%
X164900000Y-100625000D03*
X164600000Y-105600000D03*
D46*
%TO.N,+3V3*%
X150500000Y-106500000D03*
D45*
X168300000Y-99725000D03*
X158600418Y-93124896D03*
D46*
X152400000Y-111200000D03*
X159200000Y-100400000D03*
X150706860Y-100450000D03*
D45*
X168000000Y-104400000D03*
X154100000Y-89800000D03*
D46*
X151100000Y-93400000D03*
D45*
X167300000Y-97000000D03*
D46*
X152400000Y-113165000D03*
X159300000Y-109800000D03*
X171300000Y-92000000D03*
X150800000Y-97200000D03*
D45*
%TO.N,/MCU/IMU_IRQ2*%
X166500000Y-96800000D03*
X159300000Y-103400000D03*
%TO.N,/MCU/SPI2_NSS_2*%
X164200000Y-98549997D03*
X162000000Y-105400000D03*
%TO.N,/MCU/SPI2_SCK*%
X166000000Y-103300000D03*
X162800000Y-107349999D03*
X164200000Y-99300000D03*
%TO.N,/MCU/SPI2_MOSI*%
X164149999Y-104999998D03*
X164318493Y-100040583D03*
%TO.N,/MCU/NRST*%
X150503705Y-103425000D03*
X147668298Y-117319017D03*
D46*
X168100000Y-108800000D03*
%TO.N,Net-(D5-K)*%
X173900000Y-91000000D03*
D45*
%TO.N,Net-(D3-A)*%
X171400000Y-101450000D03*
D46*
%TO.N,+VBAT*%
X139400000Y-105700000D03*
X138500000Y-105700000D03*
%TO.N,Net-(D2-A)*%
X171300000Y-98200000D03*
D45*
%TO.N,/MCU/OTG_FS_D-*%
X162800000Y-103100000D03*
X160200000Y-111300000D03*
%TO.N,/MCU/OTG_FS_D+*%
X163300000Y-102300000D03*
X161800000Y-111300000D03*
%TO.N,/MCU/SPI3_SCK*%
X157675000Y-96900000D03*
X155783550Y-96080670D03*
D46*
%TO.N,Net-(D1-A)*%
X171300000Y-95100000D03*
%TO.N,+VBUS*%
X144800000Y-115000000D03*
X159800000Y-113100000D03*
X140200000Y-91800000D03*
D45*
%TO.N,/MCU/SWDIO*%
X151910645Y-117309260D03*
X158200000Y-101400000D03*
%TO.N,/MCU/SWCLK*%
X150400000Y-117100000D03*
X158200000Y-99800000D03*
%TO.N,/MCU/SWO*%
X156200000Y-99800000D03*
X149500000Y-117200000D03*
%TO.N,/MCU/ADC_IN6*%
X148750000Y-109550000D03*
D46*
%TO.N,/MCU/VCAP*%
X157800000Y-112200000D03*
D45*
%TO.N,/MCU/STAT1*%
X155700000Y-97100000D03*
%TO.N,/MCU/STAT2*%
X154675000Y-97200000D03*
%TO.N,/MCU/STAT3*%
X152800000Y-97200000D03*
%TD*%
%TO.N,/MCU/NRST*%
D47*
X171700000Y-109000000D02*
X173100000Y-109000000D01*
X171500000Y-108800000D02*
X171700000Y-109000000D01*
X168100000Y-108800000D02*
X171500000Y-108800000D01*
%TO.N,/MCU/BOOT0*%
D48*
X149500000Y-98700000D02*
X149500000Y-97937499D01*
%TO.N,GND*%
X150192501Y-96287499D02*
X150570000Y-95910000D01*
X149500000Y-96287499D02*
X150192501Y-96287499D01*
%TO.N,/MCU/ADC_IN7*%
X154100000Y-111150000D02*
X154100000Y-109850000D01*
X153400000Y-111850000D02*
X154100000Y-111150000D01*
X145575000Y-111850000D02*
X153400000Y-111850000D01*
X145525000Y-111800000D02*
X145575000Y-111850000D01*
%TO.N,/CURR_SENSE*%
X143775000Y-111700000D02*
X143875000Y-111800000D01*
X141300000Y-111700000D02*
X143775000Y-111700000D01*
%TO.N,Net-(U7-XC2)*%
D49*
X159747500Y-91600000D02*
X162300000Y-91600000D01*
X159337500Y-92010000D02*
X159747500Y-91600000D01*
X159127500Y-91800000D02*
X159337500Y-92010000D01*
X162600000Y-91900000D02*
X162600000Y-92700000D01*
X162580000Y-92720000D02*
X162600000Y-92700000D01*
X162300000Y-91600000D02*
X162600000Y-91900000D01*
X157700000Y-91800000D02*
X159127500Y-91800000D01*
X162580000Y-94300000D02*
X162580000Y-92720000D01*
%TO.N,GND*%
D48*
X149175000Y-105925000D02*
X150175000Y-105925000D01*
D49*
X167400000Y-98725000D02*
X168200000Y-98725000D01*
D48*
X157943449Y-108598513D02*
X157998513Y-108598513D01*
D47*
X144200000Y-105600000D02*
X143300000Y-104700000D01*
D48*
X161000000Y-110900000D02*
X161000000Y-110200000D01*
D47*
X149790000Y-113175000D02*
X149800000Y-113165000D01*
D49*
X168000000Y-105600000D02*
X167225000Y-105600000D01*
D48*
X173900000Y-95100000D02*
X174900000Y-95100000D01*
X160525000Y-100925000D02*
X161875000Y-100925000D01*
D47*
X151060000Y-115165000D02*
X149790000Y-115165000D01*
D49*
X157700000Y-92300000D02*
X158511940Y-92300000D01*
X168825000Y-105600000D02*
X169000000Y-105775000D01*
X167225000Y-105000000D02*
X167225000Y-105600000D01*
D47*
X173100000Y-112000000D02*
X171800000Y-112000000D01*
D48*
X157998513Y-108598513D02*
X158100000Y-108700000D01*
D47*
X147250000Y-113215000D02*
X147300000Y-113165000D01*
D48*
X151600000Y-110900000D02*
X151300000Y-111200000D01*
X151600000Y-97400000D02*
X151800000Y-97200000D01*
D49*
X166050000Y-100575000D02*
X166050000Y-101375000D01*
X168000000Y-105600000D02*
X168825000Y-105600000D01*
D48*
X145250000Y-97400000D02*
X144800000Y-97400000D01*
D49*
X168200000Y-98725000D02*
X168300000Y-98625000D01*
X158511940Y-92300000D02*
X158586940Y-92375000D01*
X166050000Y-101375000D02*
X165900000Y-101525000D01*
D47*
X141000000Y-96699999D02*
X141000000Y-97800000D01*
X149790000Y-115165000D02*
X149790000Y-113175000D01*
X147250000Y-115165000D02*
X147250000Y-113215000D01*
D48*
X168300000Y-98625000D02*
X168825000Y-98625000D01*
D47*
X140600000Y-96299999D02*
X141000000Y-96699999D01*
X143300000Y-104700000D02*
X141300000Y-104700000D01*
X141000000Y-97800000D02*
X142400000Y-99200000D01*
D48*
X173862503Y-101450000D02*
X174800000Y-101450000D01*
X168825000Y-98625000D02*
X169300000Y-98150000D01*
X144800000Y-97400000D02*
X144300000Y-97900000D01*
X169050000Y-96950000D02*
X169000000Y-97000000D01*
X144200000Y-105600000D02*
X145150000Y-105600000D01*
D49*
X167400000Y-98725000D02*
X167400000Y-99225000D01*
D48*
X145150000Y-105600000D02*
X145250000Y-105700000D01*
X173875002Y-98250000D02*
X174800000Y-98250000D01*
D47*
X151060000Y-113205000D02*
X151100000Y-113165000D01*
D49*
X165375000Y-104400000D02*
X164600000Y-104400000D01*
D47*
X151060000Y-115165000D02*
X151060000Y-113205000D01*
D49*
X166050000Y-100575000D02*
X166550000Y-100575000D01*
D47*
X142400000Y-103600000D02*
X141300000Y-104700000D01*
D48*
X150175000Y-105925000D02*
X150500000Y-105600000D01*
X151600000Y-98500000D02*
X151600000Y-97400000D01*
X158100000Y-108700000D02*
X158100000Y-109850000D01*
D47*
X142400000Y-99200000D02*
X142400000Y-103600000D01*
D48*
X151600000Y-109850000D02*
X151600000Y-110900000D01*
X169050000Y-96000000D02*
X169050000Y-96950000D01*
X161875000Y-100925000D02*
X161900000Y-100900000D01*
%TO.N,Net-(U7-XC1)*%
D49*
X160510000Y-90990000D02*
X161000000Y-90500000D01*
X161000000Y-88882500D02*
X160977500Y-88860000D01*
X159027500Y-91300000D02*
X159337500Y-90990000D01*
X157700000Y-91300000D02*
X159027500Y-91300000D01*
X159337500Y-90990000D02*
X160510000Y-90990000D01*
X161000000Y-90500000D02*
X161000000Y-88882500D01*
%TO.N,/MCU/SPI2_MISO*%
X162275000Y-106925000D02*
X160525000Y-106925000D01*
X164600000Y-105600000D02*
X165375000Y-105600000D01*
X164950000Y-100575000D02*
X164900000Y-100625000D01*
X163600000Y-105600000D02*
X162275000Y-106925000D01*
X163600000Y-105600000D02*
X164600000Y-105600000D01*
X165550000Y-100575000D02*
X164950000Y-100575000D01*
%TO.N,/MCU/IMU_IRQ1*%
X160525000Y-103925000D02*
X163375000Y-103925000D01*
X163375000Y-103925000D02*
X164700000Y-102600000D01*
X166000000Y-102600000D02*
X167050000Y-101550000D01*
X167050000Y-101550000D02*
X167050000Y-100575000D01*
X164700000Y-102600000D02*
X166000000Y-102600000D01*
%TO.N,+3V3*%
D48*
X167300000Y-96200000D02*
X167500000Y-96000000D01*
D49*
X157700000Y-92800000D02*
X158199643Y-92800000D01*
X152560000Y-92300000D02*
X153825000Y-92300000D01*
D48*
X152100000Y-109850000D02*
X152100000Y-110900000D01*
X151100001Y-97500001D02*
X150800000Y-97200000D01*
X152100000Y-110900000D02*
X152400000Y-111200000D01*
X167300000Y-97000000D02*
X167300000Y-96200000D01*
D49*
X167050000Y-97250000D02*
X167300000Y-97000000D01*
X167400000Y-99725000D02*
X168300000Y-99725000D01*
D47*
X151100000Y-93400000D02*
X151100000Y-92560000D01*
D48*
X159225001Y-100425001D02*
X159200000Y-100400000D01*
D49*
X154662500Y-90362500D02*
X154100000Y-89800000D01*
X167225000Y-104400000D02*
X168000000Y-104400000D01*
D48*
X149175000Y-100425001D02*
X150681861Y-100425001D01*
D49*
X152300000Y-92560000D02*
X152560000Y-92300000D01*
D48*
X158599999Y-109850000D02*
X159250000Y-109850000D01*
X150425000Y-106425000D02*
X150500000Y-106500000D01*
X151100001Y-98500000D02*
X151100001Y-97500001D01*
D49*
X158524539Y-93124896D02*
X158600418Y-93124896D01*
X168825000Y-104400000D02*
X169000000Y-104225000D01*
X167050000Y-97875000D02*
X167050000Y-97250000D01*
X168000000Y-104400000D02*
X168825000Y-104400000D01*
X166900000Y-104075000D02*
X167225000Y-104400000D01*
D47*
X152330000Y-115165000D02*
X152330000Y-113235000D01*
D49*
X166600000Y-104075000D02*
X166900000Y-104075000D01*
X154762500Y-90362500D02*
X154662500Y-90362500D01*
X158199643Y-92800000D02*
X158524539Y-93124896D01*
D48*
X160525000Y-100425001D02*
X159225001Y-100425001D01*
X149175000Y-106425000D02*
X150425000Y-106425000D01*
X159250000Y-109850000D02*
X159300000Y-109800000D01*
X151100000Y-92560000D02*
X152300000Y-92560000D01*
X150681861Y-100425001D02*
X150706860Y-100450000D01*
X168325000Y-99700000D02*
X168300000Y-99725000D01*
X172312499Y-92000000D02*
X171300000Y-92000000D01*
D47*
X152330000Y-113235000D02*
X152400000Y-113165000D01*
D48*
X169300000Y-99700000D02*
X168325000Y-99700000D01*
%TO.N,/MCU/IMU_IRQ2*%
D49*
X166550000Y-96850000D02*
X166500000Y-96800000D01*
X166550000Y-97875000D02*
X166550000Y-96850000D01*
X160525000Y-103425000D02*
X159325000Y-103425000D01*
X159325000Y-103425000D02*
X159300000Y-103400000D01*
%TO.N,/MCU/SPI2_NSS_2*%
X165200000Y-98725000D02*
X164375003Y-98725000D01*
X164375003Y-98725000D02*
X164200000Y-98549997D01*
X161475000Y-105925000D02*
X162000000Y-105400000D01*
X160525000Y-105925000D02*
X161475000Y-105925000D01*
%TO.N,/MCU/SPI2_SCK*%
X165200000Y-99225000D02*
X164275000Y-99225000D01*
X160525000Y-107425000D02*
X162724999Y-107425000D01*
X162724999Y-107425000D02*
X162800000Y-107349999D01*
X166000000Y-103300000D02*
X166000000Y-104075000D01*
X164275000Y-99225000D02*
X164200000Y-99300000D01*
%TO.N,/MCU/SPI2_MOSI*%
X165374998Y-104999998D02*
X165375000Y-105000000D01*
X164149997Y-105000000D02*
X164149999Y-104999998D01*
X164149999Y-104999998D02*
X165374998Y-104999998D01*
X164634076Y-99725000D02*
X164318493Y-100040583D01*
X160525000Y-106425000D02*
X161875000Y-106425000D01*
X165200000Y-99725000D02*
X164634076Y-99725000D01*
X163300000Y-105000000D02*
X164149997Y-105000000D01*
X161875000Y-106425000D02*
X163300000Y-105000000D01*
%TO.N,Net-(FL1-UNBALPRT)*%
D50*
X155550000Y-84350000D02*
X155600000Y-84300000D01*
X155550000Y-87700000D02*
X155550000Y-84350000D01*
%TO.N,/MCU/NRST*%
D48*
X147250000Y-119235000D02*
X147668298Y-118816702D01*
D47*
X166100000Y-108800000D02*
X165900000Y-109000000D01*
D48*
X150503705Y-103425000D02*
X149175000Y-103425000D01*
X165900000Y-109000000D02*
X159400000Y-109000000D01*
D47*
X168100000Y-108800000D02*
X166100000Y-108800000D01*
D48*
X151378705Y-104300000D02*
X150503705Y-103425000D01*
X154700000Y-104300000D02*
X151378705Y-104300000D01*
X159400000Y-109000000D02*
X154700000Y-104300000D01*
X147668298Y-118816702D02*
X147668298Y-117319017D01*
%TO.N,Net-(D5-K)*%
X173900000Y-91987501D02*
X173887501Y-92000000D01*
X173900000Y-91000000D02*
X173900000Y-91987501D01*
%TO.N,Net-(D3-A)*%
X172312499Y-101450000D02*
X171400000Y-101450000D01*
%TO.N,/MCU/HSE_OUT*%
X146800000Y-105200000D02*
X145700000Y-104100000D01*
X145700000Y-104100000D02*
X145700000Y-103600000D01*
X146374999Y-102925001D02*
X145700000Y-103600000D01*
X146800000Y-105700000D02*
X146800000Y-105200000D01*
X149175000Y-102925001D02*
X146374999Y-102925001D01*
%TO.N,Net-(U7-DVDD)*%
D49*
X153240000Y-92800000D02*
X153825000Y-92800000D01*
X152300000Y-93740000D02*
X153240000Y-92800000D01*
%TO.N,+VBAT*%
D47*
X140525001Y-105700000D02*
X141300000Y-105700000D01*
X140600000Y-100300001D02*
X140600000Y-102800000D01*
X140600000Y-102800000D02*
X139900000Y-103500000D01*
X139900000Y-103500000D02*
X139900000Y-105074999D01*
X139900000Y-105074999D02*
X140525001Y-105700000D01*
X138500000Y-105700000D02*
X141300000Y-105700000D01*
%TO.N,/ESC1*%
D48*
X143000000Y-106700000D02*
X141300000Y-106700000D01*
X143225000Y-106925000D02*
X143000000Y-106700000D01*
X149175000Y-106925000D02*
X143225000Y-106925000D01*
%TO.N,/ESC2*%
X141300000Y-107700000D02*
X147700000Y-107700000D01*
X147975000Y-107425000D02*
X149175000Y-107425000D01*
X147700000Y-107700000D02*
X147975000Y-107425000D01*
%TO.N,/ESC3*%
X149175000Y-108225000D02*
X149175000Y-107924999D01*
X142600000Y-108700000D02*
X143300000Y-109400000D01*
X148000000Y-109400000D02*
X149175000Y-108225000D01*
X141300000Y-108700000D02*
X142600000Y-108700000D01*
X143300000Y-109400000D02*
X148000000Y-109400000D01*
%TO.N,/ESC4*%
X150650001Y-110300000D02*
X151100001Y-109850000D01*
X143200000Y-110300000D02*
X150650001Y-110300000D01*
X141300000Y-109700000D02*
X142600000Y-109700000D01*
X142600000Y-109700000D02*
X143200000Y-110300000D01*
%TO.N,Net-(FL1-BALPRT1)*%
D51*
X155762500Y-90362500D02*
X155762500Y-88912500D01*
X155762500Y-88912500D02*
X155550000Y-88700000D01*
%TO.N,Net-(FL1-BALPRT2)*%
X156262500Y-90362500D02*
X156262500Y-88837500D01*
X156262500Y-88837500D02*
X156400000Y-88700000D01*
%TO.N,Net-(FL1-DCFEED+RFGND{slash}GND)*%
D49*
X157740000Y-89385000D02*
X156762500Y-90362500D01*
X156400000Y-88200000D02*
X157740000Y-88200000D01*
X157740000Y-88200000D02*
X157740000Y-89385000D01*
%TO.N,Net-(D2-A)*%
D48*
X171300000Y-98200000D02*
X172262499Y-98200000D01*
X172262499Y-98200000D02*
X172312499Y-98250000D01*
%TO.N,/MCU/HSE_IN*%
X145700000Y-99500000D02*
X145700000Y-98500000D01*
X145700000Y-98500000D02*
X146800000Y-97400000D01*
X145700000Y-100750000D02*
X145700000Y-99500000D01*
X149175000Y-102425000D02*
X147375000Y-102425000D01*
X147375000Y-102425000D02*
X145700000Y-100750000D01*
%TO.N,/MCU/OTG_FS_D-*%
D50*
X160600000Y-113174999D02*
X160722500Y-113052499D01*
X162800000Y-102900000D02*
X162352500Y-102452500D01*
X160722500Y-112510000D02*
X160600000Y-112387500D01*
X162800000Y-103100000D02*
X162800000Y-102900000D01*
X160600000Y-112387500D02*
X160600000Y-112049999D01*
D48*
X160525000Y-102425000D02*
X161472500Y-102425000D01*
D50*
X162352500Y-102452500D02*
X161500000Y-102452500D01*
X160600000Y-114900000D02*
X160600000Y-113174999D01*
D48*
X161472500Y-102425000D02*
X161500000Y-102452500D01*
D50*
X160600000Y-111700000D02*
X160200000Y-111300000D01*
X160722500Y-113052499D02*
X160722500Y-112510000D01*
X160600000Y-112049999D02*
X160600000Y-111700000D01*
%TO.N,/MCU/OTG_FS_D+*%
X161400000Y-111700000D02*
X161800000Y-111300000D01*
D48*
X161472500Y-101925000D02*
X161500000Y-101897500D01*
D50*
X161277500Y-113052499D02*
X161277500Y-112510000D01*
X161277500Y-112510000D02*
X161400000Y-112387500D01*
X163300000Y-102300000D02*
X162897500Y-101897500D01*
X161400000Y-113174999D02*
X161277500Y-113052499D01*
X162897500Y-101897500D02*
X161500000Y-101897500D01*
X161400000Y-112387500D02*
X161400000Y-112049999D01*
D48*
X160525000Y-101925000D02*
X161472500Y-101925000D01*
D50*
X161400000Y-114900000D02*
X161400000Y-113174999D01*
X161400000Y-112049999D02*
X161400000Y-111700000D01*
%TO.N,Net-(U7-IREF)*%
D49*
X153820000Y-91300000D02*
X152820000Y-90300000D01*
X153825000Y-91300000D02*
X153820000Y-91300000D01*
%TO.N,/MCU/RF_CE*%
X153600001Y-98500000D02*
X153600001Y-96599999D01*
X154762500Y-95437500D02*
X154762500Y-94237500D01*
X153600001Y-96599999D02*
X154762500Y-95437500D01*
%TO.N,/MCU/SPI3_NSS*%
X155262500Y-95637500D02*
X155262500Y-94237500D01*
X154100000Y-98500000D02*
X154100000Y-96800000D01*
X154100000Y-96800000D02*
X155262500Y-95637500D01*
%TO.N,/MCU/SPI3_SCK*%
X157600000Y-98500000D02*
X157600000Y-96975000D01*
X155762500Y-96059620D02*
X155762500Y-94237500D01*
X155783550Y-96080670D02*
X155762500Y-96059620D01*
X157600000Y-96975000D02*
X157675000Y-96900000D01*
%TO.N,/MCU/SPI3_MOSI*%
X156262500Y-95762500D02*
X156600000Y-96100000D01*
X156600000Y-96100000D02*
X156600000Y-98500000D01*
X156262500Y-94237500D02*
X156262500Y-95762500D01*
%TO.N,/MCU/SPI3_MISO*%
X156762500Y-94237500D02*
X156762500Y-95562500D01*
X157100000Y-95900000D02*
X157100000Y-98500000D01*
X156762500Y-95562500D02*
X157100000Y-95900000D01*
%TO.N,/MCU/RF_IRQ*%
X158100000Y-97300000D02*
X158500000Y-96900000D01*
X158500000Y-96900000D02*
X158500000Y-94100000D01*
X158500000Y-94100000D02*
X157700000Y-93300000D01*
X158100000Y-98500000D02*
X158100000Y-97300000D01*
%TO.N,/MCU/BOOT0*%
D48*
X153100000Y-98500000D02*
X153100000Y-99600000D01*
X150600000Y-99800000D02*
X149500000Y-98700000D01*
X153100000Y-99600000D02*
X152900000Y-99800000D01*
X152900000Y-99800000D02*
X150600000Y-99800000D01*
%TO.N,/MCU/SPI2_NSS_1*%
D49*
X164500000Y-106900000D02*
X165500000Y-106900000D01*
X160525000Y-107924999D02*
X163475001Y-107924999D01*
X163475001Y-107924999D02*
X164500000Y-106900000D01*
X166000000Y-106400000D02*
X166000000Y-105925000D01*
X165500000Y-106900000D02*
X166000000Y-106400000D01*
%TO.N,/MCU/BAR_IRQ*%
X159675001Y-105424999D02*
X159200000Y-105900000D01*
X166600000Y-106550000D02*
X166600000Y-105925000D01*
X159200000Y-105900000D02*
X159200000Y-108000000D01*
X164800000Y-107400000D02*
X165750000Y-107400000D01*
X165750000Y-107400000D02*
X166600000Y-106550000D01*
X159200000Y-108000000D02*
X159700000Y-108500000D01*
X159700000Y-108500000D02*
X163700000Y-108500000D01*
X163700000Y-108500000D02*
X164800000Y-107400000D01*
X160525000Y-105424999D02*
X159675001Y-105424999D01*
%TO.N,Net-(D1-A)*%
D48*
X171300000Y-95100000D02*
X172324998Y-95100000D01*
%TO.N,+VBUS*%
D47*
X159800000Y-114900000D02*
X159800000Y-113100000D01*
X139050000Y-103750000D02*
X139050000Y-92950000D01*
X144800000Y-115000000D02*
X143200000Y-113400000D01*
X137600000Y-105200000D02*
X139050000Y-103750000D01*
X140700000Y-113400000D02*
X137600000Y-110300000D01*
X139050000Y-92950000D02*
X140200000Y-91800000D01*
X143200000Y-113400000D02*
X140700000Y-113400000D01*
X137600000Y-110300000D02*
X137600000Y-105200000D01*
%TO.N,/MCU/SWDIO*%
D48*
X158225000Y-101425000D02*
X158200000Y-101400000D01*
X160525000Y-101425000D02*
X158225000Y-101425000D01*
X151910645Y-118815645D02*
X151910645Y-117309260D01*
X152330000Y-119235000D02*
X151910645Y-118815645D01*
%TO.N,/MCU/SWCLK*%
X158599999Y-98500000D02*
X158599999Y-99400001D01*
X158599999Y-99400001D02*
X158200000Y-99800000D01*
X151060000Y-117760000D02*
X150400000Y-117100000D01*
X151060000Y-119235000D02*
X151060000Y-117760000D01*
%TO.N,/MCU/SWO*%
X149790000Y-119235000D02*
X149790000Y-117490000D01*
X155600000Y-98500000D02*
X155600000Y-99400000D01*
X156000000Y-99800000D02*
X156200000Y-99800000D01*
X155600000Y-99400000D02*
X156000000Y-99800000D01*
X149790000Y-117490000D02*
X149500000Y-117200000D01*
%TO.N,/MCU/UART3_RX*%
X155100000Y-111400000D02*
X153985000Y-112515000D01*
X145980000Y-113220000D02*
X145980000Y-115165000D01*
X146685000Y-112515000D02*
X145980000Y-113220000D01*
X153985000Y-112515000D02*
X146685000Y-112515000D01*
X155100000Y-109850000D02*
X155100000Y-111400000D01*
%TO.N,/MCU/UART3_TX*%
X155100000Y-120600000D02*
X155100000Y-112900000D01*
X157100000Y-110900000D02*
X157100000Y-109850000D01*
X154300000Y-121400000D02*
X155100000Y-120600000D01*
X145980000Y-121280000D02*
X146100000Y-121400000D01*
X155100000Y-112900000D02*
X157100000Y-110900000D01*
X145980000Y-119235000D02*
X145980000Y-121280000D01*
X146100000Y-121400000D02*
X154300000Y-121400000D01*
%TO.N,/MCU/ADC_IN6*%
X148750000Y-109550000D02*
X148750000Y-109450000D01*
X153400000Y-108700000D02*
X153600001Y-108900001D01*
X149500000Y-108700000D02*
X153400000Y-108700000D01*
X148750000Y-109450000D02*
X149500000Y-108700000D01*
X153600001Y-108900001D02*
X153600001Y-109850000D01*
%TO.N,/MCU/VCAP*%
X157600000Y-112000000D02*
X157800000Y-112200000D01*
X157600000Y-109850000D02*
X157600000Y-112000000D01*
%TO.N,/MCU/STAT1*%
X155100000Y-98500000D02*
X155100000Y-97692590D01*
X155692590Y-97100000D02*
X155700000Y-97100000D01*
X155100000Y-97692590D02*
X155692590Y-97100000D01*
%TO.N,/MCU/STAT2*%
D49*
X154600000Y-98500000D02*
X154600000Y-97275000D01*
X154600000Y-97275000D02*
X154675000Y-97200000D01*
%TO.N,/MCU/STAT3*%
X152600000Y-97400000D02*
X152800000Y-97200000D01*
X152600000Y-98500000D02*
X152600000Y-97400000D01*
%TD*%
%TA.AperFunction,Conductor*%
%TO.N,GND*%
G36*
X141551154Y-94900167D02*
G01*
X141561251Y-94900691D01*
X141593293Y-94902355D01*
X141606075Y-94903686D01*
X141615085Y-94905099D01*
X141647766Y-94910225D01*
X141655413Y-94913836D01*
X143093920Y-95214509D01*
X143094558Y-95214643D01*
X143110966Y-95219272D01*
X143214945Y-95256502D01*
X143244838Y-95272071D01*
X143327966Y-95330977D01*
X143352563Y-95354020D01*
X143416763Y-95433142D01*
X143434246Y-95461960D01*
X143474764Y-95555443D01*
X143483840Y-95587901D01*
X143498849Y-95697305D01*
X143500000Y-95714159D01*
X143500000Y-98091874D01*
X143498939Y-98108060D01*
X143485093Y-98213224D01*
X143476715Y-98244491D01*
X143439259Y-98334918D01*
X143423074Y-98362951D01*
X143363491Y-98440601D01*
X143340601Y-98463491D01*
X143262951Y-98523074D01*
X143234918Y-98539259D01*
X143144491Y-98576715D01*
X143113224Y-98585093D01*
X143019398Y-98597446D01*
X143008058Y-98598939D01*
X142991874Y-98600000D01*
X142106119Y-98600000D01*
X142093900Y-98599396D01*
X142014162Y-98591500D01*
X141990202Y-98586708D01*
X141913552Y-98563325D01*
X141902043Y-98559184D01*
X139916120Y-97731716D01*
X139899869Y-97723495D01*
X139797928Y-97662140D01*
X139769885Y-97639052D01*
X139696287Y-97557636D01*
X139676137Y-97527411D01*
X139629292Y-97428163D01*
X139618765Y-97393398D01*
X139601337Y-97275696D01*
X139600000Y-97257533D01*
X139600000Y-95408125D01*
X139601061Y-95391940D01*
X139614906Y-95286776D01*
X139623284Y-95255508D01*
X139660740Y-95165081D01*
X139676923Y-95137050D01*
X139736513Y-95059392D01*
X139759392Y-95036513D01*
X139837050Y-94976923D01*
X139865079Y-94960740D01*
X139955509Y-94923283D01*
X139986775Y-94914906D01*
X140091941Y-94901061D01*
X140108126Y-94900000D01*
X141544724Y-94900000D01*
X141551154Y-94900167D01*
G37*
%TD.AperFunction*%
%TD*%
%TA.AperFunction,Conductor*%
%TO.N,GND*%
G36*
X168895080Y-110800475D02*
G01*
X168904726Y-110801425D01*
X168914307Y-110802846D01*
X168947667Y-110809481D01*
X168966230Y-110815113D01*
X168983900Y-110822432D01*
X169001014Y-110831579D01*
X169016939Y-110842220D01*
X169031941Y-110854531D01*
X169045468Y-110868058D01*
X169057773Y-110883052D01*
X169068416Y-110898979D01*
X169077565Y-110916096D01*
X169084886Y-110933772D01*
X169090518Y-110952338D01*
X169097147Y-110985659D01*
X169098573Y-110995267D01*
X169099523Y-111004907D01*
X169100000Y-111014616D01*
X169100000Y-112785382D01*
X169099523Y-112795091D01*
X169098573Y-112804731D01*
X169097147Y-112814339D01*
X169090518Y-112847660D01*
X169084886Y-112866227D01*
X169077566Y-112883900D01*
X169068417Y-112901016D01*
X169057780Y-112916936D01*
X169045468Y-112931940D01*
X169031940Y-112945468D01*
X169016936Y-112957780D01*
X169001016Y-112968417D01*
X168983900Y-112977566D01*
X168966227Y-112984886D01*
X168947660Y-112990518D01*
X168914339Y-112997147D01*
X168904731Y-112998573D01*
X168901712Y-112998870D01*
X168895087Y-112999523D01*
X168885382Y-113000000D01*
X163999997Y-113000000D01*
X163910515Y-113063914D01*
X163910508Y-113063921D01*
X163320707Y-113485209D01*
X163320702Y-113485210D01*
X163200000Y-113571427D01*
X163200000Y-115885382D01*
X163199523Y-115895091D01*
X163198573Y-115904731D01*
X163197147Y-115914339D01*
X163190518Y-115947660D01*
X163184886Y-115966227D01*
X163177566Y-115983900D01*
X163168426Y-116001004D01*
X163165097Y-116005988D01*
X163117053Y-116043875D01*
X163082772Y-116050000D01*
X162817227Y-116050000D01*
X162759036Y-116031093D01*
X162734915Y-116006006D01*
X162731576Y-116001010D01*
X162722432Y-115983900D01*
X162715113Y-115966230D01*
X162709480Y-115947660D01*
X162703346Y-115916823D01*
X162701925Y-115907239D01*
X162700975Y-115897593D01*
X162700500Y-115887901D01*
X162700500Y-113725330D01*
X162700389Y-113723088D01*
X162700356Y-113722637D01*
X162700119Y-113717802D01*
X162700000Y-113712955D01*
X162700000Y-113597453D01*
X162700476Y-113587759D01*
X162701426Y-113578112D01*
X162702850Y-113568513D01*
X162709481Y-113535179D01*
X162715113Y-113516611D01*
X162722430Y-113498945D01*
X162731579Y-113481828D01*
X162732193Y-113480907D01*
X162750469Y-113453556D01*
X162756234Y-113445782D01*
X162762403Y-113438267D01*
X162768897Y-113431102D01*
X163141422Y-113058579D01*
X163170710Y-113029289D01*
X163200000Y-113000000D01*
X163200000Y-111014610D01*
X163200476Y-111004916D01*
X163200477Y-111004907D01*
X163201426Y-110995269D01*
X163202850Y-110985670D01*
X163202853Y-110985659D01*
X163206386Y-110967891D01*
X163209481Y-110952336D01*
X163215112Y-110933771D01*
X163222433Y-110916096D01*
X163231575Y-110898989D01*
X163242228Y-110883048D01*
X163254530Y-110868057D01*
X163268057Y-110854530D01*
X163283051Y-110842226D01*
X163283060Y-110842220D01*
X163298989Y-110831575D01*
X163316097Y-110822432D01*
X163333773Y-110815110D01*
X163352337Y-110809480D01*
X163368013Y-110806362D01*
X163368016Y-110806360D01*
X163368021Y-110806360D01*
X163385695Y-110802845D01*
X163395273Y-110801425D01*
X163404919Y-110800476D01*
X163414612Y-110800000D01*
X168885388Y-110800000D01*
X168895080Y-110800475D01*
G37*
%TD.AperFunction*%
%TD*%
%TA.AperFunction,Conductor*%
%TO.N,GND*%
G36*
X151815908Y-82505343D02*
G01*
X151828595Y-82509466D01*
X151878095Y-82545427D01*
X151878096Y-82545428D01*
X151881091Y-82549550D01*
X151900000Y-82607740D01*
X151897032Y-82616873D01*
X151899959Y-84049901D01*
X151899999Y-84049997D01*
X151900000Y-84049998D01*
X151900000Y-84049999D01*
X151900001Y-84050000D01*
X153899998Y-84050000D01*
X153899999Y-84050000D01*
X153900000Y-84049999D01*
X153900000Y-82615180D01*
X153904843Y-82584594D01*
X153908965Y-82571905D01*
X153944923Y-82522406D01*
X153945522Y-82521971D01*
X153949063Y-82519400D01*
X154007243Y-82500500D01*
X154351000Y-82500500D01*
X154409191Y-82519407D01*
X154445155Y-82568907D01*
X154450000Y-82599500D01*
X154450000Y-86000000D01*
X154503399Y-86000000D01*
X154561590Y-86018907D01*
X154597554Y-86068407D01*
X154600492Y-86079670D01*
X154613996Y-86147548D01*
X154614033Y-86147735D01*
X154614035Y-86147742D01*
X154669157Y-86230241D01*
X154669397Y-86230599D01*
X154669399Y-86230601D01*
X154669402Y-86230603D01*
X154669404Y-86230605D01*
X154752260Y-86285966D01*
X154807807Y-86297015D01*
X154807808Y-86297015D01*
X154819240Y-86299289D01*
X154821405Y-86299863D01*
X154823579Y-86300216D01*
X154825152Y-86300500D01*
X154825326Y-86300500D01*
X155007320Y-86300500D01*
X155037908Y-86305343D01*
X155050595Y-86309466D01*
X155100095Y-86345427D01*
X155100096Y-86345428D01*
X155103091Y-86349550D01*
X155122000Y-86407740D01*
X155122000Y-87310110D01*
X155117155Y-87340703D01*
X155108928Y-87366023D01*
X155096169Y-87390493D01*
X155096749Y-87390881D01*
X155039035Y-87477256D01*
X155039033Y-87477261D01*
X155039033Y-87477263D01*
X155027985Y-87532804D01*
X155024500Y-87550322D01*
X155024500Y-87849674D01*
X155038968Y-87922407D01*
X155040870Y-87941722D01*
X155040870Y-87960842D01*
X155038968Y-87980156D01*
X155025000Y-88050375D01*
X155025000Y-88074999D01*
X155025001Y-88075000D01*
X155230097Y-88075000D01*
X155232487Y-88075029D01*
X155241116Y-88075237D01*
X155242809Y-88075787D01*
X155245463Y-88075500D01*
X155250326Y-88075500D01*
X155251987Y-88075500D01*
X155304826Y-88075500D01*
X155330447Y-88078873D01*
X155354767Y-88085389D01*
X155378644Y-88095279D01*
X155384798Y-88098832D01*
X155399992Y-88102903D01*
X155420058Y-88115933D01*
X155435203Y-88119992D01*
X155435205Y-88119993D01*
X155445068Y-88132175D01*
X155451307Y-88136226D01*
X155462580Y-88153585D01*
X155462877Y-88154169D01*
X155473708Y-88167545D01*
X155476908Y-88228646D01*
X155443581Y-88279959D01*
X155440307Y-88282610D01*
X155403631Y-88301297D01*
X155386729Y-88305825D01*
X155386123Y-88306152D01*
X155385899Y-88306240D01*
X155385413Y-88306484D01*
X155385391Y-88306441D01*
X155364858Y-88314586D01*
X155340445Y-88321127D01*
X155314826Y-88324500D01*
X155250320Y-88324500D01*
X155247826Y-88324626D01*
X155247497Y-88324651D01*
X155246147Y-88324717D01*
X155242808Y-88324881D01*
X155237958Y-88325000D01*
X155025001Y-88325000D01*
X155025000Y-88325001D01*
X155025000Y-88325002D01*
X155025000Y-88349626D01*
X155038967Y-88419840D01*
X155040869Y-88439155D01*
X155040869Y-88458276D01*
X155038967Y-88477590D01*
X155024500Y-88550317D01*
X155024500Y-88849678D01*
X155024500Y-88849682D01*
X155024501Y-88849684D01*
X155039033Y-88922736D01*
X155039035Y-88922742D01*
X155094397Y-89005599D01*
X155094399Y-89005601D01*
X155094402Y-89005603D01*
X155094404Y-89005605D01*
X155102479Y-89011000D01*
X155177260Y-89060966D01*
X155206879Y-89066857D01*
X155234962Y-89072444D01*
X155239620Y-89073371D01*
X155259962Y-89079759D01*
X155276777Y-89087111D01*
X155322513Y-89127737D01*
X155325898Y-89133509D01*
X155339500Y-89183591D01*
X155339500Y-90247819D01*
X155334654Y-90278414D01*
X155331902Y-90286883D01*
X155295937Y-90336382D01*
X155237745Y-90355288D01*
X155179555Y-90336379D01*
X155157626Y-90314438D01*
X155156877Y-90313406D01*
X155137999Y-90255256D01*
X155137999Y-90009693D01*
X155139986Y-90003575D01*
X155137711Y-89968771D01*
X155137500Y-89962312D01*
X155137500Y-89703406D01*
X155137497Y-89703405D01*
X155117881Y-89705988D01*
X155117873Y-89705990D01*
X155069139Y-89728715D01*
X155039364Y-89737252D01*
X155023489Y-89739201D01*
X155016866Y-89740014D01*
X154962968Y-89731476D01*
X154908315Y-89705992D01*
X154908315Y-89705993D01*
X154908311Y-89705991D01*
X154907260Y-89705501D01*
X154907258Y-89705500D01*
X154861680Y-89699500D01*
X154861679Y-89699500D01*
X154861678Y-89699500D01*
X154734635Y-89699500D01*
X154704042Y-89694654D01*
X154691356Y-89690532D01*
X154641857Y-89654570D01*
X154641848Y-89654558D01*
X154635362Y-89645631D01*
X154619828Y-89613060D01*
X154614254Y-89592256D01*
X154612984Y-89587515D01*
X154612981Y-89587510D01*
X154612963Y-89587465D01*
X154612573Y-89586802D01*
X154541988Y-89464546D01*
X154540512Y-89461989D01*
X154540510Y-89461987D01*
X154540509Y-89461985D01*
X154438015Y-89359491D01*
X154438012Y-89359489D01*
X154438010Y-89359487D01*
X154438009Y-89359486D01*
X154369775Y-89320091D01*
X154348741Y-89296730D01*
X154220584Y-89262391D01*
X154220583Y-89262390D01*
X154185365Y-89252953D01*
X154172475Y-89249500D01*
X154172474Y-89249500D01*
X154027526Y-89249500D01*
X154027525Y-89249500D01*
X153994094Y-89258458D01*
X153980539Y-89262090D01*
X153887505Y-89287018D01*
X153761993Y-89359483D01*
X153659483Y-89461993D01*
X153587018Y-89587505D01*
X153557336Y-89698281D01*
X153549742Y-89726622D01*
X153516418Y-89777937D01*
X153459297Y-89799864D01*
X153454115Y-89800000D01*
X153211298Y-89800000D01*
X153167818Y-89789941D01*
X153066518Y-89740418D01*
X152991582Y-89729500D01*
X152991579Y-89729500D01*
X152648421Y-89729500D01*
X152648418Y-89729500D01*
X152576255Y-89740014D01*
X152573482Y-89740418D01*
X152457898Y-89796923D01*
X152457897Y-89796924D01*
X152390735Y-89864085D01*
X152365676Y-89882290D01*
X152353794Y-89888344D01*
X152293366Y-89897916D01*
X152288333Y-89897119D01*
X152233815Y-89869343D01*
X152233814Y-89869341D01*
X152161807Y-89797335D01*
X152161806Y-89797334D01*
X152146683Y-89789941D01*
X152050000Y-89742675D01*
X152050000Y-90857323D01*
X152161806Y-90802665D01*
X152161809Y-90802663D01*
X152228560Y-90735911D01*
X152253608Y-90717713D01*
X152265500Y-90711653D01*
X152325927Y-90702082D01*
X152330968Y-90702880D01*
X152385477Y-90730656D01*
X152424844Y-90770022D01*
X152457898Y-90803076D01*
X152573482Y-90859582D01*
X152648418Y-90870500D01*
X152802775Y-90870500D01*
X152833366Y-90875345D01*
X152840852Y-90877777D01*
X152856592Y-90882891D01*
X152896005Y-90907042D01*
X153121917Y-91132954D01*
X153140122Y-91158012D01*
X153151209Y-91179771D01*
X153162000Y-91224717D01*
X153162000Y-91399182D01*
X153166298Y-91431830D01*
X153168000Y-91444757D01*
X153168000Y-91444758D01*
X153168001Y-91444760D01*
X153172204Y-91453774D01*
X153172205Y-91453775D01*
X153173376Y-91456285D01*
X153173377Y-91456288D01*
X153191215Y-91494542D01*
X153199752Y-91524317D01*
X153200430Y-91529839D01*
X153202514Y-91546817D01*
X153193976Y-91600714D01*
X153168498Y-91655354D01*
X153168492Y-91655368D01*
X153168490Y-91655372D01*
X153168488Y-91655381D01*
X153165905Y-91674997D01*
X153165906Y-91674999D01*
X153165906Y-91675000D01*
X153165907Y-91675000D01*
X153424805Y-91675000D01*
X153425848Y-91675005D01*
X153428545Y-91675033D01*
X153435076Y-91675461D01*
X153435088Y-91675288D01*
X153438305Y-91675498D01*
X153438321Y-91675500D01*
X153710318Y-91675499D01*
X153740904Y-91680342D01*
X153746683Y-91682219D01*
X153753591Y-91684463D01*
X153803092Y-91720423D01*
X153806088Y-91724546D01*
X153825000Y-91782736D01*
X153825000Y-91809819D01*
X153820154Y-91840412D01*
X153816032Y-91853098D01*
X153780080Y-91902589D01*
X153775959Y-91905584D01*
X153717771Y-91924500D01*
X152967235Y-91924500D01*
X152936640Y-91919654D01*
X152923952Y-91915531D01*
X152874455Y-91879569D01*
X152863851Y-91864975D01*
X152859374Y-91862913D01*
X152851272Y-91854488D01*
X152847439Y-91850000D01*
X152847438Y-91850000D01*
X151731468Y-91850000D01*
X151697441Y-91853348D01*
X151675052Y-91851584D01*
X151667092Y-91850000D01*
X151661329Y-91850000D01*
X150552562Y-91850000D01*
X150554465Y-91862017D01*
X150610548Y-91972089D01*
X150610549Y-91972090D01*
X150637015Y-91998557D01*
X150655218Y-92023611D01*
X150661274Y-92035496D01*
X150670846Y-92095927D01*
X150670846Y-92095932D01*
X150670049Y-92100963D01*
X150642274Y-92155474D01*
X150628253Y-92169496D01*
X150610138Y-92187611D01*
X150553983Y-92297821D01*
X150539500Y-92389261D01*
X150539500Y-92730739D01*
X150553981Y-92822165D01*
X150553984Y-92822178D01*
X150583389Y-92879887D01*
X150591444Y-92901719D01*
X150596764Y-92923879D01*
X150599500Y-92946989D01*
X150599500Y-93026328D01*
X150596126Y-93051954D01*
X150589608Y-93076277D01*
X150579719Y-93100151D01*
X150540422Y-93168215D01*
X150526545Y-93220002D01*
X150526546Y-93220003D01*
X150503814Y-93304844D01*
X150499500Y-93320943D01*
X150499500Y-93479057D01*
X150540423Y-93631784D01*
X150619480Y-93768716D01*
X150731284Y-93880520D01*
X150868216Y-93959577D01*
X151020943Y-94000500D01*
X151020945Y-94000500D01*
X151179055Y-94000500D01*
X151179057Y-94000500D01*
X151331784Y-93959577D01*
X151468716Y-93880520D01*
X151559410Y-93789824D01*
X151584464Y-93771621D01*
X151594211Y-93766654D01*
X151654641Y-93757083D01*
X151709158Y-93784859D01*
X151735416Y-93831733D01*
X151736088Y-93834530D01*
X151736760Y-93837330D01*
X151739500Y-93860457D01*
X151739500Y-93910738D01*
X151753981Y-94002165D01*
X151753982Y-94002172D01*
X151753983Y-94002174D01*
X151753984Y-94002178D01*
X151787985Y-94068907D01*
X151810141Y-94112391D01*
X151843031Y-94145281D01*
X151847937Y-94152243D01*
X151849042Y-94155819D01*
X151855218Y-94164320D01*
X151861273Y-94176203D01*
X151870845Y-94236634D01*
X151870845Y-94236639D01*
X151870048Y-94241670D01*
X151842273Y-94296181D01*
X151810557Y-94327897D01*
X151810558Y-94327898D01*
X151810555Y-94327900D01*
X151810554Y-94327902D01*
X151810552Y-94327904D01*
X151810552Y-94327905D01*
X151810551Y-94327906D01*
X151754465Y-94437981D01*
X151754464Y-94437983D01*
X151752561Y-94449999D01*
X151752562Y-94450000D01*
X152847436Y-94450000D01*
X152847437Y-94450000D01*
X152845534Y-94437982D01*
X152810084Y-94368407D01*
X152789450Y-94327909D01*
X152789449Y-94327908D01*
X152762984Y-94301442D01*
X152744782Y-94276389D01*
X152738724Y-94264500D01*
X152729152Y-94204077D01*
X152729951Y-94199035D01*
X152757722Y-94144526D01*
X152789859Y-94112391D01*
X152846017Y-94002175D01*
X152860500Y-93910735D01*
X152860499Y-93767225D01*
X152865345Y-93736632D01*
X152872893Y-93713402D01*
X152897041Y-93673993D01*
X153044054Y-93526981D01*
X153069101Y-93508785D01*
X153079257Y-93503610D01*
X153139686Y-93494040D01*
X153194199Y-93521815D01*
X153204682Y-93532298D01*
X153214175Y-93543615D01*
X153215063Y-93544503D01*
X153215064Y-93544505D01*
X153292994Y-93622435D01*
X153292995Y-93622435D01*
X153292996Y-93622436D01*
X153392864Y-93669006D01*
X153392865Y-93669006D01*
X153392869Y-93669008D01*
X153392875Y-93669008D01*
X153392876Y-93669009D01*
X153405250Y-93670637D01*
X153438379Y-93674999D01*
X153699997Y-93674999D01*
X153699998Y-93674999D01*
X153700000Y-93674998D01*
X153700000Y-93414680D01*
X153704843Y-93384094D01*
X153708965Y-93371405D01*
X153744923Y-93321906D01*
X153746250Y-93320943D01*
X153749063Y-93318900D01*
X153807243Y-93300000D01*
X153835320Y-93300000D01*
X153865908Y-93304843D01*
X153878595Y-93308966D01*
X153928095Y-93344927D01*
X153928096Y-93344928D01*
X153931091Y-93349050D01*
X153950000Y-93407240D01*
X153950000Y-93674998D01*
X153950001Y-93674999D01*
X153950002Y-93674999D01*
X154228815Y-93674999D01*
X154246855Y-93676657D01*
X154261710Y-93679410D01*
X154315481Y-93708604D01*
X154325986Y-93721752D01*
X154331895Y-93730596D01*
X154331896Y-93730597D01*
X154331899Y-93730601D01*
X154331902Y-93730603D01*
X154337678Y-93734462D01*
X154367975Y-93766521D01*
X154369551Y-93769196D01*
X154370632Y-93771325D01*
X154371320Y-93772197D01*
X154373775Y-93776364D01*
X154375108Y-93782376D01*
X154386867Y-93815614D01*
X154387717Y-93823210D01*
X154387484Y-93847138D01*
X154387000Y-93850810D01*
X154387000Y-95225273D01*
X154382154Y-95255866D01*
X154374607Y-95279093D01*
X154350457Y-95318504D01*
X154209044Y-95459917D01*
X154183987Y-95478121D01*
X154162229Y-95489208D01*
X154117282Y-95500000D01*
X147307300Y-95500000D01*
X147302426Y-95499880D01*
X147297557Y-95499640D01*
X147292727Y-95499283D01*
X147119456Y-95482217D01*
X147109843Y-95480791D01*
X147100343Y-95478901D01*
X147090923Y-95476541D01*
X146957138Y-95435959D01*
X146957137Y-95435959D01*
X146931292Y-95428119D01*
X146922157Y-95424850D01*
X146913208Y-95421143D01*
X146904432Y-95416993D01*
X146757313Y-95338355D01*
X146748984Y-95333363D01*
X146740942Y-95327990D01*
X146733135Y-95322200D01*
X146611272Y-95222190D01*
X146604195Y-95216382D01*
X146596996Y-95209858D01*
X146590141Y-95203003D01*
X146583617Y-95195804D01*
X146482088Y-95072091D01*
X146482086Y-95072088D01*
X146477795Y-95066859D01*
X146472009Y-95059057D01*
X146466635Y-95051014D01*
X146461641Y-95042682D01*
X146421228Y-94967075D01*
X146418524Y-94962017D01*
X146412101Y-94950000D01*
X151752562Y-94950000D01*
X151754465Y-94962017D01*
X151810547Y-95072087D01*
X151810548Y-95072088D01*
X151810550Y-95072091D01*
X151897909Y-95159450D01*
X151897911Y-95159451D01*
X151897917Y-95159455D01*
X151898225Y-95159611D01*
X152007973Y-95215532D01*
X152007974Y-95215532D01*
X152007981Y-95215534D01*
X152050000Y-95222190D01*
X152050000Y-94950001D01*
X152550000Y-94950001D01*
X152550000Y-95222188D01*
X152592017Y-95215535D01*
X152702091Y-95159449D01*
X152789449Y-95072091D01*
X152845534Y-94962018D01*
X152845535Y-94962016D01*
X152847439Y-94950000D01*
X152550002Y-94950000D01*
X152550001Y-94950000D01*
X152550000Y-94950001D01*
X152050000Y-94950001D01*
X152049999Y-94950000D01*
X152049998Y-94950000D01*
X151752562Y-94950000D01*
X146412101Y-94950000D01*
X146383004Y-94895563D01*
X146378851Y-94886782D01*
X146375151Y-94877849D01*
X146371879Y-94868703D01*
X146369391Y-94860500D01*
X146323452Y-94709062D01*
X146321098Y-94699664D01*
X146319202Y-94690132D01*
X146317782Y-94680548D01*
X146317781Y-94680542D01*
X146300715Y-94507258D01*
X146300358Y-94502421D01*
X146300119Y-94497551D01*
X146300000Y-94492698D01*
X146300000Y-91349999D01*
X150552561Y-91349999D01*
X150552562Y-91350000D01*
X150849998Y-91350000D01*
X150849999Y-91350000D01*
X150850000Y-91349999D01*
X150850000Y-91077809D01*
X151350000Y-91077809D01*
X151350000Y-91349999D01*
X151350001Y-91350000D01*
X151350002Y-91350000D01*
X151668124Y-91350000D01*
X151668538Y-91350000D01*
X151702539Y-91346649D01*
X151724929Y-91348410D01*
X151732920Y-91350000D01*
X151738667Y-91350000D01*
X152049998Y-91350000D01*
X152049999Y-91350000D01*
X152050000Y-91349999D01*
X152550000Y-91349999D01*
X152550001Y-91350000D01*
X152847436Y-91350000D01*
X152847437Y-91350000D01*
X152845534Y-91337982D01*
X152845532Y-91337978D01*
X152789451Y-91227911D01*
X152789450Y-91227910D01*
X152789449Y-91227908D01*
X152702090Y-91140549D01*
X152702088Y-91140548D01*
X152702087Y-91140547D01*
X152702078Y-91140541D01*
X152701774Y-91140387D01*
X152592034Y-91084471D01*
X152592029Y-91084469D01*
X152592028Y-91084468D01*
X152592025Y-91084467D01*
X152592016Y-91084464D01*
X152592015Y-91084463D01*
X152592013Y-91084463D01*
X152550000Y-91077809D01*
X152550000Y-91349999D01*
X152050000Y-91349999D01*
X152050000Y-91077809D01*
X152007974Y-91084466D01*
X152007973Y-91084466D01*
X151900539Y-91139209D01*
X151855593Y-91150000D01*
X151544406Y-91150000D01*
X151499460Y-91139209D01*
X151392029Y-91084469D01*
X151392028Y-91084468D01*
X151392025Y-91084467D01*
X151392016Y-91084464D01*
X151392015Y-91084463D01*
X151392013Y-91084463D01*
X151350000Y-91077809D01*
X150850000Y-91077809D01*
X150807974Y-91084466D01*
X150807971Y-91084467D01*
X150698224Y-91140387D01*
X150697922Y-91140539D01*
X150697911Y-91140547D01*
X150697909Y-91140549D01*
X150610550Y-91227908D01*
X150554465Y-91337981D01*
X150554464Y-91337983D01*
X150554464Y-91337984D01*
X150554463Y-91337987D01*
X150552651Y-91349430D01*
X150552561Y-91349999D01*
X146300000Y-91349999D01*
X146300000Y-90550000D01*
X151284147Y-90550000D01*
X151290903Y-90596376D01*
X151317608Y-90651000D01*
X151347335Y-90711807D01*
X151438193Y-90802665D01*
X151483815Y-90824968D01*
X151549998Y-90857323D01*
X151549998Y-90857322D01*
X151549999Y-90857323D01*
X151550000Y-90857323D01*
X151550000Y-90550001D01*
X151549999Y-90550000D01*
X151549998Y-90550000D01*
X151284147Y-90550000D01*
X146300000Y-90550000D01*
X146300000Y-90049997D01*
X151284144Y-90049997D01*
X151284145Y-90049998D01*
X151284145Y-90049999D01*
X151284146Y-90050000D01*
X151549998Y-90050000D01*
X151549999Y-90050000D01*
X151550000Y-90049999D01*
X151550000Y-89742675D01*
X151438194Y-89797333D01*
X151347333Y-89888194D01*
X151290901Y-90003629D01*
X151290900Y-90003633D01*
X151284144Y-90049997D01*
X146300000Y-90049997D01*
X146300000Y-84550001D01*
X151900000Y-84550001D01*
X151900000Y-86074624D01*
X151911604Y-86132961D01*
X151914506Y-86147547D01*
X151932839Y-86174985D01*
X151969758Y-86230237D01*
X151969762Y-86230241D01*
X152052451Y-86285492D01*
X152052453Y-86285493D01*
X152123688Y-86299663D01*
X152125235Y-86300000D01*
X152125377Y-86300000D01*
X152649998Y-86300000D01*
X152649999Y-86300000D01*
X152650000Y-86299999D01*
X152650000Y-84550001D01*
X153150000Y-84550001D01*
X153150000Y-86299999D01*
X153150001Y-86300000D01*
X153150002Y-86300000D01*
X153674623Y-86300000D01*
X153677912Y-86300000D01*
X153684180Y-86298097D01*
X153747546Y-86285493D01*
X153747548Y-86285492D01*
X153830237Y-86230241D01*
X153830241Y-86230237D01*
X153885492Y-86147548D01*
X153885493Y-86147546D01*
X153899665Y-86076298D01*
X153900000Y-86074764D01*
X153900000Y-84550002D01*
X153900000Y-84550001D01*
X153899999Y-84550000D01*
X153899998Y-84550000D01*
X153150002Y-84550000D01*
X153150001Y-84550000D01*
X153150000Y-84550001D01*
X152650000Y-84550001D01*
X152649999Y-84550000D01*
X152649998Y-84550000D01*
X151900002Y-84550000D01*
X151900001Y-84550000D01*
X151900000Y-84550001D01*
X146300000Y-84550001D01*
X146300000Y-83307300D01*
X146300119Y-83302447D01*
X146300358Y-83297577D01*
X146300716Y-83292726D01*
X146317782Y-83119455D01*
X146319206Y-83109850D01*
X146321098Y-83100335D01*
X146323453Y-83090934D01*
X146371881Y-82931287D01*
X146375150Y-82922152D01*
X146375225Y-82921969D01*
X146378857Y-82913204D01*
X146382992Y-82904459D01*
X146461654Y-82757292D01*
X146466628Y-82748992D01*
X146472012Y-82740934D01*
X146477784Y-82733151D01*
X146583630Y-82604178D01*
X146590134Y-82597001D01*
X146597001Y-82590134D01*
X146604178Y-82583630D01*
X146665971Y-82532918D01*
X146692693Y-82517256D01*
X146718113Y-82507307D01*
X146754192Y-82500500D01*
X151785320Y-82500500D01*
X151815908Y-82505343D01*
G37*
%TD.AperFunction*%
%TA.AperFunction,Conductor*%
G36*
X157215908Y-82505343D02*
G01*
X157228595Y-82509466D01*
X157278095Y-82545427D01*
X157278096Y-82545428D01*
X157281091Y-82549550D01*
X157300000Y-82607740D01*
X157300000Y-84049999D01*
X157300001Y-84050000D01*
X159299998Y-84050000D01*
X159299999Y-84050000D01*
X159300000Y-84049999D01*
X159300000Y-82615180D01*
X159304843Y-82584594D01*
X159308965Y-82571905D01*
X159344923Y-82522406D01*
X159345522Y-82521971D01*
X159349063Y-82519400D01*
X159407243Y-82500500D01*
X165843423Y-82500500D01*
X165874014Y-82505345D01*
X165880056Y-82507308D01*
X165899970Y-82513778D01*
X165932182Y-82531404D01*
X165995804Y-82583617D01*
X166003003Y-82590141D01*
X166009857Y-82596995D01*
X166016381Y-82604194D01*
X166122201Y-82733135D01*
X166127994Y-82740947D01*
X166133369Y-82748993D01*
X166138358Y-82757317D01*
X166216988Y-82904422D01*
X166221141Y-82913204D01*
X166224848Y-82922153D01*
X166228122Y-82931302D01*
X166276541Y-83090922D01*
X166278901Y-83100343D01*
X166280791Y-83109843D01*
X166282217Y-83119456D01*
X166299283Y-83292727D01*
X166299640Y-83297557D01*
X166299880Y-83302426D01*
X166300000Y-83307300D01*
X166300000Y-94492698D01*
X166299880Y-94497572D01*
X166299640Y-94502441D01*
X166299283Y-94507271D01*
X166282217Y-94680542D01*
X166280791Y-94690155D01*
X166278901Y-94699655D01*
X166276541Y-94709076D01*
X166228122Y-94868696D01*
X166224848Y-94877845D01*
X166221141Y-94886794D01*
X166216988Y-94895576D01*
X166138358Y-95042681D01*
X166133369Y-95051005D01*
X166127994Y-95059051D01*
X166122201Y-95066863D01*
X166016381Y-95195804D01*
X166009857Y-95203003D01*
X166003003Y-95209857D01*
X165995804Y-95216381D01*
X165866863Y-95322201D01*
X165859051Y-95327994D01*
X165851005Y-95333369D01*
X165842681Y-95338358D01*
X165695576Y-95416988D01*
X165686794Y-95421141D01*
X165677845Y-95424848D01*
X165668696Y-95428122D01*
X165509076Y-95476541D01*
X165499655Y-95478901D01*
X165490155Y-95480791D01*
X165480542Y-95482217D01*
X165307272Y-95499283D01*
X165302443Y-95499640D01*
X165297575Y-95499880D01*
X165292700Y-95500000D01*
X158990180Y-95500000D01*
X158959587Y-95495154D01*
X158946901Y-95491032D01*
X158897401Y-95455068D01*
X158897394Y-95455058D01*
X158894400Y-95450936D01*
X158875500Y-95392756D01*
X158875500Y-94550000D01*
X161097810Y-94550000D01*
X161104464Y-94592016D01*
X161104466Y-94592025D01*
X161160387Y-94701773D01*
X161160542Y-94702080D01*
X161160547Y-94702087D01*
X161160548Y-94702088D01*
X161160549Y-94702090D01*
X161247908Y-94789449D01*
X161247910Y-94789450D01*
X161247911Y-94789451D01*
X161357978Y-94845532D01*
X161357982Y-94845534D01*
X161370000Y-94847437D01*
X161370000Y-94550001D01*
X161369999Y-94550000D01*
X161369998Y-94550000D01*
X161097810Y-94550000D01*
X158875500Y-94550000D01*
X158875500Y-94050566D01*
X158875500Y-94050565D01*
X158849910Y-93955062D01*
X158810955Y-93887590D01*
X158800475Y-93869437D01*
X158748268Y-93817230D01*
X158745814Y-93814373D01*
X158743582Y-93809028D01*
X158729850Y-93788707D01*
X158729552Y-93788008D01*
X158726407Y-93780635D01*
X158724961Y-93764431D01*
X158722240Y-93757912D01*
X158723795Y-93751353D01*
X158720970Y-93719694D01*
X158747465Y-93671795D01*
X158751089Y-93668171D01*
X158795469Y-93642550D01*
X158812903Y-93637880D01*
X158812904Y-93637879D01*
X158812906Y-93637878D01*
X158812907Y-93637878D01*
X158938428Y-93565408D01*
X158938428Y-93565407D01*
X158938433Y-93565405D01*
X158938435Y-93565402D01*
X158940981Y-93563933D01*
X158942280Y-93563182D01*
X158947638Y-93556199D01*
X159040927Y-93462911D01*
X159040930Y-93462906D01*
X159113400Y-93337385D01*
X159113400Y-93337383D01*
X159113402Y-93337381D01*
X159150918Y-93197371D01*
X159150918Y-93052421D01*
X159123474Y-92950001D01*
X160150000Y-92950001D01*
X160150000Y-93424624D01*
X160160828Y-93479055D01*
X160164506Y-93497547D01*
X160176770Y-93515901D01*
X160219758Y-93580237D01*
X160219762Y-93580241D01*
X160302451Y-93635492D01*
X160302453Y-93635493D01*
X160373688Y-93649663D01*
X160375235Y-93650000D01*
X160375377Y-93650000D01*
X160749998Y-93650000D01*
X160749999Y-93650000D01*
X160750000Y-93649999D01*
X160750000Y-92950001D01*
X160749999Y-92950000D01*
X160749998Y-92950000D01*
X160150002Y-92950000D01*
X160150001Y-92950000D01*
X160150000Y-92950001D01*
X159123474Y-92950001D01*
X159113402Y-92912411D01*
X159113400Y-92912407D01*
X159061071Y-92821771D01*
X159059223Y-92817794D01*
X159057598Y-92804427D01*
X159050000Y-92776067D01*
X159050000Y-92629500D01*
X159068907Y-92571309D01*
X159118407Y-92535345D01*
X159149000Y-92530500D01*
X159559078Y-92530500D01*
X159559082Y-92530500D01*
X159634018Y-92519582D01*
X159749602Y-92463076D01*
X159840576Y-92372102D01*
X159897082Y-92256518D01*
X159908000Y-92181582D01*
X159908000Y-92090180D01*
X159912843Y-92059594D01*
X159916965Y-92046905D01*
X159952923Y-91997406D01*
X159953522Y-91996971D01*
X159957063Y-91994400D01*
X160015243Y-91975500D01*
X160035320Y-91975500D01*
X160065908Y-91980343D01*
X160078595Y-91984466D01*
X160128095Y-92020427D01*
X160128096Y-92020428D01*
X160131091Y-92024550D01*
X160150000Y-92082740D01*
X160150000Y-92449999D01*
X160150001Y-92450000D01*
X160885320Y-92450000D01*
X160915908Y-92454843D01*
X160928595Y-92458966D01*
X160978095Y-92494927D01*
X160978096Y-92494928D01*
X160981091Y-92499050D01*
X161000000Y-92557240D01*
X161000000Y-92699999D01*
X161000001Y-92700000D01*
X161135320Y-92700000D01*
X161165908Y-92704843D01*
X161178595Y-92708966D01*
X161228095Y-92744927D01*
X161228096Y-92744928D01*
X161231091Y-92749050D01*
X161250000Y-92807240D01*
X161250000Y-93649998D01*
X161250341Y-93650822D01*
X161267264Y-93674116D01*
X161273319Y-93686000D01*
X161282894Y-93746402D01*
X161282724Y-93747485D01*
X161282723Y-93747491D01*
X161260221Y-93796323D01*
X161251559Y-93806466D01*
X161246279Y-93812178D01*
X161160550Y-93897907D01*
X161160542Y-93897918D01*
X161160409Y-93898183D01*
X161104466Y-94007973D01*
X161104464Y-94007982D01*
X161097810Y-94050000D01*
X161505320Y-94050000D01*
X161535908Y-94054843D01*
X161548595Y-94058966D01*
X161598095Y-94094927D01*
X161598096Y-94094928D01*
X161601091Y-94099050D01*
X161620000Y-94157240D01*
X161620000Y-94299999D01*
X161620001Y-94300000D01*
X161755320Y-94300000D01*
X161785908Y-94304843D01*
X161798595Y-94308966D01*
X161848095Y-94344927D01*
X161848096Y-94344928D01*
X161851091Y-94349050D01*
X161870000Y-94407240D01*
X161870000Y-94847436D01*
X161870000Y-94847437D01*
X161882017Y-94845534D01*
X161992091Y-94789449D01*
X162018560Y-94762980D01*
X162043608Y-94744782D01*
X162055501Y-94738723D01*
X162115927Y-94729153D01*
X162120965Y-94729951D01*
X162175476Y-94757726D01*
X162207609Y-94789859D01*
X162317825Y-94846017D01*
X162409265Y-94860500D01*
X162750734Y-94860499D01*
X162750737Y-94860499D01*
X162777332Y-94856286D01*
X162842175Y-94846017D01*
X162952391Y-94789859D01*
X163039859Y-94702391D01*
X163096017Y-94592175D01*
X163110500Y-94500735D01*
X163110499Y-94099266D01*
X163110499Y-94099265D01*
X163110499Y-94099262D01*
X163102696Y-94050000D01*
X163096017Y-94007825D01*
X163039859Y-93897609D01*
X163039858Y-93897608D01*
X163039857Y-93897606D01*
X163022771Y-93880520D01*
X163022765Y-93880515D01*
X162995582Y-93853331D01*
X162977377Y-93828273D01*
X162969176Y-93812178D01*
X162967005Y-93807917D01*
X162957435Y-93747485D01*
X162961059Y-93732389D01*
X162964467Y-93721901D01*
X163000427Y-93672403D01*
X163001268Y-93671793D01*
X163004563Y-93669400D01*
X163062743Y-93650500D01*
X163224673Y-93650500D01*
X163224674Y-93650500D01*
X163297740Y-93635966D01*
X163380601Y-93580601D01*
X163435966Y-93497740D01*
X163450500Y-93424674D01*
X163450500Y-91975326D01*
X163435966Y-91902260D01*
X163404636Y-91855371D01*
X163380602Y-91819400D01*
X163380599Y-91819397D01*
X163380595Y-91819394D01*
X163380593Y-91819392D01*
X163297748Y-91764038D01*
X163297737Y-91764032D01*
X163290172Y-91761511D01*
X163290733Y-91759826D01*
X163265372Y-91746782D01*
X163261670Y-91748892D01*
X163227032Y-91749852D01*
X163224687Y-91749501D01*
X163224684Y-91749501D01*
X163224680Y-91749500D01*
X163224676Y-91749500D01*
X163224674Y-91749500D01*
X163224673Y-91749500D01*
X163019536Y-91749500D01*
X162988942Y-91744654D01*
X162979964Y-91741737D01*
X162969639Y-91738382D01*
X162920140Y-91702416D01*
X162914497Y-91693726D01*
X162903685Y-91674999D01*
X162900475Y-91669438D01*
X162886391Y-91655354D01*
X162858648Y-91627610D01*
X162836571Y-91593965D01*
X162834116Y-91587748D01*
X162834112Y-91587740D01*
X162833733Y-91586780D01*
X162829952Y-91525711D01*
X162862787Y-91474083D01*
X162902723Y-91454157D01*
X162905264Y-91453547D01*
X162908670Y-91452731D01*
X162931762Y-91450000D01*
X163227912Y-91450000D01*
X163234180Y-91448097D01*
X163297546Y-91435493D01*
X163297548Y-91435492D01*
X163380237Y-91380241D01*
X163380241Y-91380237D01*
X163435492Y-91297548D01*
X163435493Y-91297546D01*
X163449665Y-91226298D01*
X163450000Y-91224764D01*
X163450000Y-90750002D01*
X163450000Y-90750001D01*
X163449999Y-90750000D01*
X163449998Y-90750000D01*
X162714680Y-90750000D01*
X162684087Y-90745154D01*
X162671401Y-90741032D01*
X162621901Y-90705068D01*
X162621894Y-90705058D01*
X162618900Y-90700936D01*
X162600000Y-90642756D01*
X162600000Y-90500002D01*
X162600000Y-90500001D01*
X162599999Y-90500000D01*
X162599998Y-90500000D01*
X162464680Y-90500000D01*
X162434087Y-90495154D01*
X162421401Y-90491032D01*
X162371901Y-90455068D01*
X162371894Y-90455058D01*
X162368900Y-90450936D01*
X162350000Y-90392756D01*
X162350000Y-89586153D01*
X162350000Y-89571248D01*
X162305798Y-89550001D01*
X162850000Y-89550001D01*
X162850000Y-90249999D01*
X162850001Y-90250000D01*
X163449998Y-90250000D01*
X163449999Y-90250000D01*
X163450000Y-90249999D01*
X163450000Y-89775377D01*
X163450000Y-89775235D01*
X163449663Y-89773688D01*
X163435493Y-89702453D01*
X163435492Y-89702451D01*
X163380241Y-89619762D01*
X163380237Y-89619758D01*
X163297548Y-89564507D01*
X163297549Y-89564507D01*
X163297547Y-89564506D01*
X163282961Y-89561604D01*
X163224624Y-89550000D01*
X163224620Y-89550000D01*
X162850002Y-89550000D01*
X162850001Y-89550000D01*
X162850000Y-89550001D01*
X162305798Y-89550001D01*
X162291293Y-89543029D01*
X162283874Y-89537579D01*
X162282037Y-89535022D01*
X162281375Y-89534418D01*
X162274125Y-89529403D01*
X162270801Y-89526230D01*
X162271553Y-89525441D01*
X162267536Y-89521769D01*
X162266160Y-89521109D01*
X162265522Y-89519928D01*
X162261026Y-89515819D01*
X162260133Y-89516601D01*
X162259330Y-89515683D01*
X162258335Y-89513359D01*
X162255187Y-89510482D01*
X162254540Y-89509591D01*
X162256204Y-89508382D01*
X162244402Y-89480815D01*
X162237089Y-89467272D01*
X162237450Y-89464577D01*
X162235249Y-89459436D01*
X162243561Y-89418961D01*
X162245214Y-89406628D01*
X162245689Y-89405638D01*
X162246523Y-89404540D01*
X162246751Y-89403432D01*
X162247853Y-89401393D01*
X162251700Y-89397727D01*
X162269783Y-89373934D01*
X162272043Y-89371958D01*
X162292260Y-89358279D01*
X162309591Y-89349449D01*
X162396950Y-89262090D01*
X162396951Y-89262088D01*
X162453032Y-89152025D01*
X162453034Y-89152018D01*
X162459690Y-89110000D01*
X162052180Y-89110000D01*
X162021587Y-89105154D01*
X162008901Y-89101032D01*
X161959401Y-89065068D01*
X161959394Y-89065058D01*
X161956400Y-89060936D01*
X161937500Y-89002756D01*
X161937500Y-88860002D01*
X161937500Y-88860001D01*
X161937499Y-88860000D01*
X161937498Y-88860000D01*
X161802180Y-88860000D01*
X161771587Y-88855154D01*
X161758901Y-88851032D01*
X161709401Y-88815068D01*
X161709394Y-88815058D01*
X161706400Y-88810936D01*
X161687500Y-88752756D01*
X161687500Y-88312562D01*
X161687500Y-88312561D01*
X162187500Y-88312561D01*
X162187500Y-88609999D01*
X162187501Y-88610000D01*
X162459689Y-88610000D01*
X162459690Y-88610000D01*
X162453034Y-88567981D01*
X162453032Y-88567974D01*
X162453032Y-88567973D01*
X162397111Y-88458225D01*
X162396955Y-88457917D01*
X162396951Y-88457911D01*
X162396950Y-88457909D01*
X162309591Y-88370550D01*
X162199518Y-88314465D01*
X162199516Y-88314464D01*
X162199513Y-88314463D01*
X162199510Y-88314462D01*
X162187500Y-88312560D01*
X162187500Y-88312561D01*
X161687500Y-88312561D01*
X161687499Y-88312561D01*
X161687497Y-88312561D01*
X161675486Y-88314463D01*
X161675484Y-88314463D01*
X161675483Y-88314464D01*
X161675481Y-88314465D01*
X161620443Y-88342508D01*
X161565403Y-88370552D01*
X161565400Y-88370555D01*
X161565399Y-88370557D01*
X161538938Y-88397016D01*
X161513884Y-88415219D01*
X161502003Y-88421273D01*
X161441571Y-88430845D01*
X161441566Y-88430845D01*
X161436535Y-88430048D01*
X161382022Y-88402272D01*
X161376766Y-88397016D01*
X161349891Y-88370141D01*
X161298613Y-88344013D01*
X161274022Y-88319422D01*
X161148239Y-88299500D01*
X161148236Y-88299500D01*
X160806762Y-88299500D01*
X160806759Y-88299500D01*
X160715333Y-88313981D01*
X160715326Y-88313982D01*
X160715325Y-88313983D01*
X160715321Y-88313984D01*
X160715320Y-88313984D01*
X160715318Y-88313985D01*
X160605112Y-88370138D01*
X160517638Y-88457612D01*
X160461483Y-88567821D01*
X160447000Y-88659261D01*
X160447000Y-89060739D01*
X160461481Y-89152165D01*
X160461482Y-89152171D01*
X160461483Y-89152174D01*
X160461484Y-89152178D01*
X160465249Y-89159566D01*
X160472609Y-89174012D01*
X160473238Y-89175246D01*
X160517641Y-89262391D01*
X160584418Y-89329169D01*
X160602623Y-89354226D01*
X160613709Y-89375983D01*
X160624500Y-89420929D01*
X160624500Y-89434819D01*
X160619654Y-89465412D01*
X160615532Y-89478098D01*
X160579580Y-89527589D01*
X160575459Y-89530584D01*
X160517271Y-89549500D01*
X160375322Y-89549500D01*
X160375318Y-89549500D01*
X160375315Y-89549501D01*
X160339039Y-89556717D01*
X160302261Y-89564033D01*
X160302256Y-89564035D01*
X160219403Y-89619394D01*
X160219394Y-89619403D01*
X160164035Y-89702256D01*
X160164033Y-89702261D01*
X160149500Y-89775320D01*
X160149500Y-90499819D01*
X160144654Y-90530412D01*
X160140532Y-90543098D01*
X160104580Y-90592589D01*
X160100459Y-90595584D01*
X160042271Y-90614500D01*
X159883866Y-90614500D01*
X159853274Y-90609655D01*
X159830045Y-90602107D01*
X159790638Y-90577959D01*
X159749603Y-90536925D01*
X159749602Y-90536924D01*
X159749601Y-90536923D01*
X159673703Y-90499819D01*
X159634018Y-90480418D01*
X159559082Y-90469500D01*
X159559079Y-90469500D01*
X159115921Y-90469500D01*
X159115918Y-90469500D01*
X159040982Y-90480418D01*
X158925400Y-90536922D01*
X158834421Y-90627901D01*
X158834420Y-90627903D01*
X158826767Y-90643556D01*
X158826768Y-90643557D01*
X158777919Y-90743478D01*
X158777918Y-90743480D01*
X158776968Y-90750000D01*
X158769236Y-90803076D01*
X158767000Y-90818421D01*
X158767000Y-90818697D01*
X158766469Y-90822407D01*
X158765467Y-90824447D01*
X158762623Y-90838970D01*
X158758033Y-90853097D01*
X158722080Y-90902589D01*
X158717959Y-90905584D01*
X158659771Y-90924500D01*
X157313323Y-90924500D01*
X157309818Y-90924749D01*
X157309783Y-90924268D01*
X157282253Y-90923696D01*
X157269255Y-90921286D01*
X157262967Y-90920120D01*
X157209199Y-90890921D01*
X157198702Y-90877782D01*
X157193101Y-90869399D01*
X157189099Y-90866725D01*
X157187338Y-90865548D01*
X157157083Y-90833552D01*
X157155520Y-90830903D01*
X157154414Y-90828733D01*
X157153717Y-90827849D01*
X157151255Y-90823677D01*
X157149904Y-90817607D01*
X157138125Y-90784344D01*
X157137957Y-90782841D01*
X157137958Y-90782837D01*
X157137279Y-90776759D01*
X157137516Y-90752853D01*
X157138000Y-90749179D01*
X157137999Y-90574724D01*
X157142844Y-90544133D01*
X157150391Y-90520904D01*
X157174541Y-90481493D01*
X158040475Y-89615563D01*
X158089911Y-89529937D01*
X158115500Y-89434436D01*
X158115500Y-89335564D01*
X158115500Y-88743437D01*
X158120345Y-88712847D01*
X158125451Y-88697131D01*
X158161413Y-88647630D01*
X158174644Y-88639520D01*
X158176194Y-88638730D01*
X158236621Y-88629151D01*
X158241670Y-88629950D01*
X158296185Y-88657726D01*
X158327910Y-88689451D01*
X158433866Y-88743437D01*
X158437982Y-88745534D01*
X158450000Y-88747437D01*
X158450000Y-88450001D01*
X158950000Y-88450001D01*
X158950000Y-88747437D01*
X158962017Y-88745534D01*
X159072091Y-88689449D01*
X159159450Y-88602090D01*
X159159451Y-88602088D01*
X159215532Y-88492025D01*
X159215534Y-88492018D01*
X159222190Y-88450000D01*
X158950002Y-88450000D01*
X158950001Y-88450000D01*
X158950000Y-88450001D01*
X158450000Y-88450001D01*
X158450000Y-87652561D01*
X158950000Y-87652561D01*
X158950000Y-87949999D01*
X158950001Y-87950000D01*
X159222189Y-87950000D01*
X159222190Y-87950000D01*
X159215534Y-87907981D01*
X159215532Y-87907974D01*
X159215532Y-87907973D01*
X159159611Y-87798225D01*
X159159455Y-87797917D01*
X159159451Y-87797911D01*
X159159450Y-87797909D01*
X159072091Y-87710550D01*
X158962018Y-87654465D01*
X158962016Y-87654464D01*
X158962013Y-87654463D01*
X158962010Y-87654462D01*
X158950000Y-87652560D01*
X158950000Y-87652561D01*
X158450000Y-87652561D01*
X158449999Y-87652561D01*
X158449997Y-87652561D01*
X158437986Y-87654463D01*
X158437984Y-87654463D01*
X158437983Y-87654464D01*
X158437981Y-87654465D01*
X158382943Y-87682508D01*
X158327903Y-87710552D01*
X158327900Y-87710555D01*
X158327899Y-87710557D01*
X158301438Y-87737016D01*
X158276384Y-87755219D01*
X158264503Y-87761273D01*
X158204071Y-87770845D01*
X158204066Y-87770845D01*
X158199035Y-87770048D01*
X158144522Y-87742272D01*
X158139266Y-87737016D01*
X158112391Y-87710141D01*
X158061113Y-87684013D01*
X158036522Y-87659422D01*
X157910739Y-87639500D01*
X157910736Y-87639500D01*
X157569262Y-87639500D01*
X157569259Y-87639500D01*
X157477833Y-87653981D01*
X157477826Y-87653982D01*
X157477825Y-87653983D01*
X157477821Y-87653984D01*
X157477820Y-87653984D01*
X157477818Y-87653985D01*
X157396991Y-87695169D01*
X157396989Y-87695170D01*
X157367610Y-87710140D01*
X157367609Y-87710140D01*
X157367609Y-87710141D01*
X157334108Y-87743641D01*
X157334101Y-87743647D01*
X157293332Y-87784416D01*
X157268276Y-87802620D01*
X157246516Y-87813708D01*
X157201569Y-87824500D01*
X157040180Y-87824500D01*
X157009587Y-87819654D01*
X156996901Y-87815532D01*
X156947401Y-87779568D01*
X156947394Y-87779558D01*
X156944400Y-87775436D01*
X156925500Y-87717256D01*
X156925500Y-87550327D01*
X156925498Y-87550315D01*
X156922015Y-87532810D01*
X156922014Y-87532804D01*
X156910966Y-87477260D01*
X156855605Y-87394404D01*
X156855603Y-87394402D01*
X156855601Y-87394399D01*
X156855599Y-87394397D01*
X156855595Y-87394394D01*
X156855593Y-87394392D01*
X156772748Y-87339038D01*
X156772737Y-87339032D01*
X156772534Y-87338964D01*
X156770997Y-87338687D01*
X156706169Y-87325791D01*
X156699684Y-87324501D01*
X156699679Y-87324500D01*
X156699676Y-87324500D01*
X156699674Y-87324500D01*
X156100326Y-87324500D01*
X156100320Y-87324500D01*
X156095454Y-87324500D01*
X156095454Y-87324054D01*
X156083784Y-87323815D01*
X156067489Y-87321885D01*
X156011926Y-87296264D01*
X156011218Y-87295603D01*
X156011183Y-87295570D01*
X155983303Y-87248524D01*
X155981205Y-87240480D01*
X155978000Y-87215495D01*
X155978000Y-86415180D01*
X155982843Y-86384594D01*
X155986965Y-86371905D01*
X156022923Y-86322406D01*
X156023522Y-86321971D01*
X156027063Y-86319400D01*
X156085243Y-86300500D01*
X156374673Y-86300500D01*
X156374674Y-86300500D01*
X156447740Y-86285966D01*
X156530601Y-86230601D01*
X156585966Y-86147740D01*
X156592853Y-86113115D01*
X156599504Y-86079685D01*
X156629401Y-86026301D01*
X156684966Y-86000686D01*
X156696601Y-86000000D01*
X156749999Y-86000000D01*
X156750000Y-86000000D01*
X156750000Y-84550001D01*
X157300000Y-84550001D01*
X157300000Y-86074624D01*
X157311604Y-86132961D01*
X157314506Y-86147547D01*
X157332839Y-86174985D01*
X157369758Y-86230237D01*
X157369762Y-86230241D01*
X157452451Y-86285492D01*
X157452453Y-86285493D01*
X157523688Y-86299663D01*
X157525235Y-86300000D01*
X157525377Y-86300000D01*
X158049998Y-86300000D01*
X158049999Y-86300000D01*
X158050000Y-86299999D01*
X158050000Y-84550001D01*
X158550000Y-84550001D01*
X158550000Y-86299999D01*
X158550001Y-86300000D01*
X158550002Y-86300000D01*
X159074623Y-86300000D01*
X159077912Y-86300000D01*
X159084180Y-86298097D01*
X159147546Y-86285493D01*
X159147548Y-86285492D01*
X159230237Y-86230241D01*
X159230241Y-86230237D01*
X159285492Y-86147548D01*
X159285493Y-86147546D01*
X159299665Y-86076298D01*
X159300000Y-86074764D01*
X159300000Y-84550002D01*
X159300000Y-84550001D01*
X159299999Y-84550000D01*
X159299998Y-84550000D01*
X158550002Y-84550000D01*
X158550001Y-84550000D01*
X158550000Y-84550001D01*
X158050000Y-84550001D01*
X158049999Y-84550000D01*
X158049998Y-84550000D01*
X157300002Y-84550000D01*
X157300001Y-84550000D01*
X157300000Y-84550001D01*
X156750000Y-84550001D01*
X156750000Y-82599500D01*
X156768907Y-82541309D01*
X156818407Y-82505345D01*
X156849000Y-82500500D01*
X157185320Y-82500500D01*
X157215908Y-82505343D01*
G37*
%TD.AperFunction*%
%TA.AperFunction,Conductor*%
G36*
X158695401Y-92180343D02*
G01*
X158708088Y-92184466D01*
X158757588Y-92220427D01*
X158757591Y-92220430D01*
X158763933Y-92229159D01*
X158776374Y-92253352D01*
X158776572Y-92253271D01*
X158777566Y-92255671D01*
X158777765Y-92256058D01*
X158777922Y-92256531D01*
X158778069Y-92256827D01*
X158815073Y-92332519D01*
X158823644Y-92393101D01*
X158794969Y-92447151D01*
X158740000Y-92474024D01*
X158726132Y-92475000D01*
X158700000Y-92475000D01*
X158700000Y-92475001D01*
X158700000Y-92475396D01*
X158681093Y-92533587D01*
X158631593Y-92569551D01*
X158601000Y-92574396D01*
X158561764Y-92574396D01*
X158531171Y-92569550D01*
X158507944Y-92562003D01*
X158468533Y-92537853D01*
X158430206Y-92499526D01*
X158430206Y-92499525D01*
X158421083Y-92494258D01*
X158391585Y-92468189D01*
X158388693Y-92464360D01*
X158386032Y-92460020D01*
X158382206Y-92455771D01*
X158379636Y-92452368D01*
X158378427Y-92448869D01*
X158373604Y-92441548D01*
X158359093Y-92425000D01*
X158262607Y-92425000D01*
X158256132Y-92424788D01*
X158251738Y-92424500D01*
X157814680Y-92424500D01*
X157784087Y-92419654D01*
X157771401Y-92415532D01*
X157721901Y-92379568D01*
X157721894Y-92379558D01*
X157718900Y-92375436D01*
X157700000Y-92317256D01*
X157700000Y-92290180D01*
X157704843Y-92259594D01*
X157705838Y-92256531D01*
X157708965Y-92246905D01*
X157744923Y-92197406D01*
X157745522Y-92196971D01*
X157749063Y-92194400D01*
X157807243Y-92175500D01*
X158664813Y-92175500D01*
X158695401Y-92180343D01*
G37*
%TD.AperFunction*%
%TD*%
%TA.AperFunction,Conductor*%
%TO.N,+VBAT*%
G36*
X140607327Y-100308561D02*
G01*
X140609121Y-100310355D01*
X141475870Y-101389324D01*
X141478380Y-101397920D01*
X141476788Y-101402659D01*
X140853406Y-102444309D01*
X140846218Y-102449648D01*
X140843367Y-102450001D01*
X140356633Y-102450001D01*
X140348360Y-102446574D01*
X140346594Y-102444309D01*
X139723211Y-101402659D01*
X139721903Y-101393800D01*
X139724129Y-101389324D01*
X140590879Y-100310355D01*
X140598731Y-100306051D01*
X140607327Y-100308561D01*
G37*
%TD.AperFunction*%
%TD*%
%TA.AperFunction,Conductor*%
%TO.N,+VBAT*%
G36*
X140495198Y-105311678D02*
G01*
X141317864Y-105398781D01*
X141325729Y-105403059D01*
X141328278Y-105411526D01*
X141301548Y-105691875D01*
X141297352Y-105699785D01*
X141291975Y-105702279D01*
X140528578Y-105839813D01*
X140521684Y-105838959D01*
X140151509Y-105671613D01*
X140145382Y-105665083D01*
X140145668Y-105656132D01*
X140148053Y-105652682D01*
X140485695Y-105315040D01*
X140493967Y-105311614D01*
X140495198Y-105311678D01*
G37*
%TD.AperFunction*%
%TD*%
%TA.AperFunction,Conductor*%
%TO.N,+VBAT*%
G36*
X140678016Y-105401445D02*
G01*
X141124753Y-105615536D01*
X141278983Y-105689449D01*
X141284963Y-105696115D01*
X141284478Y-105705056D01*
X141278983Y-105710551D01*
X140678019Y-105998553D01*
X140671671Y-105999630D01*
X140235408Y-105951156D01*
X140227564Y-105946837D01*
X140225000Y-105939528D01*
X140225000Y-105460471D01*
X140228427Y-105452198D01*
X140235406Y-105448843D01*
X140671674Y-105400369D01*
X140678016Y-105401445D01*
G37*
%TD.AperFunction*%
%TD*%
%TA.AperFunction,Conductor*%
%TO.N,+VBAT*%
G36*
X138557392Y-105354737D02*
G01*
X139187030Y-105448514D01*
X139194708Y-105453122D01*
X139197006Y-105460086D01*
X139197006Y-105939913D01*
X139193579Y-105948186D01*
X139187030Y-105951485D01*
X138557421Y-106045257D01*
X138548733Y-106043087D01*
X138544125Y-106035409D01*
X138544110Y-106035308D01*
X138499209Y-105701553D01*
X138499209Y-105698446D01*
X138544102Y-105364752D01*
X138548601Y-105357012D01*
X138557257Y-105354718D01*
X138557392Y-105354737D01*
G37*
%TD.AperFunction*%
%TD*%
%TA.AperFunction,Conductor*%
%TO.N,+VBAT*%
G36*
X139394179Y-105467858D02*
G01*
X139397006Y-105475484D01*
X139397006Y-105929442D01*
X139393579Y-105937715D01*
X139385306Y-105941142D01*
X139379331Y-105939502D01*
X139066996Y-105754000D01*
X139061633Y-105746829D01*
X139062911Y-105737965D01*
X139065341Y-105735070D01*
X139377680Y-105466610D01*
X139386187Y-105463817D01*
X139394179Y-105467858D01*
G37*
%TD.AperFunction*%
%TD*%
%TA.AperFunction,Conductor*%
%TO.N,+VBAT*%
G36*
X139457392Y-105354737D02*
G01*
X140087030Y-105448514D01*
X140094708Y-105453122D01*
X140097006Y-105460086D01*
X140097006Y-105939913D01*
X140093579Y-105948186D01*
X140087030Y-105951485D01*
X139457421Y-106045257D01*
X139448733Y-106043087D01*
X139444125Y-106035409D01*
X139444110Y-106035308D01*
X139399209Y-105701553D01*
X139399209Y-105698446D01*
X139444102Y-105364752D01*
X139448601Y-105357012D01*
X139457257Y-105354718D01*
X139457392Y-105354737D01*
G37*
%TD.AperFunction*%
%TD*%
%TA.AperFunction,Conductor*%
%TO.N,+VBAT*%
G36*
X139351266Y-105356912D02*
G01*
X139355874Y-105364590D01*
X139355898Y-105364754D01*
X139400790Y-105698440D01*
X139400790Y-105701560D01*
X139355898Y-106035245D01*
X139351398Y-106042987D01*
X139342742Y-106045281D01*
X139342578Y-106045257D01*
X138712970Y-105951485D01*
X138705292Y-105946877D01*
X138702994Y-105939913D01*
X138702994Y-105460086D01*
X138706421Y-105451813D01*
X138712969Y-105448514D01*
X139342578Y-105354742D01*
X139351266Y-105356912D01*
G37*
%TD.AperFunction*%
%TD*%
M02*
