%TF.GenerationSoftware,KiCad,Pcbnew,10.0.0*%
%TF.CreationDate,2026-09-07T00:58:55-05:00*%
%TF.ProjectId,no_fly_zone,6e6f5f66-6c79-45f7-9a6f-6e652e6b6963,rev?*%
%TF.SameCoordinates,Original*%
%TF.FileFunction,Paste,Top*%
%TF.FilePolarity,Positive*%
%FSLAX46Y46*%
G04 Gerber Fmt 4.6, Leading zero omitted, Abs format (unit mm)*
G04 Created by KiCad (PCBNEW 10.0.0) date 2026-09-07 00:58:55*
%MOMM*%
%LPD*%
G01*
G04 APERTURE LIST*
G04 Aperture macros list*
%AMRoundRect*
0 Rectangle with rounded corners*
0 $1 Rounding radius*
0 $2 $3 $4 $5 $6 $7 $8 $9 X,Y pos of 4 corners*
0 Add a 4 corners polygon primitive as box body*
4,1,4,$2,$3,$4,$5,$6,$7,$8,$9,$2,$3,0*
0 Add four circle primitives for the rounded corners*
1,1,$1+$1,$2,$3*
1,1,$1+$1,$4,$5*
1,1,$1+$1,$6,$7*
1,1,$1+$1,$8,$9*
0 Add four rect primitives between the rounded corners*
20,1,$1+$1,$2,$3,$4,$5,0*
20,1,$1+$1,$4,$5,$6,$7,0*
20,1,$1+$1,$6,$7,$8,$9,0*
20,1,$1+$1,$8,$9,$2,$3,0*%
G04 Aperture macros list end*
%ADD10RoundRect,0.200000X-0.275000X0.200000X-0.275000X-0.200000X0.275000X-0.200000X0.275000X0.200000X0*%
%ADD11RoundRect,0.200000X-0.200000X-0.275000X0.200000X-0.275000X0.200000X0.275000X-0.200000X0.275000X0*%
%ADD12R,1.200000X1.400000*%
%ADD13R,0.250000X0.900000*%
%ADD14R,0.900000X0.250000*%
%ADD15R,1.500000X3.500000*%
%ADD16R,1.600000X1.400000*%
%ADD17RoundRect,0.135000X-0.185000X0.135000X-0.185000X-0.135000X0.185000X-0.135000X0.185000X0.135000X0*%
%ADD18RoundRect,0.218750X0.218750X0.256250X-0.218750X0.256250X-0.218750X-0.256250X0.218750X-0.256250X0*%
%ADD19RoundRect,0.225000X0.225000X0.250000X-0.225000X0.250000X-0.225000X-0.250000X0.225000X-0.250000X0*%
%ADD20RoundRect,0.140000X-0.170000X0.140000X-0.170000X-0.140000X0.170000X-0.140000X0.170000X0.140000X0*%
%ADD21RoundRect,0.140000X0.170000X-0.140000X0.170000X0.140000X-0.170000X0.140000X-0.170000X-0.140000X0*%
%ADD22RoundRect,0.150000X-0.625000X0.150000X-0.625000X-0.150000X0.625000X-0.150000X0.625000X0.150000X0*%
%ADD23RoundRect,0.250000X-0.650000X0.350000X-0.650000X-0.350000X0.650000X-0.350000X0.650000X0.350000X0*%
%ADD24R,0.550000X0.250000*%
%ADD25RoundRect,0.140000X-0.140000X-0.170000X0.140000X-0.170000X0.140000X0.170000X-0.140000X0.170000X0*%
%ADD26RoundRect,0.225000X0.250000X-0.225000X0.250000X0.225000X-0.250000X0.225000X-0.250000X-0.225000X0*%
%ADD27R,2.400000X1.900000*%
%ADD28RoundRect,0.100000X0.100000X-0.125000X0.100000X0.125000X-0.100000X0.125000X-0.100000X-0.125000X0*%
%ADD29RoundRect,0.135000X0.135000X0.185000X-0.135000X0.185000X-0.135000X-0.185000X0.135000X-0.185000X0*%
%ADD30RoundRect,0.140000X0.140000X0.170000X-0.140000X0.170000X-0.140000X-0.170000X0.140000X-0.170000X0*%
%ADD31RoundRect,0.250000X0.255000X-0.255000X0.255000X0.255000X-0.255000X0.255000X-0.255000X-0.255000X0*%
%ADD32RoundRect,0.062500X0.062500X-0.350000X0.062500X0.350000X-0.062500X0.350000X-0.062500X-0.350000X0*%
%ADD33RoundRect,0.062500X0.350000X-0.062500X0.350000X0.062500X-0.350000X0.062500X-0.350000X-0.062500X0*%
%ADD34RoundRect,0.225000X-0.225000X-0.250000X0.225000X-0.250000X0.225000X0.250000X-0.225000X0.250000X0*%
%ADD35RoundRect,0.250000X0.650000X-1.000000X0.650000X1.000000X-0.650000X1.000000X-0.650000X-1.000000X0*%
%ADD36RoundRect,0.100000X-0.100000X0.175000X-0.100000X-0.175000X0.100000X-0.175000X0.100000X0.175000X0*%
%ADD37RoundRect,0.100000X-0.175000X0.100000X-0.175000X-0.100000X0.175000X-0.100000X0.175000X0.100000X0*%
%ADD38RoundRect,0.225000X-0.250000X0.225000X-0.250000X-0.225000X0.250000X-0.225000X0.250000X0.225000X0*%
%ADD39R,0.500000X2.300000*%
%ADD40R,2.000000X2.500000*%
%ADD41R,0.740000X2.790000*%
%ADD42RoundRect,0.075000X-0.700000X-0.075000X0.700000X-0.075000X0.700000X0.075000X-0.700000X0.075000X0*%
%ADD43RoundRect,0.075000X-0.075000X-0.700000X0.075000X-0.700000X0.075000X0.700000X-0.075000X0.700000X0*%
G04 APERTURE END LIST*
D10*
%TO.C,R2*%
X149500000Y-96287499D03*
X149500000Y-97937499D03*
%TD*%
D11*
%TO.C,R1*%
X143875000Y-111800000D03*
X145525000Y-111800000D03*
%TD*%
D12*
%TO.C,Y2*%
X162600000Y-92700000D03*
X162600000Y-90500000D03*
X161000000Y-90500000D03*
X161000000Y-92700000D03*
%TD*%
D13*
%TO.C,U2*%
X165550000Y-100575000D03*
X166050000Y-100575000D03*
X166550000Y-100575000D03*
X167050000Y-100575000D03*
D14*
X167400000Y-99725000D03*
X167400000Y-99225000D03*
X167400000Y-98725000D03*
D13*
X167050000Y-97875000D03*
X166550000Y-97875000D03*
X166050000Y-97875000D03*
X165550000Y-97875000D03*
D14*
X165200000Y-98725000D03*
X165200000Y-99225000D03*
X165200000Y-99725000D03*
%TD*%
D15*
%TO.C,J4*%
X155600000Y-84300000D03*
X158300000Y-84300000D03*
X152900000Y-84300000D03*
%TD*%
D16*
%TO.C,SW1*%
X173100000Y-112000000D03*
X165900000Y-112000000D03*
X173100000Y-109000000D03*
X165900000Y-109000000D03*
%TD*%
D17*
%TO.C,R12*%
X159337500Y-90990000D03*
X159337500Y-92010000D03*
%TD*%
D18*
%TO.C,D5*%
X173887501Y-92000000D03*
X172312499Y-92000000D03*
%TD*%
%TO.C,D3*%
X173887501Y-101450000D03*
X172312499Y-101450000D03*
%TD*%
D19*
%TO.C,C11*%
X146800000Y-105700000D03*
X145250000Y-105700000D03*
%TD*%
D20*
%TO.C,C24*%
X152300000Y-93740000D03*
X152300000Y-94700000D03*
%TD*%
D21*
%TO.C,C22*%
X152300000Y-92560000D03*
X152300000Y-91600000D03*
%TD*%
D22*
%TO.C,J1*%
X141300000Y-104700000D03*
X141300000Y-105700000D03*
X141300000Y-106700000D03*
X141300000Y-107700000D03*
X141300000Y-108700000D03*
X141300000Y-109700000D03*
X141300000Y-110700000D03*
X141300000Y-111700000D03*
D23*
X137425000Y-103400000D03*
X137425000Y-113000000D03*
%TD*%
D24*
%TO.C,FL1*%
X155550000Y-87700000D03*
X155550000Y-88200000D03*
X155550000Y-88700000D03*
X156400000Y-88700000D03*
X156400000Y-88200000D03*
X156400000Y-87700000D03*
%TD*%
D25*
%TO.C,C26*%
X160977500Y-88860000D03*
X161937500Y-88860000D03*
%TD*%
D18*
%TO.C,D2*%
X173887501Y-98250000D03*
X172312499Y-98250000D03*
%TD*%
D26*
%TO.C,C14*%
X169300000Y-99700000D03*
X169300000Y-98150000D03*
%TD*%
D27*
%TO.C,Y1*%
X145700000Y-99500000D03*
X145700000Y-103600000D03*
%TD*%
D28*
%TO.C,U6*%
X160600000Y-112049999D03*
X161400000Y-112049999D03*
X161000000Y-110900000D03*
%TD*%
D29*
%TO.C,R11*%
X152820000Y-90300000D03*
X151800000Y-90300000D03*
%TD*%
D25*
%TO.C,C23*%
X157740000Y-88200000D03*
X158700000Y-88200000D03*
%TD*%
D30*
%TO.C,C25*%
X162580000Y-94300000D03*
X161620000Y-94300000D03*
%TD*%
D31*
%TO.C,U7*%
X155137500Y-92925000D03*
X156387500Y-92925000D03*
X155137500Y-91675000D03*
X156387500Y-91675000D03*
D32*
X154762500Y-94237500D03*
X155262500Y-94237500D03*
X155762500Y-94237500D03*
X156262500Y-94237500D03*
X156762500Y-94237500D03*
D33*
X157700000Y-93300000D03*
X157700000Y-92800000D03*
X157700000Y-92300000D03*
X157700000Y-91800000D03*
X157700000Y-91300000D03*
D32*
X156762500Y-90362500D03*
X156262500Y-90362500D03*
X155762500Y-90362500D03*
X155262500Y-90362500D03*
X154762500Y-90362500D03*
D33*
X153825000Y-91300000D03*
X153825000Y-91800000D03*
X153825000Y-92300000D03*
X153825000Y-92800000D03*
X153825000Y-93300000D03*
%TD*%
D34*
%TO.C,C13*%
X167500000Y-96000000D03*
X169050000Y-96000000D03*
%TD*%
D35*
%TO.C,D4*%
X140600000Y-100300001D03*
X140600000Y-96299999D03*
%TD*%
D36*
%TO.C,U3*%
X166600000Y-104075000D03*
X166000000Y-104075000D03*
D37*
X165375000Y-104400000D03*
X165375000Y-105000000D03*
X165375000Y-105600000D03*
D36*
X166000000Y-105925000D03*
X166600000Y-105925000D03*
D37*
X167225000Y-105600000D03*
X167225000Y-105000000D03*
X167225000Y-104400000D03*
%TD*%
D38*
%TO.C,C15*%
X169000000Y-104225000D03*
X169000000Y-105775000D03*
%TD*%
D18*
%TO.C,D1*%
X173900000Y-95100000D03*
X172324998Y-95100000D03*
%TD*%
D39*
%TO.C,J3*%
X159800000Y-114900000D03*
X160600000Y-114900000D03*
X161400000Y-114900000D03*
X162200000Y-114900000D03*
X163000000Y-114900000D03*
D40*
X156950000Y-115000000D03*
X156950000Y-120500000D03*
X165850000Y-115000000D03*
X165850000Y-120500000D03*
%TD*%
D21*
%TO.C,C21*%
X151100000Y-92560000D03*
X151100000Y-91600000D03*
%TD*%
D19*
%TO.C,C10*%
X146800000Y-97400000D03*
X145250000Y-97400000D03*
%TD*%
D41*
%TO.C,J2*%
X153600000Y-115165000D03*
X153600000Y-119235000D03*
X152330000Y-115165000D03*
X152330000Y-119235000D03*
X151060000Y-115165000D03*
X151060000Y-119235000D03*
X149790000Y-115165000D03*
X149790000Y-119235000D03*
X148520000Y-115165000D03*
X148520000Y-119235000D03*
X147250000Y-115165000D03*
X147250000Y-119235000D03*
X145980000Y-115165000D03*
X145980000Y-119235000D03*
%TD*%
D42*
%TO.C,U1*%
X149175000Y-100425001D03*
X149175000Y-100925000D03*
X149175000Y-101425000D03*
X149175000Y-101925000D03*
X149175000Y-102425000D03*
X149175000Y-102925001D03*
X149175000Y-103425000D03*
X149175000Y-103925000D03*
X149175000Y-104425000D03*
X149175000Y-104925000D03*
X149175000Y-105424999D03*
X149175000Y-105925000D03*
X149175000Y-106425000D03*
X149175000Y-106925000D03*
X149175000Y-107425000D03*
X149175000Y-107924999D03*
D43*
X151100001Y-109850000D03*
X151600000Y-109850000D03*
X152100000Y-109850000D03*
X152600000Y-109850000D03*
X153100000Y-109850000D03*
X153600001Y-109850000D03*
X154100000Y-109850000D03*
X154600000Y-109850000D03*
X155100000Y-109850000D03*
X155600000Y-109850000D03*
X156099999Y-109850000D03*
X156600000Y-109850000D03*
X157100000Y-109850000D03*
X157600000Y-109850000D03*
X158100000Y-109850000D03*
X158599999Y-109850000D03*
D42*
X160525000Y-107924999D03*
X160525000Y-107425000D03*
X160525000Y-106925000D03*
X160525000Y-106425000D03*
X160525000Y-105925000D03*
X160525000Y-105424999D03*
X160525000Y-104925000D03*
X160525000Y-104425000D03*
X160525000Y-103925000D03*
X160525000Y-103425000D03*
X160525000Y-102925001D03*
X160525000Y-102425000D03*
X160525000Y-101925000D03*
X160525000Y-101425000D03*
X160525000Y-100925000D03*
X160525000Y-100425001D03*
D43*
X158599999Y-98500000D03*
X158100000Y-98500000D03*
X157600000Y-98500000D03*
X157100000Y-98500000D03*
X156600000Y-98500000D03*
X156099999Y-98500000D03*
X155600000Y-98500000D03*
X155100000Y-98500000D03*
X154600000Y-98500000D03*
X154100000Y-98500000D03*
X153600001Y-98500000D03*
X153100000Y-98500000D03*
X152600000Y-98500000D03*
X152100000Y-98500000D03*
X151600000Y-98500000D03*
X151100001Y-98500000D03*
%TD*%
M02*
