%TF.GenerationSoftware,KiCad,Pcbnew,10.0.0*%
%TF.CreationDate,2026-09-07T00:58:55-05:00*%
%TF.ProjectId,no_fly_zone,6e6f5f66-6c79-45f7-9a6f-6e652e6b6963,rev?*%
%TF.SameCoordinates,Original*%
%TF.FileFunction,Copper,L4,Bot*%
%TF.FilePolarity,Positive*%
%FSLAX46Y46*%
G04 Gerber Fmt 4.6, Leading zero omitted, Abs format (unit mm)*
G04 Created by KiCad (PCBNEW 10.0.0) date 2026-09-07 00:58:55*
%MOMM*%
%LPD*%
G01*
G04 APERTURE LIST*
G04 Aperture macros list*
%AMRoundRect*
0 Rectangle with rounded corners*
0 $1 Rounding radius*
0 $2 $3 $4 $5 $6 $7 $8 $9 X,Y pos of 4 corners*
0 Add a 4 corners polygon primitive as box body*
4,1,4,$2,$3,$4,$5,$6,$7,$8,$9,$2,$3,0*
0 Add four circle primitives for the rounded corners*
1,1,$1+$1,$2,$3*
1,1,$1+$1,$4,$5*
1,1,$1+$1,$6,$7*
1,1,$1+$1,$8,$9*
0 Add four rect primitives between the rounded corners*
20,1,$1+$1,$2,$3,$4,$5,0*
20,1,$1+$1,$4,$5,$6,$7,0*
20,1,$1+$1,$6,$7,$8,$9,0*
20,1,$1+$1,$8,$9,$2,$3,0*%
G04 Aperture macros list end*
%TA.AperFunction,SMDPad,CuDef*%
%ADD10RoundRect,0.250000X-0.475000X0.250000X-0.475000X-0.250000X0.475000X-0.250000X0.475000X0.250000X0*%
%TD*%
%TA.AperFunction,SMDPad,CuDef*%
%ADD11R,1.500000X3.500000*%
%TD*%
%TA.AperFunction,ComponentPad*%
%ADD12C,5.600000*%
%TD*%
%TA.AperFunction,SMDPad,CuDef*%
%ADD13RoundRect,0.250000X-0.450000X0.262500X-0.450000X-0.262500X0.450000X-0.262500X0.450000X0.262500X0*%
%TD*%
%TA.AperFunction,SMDPad,CuDef*%
%ADD14RoundRect,0.225000X-0.250000X0.225000X-0.250000X-0.225000X0.250000X-0.225000X0.250000X0.225000X0*%
%TD*%
%TA.AperFunction,SMDPad,CuDef*%
%ADD15RoundRect,0.250000X-0.262500X-0.450000X0.262500X-0.450000X0.262500X0.450000X-0.262500X0.450000X0*%
%TD*%
%TA.AperFunction,SMDPad,CuDef*%
%ADD16RoundRect,0.225000X0.250000X-0.225000X0.250000X0.225000X-0.250000X0.225000X-0.250000X-0.225000X0*%
%TD*%
%TA.AperFunction,SMDPad,CuDef*%
%ADD17RoundRect,0.225000X0.225000X0.250000X-0.225000X0.250000X-0.225000X-0.250000X0.225000X-0.250000X0*%
%TD*%
%TA.AperFunction,SMDPad,CuDef*%
%ADD18RoundRect,0.200000X-0.275000X0.200000X-0.275000X-0.200000X0.275000X-0.200000X0.275000X0.200000X0*%
%TD*%
%TA.AperFunction,SMDPad,CuDef*%
%ADD19RoundRect,0.218750X-0.218750X-0.381250X0.218750X-0.381250X0.218750X0.381250X-0.218750X0.381250X0*%
%TD*%
%TA.AperFunction,SMDPad,CuDef*%
%ADD20RoundRect,0.150000X0.512500X0.150000X-0.512500X0.150000X-0.512500X-0.150000X0.512500X-0.150000X0*%
%TD*%
%TA.AperFunction,SMDPad,CuDef*%
%ADD21RoundRect,0.200000X0.275000X-0.200000X0.275000X0.200000X-0.275000X0.200000X-0.275000X-0.200000X0*%
%TD*%
%TA.AperFunction,SMDPad,CuDef*%
%ADD22R,0.800000X1.000000*%
%TD*%
%TA.AperFunction,SMDPad,CuDef*%
%ADD23R,1.500000X0.700000*%
%TD*%
%TA.AperFunction,SMDPad,CuDef*%
%ADD24RoundRect,0.062500X-0.117500X-0.062500X0.117500X-0.062500X0.117500X0.062500X-0.117500X0.062500X0*%
%TD*%
%TA.AperFunction,SMDPad,CuDef*%
%ADD25RoundRect,0.150000X-0.512500X-0.150000X0.512500X-0.150000X0.512500X0.150000X-0.512500X0.150000X0*%
%TD*%
%TA.AperFunction,ViaPad*%
%ADD26C,0.600000*%
%TD*%
%TA.AperFunction,ViaPad*%
%ADD27C,0.700000*%
%TD*%
%TA.AperFunction,Conductor*%
%ADD28C,0.500000*%
%TD*%
%TA.AperFunction,Conductor*%
%ADD29C,0.300000*%
%TD*%
%TA.AperFunction,Conductor*%
%ADD30C,0.250000*%
%TD*%
%TA.AperFunction,Conductor*%
%ADD31C,0.355000*%
%TD*%
G04 APERTURE END LIST*
D10*
%TO.P,C20,1*%
%TO.N,+5V*%
X145120000Y-102640000D03*
%TO.P,C20,2*%
%TO.N,GND*%
X145120000Y-104540000D03*
%TD*%
D11*
%TO.P,J4,G3*%
%TO.N,GND*%
X158300000Y-84300000D03*
%TO.P,J4,G4*%
X152900000Y-84300000D03*
%TD*%
D12*
%TO.P,H2,1,1_1*%
%TO.N,GND*%
X171300000Y-87300000D03*
%TD*%
%TO.P,H3,1,1_1*%
%TO.N,GND*%
X141300000Y-117300000D03*
%TD*%
%TO.P,H4,1,1_1*%
%TO.N,GND*%
X171300000Y-117300000D03*
%TD*%
%TO.P,H1,1,1_1*%
%TO.N,GND*%
X141300000Y-87300000D03*
%TD*%
D13*
%TO.P,R6,1*%
%TO.N,+5V*%
X147250000Y-102687500D03*
%TO.P,R6,2*%
%TO.N,/Power/BUCK_FB*%
X147250000Y-104512500D03*
%TD*%
D14*
%TO.P,C9,1*%
%TO.N,/MCU/NRST*%
X168100000Y-109750000D03*
%TO.P,C9,2*%
%TO.N,GND*%
X168100000Y-111300000D03*
%TD*%
D15*
%TO.P,R9,1*%
%TO.N,+VBAT*%
X139775000Y-111900000D03*
%TO.P,R9,2*%
%TO.N,/MCU/ADC_IN6*%
X141600000Y-111900000D03*
%TD*%
D14*
%TO.P,C4,1*%
%TO.N,+3V3*%
X149500000Y-100525000D03*
%TO.P,C4,2*%
%TO.N,GND*%
X149500000Y-102075000D03*
%TD*%
%TO.P,C17,1*%
%TO.N,+VBAT*%
X138700000Y-106825000D03*
%TO.P,C17,2*%
%TO.N,GND*%
X138700000Y-108375000D03*
%TD*%
%TO.P,C18,1*%
%TO.N,/Power/LDO_VIN*%
X141700000Y-94225000D03*
%TO.P,C18,2*%
%TO.N,GND*%
X141700000Y-95775000D03*
%TD*%
D16*
%TO.P,C3,1*%
%TO.N,+3V3*%
X159200000Y-99175000D03*
%TO.P,C3,2*%
%TO.N,GND*%
X159200000Y-97625000D03*
%TD*%
D14*
%TO.P,C1,1*%
%TO.N,+3V3*%
X153600000Y-100525000D03*
%TO.P,C1,2*%
%TO.N,GND*%
X153600000Y-102075000D03*
%TD*%
%TO.P,C19,1*%
%TO.N,+3V3*%
X148700000Y-96800000D03*
%TO.P,C19,2*%
%TO.N,GND*%
X148700000Y-98350000D03*
%TD*%
D16*
%TO.P,C8,1*%
%TO.N,+3V3*%
X151900000Y-106400000D03*
%TO.P,C8,2*%
%TO.N,GND*%
X151900000Y-104850000D03*
%TD*%
D17*
%TO.P,C16,1*%
%TO.N,/Power/BUCK_BOOT*%
X142700000Y-102900000D03*
%TO.P,C16,2*%
%TO.N,/Power/BUCK_SW*%
X141150000Y-102900000D03*
%TD*%
%TO.P,C2,1*%
%TO.N,+3V3*%
X152575000Y-110100000D03*
%TO.P,C2,2*%
%TO.N,GND*%
X151025000Y-110100000D03*
%TD*%
D14*
%TO.P,C6,1*%
%TO.N,+3V3*%
X151900000Y-100500000D03*
%TO.P,C6,2*%
%TO.N,GND*%
X151900000Y-102050000D03*
%TD*%
D16*
%TO.P,C12,1*%
%TO.N,/MCU/VCAP*%
X157900000Y-111175000D03*
%TO.P,C12,2*%
%TO.N,GND*%
X157900000Y-109625000D03*
%TD*%
D18*
%TO.P,R7,1*%
%TO.N,Net-(D5-K)*%
X170200000Y-91925000D03*
%TO.P,R7,2*%
%TO.N,GND*%
X170200000Y-93575000D03*
%TD*%
D19*
%TO.P,L1,1,1_1*%
%TO.N,/Power/BUCK_SW*%
X140925000Y-101012500D03*
%TO.P,L1,2,2_2*%
%TO.N,+5V*%
X143050000Y-101012500D03*
%TD*%
D20*
%TO.P,U4,1,CB_1*%
%TO.N,/Power/BUCK_BOOT*%
X143025000Y-104750000D03*
%TO.P,U4,2,GND_2*%
%TO.N,GND*%
X143025000Y-105700000D03*
%TO.P,U4,3,FB_3*%
%TO.N,/Power/BUCK_FB*%
X143025000Y-106650000D03*
%TO.P,U4,4,EN_4*%
%TO.N,+VBAT*%
X140750000Y-106650000D03*
%TO.P,U4,5,VIN_5*%
X140750000Y-105700000D03*
%TO.P,U4,6,SW_6*%
%TO.N,/Power/BUCK_SW*%
X140750000Y-104750000D03*
%TD*%
D16*
%TO.P,C7,1*%
%TO.N,+3V3*%
X153600000Y-106400000D03*
%TO.P,C7,2*%
%TO.N,GND*%
X153600000Y-104850000D03*
%TD*%
D17*
%TO.P,C5,1*%
%TO.N,+3V3*%
X159250000Y-107500000D03*
%TO.P,C5,2*%
%TO.N,GND*%
X157700000Y-107500000D03*
%TD*%
D21*
%TO.P,R4,1*%
%TO.N,/MCU/STAT2*%
X170200000Y-99850000D03*
%TO.P,R4,2*%
%TO.N,Net-(D2-A)*%
X170200000Y-98200000D03*
%TD*%
D15*
%TO.P,R10,1*%
%TO.N,/MCU/ADC_IN6*%
X143400000Y-111900000D03*
%TO.P,R10,2*%
%TO.N,GND*%
X145225000Y-111900000D03*
%TD*%
D22*
%TO.P,SW2,*%
%TO.N,*%
X136945000Y-98650000D03*
X139155000Y-98650000D03*
X136945000Y-91350000D03*
X139155000Y-91350000D03*
D23*
%TO.P,SW2,1,A_1*%
%TO.N,+5V*%
X139805000Y-97250000D03*
%TO.P,SW2,2,B_2*%
%TO.N,/Power/LDO_VIN*%
X139805000Y-94250000D03*
%TO.P,SW2,3,C_3*%
%TO.N,+VBUS*%
X139805000Y-92750000D03*
%TD*%
D13*
%TO.P,R8,1*%
%TO.N,/Power/BUCK_FB*%
X145300000Y-106800000D03*
%TO.P,R8,2*%
%TO.N,GND*%
X145300000Y-108625000D03*
%TD*%
D24*
%TO.P,D6,1,A1_1*%
%TO.N,GND*%
X161700000Y-113100000D03*
%TO.P,D6,2,A2_2*%
%TO.N,+VBUS*%
X160860000Y-113100000D03*
%TD*%
D18*
%TO.P,R5,1*%
%TO.N,Net-(D3-A)*%
X170200000Y-101400000D03*
%TO.P,R5,2*%
%TO.N,/MCU/STAT3*%
X170200000Y-103050000D03*
%TD*%
D21*
%TO.P,R3,1*%
%TO.N,/MCU/STAT1*%
X170200000Y-96675000D03*
%TO.P,R3,2*%
%TO.N,Net-(D1-A)*%
X170200000Y-95025000D03*
%TD*%
D25*
%TO.P,U5,1,VIN_1*%
%TO.N,/Power/LDO_VIN*%
X144525000Y-96749999D03*
%TO.P,U5,2,GND_2*%
%TO.N,GND*%
X144525000Y-95800000D03*
%TO.P,U5,3,EN_3*%
%TO.N,/Power/LDO_VIN*%
X144525000Y-94850001D03*
%TO.P,U5,4,NC_4*%
%TO.N,unconnected-(U5-NC-Pad4)*%
X146800000Y-94850001D03*
%TO.P,U5,5,VOUT_5*%
%TO.N,+3V3*%
X146800000Y-96749999D03*
%TD*%
D26*
%TO.N,GND*%
X150570000Y-95910000D03*
D27*
X146800000Y-85900000D03*
X146800000Y-88900000D03*
X171200000Y-107000000D03*
D26*
X174800000Y-98250000D03*
X167300000Y-103000000D03*
D27*
X152200000Y-87000000D03*
X159800000Y-85400000D03*
X164300000Y-112400000D03*
X173000000Y-106100000D03*
X146800000Y-82900000D03*
X150200000Y-88900000D03*
X148500000Y-92700000D03*
X157400000Y-87000000D03*
X148500000Y-85200000D03*
X148500000Y-88200000D03*
X160200000Y-97600000D03*
D26*
X164600000Y-104400000D03*
D27*
X162300000Y-82900000D03*
X165700000Y-84400000D03*
X150200000Y-90400000D03*
D26*
X164200000Y-97600000D03*
D27*
X151300000Y-111200000D03*
X146800000Y-91900000D03*
X161025000Y-84400000D03*
X175400000Y-106100000D03*
X148700000Y-99300000D03*
X172400000Y-105200000D03*
X157200000Y-99800000D03*
X170600000Y-106100000D03*
X146800000Y-90400000D03*
X174900000Y-95100000D03*
X147300000Y-113165000D03*
X164300000Y-111300000D03*
X153800000Y-103400000D03*
X159800000Y-88600000D03*
X162325000Y-87400000D03*
X158300000Y-84200000D03*
X146800000Y-87400000D03*
X146800000Y-84400000D03*
D26*
X163400000Y-106900000D03*
X171400000Y-93600000D03*
D27*
X143000000Y-97900000D03*
X142100000Y-97300000D03*
X144200000Y-105600000D03*
X149800000Y-113165000D03*
X161900000Y-100900000D03*
X143700000Y-108600000D03*
D26*
X168000000Y-105600000D03*
D27*
X165700000Y-91900000D03*
X168100000Y-112300000D03*
X164000000Y-91200000D03*
X159800000Y-87800000D03*
X151800000Y-97200000D03*
X164000000Y-88200000D03*
X152800000Y-103400000D03*
X143000000Y-96800000D03*
X151400000Y-83700000D03*
X171800000Y-112000000D03*
X150200000Y-87400000D03*
X150200000Y-84400000D03*
X151100000Y-113165000D03*
X165700000Y-85900000D03*
X157943449Y-108598513D03*
X171800000Y-106100000D03*
D26*
X165900000Y-101525000D03*
D27*
X154800000Y-99800000D03*
X161025000Y-85900000D03*
X161025000Y-82900000D03*
X150200000Y-85900000D03*
X162300000Y-85900000D03*
X150500000Y-105600000D03*
X159800000Y-84600000D03*
X174800000Y-105200000D03*
X159800000Y-83700000D03*
X174200000Y-106100000D03*
D26*
X158586940Y-92375000D03*
D27*
X152900000Y-84200000D03*
X144500000Y-113000000D03*
D26*
X165800000Y-96200000D03*
D27*
X146800000Y-93400000D03*
D26*
X163200000Y-99300000D03*
D27*
X173600000Y-105200000D03*
X148500000Y-89700000D03*
X161000000Y-87400000D03*
D26*
X148700000Y-117200000D03*
D27*
X172400000Y-107000000D03*
X157200000Y-101400000D03*
X153800000Y-88200000D03*
X144300000Y-97900000D03*
X143000000Y-95800000D03*
X153000000Y-87000000D03*
X148500000Y-86700000D03*
X150700000Y-102100000D03*
D26*
X163400000Y-101400000D03*
X162346967Y-110716193D03*
D27*
X153000000Y-88600000D03*
X159000000Y-87000000D03*
X152200000Y-88200000D03*
X151800000Y-103400000D03*
D26*
X157700000Y-96100000D03*
X164100000Y-106200000D03*
D27*
X151400000Y-84600000D03*
X148500000Y-83700000D03*
D26*
X159626278Y-110742463D03*
D27*
X154600000Y-87800000D03*
X151100000Y-94700000D03*
X173600000Y-107000000D03*
X164000000Y-92700000D03*
X164000000Y-89700000D03*
X151400000Y-86200000D03*
X165700000Y-87400000D03*
D26*
X161000000Y-110200000D03*
D27*
X174800000Y-107000000D03*
X151400000Y-82900000D03*
X139900000Y-108600000D03*
X153800000Y-87000000D03*
X151400000Y-87000000D03*
X165700000Y-88900000D03*
X164000000Y-86700000D03*
D26*
X163300000Y-100100000D03*
D27*
X162300000Y-84400000D03*
X154600000Y-87000000D03*
X165700000Y-90400000D03*
X163600000Y-111800000D03*
X153000000Y-87800000D03*
X171200000Y-105200000D03*
X165700000Y-82900000D03*
X150200000Y-82850000D03*
X164000000Y-83700000D03*
X159800000Y-86200000D03*
X151400000Y-85400000D03*
X159800000Y-87000000D03*
X158200000Y-87000000D03*
D26*
X162000000Y-103200000D03*
X168300000Y-98625000D03*
D27*
X154600000Y-88600000D03*
D26*
X159300000Y-104150003D03*
X169000000Y-97000000D03*
D27*
X150200000Y-91900000D03*
X159800000Y-82900000D03*
D26*
X174800000Y-101450000D03*
D27*
X148500000Y-91200000D03*
X164000000Y-85200000D03*
D26*
%TO.N,/MCU/SPI2_MISO*%
X164900000Y-100625000D03*
X164600000Y-105600000D03*
D27*
%TO.N,+3V3*%
X150500000Y-106500000D03*
D26*
X168300000Y-99725000D03*
X158600418Y-93124896D03*
D27*
X152400000Y-111200000D03*
X159200000Y-100400000D03*
X150706860Y-100450000D03*
D26*
X168000000Y-104400000D03*
X154100000Y-89800000D03*
D27*
X151100000Y-93400000D03*
D26*
X167300000Y-97000000D03*
D27*
X152400000Y-113165000D03*
X159300000Y-109800000D03*
X171300000Y-92000000D03*
X150800000Y-97200000D03*
D26*
%TO.N,/MCU/IMU_IRQ2*%
X166500000Y-96800000D03*
X159300000Y-103400000D03*
%TO.N,/MCU/SPI2_NSS_2*%
X164200000Y-98549997D03*
X162000000Y-105400000D03*
%TO.N,/MCU/SPI2_SCK*%
X166000000Y-103300000D03*
X162800000Y-107349999D03*
X164200000Y-99300000D03*
%TO.N,/MCU/SPI2_MOSI*%
X164149999Y-104999998D03*
X164318493Y-100040583D03*
%TO.N,/MCU/NRST*%
X150503705Y-103425000D03*
X147668298Y-117319017D03*
D27*
X168100000Y-108800000D03*
%TO.N,Net-(D5-K)*%
X173900000Y-91000000D03*
D26*
%TO.N,Net-(D3-A)*%
X171400000Y-101450000D03*
D27*
%TO.N,+VBAT*%
X139400000Y-105700000D03*
X138500000Y-105700000D03*
%TO.N,Net-(D2-A)*%
X171300000Y-98200000D03*
D26*
%TO.N,/MCU/OTG_FS_D-*%
X162800000Y-103100000D03*
X160200000Y-111300000D03*
%TO.N,/MCU/OTG_FS_D+*%
X163300000Y-102300000D03*
X161800000Y-111300000D03*
%TO.N,/MCU/SPI3_SCK*%
X157675000Y-96900000D03*
X155783550Y-96080670D03*
D27*
%TO.N,Net-(D1-A)*%
X171300000Y-95100000D03*
%TO.N,+VBUS*%
X144800000Y-115000000D03*
X159800000Y-113100000D03*
X140200000Y-91800000D03*
D26*
%TO.N,/MCU/SWDIO*%
X151910645Y-117309260D03*
X158200000Y-101400000D03*
%TO.N,/MCU/SWCLK*%
X150400000Y-117100000D03*
X158200000Y-99800000D03*
%TO.N,/MCU/SWO*%
X156200000Y-99800000D03*
X149500000Y-117200000D03*
%TO.N,/MCU/ADC_IN6*%
X148750000Y-109550000D03*
D27*
%TO.N,/MCU/VCAP*%
X157800000Y-112200000D03*
D26*
%TO.N,/MCU/STAT1*%
X155700000Y-97100000D03*
%TO.N,/MCU/STAT2*%
X154675000Y-97200000D03*
%TO.N,/MCU/STAT3*%
X152800000Y-97200000D03*
%TD*%
%TO.N,GND*%
D28*
X145225000Y-112275000D02*
X144500000Y-113000000D01*
X157900000Y-109625000D02*
X157900000Y-108641962D01*
X145225000Y-111900000D02*
X145225000Y-112275000D01*
X151300000Y-111200000D02*
X151300000Y-110375000D01*
D29*
X170200000Y-93575000D02*
X171375000Y-93575000D01*
D28*
X151300000Y-110375000D02*
X151025000Y-110100000D01*
X148700000Y-99300000D02*
X148700000Y-98350000D01*
X157943449Y-107743449D02*
X157700000Y-107500000D01*
D29*
X171375000Y-93575000D02*
X171400000Y-93600000D01*
D28*
X159200000Y-97625000D02*
X160175000Y-97625000D01*
X160175000Y-97625000D02*
X160200000Y-97600000D01*
X157900000Y-108641962D02*
X157943449Y-108598513D01*
X157943449Y-108598513D02*
X157943449Y-107743449D01*
%TO.N,/MCU/SPI2_MISO*%
D30*
X165175000Y-100900000D02*
X164900000Y-100625000D01*
X164600000Y-105600000D02*
X165175000Y-105025000D01*
X165175000Y-105025000D02*
X165175000Y-100900000D01*
%TO.N,+3V3*%
D28*
X150706860Y-100450000D02*
X149575000Y-100450000D01*
X159300000Y-109800000D02*
X159300000Y-107550000D01*
X158325000Y-98300000D02*
X151839339Y-98300000D01*
X152400000Y-111200000D02*
X152400000Y-110275000D01*
X154000000Y-106400000D02*
X153600000Y-106400000D01*
X168300000Y-104100000D02*
X168000000Y-104400000D01*
X148700000Y-95039339D02*
X150339339Y-93400000D01*
X167300000Y-98725000D02*
X168300000Y-99725000D01*
X167300000Y-97000000D02*
X167300000Y-98725000D01*
X151375104Y-93124896D02*
X151100000Y-93400000D01*
X171500000Y-104400000D02*
X172800000Y-103100000D01*
X149575000Y-100450000D02*
X149500000Y-100525000D01*
X159300000Y-107550000D02*
X159250000Y-107500000D01*
X158600418Y-93124896D02*
X151375104Y-93124896D01*
X153600000Y-109075000D02*
X152575000Y-110100000D01*
X159250000Y-107500000D02*
X158500000Y-106750000D01*
X153600000Y-100525000D02*
X154325000Y-100525000D01*
X159200000Y-101900000D02*
X159200000Y-100400000D01*
X159200000Y-99175000D02*
X158325000Y-98300000D01*
X154100000Y-89800000D02*
X154100000Y-90400000D01*
X153600000Y-106400000D02*
X153600000Y-109075000D01*
X154325000Y-100525000D02*
X154800000Y-101000000D01*
X172800000Y-93600000D02*
X171300000Y-92100000D01*
X150800000Y-97260661D02*
X150800000Y-97200000D01*
X167300000Y-96300000D02*
X167300000Y-97000000D01*
X166500000Y-95500000D02*
X167300000Y-96300000D01*
X168000000Y-104400000D02*
X171500000Y-104400000D01*
X159685661Y-99175000D02*
X163360661Y-95500000D01*
X151900000Y-100500000D02*
X150756860Y-100500000D01*
X151900000Y-106400000D02*
X150600000Y-106400000D01*
X154800000Y-105600000D02*
X154000000Y-106400000D01*
X150706860Y-97293140D02*
X150800000Y-97200000D01*
X150756860Y-100500000D02*
X150706860Y-100450000D01*
X163360661Y-95500000D02*
X166500000Y-95500000D01*
X152400000Y-113165000D02*
X152400000Y-111200000D01*
X153600000Y-106400000D02*
X151900000Y-106400000D01*
X152400000Y-110275000D02*
X152575000Y-110100000D01*
X150800000Y-97200000D02*
X150400000Y-96800000D01*
X168300000Y-99725000D02*
X168300000Y-104100000D01*
X146850001Y-96800000D02*
X146800000Y-96749999D01*
X150600000Y-106400000D02*
X150500000Y-106500000D01*
X159200000Y-99175000D02*
X159685661Y-99175000D01*
X158500000Y-106750000D02*
X158500000Y-102600000D01*
X150706860Y-100450000D02*
X150706860Y-97293140D01*
X150339339Y-93400000D02*
X151100000Y-93400000D01*
X158500000Y-102600000D02*
X159200000Y-101900000D01*
X159200000Y-100400000D02*
X159200000Y-99175000D01*
X151925000Y-100525000D02*
X151900000Y-100500000D01*
X154100000Y-90400000D02*
X151100000Y-93400000D01*
X172800000Y-103100000D02*
X172800000Y-93600000D01*
X153600000Y-100525000D02*
X151925000Y-100525000D01*
X171300000Y-92100000D02*
X171300000Y-92000000D01*
X148700000Y-96800000D02*
X148700000Y-95039339D01*
X150400000Y-96800000D02*
X148700000Y-96800000D01*
X154800000Y-101000000D02*
X154800000Y-105600000D01*
X151839339Y-98300000D02*
X150800000Y-97260661D01*
X148700000Y-96800000D02*
X146850001Y-96800000D01*
%TO.N,/MCU/IMU_IRQ2*%
D30*
X160600000Y-102100000D02*
X160600000Y-99400000D01*
X163200000Y-96800000D02*
X166500000Y-96800000D01*
X159300000Y-103400000D02*
X160600000Y-102100000D01*
X160600000Y-99400000D02*
X163200000Y-96800000D01*
%TO.N,/MCU/SPI2_NSS_2*%
X162000000Y-105400000D02*
X161200000Y-104600000D01*
X162550003Y-98549997D02*
X164200000Y-98549997D01*
X161200000Y-104600000D02*
X161200000Y-99900000D01*
X161200000Y-99900000D02*
X162550003Y-98549997D01*
%TO.N,/MCU/SPI2_SCK*%
X163050001Y-107600000D02*
X164800000Y-107600000D01*
X165500000Y-99300000D02*
X166600000Y-100400000D01*
X162800000Y-107349999D02*
X163050001Y-107600000D01*
X166600000Y-100400000D02*
X166600000Y-102700000D01*
X166000000Y-106400000D02*
X166000000Y-103300000D01*
X166600000Y-102700000D02*
X166000000Y-103300000D01*
X164800000Y-107600000D02*
X166000000Y-106400000D01*
X164200000Y-99300000D02*
X165500000Y-99300000D01*
%TO.N,/MCU/SPI2_MOSI*%
X164318493Y-100040583D02*
X164025000Y-100334076D01*
X164025000Y-100334076D02*
X164025000Y-104874999D01*
X164025000Y-104874999D02*
X164149999Y-104999998D01*
%TO.N,/MCU/NRST*%
D29*
X148500000Y-112500000D02*
X149600000Y-111400000D01*
X149600000Y-104328705D02*
X150503705Y-103425000D01*
X149600000Y-111400000D02*
X149600000Y-104328705D01*
X147668298Y-117319017D02*
X148500000Y-116487315D01*
D28*
X168100000Y-109750000D02*
X168100000Y-108800000D01*
D29*
X148500000Y-116487315D02*
X148500000Y-112500000D01*
%TO.N,Net-(D5-K)*%
X171125000Y-91000000D02*
X173900000Y-91000000D01*
X170200000Y-91925000D02*
X171125000Y-91000000D01*
%TO.N,Net-(D3-A)*%
X171400000Y-101450000D02*
X170250000Y-101450000D01*
X170250000Y-101450000D02*
X170200000Y-101400000D01*
%TO.N,+VBAT*%
D28*
X137975000Y-106825000D02*
X138700000Y-106825000D01*
X139775000Y-111900000D02*
X138600000Y-111900000D01*
X137200000Y-107600000D02*
X137975000Y-106825000D01*
X137200000Y-110500000D02*
X137200000Y-107600000D01*
X138600000Y-111900000D02*
X137200000Y-110500000D01*
%TO.N,Net-(D2-A)*%
D29*
X170200000Y-98200000D02*
X171300000Y-98200000D01*
%TO.N,/MCU/OTG_FS_D-*%
D31*
X160400000Y-111000000D02*
X160400000Y-110558130D01*
X160400000Y-110558130D02*
X160322500Y-110480630D01*
X160322500Y-110480630D02*
X160322500Y-109919370D01*
X162800000Y-105607556D02*
X162800000Y-103100000D01*
X160322500Y-109919370D02*
X160722499Y-109519371D01*
X160722499Y-109519371D02*
X160722499Y-107685057D01*
X160200000Y-111200000D02*
X160400000Y-111000000D01*
X160722499Y-107685057D02*
X162800000Y-105607556D01*
X160200000Y-111300000D02*
X160200000Y-111200000D01*
%TO.N,/MCU/OTG_FS_D+*%
X161677500Y-109919370D02*
X161277501Y-109519371D01*
X161800000Y-111300000D02*
X161600000Y-111100000D01*
X161677500Y-110480630D02*
X161677500Y-109919370D01*
X161277501Y-109519371D02*
X161277501Y-107914943D01*
X163477500Y-105285629D02*
X163472499Y-105280628D01*
X161277501Y-107914943D02*
X163477500Y-105714944D01*
X163472499Y-103385631D02*
X163477500Y-103380630D01*
X163477500Y-103380630D02*
X163477500Y-102477500D01*
X163477500Y-105714944D02*
X163477500Y-105285629D01*
X161600000Y-111100000D02*
X161600000Y-110558130D01*
X163477500Y-102477500D02*
X163300000Y-102300000D01*
X161600000Y-110558130D02*
X161677500Y-110480630D01*
X163472499Y-105280628D02*
X163472499Y-103385631D01*
%TO.N,/MCU/SPI3_SCK*%
D30*
X156500000Y-96900000D02*
X157675000Y-96900000D01*
X155783550Y-96183550D02*
X156500000Y-96900000D01*
X155783550Y-96080670D02*
X155783550Y-96183550D01*
%TO.N,Net-(D1-A)*%
D29*
X170200000Y-95025000D02*
X171225000Y-95025000D01*
X171225000Y-95025000D02*
X171300000Y-95100000D01*
%TO.N,+VBUS*%
D28*
X139805000Y-92195000D02*
X140200000Y-91800000D01*
X155400000Y-119500000D02*
X159800000Y-115100000D01*
X144800000Y-115000000D02*
X144800000Y-117600000D01*
X144800000Y-117600000D02*
X146700000Y-119500000D01*
X159800000Y-115100000D02*
X159800000Y-113100000D01*
X139805000Y-92750000D02*
X139805000Y-92195000D01*
X146700000Y-119500000D02*
X155400000Y-119500000D01*
%TO.N,/MCU/SWDIO*%
D29*
X151910645Y-117810645D02*
X152210000Y-118110000D01*
X156800000Y-102800000D02*
X158200000Y-101400000D01*
X151910645Y-117309260D02*
X151910645Y-117810645D01*
X154890000Y-118110000D02*
X156800000Y-116200000D01*
X152210000Y-118110000D02*
X154890000Y-118110000D01*
X156800000Y-116200000D02*
X156800000Y-102800000D01*
%TO.N,/MCU/SWCLK*%
X155900000Y-98900000D02*
X155500000Y-99300000D01*
X158200000Y-99800000D02*
X158200000Y-99500000D01*
X150400000Y-116500000D02*
X150400000Y-117100000D01*
X155500000Y-111400000D02*
X150400000Y-116500000D01*
X158200000Y-99500000D02*
X157600000Y-98900000D01*
X155500000Y-99300000D02*
X155500000Y-111400000D01*
X157600000Y-98900000D02*
X155900000Y-98900000D01*
%TO.N,/MCU/SWO*%
X151200000Y-117648529D02*
X151200000Y-117000000D01*
X149800000Y-117900000D02*
X149500000Y-117600000D01*
X149500000Y-117600000D02*
X149500000Y-117200000D01*
X150948529Y-117900000D02*
X151200000Y-117648529D01*
X156200000Y-112000000D02*
X156200000Y-99800000D01*
X151200000Y-117000000D02*
X156200000Y-112000000D01*
X149800000Y-117900000D02*
X150948529Y-117900000D01*
%TO.N,/MCU/ADC_IN6*%
X148000000Y-110300000D02*
X144100000Y-110300000D01*
X144100000Y-110300000D02*
X143400000Y-111000000D01*
D28*
X143400000Y-111900000D02*
X141600000Y-111900000D01*
D29*
X143400000Y-111000000D02*
X143400000Y-111900000D01*
X148750000Y-109550000D02*
X148000000Y-110300000D01*
%TO.N,/MCU/VCAP*%
D28*
X157800000Y-112200000D02*
X157800000Y-111275000D01*
X157800000Y-111275000D02*
X157900000Y-111175000D01*
%TO.N,/MCU/STAT1*%
D30*
X167825000Y-94300000D02*
X170200000Y-96675000D01*
X155100000Y-96500000D02*
X155100000Y-95900000D01*
X155100000Y-95900000D02*
X156700000Y-94300000D01*
X156700000Y-94300000D02*
X167825000Y-94300000D01*
X155700000Y-97100000D02*
X155100000Y-96500000D01*
%TO.N,/MCU/STAT2*%
X154675000Y-97200000D02*
X155150000Y-97675000D01*
X160600000Y-94800000D02*
X167200000Y-94800000D01*
X170200000Y-99711827D02*
X170200000Y-99850000D01*
X155150000Y-97675000D02*
X157725000Y-97675000D01*
X168300000Y-95900000D02*
X168300000Y-97811827D01*
X157725000Y-97675000D02*
X160600000Y-94800000D01*
X168300000Y-97811827D02*
X170200000Y-99711827D01*
X167200000Y-94800000D02*
X168300000Y-95900000D01*
%TO.N,/MCU/STAT3*%
X152800000Y-97200000D02*
X156200000Y-93800000D01*
X168700000Y-93800000D02*
X169200000Y-94300000D01*
X156200000Y-93800000D02*
X168700000Y-93800000D01*
X171500000Y-94300000D02*
X172100000Y-94900000D01*
X171050000Y-103050000D02*
X170200000Y-103050000D01*
X169200000Y-94300000D02*
X171500000Y-94300000D01*
X172100000Y-102000000D02*
X171050000Y-103050000D01*
X172100000Y-94900000D02*
X172100000Y-102000000D01*
%TO.N,+5V*%
D28*
X139805000Y-97250000D02*
X140450000Y-97250000D01*
X143050000Y-99850000D02*
X143050000Y-101012500D01*
X140450000Y-97250000D02*
X143050000Y-99850000D01*
%TO.N,/Power/BUCK_FB*%
X147250000Y-106250000D02*
X146700000Y-106800000D01*
X145150000Y-106650000D02*
X145300000Y-106800000D01*
X146700000Y-106800000D02*
X145300000Y-106800000D01*
X147250000Y-104512500D02*
X147250000Y-106250000D01*
X143025000Y-106650000D02*
X145150000Y-106650000D01*
%TO.N,/Power/LDO_VIN*%
X144525000Y-94850001D02*
X145150001Y-94850001D01*
X139805000Y-94250000D02*
X141675000Y-94250000D01*
X145700000Y-96200000D02*
X145150001Y-96749999D01*
X144525000Y-94850001D02*
X142325001Y-94850001D01*
X141675000Y-94250000D02*
X141700000Y-94225000D01*
X145700000Y-95400000D02*
X145700000Y-96200000D01*
X145150001Y-96749999D02*
X144525000Y-96749999D01*
X145150001Y-94850001D02*
X145700000Y-95400000D01*
X142325001Y-94850001D02*
X141700000Y-94225000D01*
%TO.N,/Power/BUCK_BOOT*%
X143025000Y-103225000D02*
X142700000Y-102900000D01*
X143025000Y-104750000D02*
X143025000Y-103225000D01*
%TD*%
%TA.AperFunction,Conductor*%
%TO.N,GND*%
G36*
X151859191Y-82519407D02*
G01*
X151895155Y-82568907D01*
X151900000Y-82599500D01*
X151900000Y-84049999D01*
X151900001Y-84050000D01*
X153899999Y-84050000D01*
X153900000Y-84049999D01*
X153900000Y-82599500D01*
X153918907Y-82541309D01*
X153968407Y-82505345D01*
X153999000Y-82500500D01*
X157201000Y-82500500D01*
X157259191Y-82519407D01*
X157295155Y-82568907D01*
X157300000Y-82599500D01*
X157300000Y-84049999D01*
X157300001Y-84050000D01*
X159299999Y-84050000D01*
X159300000Y-84049999D01*
X159300000Y-82599500D01*
X159318907Y-82541309D01*
X159368407Y-82505345D01*
X159399000Y-82500500D01*
X165859103Y-82500500D01*
X165917294Y-82519407D01*
X165921908Y-82522972D01*
X165999569Y-82586707D01*
X166013292Y-82600430D01*
X166125285Y-82736893D01*
X166136067Y-82753030D01*
X166219283Y-82908716D01*
X166226710Y-82926646D01*
X166277954Y-83095579D01*
X166281740Y-83114613D01*
X166299523Y-83295157D01*
X166300000Y-83304861D01*
X166300000Y-93325500D01*
X166281093Y-93383691D01*
X166231593Y-93419655D01*
X166201000Y-93424500D01*
X159219078Y-93424500D01*
X159160887Y-93405593D01*
X159124923Y-93356093D01*
X159123451Y-93299877D01*
X159150918Y-93197370D01*
X159150918Y-93052421D01*
X159136738Y-92999501D01*
X159113402Y-92912411D01*
X159113400Y-92912408D01*
X159113400Y-92912406D01*
X159040930Y-92786885D01*
X159040928Y-92786883D01*
X159040927Y-92786881D01*
X158938433Y-92684387D01*
X158938430Y-92684385D01*
X158938428Y-92684383D01*
X158812906Y-92611913D01*
X158812907Y-92611913D01*
X158783314Y-92603983D01*
X158672893Y-92574396D01*
X158527943Y-92574396D01*
X158481273Y-92586901D01*
X158387931Y-92611912D01*
X158381939Y-92614395D01*
X158381456Y-92613230D01*
X158339783Y-92624396D01*
X152822426Y-92624396D01*
X152764235Y-92605489D01*
X152728271Y-92555989D01*
X152728271Y-92494803D01*
X152752422Y-92455392D01*
X154500500Y-90707314D01*
X154566392Y-90593186D01*
X154600500Y-90465892D01*
X154600500Y-90334107D01*
X154600500Y-90060634D01*
X154611666Y-90018963D01*
X154610500Y-90018480D01*
X154612977Y-90012496D01*
X154612984Y-90012485D01*
X154650500Y-89872475D01*
X154650500Y-89727525D01*
X154612984Y-89587515D01*
X154612982Y-89587512D01*
X154612982Y-89587510D01*
X154540512Y-89461989D01*
X154540510Y-89461987D01*
X154540509Y-89461985D01*
X154438015Y-89359491D01*
X154438012Y-89359489D01*
X154438010Y-89359487D01*
X154312488Y-89287017D01*
X154312489Y-89287017D01*
X154282896Y-89279087D01*
X154172475Y-89249500D01*
X154027525Y-89249500D01*
X153965790Y-89266041D01*
X153887510Y-89287017D01*
X153761989Y-89359487D01*
X153659487Y-89461989D01*
X153587017Y-89587510D01*
X153587016Y-89587515D01*
X153549500Y-89727525D01*
X153549500Y-89872475D01*
X153587016Y-90012485D01*
X153587018Y-90012490D01*
X153589500Y-90018480D01*
X153588333Y-90018963D01*
X153599500Y-90060634D01*
X153599500Y-90151677D01*
X153580593Y-90209868D01*
X153570504Y-90221681D01*
X151001098Y-92791086D01*
X150956718Y-92816708D01*
X150868219Y-92840421D01*
X150868218Y-92840422D01*
X150868216Y-92840422D01*
X150868216Y-92840423D01*
X150788862Y-92886237D01*
X150739364Y-92899500D01*
X150405231Y-92899500D01*
X150273446Y-92899500D01*
X150247430Y-92906471D01*
X150198880Y-92919479D01*
X150198880Y-92919480D01*
X150146153Y-92933608D01*
X150146151Y-92933608D01*
X150146147Y-92933610D01*
X150032029Y-92999496D01*
X150032023Y-92999500D01*
X150032024Y-92999501D01*
X148392686Y-94638839D01*
X148392685Y-94638838D01*
X148299500Y-94732024D01*
X148299496Y-94732029D01*
X148233609Y-94846148D01*
X148199500Y-94973448D01*
X148199500Y-95401000D01*
X148180593Y-95459191D01*
X148131093Y-95495155D01*
X148100500Y-95500000D01*
X147617900Y-95500000D01*
X147559709Y-95481093D01*
X147523745Y-95431593D01*
X147523745Y-95370407D01*
X147547896Y-95330996D01*
X147550839Y-95328052D01*
X147550842Y-95328051D01*
X147640550Y-95238343D01*
X147698146Y-95125305D01*
X147713000Y-95031520D01*
X147712999Y-94668483D01*
X147708304Y-94638838D01*
X147698147Y-94574701D01*
X147698146Y-94574699D01*
X147698146Y-94574697D01*
X147640550Y-94461659D01*
X147550842Y-94371951D01*
X147437804Y-94314355D01*
X147437805Y-94314355D01*
X147344022Y-94299501D01*
X146399000Y-94299501D01*
X146340809Y-94280594D01*
X146304845Y-94231094D01*
X146300000Y-94200501D01*
X146300000Y-84550001D01*
X151900000Y-84550001D01*
X151900000Y-86074624D01*
X151914506Y-86147546D01*
X151914507Y-86147548D01*
X151969758Y-86230237D01*
X151969762Y-86230241D01*
X152052451Y-86285492D01*
X152052453Y-86285493D01*
X152125375Y-86299999D01*
X152125377Y-86300000D01*
X152649999Y-86300000D01*
X152650000Y-86299999D01*
X152650000Y-84550001D01*
X153150000Y-84550001D01*
X153150000Y-86299999D01*
X153150001Y-86300000D01*
X153674623Y-86300000D01*
X153674624Y-86299999D01*
X153747546Y-86285493D01*
X153747548Y-86285492D01*
X153830237Y-86230241D01*
X153830241Y-86230237D01*
X153885492Y-86147548D01*
X153885493Y-86147546D01*
X153899999Y-86074624D01*
X153900000Y-86074622D01*
X153900000Y-84550001D01*
X157300000Y-84550001D01*
X157300000Y-86074624D01*
X157314506Y-86147546D01*
X157314507Y-86147548D01*
X157369758Y-86230237D01*
X157369762Y-86230241D01*
X157452451Y-86285492D01*
X157452453Y-86285493D01*
X157525375Y-86299999D01*
X157525377Y-86300000D01*
X158049999Y-86300000D01*
X158050000Y-86299999D01*
X158050000Y-84550001D01*
X158550000Y-84550001D01*
X158550000Y-86299999D01*
X158550001Y-86300000D01*
X159074623Y-86300000D01*
X159074624Y-86299999D01*
X159147546Y-86285493D01*
X159147548Y-86285492D01*
X159230237Y-86230241D01*
X159230241Y-86230237D01*
X159285492Y-86147548D01*
X159285493Y-86147546D01*
X159299999Y-86074624D01*
X159300000Y-86074622D01*
X159300000Y-84550001D01*
X159299999Y-84550000D01*
X158550001Y-84550000D01*
X158550000Y-84550001D01*
X158050000Y-84550001D01*
X158049999Y-84550000D01*
X157300001Y-84550000D01*
X157300000Y-84550001D01*
X153900000Y-84550001D01*
X153899999Y-84550000D01*
X153150001Y-84550000D01*
X153150000Y-84550001D01*
X152650000Y-84550001D01*
X152649999Y-84550000D01*
X151900001Y-84550000D01*
X151900000Y-84550001D01*
X146300000Y-84550001D01*
X146300000Y-83304861D01*
X146300477Y-83295157D01*
X146318259Y-83114613D01*
X146322045Y-83095579D01*
X146373293Y-82926635D01*
X146380711Y-82908727D01*
X146463938Y-82753020D01*
X146474707Y-82736902D01*
X146586710Y-82600426D01*
X146600426Y-82586710D01*
X146678092Y-82522971D01*
X146735069Y-82500672D01*
X146740897Y-82500500D01*
X151801000Y-82500500D01*
X151859191Y-82519407D01*
G37*
%TD.AperFunction*%
%TA.AperFunction,Conductor*%
G36*
X155662750Y-93644303D02*
G01*
X155698714Y-93693803D01*
X155698714Y-93754989D01*
X155674563Y-93794400D01*
X153997959Y-95471004D01*
X153943442Y-95498781D01*
X153927955Y-95500000D01*
X149299500Y-95500000D01*
X149241309Y-95481093D01*
X149205345Y-95431593D01*
X149200500Y-95401000D01*
X149200500Y-95287661D01*
X149219407Y-95229470D01*
X149229496Y-95217657D01*
X150517657Y-93929496D01*
X150572174Y-93901719D01*
X150587661Y-93900500D01*
X150739364Y-93900500D01*
X150788862Y-93913762D01*
X150868216Y-93959577D01*
X151020943Y-94000500D01*
X151020945Y-94000500D01*
X151179055Y-94000500D01*
X151179057Y-94000500D01*
X151331784Y-93959577D01*
X151468716Y-93880520D01*
X151580520Y-93768716D01*
X151634686Y-93674895D01*
X151680154Y-93633955D01*
X151720422Y-93625396D01*
X155604559Y-93625396D01*
X155662750Y-93644303D01*
G37*
%TD.AperFunction*%
%TD*%
%TA.AperFunction,Conductor*%
%TO.N,GND*%
G36*
X168476715Y-110801824D02*
G01*
X168504065Y-110806567D01*
X168572168Y-110818378D01*
X168612072Y-110832649D01*
X168686951Y-110875045D01*
X168735590Y-110925205D01*
X168737581Y-110935090D01*
X168768779Y-110961218D01*
X168795490Y-110992484D01*
X168816868Y-111028114D01*
X168824430Y-111040717D01*
X168832053Y-111055618D01*
X168875210Y-111156199D01*
X168884127Y-111188391D01*
X168898870Y-111296844D01*
X168900000Y-111313547D01*
X168900000Y-112874770D01*
X168899168Y-112889113D01*
X168888293Y-112982502D01*
X168881704Y-113010413D01*
X168849663Y-113098814D01*
X168843993Y-113112014D01*
X168830133Y-113139734D01*
X168818075Y-113159143D01*
X168778855Y-113210930D01*
X168745195Y-113241547D01*
X168699868Y-113269561D01*
X168657430Y-113285976D01*
X168633362Y-113290468D01*
X168593570Y-113297895D01*
X168570822Y-113300000D01*
X161582923Y-113300000D01*
X161558731Y-113297617D01*
X161529574Y-113291817D01*
X161484874Y-113273301D01*
X161470507Y-113263701D01*
X161436298Y-113229492D01*
X161426698Y-113215125D01*
X161408182Y-113170425D01*
X161402381Y-113141263D01*
X161400000Y-113117076D01*
X161400000Y-113111471D01*
X161402103Y-113088731D01*
X161407233Y-113061227D01*
X161413159Y-113029469D01*
X161429558Y-112987049D01*
X161461244Y-112935755D01*
X161474984Y-112917517D01*
X161507305Y-112881965D01*
X162136247Y-112190127D01*
X163245421Y-110970036D01*
X163257833Y-110958154D01*
X163344259Y-110886218D01*
X163373421Y-110868125D01*
X163468289Y-110826158D01*
X163501291Y-110816752D01*
X163612647Y-110801193D01*
X163629806Y-110800000D01*
X168455526Y-110800000D01*
X168476715Y-110801824D01*
G37*
%TD.AperFunction*%
%TD*%
%TA.AperFunction,Conductor*%
%TO.N,GND*%
G36*
X142123847Y-95314376D02*
G01*
X142124301Y-95313281D01*
X142131810Y-95316390D01*
X142131815Y-95316393D01*
X142259109Y-95350501D01*
X142390894Y-95350501D01*
X142721987Y-95350501D01*
X142736475Y-95351350D01*
X143150000Y-95400000D01*
X143969747Y-95400000D01*
X143979482Y-95400383D01*
X143980969Y-95400499D01*
X143980981Y-95400501D01*
X144793403Y-95400500D01*
X144812798Y-95402027D01*
X144904207Y-95416504D01*
X144941102Y-95428491D01*
X145017617Y-95467477D01*
X145049002Y-95490281D01*
X145109718Y-95550997D01*
X145132522Y-95582383D01*
X145171507Y-95658895D01*
X145183495Y-95695793D01*
X145196927Y-95780602D01*
X145196927Y-95819396D01*
X145183495Y-95904206D01*
X145171507Y-95941104D01*
X145132522Y-96017616D01*
X145109718Y-96049002D01*
X145049002Y-96109718D01*
X145017616Y-96132522D01*
X144941104Y-96171507D01*
X144904207Y-96183495D01*
X144812804Y-96197972D01*
X144793406Y-96199499D01*
X143980976Y-96199499D01*
X143979476Y-96199618D01*
X143969753Y-96200000D01*
X143750000Y-96200000D01*
X143500000Y-96299999D01*
X143500000Y-97891874D01*
X143498939Y-97908060D01*
X143485093Y-98013224D01*
X143476715Y-98044491D01*
X143439259Y-98134918D01*
X143423074Y-98162951D01*
X143363491Y-98240601D01*
X143340601Y-98263491D01*
X143262951Y-98323074D01*
X143234918Y-98339259D01*
X143144491Y-98376715D01*
X143113224Y-98385093D01*
X143019398Y-98397446D01*
X143008058Y-98398939D01*
X142991874Y-98400000D01*
X142743259Y-98400000D01*
X142725217Y-98398680D01*
X142608282Y-98381483D01*
X142573729Y-98371096D01*
X142475003Y-98324855D01*
X142444902Y-98304960D01*
X142356833Y-98226138D01*
X142344270Y-98213123D01*
X141122803Y-96747364D01*
X141110517Y-96729708D01*
X141040692Y-96608054D01*
X141026105Y-96567763D01*
X141001864Y-96429600D01*
X141000000Y-96408181D01*
X141000000Y-95808125D01*
X141001061Y-95791940D01*
X141014906Y-95686776D01*
X141023284Y-95655508D01*
X141060740Y-95565079D01*
X141076923Y-95537050D01*
X141136513Y-95459392D01*
X141159392Y-95436513D01*
X141237050Y-95376923D01*
X141265079Y-95360740D01*
X141355509Y-95323283D01*
X141386775Y-95314906D01*
X141491941Y-95301061D01*
X141508126Y-95300000D01*
X142070195Y-95300000D01*
X142123847Y-95314376D01*
G37*
%TD.AperFunction*%
%TD*%
%TA.AperFunction,Conductor*%
%TO.N,GND*%
G36*
X145595080Y-104100475D02*
G01*
X145604726Y-104101425D01*
X145614307Y-104102846D01*
X145647667Y-104109481D01*
X145666230Y-104115113D01*
X145683900Y-104122432D01*
X145701014Y-104131579D01*
X145716939Y-104142220D01*
X145731941Y-104154531D01*
X145745468Y-104168058D01*
X145757773Y-104183052D01*
X145768416Y-104198979D01*
X145777565Y-104216096D01*
X145784886Y-104233772D01*
X145790518Y-104252338D01*
X145797147Y-104285659D01*
X145798573Y-104295267D01*
X145799523Y-104304907D01*
X145800000Y-104314616D01*
X145800000Y-105685382D01*
X145799523Y-105695091D01*
X145798573Y-105704731D01*
X145797147Y-105714339D01*
X145790518Y-105747660D01*
X145784886Y-105766227D01*
X145777566Y-105783900D01*
X145768417Y-105801016D01*
X145757780Y-105816936D01*
X145745468Y-105831940D01*
X145731940Y-105845468D01*
X145716936Y-105857780D01*
X145701016Y-105868417D01*
X145683900Y-105877566D01*
X145666227Y-105884886D01*
X145647660Y-105890518D01*
X145614339Y-105897147D01*
X145604731Y-105898573D01*
X145601712Y-105898870D01*
X145595087Y-105899523D01*
X145585382Y-105900000D01*
X144549998Y-105900000D01*
X144518260Y-105921159D01*
X144499614Y-105933590D01*
X144491514Y-105938990D01*
X144491512Y-105938990D01*
X144459474Y-105960349D01*
X144453269Y-105964163D01*
X144446945Y-105967737D01*
X144440493Y-105971078D01*
X144417251Y-105982048D01*
X144403680Y-105987272D01*
X144389873Y-105991452D01*
X144375691Y-105994631D01*
X144350262Y-105998397D01*
X144343044Y-105999197D01*
X144335794Y-105999732D01*
X144328508Y-106000000D01*
X142400000Y-106000000D01*
X142100000Y-106300000D01*
X142100000Y-107500000D01*
X142197100Y-107558260D01*
X142197101Y-107558261D01*
X142864298Y-107958579D01*
X142933333Y-108000000D01*
X145885388Y-108000000D01*
X145895080Y-108000475D01*
X145904726Y-108001425D01*
X145914307Y-108002846D01*
X145947667Y-108009481D01*
X145966230Y-108015113D01*
X145983900Y-108022432D01*
X146001014Y-108031579D01*
X146016939Y-108042220D01*
X146031941Y-108054531D01*
X146045466Y-108068056D01*
X146057775Y-108083055D01*
X146062708Y-108090437D01*
X146062709Y-108090438D01*
X146068415Y-108098977D01*
X146077567Y-108116099D01*
X146084887Y-108133773D01*
X146090518Y-108152338D01*
X146097147Y-108185659D01*
X146098573Y-108195267D01*
X146099523Y-108204907D01*
X146100000Y-108214616D01*
X146100000Y-109085382D01*
X146099523Y-109095091D01*
X146098573Y-109104731D01*
X146097147Y-109114339D01*
X146090518Y-109147660D01*
X146084886Y-109166227D01*
X146077566Y-109183900D01*
X146068417Y-109201016D01*
X146057780Y-109216936D01*
X146045468Y-109231940D01*
X146031940Y-109245468D01*
X146016936Y-109257780D01*
X146001016Y-109268417D01*
X145983900Y-109277566D01*
X145966227Y-109284886D01*
X145947660Y-109290518D01*
X145914339Y-109297147D01*
X145904731Y-109298573D01*
X145904711Y-109298575D01*
X145895087Y-109299523D01*
X145885382Y-109300000D01*
X138314610Y-109300000D01*
X138304911Y-109299523D01*
X138295279Y-109298574D01*
X138285676Y-109297150D01*
X138274470Y-109294921D01*
X138266001Y-109293236D01*
X138252336Y-109290518D01*
X138233767Y-109284885D01*
X138216095Y-109277565D01*
X138198979Y-109268416D01*
X138198012Y-109267770D01*
X138183058Y-109257778D01*
X138168058Y-109245468D01*
X138154531Y-109231941D01*
X138142220Y-109216939D01*
X138131581Y-109201017D01*
X138131580Y-109201016D01*
X138131579Y-109201014D01*
X138122432Y-109183900D01*
X138115113Y-109166230D01*
X138109481Y-109147667D01*
X138102846Y-109114307D01*
X138101425Y-109104726D01*
X138100475Y-109095080D01*
X138100000Y-109085388D01*
X138100000Y-108114610D01*
X138100476Y-108104915D01*
X138101426Y-108095269D01*
X138102850Y-108085670D01*
X138108239Y-108058579D01*
X138109480Y-108052334D01*
X138115110Y-108033774D01*
X138122432Y-108016095D01*
X138131575Y-107998989D01*
X138142227Y-107983049D01*
X138154530Y-107968057D01*
X138168057Y-107954530D01*
X138183051Y-107942226D01*
X138198989Y-107931575D01*
X138216094Y-107922433D01*
X138233773Y-107915110D01*
X138252337Y-107909480D01*
X138268013Y-107906362D01*
X138268016Y-107906360D01*
X138268021Y-107906360D01*
X138285695Y-107902845D01*
X138295273Y-107901425D01*
X138304919Y-107900476D01*
X138314612Y-107900000D01*
X141199999Y-107900000D01*
X141200000Y-107900000D01*
X141241619Y-107866704D01*
X141254782Y-107856174D01*
X141254783Y-107856174D01*
X141402557Y-107737954D01*
X141700000Y-107500000D01*
X141689097Y-106043258D01*
X141689644Y-106032116D01*
X141690817Y-106021040D01*
X141692613Y-106010038D01*
X141701023Y-105972149D01*
X141708274Y-105951070D01*
X141717688Y-105931294D01*
X141729483Y-105912364D01*
X141753587Y-105881951D01*
X141760994Y-105873618D01*
X141768853Y-105865723D01*
X141777152Y-105858278D01*
X142421830Y-105342535D01*
X142428594Y-105337581D01*
X142435565Y-105332916D01*
X142442707Y-105328562D01*
X142460132Y-105318930D01*
X142483283Y-105309717D01*
X142503430Y-105304519D01*
X142506846Y-105303638D01*
X142531576Y-105300499D01*
X143569015Y-105300499D01*
X143569018Y-105300499D01*
X143589997Y-105297175D01*
X143597904Y-105296248D01*
X143605864Y-105295639D01*
X143613813Y-105295353D01*
X143702524Y-105295733D01*
X144499145Y-105299141D01*
X144499145Y-105299140D01*
X144540268Y-105299316D01*
X144540270Y-105299315D01*
X144700000Y-105300000D01*
X144700000Y-105299999D01*
X144700000Y-104314610D01*
X144700476Y-104304916D01*
X144700477Y-104304907D01*
X144701426Y-104295269D01*
X144702850Y-104285670D01*
X144702853Y-104285659D01*
X144706386Y-104267891D01*
X144709481Y-104252336D01*
X144715112Y-104233771D01*
X144722433Y-104216096D01*
X144731575Y-104198989D01*
X144742228Y-104183048D01*
X144754530Y-104168057D01*
X144768057Y-104154530D01*
X144783051Y-104142226D01*
X144783060Y-104142220D01*
X144798989Y-104131575D01*
X144816097Y-104122432D01*
X144833773Y-104115110D01*
X144852337Y-104109480D01*
X144868013Y-104106362D01*
X144868016Y-104106360D01*
X144868021Y-104106360D01*
X144885695Y-104102845D01*
X144895273Y-104101425D01*
X144904919Y-104100476D01*
X144914612Y-104100000D01*
X145585388Y-104100000D01*
X145595080Y-104100475D01*
G37*
%TD.AperFunction*%
%TD*%
%TA.AperFunction,Conductor*%
%TO.N,+VBAT*%
G36*
X140197664Y-105300076D02*
G01*
X140201130Y-105300212D01*
X140204999Y-105300499D01*
X140205977Y-105300499D01*
X140205981Y-105300500D01*
X141187897Y-105300499D01*
X141197589Y-105300974D01*
X141207235Y-105301924D01*
X141216816Y-105303345D01*
X141247667Y-105309481D01*
X141266230Y-105315113D01*
X141283900Y-105322432D01*
X141301014Y-105331579D01*
X141316939Y-105342220D01*
X141331941Y-105354531D01*
X141345468Y-105368058D01*
X141357773Y-105383052D01*
X141368416Y-105398979D01*
X141377565Y-105416096D01*
X141384886Y-105433772D01*
X141390518Y-105452338D01*
X141397147Y-105485659D01*
X141398573Y-105495267D01*
X141399523Y-105504907D01*
X141400000Y-105514616D01*
X141400000Y-106785382D01*
X141399523Y-106795091D01*
X141398573Y-106804731D01*
X141397147Y-106814339D01*
X141390518Y-106847660D01*
X141384886Y-106866227D01*
X141377566Y-106883900D01*
X141368417Y-106901016D01*
X141357780Y-106916936D01*
X141345468Y-106931940D01*
X141331940Y-106945468D01*
X141316936Y-106957780D01*
X141301016Y-106968417D01*
X141283900Y-106977566D01*
X141266227Y-106984886D01*
X141247660Y-106990518D01*
X141214339Y-106997147D01*
X141204731Y-106998573D01*
X141201712Y-106998870D01*
X141195087Y-106999523D01*
X141185382Y-107000000D01*
X139699999Y-107000000D01*
X139670807Y-107017515D01*
X139670806Y-107017515D01*
X139647292Y-107031623D01*
X139647290Y-107031623D01*
X139619357Y-107048383D01*
X139619266Y-107048439D01*
X139256109Y-107266333D01*
X139250266Y-107269576D01*
X139244328Y-107272614D01*
X139238273Y-107275458D01*
X139216510Y-107284796D01*
X139203898Y-107289225D01*
X139191113Y-107292766D01*
X139178025Y-107295456D01*
X139165866Y-107297109D01*
X139161982Y-107297637D01*
X139154541Y-107298648D01*
X139147898Y-107299323D01*
X139141243Y-107299774D01*
X139134563Y-107300000D01*
X138214610Y-107300000D01*
X138204913Y-107299523D01*
X138195279Y-107298574D01*
X138185677Y-107297150D01*
X138172629Y-107294555D01*
X138172622Y-107294551D01*
X138172622Y-107294554D01*
X138152332Y-107290517D01*
X138133766Y-107284884D01*
X138116101Y-107277567D01*
X138099036Y-107268453D01*
X138098489Y-107268088D01*
X138098436Y-107268052D01*
X138083056Y-107257775D01*
X138068055Y-107245465D01*
X138054531Y-107231941D01*
X138042220Y-107216939D01*
X138031581Y-107201017D01*
X138022432Y-107183900D01*
X138015113Y-107166230D01*
X138009481Y-107147667D01*
X138002846Y-107114307D01*
X138001425Y-107104726D01*
X138000475Y-107095080D01*
X138000000Y-107085388D01*
X138000000Y-105514610D01*
X138000476Y-105504916D01*
X138000477Y-105504907D01*
X138001426Y-105495269D01*
X138002850Y-105485670D01*
X138002853Y-105485659D01*
X138006386Y-105467891D01*
X138009481Y-105452336D01*
X138015112Y-105433771D01*
X138022433Y-105416096D01*
X138031575Y-105398989D01*
X138042228Y-105383048D01*
X138054530Y-105368057D01*
X138068057Y-105354530D01*
X138083051Y-105342226D01*
X138083060Y-105342220D01*
X138098989Y-105331575D01*
X138116097Y-105322432D01*
X138133773Y-105315110D01*
X138152337Y-105309480D01*
X138168013Y-105306362D01*
X138168016Y-105306360D01*
X138168021Y-105306360D01*
X138185695Y-105302845D01*
X138195273Y-105301425D01*
X138204919Y-105300476D01*
X138214612Y-105300000D01*
X140193782Y-105300000D01*
X140197664Y-105300076D01*
G37*
%TD.AperFunction*%
%TD*%
%TA.AperFunction,Conductor*%
%TO.N,+5V*%
G36*
X147809561Y-100401902D02*
G01*
X147857222Y-100411382D01*
X147892908Y-100426163D01*
X147925050Y-100447640D01*
X147952359Y-100474949D01*
X147973328Y-100506330D01*
X147973835Y-100507089D01*
X147988616Y-100542775D01*
X147998097Y-100590436D01*
X148000000Y-100609751D01*
X148000000Y-103040248D01*
X147998097Y-103059563D01*
X147988616Y-103107224D01*
X147973835Y-103142910D01*
X147952362Y-103175047D01*
X147925047Y-103202362D01*
X147892910Y-103223835D01*
X147857224Y-103238616D01*
X147809563Y-103248097D01*
X147790248Y-103250000D01*
X146100830Y-103250000D01*
X146100587Y-103249999D01*
X146100029Y-103249998D01*
X146099905Y-103249997D01*
X146099305Y-103249993D01*
X146099237Y-103249971D01*
X146099170Y-103249993D01*
X145567292Y-103245578D01*
X144532697Y-103236991D01*
X144513400Y-103234928D01*
X144465826Y-103225054D01*
X144430263Y-103209977D01*
X144398305Y-103188238D01*
X144371220Y-103160700D01*
X144350010Y-103128380D01*
X144335527Y-103092577D01*
X144326441Y-103044829D01*
X144324700Y-103025518D01*
X144329222Y-102480690D01*
X144329221Y-102480689D01*
X144329387Y-102460784D01*
X144329386Y-102460781D01*
X144330000Y-102386923D01*
X144329999Y-102386922D01*
X144329999Y-102386921D01*
X143400001Y-101600000D01*
X143400000Y-101600000D01*
X143326738Y-101600000D01*
X142809752Y-101600000D01*
X142790438Y-101598098D01*
X142774470Y-101594921D01*
X142742775Y-101588617D01*
X142707089Y-101573835D01*
X142706330Y-101573328D01*
X142674949Y-101552359D01*
X142647640Y-101525050D01*
X142626163Y-101492908D01*
X142611382Y-101457222D01*
X142601902Y-101409561D01*
X142600000Y-101390248D01*
X142600000Y-100609751D01*
X142601902Y-100590438D01*
X142611382Y-100542777D01*
X142626162Y-100507092D01*
X142647642Y-100474946D01*
X142674946Y-100447642D01*
X142707092Y-100426162D01*
X142742775Y-100411382D01*
X142768021Y-100406360D01*
X142790439Y-100401902D01*
X142809752Y-100400000D01*
X147790248Y-100400000D01*
X147809561Y-100401902D01*
G37*
%TD.AperFunction*%
%TD*%
%TA.AperFunction,Conductor*%
%TO.N,/Power/BUCK_SW*%
G36*
X141395080Y-100400475D02*
G01*
X141404726Y-100401425D01*
X141414307Y-100402846D01*
X141447667Y-100409481D01*
X141466230Y-100415113D01*
X141483900Y-100422432D01*
X141501014Y-100431579D01*
X141516939Y-100442220D01*
X141531941Y-100454531D01*
X141545468Y-100468058D01*
X141557773Y-100483052D01*
X141568416Y-100498979D01*
X141577565Y-100516096D01*
X141584886Y-100533772D01*
X141590518Y-100552338D01*
X141597147Y-100585659D01*
X141598573Y-100595267D01*
X141599523Y-100604907D01*
X141600000Y-100614616D01*
X141600000Y-103644170D01*
X141599833Y-103649909D01*
X141599501Y-103655626D01*
X141599003Y-103661339D01*
X141596645Y-103681587D01*
X141594661Y-103692882D01*
X141592040Y-103703984D01*
X141588762Y-103714978D01*
X141581819Y-103734130D01*
X141579712Y-103739456D01*
X141577444Y-103744737D01*
X141575026Y-103749944D01*
X141537545Y-103824904D01*
X141537546Y-103824905D01*
X141500000Y-103900000D01*
X141499999Y-103900001D01*
X141400000Y-104099999D01*
X141400000Y-104885382D01*
X141399523Y-104895091D01*
X141398573Y-104904731D01*
X141397147Y-104914339D01*
X141390518Y-104947660D01*
X141384886Y-104966227D01*
X141377566Y-104983900D01*
X141368421Y-105001011D01*
X141362655Y-105009642D01*
X141314608Y-105047525D01*
X141263422Y-105052192D01*
X141254300Y-105050610D01*
X141254285Y-105050607D01*
X141254269Y-105050605D01*
X141244716Y-105049187D01*
X141232295Y-105047655D01*
X141222623Y-105046702D01*
X141210087Y-105045778D01*
X141200400Y-105045304D01*
X141187915Y-105044999D01*
X141187897Y-105044999D01*
X140215405Y-105044999D01*
X140214919Y-105044998D01*
X140212543Y-105044986D01*
X140211148Y-105044908D01*
X140207682Y-105044772D01*
X140202665Y-105044625D01*
X140198783Y-105044549D01*
X140193782Y-105044500D01*
X140113401Y-105044500D01*
X140113197Y-105044499D01*
X140084398Y-105034985D01*
X140055492Y-105025593D01*
X140055324Y-105025380D01*
X140055100Y-105025306D01*
X140053378Y-105022912D01*
X140022219Y-104983386D01*
X140015113Y-104966231D01*
X140009481Y-104947667D01*
X140002846Y-104914307D01*
X140001425Y-104904726D01*
X140000475Y-104895080D01*
X140000000Y-104885388D01*
X140000000Y-104155831D01*
X140000166Y-104150106D01*
X140000498Y-104144374D01*
X140000993Y-104138684D01*
X140001693Y-104132671D01*
X140003353Y-104118414D01*
X140005336Y-104107124D01*
X140007962Y-104096000D01*
X140011229Y-104085042D01*
X140018197Y-104065820D01*
X140020274Y-104060570D01*
X140022568Y-104055229D01*
X140024963Y-104050073D01*
X140178886Y-103742229D01*
X140250000Y-103600000D01*
X140500000Y-103100000D01*
X140500000Y-100614610D01*
X140500476Y-100604916D01*
X140500477Y-100604907D01*
X140501426Y-100595269D01*
X140502850Y-100585670D01*
X140502853Y-100585659D01*
X140506386Y-100567891D01*
X140509481Y-100552336D01*
X140515112Y-100533771D01*
X140522433Y-100516096D01*
X140531575Y-100498989D01*
X140542228Y-100483048D01*
X140554530Y-100468057D01*
X140568057Y-100454530D01*
X140583051Y-100442226D01*
X140583060Y-100442220D01*
X140598989Y-100431575D01*
X140616097Y-100422432D01*
X140633773Y-100415110D01*
X140652337Y-100409480D01*
X140668013Y-100406362D01*
X140668016Y-100406360D01*
X140668021Y-100406360D01*
X140685695Y-100402845D01*
X140695273Y-100401425D01*
X140704919Y-100400476D01*
X140714612Y-100400000D01*
X141385388Y-100400000D01*
X141395080Y-100400475D01*
G37*
%TD.AperFunction*%
%TD*%
%TA.AperFunction,Conductor*%
%TO.N,+VBUS*%
G36*
X160288796Y-112400264D02*
G01*
X160296926Y-112400797D01*
X160304964Y-112401589D01*
X160398063Y-112413845D01*
X160413957Y-112417007D01*
X160429541Y-112421182D01*
X160444883Y-112426390D01*
X160511338Y-112453917D01*
X160541688Y-112471925D01*
X160568534Y-112493559D01*
X160580767Y-112505751D01*
X160583044Y-112507082D01*
X160583045Y-112507083D01*
X160620214Y-112528806D01*
X160633383Y-112537681D01*
X160645903Y-112547341D01*
X160657828Y-112557828D01*
X161016344Y-112916344D01*
X161024518Y-112925363D01*
X161032209Y-112934735D01*
X161039455Y-112944505D01*
X161061134Y-112976949D01*
X161072595Y-112998390D01*
X161081762Y-113020522D01*
X161088818Y-113043783D01*
X161092381Y-113061696D01*
X161094755Y-113087288D01*
X161094469Y-113112578D01*
X161091513Y-113138124D01*
X161088799Y-113150314D01*
X161080056Y-113175962D01*
X161068767Y-113200064D01*
X161054657Y-113223205D01*
X161035651Y-113247844D01*
X161026786Y-113258121D01*
X161017415Y-113267852D01*
X161007480Y-113277097D01*
X160673578Y-113555351D01*
X160673566Y-113555361D01*
X160673564Y-113555363D01*
X160651494Y-113573754D01*
X160642944Y-113580271D01*
X160634133Y-113586402D01*
X160625044Y-113592158D01*
X160517411Y-113653935D01*
X160497900Y-113662982D01*
X160477901Y-113670222D01*
X160457124Y-113675761D01*
X160334923Y-113697201D01*
X160324258Y-113698599D01*
X160313550Y-113699532D01*
X160302787Y-113700000D01*
X159712179Y-113700000D01*
X159704073Y-113699734D01*
X159695996Y-113699204D01*
X159687931Y-113698410D01*
X159678921Y-113697224D01*
X159678918Y-113697224D01*
X159594835Y-113686154D01*
X159578922Y-113682988D01*
X159563351Y-113678815D01*
X159547998Y-113673603D01*
X159472589Y-113642368D01*
X159458041Y-113635194D01*
X159444086Y-113627137D01*
X159430600Y-113618126D01*
X159365844Y-113568437D01*
X159353649Y-113557742D01*
X159342256Y-113546349D01*
X159331561Y-113534154D01*
X159281872Y-113469398D01*
X159272861Y-113455912D01*
X159264804Y-113441957D01*
X159257630Y-113427410D01*
X159226394Y-113352000D01*
X159221181Y-113336643D01*
X159217007Y-113321065D01*
X159213846Y-113305173D01*
X159201589Y-113212074D01*
X159200796Y-113204030D01*
X159200264Y-113195905D01*
X159200000Y-113187820D01*
X159200000Y-112912178D01*
X159200264Y-112904094D01*
X159200797Y-112895965D01*
X159201590Y-112887920D01*
X159213846Y-112794822D01*
X159217006Y-112778936D01*
X159221183Y-112763348D01*
X159226390Y-112748007D01*
X159257633Y-112672581D01*
X159264801Y-112658046D01*
X159272864Y-112644079D01*
X159281856Y-112630620D01*
X159331578Y-112565822D01*
X159342251Y-112553653D01*
X159353653Y-112542251D01*
X159365830Y-112531572D01*
X159430613Y-112481862D01*
X159444075Y-112472866D01*
X159458052Y-112464796D01*
X159472566Y-112457638D01*
X159548012Y-112426387D01*
X159563352Y-112421181D01*
X159578931Y-112417007D01*
X159594821Y-112413846D01*
X159687927Y-112401589D01*
X159695966Y-112400797D01*
X159704095Y-112400264D01*
X159712179Y-112400000D01*
X160280714Y-112400000D01*
X160288796Y-112400264D01*
G37*
%TD.AperFunction*%
%TD*%
%TA.AperFunction,Conductor*%
%TO.N,GND*%
G36*
X154009561Y-101501902D02*
G01*
X154057222Y-101511382D01*
X154092908Y-101526163D01*
X154125050Y-101547640D01*
X154152359Y-101574949D01*
X154173328Y-101606330D01*
X154173835Y-101607089D01*
X154188616Y-101642775D01*
X154198097Y-101690436D01*
X154200000Y-101709751D01*
X154200000Y-105090248D01*
X154198097Y-105109563D01*
X154188616Y-105157224D01*
X154173835Y-105192910D01*
X154152362Y-105225047D01*
X154125047Y-105252362D01*
X154092910Y-105273835D01*
X154057224Y-105288616D01*
X154009563Y-105298097D01*
X153990248Y-105300000D01*
X151509752Y-105300000D01*
X151490438Y-105298098D01*
X151474470Y-105294921D01*
X151442775Y-105288617D01*
X151407089Y-105273835D01*
X151406330Y-105273328D01*
X151374949Y-105252359D01*
X151347640Y-105225050D01*
X151326163Y-105192908D01*
X151311382Y-105157222D01*
X151301902Y-105109561D01*
X151300000Y-105090248D01*
X151300000Y-103400000D01*
X151232874Y-103340332D01*
X151232873Y-103340331D01*
X151204742Y-103315326D01*
X150917234Y-103059762D01*
X150915047Y-103057818D01*
X150841720Y-102984491D01*
X150815566Y-102969391D01*
X150808031Y-102962693D01*
X150808026Y-102962689D01*
X150456842Y-102650526D01*
X150456833Y-102650518D01*
X150456832Y-102650517D01*
X150400000Y-102600000D01*
X150399999Y-102600000D01*
X149209752Y-102600000D01*
X149190438Y-102598098D01*
X149174470Y-102594921D01*
X149142775Y-102588617D01*
X149107089Y-102573835D01*
X149106330Y-102573328D01*
X149074949Y-102552359D01*
X149047640Y-102525050D01*
X149026163Y-102492908D01*
X149011382Y-102457222D01*
X149001902Y-102409561D01*
X149000000Y-102390248D01*
X149000000Y-101709751D01*
X149001902Y-101690438D01*
X149011382Y-101642777D01*
X149026162Y-101607092D01*
X149047642Y-101574946D01*
X149074946Y-101547642D01*
X149107092Y-101526162D01*
X149142775Y-101511382D01*
X149168021Y-101506360D01*
X149190439Y-101501902D01*
X149209752Y-101500000D01*
X153990248Y-101500000D01*
X154009561Y-101501902D01*
G37*
%TD.AperFunction*%
%TD*%
%TA.AperFunction,Conductor*%
%TO.N,+VBAT*%
G36*
X139280898Y-111393602D02*
G01*
X139768003Y-111891821D01*
X139771336Y-111900132D01*
X139768003Y-111908179D01*
X139280898Y-112406397D01*
X139272664Y-112409917D01*
X139267299Y-112408683D01*
X138756467Y-112153233D01*
X138750600Y-112146467D01*
X138750000Y-112142768D01*
X138750000Y-111657231D01*
X138753427Y-111648958D01*
X138756467Y-111646766D01*
X139267301Y-111391315D01*
X139276231Y-111390681D01*
X139280898Y-111393602D01*
G37*
%TD.AperFunction*%
%TD*%
M02*
