%TF.GenerationSoftware,KiCad,Pcbnew,10.0.0*%
%TF.CreationDate,2026-09-07T00:58:55-05:00*%
%TF.ProjectId,no_fly_zone,6e6f5f66-6c79-45f7-9a6f-6e652e6b6963,rev?*%
%TF.SameCoordinates,Original*%
%TF.FileFunction,Legend,Bot*%
%TF.FilePolarity,Positive*%
%FSLAX46Y46*%
G04 Gerber Fmt 4.6, Leading zero omitted, Abs format (unit mm)*
G04 Created by KiCad (PCBNEW 10.0.0) date 2026-09-07 00:58:55*
%MOMM*%
%LPD*%
G01*
G04 APERTURE LIST*
%ADD10C,0.150000*%
%ADD11C,0.120000*%
G04 APERTURE END LIST*
D10*
X167380000Y-106510000D02*
X167630000Y-106510000D01*
X167630000Y-106505000D02*
X167630000Y-106255000D01*
X167630000Y-106250000D02*
X167880000Y-106250000D01*
X167880000Y-106505000D02*
X167880000Y-106255000D01*
X166510000Y-109100000D02*
G75*
G02*
X166510000Y-109540002I0J-220001D01*
G01*
X166510000Y-109980000D02*
G75*
G02*
X166510000Y-109540000I0J220000D01*
G01*
X166540000Y-109980001D02*
G75*
G02*
X166540000Y-110419999I0J-219999D01*
G01*
X166519999Y-110860000D02*
G75*
G02*
X166519999Y-110420002I1J219999D01*
G01*
X166519999Y-110860000D02*
G75*
G02*
X166519999Y-111300000I1J-220000D01*
G01*
X166500000Y-111320000D02*
G75*
G02*
X166200000Y-111320000I-150000J0D01*
G01*
X166200000Y-111320000D02*
G75*
G02*
X166500000Y-111320000I150000J0D01*
G01*
X166346396Y-113336396D02*
X166346396Y-111510000D01*
X166340000Y-107970000D02*
X166340000Y-108810000D01*
X166970000Y-107605781D02*
X166340000Y-107970000D01*
X166480000Y-108990000D02*
G75*
G02*
X166180000Y-108990000I-150000J0D01*
G01*
X166180000Y-108990000D02*
G75*
G02*
X166480000Y-108990000I150000J0D01*
G01*
X165220000Y-106340000D02*
G75*
G02*
X164920000Y-106340000I-150000J0D01*
G01*
X164920000Y-106340000D02*
G75*
G02*
X165220000Y-106340000I150000J0D01*
G01*
X161870000Y-106340000D02*
X164870000Y-106340000D01*
X167880000Y-106510000D02*
X168130000Y-106510000D01*
X168130000Y-106505000D02*
X168130000Y-106255000D01*
X168130000Y-106250000D02*
X168380000Y-106250000D01*
X168380000Y-106505000D02*
X168380000Y-106255000D01*
X168380000Y-106510000D02*
X168630000Y-106510000D01*
X168630000Y-106505000D02*
X168630000Y-106255000D01*
X168630000Y-106250000D02*
X168880000Y-106250000D01*
X168890000Y-106505000D02*
X168890000Y-106255000D01*
X168890000Y-106510000D02*
X169140000Y-106510000D01*
X169140000Y-106505000D02*
X169140000Y-106255000D01*
X169145000Y-106250000D02*
X169395000Y-106250000D01*
X169400000Y-106500000D02*
X169400000Y-106250000D01*
X169650000Y-106500000D02*
X169400000Y-106500000D01*
X162210000Y-105992894D02*
X161856447Y-106346447D01*
X161856447Y-106346447D02*
X162210000Y-106700000D01*
X162210000Y-105992894D02*
X169940003Y-105992894D01*
X169970000Y-106022894D02*
X170323553Y-106376447D01*
X169970000Y-106730000D02*
X170323553Y-106376447D01*
X166970000Y-106730000D02*
X169970000Y-106730000D01*
X162210000Y-106700000D02*
X165710000Y-106700000D01*
X166346396Y-113336396D02*
X165710000Y-112700000D01*
X166970000Y-112730000D02*
X166346396Y-113336396D01*
X165710000Y-112700000D02*
X165710000Y-106700000D01*
X166970000Y-112730000D02*
X166970000Y-106730000D01*
X168223220Y-120163152D02*
X168223220Y-120829819D01*
X168223220Y-120258390D02*
X168175601Y-120210771D01*
X168175601Y-120210771D02*
X168080363Y-120163152D01*
X168080363Y-120163152D02*
X167937506Y-120163152D01*
X167937506Y-120163152D02*
X167842268Y-120210771D01*
X167842268Y-120210771D02*
X167794649Y-120306009D01*
X167794649Y-120306009D02*
X167794649Y-120829819D01*
X167175601Y-120829819D02*
X167270839Y-120782200D01*
X167270839Y-120782200D02*
X167318458Y-120734580D01*
X167318458Y-120734580D02*
X167366077Y-120639342D01*
X167366077Y-120639342D02*
X167366077Y-120353628D01*
X167366077Y-120353628D02*
X167318458Y-120258390D01*
X167318458Y-120258390D02*
X167270839Y-120210771D01*
X167270839Y-120210771D02*
X167175601Y-120163152D01*
X167175601Y-120163152D02*
X167032744Y-120163152D01*
X167032744Y-120163152D02*
X166937506Y-120210771D01*
X166937506Y-120210771D02*
X166889887Y-120258390D01*
X166889887Y-120258390D02*
X166842268Y-120353628D01*
X166842268Y-120353628D02*
X166842268Y-120639342D01*
X166842268Y-120639342D02*
X166889887Y-120734580D01*
X166889887Y-120734580D02*
X166937506Y-120782200D01*
X166937506Y-120782200D02*
X167032744Y-120829819D01*
X167032744Y-120829819D02*
X167175601Y-120829819D01*
X166651792Y-120925057D02*
X165889887Y-120925057D01*
X165794648Y-120163152D02*
X165413696Y-120163152D01*
X165651791Y-120829819D02*
X165651791Y-119972676D01*
X165651791Y-119972676D02*
X165604172Y-119877438D01*
X165604172Y-119877438D02*
X165508934Y-119829819D01*
X165508934Y-119829819D02*
X165413696Y-119829819D01*
X164937505Y-120829819D02*
X165032743Y-120782200D01*
X165032743Y-120782200D02*
X165080362Y-120686961D01*
X165080362Y-120686961D02*
X165080362Y-119829819D01*
X164651790Y-120163152D02*
X164413695Y-120829819D01*
X164175600Y-120163152D02*
X164413695Y-120829819D01*
X164413695Y-120829819D02*
X164508933Y-121067914D01*
X164508933Y-121067914D02*
X164556552Y-121115533D01*
X164556552Y-121115533D02*
X164651790Y-121163152D01*
X164032743Y-120925057D02*
X163270838Y-120925057D01*
X163127980Y-120163152D02*
X162604171Y-120163152D01*
X162604171Y-120163152D02*
X163127980Y-120829819D01*
X163127980Y-120829819D02*
X162604171Y-120829819D01*
X162080361Y-120829819D02*
X162175599Y-120782200D01*
X162175599Y-120782200D02*
X162223218Y-120734580D01*
X162223218Y-120734580D02*
X162270837Y-120639342D01*
X162270837Y-120639342D02*
X162270837Y-120353628D01*
X162270837Y-120353628D02*
X162223218Y-120258390D01*
X162223218Y-120258390D02*
X162175599Y-120210771D01*
X162175599Y-120210771D02*
X162080361Y-120163152D01*
X162080361Y-120163152D02*
X161937504Y-120163152D01*
X161937504Y-120163152D02*
X161842266Y-120210771D01*
X161842266Y-120210771D02*
X161794647Y-120258390D01*
X161794647Y-120258390D02*
X161747028Y-120353628D01*
X161747028Y-120353628D02*
X161747028Y-120639342D01*
X161747028Y-120639342D02*
X161794647Y-120734580D01*
X161794647Y-120734580D02*
X161842266Y-120782200D01*
X161842266Y-120782200D02*
X161937504Y-120829819D01*
X161937504Y-120829819D02*
X162080361Y-120829819D01*
X161318456Y-120163152D02*
X161318456Y-120829819D01*
X161318456Y-120258390D02*
X161270837Y-120210771D01*
X161270837Y-120210771D02*
X161175599Y-120163152D01*
X161175599Y-120163152D02*
X161032742Y-120163152D01*
X161032742Y-120163152D02*
X160937504Y-120210771D01*
X160937504Y-120210771D02*
X160889885Y-120306009D01*
X160889885Y-120306009D02*
X160889885Y-120829819D01*
X160032742Y-120782200D02*
X160127980Y-120829819D01*
X160127980Y-120829819D02*
X160318456Y-120829819D01*
X160318456Y-120829819D02*
X160413694Y-120782200D01*
X160413694Y-120782200D02*
X160461313Y-120686961D01*
X160461313Y-120686961D02*
X160461313Y-120306009D01*
X160461313Y-120306009D02*
X160413694Y-120210771D01*
X160413694Y-120210771D02*
X160318456Y-120163152D01*
X160318456Y-120163152D02*
X160127980Y-120163152D01*
X160127980Y-120163152D02*
X160032742Y-120210771D01*
X160032742Y-120210771D02*
X159985123Y-120306009D01*
X159985123Y-120306009D02*
X159985123Y-120401247D01*
X159985123Y-120401247D02*
X160461313Y-120496485D01*
X158794646Y-120448866D02*
X158032742Y-120448866D01*
X156223218Y-120829819D02*
X156556551Y-120353628D01*
X156794646Y-120829819D02*
X156794646Y-119829819D01*
X156794646Y-119829819D02*
X156413694Y-119829819D01*
X156413694Y-119829819D02*
X156318456Y-119877438D01*
X156318456Y-119877438D02*
X156270837Y-119925057D01*
X156270837Y-119925057D02*
X156223218Y-120020295D01*
X156223218Y-120020295D02*
X156223218Y-120163152D01*
X156223218Y-120163152D02*
X156270837Y-120258390D01*
X156270837Y-120258390D02*
X156318456Y-120306009D01*
X156318456Y-120306009D02*
X156413694Y-120353628D01*
X156413694Y-120353628D02*
X156794646Y-120353628D01*
X155413694Y-120782200D02*
X155508932Y-120829819D01*
X155508932Y-120829819D02*
X155699408Y-120829819D01*
X155699408Y-120829819D02*
X155794646Y-120782200D01*
X155794646Y-120782200D02*
X155842265Y-120686961D01*
X155842265Y-120686961D02*
X155842265Y-120306009D01*
X155842265Y-120306009D02*
X155794646Y-120210771D01*
X155794646Y-120210771D02*
X155699408Y-120163152D01*
X155699408Y-120163152D02*
X155508932Y-120163152D01*
X155508932Y-120163152D02*
X155413694Y-120210771D01*
X155413694Y-120210771D02*
X155366075Y-120306009D01*
X155366075Y-120306009D02*
X155366075Y-120401247D01*
X155366075Y-120401247D02*
X155842265Y-120496485D01*
X155032741Y-120163152D02*
X154794646Y-120829819D01*
X154794646Y-120829819D02*
X154556551Y-120163152D01*
X153461312Y-119925057D02*
X153413693Y-119877438D01*
X153413693Y-119877438D02*
X153318455Y-119829819D01*
X153318455Y-119829819D02*
X153080360Y-119829819D01*
X153080360Y-119829819D02*
X152985122Y-119877438D01*
X152985122Y-119877438D02*
X152937503Y-119925057D01*
X152937503Y-119925057D02*
X152889884Y-120020295D01*
X152889884Y-120020295D02*
X152889884Y-120115533D01*
X152889884Y-120115533D02*
X152937503Y-120258390D01*
X152937503Y-120258390D02*
X153508931Y-120829819D01*
X153508931Y-120829819D02*
X152889884Y-120829819D01*
X152461312Y-120734580D02*
X152413693Y-120782200D01*
X152413693Y-120782200D02*
X152461312Y-120829819D01*
X152461312Y-120829819D02*
X152508931Y-120782200D01*
X152508931Y-120782200D02*
X152461312Y-120734580D01*
X152461312Y-120734580D02*
X152461312Y-120829819D01*
X151461313Y-120829819D02*
X152032741Y-120829819D01*
X151747027Y-120829819D02*
X151747027Y-119829819D01*
X151747027Y-119829819D02*
X151842265Y-119972676D01*
X151842265Y-119972676D02*
X151937503Y-120067914D01*
X151937503Y-120067914D02*
X152032741Y-120115533D01*
X150270836Y-120448866D02*
X149508932Y-120448866D01*
X148080360Y-119829819D02*
X147985122Y-119829819D01*
X147985122Y-119829819D02*
X147889884Y-119877438D01*
X147889884Y-119877438D02*
X147842265Y-119925057D01*
X147842265Y-119925057D02*
X147794646Y-120020295D01*
X147794646Y-120020295D02*
X147747027Y-120210771D01*
X147747027Y-120210771D02*
X147747027Y-120448866D01*
X147747027Y-120448866D02*
X147794646Y-120639342D01*
X147794646Y-120639342D02*
X147842265Y-120734580D01*
X147842265Y-120734580D02*
X147889884Y-120782200D01*
X147889884Y-120782200D02*
X147985122Y-120829819D01*
X147985122Y-120829819D02*
X148080360Y-120829819D01*
X148080360Y-120829819D02*
X148175598Y-120782200D01*
X148175598Y-120782200D02*
X148223217Y-120734580D01*
X148223217Y-120734580D02*
X148270836Y-120639342D01*
X148270836Y-120639342D02*
X148318455Y-120448866D01*
X148318455Y-120448866D02*
X148318455Y-120210771D01*
X148318455Y-120210771D02*
X148270836Y-120020295D01*
X148270836Y-120020295D02*
X148223217Y-119925057D01*
X148223217Y-119925057D02*
X148175598Y-119877438D01*
X148175598Y-119877438D02*
X148080360Y-119829819D01*
X147270836Y-120829819D02*
X147080360Y-120829819D01*
X147080360Y-120829819D02*
X146985122Y-120782200D01*
X146985122Y-120782200D02*
X146937503Y-120734580D01*
X146937503Y-120734580D02*
X146842265Y-120591723D01*
X146842265Y-120591723D02*
X146794646Y-120401247D01*
X146794646Y-120401247D02*
X146794646Y-120020295D01*
X146794646Y-120020295D02*
X146842265Y-119925057D01*
X146842265Y-119925057D02*
X146889884Y-119877438D01*
X146889884Y-119877438D02*
X146985122Y-119829819D01*
X146985122Y-119829819D02*
X147175598Y-119829819D01*
X147175598Y-119829819D02*
X147270836Y-119877438D01*
X147270836Y-119877438D02*
X147318455Y-119925057D01*
X147318455Y-119925057D02*
X147366074Y-120020295D01*
X147366074Y-120020295D02*
X147366074Y-120258390D01*
X147366074Y-120258390D02*
X147318455Y-120353628D01*
X147318455Y-120353628D02*
X147270836Y-120401247D01*
X147270836Y-120401247D02*
X147175598Y-120448866D01*
X147175598Y-120448866D02*
X146985122Y-120448866D01*
X146985122Y-120448866D02*
X146889884Y-120401247D01*
X146889884Y-120401247D02*
X146842265Y-120353628D01*
X146842265Y-120353628D02*
X146794646Y-120258390D01*
X145651789Y-119782200D02*
X146508931Y-121067914D01*
X145366074Y-119925057D02*
X145318455Y-119877438D01*
X145318455Y-119877438D02*
X145223217Y-119829819D01*
X145223217Y-119829819D02*
X144985122Y-119829819D01*
X144985122Y-119829819D02*
X144889884Y-119877438D01*
X144889884Y-119877438D02*
X144842265Y-119925057D01*
X144842265Y-119925057D02*
X144794646Y-120020295D01*
X144794646Y-120020295D02*
X144794646Y-120115533D01*
X144794646Y-120115533D02*
X144842265Y-120258390D01*
X144842265Y-120258390D02*
X145413693Y-120829819D01*
X145413693Y-120829819D02*
X144794646Y-120829819D01*
X143937503Y-119829819D02*
X144127979Y-119829819D01*
X144127979Y-119829819D02*
X144223217Y-119877438D01*
X144223217Y-119877438D02*
X144270836Y-119925057D01*
X144270836Y-119925057D02*
X144366074Y-120067914D01*
X144366074Y-120067914D02*
X144413693Y-120258390D01*
X144413693Y-120258390D02*
X144413693Y-120639342D01*
X144413693Y-120639342D02*
X144366074Y-120734580D01*
X144366074Y-120734580D02*
X144318455Y-120782200D01*
X144318455Y-120782200D02*
X144223217Y-120829819D01*
X144223217Y-120829819D02*
X144032741Y-120829819D01*
X144032741Y-120829819D02*
X143937503Y-120782200D01*
X143937503Y-120782200D02*
X143889884Y-120734580D01*
X143889884Y-120734580D02*
X143842265Y-120639342D01*
X143842265Y-120639342D02*
X143842265Y-120401247D01*
X143842265Y-120401247D02*
X143889884Y-120306009D01*
X143889884Y-120306009D02*
X143937503Y-120258390D01*
X143937503Y-120258390D02*
X144032741Y-120210771D01*
X144032741Y-120210771D02*
X144223217Y-120210771D01*
X144223217Y-120210771D02*
X144318455Y-120258390D01*
X144318455Y-120258390D02*
X144366074Y-120306009D01*
X144366074Y-120306009D02*
X144413693Y-120401247D01*
X145852857Y-101384580D02*
X145900476Y-101432200D01*
X145900476Y-101432200D02*
X146043333Y-101479819D01*
X146043333Y-101479819D02*
X146138571Y-101479819D01*
X146138571Y-101479819D02*
X146281428Y-101432200D01*
X146281428Y-101432200D02*
X146376666Y-101336961D01*
X146376666Y-101336961D02*
X146424285Y-101241723D01*
X146424285Y-101241723D02*
X146471904Y-101051247D01*
X146471904Y-101051247D02*
X146471904Y-100908390D01*
X146471904Y-100908390D02*
X146424285Y-100717914D01*
X146424285Y-100717914D02*
X146376666Y-100622676D01*
X146376666Y-100622676D02*
X146281428Y-100527438D01*
X146281428Y-100527438D02*
X146138571Y-100479819D01*
X146138571Y-100479819D02*
X146043333Y-100479819D01*
X146043333Y-100479819D02*
X145900476Y-100527438D01*
X145900476Y-100527438D02*
X145852857Y-100575057D01*
X145471904Y-100575057D02*
X145424285Y-100527438D01*
X145424285Y-100527438D02*
X145329047Y-100479819D01*
X145329047Y-100479819D02*
X145090952Y-100479819D01*
X145090952Y-100479819D02*
X144995714Y-100527438D01*
X144995714Y-100527438D02*
X144948095Y-100575057D01*
X144948095Y-100575057D02*
X144900476Y-100670295D01*
X144900476Y-100670295D02*
X144900476Y-100765533D01*
X144900476Y-100765533D02*
X144948095Y-100908390D01*
X144948095Y-100908390D02*
X145519523Y-101479819D01*
X145519523Y-101479819D02*
X144900476Y-101479819D01*
X144281428Y-100479819D02*
X144186190Y-100479819D01*
X144186190Y-100479819D02*
X144090952Y-100527438D01*
X144090952Y-100527438D02*
X144043333Y-100575057D01*
X144043333Y-100575057D02*
X143995714Y-100670295D01*
X143995714Y-100670295D02*
X143948095Y-100860771D01*
X143948095Y-100860771D02*
X143948095Y-101098866D01*
X143948095Y-101098866D02*
X143995714Y-101289342D01*
X143995714Y-101289342D02*
X144043333Y-101384580D01*
X144043333Y-101384580D02*
X144090952Y-101432200D01*
X144090952Y-101432200D02*
X144186190Y-101479819D01*
X144186190Y-101479819D02*
X144281428Y-101479819D01*
X144281428Y-101479819D02*
X144376666Y-101432200D01*
X144376666Y-101432200D02*
X144424285Y-101384580D01*
X144424285Y-101384580D02*
X144471904Y-101289342D01*
X144471904Y-101289342D02*
X144519523Y-101098866D01*
X144519523Y-101098866D02*
X144519523Y-100860771D01*
X144519523Y-100860771D02*
X144471904Y-100670295D01*
X144471904Y-100670295D02*
X144424285Y-100575057D01*
X144424285Y-100575057D02*
X144376666Y-100527438D01*
X144376666Y-100527438D02*
X144281428Y-100479819D01*
X147466666Y-106554819D02*
X147799999Y-106078628D01*
X148038094Y-106554819D02*
X148038094Y-105554819D01*
X148038094Y-105554819D02*
X147657142Y-105554819D01*
X147657142Y-105554819D02*
X147561904Y-105602438D01*
X147561904Y-105602438D02*
X147514285Y-105650057D01*
X147514285Y-105650057D02*
X147466666Y-105745295D01*
X147466666Y-105745295D02*
X147466666Y-105888152D01*
X147466666Y-105888152D02*
X147514285Y-105983390D01*
X147514285Y-105983390D02*
X147561904Y-106031009D01*
X147561904Y-106031009D02*
X147657142Y-106078628D01*
X147657142Y-106078628D02*
X148038094Y-106078628D01*
X146609523Y-105554819D02*
X146799999Y-105554819D01*
X146799999Y-105554819D02*
X146895237Y-105602438D01*
X146895237Y-105602438D02*
X146942856Y-105650057D01*
X146942856Y-105650057D02*
X147038094Y-105792914D01*
X147038094Y-105792914D02*
X147085713Y-105983390D01*
X147085713Y-105983390D02*
X147085713Y-106364342D01*
X147085713Y-106364342D02*
X147038094Y-106459580D01*
X147038094Y-106459580D02*
X146990475Y-106507200D01*
X146990475Y-106507200D02*
X146895237Y-106554819D01*
X146895237Y-106554819D02*
X146704761Y-106554819D01*
X146704761Y-106554819D02*
X146609523Y-106507200D01*
X146609523Y-106507200D02*
X146561904Y-106459580D01*
X146561904Y-106459580D02*
X146514285Y-106364342D01*
X146514285Y-106364342D02*
X146514285Y-106126247D01*
X146514285Y-106126247D02*
X146561904Y-106031009D01*
X146561904Y-106031009D02*
X146609523Y-105983390D01*
X146609523Y-105983390D02*
X146704761Y-105935771D01*
X146704761Y-105935771D02*
X146895237Y-105935771D01*
X146895237Y-105935771D02*
X146990475Y-105983390D01*
X146990475Y-105983390D02*
X147038094Y-106031009D01*
X147038094Y-106031009D02*
X147085713Y-106126247D01*
X170166666Y-110859580D02*
X170214285Y-110907200D01*
X170214285Y-110907200D02*
X170357142Y-110954819D01*
X170357142Y-110954819D02*
X170452380Y-110954819D01*
X170452380Y-110954819D02*
X170595237Y-110907200D01*
X170595237Y-110907200D02*
X170690475Y-110811961D01*
X170690475Y-110811961D02*
X170738094Y-110716723D01*
X170738094Y-110716723D02*
X170785713Y-110526247D01*
X170785713Y-110526247D02*
X170785713Y-110383390D01*
X170785713Y-110383390D02*
X170738094Y-110192914D01*
X170738094Y-110192914D02*
X170690475Y-110097676D01*
X170690475Y-110097676D02*
X170595237Y-110002438D01*
X170595237Y-110002438D02*
X170452380Y-109954819D01*
X170452380Y-109954819D02*
X170357142Y-109954819D01*
X170357142Y-109954819D02*
X170214285Y-110002438D01*
X170214285Y-110002438D02*
X170166666Y-110050057D01*
X169690475Y-110954819D02*
X169499999Y-110954819D01*
X169499999Y-110954819D02*
X169404761Y-110907200D01*
X169404761Y-110907200D02*
X169357142Y-110859580D01*
X169357142Y-110859580D02*
X169261904Y-110716723D01*
X169261904Y-110716723D02*
X169214285Y-110526247D01*
X169214285Y-110526247D02*
X169214285Y-110145295D01*
X169214285Y-110145295D02*
X169261904Y-110050057D01*
X169261904Y-110050057D02*
X169309523Y-110002438D01*
X169309523Y-110002438D02*
X169404761Y-109954819D01*
X169404761Y-109954819D02*
X169595237Y-109954819D01*
X169595237Y-109954819D02*
X169690475Y-110002438D01*
X169690475Y-110002438D02*
X169738094Y-110050057D01*
X169738094Y-110050057D02*
X169785713Y-110145295D01*
X169785713Y-110145295D02*
X169785713Y-110383390D01*
X169785713Y-110383390D02*
X169738094Y-110478628D01*
X169738094Y-110478628D02*
X169690475Y-110526247D01*
X169690475Y-110526247D02*
X169595237Y-110573866D01*
X169595237Y-110573866D02*
X169404761Y-110573866D01*
X169404761Y-110573866D02*
X169309523Y-110526247D01*
X169309523Y-110526247D02*
X169261904Y-110478628D01*
X169261904Y-110478628D02*
X169214285Y-110383390D01*
X138084166Y-112364819D02*
X138417499Y-111888628D01*
X138655594Y-112364819D02*
X138655594Y-111364819D01*
X138655594Y-111364819D02*
X138274642Y-111364819D01*
X138274642Y-111364819D02*
X138179404Y-111412438D01*
X138179404Y-111412438D02*
X138131785Y-111460057D01*
X138131785Y-111460057D02*
X138084166Y-111555295D01*
X138084166Y-111555295D02*
X138084166Y-111698152D01*
X138084166Y-111698152D02*
X138131785Y-111793390D01*
X138131785Y-111793390D02*
X138179404Y-111841009D01*
X138179404Y-111841009D02*
X138274642Y-111888628D01*
X138274642Y-111888628D02*
X138655594Y-111888628D01*
X137607975Y-112364819D02*
X137417499Y-112364819D01*
X137417499Y-112364819D02*
X137322261Y-112317200D01*
X137322261Y-112317200D02*
X137274642Y-112269580D01*
X137274642Y-112269580D02*
X137179404Y-112126723D01*
X137179404Y-112126723D02*
X137131785Y-111936247D01*
X137131785Y-111936247D02*
X137131785Y-111555295D01*
X137131785Y-111555295D02*
X137179404Y-111460057D01*
X137179404Y-111460057D02*
X137227023Y-111412438D01*
X137227023Y-111412438D02*
X137322261Y-111364819D01*
X137322261Y-111364819D02*
X137512737Y-111364819D01*
X137512737Y-111364819D02*
X137607975Y-111412438D01*
X137607975Y-111412438D02*
X137655594Y-111460057D01*
X137655594Y-111460057D02*
X137703213Y-111555295D01*
X137703213Y-111555295D02*
X137703213Y-111793390D01*
X137703213Y-111793390D02*
X137655594Y-111888628D01*
X137655594Y-111888628D02*
X137607975Y-111936247D01*
X137607975Y-111936247D02*
X137512737Y-111983866D01*
X137512737Y-111983866D02*
X137322261Y-111983866D01*
X137322261Y-111983866D02*
X137227023Y-111936247D01*
X137227023Y-111936247D02*
X137179404Y-111888628D01*
X137179404Y-111888628D02*
X137131785Y-111793390D01*
X149666666Y-103984580D02*
X149714285Y-104032200D01*
X149714285Y-104032200D02*
X149857142Y-104079819D01*
X149857142Y-104079819D02*
X149952380Y-104079819D01*
X149952380Y-104079819D02*
X150095237Y-104032200D01*
X150095237Y-104032200D02*
X150190475Y-103936961D01*
X150190475Y-103936961D02*
X150238094Y-103841723D01*
X150238094Y-103841723D02*
X150285713Y-103651247D01*
X150285713Y-103651247D02*
X150285713Y-103508390D01*
X150285713Y-103508390D02*
X150238094Y-103317914D01*
X150238094Y-103317914D02*
X150190475Y-103222676D01*
X150190475Y-103222676D02*
X150095237Y-103127438D01*
X150095237Y-103127438D02*
X149952380Y-103079819D01*
X149952380Y-103079819D02*
X149857142Y-103079819D01*
X149857142Y-103079819D02*
X149714285Y-103127438D01*
X149714285Y-103127438D02*
X149666666Y-103175057D01*
X148809523Y-103413152D02*
X148809523Y-104079819D01*
X149047618Y-103032200D02*
X149285713Y-103746485D01*
X149285713Y-103746485D02*
X148666666Y-103746485D01*
X139242857Y-110284580D02*
X139290476Y-110332200D01*
X139290476Y-110332200D02*
X139433333Y-110379819D01*
X139433333Y-110379819D02*
X139528571Y-110379819D01*
X139528571Y-110379819D02*
X139671428Y-110332200D01*
X139671428Y-110332200D02*
X139766666Y-110236961D01*
X139766666Y-110236961D02*
X139814285Y-110141723D01*
X139814285Y-110141723D02*
X139861904Y-109951247D01*
X139861904Y-109951247D02*
X139861904Y-109808390D01*
X139861904Y-109808390D02*
X139814285Y-109617914D01*
X139814285Y-109617914D02*
X139766666Y-109522676D01*
X139766666Y-109522676D02*
X139671428Y-109427438D01*
X139671428Y-109427438D02*
X139528571Y-109379819D01*
X139528571Y-109379819D02*
X139433333Y-109379819D01*
X139433333Y-109379819D02*
X139290476Y-109427438D01*
X139290476Y-109427438D02*
X139242857Y-109475057D01*
X138290476Y-110379819D02*
X138861904Y-110379819D01*
X138576190Y-110379819D02*
X138576190Y-109379819D01*
X138576190Y-109379819D02*
X138671428Y-109522676D01*
X138671428Y-109522676D02*
X138766666Y-109617914D01*
X138766666Y-109617914D02*
X138861904Y-109665533D01*
X137957142Y-109379819D02*
X137290476Y-109379819D01*
X137290476Y-109379819D02*
X137719047Y-110379819D01*
X143142857Y-93059580D02*
X143190476Y-93107200D01*
X143190476Y-93107200D02*
X143333333Y-93154819D01*
X143333333Y-93154819D02*
X143428571Y-93154819D01*
X143428571Y-93154819D02*
X143571428Y-93107200D01*
X143571428Y-93107200D02*
X143666666Y-93011961D01*
X143666666Y-93011961D02*
X143714285Y-92916723D01*
X143714285Y-92916723D02*
X143761904Y-92726247D01*
X143761904Y-92726247D02*
X143761904Y-92583390D01*
X143761904Y-92583390D02*
X143714285Y-92392914D01*
X143714285Y-92392914D02*
X143666666Y-92297676D01*
X143666666Y-92297676D02*
X143571428Y-92202438D01*
X143571428Y-92202438D02*
X143428571Y-92154819D01*
X143428571Y-92154819D02*
X143333333Y-92154819D01*
X143333333Y-92154819D02*
X143190476Y-92202438D01*
X143190476Y-92202438D02*
X143142857Y-92250057D01*
X142190476Y-93154819D02*
X142761904Y-93154819D01*
X142476190Y-93154819D02*
X142476190Y-92154819D01*
X142476190Y-92154819D02*
X142571428Y-92297676D01*
X142571428Y-92297676D02*
X142666666Y-92392914D01*
X142666666Y-92392914D02*
X142761904Y-92440533D01*
X141619047Y-92583390D02*
X141714285Y-92535771D01*
X141714285Y-92535771D02*
X141761904Y-92488152D01*
X141761904Y-92488152D02*
X141809523Y-92392914D01*
X141809523Y-92392914D02*
X141809523Y-92345295D01*
X141809523Y-92345295D02*
X141761904Y-92250057D01*
X141761904Y-92250057D02*
X141714285Y-92202438D01*
X141714285Y-92202438D02*
X141619047Y-92154819D01*
X141619047Y-92154819D02*
X141428571Y-92154819D01*
X141428571Y-92154819D02*
X141333333Y-92202438D01*
X141333333Y-92202438D02*
X141285714Y-92250057D01*
X141285714Y-92250057D02*
X141238095Y-92345295D01*
X141238095Y-92345295D02*
X141238095Y-92392914D01*
X141238095Y-92392914D02*
X141285714Y-92488152D01*
X141285714Y-92488152D02*
X141333333Y-92535771D01*
X141333333Y-92535771D02*
X141428571Y-92583390D01*
X141428571Y-92583390D02*
X141619047Y-92583390D01*
X141619047Y-92583390D02*
X141714285Y-92631009D01*
X141714285Y-92631009D02*
X141761904Y-92678628D01*
X141761904Y-92678628D02*
X141809523Y-92773866D01*
X141809523Y-92773866D02*
X141809523Y-92964342D01*
X141809523Y-92964342D02*
X141761904Y-93059580D01*
X141761904Y-93059580D02*
X141714285Y-93107200D01*
X141714285Y-93107200D02*
X141619047Y-93154819D01*
X141619047Y-93154819D02*
X141428571Y-93154819D01*
X141428571Y-93154819D02*
X141333333Y-93107200D01*
X141333333Y-93107200D02*
X141285714Y-93059580D01*
X141285714Y-93059580D02*
X141238095Y-92964342D01*
X141238095Y-92964342D02*
X141238095Y-92773866D01*
X141238095Y-92773866D02*
X141285714Y-92678628D01*
X141285714Y-92678628D02*
X141333333Y-92631009D01*
X141333333Y-92631009D02*
X141428571Y-92583390D01*
X159366666Y-96659580D02*
X159414285Y-96707200D01*
X159414285Y-96707200D02*
X159557142Y-96754819D01*
X159557142Y-96754819D02*
X159652380Y-96754819D01*
X159652380Y-96754819D02*
X159795237Y-96707200D01*
X159795237Y-96707200D02*
X159890475Y-96611961D01*
X159890475Y-96611961D02*
X159938094Y-96516723D01*
X159938094Y-96516723D02*
X159985713Y-96326247D01*
X159985713Y-96326247D02*
X159985713Y-96183390D01*
X159985713Y-96183390D02*
X159938094Y-95992914D01*
X159938094Y-95992914D02*
X159890475Y-95897676D01*
X159890475Y-95897676D02*
X159795237Y-95802438D01*
X159795237Y-95802438D02*
X159652380Y-95754819D01*
X159652380Y-95754819D02*
X159557142Y-95754819D01*
X159557142Y-95754819D02*
X159414285Y-95802438D01*
X159414285Y-95802438D02*
X159366666Y-95850057D01*
X159033332Y-95754819D02*
X158414285Y-95754819D01*
X158414285Y-95754819D02*
X158747618Y-96135771D01*
X158747618Y-96135771D02*
X158604761Y-96135771D01*
X158604761Y-96135771D02*
X158509523Y-96183390D01*
X158509523Y-96183390D02*
X158461904Y-96231009D01*
X158461904Y-96231009D02*
X158414285Y-96326247D01*
X158414285Y-96326247D02*
X158414285Y-96564342D01*
X158414285Y-96564342D02*
X158461904Y-96659580D01*
X158461904Y-96659580D02*
X158509523Y-96707200D01*
X158509523Y-96707200D02*
X158604761Y-96754819D01*
X158604761Y-96754819D02*
X158890475Y-96754819D01*
X158890475Y-96754819D02*
X158985713Y-96707200D01*
X158985713Y-96707200D02*
X159033332Y-96659580D01*
X155566666Y-101759580D02*
X155614285Y-101807200D01*
X155614285Y-101807200D02*
X155757142Y-101854819D01*
X155757142Y-101854819D02*
X155852380Y-101854819D01*
X155852380Y-101854819D02*
X155995237Y-101807200D01*
X155995237Y-101807200D02*
X156090475Y-101711961D01*
X156090475Y-101711961D02*
X156138094Y-101616723D01*
X156138094Y-101616723D02*
X156185713Y-101426247D01*
X156185713Y-101426247D02*
X156185713Y-101283390D01*
X156185713Y-101283390D02*
X156138094Y-101092914D01*
X156138094Y-101092914D02*
X156090475Y-100997676D01*
X156090475Y-100997676D02*
X155995237Y-100902438D01*
X155995237Y-100902438D02*
X155852380Y-100854819D01*
X155852380Y-100854819D02*
X155757142Y-100854819D01*
X155757142Y-100854819D02*
X155614285Y-100902438D01*
X155614285Y-100902438D02*
X155566666Y-100950057D01*
X154614285Y-101854819D02*
X155185713Y-101854819D01*
X154899999Y-101854819D02*
X154899999Y-100854819D01*
X154899999Y-100854819D02*
X154995237Y-100997676D01*
X154995237Y-100997676D02*
X155090475Y-101092914D01*
X155090475Y-101092914D02*
X155185713Y-101140533D01*
X147142857Y-98759580D02*
X147190476Y-98807200D01*
X147190476Y-98807200D02*
X147333333Y-98854819D01*
X147333333Y-98854819D02*
X147428571Y-98854819D01*
X147428571Y-98854819D02*
X147571428Y-98807200D01*
X147571428Y-98807200D02*
X147666666Y-98711961D01*
X147666666Y-98711961D02*
X147714285Y-98616723D01*
X147714285Y-98616723D02*
X147761904Y-98426247D01*
X147761904Y-98426247D02*
X147761904Y-98283390D01*
X147761904Y-98283390D02*
X147714285Y-98092914D01*
X147714285Y-98092914D02*
X147666666Y-97997676D01*
X147666666Y-97997676D02*
X147571428Y-97902438D01*
X147571428Y-97902438D02*
X147428571Y-97854819D01*
X147428571Y-97854819D02*
X147333333Y-97854819D01*
X147333333Y-97854819D02*
X147190476Y-97902438D01*
X147190476Y-97902438D02*
X147142857Y-97950057D01*
X146190476Y-98854819D02*
X146761904Y-98854819D01*
X146476190Y-98854819D02*
X146476190Y-97854819D01*
X146476190Y-97854819D02*
X146571428Y-97997676D01*
X146571428Y-97997676D02*
X146666666Y-98092914D01*
X146666666Y-98092914D02*
X146761904Y-98140533D01*
X145714285Y-98854819D02*
X145523809Y-98854819D01*
X145523809Y-98854819D02*
X145428571Y-98807200D01*
X145428571Y-98807200D02*
X145380952Y-98759580D01*
X145380952Y-98759580D02*
X145285714Y-98616723D01*
X145285714Y-98616723D02*
X145238095Y-98426247D01*
X145238095Y-98426247D02*
X145238095Y-98045295D01*
X145238095Y-98045295D02*
X145285714Y-97950057D01*
X145285714Y-97950057D02*
X145333333Y-97902438D01*
X145333333Y-97902438D02*
X145428571Y-97854819D01*
X145428571Y-97854819D02*
X145619047Y-97854819D01*
X145619047Y-97854819D02*
X145714285Y-97902438D01*
X145714285Y-97902438D02*
X145761904Y-97950057D01*
X145761904Y-97950057D02*
X145809523Y-98045295D01*
X145809523Y-98045295D02*
X145809523Y-98283390D01*
X145809523Y-98283390D02*
X145761904Y-98378628D01*
X145761904Y-98378628D02*
X145714285Y-98426247D01*
X145714285Y-98426247D02*
X145619047Y-98473866D01*
X145619047Y-98473866D02*
X145428571Y-98473866D01*
X145428571Y-98473866D02*
X145333333Y-98426247D01*
X145333333Y-98426247D02*
X145285714Y-98378628D01*
X145285714Y-98378628D02*
X145238095Y-98283390D01*
X150366666Y-105984580D02*
X150414285Y-106032200D01*
X150414285Y-106032200D02*
X150557142Y-106079819D01*
X150557142Y-106079819D02*
X150652380Y-106079819D01*
X150652380Y-106079819D02*
X150795237Y-106032200D01*
X150795237Y-106032200D02*
X150890475Y-105936961D01*
X150890475Y-105936961D02*
X150938094Y-105841723D01*
X150938094Y-105841723D02*
X150985713Y-105651247D01*
X150985713Y-105651247D02*
X150985713Y-105508390D01*
X150985713Y-105508390D02*
X150938094Y-105317914D01*
X150938094Y-105317914D02*
X150890475Y-105222676D01*
X150890475Y-105222676D02*
X150795237Y-105127438D01*
X150795237Y-105127438D02*
X150652380Y-105079819D01*
X150652380Y-105079819D02*
X150557142Y-105079819D01*
X150557142Y-105079819D02*
X150414285Y-105127438D01*
X150414285Y-105127438D02*
X150366666Y-105175057D01*
X149795237Y-105508390D02*
X149890475Y-105460771D01*
X149890475Y-105460771D02*
X149938094Y-105413152D01*
X149938094Y-105413152D02*
X149985713Y-105317914D01*
X149985713Y-105317914D02*
X149985713Y-105270295D01*
X149985713Y-105270295D02*
X149938094Y-105175057D01*
X149938094Y-105175057D02*
X149890475Y-105127438D01*
X149890475Y-105127438D02*
X149795237Y-105079819D01*
X149795237Y-105079819D02*
X149604761Y-105079819D01*
X149604761Y-105079819D02*
X149509523Y-105127438D01*
X149509523Y-105127438D02*
X149461904Y-105175057D01*
X149461904Y-105175057D02*
X149414285Y-105270295D01*
X149414285Y-105270295D02*
X149414285Y-105317914D01*
X149414285Y-105317914D02*
X149461904Y-105413152D01*
X149461904Y-105413152D02*
X149509523Y-105460771D01*
X149509523Y-105460771D02*
X149604761Y-105508390D01*
X149604761Y-105508390D02*
X149795237Y-105508390D01*
X149795237Y-105508390D02*
X149890475Y-105556009D01*
X149890475Y-105556009D02*
X149938094Y-105603628D01*
X149938094Y-105603628D02*
X149985713Y-105698866D01*
X149985713Y-105698866D02*
X149985713Y-105889342D01*
X149985713Y-105889342D02*
X149938094Y-105984580D01*
X149938094Y-105984580D02*
X149890475Y-106032200D01*
X149890475Y-106032200D02*
X149795237Y-106079819D01*
X149795237Y-106079819D02*
X149604761Y-106079819D01*
X149604761Y-106079819D02*
X149509523Y-106032200D01*
X149509523Y-106032200D02*
X149461904Y-105984580D01*
X149461904Y-105984580D02*
X149414285Y-105889342D01*
X149414285Y-105889342D02*
X149414285Y-105698866D01*
X149414285Y-105698866D02*
X149461904Y-105603628D01*
X149461904Y-105603628D02*
X149509523Y-105556009D01*
X149509523Y-105556009D02*
X149604761Y-105508390D01*
X139492857Y-103272080D02*
X139540476Y-103319700D01*
X139540476Y-103319700D02*
X139683333Y-103367319D01*
X139683333Y-103367319D02*
X139778571Y-103367319D01*
X139778571Y-103367319D02*
X139921428Y-103319700D01*
X139921428Y-103319700D02*
X140016666Y-103224461D01*
X140016666Y-103224461D02*
X140064285Y-103129223D01*
X140064285Y-103129223D02*
X140111904Y-102938747D01*
X140111904Y-102938747D02*
X140111904Y-102795890D01*
X140111904Y-102795890D02*
X140064285Y-102605414D01*
X140064285Y-102605414D02*
X140016666Y-102510176D01*
X140016666Y-102510176D02*
X139921428Y-102414938D01*
X139921428Y-102414938D02*
X139778571Y-102367319D01*
X139778571Y-102367319D02*
X139683333Y-102367319D01*
X139683333Y-102367319D02*
X139540476Y-102414938D01*
X139540476Y-102414938D02*
X139492857Y-102462557D01*
X138540476Y-103367319D02*
X139111904Y-103367319D01*
X138826190Y-103367319D02*
X138826190Y-102367319D01*
X138826190Y-102367319D02*
X138921428Y-102510176D01*
X138921428Y-102510176D02*
X139016666Y-102605414D01*
X139016666Y-102605414D02*
X139111904Y-102653033D01*
X137683333Y-102367319D02*
X137873809Y-102367319D01*
X137873809Y-102367319D02*
X137969047Y-102414938D01*
X137969047Y-102414938D02*
X138016666Y-102462557D01*
X138016666Y-102462557D02*
X138111904Y-102605414D01*
X138111904Y-102605414D02*
X138159523Y-102795890D01*
X138159523Y-102795890D02*
X138159523Y-103176842D01*
X138159523Y-103176842D02*
X138111904Y-103272080D01*
X138111904Y-103272080D02*
X138064285Y-103319700D01*
X138064285Y-103319700D02*
X137969047Y-103367319D01*
X137969047Y-103367319D02*
X137778571Y-103367319D01*
X137778571Y-103367319D02*
X137683333Y-103319700D01*
X137683333Y-103319700D02*
X137635714Y-103272080D01*
X137635714Y-103272080D02*
X137588095Y-103176842D01*
X137588095Y-103176842D02*
X137588095Y-102938747D01*
X137588095Y-102938747D02*
X137635714Y-102843509D01*
X137635714Y-102843509D02*
X137683333Y-102795890D01*
X137683333Y-102795890D02*
X137778571Y-102748271D01*
X137778571Y-102748271D02*
X137969047Y-102748271D01*
X137969047Y-102748271D02*
X138064285Y-102795890D01*
X138064285Y-102795890D02*
X138111904Y-102843509D01*
X138111904Y-102843509D02*
X138159523Y-102938747D01*
X151966666Y-109059580D02*
X152014285Y-109107200D01*
X152014285Y-109107200D02*
X152157142Y-109154819D01*
X152157142Y-109154819D02*
X152252380Y-109154819D01*
X152252380Y-109154819D02*
X152395237Y-109107200D01*
X152395237Y-109107200D02*
X152490475Y-109011961D01*
X152490475Y-109011961D02*
X152538094Y-108916723D01*
X152538094Y-108916723D02*
X152585713Y-108726247D01*
X152585713Y-108726247D02*
X152585713Y-108583390D01*
X152585713Y-108583390D02*
X152538094Y-108392914D01*
X152538094Y-108392914D02*
X152490475Y-108297676D01*
X152490475Y-108297676D02*
X152395237Y-108202438D01*
X152395237Y-108202438D02*
X152252380Y-108154819D01*
X152252380Y-108154819D02*
X152157142Y-108154819D01*
X152157142Y-108154819D02*
X152014285Y-108202438D01*
X152014285Y-108202438D02*
X151966666Y-108250057D01*
X151585713Y-108250057D02*
X151538094Y-108202438D01*
X151538094Y-108202438D02*
X151442856Y-108154819D01*
X151442856Y-108154819D02*
X151204761Y-108154819D01*
X151204761Y-108154819D02*
X151109523Y-108202438D01*
X151109523Y-108202438D02*
X151061904Y-108250057D01*
X151061904Y-108250057D02*
X151014285Y-108345295D01*
X151014285Y-108345295D02*
X151014285Y-108440533D01*
X151014285Y-108440533D02*
X151061904Y-108583390D01*
X151061904Y-108583390D02*
X151633332Y-109154819D01*
X151633332Y-109154819D02*
X151014285Y-109154819D01*
X152066666Y-99409580D02*
X152114285Y-99457200D01*
X152114285Y-99457200D02*
X152257142Y-99504819D01*
X152257142Y-99504819D02*
X152352380Y-99504819D01*
X152352380Y-99504819D02*
X152495237Y-99457200D01*
X152495237Y-99457200D02*
X152590475Y-99361961D01*
X152590475Y-99361961D02*
X152638094Y-99266723D01*
X152638094Y-99266723D02*
X152685713Y-99076247D01*
X152685713Y-99076247D02*
X152685713Y-98933390D01*
X152685713Y-98933390D02*
X152638094Y-98742914D01*
X152638094Y-98742914D02*
X152590475Y-98647676D01*
X152590475Y-98647676D02*
X152495237Y-98552438D01*
X152495237Y-98552438D02*
X152352380Y-98504819D01*
X152352380Y-98504819D02*
X152257142Y-98504819D01*
X152257142Y-98504819D02*
X152114285Y-98552438D01*
X152114285Y-98552438D02*
X152066666Y-98600057D01*
X151209523Y-98504819D02*
X151399999Y-98504819D01*
X151399999Y-98504819D02*
X151495237Y-98552438D01*
X151495237Y-98552438D02*
X151542856Y-98600057D01*
X151542856Y-98600057D02*
X151638094Y-98742914D01*
X151638094Y-98742914D02*
X151685713Y-98933390D01*
X151685713Y-98933390D02*
X151685713Y-99314342D01*
X151685713Y-99314342D02*
X151638094Y-99409580D01*
X151638094Y-99409580D02*
X151590475Y-99457200D01*
X151590475Y-99457200D02*
X151495237Y-99504819D01*
X151495237Y-99504819D02*
X151304761Y-99504819D01*
X151304761Y-99504819D02*
X151209523Y-99457200D01*
X151209523Y-99457200D02*
X151161904Y-99409580D01*
X151161904Y-99409580D02*
X151114285Y-99314342D01*
X151114285Y-99314342D02*
X151114285Y-99076247D01*
X151114285Y-99076247D02*
X151161904Y-98981009D01*
X151161904Y-98981009D02*
X151209523Y-98933390D01*
X151209523Y-98933390D02*
X151304761Y-98885771D01*
X151304761Y-98885771D02*
X151495237Y-98885771D01*
X151495237Y-98885771D02*
X151590475Y-98933390D01*
X151590475Y-98933390D02*
X151638094Y-98981009D01*
X151638094Y-98981009D02*
X151685713Y-99076247D01*
X156342857Y-110559580D02*
X156390476Y-110607200D01*
X156390476Y-110607200D02*
X156533333Y-110654819D01*
X156533333Y-110654819D02*
X156628571Y-110654819D01*
X156628571Y-110654819D02*
X156771428Y-110607200D01*
X156771428Y-110607200D02*
X156866666Y-110511961D01*
X156866666Y-110511961D02*
X156914285Y-110416723D01*
X156914285Y-110416723D02*
X156961904Y-110226247D01*
X156961904Y-110226247D02*
X156961904Y-110083390D01*
X156961904Y-110083390D02*
X156914285Y-109892914D01*
X156914285Y-109892914D02*
X156866666Y-109797676D01*
X156866666Y-109797676D02*
X156771428Y-109702438D01*
X156771428Y-109702438D02*
X156628571Y-109654819D01*
X156628571Y-109654819D02*
X156533333Y-109654819D01*
X156533333Y-109654819D02*
X156390476Y-109702438D01*
X156390476Y-109702438D02*
X156342857Y-109750057D01*
X155390476Y-110654819D02*
X155961904Y-110654819D01*
X155676190Y-110654819D02*
X155676190Y-109654819D01*
X155676190Y-109654819D02*
X155771428Y-109797676D01*
X155771428Y-109797676D02*
X155866666Y-109892914D01*
X155866666Y-109892914D02*
X155961904Y-109940533D01*
X155009523Y-109750057D02*
X154961904Y-109702438D01*
X154961904Y-109702438D02*
X154866666Y-109654819D01*
X154866666Y-109654819D02*
X154628571Y-109654819D01*
X154628571Y-109654819D02*
X154533333Y-109702438D01*
X154533333Y-109702438D02*
X154485714Y-109750057D01*
X154485714Y-109750057D02*
X154438095Y-109845295D01*
X154438095Y-109845295D02*
X154438095Y-109940533D01*
X154438095Y-109940533D02*
X154485714Y-110083390D01*
X154485714Y-110083390D02*
X155057142Y-110654819D01*
X155057142Y-110654819D02*
X154438095Y-110654819D01*
X168566666Y-93604819D02*
X168899999Y-93128628D01*
X169138094Y-93604819D02*
X169138094Y-92604819D01*
X169138094Y-92604819D02*
X168757142Y-92604819D01*
X168757142Y-92604819D02*
X168661904Y-92652438D01*
X168661904Y-92652438D02*
X168614285Y-92700057D01*
X168614285Y-92700057D02*
X168566666Y-92795295D01*
X168566666Y-92795295D02*
X168566666Y-92938152D01*
X168566666Y-92938152D02*
X168614285Y-93033390D01*
X168614285Y-93033390D02*
X168661904Y-93081009D01*
X168661904Y-93081009D02*
X168757142Y-93128628D01*
X168757142Y-93128628D02*
X169138094Y-93128628D01*
X168233332Y-92604819D02*
X167566666Y-92604819D01*
X167566666Y-92604819D02*
X167995237Y-93604819D01*
X139316666Y-101467319D02*
X139792856Y-101467319D01*
X139792856Y-101467319D02*
X139792856Y-100467319D01*
X138459523Y-101467319D02*
X139030951Y-101467319D01*
X138745237Y-101467319D02*
X138745237Y-100467319D01*
X138745237Y-100467319D02*
X138840475Y-100610176D01*
X138840475Y-100610176D02*
X138935713Y-100705414D01*
X138935713Y-100705414D02*
X139030951Y-100753033D01*
X142649404Y-107854819D02*
X142649404Y-108664342D01*
X142649404Y-108664342D02*
X142601785Y-108759580D01*
X142601785Y-108759580D02*
X142554166Y-108807200D01*
X142554166Y-108807200D02*
X142458928Y-108854819D01*
X142458928Y-108854819D02*
X142268452Y-108854819D01*
X142268452Y-108854819D02*
X142173214Y-108807200D01*
X142173214Y-108807200D02*
X142125595Y-108759580D01*
X142125595Y-108759580D02*
X142077976Y-108664342D01*
X142077976Y-108664342D02*
X142077976Y-107854819D01*
X141173214Y-108188152D02*
X141173214Y-108854819D01*
X141411309Y-107807200D02*
X141649404Y-108521485D01*
X141649404Y-108521485D02*
X141030357Y-108521485D01*
X155566666Y-105984580D02*
X155614285Y-106032200D01*
X155614285Y-106032200D02*
X155757142Y-106079819D01*
X155757142Y-106079819D02*
X155852380Y-106079819D01*
X155852380Y-106079819D02*
X155995237Y-106032200D01*
X155995237Y-106032200D02*
X156090475Y-105936961D01*
X156090475Y-105936961D02*
X156138094Y-105841723D01*
X156138094Y-105841723D02*
X156185713Y-105651247D01*
X156185713Y-105651247D02*
X156185713Y-105508390D01*
X156185713Y-105508390D02*
X156138094Y-105317914D01*
X156138094Y-105317914D02*
X156090475Y-105222676D01*
X156090475Y-105222676D02*
X155995237Y-105127438D01*
X155995237Y-105127438D02*
X155852380Y-105079819D01*
X155852380Y-105079819D02*
X155757142Y-105079819D01*
X155757142Y-105079819D02*
X155614285Y-105127438D01*
X155614285Y-105127438D02*
X155566666Y-105175057D01*
X155233332Y-105079819D02*
X154566666Y-105079819D01*
X154566666Y-105079819D02*
X154995237Y-106079819D01*
X161166666Y-107859580D02*
X161214285Y-107907200D01*
X161214285Y-107907200D02*
X161357142Y-107954819D01*
X161357142Y-107954819D02*
X161452380Y-107954819D01*
X161452380Y-107954819D02*
X161595237Y-107907200D01*
X161595237Y-107907200D02*
X161690475Y-107811961D01*
X161690475Y-107811961D02*
X161738094Y-107716723D01*
X161738094Y-107716723D02*
X161785713Y-107526247D01*
X161785713Y-107526247D02*
X161785713Y-107383390D01*
X161785713Y-107383390D02*
X161738094Y-107192914D01*
X161738094Y-107192914D02*
X161690475Y-107097676D01*
X161690475Y-107097676D02*
X161595237Y-107002438D01*
X161595237Y-107002438D02*
X161452380Y-106954819D01*
X161452380Y-106954819D02*
X161357142Y-106954819D01*
X161357142Y-106954819D02*
X161214285Y-107002438D01*
X161214285Y-107002438D02*
X161166666Y-107050057D01*
X160261904Y-106954819D02*
X160738094Y-106954819D01*
X160738094Y-106954819D02*
X160785713Y-107431009D01*
X160785713Y-107431009D02*
X160738094Y-107383390D01*
X160738094Y-107383390D02*
X160642856Y-107335771D01*
X160642856Y-107335771D02*
X160404761Y-107335771D01*
X160404761Y-107335771D02*
X160309523Y-107383390D01*
X160309523Y-107383390D02*
X160261904Y-107431009D01*
X160261904Y-107431009D02*
X160214285Y-107526247D01*
X160214285Y-107526247D02*
X160214285Y-107764342D01*
X160214285Y-107764342D02*
X160261904Y-107859580D01*
X160261904Y-107859580D02*
X160309523Y-107907200D01*
X160309523Y-107907200D02*
X160404761Y-107954819D01*
X160404761Y-107954819D02*
X160642856Y-107954819D01*
X160642856Y-107954819D02*
X160738094Y-107907200D01*
X160738094Y-107907200D02*
X160785713Y-107859580D01*
X168566666Y-99654819D02*
X168899999Y-99178628D01*
X169138094Y-99654819D02*
X169138094Y-98654819D01*
X169138094Y-98654819D02*
X168757142Y-98654819D01*
X168757142Y-98654819D02*
X168661904Y-98702438D01*
X168661904Y-98702438D02*
X168614285Y-98750057D01*
X168614285Y-98750057D02*
X168566666Y-98845295D01*
X168566666Y-98845295D02*
X168566666Y-98988152D01*
X168566666Y-98988152D02*
X168614285Y-99083390D01*
X168614285Y-99083390D02*
X168661904Y-99131009D01*
X168661904Y-99131009D02*
X168757142Y-99178628D01*
X168757142Y-99178628D02*
X169138094Y-99178628D01*
X167709523Y-98988152D02*
X167709523Y-99654819D01*
X167947618Y-98607200D02*
X168185713Y-99321485D01*
X168185713Y-99321485D02*
X167566666Y-99321485D01*
X148242857Y-112354819D02*
X148576190Y-111878628D01*
X148814285Y-112354819D02*
X148814285Y-111354819D01*
X148814285Y-111354819D02*
X148433333Y-111354819D01*
X148433333Y-111354819D02*
X148338095Y-111402438D01*
X148338095Y-111402438D02*
X148290476Y-111450057D01*
X148290476Y-111450057D02*
X148242857Y-111545295D01*
X148242857Y-111545295D02*
X148242857Y-111688152D01*
X148242857Y-111688152D02*
X148290476Y-111783390D01*
X148290476Y-111783390D02*
X148338095Y-111831009D01*
X148338095Y-111831009D02*
X148433333Y-111878628D01*
X148433333Y-111878628D02*
X148814285Y-111878628D01*
X147290476Y-112354819D02*
X147861904Y-112354819D01*
X147576190Y-112354819D02*
X147576190Y-111354819D01*
X147576190Y-111354819D02*
X147671428Y-111497676D01*
X147671428Y-111497676D02*
X147766666Y-111592914D01*
X147766666Y-111592914D02*
X147861904Y-111640533D01*
X146671428Y-111354819D02*
X146576190Y-111354819D01*
X146576190Y-111354819D02*
X146480952Y-111402438D01*
X146480952Y-111402438D02*
X146433333Y-111450057D01*
X146433333Y-111450057D02*
X146385714Y-111545295D01*
X146385714Y-111545295D02*
X146338095Y-111735771D01*
X146338095Y-111735771D02*
X146338095Y-111973866D01*
X146338095Y-111973866D02*
X146385714Y-112164342D01*
X146385714Y-112164342D02*
X146433333Y-112259580D01*
X146433333Y-112259580D02*
X146480952Y-112307200D01*
X146480952Y-112307200D02*
X146576190Y-112354819D01*
X146576190Y-112354819D02*
X146671428Y-112354819D01*
X146671428Y-112354819D02*
X146766666Y-112307200D01*
X146766666Y-112307200D02*
X146814285Y-112259580D01*
X146814285Y-112259580D02*
X146861904Y-112164342D01*
X146861904Y-112164342D02*
X146909523Y-111973866D01*
X146909523Y-111973866D02*
X146909523Y-111735771D01*
X146909523Y-111735771D02*
X146861904Y-111545295D01*
X146861904Y-111545295D02*
X146814285Y-111450057D01*
X146814285Y-111450057D02*
X146766666Y-111402438D01*
X146766666Y-111402438D02*
X146671428Y-111354819D01*
X147466666Y-108754819D02*
X147799999Y-108278628D01*
X148038094Y-108754819D02*
X148038094Y-107754819D01*
X148038094Y-107754819D02*
X147657142Y-107754819D01*
X147657142Y-107754819D02*
X147561904Y-107802438D01*
X147561904Y-107802438D02*
X147514285Y-107850057D01*
X147514285Y-107850057D02*
X147466666Y-107945295D01*
X147466666Y-107945295D02*
X147466666Y-108088152D01*
X147466666Y-108088152D02*
X147514285Y-108183390D01*
X147514285Y-108183390D02*
X147561904Y-108231009D01*
X147561904Y-108231009D02*
X147657142Y-108278628D01*
X147657142Y-108278628D02*
X148038094Y-108278628D01*
X146895237Y-108183390D02*
X146990475Y-108135771D01*
X146990475Y-108135771D02*
X147038094Y-108088152D01*
X147038094Y-108088152D02*
X147085713Y-107992914D01*
X147085713Y-107992914D02*
X147085713Y-107945295D01*
X147085713Y-107945295D02*
X147038094Y-107850057D01*
X147038094Y-107850057D02*
X146990475Y-107802438D01*
X146990475Y-107802438D02*
X146895237Y-107754819D01*
X146895237Y-107754819D02*
X146704761Y-107754819D01*
X146704761Y-107754819D02*
X146609523Y-107802438D01*
X146609523Y-107802438D02*
X146561904Y-107850057D01*
X146561904Y-107850057D02*
X146514285Y-107945295D01*
X146514285Y-107945295D02*
X146514285Y-107992914D01*
X146514285Y-107992914D02*
X146561904Y-108088152D01*
X146561904Y-108088152D02*
X146609523Y-108135771D01*
X146609523Y-108135771D02*
X146704761Y-108183390D01*
X146704761Y-108183390D02*
X146895237Y-108183390D01*
X146895237Y-108183390D02*
X146990475Y-108231009D01*
X146990475Y-108231009D02*
X147038094Y-108278628D01*
X147038094Y-108278628D02*
X147085713Y-108373866D01*
X147085713Y-108373866D02*
X147085713Y-108564342D01*
X147085713Y-108564342D02*
X147038094Y-108659580D01*
X147038094Y-108659580D02*
X146990475Y-108707200D01*
X146990475Y-108707200D02*
X146895237Y-108754819D01*
X146895237Y-108754819D02*
X146704761Y-108754819D01*
X146704761Y-108754819D02*
X146609523Y-108707200D01*
X146609523Y-108707200D02*
X146561904Y-108659580D01*
X146561904Y-108659580D02*
X146514285Y-108564342D01*
X146514285Y-108564342D02*
X146514285Y-108373866D01*
X146514285Y-108373866D02*
X146561904Y-108278628D01*
X146561904Y-108278628D02*
X146609523Y-108231009D01*
X146609523Y-108231009D02*
X146704761Y-108183390D01*
X162018094Y-114854819D02*
X162018094Y-113854819D01*
X162018094Y-113854819D02*
X161779999Y-113854819D01*
X161779999Y-113854819D02*
X161637142Y-113902438D01*
X161637142Y-113902438D02*
X161541904Y-113997676D01*
X161541904Y-113997676D02*
X161494285Y-114092914D01*
X161494285Y-114092914D02*
X161446666Y-114283390D01*
X161446666Y-114283390D02*
X161446666Y-114426247D01*
X161446666Y-114426247D02*
X161494285Y-114616723D01*
X161494285Y-114616723D02*
X161541904Y-114711961D01*
X161541904Y-114711961D02*
X161637142Y-114807200D01*
X161637142Y-114807200D02*
X161779999Y-114854819D01*
X161779999Y-114854819D02*
X162018094Y-114854819D01*
X160589523Y-113854819D02*
X160779999Y-113854819D01*
X160779999Y-113854819D02*
X160875237Y-113902438D01*
X160875237Y-113902438D02*
X160922856Y-113950057D01*
X160922856Y-113950057D02*
X161018094Y-114092914D01*
X161018094Y-114092914D02*
X161065713Y-114283390D01*
X161065713Y-114283390D02*
X161065713Y-114664342D01*
X161065713Y-114664342D02*
X161018094Y-114759580D01*
X161018094Y-114759580D02*
X160970475Y-114807200D01*
X160970475Y-114807200D02*
X160875237Y-114854819D01*
X160875237Y-114854819D02*
X160684761Y-114854819D01*
X160684761Y-114854819D02*
X160589523Y-114807200D01*
X160589523Y-114807200D02*
X160541904Y-114759580D01*
X160541904Y-114759580D02*
X160494285Y-114664342D01*
X160494285Y-114664342D02*
X160494285Y-114426247D01*
X160494285Y-114426247D02*
X160541904Y-114331009D01*
X160541904Y-114331009D02*
X160589523Y-114283390D01*
X160589523Y-114283390D02*
X160684761Y-114235771D01*
X160684761Y-114235771D02*
X160875237Y-114235771D01*
X160875237Y-114235771D02*
X160970475Y-114283390D01*
X160970475Y-114283390D02*
X161018094Y-114331009D01*
X161018094Y-114331009D02*
X161065713Y-114426247D01*
X168566666Y-102604819D02*
X168899999Y-102128628D01*
X169138094Y-102604819D02*
X169138094Y-101604819D01*
X169138094Y-101604819D02*
X168757142Y-101604819D01*
X168757142Y-101604819D02*
X168661904Y-101652438D01*
X168661904Y-101652438D02*
X168614285Y-101700057D01*
X168614285Y-101700057D02*
X168566666Y-101795295D01*
X168566666Y-101795295D02*
X168566666Y-101938152D01*
X168566666Y-101938152D02*
X168614285Y-102033390D01*
X168614285Y-102033390D02*
X168661904Y-102081009D01*
X168661904Y-102081009D02*
X168757142Y-102128628D01*
X168757142Y-102128628D02*
X169138094Y-102128628D01*
X167661904Y-101604819D02*
X168138094Y-101604819D01*
X168138094Y-101604819D02*
X168185713Y-102081009D01*
X168185713Y-102081009D02*
X168138094Y-102033390D01*
X168138094Y-102033390D02*
X168042856Y-101985771D01*
X168042856Y-101985771D02*
X167804761Y-101985771D01*
X167804761Y-101985771D02*
X167709523Y-102033390D01*
X167709523Y-102033390D02*
X167661904Y-102081009D01*
X167661904Y-102081009D02*
X167614285Y-102176247D01*
X167614285Y-102176247D02*
X167614285Y-102414342D01*
X167614285Y-102414342D02*
X167661904Y-102509580D01*
X167661904Y-102509580D02*
X167709523Y-102557200D01*
X167709523Y-102557200D02*
X167804761Y-102604819D01*
X167804761Y-102604819D02*
X168042856Y-102604819D01*
X168042856Y-102604819D02*
X168138094Y-102557200D01*
X168138094Y-102557200D02*
X168185713Y-102509580D01*
X168566666Y-96304819D02*
X168899999Y-95828628D01*
X169138094Y-96304819D02*
X169138094Y-95304819D01*
X169138094Y-95304819D02*
X168757142Y-95304819D01*
X168757142Y-95304819D02*
X168661904Y-95352438D01*
X168661904Y-95352438D02*
X168614285Y-95400057D01*
X168614285Y-95400057D02*
X168566666Y-95495295D01*
X168566666Y-95495295D02*
X168566666Y-95638152D01*
X168566666Y-95638152D02*
X168614285Y-95733390D01*
X168614285Y-95733390D02*
X168661904Y-95781009D01*
X168661904Y-95781009D02*
X168757142Y-95828628D01*
X168757142Y-95828628D02*
X169138094Y-95828628D01*
X168233332Y-95304819D02*
X167614285Y-95304819D01*
X167614285Y-95304819D02*
X167947618Y-95685771D01*
X167947618Y-95685771D02*
X167804761Y-95685771D01*
X167804761Y-95685771D02*
X167709523Y-95733390D01*
X167709523Y-95733390D02*
X167661904Y-95781009D01*
X167661904Y-95781009D02*
X167614285Y-95876247D01*
X167614285Y-95876247D02*
X167614285Y-96114342D01*
X167614285Y-96114342D02*
X167661904Y-96209580D01*
X167661904Y-96209580D02*
X167709523Y-96257200D01*
X167709523Y-96257200D02*
X167804761Y-96304819D01*
X167804761Y-96304819D02*
X168090475Y-96304819D01*
X168090475Y-96304819D02*
X168185713Y-96257200D01*
X168185713Y-96257200D02*
X168233332Y-96209580D01*
X146261904Y-92854819D02*
X146261904Y-93664342D01*
X146261904Y-93664342D02*
X146214285Y-93759580D01*
X146214285Y-93759580D02*
X146166666Y-93807200D01*
X146166666Y-93807200D02*
X146071428Y-93854819D01*
X146071428Y-93854819D02*
X145880952Y-93854819D01*
X145880952Y-93854819D02*
X145785714Y-93807200D01*
X145785714Y-93807200D02*
X145738095Y-93759580D01*
X145738095Y-93759580D02*
X145690476Y-93664342D01*
X145690476Y-93664342D02*
X145690476Y-92854819D01*
X144738095Y-92854819D02*
X145214285Y-92854819D01*
X145214285Y-92854819D02*
X145261904Y-93331009D01*
X145261904Y-93331009D02*
X145214285Y-93283390D01*
X145214285Y-93283390D02*
X145119047Y-93235771D01*
X145119047Y-93235771D02*
X144880952Y-93235771D01*
X144880952Y-93235771D02*
X144785714Y-93283390D01*
X144785714Y-93283390D02*
X144738095Y-93331009D01*
X144738095Y-93331009D02*
X144690476Y-93426247D01*
X144690476Y-93426247D02*
X144690476Y-93664342D01*
X144690476Y-93664342D02*
X144738095Y-93759580D01*
X144738095Y-93759580D02*
X144785714Y-93807200D01*
X144785714Y-93807200D02*
X144880952Y-93854819D01*
X144880952Y-93854819D02*
X145119047Y-93854819D01*
X145119047Y-93854819D02*
X145214285Y-93807200D01*
X145214285Y-93807200D02*
X145261904Y-93759580D01*
%TO.C,C20*%
D11*
X144385000Y-103328748D02*
X144385000Y-103851252D01*
X145855000Y-103328748D02*
X145855000Y-103851252D01*
%TO.C,R6*%
X146515000Y-103372936D02*
X146515000Y-103827064D01*
X147985000Y-103372936D02*
X147985000Y-103827064D01*
%TO.C,C9*%
X167590000Y-110384419D02*
X167590000Y-110665581D01*
X168610000Y-110384419D02*
X168610000Y-110665581D01*
%TO.C,R9*%
X140460436Y-111165000D02*
X140914564Y-111165000D01*
X140460436Y-112635000D02*
X140914564Y-112635000D01*
%TO.C,C4*%
X148990000Y-101159419D02*
X148990000Y-101440581D01*
X150010000Y-101159419D02*
X150010000Y-101440581D01*
%TO.C,C17*%
X138190000Y-107459419D02*
X138190000Y-107740581D01*
X139210000Y-107459419D02*
X139210000Y-107740581D01*
%TO.C,C18*%
X141190000Y-94859419D02*
X141190000Y-95140581D01*
X142210000Y-94859419D02*
X142210000Y-95140581D01*
%TO.C,C3*%
X158690000Y-98540581D02*
X158690000Y-98259419D01*
X159710000Y-98540581D02*
X159710000Y-98259419D01*
%TO.C,C1*%
X153090000Y-101159419D02*
X153090000Y-101440581D01*
X154110000Y-101159419D02*
X154110000Y-101440581D01*
%TO.C,C19*%
X148190000Y-97434419D02*
X148190000Y-97715581D01*
X149210000Y-97434419D02*
X149210000Y-97715581D01*
%TO.C,C8*%
X151390000Y-105765581D02*
X151390000Y-105484419D01*
X152410000Y-105765581D02*
X152410000Y-105484419D01*
%TO.C,C16*%
X142065580Y-102390000D02*
X141784420Y-102390000D01*
X142065580Y-103410000D02*
X141784420Y-103410000D01*
%TO.C,C2*%
X151940581Y-109590000D02*
X151659419Y-109590000D01*
X151940581Y-110610000D02*
X151659419Y-110610000D01*
%TO.C,C6*%
X151390000Y-101134419D02*
X151390000Y-101415581D01*
X152410000Y-101134419D02*
X152410000Y-101415581D01*
%TO.C,C12*%
X157390000Y-110540581D02*
X157390000Y-110259419D01*
X158410000Y-110540581D02*
X158410000Y-110259419D01*
%TO.C,R7*%
X169677500Y-92512742D02*
X169677500Y-92987258D01*
X170722500Y-92512742D02*
X170722500Y-92987258D01*
%TO.C,L1*%
X141587878Y-100452500D02*
X142387122Y-100452500D01*
X141587878Y-101572500D02*
X142387122Y-101572500D01*
%TO.C,U4*%
X141887500Y-104140000D02*
X141087500Y-104140000D01*
X141887500Y-104140000D02*
X142687500Y-104140000D01*
X141887500Y-107260000D02*
X141087500Y-107260000D01*
X141887500Y-107260000D02*
X142687500Y-107260000D01*
X143187500Y-104190000D02*
X142947500Y-103860000D01*
X143427500Y-103860000D01*
X143187500Y-104190000D01*
G36*
X143187500Y-104190000D02*
G01*
X142947500Y-103860000D01*
X143427500Y-103860000D01*
X143187500Y-104190000D01*
G37*
%TO.C,C7*%
X153090000Y-105765581D02*
X153090000Y-105484419D01*
X154110000Y-105765581D02*
X154110000Y-105484419D01*
%TO.C,C5*%
X158615581Y-106990000D02*
X158334419Y-106990000D01*
X158615581Y-108010000D02*
X158334419Y-108010000D01*
%TO.C,R4*%
X169677500Y-99262258D02*
X169677500Y-98787742D01*
X170722500Y-99262258D02*
X170722500Y-98787742D01*
%TO.C,R10*%
X144085436Y-111165000D02*
X144539564Y-111165000D01*
X144085436Y-112635000D02*
X144539564Y-112635000D01*
%TO.C,SW2*%
X135145000Y-96200000D02*
X135145000Y-95300000D01*
X135355000Y-95100000D02*
X135145000Y-95300000D01*
X135355000Y-95100000D02*
X136645000Y-95100000D01*
X135355000Y-96400000D02*
X135145000Y-96200000D01*
X136645000Y-96400000D02*
X135355000Y-96400000D01*
X136645000Y-97850000D02*
X136645000Y-92150000D01*
X137655001Y-91550000D02*
X138445000Y-91550000D01*
X138445000Y-98450000D02*
X137655001Y-98450000D01*
X139495000Y-93600000D02*
X139495000Y-93400000D01*
X139495000Y-96600000D02*
X139495000Y-94900000D01*
%TO.C,R8*%
X144565000Y-107485436D02*
X144565000Y-107939564D01*
X146035000Y-107485436D02*
X146035000Y-107939564D01*
%TO.C,D6*%
X160780000Y-112700000D02*
X162140000Y-112700000D01*
X160780000Y-113500000D02*
X162140000Y-113500000D01*
X162140000Y-112700000D02*
X162140000Y-113500000D01*
%TO.C,R5*%
X169677500Y-101987742D02*
X169677500Y-102462258D01*
X170722500Y-101987742D02*
X170722500Y-102462258D01*
%TO.C,R3*%
X169677500Y-96087258D02*
X169677500Y-95612742D01*
X170722500Y-96087258D02*
X170722500Y-95612742D01*
%TO.C,U5*%
X145662500Y-94239999D02*
X144862500Y-94240000D01*
X145662500Y-94239999D02*
X146462500Y-94240000D01*
X145662500Y-97360001D02*
X144862500Y-97360000D01*
X145662500Y-97360001D02*
X146462500Y-97360000D01*
X144602500Y-97640000D02*
X144122500Y-97640000D01*
X144362500Y-97310000D01*
X144602500Y-97640000D01*
G36*
X144602500Y-97640000D02*
G01*
X144122500Y-97640000D01*
X144362500Y-97310000D01*
X144602500Y-97640000D01*
G37*
%TD*%
M02*
