%TF.GenerationSoftware,KiCad,Pcbnew,10.0.0*%
%TF.CreationDate,2026-09-07T00:58:55-05:00*%
%TF.ProjectId,no_fly_zone,6e6f5f66-6c79-45f7-9a6f-6e652e6b6963,rev?*%
%TF.SameCoordinates,Original*%
%TF.FileFunction,Copper,L3,Inr*%
%TF.FilePolarity,Positive*%
%FSLAX46Y46*%
G04 Gerber Fmt 4.6, Leading zero omitted, Abs format (unit mm)*
G04 Created by KiCad (PCBNEW 10.0.0) date 2026-09-07 00:58:55*
%MOMM*%
%LPD*%
G01*
G04 APERTURE LIST*
%TA.AperFunction,ComponentPad*%
%ADD10C,5.600000*%
%TD*%
%TA.AperFunction,ViaPad*%
%ADD11C,0.600000*%
%TD*%
%TA.AperFunction,ViaPad*%
%ADD12C,0.700000*%
%TD*%
G04 APERTURE END LIST*
D10*
%TO.N,GND*%
%TO.C,H2*%
X171300000Y-87300000D03*
%TD*%
%TO.N,GND*%
%TO.C,H3*%
X141300000Y-117300000D03*
%TD*%
%TO.N,GND*%
%TO.C,H4*%
X171300000Y-117300000D03*
%TD*%
%TO.N,GND*%
%TO.C,H1*%
X141300000Y-87300000D03*
%TD*%
D11*
%TO.N,GND*%
X150570000Y-95910000D03*
D12*
X146800000Y-85900000D03*
X146800000Y-88900000D03*
X171200000Y-107000000D03*
D11*
X174800000Y-98250000D03*
X167300000Y-103000000D03*
D12*
X152200000Y-87000000D03*
X159800000Y-85400000D03*
X164300000Y-112400000D03*
X173000000Y-106100000D03*
X146800000Y-82900000D03*
X150200000Y-88900000D03*
X148500000Y-92700000D03*
X157400000Y-87000000D03*
X148500000Y-85200000D03*
X148500000Y-88200000D03*
X160200000Y-97600000D03*
D11*
X164600000Y-104400000D03*
D12*
X162300000Y-82900000D03*
X165700000Y-84400000D03*
X150200000Y-90400000D03*
D11*
X164200000Y-97600000D03*
D12*
X151300000Y-111200000D03*
X146800000Y-91900000D03*
X161025000Y-84400000D03*
X175400000Y-106100000D03*
X148700000Y-99300000D03*
X172400000Y-105200000D03*
X157200000Y-99800000D03*
X170600000Y-106100000D03*
X146800000Y-90400000D03*
X174900000Y-95100000D03*
X147300000Y-113165000D03*
X164300000Y-111300000D03*
X153800000Y-103400000D03*
X159800000Y-88600000D03*
X162325000Y-87400000D03*
X158300000Y-84200000D03*
X146800000Y-87400000D03*
X146800000Y-84400000D03*
D11*
X163400000Y-106900000D03*
X171400000Y-93600000D03*
D12*
X143000000Y-97900000D03*
X142100000Y-97300000D03*
X144200000Y-105600000D03*
X149800000Y-113165000D03*
X161900000Y-100900000D03*
X143700000Y-108600000D03*
D11*
X168000000Y-105600000D03*
D12*
X165700000Y-91900000D03*
X168100000Y-112300000D03*
X164000000Y-91200000D03*
X159800000Y-87800000D03*
X151800000Y-97200000D03*
X164000000Y-88200000D03*
X152800000Y-103400000D03*
X143000000Y-96800000D03*
X151400000Y-83700000D03*
X171800000Y-112000000D03*
X150200000Y-87400000D03*
X150200000Y-84400000D03*
X151100000Y-113165000D03*
X165700000Y-85900000D03*
X157943449Y-108598513D03*
X171800000Y-106100000D03*
D11*
X165900000Y-101525000D03*
D12*
X154800000Y-99800000D03*
X161025000Y-85900000D03*
X161025000Y-82900000D03*
X150200000Y-85900000D03*
X162300000Y-85900000D03*
X150500000Y-105600000D03*
X159800000Y-84600000D03*
X174800000Y-105200000D03*
X159800000Y-83700000D03*
X174200000Y-106100000D03*
D11*
X158586940Y-92375000D03*
D12*
X152900000Y-84200000D03*
X144500000Y-113000000D03*
D11*
X165800000Y-96200000D03*
D12*
X146800000Y-93400000D03*
D11*
X163200000Y-99300000D03*
D12*
X173600000Y-105200000D03*
X148500000Y-89700000D03*
X161000000Y-87400000D03*
D11*
X148700000Y-117200000D03*
D12*
X172400000Y-107000000D03*
X157200000Y-101400000D03*
X153800000Y-88200000D03*
X144300000Y-97900000D03*
X143000000Y-95800000D03*
X153000000Y-87000000D03*
X148500000Y-86700000D03*
X150700000Y-102100000D03*
D11*
X163400000Y-101400000D03*
X162346967Y-110716193D03*
D12*
X153000000Y-88600000D03*
X159000000Y-87000000D03*
X152200000Y-88200000D03*
X151800000Y-103400000D03*
D11*
X157700000Y-96100000D03*
X164100000Y-106200000D03*
D12*
X151400000Y-84600000D03*
X148500000Y-83700000D03*
D11*
X159626278Y-110742463D03*
D12*
X154600000Y-87800000D03*
X151100000Y-94700000D03*
X173600000Y-107000000D03*
X164000000Y-92700000D03*
X164000000Y-89700000D03*
X151400000Y-86200000D03*
X165700000Y-87400000D03*
D11*
X161000000Y-110200000D03*
D12*
X174800000Y-107000000D03*
X151400000Y-82900000D03*
X139900000Y-108600000D03*
X153800000Y-87000000D03*
X151400000Y-87000000D03*
X165700000Y-88900000D03*
X164000000Y-86700000D03*
D11*
X163300000Y-100100000D03*
D12*
X162300000Y-84400000D03*
X154600000Y-87000000D03*
X165700000Y-90400000D03*
X163600000Y-111800000D03*
X153000000Y-87800000D03*
X171200000Y-105200000D03*
X165700000Y-82900000D03*
X150200000Y-82850000D03*
X164000000Y-83700000D03*
X159800000Y-86200000D03*
X151400000Y-85400000D03*
X159800000Y-87000000D03*
X158200000Y-87000000D03*
D11*
X162000000Y-103200000D03*
X168300000Y-98625000D03*
D12*
X154600000Y-88600000D03*
D11*
X159300000Y-104150003D03*
X169000000Y-97000000D03*
D12*
X150200000Y-91900000D03*
X159800000Y-82900000D03*
D11*
X174800000Y-101450000D03*
D12*
X148500000Y-91200000D03*
X164000000Y-85200000D03*
D11*
%TO.N,/MCU/SPI2_MISO*%
X164900000Y-100625000D03*
X164600000Y-105600000D03*
D12*
%TO.N,+3V3*%
X150500000Y-106500000D03*
D11*
X168300000Y-99725000D03*
X158600418Y-93124896D03*
D12*
X152400000Y-111200000D03*
X159200000Y-100400000D03*
X150706860Y-100450000D03*
D11*
X168000000Y-104400000D03*
X154100000Y-89800000D03*
D12*
X151100000Y-93400000D03*
D11*
X167300000Y-97000000D03*
D12*
X152400000Y-113165000D03*
X159300000Y-109800000D03*
X171300000Y-92000000D03*
X150800000Y-97200000D03*
D11*
%TO.N,/MCU/IMU_IRQ2*%
X166500000Y-96800000D03*
X159300000Y-103400000D03*
%TO.N,/MCU/SPI2_NSS_2*%
X164200000Y-98549997D03*
X162000000Y-105400000D03*
%TO.N,/MCU/SPI2_SCK*%
X166000000Y-103300000D03*
X162800000Y-107349999D03*
X164200000Y-99300000D03*
%TO.N,/MCU/SPI2_MOSI*%
X164149999Y-104999998D03*
X164318493Y-100040583D03*
%TO.N,/MCU/NRST*%
X150503705Y-103425000D03*
X147668298Y-117319017D03*
D12*
X168100000Y-108800000D03*
%TO.N,Net-(D5-K)*%
X173900000Y-91000000D03*
D11*
%TO.N,Net-(D3-A)*%
X171400000Y-101450000D03*
D12*
%TO.N,+VBAT*%
X139400000Y-105700000D03*
X138500000Y-105700000D03*
%TO.N,Net-(D2-A)*%
X171300000Y-98200000D03*
D11*
%TO.N,/MCU/OTG_FS_D-*%
X162800000Y-103100000D03*
X160200000Y-111300000D03*
%TO.N,/MCU/OTG_FS_D+*%
X163300000Y-102300000D03*
X161800000Y-111300000D03*
%TO.N,/MCU/SPI3_SCK*%
X157675000Y-96900000D03*
X155783550Y-96080670D03*
D12*
%TO.N,Net-(D1-A)*%
X171300000Y-95100000D03*
%TO.N,+VBUS*%
X144800000Y-115000000D03*
X159800000Y-113100000D03*
X140200000Y-91800000D03*
D11*
%TO.N,/MCU/SWDIO*%
X151910645Y-117309260D03*
X158200000Y-101400000D03*
%TO.N,/MCU/SWCLK*%
X150400000Y-117100000D03*
X158200000Y-99800000D03*
%TO.N,/MCU/SWO*%
X156200000Y-99800000D03*
X149500000Y-117200000D03*
%TO.N,/MCU/ADC_IN6*%
X148750000Y-109550000D03*
D12*
%TO.N,/MCU/VCAP*%
X157800000Y-112200000D03*
D11*
%TO.N,/MCU/STAT1*%
X155700000Y-97100000D03*
%TO.N,/MCU/STAT2*%
X154675000Y-97200000D03*
%TO.N,/MCU/STAT3*%
X152800000Y-97200000D03*
%TD*%
%TA.AperFunction,Conductor*%
%TO.N,GND*%
G36*
X171302701Y-82500618D02*
G01*
X171316814Y-82501234D01*
X171712915Y-82518527D01*
X171723652Y-82519467D01*
X172128057Y-82572708D01*
X172138695Y-82574583D01*
X172536924Y-82662869D01*
X172547364Y-82665667D01*
X172936369Y-82788319D01*
X172946516Y-82792012D01*
X173323359Y-82948105D01*
X173333154Y-82952673D01*
X173694942Y-83141008D01*
X173704310Y-83146416D01*
X174048317Y-83365572D01*
X174057178Y-83371777D01*
X174380766Y-83620075D01*
X174389053Y-83627029D01*
X174689767Y-83902583D01*
X174697416Y-83910232D01*
X174972969Y-84210945D01*
X174979923Y-84219232D01*
X175228227Y-84542829D01*
X175234431Y-84551690D01*
X175453578Y-84895680D01*
X175458987Y-84905048D01*
X175647322Y-85266837D01*
X175651894Y-85276641D01*
X175807983Y-85653473D01*
X175811683Y-85663639D01*
X175934331Y-86052630D01*
X175937131Y-86063078D01*
X176025414Y-86461295D01*
X176027292Y-86471949D01*
X176080529Y-86876326D01*
X176081472Y-86887102D01*
X176099382Y-87297297D01*
X176099500Y-87302706D01*
X176099500Y-117297293D01*
X176099382Y-117302702D01*
X176081472Y-117712897D01*
X176080529Y-117723673D01*
X176027292Y-118128050D01*
X176025414Y-118138704D01*
X175937131Y-118536921D01*
X175934331Y-118547369D01*
X175811683Y-118936360D01*
X175807983Y-118946526D01*
X175651894Y-119323358D01*
X175647322Y-119333162D01*
X175458987Y-119694951D01*
X175453578Y-119704319D01*
X175234431Y-120048309D01*
X175228227Y-120057170D01*
X174979923Y-120380767D01*
X174972969Y-120389054D01*
X174697416Y-120689767D01*
X174689767Y-120697416D01*
X174389053Y-120972970D01*
X174380766Y-120979924D01*
X174057178Y-121228222D01*
X174048317Y-121234427D01*
X173704310Y-121453583D01*
X173694942Y-121458991D01*
X173333161Y-121647323D01*
X173323357Y-121651895D01*
X172946526Y-121807983D01*
X172936360Y-121811683D01*
X172547368Y-121934331D01*
X172536920Y-121937131D01*
X172138703Y-122025414D01*
X172128049Y-122027292D01*
X171723672Y-122080530D01*
X171712896Y-122081473D01*
X171302702Y-122099382D01*
X171297293Y-122099500D01*
X141302706Y-122099500D01*
X141297297Y-122099382D01*
X140887102Y-122081472D01*
X140876326Y-122080529D01*
X140471950Y-122027292D01*
X140461296Y-122025414D01*
X140063078Y-121937131D01*
X140052630Y-121934331D01*
X139663639Y-121811683D01*
X139653473Y-121807983D01*
X139276642Y-121651894D01*
X139266838Y-121647322D01*
X139147126Y-121585004D01*
X138905042Y-121458983D01*
X138895686Y-121453582D01*
X138610366Y-121271812D01*
X138551690Y-121234431D01*
X138542829Y-121228227D01*
X138219233Y-120979923D01*
X138210946Y-120972969D01*
X137910232Y-120697416D01*
X137902583Y-120689767D01*
X137627030Y-120389053D01*
X137620076Y-120380766D01*
X137371772Y-120057170D01*
X137365568Y-120048309D01*
X137312070Y-119964334D01*
X137146413Y-119704305D01*
X137141020Y-119694965D01*
X136952674Y-119333155D01*
X136948108Y-119323363D01*
X136792015Y-118946524D01*
X136788316Y-118936360D01*
X136665668Y-118547369D01*
X136662868Y-118536921D01*
X136593402Y-118223580D01*
X136574583Y-118138695D01*
X136572708Y-118128057D01*
X136519468Y-117723654D01*
X136518528Y-117712917D01*
X136500618Y-117302702D01*
X136500500Y-117297293D01*
X136500500Y-117125092D01*
X145854500Y-117125092D01*
X145854500Y-117274907D01*
X145883723Y-117421822D01*
X145883725Y-117421830D01*
X145941051Y-117560229D01*
X145941056Y-117560238D01*
X146024280Y-117684790D01*
X146024283Y-117684794D01*
X146130205Y-117790716D01*
X146130209Y-117790719D01*
X146254761Y-117873943D01*
X146254770Y-117873948D01*
X146273736Y-117881804D01*
X146393170Y-117931275D01*
X146540092Y-117960499D01*
X146540096Y-117960500D01*
X146540097Y-117960500D01*
X146689904Y-117960500D01*
X146689905Y-117960499D01*
X146836830Y-117931275D01*
X146975232Y-117873947D01*
X146975235Y-117873944D01*
X146980650Y-117871702D01*
X147050119Y-117864233D01*
X147112599Y-117895508D01*
X147115784Y-117898582D01*
X147158005Y-117940803D01*
X147158009Y-117940806D01*
X147289112Y-118028407D01*
X147289125Y-118028414D01*
X147434796Y-118088752D01*
X147434801Y-118088754D01*
X147540400Y-118109759D01*
X147589451Y-118119516D01*
X147589454Y-118119517D01*
X147589456Y-118119517D01*
X147747142Y-118119517D01*
X147747143Y-118119516D01*
X147901795Y-118088754D01*
X148047477Y-118028411D01*
X148178587Y-117940806D01*
X148290087Y-117829306D01*
X148377692Y-117698196D01*
X148381734Y-117688439D01*
X148414104Y-117610289D01*
X148438035Y-117552514D01*
X148468798Y-117397859D01*
X148468798Y-117240175D01*
X148445123Y-117121153D01*
X148699500Y-117121153D01*
X148699500Y-117121158D01*
X148699500Y-117278842D01*
X148730263Y-117433497D01*
X148731690Y-117436944D01*
X148731691Y-117436945D01*
X148790602Y-117579172D01*
X148790609Y-117579185D01*
X148878210Y-117710288D01*
X148878213Y-117710292D01*
X148989707Y-117821786D01*
X148989711Y-117821789D01*
X149120814Y-117909390D01*
X149120827Y-117909397D01*
X149266498Y-117969735D01*
X149266503Y-117969737D01*
X149401255Y-117996541D01*
X149421153Y-118000499D01*
X149421156Y-118000500D01*
X149421158Y-118000500D01*
X149578844Y-118000500D01*
X149578845Y-118000499D01*
X149733497Y-117969737D01*
X149879179Y-117909394D01*
X149970662Y-117848267D01*
X150037339Y-117827389D01*
X150087004Y-117836807D01*
X150166503Y-117869737D01*
X150296062Y-117895508D01*
X150321153Y-117900499D01*
X150321156Y-117900500D01*
X150321158Y-117900500D01*
X150478844Y-117900500D01*
X150478845Y-117900499D01*
X150633497Y-117869737D01*
X150754655Y-117819552D01*
X150779172Y-117809397D01*
X150779172Y-117809396D01*
X150779179Y-117809394D01*
X150910289Y-117721789D01*
X150994575Y-117637502D01*
X151055896Y-117604019D01*
X151125588Y-117609003D01*
X151181522Y-117650874D01*
X151196815Y-117677729D01*
X151199740Y-117684790D01*
X151201252Y-117688441D01*
X151201254Y-117688445D01*
X151288855Y-117819548D01*
X151288858Y-117819552D01*
X151400352Y-117931046D01*
X151400356Y-117931049D01*
X151531459Y-118018650D01*
X151531472Y-118018657D01*
X151677143Y-118078995D01*
X151677148Y-118078997D01*
X151831798Y-118109759D01*
X151831801Y-118109760D01*
X151831803Y-118109760D01*
X151989489Y-118109760D01*
X151989490Y-118109759D01*
X152144142Y-118078997D01*
X152289824Y-118018654D01*
X152420934Y-117931049D01*
X152457151Y-117894831D01*
X152518472Y-117861346D01*
X152588164Y-117866330D01*
X152603297Y-117873160D01*
X152604762Y-117873943D01*
X152604768Y-117873947D01*
X152743170Y-117931275D01*
X152890092Y-117960499D01*
X152890096Y-117960500D01*
X152890097Y-117960500D01*
X153039904Y-117960500D01*
X153039905Y-117960499D01*
X153186830Y-117931275D01*
X153325232Y-117873947D01*
X153449791Y-117790719D01*
X153555719Y-117684791D01*
X153599683Y-117618995D01*
X158499499Y-117618995D01*
X158526418Y-117754322D01*
X158526421Y-117754332D01*
X158579221Y-117881804D01*
X158579228Y-117881817D01*
X158655885Y-117996541D01*
X158655888Y-117996545D01*
X158753454Y-118094111D01*
X158753458Y-118094114D01*
X158868182Y-118170771D01*
X158868195Y-118170778D01*
X158995667Y-118223578D01*
X158995672Y-118223580D01*
X158995676Y-118223580D01*
X158995677Y-118223581D01*
X159131004Y-118250500D01*
X159131007Y-118250500D01*
X159268995Y-118250500D01*
X159360041Y-118232389D01*
X159404328Y-118223580D01*
X159531811Y-118170775D01*
X159646542Y-118094114D01*
X159744114Y-117996542D01*
X159820775Y-117881811D01*
X159873580Y-117754328D01*
X159888816Y-117677733D01*
X159900500Y-117618995D01*
X162899499Y-117618995D01*
X162926418Y-117754322D01*
X162926421Y-117754332D01*
X162979221Y-117881804D01*
X162979228Y-117881817D01*
X163055885Y-117996541D01*
X163055888Y-117996545D01*
X163153454Y-118094111D01*
X163153458Y-118094114D01*
X163268182Y-118170771D01*
X163268195Y-118170778D01*
X163395667Y-118223578D01*
X163395672Y-118223580D01*
X163395676Y-118223580D01*
X163395677Y-118223581D01*
X163531004Y-118250500D01*
X163531007Y-118250500D01*
X163668995Y-118250500D01*
X163760041Y-118232389D01*
X163804328Y-118223580D01*
X163931811Y-118170775D01*
X164046542Y-118094114D01*
X164144114Y-117996542D01*
X164220775Y-117881811D01*
X164273580Y-117754328D01*
X164288816Y-117677733D01*
X164300500Y-117618995D01*
X164300500Y-117481004D01*
X164273581Y-117345677D01*
X164273580Y-117345676D01*
X164273580Y-117345672D01*
X164273578Y-117345667D01*
X164220778Y-117218195D01*
X164220771Y-117218182D01*
X164144114Y-117103458D01*
X164144111Y-117103454D01*
X164046545Y-117005888D01*
X164046541Y-117005885D01*
X163931817Y-116929228D01*
X163931804Y-116929221D01*
X163804332Y-116876421D01*
X163804322Y-116876418D01*
X163668995Y-116849500D01*
X163668993Y-116849500D01*
X163531007Y-116849500D01*
X163531005Y-116849500D01*
X163395677Y-116876418D01*
X163395667Y-116876421D01*
X163268195Y-116929221D01*
X163268182Y-116929228D01*
X163153458Y-117005885D01*
X163153454Y-117005888D01*
X163055888Y-117103454D01*
X163055885Y-117103458D01*
X162979228Y-117218182D01*
X162979221Y-117218195D01*
X162926421Y-117345667D01*
X162926418Y-117345677D01*
X162899500Y-117481004D01*
X162899500Y-117481007D01*
X162899500Y-117618993D01*
X162899500Y-117618995D01*
X162899499Y-117618995D01*
X159900500Y-117618995D01*
X159900500Y-117481004D01*
X159873581Y-117345677D01*
X159873580Y-117345676D01*
X159873580Y-117345672D01*
X159873578Y-117345667D01*
X159820778Y-117218195D01*
X159820771Y-117218182D01*
X159744114Y-117103458D01*
X159744111Y-117103454D01*
X159646545Y-117005888D01*
X159646541Y-117005885D01*
X159531817Y-116929228D01*
X159531804Y-116929221D01*
X159404332Y-116876421D01*
X159404322Y-116876418D01*
X159268995Y-116849500D01*
X159268993Y-116849500D01*
X159131007Y-116849500D01*
X159131005Y-116849500D01*
X158995677Y-116876418D01*
X158995667Y-116876421D01*
X158868195Y-116929221D01*
X158868182Y-116929228D01*
X158753458Y-117005885D01*
X158753454Y-117005888D01*
X158655888Y-117103454D01*
X158655885Y-117103458D01*
X158579228Y-117218182D01*
X158579221Y-117218195D01*
X158526421Y-117345667D01*
X158526418Y-117345677D01*
X158499500Y-117481004D01*
X158499500Y-117481007D01*
X158499500Y-117618993D01*
X158499500Y-117618995D01*
X158499499Y-117618995D01*
X153599683Y-117618995D01*
X153638947Y-117560232D01*
X153696275Y-117421830D01*
X153725500Y-117274903D01*
X153725500Y-117125097D01*
X153696275Y-116978170D01*
X153638947Y-116839768D01*
X153638946Y-116839767D01*
X153638943Y-116839761D01*
X153555719Y-116715209D01*
X153555716Y-116715205D01*
X153449794Y-116609283D01*
X153449790Y-116609280D01*
X153325238Y-116526056D01*
X153325229Y-116526051D01*
X153186830Y-116468725D01*
X153186822Y-116468723D01*
X153039907Y-116439500D01*
X153039903Y-116439500D01*
X152890097Y-116439500D01*
X152890092Y-116439500D01*
X152743177Y-116468723D01*
X152743169Y-116468725D01*
X152604770Y-116526051D01*
X152604761Y-116526056D01*
X152480212Y-116609278D01*
X152475505Y-116613142D01*
X152474429Y-116611831D01*
X152420210Y-116641426D01*
X152350519Y-116636429D01*
X152324982Y-116623357D01*
X152289834Y-116599872D01*
X152289827Y-116599868D01*
X152289824Y-116599866D01*
X152289820Y-116599864D01*
X152289816Y-116599862D01*
X152144146Y-116539524D01*
X152144134Y-116539521D01*
X151989490Y-116508760D01*
X151989487Y-116508760D01*
X151831803Y-116508760D01*
X151831800Y-116508760D01*
X151677155Y-116539521D01*
X151677143Y-116539524D01*
X151531472Y-116599862D01*
X151531459Y-116599869D01*
X151400356Y-116687470D01*
X151316070Y-116771756D01*
X151254746Y-116805240D01*
X151185055Y-116800256D01*
X151129121Y-116758384D01*
X151113826Y-116731522D01*
X151109394Y-116720822D01*
X151109390Y-116720814D01*
X151021789Y-116589711D01*
X151021786Y-116589707D01*
X150910292Y-116478213D01*
X150910288Y-116478210D01*
X150779185Y-116390609D01*
X150779172Y-116390602D01*
X150633501Y-116330264D01*
X150633489Y-116330261D01*
X150478845Y-116299500D01*
X150478842Y-116299500D01*
X150321158Y-116299500D01*
X150321155Y-116299500D01*
X150166510Y-116330261D01*
X150166498Y-116330264D01*
X150020827Y-116390602D01*
X150020816Y-116390608D01*
X149929336Y-116451733D01*
X149862658Y-116472610D01*
X149812996Y-116463192D01*
X149733497Y-116430263D01*
X149733490Y-116430261D01*
X149733489Y-116430261D01*
X149733488Y-116430260D01*
X149578845Y-116399500D01*
X149578842Y-116399500D01*
X149421158Y-116399500D01*
X149421155Y-116399500D01*
X149266510Y-116430261D01*
X149266498Y-116430264D01*
X149120827Y-116490602D01*
X149120814Y-116490609D01*
X148989711Y-116578210D01*
X148989707Y-116578213D01*
X148878213Y-116689707D01*
X148878210Y-116689711D01*
X148790609Y-116820814D01*
X148790602Y-116820827D01*
X148730264Y-116966498D01*
X148730261Y-116966510D01*
X148699500Y-117121153D01*
X148445123Y-117121153D01*
X148438035Y-117085520D01*
X148405050Y-117005886D01*
X148377695Y-116939844D01*
X148377688Y-116939831D01*
X148290087Y-116808728D01*
X148290084Y-116808724D01*
X148178590Y-116697230D01*
X148178586Y-116697227D01*
X148047483Y-116609626D01*
X148047470Y-116609619D01*
X147901799Y-116549281D01*
X147901787Y-116549278D01*
X147747143Y-116518517D01*
X147747140Y-116518517D01*
X147589456Y-116518517D01*
X147589453Y-116518517D01*
X147434808Y-116549278D01*
X147434796Y-116549281D01*
X147289126Y-116609619D01*
X147289117Y-116609624D01*
X147260442Y-116628784D01*
X147193764Y-116649660D01*
X147126384Y-116631174D01*
X147103872Y-116613361D01*
X147099794Y-116609283D01*
X147099790Y-116609280D01*
X146975238Y-116526056D01*
X146975229Y-116526051D01*
X146836830Y-116468725D01*
X146836822Y-116468723D01*
X146689907Y-116439500D01*
X146689903Y-116439500D01*
X146540097Y-116439500D01*
X146540092Y-116439500D01*
X146393177Y-116468723D01*
X146393169Y-116468725D01*
X146254770Y-116526051D01*
X146254761Y-116526056D01*
X146130209Y-116609280D01*
X146130205Y-116609283D01*
X146024283Y-116715205D01*
X146024280Y-116715209D01*
X145941056Y-116839761D01*
X145941051Y-116839770D01*
X145883725Y-116978169D01*
X145883723Y-116978177D01*
X145854500Y-117125092D01*
X136500500Y-117125092D01*
X136500500Y-114916228D01*
X143949500Y-114916228D01*
X143949500Y-115083771D01*
X143982182Y-115248074D01*
X143982184Y-115248082D01*
X144046295Y-115402860D01*
X144139373Y-115542162D01*
X144257837Y-115660626D01*
X144350494Y-115722537D01*
X144397137Y-115753703D01*
X144551918Y-115817816D01*
X144716228Y-115850499D01*
X144716232Y-115850500D01*
X144716233Y-115850500D01*
X144883768Y-115850500D01*
X144883769Y-115850499D01*
X145048082Y-115817816D01*
X145202863Y-115753703D01*
X145342162Y-115660626D01*
X145460626Y-115542162D01*
X145553703Y-115402863D01*
X145617816Y-115248082D01*
X145650500Y-115083767D01*
X145650500Y-114916233D01*
X145617816Y-114751918D01*
X145553703Y-114597137D01*
X145522537Y-114550494D01*
X145460626Y-114457837D01*
X145342162Y-114339373D01*
X145202860Y-114246295D01*
X145048082Y-114182184D01*
X145048074Y-114182182D01*
X144883771Y-114149500D01*
X144883767Y-114149500D01*
X144716233Y-114149500D01*
X144716228Y-114149500D01*
X144551925Y-114182182D01*
X144551917Y-114182184D01*
X144397139Y-114246295D01*
X144257837Y-114339373D01*
X144139373Y-114457837D01*
X144046295Y-114597139D01*
X143982184Y-114751917D01*
X143982182Y-114751925D01*
X143949500Y-114916228D01*
X136500500Y-114916228D01*
X136500500Y-113081228D01*
X151549500Y-113081228D01*
X151549500Y-113248771D01*
X151582182Y-113413074D01*
X151582184Y-113413082D01*
X151646295Y-113567860D01*
X151739373Y-113707162D01*
X151857837Y-113825626D01*
X151950494Y-113887537D01*
X151997137Y-113918703D01*
X152151918Y-113982816D01*
X152316228Y-114015499D01*
X152316232Y-114015500D01*
X152316233Y-114015500D01*
X152483768Y-114015500D01*
X152483769Y-114015499D01*
X152648082Y-113982816D01*
X152802863Y-113918703D01*
X152942162Y-113825626D01*
X153060626Y-113707162D01*
X153153703Y-113567863D01*
X153217816Y-113413082D01*
X153250500Y-113248767D01*
X153250500Y-113081233D01*
X153217816Y-112916918D01*
X153153703Y-112762137D01*
X153110271Y-112697137D01*
X153060626Y-112622837D01*
X152942162Y-112504373D01*
X152802860Y-112411295D01*
X152648082Y-112347184D01*
X152648074Y-112347182D01*
X152483771Y-112314500D01*
X152483767Y-112314500D01*
X152316233Y-112314500D01*
X152316228Y-112314500D01*
X152151925Y-112347182D01*
X152151917Y-112347184D01*
X151997139Y-112411295D01*
X151857837Y-112504373D01*
X151739373Y-112622837D01*
X151646295Y-112762139D01*
X151582184Y-112916917D01*
X151582182Y-112916925D01*
X151549500Y-113081228D01*
X136500500Y-113081228D01*
X136500500Y-112116228D01*
X156949500Y-112116228D01*
X156949500Y-112283771D01*
X156982182Y-112448074D01*
X156982184Y-112448082D01*
X157046295Y-112602860D01*
X157139373Y-112742162D01*
X157257837Y-112860626D01*
X157342095Y-112916925D01*
X157397137Y-112953703D01*
X157551918Y-113017816D01*
X157716228Y-113050499D01*
X157716232Y-113050500D01*
X157716233Y-113050500D01*
X157883768Y-113050500D01*
X157883769Y-113050499D01*
X158048082Y-113017816D01*
X158202863Y-112953703D01*
X158342162Y-112860626D01*
X158460626Y-112742162D01*
X158553703Y-112602863D01*
X158617816Y-112448082D01*
X158650500Y-112283767D01*
X158650500Y-112116233D01*
X158617816Y-111951918D01*
X158553703Y-111797137D01*
X158471775Y-111674523D01*
X158460626Y-111657837D01*
X158342162Y-111539373D01*
X158202860Y-111446295D01*
X158048082Y-111382184D01*
X158048074Y-111382182D01*
X157883771Y-111349500D01*
X157883767Y-111349500D01*
X157716233Y-111349500D01*
X157716228Y-111349500D01*
X157551925Y-111382182D01*
X157551917Y-111382184D01*
X157397139Y-111446295D01*
X157257837Y-111539373D01*
X157139373Y-111657837D01*
X157046295Y-111797139D01*
X156982184Y-111951917D01*
X156982182Y-111951925D01*
X156949500Y-112116228D01*
X136500500Y-112116228D01*
X136500500Y-111116228D01*
X151549500Y-111116228D01*
X151549500Y-111283771D01*
X151582182Y-111448074D01*
X151582184Y-111448082D01*
X151646295Y-111602860D01*
X151739373Y-111742162D01*
X151857837Y-111860626D01*
X151949370Y-111921786D01*
X151997137Y-111953703D01*
X152151918Y-112017816D01*
X152316228Y-112050499D01*
X152316232Y-112050500D01*
X152316233Y-112050500D01*
X152483768Y-112050500D01*
X152483769Y-112050499D01*
X152648082Y-112017816D01*
X152802863Y-111953703D01*
X152942162Y-111860626D01*
X153060626Y-111742162D01*
X153153703Y-111602863D01*
X153217816Y-111448082D01*
X153250500Y-111283767D01*
X153250500Y-111116233D01*
X153217816Y-110951918D01*
X153153703Y-110797137D01*
X153122537Y-110750494D01*
X153060626Y-110657837D01*
X152942162Y-110539373D01*
X152802860Y-110446295D01*
X152648082Y-110382184D01*
X152648074Y-110382182D01*
X152483771Y-110349500D01*
X152483767Y-110349500D01*
X152316233Y-110349500D01*
X152316228Y-110349500D01*
X152151925Y-110382182D01*
X152151917Y-110382184D01*
X151997139Y-110446295D01*
X151857837Y-110539373D01*
X151739373Y-110657837D01*
X151646295Y-110797139D01*
X151582184Y-110951917D01*
X151582182Y-110951925D01*
X151549500Y-111116228D01*
X136500500Y-111116228D01*
X136500500Y-109471153D01*
X147949500Y-109471153D01*
X147949500Y-109628846D01*
X147980261Y-109783489D01*
X147980264Y-109783501D01*
X148040602Y-109929172D01*
X148040609Y-109929185D01*
X148128210Y-110060288D01*
X148128213Y-110060292D01*
X148239707Y-110171786D01*
X148239711Y-110171789D01*
X148370814Y-110259390D01*
X148370827Y-110259397D01*
X148514859Y-110319056D01*
X148516503Y-110319737D01*
X148666131Y-110349500D01*
X148671153Y-110350499D01*
X148671156Y-110350500D01*
X148671158Y-110350500D01*
X148828844Y-110350500D01*
X148828845Y-110350499D01*
X148983497Y-110319737D01*
X149129179Y-110259394D01*
X149260289Y-110171789D01*
X149371789Y-110060289D01*
X149459394Y-109929179D01*
X149519737Y-109783497D01*
X149533118Y-109716228D01*
X158449500Y-109716228D01*
X158449500Y-109883771D01*
X158482182Y-110048074D01*
X158482184Y-110048082D01*
X158546295Y-110202860D01*
X158639373Y-110342162D01*
X158757837Y-110460626D01*
X158850494Y-110522537D01*
X158897137Y-110553703D01*
X159051918Y-110617816D01*
X159178322Y-110642959D01*
X159216228Y-110650499D01*
X159216232Y-110650500D01*
X159216233Y-110650500D01*
X159383768Y-110650500D01*
X159383768Y-110650499D01*
X159417480Y-110643794D01*
X159421679Y-110642959D01*
X159491271Y-110649186D01*
X159546448Y-110692049D01*
X159569693Y-110757939D01*
X159553625Y-110825936D01*
X159548973Y-110833466D01*
X159490612Y-110920809D01*
X159490602Y-110920827D01*
X159430264Y-111066498D01*
X159430261Y-111066510D01*
X159399500Y-111221153D01*
X159399500Y-111378846D01*
X159430261Y-111533489D01*
X159430264Y-111533501D01*
X159490602Y-111679172D01*
X159490609Y-111679185D01*
X159578210Y-111810288D01*
X159578213Y-111810292D01*
X159689707Y-111921786D01*
X159689711Y-111921789D01*
X159820814Y-112009390D01*
X159820821Y-112009394D01*
X159824549Y-112010938D01*
X159878953Y-112054778D01*
X159901019Y-112121072D01*
X159883741Y-112188771D01*
X159832605Y-112236383D01*
X159777098Y-112249500D01*
X159716228Y-112249500D01*
X159551925Y-112282182D01*
X159551917Y-112282184D01*
X159397139Y-112346295D01*
X159257837Y-112439373D01*
X159139373Y-112557837D01*
X159046295Y-112697139D01*
X158982184Y-112851917D01*
X158982182Y-112851925D01*
X158949500Y-113016228D01*
X158949500Y-113183771D01*
X158982182Y-113348074D01*
X158982184Y-113348082D01*
X159046295Y-113502860D01*
X159139373Y-113642162D01*
X159257837Y-113760626D01*
X159350494Y-113822537D01*
X159397137Y-113853703D01*
X159551918Y-113917816D01*
X159716228Y-113950499D01*
X159716232Y-113950500D01*
X159716233Y-113950500D01*
X159883768Y-113950500D01*
X159883769Y-113950499D01*
X160048082Y-113917816D01*
X160202863Y-113853703D01*
X160342162Y-113760626D01*
X160460626Y-113642162D01*
X160553703Y-113502863D01*
X160617816Y-113348082D01*
X160650500Y-113183767D01*
X160650500Y-113016233D01*
X160617816Y-112851918D01*
X160553703Y-112697137D01*
X160490709Y-112602860D01*
X160460626Y-112557837D01*
X160342162Y-112439373D01*
X160202860Y-112346295D01*
X160202858Y-112346294D01*
X160185395Y-112339061D01*
X160130991Y-112295220D01*
X160108926Y-112228926D01*
X160126205Y-112161227D01*
X160177342Y-112113616D01*
X160232847Y-112100500D01*
X160278844Y-112100500D01*
X160278845Y-112100499D01*
X160433497Y-112069737D01*
X160558849Y-112017815D01*
X160579172Y-112009397D01*
X160579172Y-112009396D01*
X160579179Y-112009394D01*
X160710289Y-111921789D01*
X160821789Y-111810289D01*
X160896898Y-111697881D01*
X160950510Y-111653076D01*
X161019835Y-111644369D01*
X161082863Y-111674523D01*
X161103102Y-111697881D01*
X161178210Y-111810288D01*
X161178213Y-111810292D01*
X161289707Y-111921786D01*
X161289711Y-111921789D01*
X161420814Y-112009390D01*
X161420827Y-112009397D01*
X161566498Y-112069735D01*
X161566503Y-112069737D01*
X161721153Y-112100499D01*
X161721156Y-112100500D01*
X161721158Y-112100500D01*
X161878844Y-112100500D01*
X161878845Y-112100499D01*
X162033497Y-112069737D01*
X162158849Y-112017815D01*
X162179172Y-112009397D01*
X162179172Y-112009396D01*
X162179179Y-112009394D01*
X162310289Y-111921789D01*
X162421789Y-111810289D01*
X162509394Y-111679179D01*
X162569737Y-111533497D01*
X162600500Y-111378842D01*
X162600500Y-111221158D01*
X162600500Y-111221155D01*
X162600499Y-111221153D01*
X162569738Y-111066510D01*
X162569737Y-111066503D01*
X162569735Y-111066498D01*
X162509397Y-110920827D01*
X162509390Y-110920814D01*
X162421789Y-110789711D01*
X162421786Y-110789707D01*
X162310292Y-110678213D01*
X162310288Y-110678210D01*
X162179185Y-110590609D01*
X162179172Y-110590602D01*
X162033501Y-110530264D01*
X162033489Y-110530261D01*
X161878845Y-110499500D01*
X161878842Y-110499500D01*
X161721158Y-110499500D01*
X161721155Y-110499500D01*
X161566510Y-110530261D01*
X161566498Y-110530264D01*
X161420827Y-110590602D01*
X161420814Y-110590609D01*
X161289711Y-110678210D01*
X161289707Y-110678213D01*
X161178213Y-110789707D01*
X161178210Y-110789711D01*
X161103102Y-110902118D01*
X161049490Y-110946923D01*
X160980165Y-110955630D01*
X160917137Y-110925475D01*
X160896898Y-110902118D01*
X160821789Y-110789711D01*
X160821786Y-110789707D01*
X160710292Y-110678213D01*
X160710288Y-110678210D01*
X160579185Y-110590609D01*
X160579172Y-110590602D01*
X160433501Y-110530264D01*
X160433489Y-110530261D01*
X160278845Y-110499500D01*
X160278842Y-110499500D01*
X160121158Y-110499500D01*
X160121157Y-110499500D01*
X160108379Y-110502041D01*
X160038788Y-110495809D01*
X159983613Y-110452944D01*
X159960371Y-110387053D01*
X159976443Y-110319056D01*
X159981078Y-110311552D01*
X160053703Y-110202863D01*
X160117816Y-110048082D01*
X160150500Y-109883767D01*
X160150500Y-109716233D01*
X160117816Y-109551918D01*
X160053703Y-109397137D01*
X159999822Y-109316498D01*
X159960626Y-109257837D01*
X159842162Y-109139373D01*
X159702860Y-109046295D01*
X159548082Y-108982184D01*
X159548074Y-108982182D01*
X159383771Y-108949500D01*
X159383767Y-108949500D01*
X159216233Y-108949500D01*
X159216228Y-108949500D01*
X159051925Y-108982182D01*
X159051917Y-108982184D01*
X158897139Y-109046295D01*
X158757837Y-109139373D01*
X158639373Y-109257837D01*
X158546295Y-109397139D01*
X158482184Y-109551917D01*
X158482182Y-109551925D01*
X158449500Y-109716228D01*
X149533118Y-109716228D01*
X149539141Y-109685950D01*
X149539141Y-109685949D01*
X149550500Y-109628844D01*
X149550500Y-109471155D01*
X149550499Y-109471153D01*
X149548405Y-109460626D01*
X149519737Y-109316503D01*
X149519735Y-109316498D01*
X149459397Y-109170827D01*
X149459390Y-109170814D01*
X149371789Y-109039711D01*
X149371786Y-109039707D01*
X149260292Y-108928213D01*
X149260288Y-108928210D01*
X149129185Y-108840609D01*
X149129172Y-108840602D01*
X149090784Y-108824702D01*
X148983501Y-108780264D01*
X148983489Y-108780261D01*
X148828845Y-108749500D01*
X148828842Y-108749500D01*
X148671158Y-108749500D01*
X148671155Y-108749500D01*
X148516510Y-108780261D01*
X148516498Y-108780264D01*
X148370827Y-108840602D01*
X148370814Y-108840609D01*
X148239711Y-108928210D01*
X148239707Y-108928213D01*
X148128213Y-109039707D01*
X148128210Y-109039711D01*
X148040609Y-109170814D01*
X148040602Y-109170827D01*
X147980264Y-109316498D01*
X147980261Y-109316510D01*
X147949500Y-109471153D01*
X136500500Y-109471153D01*
X136500500Y-108716228D01*
X167249500Y-108716228D01*
X167249500Y-108883771D01*
X167282182Y-109048074D01*
X167282184Y-109048082D01*
X167346295Y-109202860D01*
X167439373Y-109342162D01*
X167557837Y-109460626D01*
X167650494Y-109522537D01*
X167697137Y-109553703D01*
X167851918Y-109617816D01*
X168016228Y-109650499D01*
X168016232Y-109650500D01*
X168016233Y-109650500D01*
X168183768Y-109650500D01*
X168183769Y-109650499D01*
X168348082Y-109617816D01*
X168502863Y-109553703D01*
X168642162Y-109460626D01*
X168760626Y-109342162D01*
X168853703Y-109202863D01*
X168917816Y-109048082D01*
X168950500Y-108883767D01*
X168950500Y-108716233D01*
X168917816Y-108551918D01*
X168853703Y-108397137D01*
X168822537Y-108350494D01*
X168760626Y-108257837D01*
X168642162Y-108139373D01*
X168502860Y-108046295D01*
X168348082Y-107982184D01*
X168348074Y-107982182D01*
X168183771Y-107949500D01*
X168183767Y-107949500D01*
X168016233Y-107949500D01*
X168016228Y-107949500D01*
X167851925Y-107982182D01*
X167851917Y-107982184D01*
X167697139Y-108046295D01*
X167557837Y-108139373D01*
X167439373Y-108257837D01*
X167346295Y-108397139D01*
X167282184Y-108551917D01*
X167282182Y-108551925D01*
X167249500Y-108716228D01*
X136500500Y-108716228D01*
X136500500Y-105616228D01*
X137649500Y-105616228D01*
X137649500Y-105783771D01*
X137682182Y-105948074D01*
X137682184Y-105948082D01*
X137746295Y-106102860D01*
X137839373Y-106242162D01*
X137957837Y-106360626D01*
X138017512Y-106400499D01*
X138097137Y-106453703D01*
X138251918Y-106517816D01*
X138411201Y-106549499D01*
X138416228Y-106550499D01*
X138416232Y-106550500D01*
X138416233Y-106550500D01*
X138583768Y-106550500D01*
X138583769Y-106550499D01*
X138748082Y-106517816D01*
X138902547Y-106453834D01*
X138972016Y-106446365D01*
X138997453Y-106453834D01*
X139151918Y-106517816D01*
X139311201Y-106549499D01*
X139316228Y-106550499D01*
X139316232Y-106550500D01*
X139316233Y-106550500D01*
X139483768Y-106550500D01*
X139483769Y-106550499D01*
X139648082Y-106517816D01*
X139802863Y-106453703D01*
X139858948Y-106416228D01*
X149649500Y-106416228D01*
X149649500Y-106583771D01*
X149682182Y-106748074D01*
X149682184Y-106748082D01*
X149746295Y-106902860D01*
X149839373Y-107042162D01*
X149957837Y-107160626D01*
X150050494Y-107222537D01*
X150097137Y-107253703D01*
X150251918Y-107317816D01*
X150416228Y-107350499D01*
X150416232Y-107350500D01*
X150416233Y-107350500D01*
X150583768Y-107350500D01*
X150583769Y-107350499D01*
X150748082Y-107317816D01*
X150860738Y-107271152D01*
X161999500Y-107271152D01*
X161999500Y-107428845D01*
X162030261Y-107583488D01*
X162030264Y-107583500D01*
X162090602Y-107729171D01*
X162090609Y-107729184D01*
X162178210Y-107860287D01*
X162178213Y-107860291D01*
X162289707Y-107971785D01*
X162289711Y-107971788D01*
X162420814Y-108059389D01*
X162420827Y-108059396D01*
X162566498Y-108119734D01*
X162566503Y-108119736D01*
X162721153Y-108150498D01*
X162721156Y-108150499D01*
X162721158Y-108150499D01*
X162878844Y-108150499D01*
X162878845Y-108150498D01*
X163033497Y-108119736D01*
X163179179Y-108059393D01*
X163310289Y-107971788D01*
X163421789Y-107860288D01*
X163509394Y-107729178D01*
X163569737Y-107583496D01*
X163600500Y-107428841D01*
X163600500Y-107271157D01*
X163600500Y-107271154D01*
X163600499Y-107271152D01*
X163597028Y-107253701D01*
X163569737Y-107116502D01*
X163538945Y-107042162D01*
X163509397Y-106970826D01*
X163509390Y-106970813D01*
X163421789Y-106839710D01*
X163421786Y-106839706D01*
X163310292Y-106728212D01*
X163310288Y-106728209D01*
X163179185Y-106640608D01*
X163179172Y-106640601D01*
X163033501Y-106580263D01*
X163033489Y-106580260D01*
X162878845Y-106549499D01*
X162878842Y-106549499D01*
X162721158Y-106549499D01*
X162721155Y-106549499D01*
X162566510Y-106580260D01*
X162566498Y-106580263D01*
X162420827Y-106640601D01*
X162420814Y-106640608D01*
X162289711Y-106728209D01*
X162289707Y-106728212D01*
X162178213Y-106839706D01*
X162178210Y-106839710D01*
X162090609Y-106970813D01*
X162090602Y-106970826D01*
X162030264Y-107116497D01*
X162030261Y-107116509D01*
X161999500Y-107271152D01*
X150860738Y-107271152D01*
X150902863Y-107253703D01*
X151040155Y-107161966D01*
X151040159Y-107161965D01*
X151041465Y-107161091D01*
X151042162Y-107160626D01*
X151160626Y-107042162D01*
X151253703Y-106902863D01*
X151317816Y-106748082D01*
X151350500Y-106583767D01*
X151350500Y-106416233D01*
X151317816Y-106251918D01*
X151258780Y-106109394D01*
X151253704Y-106097139D01*
X151160626Y-105957837D01*
X151042162Y-105839373D01*
X150902860Y-105746295D01*
X150748082Y-105682184D01*
X150748074Y-105682182D01*
X150583771Y-105649500D01*
X150583767Y-105649500D01*
X150416233Y-105649500D01*
X150416228Y-105649500D01*
X150251925Y-105682182D01*
X150251917Y-105682184D01*
X150097139Y-105746295D01*
X149957837Y-105839373D01*
X149839373Y-105957837D01*
X149746295Y-106097139D01*
X149682184Y-106251917D01*
X149682182Y-106251925D01*
X149649500Y-106416228D01*
X139858948Y-106416228D01*
X139942162Y-106360626D01*
X139942165Y-106360623D01*
X139980329Y-106322460D01*
X140060623Y-106242165D01*
X140060626Y-106242162D01*
X140074241Y-106221786D01*
X140153703Y-106102863D01*
X140217816Y-105948082D01*
X140250500Y-105783767D01*
X140250500Y-105616233D01*
X140217816Y-105451918D01*
X140163651Y-105321153D01*
X161199500Y-105321153D01*
X161199500Y-105478846D01*
X161230261Y-105633489D01*
X161230264Y-105633501D01*
X161290602Y-105779172D01*
X161290609Y-105779185D01*
X161378210Y-105910288D01*
X161378213Y-105910292D01*
X161489707Y-106021786D01*
X161489711Y-106021789D01*
X161620814Y-106109390D01*
X161620827Y-106109397D01*
X161766498Y-106169735D01*
X161766503Y-106169737D01*
X161921153Y-106200499D01*
X161921156Y-106200500D01*
X161921158Y-106200500D01*
X162078844Y-106200500D01*
X162078845Y-106200499D01*
X162233497Y-106169737D01*
X162379179Y-106109394D01*
X162510289Y-106021789D01*
X162621789Y-105910289D01*
X162709394Y-105779179D01*
X162769737Y-105633497D01*
X162800500Y-105478842D01*
X162800500Y-105321158D01*
X162800500Y-105321155D01*
X162800499Y-105321153D01*
X162783063Y-105233499D01*
X162769737Y-105166503D01*
X162766148Y-105157838D01*
X162709397Y-105020827D01*
X162709393Y-105020820D01*
X162709389Y-105020814D01*
X162659597Y-104946295D01*
X162642797Y-104921151D01*
X163349499Y-104921151D01*
X163349499Y-105078844D01*
X163380260Y-105233487D01*
X163380263Y-105233499D01*
X163440601Y-105379170D01*
X163440608Y-105379183D01*
X163528209Y-105510286D01*
X163528212Y-105510290D01*
X163639709Y-105621787D01*
X163768198Y-105707640D01*
X163813003Y-105761252D01*
X163820924Y-105786550D01*
X163830261Y-105833491D01*
X163830264Y-105833501D01*
X163890602Y-105979172D01*
X163890609Y-105979185D01*
X163978210Y-106110288D01*
X163978213Y-106110292D01*
X164089707Y-106221786D01*
X164089711Y-106221789D01*
X164220814Y-106309390D01*
X164220827Y-106309397D01*
X164344507Y-106360626D01*
X164366503Y-106369737D01*
X164521153Y-106400499D01*
X164521156Y-106400500D01*
X164521158Y-106400500D01*
X164678844Y-106400500D01*
X164678845Y-106400499D01*
X164833497Y-106369737D01*
X164979179Y-106309394D01*
X165110289Y-106221789D01*
X165221789Y-106110289D01*
X165309394Y-105979179D01*
X165369737Y-105833497D01*
X165400500Y-105678842D01*
X165400500Y-105521158D01*
X165400500Y-105521155D01*
X165400499Y-105521153D01*
X165398337Y-105510286D01*
X165369737Y-105366503D01*
X165350955Y-105321158D01*
X165309397Y-105220827D01*
X165309390Y-105220814D01*
X165221789Y-105089711D01*
X165221786Y-105089707D01*
X165110292Y-104978213D01*
X165110288Y-104978210D01*
X164981800Y-104892357D01*
X164936995Y-104838745D01*
X164929074Y-104813451D01*
X164919736Y-104766501D01*
X164864646Y-104633501D01*
X164859396Y-104620825D01*
X164859389Y-104620812D01*
X164771788Y-104489709D01*
X164771785Y-104489705D01*
X164660291Y-104378211D01*
X164660287Y-104378208D01*
X164574899Y-104321153D01*
X167199500Y-104321153D01*
X167199500Y-104478846D01*
X167230261Y-104633489D01*
X167230264Y-104633501D01*
X167290602Y-104779172D01*
X167290609Y-104779185D01*
X167378210Y-104910288D01*
X167378213Y-104910292D01*
X167489707Y-105021786D01*
X167489711Y-105021789D01*
X167620814Y-105109390D01*
X167620827Y-105109397D01*
X167737776Y-105157838D01*
X167766503Y-105169737D01*
X167921153Y-105200499D01*
X167921156Y-105200500D01*
X167921158Y-105200500D01*
X168078844Y-105200500D01*
X168078845Y-105200499D01*
X168233497Y-105169737D01*
X168379179Y-105109394D01*
X168510289Y-105021789D01*
X168621789Y-104910289D01*
X168709394Y-104779179D01*
X168714643Y-104766508D01*
X168723067Y-104746166D01*
X168769737Y-104633497D01*
X168800500Y-104478842D01*
X168800500Y-104321158D01*
X168800500Y-104321155D01*
X168800499Y-104321153D01*
X168794422Y-104290600D01*
X168769737Y-104166503D01*
X168769735Y-104166498D01*
X168709397Y-104020827D01*
X168709390Y-104020814D01*
X168621789Y-103889711D01*
X168621786Y-103889707D01*
X168510292Y-103778213D01*
X168510288Y-103778210D01*
X168379185Y-103690609D01*
X168379172Y-103690602D01*
X168233501Y-103630264D01*
X168233489Y-103630261D01*
X168078845Y-103599500D01*
X168078842Y-103599500D01*
X167921158Y-103599500D01*
X167921155Y-103599500D01*
X167766510Y-103630261D01*
X167766498Y-103630264D01*
X167620827Y-103690602D01*
X167620814Y-103690609D01*
X167489711Y-103778210D01*
X167489707Y-103778213D01*
X167378213Y-103889707D01*
X167378210Y-103889711D01*
X167290609Y-104020814D01*
X167290602Y-104020827D01*
X167230264Y-104166498D01*
X167230261Y-104166510D01*
X167199500Y-104321153D01*
X164574899Y-104321153D01*
X164529184Y-104290607D01*
X164529171Y-104290600D01*
X164383500Y-104230262D01*
X164383488Y-104230259D01*
X164228844Y-104199498D01*
X164228841Y-104199498D01*
X164071157Y-104199498D01*
X164071154Y-104199498D01*
X163916509Y-104230259D01*
X163916497Y-104230262D01*
X163770826Y-104290600D01*
X163770813Y-104290607D01*
X163639710Y-104378208D01*
X163639706Y-104378211D01*
X163528212Y-104489705D01*
X163528209Y-104489709D01*
X163440608Y-104620812D01*
X163440601Y-104620825D01*
X163380263Y-104766496D01*
X163380260Y-104766508D01*
X163349499Y-104921151D01*
X162642797Y-104921151D01*
X162621789Y-104889710D01*
X162510292Y-104778213D01*
X162510288Y-104778210D01*
X162379185Y-104690609D01*
X162379172Y-104690602D01*
X162233501Y-104630264D01*
X162233489Y-104630261D01*
X162078845Y-104599500D01*
X162078842Y-104599500D01*
X161921158Y-104599500D01*
X161921155Y-104599500D01*
X161766510Y-104630261D01*
X161766498Y-104630264D01*
X161620827Y-104690602D01*
X161620814Y-104690609D01*
X161489711Y-104778210D01*
X161489707Y-104778213D01*
X161378213Y-104889707D01*
X161378210Y-104889711D01*
X161290609Y-105020814D01*
X161290602Y-105020827D01*
X161230264Y-105166498D01*
X161230261Y-105166510D01*
X161199500Y-105321153D01*
X140163651Y-105321153D01*
X140153703Y-105297137D01*
X140102710Y-105220821D01*
X140060626Y-105157837D01*
X139942162Y-105039373D01*
X139802860Y-104946295D01*
X139648082Y-104882184D01*
X139648074Y-104882182D01*
X139483771Y-104849500D01*
X139483767Y-104849500D01*
X139316233Y-104849500D01*
X139316228Y-104849500D01*
X139151925Y-104882182D01*
X139151913Y-104882185D01*
X138997452Y-104946165D01*
X138927983Y-104953634D01*
X138902548Y-104946165D01*
X138748086Y-104882185D01*
X138748074Y-104882182D01*
X138583771Y-104849500D01*
X138583767Y-104849500D01*
X138416233Y-104849500D01*
X138416228Y-104849500D01*
X138251925Y-104882182D01*
X138251917Y-104882184D01*
X138097139Y-104946295D01*
X137957837Y-105039373D01*
X137839373Y-105157837D01*
X137746295Y-105297139D01*
X137682184Y-105451917D01*
X137682182Y-105451925D01*
X137649500Y-105616228D01*
X136500500Y-105616228D01*
X136500500Y-103346153D01*
X149703205Y-103346153D01*
X149703205Y-103503846D01*
X149733966Y-103658489D01*
X149733969Y-103658501D01*
X149794307Y-103804172D01*
X149794314Y-103804185D01*
X149881915Y-103935288D01*
X149881918Y-103935292D01*
X149993412Y-104046786D01*
X149993416Y-104046789D01*
X150124519Y-104134390D01*
X150124532Y-104134397D01*
X150270203Y-104194735D01*
X150270208Y-104194737D01*
X150424858Y-104225499D01*
X150424861Y-104225500D01*
X150424863Y-104225500D01*
X150582549Y-104225500D01*
X150582550Y-104225499D01*
X150737202Y-104194737D01*
X150882884Y-104134394D01*
X151013994Y-104046789D01*
X151125494Y-103935289D01*
X151213099Y-103804179D01*
X151273442Y-103658497D01*
X151304205Y-103503842D01*
X151304205Y-103346158D01*
X151304205Y-103346155D01*
X151304204Y-103346153D01*
X151302833Y-103339257D01*
X151299232Y-103321153D01*
X158499500Y-103321153D01*
X158499500Y-103478846D01*
X158530261Y-103633489D01*
X158530264Y-103633501D01*
X158590602Y-103779172D01*
X158590609Y-103779185D01*
X158678210Y-103910288D01*
X158678213Y-103910292D01*
X158789707Y-104021786D01*
X158789711Y-104021789D01*
X158920814Y-104109390D01*
X158920827Y-104109397D01*
X159058683Y-104166498D01*
X159066503Y-104169737D01*
X159192176Y-104194735D01*
X159221153Y-104200499D01*
X159221156Y-104200500D01*
X159221158Y-104200500D01*
X159378844Y-104200500D01*
X159378845Y-104200499D01*
X159533497Y-104169737D01*
X159679179Y-104109394D01*
X159810289Y-104021789D01*
X159921789Y-103910289D01*
X160009394Y-103779179D01*
X160069737Y-103633497D01*
X160100500Y-103478842D01*
X160100500Y-103321158D01*
X160100500Y-103321155D01*
X160100499Y-103321153D01*
X160069737Y-103166503D01*
X160049764Y-103118283D01*
X160026666Y-103062518D01*
X160009532Y-103021153D01*
X161999500Y-103021153D01*
X161999500Y-103178846D01*
X162030261Y-103333489D01*
X162030264Y-103333501D01*
X162090602Y-103479172D01*
X162090609Y-103479185D01*
X162178210Y-103610288D01*
X162178213Y-103610292D01*
X162289707Y-103721786D01*
X162289711Y-103721789D01*
X162420814Y-103809390D01*
X162420827Y-103809397D01*
X162566498Y-103869735D01*
X162566503Y-103869737D01*
X162721153Y-103900499D01*
X162721156Y-103900500D01*
X162721158Y-103900500D01*
X162878844Y-103900500D01*
X162878845Y-103900499D01*
X163033497Y-103869737D01*
X163179179Y-103809394D01*
X163310289Y-103721789D01*
X163421789Y-103610289D01*
X163509394Y-103479179D01*
X163569737Y-103333497D01*
X163592084Y-103221153D01*
X165199500Y-103221153D01*
X165199500Y-103378846D01*
X165230261Y-103533489D01*
X165230264Y-103533501D01*
X165290602Y-103679172D01*
X165290609Y-103679185D01*
X165378210Y-103810288D01*
X165378213Y-103810292D01*
X165489707Y-103921786D01*
X165489711Y-103921789D01*
X165620814Y-104009390D01*
X165620827Y-104009397D01*
X165711101Y-104046789D01*
X165766503Y-104069737D01*
X165921153Y-104100499D01*
X165921156Y-104100500D01*
X165921158Y-104100500D01*
X166078844Y-104100500D01*
X166078845Y-104100499D01*
X166233497Y-104069737D01*
X166351592Y-104020821D01*
X166379172Y-104009397D01*
X166379172Y-104009396D01*
X166379179Y-104009394D01*
X166510289Y-103921789D01*
X166621789Y-103810289D01*
X166709394Y-103679179D01*
X166769737Y-103533497D01*
X166800500Y-103378842D01*
X166800500Y-103221158D01*
X166800500Y-103221155D01*
X166800499Y-103221153D01*
X166794600Y-103191498D01*
X166769737Y-103066503D01*
X166761170Y-103045821D01*
X166709397Y-102920827D01*
X166709390Y-102920814D01*
X166621789Y-102789711D01*
X166621786Y-102789707D01*
X166510292Y-102678213D01*
X166510288Y-102678210D01*
X166379185Y-102590609D01*
X166379172Y-102590602D01*
X166233501Y-102530264D01*
X166233489Y-102530261D01*
X166078845Y-102499500D01*
X166078842Y-102499500D01*
X165921158Y-102499500D01*
X165921155Y-102499500D01*
X165766510Y-102530261D01*
X165766498Y-102530264D01*
X165620827Y-102590602D01*
X165620814Y-102590609D01*
X165489711Y-102678210D01*
X165489707Y-102678213D01*
X165378213Y-102789707D01*
X165378210Y-102789711D01*
X165290609Y-102920814D01*
X165290602Y-102920827D01*
X165230264Y-103066498D01*
X165230261Y-103066510D01*
X165199500Y-103221153D01*
X163592084Y-103221153D01*
X163600500Y-103178842D01*
X163600500Y-103121550D01*
X163600673Y-103118283D01*
X163611231Y-103088290D01*
X163620185Y-103057798D01*
X163622747Y-103055577D01*
X163623874Y-103052377D01*
X163648971Y-103032854D01*
X163672989Y-103012043D01*
X163676986Y-103010302D01*
X163679179Y-103009394D01*
X163810289Y-102921789D01*
X163921789Y-102810289D01*
X164009394Y-102679179D01*
X164069737Y-102533497D01*
X164100500Y-102378842D01*
X164100500Y-102221158D01*
X164100500Y-102221155D01*
X164100499Y-102221153D01*
X164078269Y-102109397D01*
X164069737Y-102066503D01*
X164051215Y-102021786D01*
X164009397Y-101920827D01*
X164009390Y-101920814D01*
X163921789Y-101789711D01*
X163921786Y-101789707D01*
X163810292Y-101678213D01*
X163810288Y-101678210D01*
X163679185Y-101590609D01*
X163679172Y-101590602D01*
X163533501Y-101530264D01*
X163533489Y-101530261D01*
X163378845Y-101499500D01*
X163378842Y-101499500D01*
X163221158Y-101499500D01*
X163221155Y-101499500D01*
X163066510Y-101530261D01*
X163066498Y-101530264D01*
X162920827Y-101590602D01*
X162920814Y-101590609D01*
X162789711Y-101678210D01*
X162789707Y-101678213D01*
X162678213Y-101789707D01*
X162678210Y-101789711D01*
X162590609Y-101920814D01*
X162590602Y-101920827D01*
X162530264Y-102066498D01*
X162530261Y-102066510D01*
X162499500Y-102221153D01*
X162499500Y-102275161D01*
X162479815Y-102342200D01*
X162427011Y-102387955D01*
X162422962Y-102389718D01*
X162420830Y-102390601D01*
X162420814Y-102390609D01*
X162289711Y-102478210D01*
X162289707Y-102478213D01*
X162178213Y-102589707D01*
X162178210Y-102589711D01*
X162090609Y-102720814D01*
X162090602Y-102720827D01*
X162030264Y-102866498D01*
X162030261Y-102866510D01*
X161999500Y-103021153D01*
X160009532Y-103021153D01*
X160009395Y-103020823D01*
X160009390Y-103020814D01*
X159921789Y-102889711D01*
X159921786Y-102889707D01*
X159810292Y-102778213D01*
X159810288Y-102778210D01*
X159679185Y-102690609D01*
X159679172Y-102690602D01*
X159533501Y-102630264D01*
X159533489Y-102630261D01*
X159378845Y-102599500D01*
X159378842Y-102599500D01*
X159221158Y-102599500D01*
X159221155Y-102599500D01*
X159066510Y-102630261D01*
X159066498Y-102630264D01*
X158920827Y-102690602D01*
X158920814Y-102690609D01*
X158789711Y-102778210D01*
X158789707Y-102778213D01*
X158678213Y-102889707D01*
X158678210Y-102889711D01*
X158590609Y-103020814D01*
X158590602Y-103020827D01*
X158530264Y-103166498D01*
X158530261Y-103166510D01*
X158499500Y-103321153D01*
X151299232Y-103321153D01*
X151273443Y-103191508D01*
X151273442Y-103191507D01*
X151273442Y-103191503D01*
X151221664Y-103066498D01*
X151213102Y-103045827D01*
X151213095Y-103045814D01*
X151125494Y-102914711D01*
X151125491Y-102914707D01*
X151013997Y-102803213D01*
X151013993Y-102803210D01*
X150882890Y-102715609D01*
X150882877Y-102715602D01*
X150737206Y-102655264D01*
X150737194Y-102655261D01*
X150582550Y-102624500D01*
X150582547Y-102624500D01*
X150424863Y-102624500D01*
X150424860Y-102624500D01*
X150270215Y-102655261D01*
X150270203Y-102655264D01*
X150124532Y-102715602D01*
X150124519Y-102715609D01*
X149993416Y-102803210D01*
X149993412Y-102803213D01*
X149881918Y-102914707D01*
X149881915Y-102914711D01*
X149794314Y-103045814D01*
X149794307Y-103045827D01*
X149733969Y-103191498D01*
X149733966Y-103191510D01*
X149703205Y-103346153D01*
X136500500Y-103346153D01*
X136500500Y-100366228D01*
X149856360Y-100366228D01*
X149856360Y-100533771D01*
X149889042Y-100698074D01*
X149889044Y-100698082D01*
X149953155Y-100852860D01*
X150046233Y-100992162D01*
X150164697Y-101110626D01*
X150248316Y-101166498D01*
X150303997Y-101203703D01*
X150303998Y-101203703D01*
X150303999Y-101203704D01*
X150338066Y-101217815D01*
X150458778Y-101267816D01*
X150623088Y-101300499D01*
X150623092Y-101300500D01*
X150623093Y-101300500D01*
X150790628Y-101300500D01*
X150790629Y-101300499D01*
X150954942Y-101267816D01*
X151109723Y-101203703D01*
X151249022Y-101110626D01*
X151367486Y-100992162D01*
X151460563Y-100852863D01*
X151524676Y-100698082D01*
X151557360Y-100533767D01*
X151557360Y-100366233D01*
X151524676Y-100201918D01*
X151460563Y-100047137D01*
X151401338Y-99958501D01*
X151367486Y-99907837D01*
X151249022Y-99789373D01*
X151146923Y-99721153D01*
X155399500Y-99721153D01*
X155399500Y-99878846D01*
X155430261Y-100033489D01*
X155430264Y-100033501D01*
X155490602Y-100179172D01*
X155490609Y-100179185D01*
X155578210Y-100310288D01*
X155578213Y-100310292D01*
X155689707Y-100421786D01*
X155689711Y-100421789D01*
X155820814Y-100509390D01*
X155820827Y-100509397D01*
X155966498Y-100569735D01*
X155966503Y-100569737D01*
X156118644Y-100600000D01*
X156121153Y-100600499D01*
X156121156Y-100600500D01*
X156121158Y-100600500D01*
X156278844Y-100600500D01*
X156278845Y-100600499D01*
X156433497Y-100569737D01*
X156579179Y-100509394D01*
X156710289Y-100421789D01*
X156821789Y-100310289D01*
X156909394Y-100179179D01*
X156969737Y-100033497D01*
X157000500Y-99878842D01*
X157000500Y-99721158D01*
X157000500Y-99721155D01*
X157000499Y-99721153D01*
X157399500Y-99721153D01*
X157399500Y-99878846D01*
X157430261Y-100033489D01*
X157430264Y-100033501D01*
X157490602Y-100179172D01*
X157490609Y-100179185D01*
X157578210Y-100310288D01*
X157578213Y-100310292D01*
X157689707Y-100421786D01*
X157689711Y-100421789D01*
X157802118Y-100496898D01*
X157846923Y-100550510D01*
X157855630Y-100619835D01*
X157825475Y-100682863D01*
X157802118Y-100703102D01*
X157689711Y-100778210D01*
X157689707Y-100778213D01*
X157578213Y-100889707D01*
X157578210Y-100889711D01*
X157490609Y-101020814D01*
X157490602Y-101020827D01*
X157430264Y-101166498D01*
X157430261Y-101166510D01*
X157399500Y-101321153D01*
X157399500Y-101478846D01*
X157430261Y-101633489D01*
X157430264Y-101633501D01*
X157490602Y-101779172D01*
X157490609Y-101779185D01*
X157578210Y-101910288D01*
X157578213Y-101910292D01*
X157689707Y-102021786D01*
X157689711Y-102021789D01*
X157820814Y-102109390D01*
X157820827Y-102109397D01*
X157966498Y-102169735D01*
X157966503Y-102169737D01*
X158121153Y-102200499D01*
X158121156Y-102200500D01*
X158121158Y-102200500D01*
X158278844Y-102200500D01*
X158278845Y-102200499D01*
X158433497Y-102169737D01*
X158579179Y-102109394D01*
X158710289Y-102021789D01*
X158821789Y-101910289D01*
X158909394Y-101779179D01*
X158969737Y-101633497D01*
X159000500Y-101478842D01*
X159000500Y-101374500D01*
X159020185Y-101307461D01*
X159072989Y-101261706D01*
X159124500Y-101250500D01*
X159283768Y-101250500D01*
X159283769Y-101250499D01*
X159448082Y-101217816D01*
X159602863Y-101153703D01*
X159742162Y-101060626D01*
X159860626Y-100942162D01*
X159953703Y-100802863D01*
X160017816Y-100648082D01*
X160050500Y-100483767D01*
X160050500Y-100316233D01*
X160017816Y-100151918D01*
X159953703Y-99997137D01*
X159894035Y-99907838D01*
X159860626Y-99857837D01*
X159742162Y-99739373D01*
X159602860Y-99646295D01*
X159448082Y-99582184D01*
X159448074Y-99582182D01*
X159283771Y-99549500D01*
X159283767Y-99549500D01*
X159116233Y-99549500D01*
X159116232Y-99549500D01*
X159074187Y-99557862D01*
X159004595Y-99551633D01*
X158949419Y-99508768D01*
X158935438Y-99483696D01*
X158909397Y-99420827D01*
X158909390Y-99420814D01*
X158821789Y-99289711D01*
X158821786Y-99289707D01*
X158710292Y-99178213D01*
X158710288Y-99178210D01*
X158579185Y-99090609D01*
X158579172Y-99090602D01*
X158433501Y-99030264D01*
X158433489Y-99030261D01*
X158278845Y-98999500D01*
X158278842Y-98999500D01*
X158121158Y-98999500D01*
X158121155Y-98999500D01*
X157966510Y-99030261D01*
X157966498Y-99030264D01*
X157820827Y-99090602D01*
X157820814Y-99090609D01*
X157689711Y-99178210D01*
X157689707Y-99178213D01*
X157578213Y-99289707D01*
X157578210Y-99289711D01*
X157490609Y-99420814D01*
X157490602Y-99420827D01*
X157430264Y-99566498D01*
X157430261Y-99566510D01*
X157399500Y-99721153D01*
X157000499Y-99721153D01*
X156995554Y-99696295D01*
X156969737Y-99566503D01*
X156956062Y-99533489D01*
X156909397Y-99420827D01*
X156909390Y-99420814D01*
X156821789Y-99289711D01*
X156821786Y-99289707D01*
X156710292Y-99178213D01*
X156710288Y-99178210D01*
X156579185Y-99090609D01*
X156579172Y-99090602D01*
X156433501Y-99030264D01*
X156433489Y-99030261D01*
X156278845Y-98999500D01*
X156278842Y-98999500D01*
X156121158Y-98999500D01*
X156121155Y-98999500D01*
X155966510Y-99030261D01*
X155966498Y-99030264D01*
X155820827Y-99090602D01*
X155820814Y-99090609D01*
X155689711Y-99178210D01*
X155689707Y-99178213D01*
X155578213Y-99289707D01*
X155578210Y-99289711D01*
X155490609Y-99420814D01*
X155490602Y-99420827D01*
X155430264Y-99566498D01*
X155430261Y-99566510D01*
X155399500Y-99721153D01*
X151146923Y-99721153D01*
X151109720Y-99696295D01*
X150954942Y-99632184D01*
X150954934Y-99632182D01*
X150790631Y-99599500D01*
X150790627Y-99599500D01*
X150623093Y-99599500D01*
X150623088Y-99599500D01*
X150458785Y-99632182D01*
X150458777Y-99632184D01*
X150303999Y-99696295D01*
X150164697Y-99789373D01*
X150046233Y-99907837D01*
X149953155Y-100047139D01*
X149889044Y-100201917D01*
X149889042Y-100201925D01*
X149856360Y-100366228D01*
X136500500Y-100366228D01*
X136500500Y-98471150D01*
X163399500Y-98471150D01*
X163399500Y-98628843D01*
X163430260Y-98783485D01*
X163430263Y-98783495D01*
X163469220Y-98877546D01*
X163476689Y-98947015D01*
X163469223Y-98972443D01*
X163430263Y-99066503D01*
X163430262Y-99066507D01*
X163430261Y-99066510D01*
X163430260Y-99066511D01*
X163399500Y-99221153D01*
X163399500Y-99378846D01*
X163430261Y-99533489D01*
X163430264Y-99533501D01*
X163490602Y-99679171D01*
X163490604Y-99679176D01*
X163490606Y-99679179D01*
X163518655Y-99721158D01*
X163526486Y-99732877D01*
X163547364Y-99799555D01*
X163545001Y-99825959D01*
X163517993Y-99961736D01*
X163517993Y-100119429D01*
X163548754Y-100274072D01*
X163548757Y-100274084D01*
X163609095Y-100419755D01*
X163609102Y-100419768D01*
X163696703Y-100550871D01*
X163696706Y-100550875D01*
X163808200Y-100662369D01*
X163808204Y-100662372D01*
X163939307Y-100749973D01*
X163939311Y-100749975D01*
X163939314Y-100749977D01*
X164068096Y-100803319D01*
X164122499Y-100847159D01*
X164135204Y-100870427D01*
X164190604Y-101004176D01*
X164190609Y-101004185D01*
X164278210Y-101135288D01*
X164278213Y-101135292D01*
X164389707Y-101246786D01*
X164389711Y-101246789D01*
X164520814Y-101334390D01*
X164520827Y-101334397D01*
X164617646Y-101374500D01*
X164666503Y-101394737D01*
X164821153Y-101425499D01*
X164821156Y-101425500D01*
X164821158Y-101425500D01*
X164978844Y-101425500D01*
X164978845Y-101425499D01*
X165133497Y-101394737D01*
X165190434Y-101371153D01*
X170599500Y-101371153D01*
X170599500Y-101528846D01*
X170630261Y-101683489D01*
X170630264Y-101683501D01*
X170690602Y-101829172D01*
X170690609Y-101829185D01*
X170778210Y-101960288D01*
X170778213Y-101960292D01*
X170889707Y-102071786D01*
X170889711Y-102071789D01*
X171020814Y-102159390D01*
X171020827Y-102159397D01*
X171120060Y-102200500D01*
X171166503Y-102219737D01*
X171321153Y-102250499D01*
X171321156Y-102250500D01*
X171321158Y-102250500D01*
X171478844Y-102250500D01*
X171478845Y-102250499D01*
X171633497Y-102219737D01*
X171779179Y-102159394D01*
X171910289Y-102071789D01*
X172021789Y-101960289D01*
X172109394Y-101829179D01*
X172169737Y-101683497D01*
X172200500Y-101528842D01*
X172200500Y-101371158D01*
X172200500Y-101371155D01*
X172200499Y-101371153D01*
X172179944Y-101267816D01*
X172169737Y-101216503D01*
X172164435Y-101203703D01*
X172109397Y-101070827D01*
X172109390Y-101070814D01*
X172021789Y-100939711D01*
X172021786Y-100939707D01*
X171910292Y-100828213D01*
X171910288Y-100828210D01*
X171779185Y-100740609D01*
X171779172Y-100740602D01*
X171633501Y-100680264D01*
X171633489Y-100680261D01*
X171478845Y-100649500D01*
X171478842Y-100649500D01*
X171321158Y-100649500D01*
X171321155Y-100649500D01*
X171166510Y-100680261D01*
X171166498Y-100680264D01*
X171020827Y-100740602D01*
X171020814Y-100740609D01*
X170889711Y-100828210D01*
X170889707Y-100828213D01*
X170778213Y-100939707D01*
X170778210Y-100939711D01*
X170690609Y-101070814D01*
X170690602Y-101070827D01*
X170630264Y-101216498D01*
X170630261Y-101216510D01*
X170599500Y-101371153D01*
X165190434Y-101371153D01*
X165279179Y-101334394D01*
X165410289Y-101246789D01*
X165521789Y-101135289D01*
X165609394Y-101004179D01*
X165669737Y-100858497D01*
X165700500Y-100703842D01*
X165700500Y-100546158D01*
X165700500Y-100546155D01*
X165700499Y-100546153D01*
X165693186Y-100509390D01*
X165669737Y-100391503D01*
X165659270Y-100366233D01*
X165609397Y-100245827D01*
X165609390Y-100245814D01*
X165521789Y-100114711D01*
X165521786Y-100114707D01*
X165410292Y-100003213D01*
X165410288Y-100003210D01*
X165279185Y-99915609D01*
X165279176Y-99915604D01*
X165150395Y-99862262D01*
X165095992Y-99818421D01*
X165083287Y-99795153D01*
X165080893Y-99789374D01*
X165052638Y-99721158D01*
X165038704Y-99687518D01*
X165035239Y-99679155D01*
X165027887Y-99661404D01*
X165017697Y-99646153D01*
X167499500Y-99646153D01*
X167499500Y-99803846D01*
X167530261Y-99958489D01*
X167530264Y-99958501D01*
X167590602Y-100104172D01*
X167590609Y-100104185D01*
X167678210Y-100235288D01*
X167678213Y-100235292D01*
X167789707Y-100346786D01*
X167789711Y-100346789D01*
X167920814Y-100434390D01*
X167920827Y-100434397D01*
X168066498Y-100494735D01*
X168066503Y-100494737D01*
X168221153Y-100525499D01*
X168221156Y-100525500D01*
X168221158Y-100525500D01*
X168378844Y-100525500D01*
X168378845Y-100525499D01*
X168533497Y-100494737D01*
X168679179Y-100434394D01*
X168810289Y-100346789D01*
X168921789Y-100235289D01*
X169009394Y-100104179D01*
X169069737Y-99958497D01*
X169100500Y-99803842D01*
X169100500Y-99646158D01*
X169100500Y-99646155D01*
X169100499Y-99646153D01*
X169087774Y-99582182D01*
X169069737Y-99491503D01*
X169066503Y-99483696D01*
X169009397Y-99345827D01*
X169009390Y-99345814D01*
X168921789Y-99214711D01*
X168921786Y-99214707D01*
X168810292Y-99103213D01*
X168810288Y-99103210D01*
X168679185Y-99015609D01*
X168679172Y-99015602D01*
X168533501Y-98955264D01*
X168533489Y-98955261D01*
X168378845Y-98924500D01*
X168378842Y-98924500D01*
X168221158Y-98924500D01*
X168221155Y-98924500D01*
X168066510Y-98955261D01*
X168066498Y-98955264D01*
X167920827Y-99015602D01*
X167920814Y-99015609D01*
X167789711Y-99103210D01*
X167789707Y-99103213D01*
X167678213Y-99214707D01*
X167678210Y-99214711D01*
X167590609Y-99345814D01*
X167590602Y-99345827D01*
X167530264Y-99491498D01*
X167530261Y-99491510D01*
X167499500Y-99646153D01*
X165017697Y-99646153D01*
X164992005Y-99607703D01*
X164971128Y-99541028D01*
X164973491Y-99514622D01*
X164974656Y-99508768D01*
X164992151Y-99420814D01*
X165000500Y-99378844D01*
X165000500Y-99221155D01*
X165000499Y-99221153D01*
X164977039Y-99103213D01*
X164969737Y-99066503D01*
X164930778Y-98972449D01*
X164923310Y-98902982D01*
X164930779Y-98877546D01*
X164969737Y-98783494D01*
X165000500Y-98628839D01*
X165000500Y-98471155D01*
X165000500Y-98471152D01*
X165000499Y-98471150D01*
X164969738Y-98316507D01*
X164969737Y-98316500D01*
X164956179Y-98283767D01*
X164909395Y-98170820D01*
X164909392Y-98170814D01*
X164872918Y-98116228D01*
X170449500Y-98116228D01*
X170449500Y-98283771D01*
X170482182Y-98448074D01*
X170482184Y-98448082D01*
X170546295Y-98602860D01*
X170639373Y-98742162D01*
X170757837Y-98860626D01*
X170783160Y-98877546D01*
X170897137Y-98953703D01*
X170897138Y-98953703D01*
X170897139Y-98953704D01*
X170932201Y-98968227D01*
X171051918Y-99017816D01*
X171216228Y-99050499D01*
X171216232Y-99050500D01*
X171216233Y-99050500D01*
X171383768Y-99050500D01*
X171383769Y-99050499D01*
X171548082Y-99017816D01*
X171702863Y-98953703D01*
X171842162Y-98860626D01*
X171960626Y-98742162D01*
X172053703Y-98602863D01*
X172117816Y-98448082D01*
X172150500Y-98283767D01*
X172150500Y-98116233D01*
X172117816Y-97951918D01*
X172058780Y-97809394D01*
X172053704Y-97797139D01*
X172052718Y-97795664D01*
X171989132Y-97700500D01*
X171960626Y-97657837D01*
X171842162Y-97539373D01*
X171702860Y-97446295D01*
X171548082Y-97382184D01*
X171548074Y-97382182D01*
X171383771Y-97349500D01*
X171383767Y-97349500D01*
X171216233Y-97349500D01*
X171216228Y-97349500D01*
X171051925Y-97382182D01*
X171051917Y-97382184D01*
X170897139Y-97446295D01*
X170757837Y-97539373D01*
X170639373Y-97657837D01*
X170546295Y-97797139D01*
X170482184Y-97951917D01*
X170482182Y-97951925D01*
X170449500Y-98116228D01*
X164872918Y-98116228D01*
X164821789Y-98039708D01*
X164821786Y-98039704D01*
X164710292Y-97928210D01*
X164710288Y-97928207D01*
X164579185Y-97840606D01*
X164579172Y-97840599D01*
X164433501Y-97780261D01*
X164433489Y-97780258D01*
X164278845Y-97749497D01*
X164278842Y-97749497D01*
X164121158Y-97749497D01*
X164121155Y-97749497D01*
X163966510Y-97780258D01*
X163966498Y-97780261D01*
X163820827Y-97840599D01*
X163820814Y-97840606D01*
X163689711Y-97928207D01*
X163689707Y-97928210D01*
X163578213Y-98039704D01*
X163578210Y-98039708D01*
X163490609Y-98170811D01*
X163490602Y-98170824D01*
X163430264Y-98316495D01*
X163430261Y-98316507D01*
X163399500Y-98471150D01*
X136500500Y-98471150D01*
X136500500Y-96568995D01*
X137344499Y-96568995D01*
X137371418Y-96704322D01*
X137371421Y-96704332D01*
X137424221Y-96831804D01*
X137424228Y-96831817D01*
X137500885Y-96946541D01*
X137500888Y-96946545D01*
X137598454Y-97044111D01*
X137598458Y-97044114D01*
X137713182Y-97120771D01*
X137713195Y-97120778D01*
X137840667Y-97173578D01*
X137840672Y-97173580D01*
X137840676Y-97173580D01*
X137840677Y-97173581D01*
X137976004Y-97200500D01*
X137976007Y-97200500D01*
X138113995Y-97200500D01*
X138222874Y-97178842D01*
X138249328Y-97173580D01*
X138347924Y-97132740D01*
X138376804Y-97120778D01*
X138376804Y-97120777D01*
X138376811Y-97120775D01*
X138383616Y-97116228D01*
X149949500Y-97116228D01*
X149949500Y-97283771D01*
X149982182Y-97448074D01*
X149982184Y-97448082D01*
X150046295Y-97602860D01*
X150139373Y-97742162D01*
X150257837Y-97860626D01*
X150350494Y-97922537D01*
X150397137Y-97953703D01*
X150551918Y-98017816D01*
X150716228Y-98050499D01*
X150716232Y-98050500D01*
X150716233Y-98050500D01*
X150883768Y-98050500D01*
X150883769Y-98050499D01*
X151048082Y-98017816D01*
X151202863Y-97953703D01*
X151342162Y-97860626D01*
X151460626Y-97742162D01*
X151553703Y-97602863D01*
X151617816Y-97448082D01*
X151650500Y-97283767D01*
X151650500Y-97121153D01*
X151999500Y-97121153D01*
X151999500Y-97278846D01*
X152030261Y-97433489D01*
X152030264Y-97433501D01*
X152090602Y-97579172D01*
X152090609Y-97579185D01*
X152178210Y-97710288D01*
X152178213Y-97710292D01*
X152289707Y-97821786D01*
X152289711Y-97821789D01*
X152420814Y-97909390D01*
X152420827Y-97909397D01*
X152566498Y-97969735D01*
X152566503Y-97969737D01*
X152721153Y-98000499D01*
X152721156Y-98000500D01*
X152721158Y-98000500D01*
X152878844Y-98000500D01*
X152878845Y-98000499D01*
X153033497Y-97969737D01*
X153179179Y-97909394D01*
X153310289Y-97821789D01*
X153421789Y-97710289D01*
X153509394Y-97579179D01*
X153569737Y-97433497D01*
X153600500Y-97278842D01*
X153600500Y-97121158D01*
X153600500Y-97121155D01*
X153600499Y-97121153D01*
X153874500Y-97121153D01*
X153874500Y-97278846D01*
X153905261Y-97433489D01*
X153905264Y-97433501D01*
X153965602Y-97579172D01*
X153965609Y-97579185D01*
X154053210Y-97710288D01*
X154053213Y-97710292D01*
X154164707Y-97821786D01*
X154164711Y-97821789D01*
X154295814Y-97909390D01*
X154295827Y-97909397D01*
X154441498Y-97969735D01*
X154441503Y-97969737D01*
X154596153Y-98000499D01*
X154596156Y-98000500D01*
X154596158Y-98000500D01*
X154753844Y-98000500D01*
X154753845Y-98000499D01*
X154908497Y-97969737D01*
X155054179Y-97909394D01*
X155067491Y-97900499D01*
X155190354Y-97818405D01*
X155191296Y-97819815D01*
X155248125Y-97795664D01*
X155315166Y-97807126D01*
X155315193Y-97807063D01*
X155315472Y-97807178D01*
X155316995Y-97807439D01*
X155320789Y-97809381D01*
X155396174Y-97840606D01*
X155466503Y-97869737D01*
X155621153Y-97900499D01*
X155621156Y-97900500D01*
X155621158Y-97900500D01*
X155778844Y-97900500D01*
X155778845Y-97900499D01*
X155933497Y-97869737D01*
X156079179Y-97809394D01*
X156210289Y-97721789D01*
X156321789Y-97610289D01*
X156409394Y-97479179D01*
X156469737Y-97333497D01*
X156500500Y-97178842D01*
X156500500Y-97021158D01*
X156500500Y-97021155D01*
X156500499Y-97021153D01*
X156469737Y-96866503D01*
X156455367Y-96831811D01*
X156450952Y-96821153D01*
X156874500Y-96821153D01*
X156874500Y-96978846D01*
X156905261Y-97133489D01*
X156905264Y-97133501D01*
X156965602Y-97279172D01*
X156965609Y-97279185D01*
X157053210Y-97410288D01*
X157053213Y-97410292D01*
X157164707Y-97521786D01*
X157164711Y-97521789D01*
X157295814Y-97609390D01*
X157295827Y-97609397D01*
X157412776Y-97657838D01*
X157441503Y-97669737D01*
X157596153Y-97700499D01*
X157596156Y-97700500D01*
X157596158Y-97700500D01*
X157753844Y-97700500D01*
X157753845Y-97700499D01*
X157908497Y-97669737D01*
X158054179Y-97609394D01*
X158185289Y-97521789D01*
X158296789Y-97410289D01*
X158384394Y-97279179D01*
X158444737Y-97133497D01*
X158475500Y-96978842D01*
X158475500Y-96821158D01*
X158475500Y-96821155D01*
X158459209Y-96739258D01*
X158459209Y-96739257D01*
X158455608Y-96721153D01*
X165699500Y-96721153D01*
X165699500Y-96878846D01*
X165730261Y-97033489D01*
X165730264Y-97033501D01*
X165790602Y-97179172D01*
X165790609Y-97179185D01*
X165878210Y-97310288D01*
X165878213Y-97310292D01*
X165989707Y-97421786D01*
X165989711Y-97421789D01*
X166120814Y-97509390D01*
X166120827Y-97509397D01*
X166266498Y-97569735D01*
X166266503Y-97569737D01*
X166421153Y-97600499D01*
X166421156Y-97600500D01*
X166421158Y-97600500D01*
X166578843Y-97600500D01*
X166612334Y-97593837D01*
X166671962Y-97581977D01*
X166741552Y-97588204D01*
X166783834Y-97615913D01*
X166789707Y-97621786D01*
X166789711Y-97621789D01*
X166920814Y-97709390D01*
X166920827Y-97709397D01*
X167043169Y-97760072D01*
X167066503Y-97769737D01*
X167196846Y-97795664D01*
X167221153Y-97800499D01*
X167221156Y-97800500D01*
X167221158Y-97800500D01*
X167378844Y-97800500D01*
X167378845Y-97800499D01*
X167533497Y-97769737D01*
X167679179Y-97709394D01*
X167810289Y-97621789D01*
X167921789Y-97510289D01*
X168009394Y-97379179D01*
X168069737Y-97233497D01*
X168100500Y-97078842D01*
X168100500Y-96921158D01*
X168100500Y-96921155D01*
X168100499Y-96921153D01*
X168069737Y-96766503D01*
X168058452Y-96739258D01*
X168009397Y-96620827D01*
X168009390Y-96620814D01*
X167921789Y-96489711D01*
X167921786Y-96489707D01*
X167810292Y-96378213D01*
X167810288Y-96378210D01*
X167679185Y-96290609D01*
X167679172Y-96290602D01*
X167533501Y-96230264D01*
X167533489Y-96230261D01*
X167378845Y-96199500D01*
X167378842Y-96199500D01*
X167221158Y-96199500D01*
X167221153Y-96199500D01*
X167128037Y-96218022D01*
X167058445Y-96211795D01*
X167016165Y-96184086D01*
X167010292Y-96178213D01*
X167010288Y-96178210D01*
X166879185Y-96090609D01*
X166879172Y-96090602D01*
X166733501Y-96030264D01*
X166733489Y-96030261D01*
X166578845Y-95999500D01*
X166578842Y-95999500D01*
X166421158Y-95999500D01*
X166421155Y-95999500D01*
X166266510Y-96030261D01*
X166266498Y-96030264D01*
X166120827Y-96090602D01*
X166120814Y-96090609D01*
X165989711Y-96178210D01*
X165989707Y-96178213D01*
X165878213Y-96289707D01*
X165878210Y-96289711D01*
X165790609Y-96420814D01*
X165790602Y-96420827D01*
X165730264Y-96566498D01*
X165730261Y-96566510D01*
X165699500Y-96721153D01*
X158455608Y-96721153D01*
X158449353Y-96689711D01*
X158444737Y-96666503D01*
X158441148Y-96657838D01*
X158384397Y-96520827D01*
X158384390Y-96520814D01*
X158296789Y-96389711D01*
X158296786Y-96389707D01*
X158185292Y-96278213D01*
X158185288Y-96278210D01*
X158054185Y-96190609D01*
X158054172Y-96190602D01*
X157908501Y-96130264D01*
X157908489Y-96130261D01*
X157753845Y-96099500D01*
X157753842Y-96099500D01*
X157596158Y-96099500D01*
X157596155Y-96099500D01*
X157441510Y-96130261D01*
X157441498Y-96130264D01*
X157295827Y-96190602D01*
X157295814Y-96190609D01*
X157164711Y-96278210D01*
X157164707Y-96278213D01*
X157053213Y-96389707D01*
X157053210Y-96389711D01*
X156965609Y-96520814D01*
X156965602Y-96520827D01*
X156905264Y-96666498D01*
X156905261Y-96666510D01*
X156874500Y-96821153D01*
X156450952Y-96821153D01*
X156409397Y-96720827D01*
X156406521Y-96715446D01*
X156407824Y-96714749D01*
X156389134Y-96655084D01*
X156407611Y-96587701D01*
X156409972Y-96584024D01*
X156492944Y-96459849D01*
X156553287Y-96314167D01*
X156584050Y-96159512D01*
X156584050Y-96001828D01*
X156584050Y-96001825D01*
X156584049Y-96001823D01*
X156574912Y-95955888D01*
X156553287Y-95847173D01*
X156544690Y-95826418D01*
X156492947Y-95701497D01*
X156492940Y-95701484D01*
X156405339Y-95570381D01*
X156405336Y-95570377D01*
X156293842Y-95458883D01*
X156293838Y-95458880D01*
X156162735Y-95371279D01*
X156162722Y-95371272D01*
X156017051Y-95310934D01*
X156017039Y-95310931D01*
X155862395Y-95280170D01*
X155862392Y-95280170D01*
X155704708Y-95280170D01*
X155704705Y-95280170D01*
X155550060Y-95310931D01*
X155550048Y-95310934D01*
X155404377Y-95371272D01*
X155404364Y-95371279D01*
X155273261Y-95458880D01*
X155273257Y-95458883D01*
X155161763Y-95570377D01*
X155161760Y-95570381D01*
X155074159Y-95701484D01*
X155074152Y-95701497D01*
X155013814Y-95847168D01*
X155013811Y-95847180D01*
X154983050Y-96001823D01*
X154983050Y-96159516D01*
X155005990Y-96274844D01*
X154999763Y-96344436D01*
X154956900Y-96399613D01*
X154891010Y-96422857D01*
X154860181Y-96420652D01*
X154753844Y-96399500D01*
X154753842Y-96399500D01*
X154596158Y-96399500D01*
X154596155Y-96399500D01*
X154441510Y-96430261D01*
X154441498Y-96430264D01*
X154295827Y-96490602D01*
X154295814Y-96490609D01*
X154164711Y-96578210D01*
X154164707Y-96578213D01*
X154053213Y-96689707D01*
X154053210Y-96689711D01*
X153965609Y-96820814D01*
X153965602Y-96820827D01*
X153905264Y-96966498D01*
X153905261Y-96966510D01*
X153874500Y-97121153D01*
X153600499Y-97121153D01*
X153599519Y-97116228D01*
X153569737Y-96966503D01*
X153550955Y-96921158D01*
X153509397Y-96820827D01*
X153509390Y-96820814D01*
X153421789Y-96689711D01*
X153421786Y-96689707D01*
X153310292Y-96578213D01*
X153310288Y-96578210D01*
X153179185Y-96490609D01*
X153179172Y-96490602D01*
X153033501Y-96430264D01*
X153033489Y-96430261D01*
X152878845Y-96399500D01*
X152878842Y-96399500D01*
X152721158Y-96399500D01*
X152721155Y-96399500D01*
X152566510Y-96430261D01*
X152566498Y-96430264D01*
X152420827Y-96490602D01*
X152420814Y-96490609D01*
X152289711Y-96578210D01*
X152289707Y-96578213D01*
X152178213Y-96689707D01*
X152178210Y-96689711D01*
X152090609Y-96820814D01*
X152090602Y-96820827D01*
X152030264Y-96966498D01*
X152030261Y-96966510D01*
X151999500Y-97121153D01*
X151650500Y-97121153D01*
X151650500Y-97116233D01*
X151617816Y-96951918D01*
X151553703Y-96797137D01*
X151498653Y-96714749D01*
X151460626Y-96657837D01*
X151342162Y-96539373D01*
X151202860Y-96446295D01*
X151048082Y-96382184D01*
X151048074Y-96382182D01*
X150883771Y-96349500D01*
X150883767Y-96349500D01*
X150716233Y-96349500D01*
X150716228Y-96349500D01*
X150551925Y-96382182D01*
X150551917Y-96382184D01*
X150397139Y-96446295D01*
X150257837Y-96539373D01*
X150139373Y-96657837D01*
X150046295Y-96797139D01*
X149982184Y-96951917D01*
X149982182Y-96951925D01*
X149949500Y-97116228D01*
X138383616Y-97116228D01*
X138491542Y-97044114D01*
X138502167Y-97033489D01*
X138513197Y-97022460D01*
X138589111Y-96946545D01*
X138589114Y-96946542D01*
X138665775Y-96831811D01*
X138718580Y-96704328D01*
X138741779Y-96587701D01*
X138745500Y-96568995D01*
X138745500Y-96431004D01*
X138718581Y-96295677D01*
X138718580Y-96295676D01*
X138718580Y-96295672D01*
X138711348Y-96278213D01*
X138665778Y-96168195D01*
X138665771Y-96168182D01*
X138589114Y-96053458D01*
X138589111Y-96053454D01*
X138491545Y-95955888D01*
X138491541Y-95955885D01*
X138376817Y-95879228D01*
X138376804Y-95879221D01*
X138249332Y-95826421D01*
X138249322Y-95826418D01*
X138113995Y-95799500D01*
X138113993Y-95799500D01*
X137976007Y-95799500D01*
X137976005Y-95799500D01*
X137840677Y-95826418D01*
X137840667Y-95826421D01*
X137713195Y-95879221D01*
X137713182Y-95879228D01*
X137598458Y-95955885D01*
X137598454Y-95955888D01*
X137500888Y-96053454D01*
X137500885Y-96053458D01*
X137424228Y-96168182D01*
X137424221Y-96168195D01*
X137371421Y-96295667D01*
X137371418Y-96295677D01*
X137344500Y-96431004D01*
X137344500Y-96431007D01*
X137344500Y-96568993D01*
X137344500Y-96568995D01*
X137344499Y-96568995D01*
X136500500Y-96568995D01*
X136500500Y-95016228D01*
X170449500Y-95016228D01*
X170449500Y-95183771D01*
X170482182Y-95348074D01*
X170482184Y-95348082D01*
X170546295Y-95502860D01*
X170639373Y-95642162D01*
X170757837Y-95760626D01*
X170850494Y-95822537D01*
X170897137Y-95853703D01*
X171051918Y-95917816D01*
X171216228Y-95950499D01*
X171216232Y-95950500D01*
X171216233Y-95950500D01*
X171383768Y-95950500D01*
X171383769Y-95950499D01*
X171548082Y-95917816D01*
X171702863Y-95853703D01*
X171842162Y-95760626D01*
X171960626Y-95642162D01*
X172053703Y-95502863D01*
X172117816Y-95348082D01*
X172150500Y-95183767D01*
X172150500Y-95016233D01*
X172117816Y-94851918D01*
X172053703Y-94697137D01*
X172022537Y-94650494D01*
X171960626Y-94557837D01*
X171842162Y-94439373D01*
X171702860Y-94346295D01*
X171548082Y-94282184D01*
X171548074Y-94282182D01*
X171383771Y-94249500D01*
X171383767Y-94249500D01*
X171216233Y-94249500D01*
X171216228Y-94249500D01*
X171051925Y-94282182D01*
X171051917Y-94282184D01*
X170897139Y-94346295D01*
X170757837Y-94439373D01*
X170639373Y-94557837D01*
X170546295Y-94697139D01*
X170482184Y-94851917D01*
X170482182Y-94851925D01*
X170449500Y-95016228D01*
X136500500Y-95016228D01*
X136500500Y-93568995D01*
X137344499Y-93568995D01*
X137371418Y-93704322D01*
X137371421Y-93704332D01*
X137424221Y-93831804D01*
X137424228Y-93831817D01*
X137500885Y-93946541D01*
X137500888Y-93946545D01*
X137598454Y-94044111D01*
X137598458Y-94044114D01*
X137713182Y-94120771D01*
X137713195Y-94120778D01*
X137840667Y-94173578D01*
X137840672Y-94173580D01*
X137840676Y-94173580D01*
X137840677Y-94173581D01*
X137976004Y-94200500D01*
X137976007Y-94200500D01*
X138113995Y-94200500D01*
X138205041Y-94182389D01*
X138249328Y-94173580D01*
X138376811Y-94120775D01*
X138491542Y-94044114D01*
X138589114Y-93946542D01*
X138665775Y-93831811D01*
X138718580Y-93704328D01*
X138732333Y-93635188D01*
X138745500Y-93568995D01*
X138745500Y-93431004D01*
X138745499Y-93431002D01*
X138726271Y-93334332D01*
X138722669Y-93316228D01*
X150249500Y-93316228D01*
X150249500Y-93483771D01*
X150282182Y-93648074D01*
X150282184Y-93648082D01*
X150346295Y-93802860D01*
X150439373Y-93942162D01*
X150557837Y-94060626D01*
X150647851Y-94120771D01*
X150697137Y-94153703D01*
X150851918Y-94217816D01*
X151011206Y-94249500D01*
X151016228Y-94250499D01*
X151016232Y-94250500D01*
X151016233Y-94250500D01*
X151183768Y-94250500D01*
X151183769Y-94250499D01*
X151348082Y-94217816D01*
X151502863Y-94153703D01*
X151642162Y-94060626D01*
X151760626Y-93942162D01*
X151853703Y-93802863D01*
X151917816Y-93648082D01*
X151950500Y-93483767D01*
X151950500Y-93316233D01*
X151917816Y-93151918D01*
X151917814Y-93151913D01*
X151891098Y-93087414D01*
X151873964Y-93046049D01*
X157799918Y-93046049D01*
X157799918Y-93203742D01*
X157830679Y-93358385D01*
X157830682Y-93358397D01*
X157891020Y-93504068D01*
X157891027Y-93504081D01*
X157978628Y-93635184D01*
X157978631Y-93635188D01*
X158090125Y-93746682D01*
X158090129Y-93746685D01*
X158221232Y-93834286D01*
X158221245Y-93834293D01*
X158366916Y-93894631D01*
X158366921Y-93894633D01*
X158521571Y-93925395D01*
X158521574Y-93925396D01*
X158521576Y-93925396D01*
X158679262Y-93925396D01*
X158679263Y-93925395D01*
X158833915Y-93894633D01*
X158979597Y-93834290D01*
X159110707Y-93746685D01*
X159222207Y-93635185D01*
X159309812Y-93504075D01*
X159370155Y-93358393D01*
X159400918Y-93203738D01*
X159400918Y-93046054D01*
X159400918Y-93046051D01*
X159400917Y-93046049D01*
X159370156Y-92891406D01*
X159370155Y-92891399D01*
X159365114Y-92879228D01*
X159309815Y-92745723D01*
X159309808Y-92745710D01*
X159222207Y-92614607D01*
X159222204Y-92614603D01*
X159110710Y-92503109D01*
X159110706Y-92503106D01*
X158979603Y-92415505D01*
X158979590Y-92415498D01*
X158833919Y-92355160D01*
X158833907Y-92355157D01*
X158679263Y-92324396D01*
X158679260Y-92324396D01*
X158521576Y-92324396D01*
X158521573Y-92324396D01*
X158366928Y-92355157D01*
X158366916Y-92355160D01*
X158221245Y-92415498D01*
X158221232Y-92415505D01*
X158090129Y-92503106D01*
X158090125Y-92503109D01*
X157978631Y-92614603D01*
X157978628Y-92614607D01*
X157891027Y-92745710D01*
X157891020Y-92745723D01*
X157830682Y-92891394D01*
X157830679Y-92891406D01*
X157799918Y-93046049D01*
X151873964Y-93046049D01*
X151853704Y-92997139D01*
X151760626Y-92857837D01*
X151642162Y-92739373D01*
X151502860Y-92646295D01*
X151348082Y-92582184D01*
X151348074Y-92582182D01*
X151183771Y-92549500D01*
X151183767Y-92549500D01*
X151016233Y-92549500D01*
X151016228Y-92549500D01*
X150851925Y-92582182D01*
X150851917Y-92582184D01*
X150697139Y-92646295D01*
X150557837Y-92739373D01*
X150439373Y-92857837D01*
X150346295Y-92997139D01*
X150282184Y-93151917D01*
X150282182Y-93151925D01*
X150249500Y-93316228D01*
X138722669Y-93316228D01*
X138718581Y-93295676D01*
X138718578Y-93295667D01*
X138665778Y-93168195D01*
X138665771Y-93168182D01*
X138589114Y-93053458D01*
X138589111Y-93053454D01*
X138491545Y-92955888D01*
X138491541Y-92955885D01*
X138376817Y-92879228D01*
X138376804Y-92879221D01*
X138249332Y-92826421D01*
X138249322Y-92826418D01*
X138113995Y-92799500D01*
X138113993Y-92799500D01*
X137976007Y-92799500D01*
X137976005Y-92799500D01*
X137840677Y-92826418D01*
X137840667Y-92826421D01*
X137713195Y-92879221D01*
X137713182Y-92879228D01*
X137598458Y-92955885D01*
X137598454Y-92955888D01*
X137500888Y-93053454D01*
X137500885Y-93053458D01*
X137424228Y-93168182D01*
X137424221Y-93168195D01*
X137371421Y-93295667D01*
X137371418Y-93295677D01*
X137344500Y-93431004D01*
X137344500Y-93431007D01*
X137344500Y-93568993D01*
X137344500Y-93568995D01*
X137344499Y-93568995D01*
X136500500Y-93568995D01*
X136500500Y-91716228D01*
X139349500Y-91716228D01*
X139349500Y-91883771D01*
X139382182Y-92048074D01*
X139382184Y-92048082D01*
X139446295Y-92202860D01*
X139539373Y-92342162D01*
X139657837Y-92460626D01*
X139721415Y-92503107D01*
X139797137Y-92553703D01*
X139951918Y-92617816D01*
X140095093Y-92646295D01*
X140116228Y-92650499D01*
X140116232Y-92650500D01*
X140116233Y-92650500D01*
X140283768Y-92650500D01*
X140283769Y-92650499D01*
X140448082Y-92617816D01*
X140602863Y-92553703D01*
X140742162Y-92460626D01*
X140860626Y-92342162D01*
X140953703Y-92202863D01*
X141017816Y-92048082D01*
X141044043Y-91916228D01*
X170449500Y-91916228D01*
X170449500Y-92083771D01*
X170482182Y-92248074D01*
X170482184Y-92248082D01*
X170546295Y-92402860D01*
X170639373Y-92542162D01*
X170757837Y-92660626D01*
X170850494Y-92722537D01*
X170897137Y-92753703D01*
X171051918Y-92817816D01*
X171216228Y-92850499D01*
X171216232Y-92850500D01*
X171216233Y-92850500D01*
X171383768Y-92850500D01*
X171383769Y-92850499D01*
X171548082Y-92817816D01*
X171702863Y-92753703D01*
X171842162Y-92660626D01*
X171960626Y-92542162D01*
X172053703Y-92402863D01*
X172117816Y-92248082D01*
X172150500Y-92083767D01*
X172150500Y-91916233D01*
X172117816Y-91751918D01*
X172053703Y-91597137D01*
X172016970Y-91542162D01*
X171960626Y-91457837D01*
X171842162Y-91339373D01*
X171702860Y-91246295D01*
X171548082Y-91182184D01*
X171548074Y-91182182D01*
X171383771Y-91149500D01*
X171383767Y-91149500D01*
X171216233Y-91149500D01*
X171216228Y-91149500D01*
X171051925Y-91182182D01*
X171051917Y-91182184D01*
X170897139Y-91246295D01*
X170757837Y-91339373D01*
X170639373Y-91457837D01*
X170546295Y-91597139D01*
X170482184Y-91751917D01*
X170482182Y-91751925D01*
X170449500Y-91916228D01*
X141044043Y-91916228D01*
X141050500Y-91883767D01*
X141050500Y-91716233D01*
X141017816Y-91551918D01*
X140953703Y-91397137D01*
X140915106Y-91339373D01*
X140860626Y-91257837D01*
X140742162Y-91139373D01*
X140602860Y-91046295D01*
X140550729Y-91024702D01*
X140448082Y-90982184D01*
X140448074Y-90982182D01*
X140283771Y-90949500D01*
X140283767Y-90949500D01*
X140116233Y-90949500D01*
X140116228Y-90949500D01*
X139951925Y-90982182D01*
X139951917Y-90982184D01*
X139797139Y-91046295D01*
X139657837Y-91139373D01*
X139539373Y-91257837D01*
X139446295Y-91397139D01*
X139382184Y-91551917D01*
X139382182Y-91551925D01*
X139349500Y-91716228D01*
X136500500Y-91716228D01*
X136500500Y-90916228D01*
X173049500Y-90916228D01*
X173049500Y-91083771D01*
X173082182Y-91248074D01*
X173082184Y-91248082D01*
X173146295Y-91402860D01*
X173239373Y-91542162D01*
X173357837Y-91660626D01*
X173441052Y-91716228D01*
X173497137Y-91753703D01*
X173651918Y-91817816D01*
X173816228Y-91850499D01*
X173816232Y-91850500D01*
X173816233Y-91850500D01*
X173983768Y-91850500D01*
X173983769Y-91850499D01*
X174148082Y-91817816D01*
X174302863Y-91753703D01*
X174442162Y-91660626D01*
X174560626Y-91542162D01*
X174653703Y-91402863D01*
X174717816Y-91248082D01*
X174750500Y-91083767D01*
X174750500Y-90916233D01*
X174717816Y-90751918D01*
X174653703Y-90597137D01*
X174595072Y-90509390D01*
X174560626Y-90457837D01*
X174442162Y-90339373D01*
X174302860Y-90246295D01*
X174148082Y-90182184D01*
X174148074Y-90182182D01*
X173983771Y-90149500D01*
X173983767Y-90149500D01*
X173816233Y-90149500D01*
X173816228Y-90149500D01*
X173651925Y-90182182D01*
X173651917Y-90182184D01*
X173497139Y-90246295D01*
X173357837Y-90339373D01*
X173239373Y-90457837D01*
X173146295Y-90597139D01*
X173082184Y-90751917D01*
X173082182Y-90751925D01*
X173049500Y-90916228D01*
X136500500Y-90916228D01*
X136500500Y-89721153D01*
X153299500Y-89721153D01*
X153299500Y-89878846D01*
X153330261Y-90033489D01*
X153330264Y-90033501D01*
X153390602Y-90179172D01*
X153390609Y-90179185D01*
X153478210Y-90310288D01*
X153478213Y-90310292D01*
X153589707Y-90421786D01*
X153589711Y-90421789D01*
X153720814Y-90509390D01*
X153720827Y-90509397D01*
X153866498Y-90569735D01*
X153866503Y-90569737D01*
X154004251Y-90597137D01*
X154021153Y-90600499D01*
X154021156Y-90600500D01*
X154021158Y-90600500D01*
X154178844Y-90600500D01*
X154178845Y-90600499D01*
X154333497Y-90569737D01*
X154479179Y-90509394D01*
X154610289Y-90421789D01*
X154721789Y-90310289D01*
X154809394Y-90179179D01*
X154869737Y-90033497D01*
X154900500Y-89878842D01*
X154900500Y-89721158D01*
X154900500Y-89721155D01*
X154900499Y-89721153D01*
X154869738Y-89566510D01*
X154869737Y-89566503D01*
X154869735Y-89566498D01*
X154809397Y-89420827D01*
X154809390Y-89420814D01*
X154721789Y-89289711D01*
X154721786Y-89289707D01*
X154610292Y-89178213D01*
X154610288Y-89178210D01*
X154479185Y-89090609D01*
X154479172Y-89090602D01*
X154333501Y-89030264D01*
X154333489Y-89030261D01*
X154178845Y-88999500D01*
X154178842Y-88999500D01*
X154021158Y-88999500D01*
X154021155Y-88999500D01*
X153866510Y-89030261D01*
X153866498Y-89030264D01*
X153720827Y-89090602D01*
X153720814Y-89090609D01*
X153589711Y-89178210D01*
X153589707Y-89178213D01*
X153478213Y-89289707D01*
X153478210Y-89289711D01*
X153390609Y-89420814D01*
X153390602Y-89420827D01*
X153330264Y-89566498D01*
X153330261Y-89566510D01*
X153299500Y-89721153D01*
X136500500Y-89721153D01*
X136500500Y-87302706D01*
X136500618Y-87297297D01*
X136509891Y-87084906D01*
X136518528Y-86887080D01*
X136519468Y-86876347D01*
X136572709Y-86471938D01*
X136574582Y-86461308D01*
X136662870Y-86063068D01*
X136665668Y-86052630D01*
X136788316Y-85663639D01*
X136792016Y-85653473D01*
X136893711Y-85407961D01*
X136948111Y-85276627D01*
X136952669Y-85266853D01*
X137141025Y-84905024D01*
X137146407Y-84895703D01*
X137365574Y-84551680D01*
X137371765Y-84542837D01*
X137620083Y-84219224D01*
X137627021Y-84210955D01*
X137902594Y-83910220D01*
X137910220Y-83902594D01*
X138210955Y-83627021D01*
X138219224Y-83620083D01*
X138542837Y-83371765D01*
X138551680Y-83365574D01*
X138895703Y-83146407D01*
X138905024Y-83141025D01*
X139266853Y-82952669D01*
X139276627Y-82948111D01*
X139653482Y-82792012D01*
X139663629Y-82788319D01*
X140052639Y-82665665D01*
X140063068Y-82662870D01*
X140461308Y-82574582D01*
X140471938Y-82572709D01*
X140876347Y-82519468D01*
X140887080Y-82518528D01*
X141297297Y-82500617D01*
X141302706Y-82500500D01*
X141339882Y-82500500D01*
X171260117Y-82500500D01*
X171297293Y-82500500D01*
X171302701Y-82500618D01*
G37*
%TD.AperFunction*%
%TD*%
M02*
