M48
; DRILL file KiCad 10.0.0 date 2026-09-07T00:58:58
; FORMAT={-:-/ absolute / metric / decimal}
; #@! TF.CreationDate,2026-09-07T00:58:58-05:00
; #@! TF.GenerationSoftware,Kicad,Pcbnew,10.0.0
; #@! TF.FileFunction,Plated,1,4,PTH
FMAT,2
METRIC
; #@! TA.AperFunction,Plated,PTH,ViaDrill
T1C0.250
; #@! TA.AperFunction,Plated,PTH,ViaDrill
T2C0.300
; #@! TA.AperFunction,Plated,PTH,ComponentDrill
T3C3.200
%
G90
G05
T1
X147.668Y-117.319
X148.7Y-117.2
X148.75Y-109.55
X149.5Y-117.2
X150.4Y-117.1
X150.504Y-103.425
X150.57Y-95.91
X151.911Y-117.309
X152.8Y-97.2
X154.1Y-89.8
X154.675Y-97.2
X155.7Y-97.1
X155.784Y-96.081
X156.2Y-99.8
X157.675Y-96.9
X157.7Y-96.1
X158.2Y-99.8
X158.2Y-101.4
X158.587Y-92.375
X158.6Y-93.125
X159.3Y-103.4
X159.3Y-104.15
X159.626Y-110.742
X160.2Y-111.3
X161.0Y-110.2
X161.8Y-111.3
X162.0Y-103.2
X162.0Y-105.4
X162.347Y-110.716
X162.8Y-103.1
X162.8Y-107.35
X163.2Y-99.3
X163.3Y-100.1
X163.3Y-102.3
X163.4Y-101.4
X163.4Y-106.9
X164.1Y-106.2
X164.15Y-105.0
X164.2Y-97.6
X164.2Y-98.55
X164.2Y-99.3
X164.318Y-100.041
X164.6Y-104.4
X164.6Y-105.6
X164.9Y-100.625
X165.8Y-96.2
X165.9Y-101.525
X166.0Y-103.3
X166.5Y-96.8
X167.3Y-97.0
X167.3Y-103.0
X168.0Y-104.4
X168.0Y-105.6
X168.3Y-98.625
X168.3Y-99.725
X169.0Y-97.0
X171.4Y-93.6
X171.4Y-101.45
X174.8Y-98.25
X174.8Y-101.45
T2
X138.5Y-105.7
X139.4Y-105.7
X139.9Y-108.6
X140.2Y-91.8
X142.1Y-97.3
X143.0Y-95.8
X143.0Y-96.8
X143.0Y-97.9
X143.7Y-108.6
X144.2Y-105.6
X144.3Y-97.9
X144.5Y-113.0
X144.8Y-115.0
X146.8Y-82.9
X146.8Y-84.4
X146.8Y-85.9
X146.8Y-87.4
X146.8Y-88.9
X146.8Y-90.4
X146.8Y-91.9
X146.8Y-93.4
X147.3Y-113.165
X148.5Y-83.7
X148.5Y-85.2
X148.5Y-86.7
X148.5Y-88.2
X148.5Y-89.7
X148.5Y-91.2
X148.5Y-92.7
X148.7Y-99.3
X149.8Y-113.165
X150.2Y-82.85
X150.2Y-84.4
X150.2Y-85.9
X150.2Y-87.4
X150.2Y-88.9
X150.2Y-90.4
X150.2Y-91.9
X150.5Y-105.6
X150.5Y-106.5
X150.7Y-102.1
X150.707Y-100.45
X150.8Y-97.2
X151.1Y-93.4
X151.1Y-94.7
X151.1Y-113.165
X151.3Y-111.2
X151.4Y-82.9
X151.4Y-83.7
X151.4Y-84.6
X151.4Y-85.4
X151.4Y-86.2
X151.4Y-87.0
X151.8Y-97.2
X151.8Y-103.4
X152.2Y-87.0
X152.2Y-88.2
X152.4Y-111.2
X152.4Y-113.165
X152.8Y-103.4
X152.9Y-84.2
X153.0Y-87.0
X153.0Y-87.8
X153.0Y-88.6
X153.8Y-87.0
X153.8Y-88.2
X153.8Y-103.4
X154.6Y-87.0
X154.6Y-87.8
X154.6Y-88.6
X154.8Y-99.8
X157.2Y-99.8
X157.2Y-101.4
X157.4Y-87.0
X157.8Y-112.2
X157.943Y-108.599
X158.2Y-87.0
X158.3Y-84.2
X159.0Y-87.0
X159.2Y-100.4
X159.3Y-109.8
X159.8Y-82.9
X159.8Y-83.7
X159.8Y-84.6
X159.8Y-85.4
X159.8Y-86.2
X159.8Y-87.0
X159.8Y-87.8
X159.8Y-88.6
X159.8Y-113.1
X160.2Y-97.6
X161.0Y-87.4
X161.025Y-82.9
X161.025Y-84.4
X161.025Y-85.9
X161.9Y-100.9
X162.3Y-82.9
X162.3Y-84.4
X162.3Y-85.9
X162.325Y-87.4
X163.6Y-111.8
X164.0Y-83.7
X164.0Y-85.2
X164.0Y-86.7
X164.0Y-88.2
X164.0Y-89.7
X164.0Y-91.2
X164.0Y-92.7
X164.3Y-111.3
X164.3Y-112.4
X165.7Y-82.9
X165.7Y-84.4
X165.7Y-85.9
X165.7Y-87.4
X165.7Y-88.9
X165.7Y-90.4
X165.7Y-91.9
X168.1Y-108.8
X168.1Y-112.3
X170.6Y-106.1
X171.2Y-105.2
X171.2Y-107.0
X171.3Y-92.0
X171.3Y-95.1
X171.3Y-98.2
X171.8Y-106.1
X171.8Y-112.0
X172.4Y-105.2
X172.4Y-107.0
X173.0Y-106.1
X173.6Y-105.2
X173.6Y-107.0
X173.9Y-91.0
X174.2Y-106.1
X174.8Y-105.2
X174.8Y-107.0
X174.9Y-95.1
X175.4Y-106.1
T3
X141.3Y-87.3
X141.3Y-117.3
X171.3Y-87.3
X171.3Y-117.3
M30
