%TF.GenerationSoftware,KiCad,Pcbnew,10.0.0*%
%TF.CreationDate,2026-09-07T00:58:55-05:00*%
%TF.ProjectId,no_fly_zone,6e6f5f66-6c79-45f7-9a6f-6e652e6b6963,rev?*%
%TF.SameCoordinates,Original*%
%TF.FileFunction,Paste,Bot*%
%TF.FilePolarity,Positive*%
%FSLAX46Y46*%
G04 Gerber Fmt 4.6, Leading zero omitted, Abs format (unit mm)*
G04 Created by KiCad (PCBNEW 10.0.0) date 2026-09-07 00:58:55*
%MOMM*%
%LPD*%
G01*
G04 APERTURE LIST*
G04 Aperture macros list*
%AMRoundRect*
0 Rectangle with rounded corners*
0 $1 Rounding radius*
0 $2 $3 $4 $5 $6 $7 $8 $9 X,Y pos of 4 corners*
0 Add a 4 corners polygon primitive as box body*
4,1,4,$2,$3,$4,$5,$6,$7,$8,$9,$2,$3,0*
0 Add four circle primitives for the rounded corners*
1,1,$1+$1,$2,$3*
1,1,$1+$1,$4,$5*
1,1,$1+$1,$6,$7*
1,1,$1+$1,$8,$9*
0 Add four rect primitives between the rounded corners*
20,1,$1+$1,$2,$3,$4,$5,0*
20,1,$1+$1,$4,$5,$6,$7,0*
20,1,$1+$1,$6,$7,$8,$9,0*
20,1,$1+$1,$8,$9,$2,$3,0*%
G04 Aperture macros list end*
%ADD10RoundRect,0.250000X-0.475000X0.250000X-0.475000X-0.250000X0.475000X-0.250000X0.475000X0.250000X0*%
%ADD11R,1.500000X3.500000*%
%ADD12RoundRect,0.250000X-0.450000X0.262500X-0.450000X-0.262500X0.450000X-0.262500X0.450000X0.262500X0*%
%ADD13RoundRect,0.225000X-0.250000X0.225000X-0.250000X-0.225000X0.250000X-0.225000X0.250000X0.225000X0*%
%ADD14RoundRect,0.250000X-0.262500X-0.450000X0.262500X-0.450000X0.262500X0.450000X-0.262500X0.450000X0*%
%ADD15RoundRect,0.225000X0.250000X-0.225000X0.250000X0.225000X-0.250000X0.225000X-0.250000X-0.225000X0*%
%ADD16RoundRect,0.225000X0.225000X0.250000X-0.225000X0.250000X-0.225000X-0.250000X0.225000X-0.250000X0*%
%ADD17RoundRect,0.200000X-0.275000X0.200000X-0.275000X-0.200000X0.275000X-0.200000X0.275000X0.200000X0*%
%ADD18RoundRect,0.218750X-0.218750X-0.381250X0.218750X-0.381250X0.218750X0.381250X-0.218750X0.381250X0*%
%ADD19RoundRect,0.150000X0.512500X0.150000X-0.512500X0.150000X-0.512500X-0.150000X0.512500X-0.150000X0*%
%ADD20RoundRect,0.200000X0.275000X-0.200000X0.275000X0.200000X-0.275000X0.200000X-0.275000X-0.200000X0*%
%ADD21R,0.800000X1.000000*%
%ADD22R,1.500000X0.700000*%
%ADD23RoundRect,0.062500X-0.117500X-0.062500X0.117500X-0.062500X0.117500X0.062500X-0.117500X0.062500X0*%
%ADD24RoundRect,0.150000X-0.512500X-0.150000X0.512500X-0.150000X0.512500X0.150000X-0.512500X0.150000X0*%
G04 APERTURE END LIST*
D10*
%TO.C,C20*%
X145120000Y-102640000D03*
X145120000Y-104540000D03*
%TD*%
D11*
%TO.C,J4*%
X158300000Y-84300000D03*
X152900000Y-84300000D03*
%TD*%
D12*
%TO.C,R6*%
X147250000Y-102687500D03*
X147250000Y-104512500D03*
%TD*%
D13*
%TO.C,C9*%
X168100000Y-109750000D03*
X168100000Y-111300000D03*
%TD*%
D14*
%TO.C,R9*%
X139775000Y-111900000D03*
X141600000Y-111900000D03*
%TD*%
D13*
%TO.C,C4*%
X149500000Y-100525000D03*
X149500000Y-102075000D03*
%TD*%
%TO.C,C17*%
X138700000Y-106825000D03*
X138700000Y-108375000D03*
%TD*%
%TO.C,C18*%
X141700000Y-94225000D03*
X141700000Y-95775000D03*
%TD*%
D15*
%TO.C,C3*%
X159200000Y-99175000D03*
X159200000Y-97625000D03*
%TD*%
D13*
%TO.C,C1*%
X153600000Y-100525000D03*
X153600000Y-102075000D03*
%TD*%
%TO.C,C19*%
X148700000Y-96800000D03*
X148700000Y-98350000D03*
%TD*%
D15*
%TO.C,C8*%
X151900000Y-106400000D03*
X151900000Y-104850000D03*
%TD*%
D16*
%TO.C,C16*%
X142700000Y-102900000D03*
X141150000Y-102900000D03*
%TD*%
%TO.C,C2*%
X152575000Y-110100000D03*
X151025000Y-110100000D03*
%TD*%
D13*
%TO.C,C6*%
X151900000Y-100500000D03*
X151900000Y-102050000D03*
%TD*%
D15*
%TO.C,C12*%
X157900000Y-111175000D03*
X157900000Y-109625000D03*
%TD*%
D17*
%TO.C,R7*%
X170200000Y-91925000D03*
X170200000Y-93575000D03*
%TD*%
D18*
%TO.C,L1*%
X140925000Y-101012500D03*
X143050000Y-101012500D03*
%TD*%
D19*
%TO.C,U4*%
X143025000Y-104750000D03*
X143025000Y-105700000D03*
X143025000Y-106650000D03*
X140750000Y-106650000D03*
X140750000Y-105700000D03*
X140750000Y-104750000D03*
%TD*%
D15*
%TO.C,C7*%
X153600000Y-106400000D03*
X153600000Y-104850000D03*
%TD*%
D16*
%TO.C,C5*%
X159250000Y-107500000D03*
X157700000Y-107500000D03*
%TD*%
D20*
%TO.C,R4*%
X170200000Y-99850000D03*
X170200000Y-98200000D03*
%TD*%
D14*
%TO.C,R10*%
X143400000Y-111900000D03*
X145225000Y-111900000D03*
%TD*%
D21*
%TO.C,SW2*%
X136945000Y-98650000D03*
X139155000Y-98650000D03*
X136945000Y-91350000D03*
X139155000Y-91350000D03*
D22*
X139805000Y-97250000D03*
X139805000Y-94250000D03*
X139805000Y-92750000D03*
%TD*%
D12*
%TO.C,R8*%
X145300000Y-106800000D03*
X145300000Y-108625000D03*
%TD*%
D23*
%TO.C,D6*%
X161700000Y-113100000D03*
X160860000Y-113100000D03*
%TD*%
D17*
%TO.C,R5*%
X170200000Y-101400000D03*
X170200000Y-103050000D03*
%TD*%
D20*
%TO.C,R3*%
X170200000Y-96675000D03*
X170200000Y-95025000D03*
%TD*%
D24*
%TO.C,U5*%
X144525000Y-96749999D03*
X144525000Y-95800000D03*
X144525000Y-94850001D03*
X146800000Y-94850001D03*
X146800000Y-96749999D03*
%TD*%
M02*
