%TF.GenerationSoftware,KiCad,Pcbnew,10.0.0*%
%TF.CreationDate,2026-09-07T00:58:55-05:00*%
%TF.ProjectId,no_fly_zone,6e6f5f66-6c79-45f7-9a6f-6e652e6b6963,rev?*%
%TF.SameCoordinates,Original*%
%TF.FileFunction,Legend,Top*%
%TF.FilePolarity,Positive*%
%FSLAX46Y46*%
G04 Gerber Fmt 4.6, Leading zero omitted, Abs format (unit mm)*
G04 Created by KiCad (PCBNEW 10.0.0) date 2026-09-07 00:58:55*
%MOMM*%
%LPD*%
G01*
G04 APERTURE LIST*
%ADD10C,0.150000*%
%ADD11C,0.200000*%
%ADD12C,0.298607*%
%ADD13C,0.120000*%
%ADD14C,0.127000*%
%ADD15C,0.100000*%
G04 APERTURE END LIST*
D10*
X137200000Y-93200000D02*
X136800000Y-93200000D01*
X137000000Y-92900000D01*
X137200000Y-93200000D01*
G36*
X137200000Y-93200000D02*
G01*
X136800000Y-93200000D01*
X137000000Y-92900000D01*
X137200000Y-93200000D01*
G37*
X137000000Y-94100000D02*
X136800000Y-93800000D01*
X137200000Y-93800000D01*
X137000000Y-94100000D01*
G36*
X137000000Y-94100000D02*
G01*
X136800000Y-93800000D01*
X137200000Y-93800000D01*
X137000000Y-94100000D01*
G37*
D11*
X144552972Y-93987202D02*
X142952972Y-93487202D01*
X144552972Y-92887202D01*
X144552972Y-93987202D01*
G36*
X144552972Y-93987202D02*
G01*
X142952972Y-93487202D01*
X144552972Y-92887202D01*
X144552972Y-93987202D01*
G37*
D10*
X137000000Y-93000000D02*
X137000000Y-94100000D01*
D12*
X143249303Y-104700000D02*
G75*
G02*
X142950697Y-104700000I-149303J0D01*
G01*
X142950697Y-104700000D02*
G75*
G02*
X143249303Y-104700000I149303J0D01*
G01*
D10*
X142170112Y-92046009D02*
X141836779Y-92046009D01*
X141836779Y-92569819D02*
X141836779Y-91569819D01*
X141836779Y-91569819D02*
X142312969Y-91569819D01*
X143265350Y-92569819D02*
X142932017Y-92093628D01*
X142693922Y-92569819D02*
X142693922Y-91569819D01*
X142693922Y-91569819D02*
X143074874Y-91569819D01*
X143074874Y-91569819D02*
X143170112Y-91617438D01*
X143170112Y-91617438D02*
X143217731Y-91665057D01*
X143217731Y-91665057D02*
X143265350Y-91760295D01*
X143265350Y-91760295D02*
X143265350Y-91903152D01*
X143265350Y-91903152D02*
X143217731Y-91998390D01*
X143217731Y-91998390D02*
X143170112Y-92046009D01*
X143170112Y-92046009D02*
X143074874Y-92093628D01*
X143074874Y-92093628D02*
X142693922Y-92093628D01*
X143884398Y-91569819D02*
X144074874Y-91569819D01*
X144074874Y-91569819D02*
X144170112Y-91617438D01*
X144170112Y-91617438D02*
X144265350Y-91712676D01*
X144265350Y-91712676D02*
X144312969Y-91903152D01*
X144312969Y-91903152D02*
X144312969Y-92236485D01*
X144312969Y-92236485D02*
X144265350Y-92426961D01*
X144265350Y-92426961D02*
X144170112Y-92522200D01*
X144170112Y-92522200D02*
X144074874Y-92569819D01*
X144074874Y-92569819D02*
X143884398Y-92569819D01*
X143884398Y-92569819D02*
X143789160Y-92522200D01*
X143789160Y-92522200D02*
X143693922Y-92426961D01*
X143693922Y-92426961D02*
X143646303Y-92236485D01*
X143646303Y-92236485D02*
X143646303Y-91903152D01*
X143646303Y-91903152D02*
X143693922Y-91712676D01*
X143693922Y-91712676D02*
X143789160Y-91617438D01*
X143789160Y-91617438D02*
X143884398Y-91569819D01*
X144741541Y-92569819D02*
X144741541Y-91569819D01*
X144741541Y-91569819D02*
X145312969Y-92569819D01*
X145312969Y-92569819D02*
X145312969Y-91569819D01*
X145646303Y-91569819D02*
X146217731Y-91569819D01*
X145932017Y-92569819D02*
X145932017Y-91569819D01*
G36*
X152641826Y-112855930D02*
G01*
X147603049Y-112855930D01*
X147603049Y-111860295D01*
X147714160Y-111860295D01*
X147714160Y-111955533D01*
X147715601Y-111970165D01*
X147716632Y-111972654D01*
X147716823Y-111975342D01*
X147722078Y-111989074D01*
X147769697Y-112084312D01*
X147773661Y-112090611D01*
X147774419Y-112092439D01*
X147776107Y-112094495D01*
X147777529Y-112096755D01*
X147779027Y-112098054D01*
X147783746Y-112103804D01*
X147831365Y-112151423D01*
X147837114Y-112156141D01*
X147838414Y-112157640D01*
X147840673Y-112159061D01*
X147842730Y-112160750D01*
X147844557Y-112161507D01*
X147850857Y-112165472D01*
X147946095Y-112213091D01*
X147947164Y-112213500D01*
X147947600Y-112213823D01*
X147953736Y-112216015D01*
X147959826Y-112218346D01*
X147960366Y-112218384D01*
X147961446Y-112218770D01*
X148143936Y-112264392D01*
X148220923Y-112302886D01*
X148251330Y-112333293D01*
X148285588Y-112401809D01*
X148285588Y-112461637D01*
X148251329Y-112530153D01*
X148220922Y-112560561D01*
X148152407Y-112594819D01*
X147944187Y-112594819D01*
X147812877Y-112551049D01*
X147798540Y-112547789D01*
X147769350Y-112549864D01*
X147743177Y-112562950D01*
X147724003Y-112585057D01*
X147714749Y-112612820D01*
X147716824Y-112642010D01*
X147729910Y-112668183D01*
X147752017Y-112687357D01*
X147765443Y-112693351D01*
X147908299Y-112740970D01*
X147915554Y-112742619D01*
X147917385Y-112743378D01*
X147920038Y-112743639D01*
X147922636Y-112744230D01*
X147924610Y-112744089D01*
X147932017Y-112744819D01*
X148170112Y-112744819D01*
X148184744Y-112743378D01*
X148187233Y-112742346D01*
X148189921Y-112742156D01*
X148203653Y-112736901D01*
X148298891Y-112689282D01*
X148305190Y-112685317D01*
X148307018Y-112684560D01*
X148309074Y-112682872D01*
X148311334Y-112681450D01*
X148312634Y-112679950D01*
X148318384Y-112675232D01*
X148366002Y-112627613D01*
X148370720Y-112621863D01*
X148372219Y-112620564D01*
X148373640Y-112618305D01*
X148375330Y-112616247D01*
X148376087Y-112614417D01*
X148380051Y-112608121D01*
X148427670Y-112512883D01*
X148432925Y-112499152D01*
X148433116Y-112496462D01*
X148434147Y-112493974D01*
X148435588Y-112479342D01*
X148435588Y-112384104D01*
X148434147Y-112369472D01*
X148433116Y-112366983D01*
X148432925Y-112364294D01*
X148427670Y-112350563D01*
X148380051Y-112255325D01*
X148376086Y-112249025D01*
X148375329Y-112247198D01*
X148373640Y-112245141D01*
X148372219Y-112242882D01*
X148370720Y-112241582D01*
X148366002Y-112235833D01*
X148318383Y-112188214D01*
X148312633Y-112183495D01*
X148311334Y-112181997D01*
X148309074Y-112180575D01*
X148307018Y-112178887D01*
X148305190Y-112178129D01*
X148298891Y-112174165D01*
X148203653Y-112126546D01*
X148202583Y-112126136D01*
X148202148Y-112125814D01*
X148196002Y-112123618D01*
X148189921Y-112121291D01*
X148189381Y-112121252D01*
X148188302Y-112120867D01*
X148005812Y-112075244D01*
X147928825Y-112036751D01*
X147898418Y-112006344D01*
X147864160Y-111937828D01*
X147864160Y-111878000D01*
X147898418Y-111809484D01*
X147928825Y-111779077D01*
X147997341Y-111744819D01*
X148205561Y-111744819D01*
X148336870Y-111788589D01*
X148351207Y-111791849D01*
X148380397Y-111789774D01*
X148406571Y-111776688D01*
X148425745Y-111754580D01*
X148434999Y-111726818D01*
X148432924Y-111697628D01*
X148419837Y-111671455D01*
X148401081Y-111655187D01*
X148572744Y-111655187D01*
X148572744Y-111684451D01*
X148583943Y-111711487D01*
X148604635Y-111732179D01*
X148631671Y-111743378D01*
X148646303Y-111744819D01*
X148857017Y-111744819D01*
X148857017Y-112669819D01*
X148858458Y-112684451D01*
X148869657Y-112711487D01*
X148890349Y-112732179D01*
X148917385Y-112743378D01*
X148946649Y-112743378D01*
X148973685Y-112732179D01*
X148994377Y-112711487D01*
X149005576Y-112684451D01*
X149007017Y-112669819D01*
X149007017Y-111744819D01*
X149217731Y-111744819D01*
X149232363Y-111743378D01*
X149259399Y-111732179D01*
X149280091Y-111711487D01*
X149291290Y-111684451D01*
X149291290Y-111669819D01*
X149476065Y-111669819D01*
X149476065Y-112669819D01*
X149477506Y-112684451D01*
X149488705Y-112711487D01*
X149509397Y-112732179D01*
X149536433Y-112743378D01*
X149551065Y-112744819D01*
X150027255Y-112744819D01*
X150041887Y-112743378D01*
X150068923Y-112732179D01*
X150089615Y-112711487D01*
X150100814Y-112684451D01*
X150100814Y-112655187D01*
X150089615Y-112628151D01*
X150068923Y-112607459D01*
X150041887Y-112596260D01*
X150027255Y-112594819D01*
X149626065Y-112594819D01*
X149626065Y-111669819D01*
X150285589Y-111669819D01*
X150285589Y-112669819D01*
X150287030Y-112684451D01*
X150298229Y-112711487D01*
X150318921Y-112732179D01*
X150345957Y-112743378D01*
X150375221Y-112743378D01*
X150402257Y-112732179D01*
X150422949Y-112711487D01*
X150434148Y-112684451D01*
X150435589Y-112669819D01*
X150435589Y-111669819D01*
X150761779Y-111669819D01*
X150761779Y-112669819D01*
X150763220Y-112684451D01*
X150774419Y-112711487D01*
X150795111Y-112732179D01*
X150822147Y-112743378D01*
X150851411Y-112743378D01*
X150878447Y-112732179D01*
X150899139Y-112711487D01*
X150910338Y-112684451D01*
X150911779Y-112669819D01*
X150911779Y-111952235D01*
X151343089Y-112707030D01*
X151345278Y-112710114D01*
X151345847Y-112711487D01*
X151347244Y-112712884D01*
X151351599Y-112719019D01*
X151359487Y-112725127D01*
X151366539Y-112732179D01*
X151370957Y-112734009D01*
X151374737Y-112736936D01*
X151384358Y-112739560D01*
X151393575Y-112743378D01*
X151398356Y-112743378D01*
X151402968Y-112744636D01*
X151412865Y-112743378D01*
X151422839Y-112743378D01*
X151427254Y-112741548D01*
X151431998Y-112740946D01*
X151440662Y-112735995D01*
X151449875Y-112732179D01*
X151453253Y-112728800D01*
X151457407Y-112726427D01*
X151463516Y-112718537D01*
X151470567Y-112711487D01*
X151472396Y-112707070D01*
X151475324Y-112703290D01*
X151477948Y-112693666D01*
X151481766Y-112684451D01*
X151482502Y-112676968D01*
X151483024Y-112675058D01*
X151482836Y-112673582D01*
X151483207Y-112669819D01*
X151483207Y-111669819D01*
X151809398Y-111669819D01*
X151809398Y-112669819D01*
X151810839Y-112684451D01*
X151822038Y-112711487D01*
X151842730Y-112732179D01*
X151869766Y-112743378D01*
X151899030Y-112743378D01*
X151926066Y-112732179D01*
X151946758Y-112711487D01*
X151957957Y-112684451D01*
X151959398Y-112669819D01*
X151959398Y-112272313D01*
X152019140Y-112212570D01*
X152395826Y-112714819D01*
X152405758Y-112725660D01*
X152430939Y-112740570D01*
X152459908Y-112744708D01*
X152488256Y-112737446D01*
X152511667Y-112719887D01*
X152526576Y-112694706D01*
X152530715Y-112665738D01*
X152523453Y-112637389D01*
X152515826Y-112624819D01*
X152126283Y-112105427D01*
X152508859Y-111722852D01*
X152518186Y-111711487D01*
X152529385Y-111684451D01*
X152529385Y-111655188D01*
X152518186Y-111628151D01*
X152497494Y-111607459D01*
X152470457Y-111596260D01*
X152441194Y-111596260D01*
X152414158Y-111607459D01*
X152402793Y-111616786D01*
X151959398Y-112060181D01*
X151959398Y-111669819D01*
X151957957Y-111655187D01*
X151946758Y-111628151D01*
X151926066Y-111607459D01*
X151899030Y-111596260D01*
X151869766Y-111596260D01*
X151842730Y-111607459D01*
X151822038Y-111628151D01*
X151810839Y-111655187D01*
X151809398Y-111669819D01*
X151483207Y-111669819D01*
X151481766Y-111655187D01*
X151470567Y-111628151D01*
X151449875Y-111607459D01*
X151422839Y-111596260D01*
X151393575Y-111596260D01*
X151366539Y-111607459D01*
X151345847Y-111628151D01*
X151334648Y-111655187D01*
X151333207Y-111669819D01*
X151333207Y-112387402D01*
X150901897Y-111632609D01*
X150899708Y-111629525D01*
X150899139Y-111628151D01*
X150897739Y-111626751D01*
X150893387Y-111620619D01*
X150885497Y-111614509D01*
X150878447Y-111607459D01*
X150874030Y-111605629D01*
X150870250Y-111602702D01*
X150860626Y-111600077D01*
X150851411Y-111596260D01*
X150846630Y-111596260D01*
X150842018Y-111595002D01*
X150832121Y-111596260D01*
X150822147Y-111596260D01*
X150817731Y-111598089D01*
X150812988Y-111598692D01*
X150804323Y-111603642D01*
X150795111Y-111607459D01*
X150791732Y-111610837D01*
X150787579Y-111613211D01*
X150781469Y-111621100D01*
X150774419Y-111628151D01*
X150772589Y-111632567D01*
X150769662Y-111636348D01*
X150767037Y-111645971D01*
X150763220Y-111655187D01*
X150762483Y-111662669D01*
X150761962Y-111664580D01*
X150762149Y-111666055D01*
X150761779Y-111669819D01*
X150435589Y-111669819D01*
X150434148Y-111655187D01*
X150422949Y-111628151D01*
X150402257Y-111607459D01*
X150375221Y-111596260D01*
X150345957Y-111596260D01*
X150318921Y-111607459D01*
X150298229Y-111628151D01*
X150287030Y-111655187D01*
X150285589Y-111669819D01*
X149626065Y-111669819D01*
X149624624Y-111655187D01*
X149613425Y-111628151D01*
X149592733Y-111607459D01*
X149565697Y-111596260D01*
X149536433Y-111596260D01*
X149509397Y-111607459D01*
X149488705Y-111628151D01*
X149477506Y-111655187D01*
X149476065Y-111669819D01*
X149291290Y-111669819D01*
X149291290Y-111655187D01*
X149280091Y-111628151D01*
X149259399Y-111607459D01*
X149232363Y-111596260D01*
X149217731Y-111594819D01*
X148646303Y-111594819D01*
X148631671Y-111596260D01*
X148604635Y-111607459D01*
X148583943Y-111628151D01*
X148572744Y-111655187D01*
X148401081Y-111655187D01*
X148397730Y-111652281D01*
X148384305Y-111646287D01*
X148241448Y-111598668D01*
X148234194Y-111597018D01*
X148232363Y-111596260D01*
X148229708Y-111595998D01*
X148227111Y-111595408D01*
X148225136Y-111595548D01*
X148217731Y-111594819D01*
X147979636Y-111594819D01*
X147965004Y-111596260D01*
X147962515Y-111597290D01*
X147959826Y-111597482D01*
X147946095Y-111602737D01*
X147850857Y-111650356D01*
X147844557Y-111654320D01*
X147842730Y-111655078D01*
X147840673Y-111656766D01*
X147838414Y-111658188D01*
X147837114Y-111659686D01*
X147831365Y-111664405D01*
X147783746Y-111712024D01*
X147779027Y-111717773D01*
X147777529Y-111719073D01*
X147776107Y-111721332D01*
X147774419Y-111723389D01*
X147773661Y-111725216D01*
X147769697Y-111731516D01*
X147722078Y-111826754D01*
X147716823Y-111840486D01*
X147716632Y-111843173D01*
X147715601Y-111845663D01*
X147714160Y-111860295D01*
X147603049Y-111860295D01*
X147603049Y-111483708D01*
X152641826Y-111483708D01*
X152641826Y-112855930D01*
G37*
G36*
X174511399Y-93179077D02*
G01*
X174541806Y-93209484D01*
X174576064Y-93278000D01*
X174576064Y-93385447D01*
X174541806Y-93453963D01*
X174511399Y-93484370D01*
X174442883Y-93518628D01*
X174154636Y-93518628D01*
X174154636Y-93144819D01*
X174442883Y-93144819D01*
X174511399Y-93179077D01*
G37*
G36*
X172368542Y-93179077D02*
G01*
X172398949Y-93209484D01*
X172433207Y-93278000D01*
X172433207Y-93385447D01*
X172398949Y-93453963D01*
X172368542Y-93484370D01*
X172300026Y-93518628D01*
X172011779Y-93518628D01*
X172011779Y-93144819D01*
X172300026Y-93144819D01*
X172368542Y-93179077D01*
G37*
G36*
X174837175Y-94255913D02*
G01*
X171750668Y-94255913D01*
X171750668Y-93069819D01*
X171861779Y-93069819D01*
X171861779Y-94069819D01*
X171863220Y-94084451D01*
X171874419Y-94111487D01*
X171895111Y-94132179D01*
X171922147Y-94143378D01*
X171951411Y-94143378D01*
X171978447Y-94132179D01*
X171999139Y-94111487D01*
X172010338Y-94084451D01*
X172011779Y-94069819D01*
X172011779Y-93668628D01*
X172317731Y-93668628D01*
X172332363Y-93667187D01*
X172334852Y-93666155D01*
X172337540Y-93665965D01*
X172351272Y-93660710D01*
X172446510Y-93613091D01*
X172452809Y-93609126D01*
X172454637Y-93608369D01*
X172456693Y-93606680D01*
X172458953Y-93605259D01*
X172460252Y-93603760D01*
X172466002Y-93599042D01*
X172513621Y-93551423D01*
X172518339Y-93545673D01*
X172519838Y-93544374D01*
X172521259Y-93542114D01*
X172522948Y-93540058D01*
X172523705Y-93538230D01*
X172527670Y-93531931D01*
X172575289Y-93436693D01*
X172580544Y-93422962D01*
X172580735Y-93420272D01*
X172581766Y-93417784D01*
X172583207Y-93403152D01*
X172583207Y-93260295D01*
X172581766Y-93245663D01*
X172580735Y-93243174D01*
X172580544Y-93240485D01*
X172575289Y-93226754D01*
X172527670Y-93131516D01*
X172523705Y-93125216D01*
X172522948Y-93123389D01*
X172521259Y-93121332D01*
X172519838Y-93119073D01*
X172518339Y-93117773D01*
X172513621Y-93112024D01*
X172474220Y-93072623D01*
X172766593Y-93072623D01*
X172768581Y-93087191D01*
X173006676Y-94087191D01*
X173008405Y-94092210D01*
X173008645Y-94094012D01*
X173009587Y-94095640D01*
X173011466Y-94101091D01*
X173017852Y-94109915D01*
X173023307Y-94119337D01*
X173026364Y-94121677D01*
X173028623Y-94124798D01*
X173037898Y-94130505D01*
X173046545Y-94137124D01*
X173050265Y-94138116D01*
X173053545Y-94140134D01*
X173064299Y-94141858D01*
X173074821Y-94144664D01*
X173078636Y-94144157D01*
X173082440Y-94144767D01*
X173093038Y-94142243D01*
X173103829Y-94140810D01*
X173107160Y-94138881D01*
X173110908Y-94137989D01*
X173119732Y-94131602D01*
X173129154Y-94126148D01*
X173131494Y-94123090D01*
X173134615Y-94120832D01*
X173140322Y-94111556D01*
X173146941Y-94102910D01*
X173148966Y-94097510D01*
X173149951Y-94095910D01*
X173150238Y-94094118D01*
X173152104Y-94089144D01*
X173270111Y-93646613D01*
X173388120Y-94089144D01*
X173389985Y-94094119D01*
X173390273Y-94095910D01*
X173391257Y-94097509D01*
X173393283Y-94102911D01*
X173399903Y-94111559D01*
X173405609Y-94120832D01*
X173408729Y-94123090D01*
X173411070Y-94126148D01*
X173420491Y-94131602D01*
X173429316Y-94137989D01*
X173433063Y-94138881D01*
X173436395Y-94140810D01*
X173447188Y-94142244D01*
X173457784Y-94144767D01*
X173461585Y-94144157D01*
X173465404Y-94144665D01*
X173475935Y-94141856D01*
X173486679Y-94140134D01*
X173489955Y-94138118D01*
X173493679Y-94137125D01*
X173502329Y-94130503D01*
X173511601Y-94124798D01*
X173513859Y-94121677D01*
X173516917Y-94119337D01*
X173522372Y-94109914D01*
X173528758Y-94101091D01*
X173530635Y-94095642D01*
X173531579Y-94094013D01*
X173531818Y-94092209D01*
X173533548Y-94087191D01*
X173771644Y-93087191D01*
X173773632Y-93072623D01*
X173773182Y-93069819D01*
X174004636Y-93069819D01*
X174004636Y-94069819D01*
X174006077Y-94084451D01*
X174017276Y-94111487D01*
X174037968Y-94132179D01*
X174065004Y-94143378D01*
X174094268Y-94143378D01*
X174121304Y-94132179D01*
X174141996Y-94111487D01*
X174153195Y-94084451D01*
X174154636Y-94069819D01*
X174154636Y-93668628D01*
X174278682Y-93668628D01*
X174589622Y-94112829D01*
X174599193Y-94123989D01*
X174623872Y-94139716D01*
X174652689Y-94144802D01*
X174681260Y-94138472D01*
X174705234Y-94121690D01*
X174720961Y-94097012D01*
X174726046Y-94068194D01*
X174719717Y-94039623D01*
X174712507Y-94026810D01*
X174461703Y-93668518D01*
X174475220Y-93667187D01*
X174477709Y-93666155D01*
X174480397Y-93665965D01*
X174494129Y-93660710D01*
X174589367Y-93613091D01*
X174595666Y-93609126D01*
X174597494Y-93608369D01*
X174599550Y-93606680D01*
X174601810Y-93605259D01*
X174603109Y-93603760D01*
X174608859Y-93599042D01*
X174656478Y-93551423D01*
X174661196Y-93545673D01*
X174662695Y-93544374D01*
X174664116Y-93542114D01*
X174665805Y-93540058D01*
X174666562Y-93538230D01*
X174670527Y-93531931D01*
X174718146Y-93436693D01*
X174723401Y-93422962D01*
X174723592Y-93420272D01*
X174724623Y-93417784D01*
X174726064Y-93403152D01*
X174726064Y-93260295D01*
X174724623Y-93245663D01*
X174723592Y-93243174D01*
X174723401Y-93240485D01*
X174718146Y-93226754D01*
X174670527Y-93131516D01*
X174666562Y-93125216D01*
X174665805Y-93123389D01*
X174664116Y-93121332D01*
X174662695Y-93119073D01*
X174661196Y-93117773D01*
X174656478Y-93112024D01*
X174608859Y-93064405D01*
X174603109Y-93059686D01*
X174601810Y-93058188D01*
X174599550Y-93056766D01*
X174597494Y-93055078D01*
X174595666Y-93054320D01*
X174589367Y-93050356D01*
X174494129Y-93002737D01*
X174480397Y-92997482D01*
X174477709Y-92997291D01*
X174475220Y-92996260D01*
X174460588Y-92994819D01*
X174079636Y-92994819D01*
X174065004Y-92996260D01*
X174037968Y-93007459D01*
X174017276Y-93028151D01*
X174006077Y-93055187D01*
X174004636Y-93069819D01*
X173773182Y-93069819D01*
X173768999Y-93043728D01*
X173753663Y-93018806D01*
X173729956Y-93001650D01*
X173701488Y-92994871D01*
X173672593Y-92999504D01*
X173647671Y-93014840D01*
X173630514Y-93038547D01*
X173625724Y-93052448D01*
X173456471Y-93763303D01*
X173342580Y-93336208D01*
X173341294Y-93332780D01*
X173341103Y-93331339D01*
X173340111Y-93329626D01*
X173337417Y-93322442D01*
X173331402Y-93314583D01*
X173326441Y-93306015D01*
X173322582Y-93303061D01*
X173319630Y-93299204D01*
X173311065Y-93294245D01*
X173303203Y-93288227D01*
X173298506Y-93286974D01*
X173294305Y-93284542D01*
X173284498Y-93283239D01*
X173274928Y-93280687D01*
X173270109Y-93281327D01*
X173265297Y-93280688D01*
X173255736Y-93283237D01*
X173245919Y-93284542D01*
X173241713Y-93286976D01*
X173237021Y-93288228D01*
X173229161Y-93294243D01*
X173220594Y-93299204D01*
X173217640Y-93303062D01*
X173213783Y-93306015D01*
X173208824Y-93314580D01*
X173202807Y-93322441D01*
X173200110Y-93329630D01*
X173199121Y-93331340D01*
X173198929Y-93332779D01*
X173197644Y-93336208D01*
X173083752Y-93763303D01*
X172914501Y-93052447D01*
X172909711Y-93038547D01*
X172892554Y-93014840D01*
X172867632Y-92999504D01*
X172838737Y-92994871D01*
X172810269Y-93001649D01*
X172786562Y-93018806D01*
X172771226Y-93043728D01*
X172766593Y-93072623D01*
X172474220Y-93072623D01*
X172466002Y-93064405D01*
X172460252Y-93059686D01*
X172458953Y-93058188D01*
X172456693Y-93056766D01*
X172454637Y-93055078D01*
X172452809Y-93054320D01*
X172446510Y-93050356D01*
X172351272Y-93002737D01*
X172337540Y-92997482D01*
X172334852Y-92997291D01*
X172332363Y-92996260D01*
X172317731Y-92994819D01*
X171936779Y-92994819D01*
X171922147Y-92996260D01*
X171895111Y-93007459D01*
X171874419Y-93028151D01*
X171863220Y-93055187D01*
X171861779Y-93069819D01*
X171750668Y-93069819D01*
X171750668Y-92883708D01*
X174837175Y-92883708D01*
X174837175Y-94255913D01*
G37*
G36*
X173975579Y-96809104D02*
G01*
X173707503Y-96809104D01*
X173841541Y-96406989D01*
X173975579Y-96809104D01*
G37*
G36*
X175978592Y-97355930D02*
G01*
X171703049Y-97355930D01*
X171703049Y-96360295D01*
X171814160Y-96360295D01*
X171814160Y-96455533D01*
X171815601Y-96470165D01*
X171816632Y-96472654D01*
X171816823Y-96475342D01*
X171822078Y-96489074D01*
X171869697Y-96584312D01*
X171873661Y-96590611D01*
X171874419Y-96592439D01*
X171876107Y-96594495D01*
X171877529Y-96596755D01*
X171879027Y-96598054D01*
X171883746Y-96603804D01*
X171931365Y-96651423D01*
X171937114Y-96656141D01*
X171938414Y-96657640D01*
X171940673Y-96659061D01*
X171942730Y-96660750D01*
X171944557Y-96661507D01*
X171950857Y-96665472D01*
X172046095Y-96713091D01*
X172047164Y-96713500D01*
X172047600Y-96713823D01*
X172053736Y-96716015D01*
X172059826Y-96718346D01*
X172060366Y-96718384D01*
X172061446Y-96718770D01*
X172243936Y-96764392D01*
X172320923Y-96802886D01*
X172351330Y-96833293D01*
X172385588Y-96901809D01*
X172385588Y-96961637D01*
X172351329Y-97030153D01*
X172320922Y-97060561D01*
X172252407Y-97094819D01*
X172044187Y-97094819D01*
X171912877Y-97051049D01*
X171898540Y-97047789D01*
X171869350Y-97049864D01*
X171843177Y-97062950D01*
X171824003Y-97085057D01*
X171814749Y-97112820D01*
X171816824Y-97142010D01*
X171829910Y-97168183D01*
X171852017Y-97187357D01*
X171865443Y-97193351D01*
X172008299Y-97240970D01*
X172015554Y-97242619D01*
X172017385Y-97243378D01*
X172020038Y-97243639D01*
X172022636Y-97244230D01*
X172024610Y-97244089D01*
X172032017Y-97244819D01*
X172270112Y-97244819D01*
X172284744Y-97243378D01*
X172287233Y-97242346D01*
X172289921Y-97242156D01*
X172303653Y-97236901D01*
X172398891Y-97189282D01*
X172405190Y-97185317D01*
X172407018Y-97184560D01*
X172409074Y-97182872D01*
X172411334Y-97181450D01*
X172412634Y-97179950D01*
X172418384Y-97175232D01*
X172466002Y-97127613D01*
X172470720Y-97121863D01*
X172472219Y-97120564D01*
X172473640Y-97118305D01*
X172475330Y-97116247D01*
X172476087Y-97114417D01*
X172480051Y-97108121D01*
X172527670Y-97012883D01*
X172532925Y-96999152D01*
X172533116Y-96996462D01*
X172534147Y-96993974D01*
X172535588Y-96979342D01*
X172535588Y-96884104D01*
X172534147Y-96869472D01*
X172533116Y-96866983D01*
X172532925Y-96864294D01*
X172527670Y-96850563D01*
X172480051Y-96755325D01*
X172476086Y-96749025D01*
X172475329Y-96747198D01*
X172473640Y-96745141D01*
X172472219Y-96742882D01*
X172470720Y-96741582D01*
X172466002Y-96735833D01*
X172418383Y-96688214D01*
X172412633Y-96683495D01*
X172411334Y-96681997D01*
X172409074Y-96680575D01*
X172407018Y-96678887D01*
X172405190Y-96678129D01*
X172398891Y-96674165D01*
X172303653Y-96626546D01*
X172302583Y-96626136D01*
X172302148Y-96625814D01*
X172296002Y-96623618D01*
X172289921Y-96621291D01*
X172289381Y-96621252D01*
X172288302Y-96620867D01*
X172105812Y-96575244D01*
X172028825Y-96536751D01*
X171998418Y-96506344D01*
X171964160Y-96437828D01*
X171964160Y-96378000D01*
X171998418Y-96309484D01*
X172028825Y-96279077D01*
X172097341Y-96244819D01*
X172305561Y-96244819D01*
X172436870Y-96288589D01*
X172451207Y-96291849D01*
X172480397Y-96289774D01*
X172506571Y-96276688D01*
X172525745Y-96254580D01*
X172534999Y-96226818D01*
X172532924Y-96197628D01*
X172519837Y-96171455D01*
X172501081Y-96155187D01*
X172672744Y-96155187D01*
X172672744Y-96184451D01*
X172683943Y-96211487D01*
X172704635Y-96232179D01*
X172731671Y-96243378D01*
X172746303Y-96244819D01*
X172957017Y-96244819D01*
X172957017Y-97169819D01*
X172958458Y-97184451D01*
X172969657Y-97211487D01*
X172990349Y-97232179D01*
X173017385Y-97243378D01*
X173046649Y-97243378D01*
X173073685Y-97232179D01*
X173094377Y-97211487D01*
X173105576Y-97184451D01*
X173107017Y-97169819D01*
X173107017Y-97160439D01*
X173433797Y-97160439D01*
X173435872Y-97189629D01*
X173448958Y-97215802D01*
X173471065Y-97234976D01*
X173498828Y-97244230D01*
X173528018Y-97242155D01*
X173554191Y-97229069D01*
X173573365Y-97206962D01*
X173579359Y-97193536D01*
X173657503Y-96959104D01*
X174025579Y-96959104D01*
X174103723Y-97193536D01*
X174109717Y-97206961D01*
X174128891Y-97229068D01*
X174155064Y-97242155D01*
X174184254Y-97244230D01*
X174212016Y-97234976D01*
X174234124Y-97215802D01*
X174247210Y-97189628D01*
X174249285Y-97160438D01*
X174246025Y-97146102D01*
X173915720Y-96155187D01*
X174291792Y-96155187D01*
X174291792Y-96184451D01*
X174302991Y-96211487D01*
X174323683Y-96232179D01*
X174350719Y-96243378D01*
X174365351Y-96244819D01*
X174576065Y-96244819D01*
X174576065Y-97169819D01*
X174577506Y-97184451D01*
X174588705Y-97211487D01*
X174609397Y-97232179D01*
X174636433Y-97243378D01*
X174665697Y-97243378D01*
X174692733Y-97232179D01*
X174713425Y-97211487D01*
X174724624Y-97184451D01*
X174726065Y-97169819D01*
X174726065Y-96446152D01*
X175148083Y-96446152D01*
X175150157Y-96475342D01*
X175163244Y-96501517D01*
X175185352Y-96520690D01*
X175213113Y-96529944D01*
X175242303Y-96527870D01*
X175256035Y-96522615D01*
X175351273Y-96474996D01*
X175357572Y-96471031D01*
X175359400Y-96470274D01*
X175361456Y-96468585D01*
X175363716Y-96467164D01*
X175365015Y-96465665D01*
X175370765Y-96460947D01*
X175433208Y-96398504D01*
X175433208Y-97094819D01*
X175222494Y-97094819D01*
X175207862Y-97096260D01*
X175180826Y-97107459D01*
X175160134Y-97128151D01*
X175148935Y-97155187D01*
X175148935Y-97184451D01*
X175160134Y-97211487D01*
X175180826Y-97232179D01*
X175207862Y-97243378D01*
X175222494Y-97244819D01*
X175793922Y-97244819D01*
X175808554Y-97243378D01*
X175835590Y-97232179D01*
X175856282Y-97211487D01*
X175867481Y-97184451D01*
X175867481Y-97155187D01*
X175856282Y-97128151D01*
X175835590Y-97107459D01*
X175808554Y-97096260D01*
X175793922Y-97094819D01*
X175583208Y-97094819D01*
X175583208Y-96169819D01*
X175583202Y-96169766D01*
X175583208Y-96169740D01*
X175583192Y-96169663D01*
X175581767Y-96155187D01*
X175578925Y-96148326D01*
X175577469Y-96141045D01*
X175573379Y-96134938D01*
X175570568Y-96128151D01*
X175565319Y-96122902D01*
X175561186Y-96116730D01*
X175555069Y-96112652D01*
X175549876Y-96107459D01*
X175543016Y-96104617D01*
X175536837Y-96100498D01*
X175529628Y-96099072D01*
X175522840Y-96096260D01*
X175515413Y-96096260D01*
X175508129Y-96094819D01*
X175500924Y-96096260D01*
X175493576Y-96096260D01*
X175486715Y-96099101D01*
X175479435Y-96100558D01*
X175473329Y-96104646D01*
X175466540Y-96107459D01*
X175461289Y-96112709D01*
X175455120Y-96116841D01*
X175445899Y-96128099D01*
X175445848Y-96128151D01*
X175445838Y-96128173D01*
X175445804Y-96128216D01*
X175354684Y-96264896D01*
X175273305Y-96346275D01*
X175188953Y-96388451D01*
X175176510Y-96396283D01*
X175157337Y-96418391D01*
X175148083Y-96446152D01*
X174726065Y-96446152D01*
X174726065Y-96244819D01*
X174936779Y-96244819D01*
X174951411Y-96243378D01*
X174978447Y-96232179D01*
X174999139Y-96211487D01*
X175010338Y-96184451D01*
X175010338Y-96155187D01*
X174999139Y-96128151D01*
X174978447Y-96107459D01*
X174951411Y-96096260D01*
X174936779Y-96094819D01*
X174365351Y-96094819D01*
X174350719Y-96096260D01*
X174323683Y-96107459D01*
X174302991Y-96128151D01*
X174291792Y-96155187D01*
X173915720Y-96155187D01*
X173912692Y-96146102D01*
X173906698Y-96132676D01*
X173903186Y-96128627D01*
X173900791Y-96123836D01*
X173893687Y-96117674D01*
X173887524Y-96110569D01*
X173882730Y-96108172D01*
X173878683Y-96104662D01*
X173869761Y-96101688D01*
X173861351Y-96097483D01*
X173856006Y-96097103D01*
X173850921Y-96095408D01*
X173841541Y-96096074D01*
X173832161Y-96095408D01*
X173827075Y-96097103D01*
X173821731Y-96097483D01*
X173813323Y-96101687D01*
X173804398Y-96104662D01*
X173800347Y-96108175D01*
X173795558Y-96110570D01*
X173789399Y-96117670D01*
X173782291Y-96123836D01*
X173779894Y-96128629D01*
X173776384Y-96132677D01*
X173770390Y-96146102D01*
X173437057Y-97146102D01*
X173433797Y-97160439D01*
X173107017Y-97160439D01*
X173107017Y-96244819D01*
X173317731Y-96244819D01*
X173332363Y-96243378D01*
X173359399Y-96232179D01*
X173380091Y-96211487D01*
X173391290Y-96184451D01*
X173391290Y-96155187D01*
X173380091Y-96128151D01*
X173359399Y-96107459D01*
X173332363Y-96096260D01*
X173317731Y-96094819D01*
X172746303Y-96094819D01*
X172731671Y-96096260D01*
X172704635Y-96107459D01*
X172683943Y-96128151D01*
X172672744Y-96155187D01*
X172501081Y-96155187D01*
X172497730Y-96152281D01*
X172484305Y-96146287D01*
X172341448Y-96098668D01*
X172334194Y-96097018D01*
X172332363Y-96096260D01*
X172329708Y-96095998D01*
X172327111Y-96095408D01*
X172325136Y-96095548D01*
X172317731Y-96094819D01*
X172079636Y-96094819D01*
X172065004Y-96096260D01*
X172062515Y-96097290D01*
X172059826Y-96097482D01*
X172046095Y-96102737D01*
X171950857Y-96150356D01*
X171944557Y-96154320D01*
X171942730Y-96155078D01*
X171940673Y-96156766D01*
X171938414Y-96158188D01*
X171937114Y-96159686D01*
X171931365Y-96164405D01*
X171883746Y-96212024D01*
X171879027Y-96217773D01*
X171877529Y-96219073D01*
X171876107Y-96221332D01*
X171874419Y-96223389D01*
X171873661Y-96225216D01*
X171869697Y-96231516D01*
X171822078Y-96326754D01*
X171816823Y-96340486D01*
X171816632Y-96343173D01*
X171815601Y-96345663D01*
X171814160Y-96360295D01*
X171703049Y-96360295D01*
X171703049Y-95983708D01*
X175978592Y-95983708D01*
X175978592Y-97355930D01*
G37*
G36*
X173975579Y-100009104D02*
G01*
X173707503Y-100009104D01*
X173841541Y-99606989D01*
X173975579Y-100009104D01*
G37*
G36*
X175980033Y-100555930D02*
G01*
X171703049Y-100555930D01*
X171703049Y-99560295D01*
X171814160Y-99560295D01*
X171814160Y-99655533D01*
X171815601Y-99670165D01*
X171816632Y-99672654D01*
X171816823Y-99675342D01*
X171822078Y-99689074D01*
X171869697Y-99784312D01*
X171873661Y-99790611D01*
X171874419Y-99792439D01*
X171876107Y-99794495D01*
X171877529Y-99796755D01*
X171879027Y-99798054D01*
X171883746Y-99803804D01*
X171931365Y-99851423D01*
X171937114Y-99856141D01*
X171938414Y-99857640D01*
X171940673Y-99859061D01*
X171942730Y-99860750D01*
X171944557Y-99861507D01*
X171950857Y-99865472D01*
X172046095Y-99913091D01*
X172047164Y-99913500D01*
X172047600Y-99913823D01*
X172053736Y-99916015D01*
X172059826Y-99918346D01*
X172060366Y-99918384D01*
X172061446Y-99918770D01*
X172243936Y-99964392D01*
X172320923Y-100002886D01*
X172351330Y-100033293D01*
X172385588Y-100101809D01*
X172385588Y-100161637D01*
X172351329Y-100230153D01*
X172320922Y-100260561D01*
X172252407Y-100294819D01*
X172044187Y-100294819D01*
X171912877Y-100251049D01*
X171898540Y-100247789D01*
X171869350Y-100249864D01*
X171843177Y-100262950D01*
X171824003Y-100285057D01*
X171814749Y-100312820D01*
X171816824Y-100342010D01*
X171829910Y-100368183D01*
X171852017Y-100387357D01*
X171865443Y-100393351D01*
X172008299Y-100440970D01*
X172015554Y-100442619D01*
X172017385Y-100443378D01*
X172020038Y-100443639D01*
X172022636Y-100444230D01*
X172024610Y-100444089D01*
X172032017Y-100444819D01*
X172270112Y-100444819D01*
X172284744Y-100443378D01*
X172287233Y-100442346D01*
X172289921Y-100442156D01*
X172303653Y-100436901D01*
X172398891Y-100389282D01*
X172405190Y-100385317D01*
X172407018Y-100384560D01*
X172409074Y-100382872D01*
X172411334Y-100381450D01*
X172412634Y-100379950D01*
X172418384Y-100375232D01*
X172466002Y-100327613D01*
X172470720Y-100321863D01*
X172472219Y-100320564D01*
X172473640Y-100318305D01*
X172475330Y-100316247D01*
X172476087Y-100314417D01*
X172480051Y-100308121D01*
X172527670Y-100212883D01*
X172532925Y-100199152D01*
X172533116Y-100196462D01*
X172534147Y-100193974D01*
X172535588Y-100179342D01*
X172535588Y-100084104D01*
X172534147Y-100069472D01*
X172533116Y-100066983D01*
X172532925Y-100064294D01*
X172527670Y-100050563D01*
X172480051Y-99955325D01*
X172476086Y-99949025D01*
X172475329Y-99947198D01*
X172473640Y-99945141D01*
X172472219Y-99942882D01*
X172470720Y-99941582D01*
X172466002Y-99935833D01*
X172418383Y-99888214D01*
X172412633Y-99883495D01*
X172411334Y-99881997D01*
X172409074Y-99880575D01*
X172407018Y-99878887D01*
X172405190Y-99878129D01*
X172398891Y-99874165D01*
X172303653Y-99826546D01*
X172302583Y-99826136D01*
X172302148Y-99825814D01*
X172296002Y-99823618D01*
X172289921Y-99821291D01*
X172289381Y-99821252D01*
X172288302Y-99820867D01*
X172105812Y-99775244D01*
X172028825Y-99736751D01*
X171998418Y-99706344D01*
X171964160Y-99637828D01*
X171964160Y-99578000D01*
X171998418Y-99509484D01*
X172028825Y-99479077D01*
X172097341Y-99444819D01*
X172305561Y-99444819D01*
X172436870Y-99488589D01*
X172451207Y-99491849D01*
X172480397Y-99489774D01*
X172506571Y-99476688D01*
X172525745Y-99454580D01*
X172534999Y-99426818D01*
X172532924Y-99397628D01*
X172519837Y-99371455D01*
X172501081Y-99355187D01*
X172672744Y-99355187D01*
X172672744Y-99384451D01*
X172683943Y-99411487D01*
X172704635Y-99432179D01*
X172731671Y-99443378D01*
X172746303Y-99444819D01*
X172957017Y-99444819D01*
X172957017Y-100369819D01*
X172958458Y-100384451D01*
X172969657Y-100411487D01*
X172990349Y-100432179D01*
X173017385Y-100443378D01*
X173046649Y-100443378D01*
X173073685Y-100432179D01*
X173094377Y-100411487D01*
X173105576Y-100384451D01*
X173107017Y-100369819D01*
X173107017Y-100360439D01*
X173433797Y-100360439D01*
X173435872Y-100389629D01*
X173448958Y-100415802D01*
X173471065Y-100434976D01*
X173498828Y-100444230D01*
X173528018Y-100442155D01*
X173554191Y-100429069D01*
X173573365Y-100406962D01*
X173579359Y-100393536D01*
X173657503Y-100159104D01*
X174025579Y-100159104D01*
X174103723Y-100393536D01*
X174109717Y-100406961D01*
X174128891Y-100429068D01*
X174155064Y-100442155D01*
X174184254Y-100444230D01*
X174212016Y-100434976D01*
X174234124Y-100415802D01*
X174247210Y-100389628D01*
X174249285Y-100360438D01*
X174246025Y-100346102D01*
X173915720Y-99355187D01*
X174291792Y-99355187D01*
X174291792Y-99384451D01*
X174302991Y-99411487D01*
X174323683Y-99432179D01*
X174350719Y-99443378D01*
X174365351Y-99444819D01*
X174576065Y-99444819D01*
X174576065Y-100369819D01*
X174577506Y-100384451D01*
X174588705Y-100411487D01*
X174609397Y-100432179D01*
X174636433Y-100443378D01*
X174665697Y-100443378D01*
X174692733Y-100432179D01*
X174713425Y-100411487D01*
X174724624Y-100384451D01*
X174726065Y-100369819D01*
X174726065Y-100355187D01*
X175101316Y-100355187D01*
X175101316Y-100384451D01*
X175112515Y-100411487D01*
X175133207Y-100432179D01*
X175160243Y-100443378D01*
X175174875Y-100444819D01*
X175793922Y-100444819D01*
X175808554Y-100443378D01*
X175835590Y-100432179D01*
X175856282Y-100411487D01*
X175867481Y-100384451D01*
X175867481Y-100355187D01*
X175856282Y-100328151D01*
X175835590Y-100307459D01*
X175808554Y-100296260D01*
X175793922Y-100294819D01*
X175355941Y-100294819D01*
X175799336Y-99851423D01*
X175808664Y-99840058D01*
X175809695Y-99837567D01*
X175811460Y-99835533D01*
X175817454Y-99822107D01*
X175865073Y-99679251D01*
X175866722Y-99671995D01*
X175867481Y-99670165D01*
X175867742Y-99667511D01*
X175868333Y-99664914D01*
X175868192Y-99662939D01*
X175868922Y-99655533D01*
X175868922Y-99560295D01*
X175867481Y-99545663D01*
X175866450Y-99543174D01*
X175866259Y-99540485D01*
X175861004Y-99526754D01*
X175813385Y-99431516D01*
X175809420Y-99425216D01*
X175808663Y-99423389D01*
X175806974Y-99421332D01*
X175805553Y-99419073D01*
X175804054Y-99417773D01*
X175799336Y-99412024D01*
X175751717Y-99364405D01*
X175745967Y-99359686D01*
X175744668Y-99358188D01*
X175742408Y-99356766D01*
X175740352Y-99355078D01*
X175738524Y-99354320D01*
X175732225Y-99350356D01*
X175636987Y-99302737D01*
X175623255Y-99297482D01*
X175620567Y-99297291D01*
X175618078Y-99296260D01*
X175603446Y-99294819D01*
X175365351Y-99294819D01*
X175350719Y-99296260D01*
X175348230Y-99297290D01*
X175345541Y-99297482D01*
X175331810Y-99302737D01*
X175236572Y-99350356D01*
X175230272Y-99354320D01*
X175228445Y-99355078D01*
X175226388Y-99356766D01*
X175224129Y-99358188D01*
X175222829Y-99359686D01*
X175217080Y-99364405D01*
X175169461Y-99412024D01*
X175160134Y-99423389D01*
X175148935Y-99450426D01*
X175148935Y-99479688D01*
X175160134Y-99506725D01*
X175180826Y-99527417D01*
X175207863Y-99538616D01*
X175237125Y-99538616D01*
X175264162Y-99527417D01*
X175275527Y-99518090D01*
X175314540Y-99479077D01*
X175383056Y-99444819D01*
X175585741Y-99444819D01*
X175654257Y-99479077D01*
X175684664Y-99509484D01*
X175718922Y-99578000D01*
X175718922Y-99643363D01*
X175680750Y-99757876D01*
X175121842Y-100316786D01*
X175112515Y-100328151D01*
X175101316Y-100355187D01*
X174726065Y-100355187D01*
X174726065Y-99444819D01*
X174936779Y-99444819D01*
X174951411Y-99443378D01*
X174978447Y-99432179D01*
X174999139Y-99411487D01*
X175010338Y-99384451D01*
X175010338Y-99355187D01*
X174999139Y-99328151D01*
X174978447Y-99307459D01*
X174951411Y-99296260D01*
X174936779Y-99294819D01*
X174365351Y-99294819D01*
X174350719Y-99296260D01*
X174323683Y-99307459D01*
X174302991Y-99328151D01*
X174291792Y-99355187D01*
X173915720Y-99355187D01*
X173912692Y-99346102D01*
X173906698Y-99332676D01*
X173903186Y-99328627D01*
X173900791Y-99323836D01*
X173893687Y-99317674D01*
X173887524Y-99310569D01*
X173882730Y-99308172D01*
X173878683Y-99304662D01*
X173869761Y-99301688D01*
X173861351Y-99297483D01*
X173856006Y-99297103D01*
X173850921Y-99295408D01*
X173841541Y-99296074D01*
X173832161Y-99295408D01*
X173827075Y-99297103D01*
X173821731Y-99297483D01*
X173813323Y-99301687D01*
X173804398Y-99304662D01*
X173800347Y-99308175D01*
X173795558Y-99310570D01*
X173789399Y-99317670D01*
X173782291Y-99323836D01*
X173779894Y-99328629D01*
X173776384Y-99332677D01*
X173770390Y-99346102D01*
X173437057Y-100346102D01*
X173433797Y-100360439D01*
X173107017Y-100360439D01*
X173107017Y-99444819D01*
X173317731Y-99444819D01*
X173332363Y-99443378D01*
X173359399Y-99432179D01*
X173380091Y-99411487D01*
X173391290Y-99384451D01*
X173391290Y-99355187D01*
X173380091Y-99328151D01*
X173359399Y-99307459D01*
X173332363Y-99296260D01*
X173317731Y-99294819D01*
X172746303Y-99294819D01*
X172731671Y-99296260D01*
X172704635Y-99307459D01*
X172683943Y-99328151D01*
X172672744Y-99355187D01*
X172501081Y-99355187D01*
X172497730Y-99352281D01*
X172484305Y-99346287D01*
X172341448Y-99298668D01*
X172334194Y-99297018D01*
X172332363Y-99296260D01*
X172329708Y-99295998D01*
X172327111Y-99295408D01*
X172325136Y-99295548D01*
X172317731Y-99294819D01*
X172079636Y-99294819D01*
X172065004Y-99296260D01*
X172062515Y-99297290D01*
X172059826Y-99297482D01*
X172046095Y-99302737D01*
X171950857Y-99350356D01*
X171944557Y-99354320D01*
X171942730Y-99355078D01*
X171940673Y-99356766D01*
X171938414Y-99358188D01*
X171937114Y-99359686D01*
X171931365Y-99364405D01*
X171883746Y-99412024D01*
X171879027Y-99417773D01*
X171877529Y-99419073D01*
X171876107Y-99421332D01*
X171874419Y-99423389D01*
X171873661Y-99425216D01*
X171869697Y-99431516D01*
X171822078Y-99526754D01*
X171816823Y-99540486D01*
X171816632Y-99543173D01*
X171815601Y-99545663D01*
X171814160Y-99560295D01*
X171703049Y-99560295D01*
X171703049Y-99183708D01*
X175980033Y-99183708D01*
X175980033Y-100555930D01*
G37*
G36*
X173975579Y-103209104D02*
G01*
X173707503Y-103209104D01*
X173841541Y-102806989D01*
X173975579Y-103209104D01*
G37*
G36*
X175980033Y-103755930D02*
G01*
X171703049Y-103755930D01*
X171703049Y-102760295D01*
X171814160Y-102760295D01*
X171814160Y-102855533D01*
X171815601Y-102870165D01*
X171816632Y-102872654D01*
X171816823Y-102875342D01*
X171822078Y-102889074D01*
X171869697Y-102984312D01*
X171873661Y-102990611D01*
X171874419Y-102992439D01*
X171876107Y-102994495D01*
X171877529Y-102996755D01*
X171879027Y-102998054D01*
X171883746Y-103003804D01*
X171931365Y-103051423D01*
X171937114Y-103056141D01*
X171938414Y-103057640D01*
X171940673Y-103059061D01*
X171942730Y-103060750D01*
X171944557Y-103061507D01*
X171950857Y-103065472D01*
X172046095Y-103113091D01*
X172047164Y-103113500D01*
X172047600Y-103113823D01*
X172053736Y-103116015D01*
X172059826Y-103118346D01*
X172060366Y-103118384D01*
X172061446Y-103118770D01*
X172243936Y-103164392D01*
X172320923Y-103202886D01*
X172351330Y-103233293D01*
X172385588Y-103301809D01*
X172385588Y-103361637D01*
X172351329Y-103430153D01*
X172320922Y-103460561D01*
X172252407Y-103494819D01*
X172044187Y-103494819D01*
X171912877Y-103451049D01*
X171898540Y-103447789D01*
X171869350Y-103449864D01*
X171843177Y-103462950D01*
X171824003Y-103485057D01*
X171814749Y-103512820D01*
X171816824Y-103542010D01*
X171829910Y-103568183D01*
X171852017Y-103587357D01*
X171865443Y-103593351D01*
X172008299Y-103640970D01*
X172015554Y-103642619D01*
X172017385Y-103643378D01*
X172020038Y-103643639D01*
X172022636Y-103644230D01*
X172024610Y-103644089D01*
X172032017Y-103644819D01*
X172270112Y-103644819D01*
X172284744Y-103643378D01*
X172287233Y-103642346D01*
X172289921Y-103642156D01*
X172303653Y-103636901D01*
X172398891Y-103589282D01*
X172405190Y-103585317D01*
X172407018Y-103584560D01*
X172409074Y-103582872D01*
X172411334Y-103581450D01*
X172412634Y-103579950D01*
X172418384Y-103575232D01*
X172466002Y-103527613D01*
X172470720Y-103521863D01*
X172472219Y-103520564D01*
X172473640Y-103518305D01*
X172475330Y-103516247D01*
X172476087Y-103514417D01*
X172480051Y-103508121D01*
X172527670Y-103412883D01*
X172532925Y-103399152D01*
X172533116Y-103396462D01*
X172534147Y-103393974D01*
X172535588Y-103379342D01*
X172535588Y-103284104D01*
X172534147Y-103269472D01*
X172533116Y-103266983D01*
X172532925Y-103264294D01*
X172527670Y-103250563D01*
X172480051Y-103155325D01*
X172476086Y-103149025D01*
X172475329Y-103147198D01*
X172473640Y-103145141D01*
X172472219Y-103142882D01*
X172470720Y-103141582D01*
X172466002Y-103135833D01*
X172418383Y-103088214D01*
X172412633Y-103083495D01*
X172411334Y-103081997D01*
X172409074Y-103080575D01*
X172407018Y-103078887D01*
X172405190Y-103078129D01*
X172398891Y-103074165D01*
X172303653Y-103026546D01*
X172302583Y-103026136D01*
X172302148Y-103025814D01*
X172296002Y-103023618D01*
X172289921Y-103021291D01*
X172289381Y-103021252D01*
X172288302Y-103020867D01*
X172105812Y-102975244D01*
X172028825Y-102936751D01*
X171998418Y-102906344D01*
X171964160Y-102837828D01*
X171964160Y-102778000D01*
X171998418Y-102709484D01*
X172028825Y-102679077D01*
X172097341Y-102644819D01*
X172305561Y-102644819D01*
X172436870Y-102688589D01*
X172451207Y-102691849D01*
X172480397Y-102689774D01*
X172506571Y-102676688D01*
X172525745Y-102654580D01*
X172534999Y-102626818D01*
X172532924Y-102597628D01*
X172519837Y-102571455D01*
X172501081Y-102555187D01*
X172672744Y-102555187D01*
X172672744Y-102584451D01*
X172683943Y-102611487D01*
X172704635Y-102632179D01*
X172731671Y-102643378D01*
X172746303Y-102644819D01*
X172957017Y-102644819D01*
X172957017Y-103569819D01*
X172958458Y-103584451D01*
X172969657Y-103611487D01*
X172990349Y-103632179D01*
X173017385Y-103643378D01*
X173046649Y-103643378D01*
X173073685Y-103632179D01*
X173094377Y-103611487D01*
X173105576Y-103584451D01*
X173107017Y-103569819D01*
X173107017Y-103560439D01*
X173433797Y-103560439D01*
X173435872Y-103589629D01*
X173448958Y-103615802D01*
X173471065Y-103634976D01*
X173498828Y-103644230D01*
X173528018Y-103642155D01*
X173554191Y-103629069D01*
X173573365Y-103606962D01*
X173579359Y-103593536D01*
X173657503Y-103359104D01*
X174025579Y-103359104D01*
X174103723Y-103593536D01*
X174109717Y-103606961D01*
X174128891Y-103629068D01*
X174155064Y-103642155D01*
X174184254Y-103644230D01*
X174212016Y-103634976D01*
X174234124Y-103615802D01*
X174247210Y-103589628D01*
X174249285Y-103560438D01*
X174246025Y-103546102D01*
X173915720Y-102555187D01*
X174291792Y-102555187D01*
X174291792Y-102584451D01*
X174302991Y-102611487D01*
X174323683Y-102632179D01*
X174350719Y-102643378D01*
X174365351Y-102644819D01*
X174576065Y-102644819D01*
X174576065Y-103569819D01*
X174577506Y-103584451D01*
X174588705Y-103611487D01*
X174609397Y-103632179D01*
X174636433Y-103643378D01*
X174665697Y-103643378D01*
X174692733Y-103632179D01*
X174713425Y-103611487D01*
X174724624Y-103584451D01*
X174726065Y-103569819D01*
X174726065Y-102644819D01*
X174936779Y-102644819D01*
X174951411Y-102643378D01*
X174978447Y-102632179D01*
X174999139Y-102611487D01*
X175010338Y-102584451D01*
X175010338Y-102555187D01*
X175101316Y-102555187D01*
X175101316Y-102584451D01*
X175112515Y-102611487D01*
X175133207Y-102632179D01*
X175160243Y-102643378D01*
X175174875Y-102644819D01*
X175628640Y-102644819D01*
X175404146Y-102901383D01*
X175399624Y-102907707D01*
X175398229Y-102909103D01*
X175397680Y-102910426D01*
X175395595Y-102913344D01*
X175391693Y-102924881D01*
X175387030Y-102936139D01*
X175387030Y-102938669D01*
X175386220Y-102941065D01*
X175387030Y-102953218D01*
X175387030Y-102965403D01*
X175387997Y-102967739D01*
X175388166Y-102970263D01*
X175393568Y-102981188D01*
X175398229Y-102992439D01*
X175400015Y-102994225D01*
X175401138Y-102996495D01*
X175410310Y-103004520D01*
X175418921Y-103013131D01*
X175421257Y-103014099D01*
X175423162Y-103015765D01*
X175434699Y-103019666D01*
X175445957Y-103024330D01*
X175449527Y-103024681D01*
X175450883Y-103025140D01*
X175452850Y-103025008D01*
X175460589Y-103025771D01*
X175585741Y-103025771D01*
X175654257Y-103060029D01*
X175684664Y-103090436D01*
X175718922Y-103158952D01*
X175718922Y-103361637D01*
X175684663Y-103430153D01*
X175654256Y-103460561D01*
X175585741Y-103494819D01*
X175335437Y-103494819D01*
X175266921Y-103460561D01*
X175227909Y-103421548D01*
X175216543Y-103412220D01*
X175189507Y-103401021D01*
X175160244Y-103401021D01*
X175133208Y-103412219D01*
X175112515Y-103432912D01*
X175101316Y-103459948D01*
X175101316Y-103489211D01*
X175112514Y-103516247D01*
X175121841Y-103527612D01*
X175169460Y-103575232D01*
X175175209Y-103579950D01*
X175176510Y-103581450D01*
X175178769Y-103582872D01*
X175180826Y-103584560D01*
X175182653Y-103585317D01*
X175188953Y-103589282D01*
X175284191Y-103636901D01*
X175297922Y-103642156D01*
X175300611Y-103642347D01*
X175303100Y-103643378D01*
X175317732Y-103644819D01*
X175603446Y-103644819D01*
X175618078Y-103643378D01*
X175620567Y-103642346D01*
X175623255Y-103642156D01*
X175636987Y-103636901D01*
X175732225Y-103589282D01*
X175738524Y-103585317D01*
X175740352Y-103584560D01*
X175742408Y-103582872D01*
X175744668Y-103581450D01*
X175745968Y-103579950D01*
X175751718Y-103575232D01*
X175799336Y-103527613D01*
X175804054Y-103521863D01*
X175805553Y-103520564D01*
X175806974Y-103518305D01*
X175808664Y-103516247D01*
X175809421Y-103514417D01*
X175813385Y-103508121D01*
X175861004Y-103412883D01*
X175866259Y-103399152D01*
X175866450Y-103396462D01*
X175867481Y-103393974D01*
X175868922Y-103379342D01*
X175868922Y-103141247D01*
X175867481Y-103126615D01*
X175866450Y-103124126D01*
X175866259Y-103121437D01*
X175861004Y-103107706D01*
X175813385Y-103012468D01*
X175809420Y-103006168D01*
X175808663Y-103004341D01*
X175806974Y-103002284D01*
X175805553Y-103000025D01*
X175804054Y-102998725D01*
X175799336Y-102992976D01*
X175751717Y-102945357D01*
X175745967Y-102940638D01*
X175744668Y-102939140D01*
X175742408Y-102937718D01*
X175740352Y-102936030D01*
X175738524Y-102935272D01*
X175732225Y-102931308D01*
X175636987Y-102883689D01*
X175623469Y-102878516D01*
X175850365Y-102619207D01*
X175854886Y-102612882D01*
X175856282Y-102611487D01*
X175856830Y-102610163D01*
X175858916Y-102607246D01*
X175862817Y-102595708D01*
X175867481Y-102584451D01*
X175867481Y-102581920D01*
X175868291Y-102579525D01*
X175867481Y-102567371D01*
X175867481Y-102555187D01*
X175866513Y-102552850D01*
X175866345Y-102550327D01*
X175860942Y-102539401D01*
X175856282Y-102528151D01*
X175854495Y-102526364D01*
X175853373Y-102524095D01*
X175844200Y-102516069D01*
X175835590Y-102507459D01*
X175833253Y-102506490D01*
X175831349Y-102504825D01*
X175819811Y-102500923D01*
X175808554Y-102496260D01*
X175804983Y-102495908D01*
X175803628Y-102495450D01*
X175801660Y-102495581D01*
X175793922Y-102494819D01*
X175174875Y-102494819D01*
X175160243Y-102496260D01*
X175133207Y-102507459D01*
X175112515Y-102528151D01*
X175101316Y-102555187D01*
X175010338Y-102555187D01*
X174999139Y-102528151D01*
X174978447Y-102507459D01*
X174951411Y-102496260D01*
X174936779Y-102494819D01*
X174365351Y-102494819D01*
X174350719Y-102496260D01*
X174323683Y-102507459D01*
X174302991Y-102528151D01*
X174291792Y-102555187D01*
X173915720Y-102555187D01*
X173912692Y-102546102D01*
X173906698Y-102532676D01*
X173903186Y-102528627D01*
X173900791Y-102523836D01*
X173893687Y-102517674D01*
X173887524Y-102510569D01*
X173882730Y-102508172D01*
X173878683Y-102504662D01*
X173869761Y-102501688D01*
X173861351Y-102497483D01*
X173856006Y-102497103D01*
X173850921Y-102495408D01*
X173841541Y-102496074D01*
X173832161Y-102495408D01*
X173827075Y-102497103D01*
X173821731Y-102497483D01*
X173813323Y-102501687D01*
X173804398Y-102504662D01*
X173800347Y-102508175D01*
X173795558Y-102510570D01*
X173789399Y-102517670D01*
X173782291Y-102523836D01*
X173779894Y-102528629D01*
X173776384Y-102532677D01*
X173770390Y-102546102D01*
X173437057Y-103546102D01*
X173433797Y-103560439D01*
X173107017Y-103560439D01*
X173107017Y-102644819D01*
X173317731Y-102644819D01*
X173332363Y-102643378D01*
X173359399Y-102632179D01*
X173380091Y-102611487D01*
X173391290Y-102584451D01*
X173391290Y-102555187D01*
X173380091Y-102528151D01*
X173359399Y-102507459D01*
X173332363Y-102496260D01*
X173317731Y-102494819D01*
X172746303Y-102494819D01*
X172731671Y-102496260D01*
X172704635Y-102507459D01*
X172683943Y-102528151D01*
X172672744Y-102555187D01*
X172501081Y-102555187D01*
X172497730Y-102552281D01*
X172484305Y-102546287D01*
X172341448Y-102498668D01*
X172334194Y-102497018D01*
X172332363Y-102496260D01*
X172329708Y-102495998D01*
X172327111Y-102495408D01*
X172325136Y-102495548D01*
X172317731Y-102494819D01*
X172079636Y-102494819D01*
X172065004Y-102496260D01*
X172062515Y-102497290D01*
X172059826Y-102497482D01*
X172046095Y-102502737D01*
X171950857Y-102550356D01*
X171944557Y-102554320D01*
X171942730Y-102555078D01*
X171940673Y-102556766D01*
X171938414Y-102558188D01*
X171937114Y-102559686D01*
X171931365Y-102564405D01*
X171883746Y-102612024D01*
X171879027Y-102617773D01*
X171877529Y-102619073D01*
X171876107Y-102621332D01*
X171874419Y-102623389D01*
X171873661Y-102625216D01*
X171869697Y-102631516D01*
X171822078Y-102726754D01*
X171816823Y-102740486D01*
X171816632Y-102743173D01*
X171815601Y-102745663D01*
X171814160Y-102760295D01*
X171703049Y-102760295D01*
X171703049Y-102383708D01*
X175980033Y-102383708D01*
X175980033Y-103755930D01*
G37*
D11*
G36*
X139091844Y-92078430D02*
G01*
X139111296Y-92097882D01*
X139141101Y-92157492D01*
X139141101Y-92253135D01*
X139111296Y-92312743D01*
X139086627Y-92337413D01*
X139027018Y-92367219D01*
X138769673Y-92367219D01*
X138769673Y-92043409D01*
X138986779Y-92043409D01*
X139091844Y-92078430D01*
G37*
G36*
X139039008Y-91597024D02*
G01*
X139063677Y-91621692D01*
X139093482Y-91681302D01*
X139093482Y-91729326D01*
X139063677Y-91788935D01*
X139039008Y-91813603D01*
X138979399Y-91843409D01*
X138769673Y-91843409D01*
X138769673Y-91567219D01*
X138979399Y-91567219D01*
X139039008Y-91597024D01*
G37*
G36*
X139452212Y-92678330D02*
G01*
X136458562Y-92678330D01*
X136458562Y-91467219D01*
X136569673Y-91467219D01*
X136569673Y-92276742D01*
X136571594Y-92296251D01*
X136572969Y-92299571D01*
X136573224Y-92303155D01*
X136580230Y-92321463D01*
X136627849Y-92416701D01*
X136633132Y-92425093D01*
X136634144Y-92427537D01*
X136636400Y-92430286D01*
X136638292Y-92433291D01*
X136640286Y-92435020D01*
X136646581Y-92442690D01*
X136694199Y-92490310D01*
X136701867Y-92496603D01*
X136703599Y-92498600D01*
X136706607Y-92500493D01*
X136709353Y-92502747D01*
X136711793Y-92503757D01*
X136720190Y-92509043D01*
X136815427Y-92556662D01*
X136833736Y-92563668D01*
X136837319Y-92563922D01*
X136840640Y-92565298D01*
X136860149Y-92567219D01*
X137050625Y-92567219D01*
X137070134Y-92565298D01*
X137073454Y-92563922D01*
X137077038Y-92563668D01*
X137095346Y-92556662D01*
X137190584Y-92509043D01*
X137198979Y-92503758D01*
X137201421Y-92502747D01*
X137204168Y-92500491D01*
X137207174Y-92498600D01*
X137208904Y-92496605D01*
X137216574Y-92490310D01*
X137264193Y-92442690D01*
X137270485Y-92435023D01*
X137272482Y-92433292D01*
X137274375Y-92430284D01*
X137276630Y-92427537D01*
X137277641Y-92425095D01*
X137282925Y-92416701D01*
X137330544Y-92321464D01*
X137337550Y-92303155D01*
X137337804Y-92299571D01*
X137339180Y-92296251D01*
X137341101Y-92276742D01*
X137341101Y-91657695D01*
X137569673Y-91657695D01*
X137569673Y-91752933D01*
X137571594Y-91772442D01*
X137572969Y-91775762D01*
X137573224Y-91779346D01*
X137580230Y-91797654D01*
X137627849Y-91892892D01*
X137633134Y-91901288D01*
X137634145Y-91903728D01*
X137636398Y-91906474D01*
X137638292Y-91909482D01*
X137640286Y-91911211D01*
X137646581Y-91918882D01*
X137694200Y-91966500D01*
X137701866Y-91972792D01*
X137703599Y-91974790D01*
X137706607Y-91976683D01*
X137709353Y-91978937D01*
X137711793Y-91979947D01*
X137720190Y-91985233D01*
X137815427Y-92032852D01*
X137816855Y-92033398D01*
X137817435Y-92033828D01*
X137825611Y-92036749D01*
X137833736Y-92039858D01*
X137834456Y-92039909D01*
X137835895Y-92040423D01*
X138015720Y-92085379D01*
X138086627Y-92120833D01*
X138111296Y-92145501D01*
X138141101Y-92205111D01*
X138141101Y-92253135D01*
X138111296Y-92312743D01*
X138086627Y-92337413D01*
X138027018Y-92367219D01*
X137828756Y-92367219D01*
X137701296Y-92324732D01*
X137682180Y-92320385D01*
X137643260Y-92323151D01*
X137608361Y-92340601D01*
X137582796Y-92370077D01*
X137570458Y-92407093D01*
X137573224Y-92446013D01*
X137590674Y-92480912D01*
X137620150Y-92506477D01*
X137638050Y-92514468D01*
X137780907Y-92562087D01*
X137790579Y-92564286D01*
X137793021Y-92565298D01*
X137796558Y-92565646D01*
X137800022Y-92566434D01*
X137802656Y-92566246D01*
X137812530Y-92567219D01*
X138050625Y-92567219D01*
X138070134Y-92565298D01*
X138073454Y-92563922D01*
X138077038Y-92563668D01*
X138095346Y-92556662D01*
X138190584Y-92509043D01*
X138198979Y-92503758D01*
X138201421Y-92502747D01*
X138204168Y-92500491D01*
X138207174Y-92498600D01*
X138208904Y-92496605D01*
X138216574Y-92490310D01*
X138264193Y-92442690D01*
X138270485Y-92435023D01*
X138272482Y-92433292D01*
X138274375Y-92430284D01*
X138276630Y-92427537D01*
X138277641Y-92425095D01*
X138282925Y-92416701D01*
X138330544Y-92321464D01*
X138337550Y-92303155D01*
X138337804Y-92299571D01*
X138339180Y-92296251D01*
X138341101Y-92276742D01*
X138341101Y-92181504D01*
X138339180Y-92161995D01*
X138337804Y-92158674D01*
X138337550Y-92155091D01*
X138330544Y-92136782D01*
X138282925Y-92041545D01*
X138277639Y-92033148D01*
X138276629Y-92030708D01*
X138274375Y-92027962D01*
X138272482Y-92024954D01*
X138270484Y-92023221D01*
X138264192Y-92015555D01*
X138216574Y-91967936D01*
X138208903Y-91961641D01*
X138207174Y-91959647D01*
X138204166Y-91957753D01*
X138201420Y-91955500D01*
X138198980Y-91954489D01*
X138190584Y-91949204D01*
X138095346Y-91901585D01*
X138093919Y-91901039D01*
X138093339Y-91900609D01*
X138085162Y-91897687D01*
X138077038Y-91894579D01*
X138076315Y-91894527D01*
X138074878Y-91894014D01*
X137895053Y-91849057D01*
X137824146Y-91813604D01*
X137799478Y-91788935D01*
X137769673Y-91729325D01*
X137769673Y-91681302D01*
X137799478Y-91621692D01*
X137824146Y-91597023D01*
X137883756Y-91567219D01*
X138082017Y-91567219D01*
X138209478Y-91609706D01*
X138228593Y-91614053D01*
X138267513Y-91611287D01*
X138302412Y-91593837D01*
X138327977Y-91564361D01*
X138340316Y-91527345D01*
X138337549Y-91488425D01*
X138326946Y-91467219D01*
X138569673Y-91467219D01*
X138569673Y-92467219D01*
X138571594Y-92486728D01*
X138586526Y-92522776D01*
X138614116Y-92550366D01*
X138650164Y-92565298D01*
X138669673Y-92567219D01*
X139050625Y-92567219D01*
X139070134Y-92565298D01*
X139073454Y-92563922D01*
X139077038Y-92563668D01*
X139095346Y-92556662D01*
X139190584Y-92509043D01*
X139198979Y-92503758D01*
X139201421Y-92502747D01*
X139204168Y-92500491D01*
X139207174Y-92498600D01*
X139208904Y-92496605D01*
X139216574Y-92490310D01*
X139264193Y-92442690D01*
X139270485Y-92435023D01*
X139272482Y-92433292D01*
X139274375Y-92430284D01*
X139276630Y-92427537D01*
X139277641Y-92425095D01*
X139282925Y-92416701D01*
X139330544Y-92321464D01*
X139337550Y-92303155D01*
X139337804Y-92299571D01*
X139339180Y-92296251D01*
X139341101Y-92276742D01*
X139341101Y-92133885D01*
X139339180Y-92114376D01*
X139337804Y-92111055D01*
X139337550Y-92107472D01*
X139330544Y-92089163D01*
X139282925Y-91993926D01*
X139277639Y-91985529D01*
X139276629Y-91983089D01*
X139274375Y-91980343D01*
X139272482Y-91977335D01*
X139270484Y-91975602D01*
X139264192Y-91967936D01*
X139216574Y-91920317D01*
X139215785Y-91919669D01*
X139216573Y-91918882D01*
X139222865Y-91911215D01*
X139224863Y-91909483D01*
X139226756Y-91906474D01*
X139229010Y-91903729D01*
X139230020Y-91901288D01*
X139235306Y-91892892D01*
X139282925Y-91797655D01*
X139289931Y-91779346D01*
X139290185Y-91775762D01*
X139291561Y-91772442D01*
X139293482Y-91752933D01*
X139293482Y-91657695D01*
X139291561Y-91638186D01*
X139290185Y-91634865D01*
X139289931Y-91631282D01*
X139282925Y-91612973D01*
X139235306Y-91517736D01*
X139230020Y-91509339D01*
X139229010Y-91506899D01*
X139226756Y-91504153D01*
X139224863Y-91501145D01*
X139222865Y-91499412D01*
X139216573Y-91491746D01*
X139168955Y-91444127D01*
X139161284Y-91437832D01*
X139159555Y-91435838D01*
X139156547Y-91433944D01*
X139153801Y-91431691D01*
X139151361Y-91430680D01*
X139142965Y-91425395D01*
X139047727Y-91377776D01*
X139029419Y-91370770D01*
X139025835Y-91370515D01*
X139022515Y-91369140D01*
X139003006Y-91367219D01*
X138669673Y-91367219D01*
X138650164Y-91369140D01*
X138614116Y-91384072D01*
X138586526Y-91411662D01*
X138571594Y-91447710D01*
X138569673Y-91467219D01*
X138326946Y-91467219D01*
X138320100Y-91453526D01*
X138290624Y-91427961D01*
X138272723Y-91419970D01*
X138129867Y-91372351D01*
X138120195Y-91370151D01*
X138117753Y-91369140D01*
X138114214Y-91368791D01*
X138110751Y-91368004D01*
X138108117Y-91368191D01*
X138098244Y-91367219D01*
X137860149Y-91367219D01*
X137840640Y-91369140D01*
X137837319Y-91370515D01*
X137833736Y-91370770D01*
X137815427Y-91377776D01*
X137720190Y-91425395D01*
X137711793Y-91430680D01*
X137709353Y-91431691D01*
X137706607Y-91433944D01*
X137703599Y-91435838D01*
X137701866Y-91437835D01*
X137694200Y-91444128D01*
X137646581Y-91491746D01*
X137640286Y-91499416D01*
X137638292Y-91501146D01*
X137636398Y-91504153D01*
X137634145Y-91506900D01*
X137633134Y-91509339D01*
X137627849Y-91517736D01*
X137580230Y-91612974D01*
X137573224Y-91631282D01*
X137572969Y-91634865D01*
X137571594Y-91638186D01*
X137569673Y-91657695D01*
X137341101Y-91657695D01*
X137341101Y-91467219D01*
X137339180Y-91447710D01*
X137324248Y-91411662D01*
X137296658Y-91384072D01*
X137260610Y-91369140D01*
X137221592Y-91369140D01*
X137185544Y-91384072D01*
X137157954Y-91411662D01*
X137143022Y-91447710D01*
X137141101Y-91467219D01*
X137141101Y-92253135D01*
X137111296Y-92312743D01*
X137086627Y-92337413D01*
X137027018Y-92367219D01*
X136883756Y-92367219D01*
X136824146Y-92337414D01*
X136799479Y-92312746D01*
X136769673Y-92253134D01*
X136769673Y-91467219D01*
X136767752Y-91447710D01*
X136752820Y-91411662D01*
X136725230Y-91384072D01*
X136689182Y-91369140D01*
X136650164Y-91369140D01*
X136614116Y-91384072D01*
X136586526Y-91411662D01*
X136571594Y-91447710D01*
X136569673Y-91467219D01*
X136458562Y-91467219D01*
X136458562Y-91256108D01*
X139452212Y-91256108D01*
X139452212Y-92678330D01*
G37*
G36*
X137091844Y-95178430D02*
G01*
X137111296Y-95197882D01*
X137141101Y-95257492D01*
X137141101Y-95353135D01*
X137111296Y-95412743D01*
X137086627Y-95437413D01*
X137027018Y-95467219D01*
X136769673Y-95467219D01*
X136769673Y-95143409D01*
X136986779Y-95143409D01*
X137091844Y-95178430D01*
G37*
G36*
X137039008Y-94697024D02*
G01*
X137063677Y-94721692D01*
X137093482Y-94781302D01*
X137093482Y-94829326D01*
X137063677Y-94888935D01*
X137039008Y-94913603D01*
X136979399Y-94943409D01*
X136769673Y-94943409D01*
X136769673Y-94667219D01*
X136979399Y-94667219D01*
X137039008Y-94697024D01*
G37*
G36*
X137959502Y-95181504D02*
G01*
X137760797Y-95181504D01*
X137860149Y-94883446D01*
X137959502Y-95181504D01*
G37*
G36*
X139164577Y-95778330D02*
G01*
X136458562Y-95778330D01*
X136458562Y-94567219D01*
X136569673Y-94567219D01*
X136569673Y-95567219D01*
X136571594Y-95586728D01*
X136586526Y-95622776D01*
X136614116Y-95650366D01*
X136650164Y-95665298D01*
X136669673Y-95667219D01*
X137050625Y-95667219D01*
X137070134Y-95665298D01*
X137073454Y-95663922D01*
X137077038Y-95663668D01*
X137095346Y-95656662D01*
X137190584Y-95609043D01*
X137198979Y-95603758D01*
X137201421Y-95602747D01*
X137204168Y-95600491D01*
X137207174Y-95598600D01*
X137208904Y-95596605D01*
X137216574Y-95590310D01*
X137252171Y-95554712D01*
X137427601Y-95554712D01*
X137430367Y-95593632D01*
X137447817Y-95628531D01*
X137477293Y-95654096D01*
X137514309Y-95666434D01*
X137553229Y-95663668D01*
X137588128Y-95646218D01*
X137613693Y-95616742D01*
X137621684Y-95598842D01*
X137694130Y-95381504D01*
X138026168Y-95381504D01*
X138098614Y-95598841D01*
X138106605Y-95616742D01*
X138132170Y-95646218D01*
X138167069Y-95663667D01*
X138205989Y-95666434D01*
X138243005Y-95654095D01*
X138272481Y-95628530D01*
X138289931Y-95593631D01*
X138292697Y-95554711D01*
X138288350Y-95535596D01*
X137959055Y-94547710D01*
X138285880Y-94547710D01*
X138285880Y-94586728D01*
X138300812Y-94622776D01*
X138328402Y-94650366D01*
X138364450Y-94665298D01*
X138383959Y-94667219D01*
X138569673Y-94667219D01*
X138569673Y-95567219D01*
X138571594Y-95586728D01*
X138586526Y-95622776D01*
X138614116Y-95650366D01*
X138650164Y-95665298D01*
X138689182Y-95665298D01*
X138725230Y-95650366D01*
X138752820Y-95622776D01*
X138767752Y-95586728D01*
X138769673Y-95567219D01*
X138769673Y-94667219D01*
X138955387Y-94667219D01*
X138974896Y-94665298D01*
X139010944Y-94650366D01*
X139038534Y-94622776D01*
X139053466Y-94586728D01*
X139053466Y-94547710D01*
X139038534Y-94511662D01*
X139010944Y-94484072D01*
X138974896Y-94469140D01*
X138955387Y-94467219D01*
X138383959Y-94467219D01*
X138364450Y-94469140D01*
X138328402Y-94484072D01*
X138300812Y-94511662D01*
X138285880Y-94547710D01*
X137959055Y-94547710D01*
X137955017Y-94535596D01*
X137947026Y-94517696D01*
X137942341Y-94512294D01*
X137939148Y-94505908D01*
X137929679Y-94497695D01*
X137921461Y-94488220D01*
X137915069Y-94485023D01*
X137909672Y-94480343D01*
X137897778Y-94476378D01*
X137886562Y-94470770D01*
X137879434Y-94470263D01*
X137872656Y-94468004D01*
X137860151Y-94468893D01*
X137847642Y-94468004D01*
X137840860Y-94470264D01*
X137833736Y-94470771D01*
X137822527Y-94476374D01*
X137810626Y-94480342D01*
X137805225Y-94485025D01*
X137798837Y-94488220D01*
X137790621Y-94497691D01*
X137781150Y-94505907D01*
X137777955Y-94512296D01*
X137773272Y-94517696D01*
X137765281Y-94535597D01*
X137431948Y-95535596D01*
X137427601Y-95554712D01*
X137252171Y-95554712D01*
X137264193Y-95542690D01*
X137270485Y-95535023D01*
X137272482Y-95533292D01*
X137274375Y-95530284D01*
X137276630Y-95527537D01*
X137277641Y-95525095D01*
X137282925Y-95516701D01*
X137330544Y-95421464D01*
X137337550Y-95403155D01*
X137337804Y-95399571D01*
X137339180Y-95396251D01*
X137341101Y-95376742D01*
X137341101Y-95233885D01*
X137339180Y-95214376D01*
X137337804Y-95211055D01*
X137337550Y-95207472D01*
X137330544Y-95189163D01*
X137282925Y-95093926D01*
X137277639Y-95085529D01*
X137276629Y-95083089D01*
X137274375Y-95080343D01*
X137272482Y-95077335D01*
X137270484Y-95075602D01*
X137264192Y-95067936D01*
X137216574Y-95020317D01*
X137215785Y-95019669D01*
X137216573Y-95018882D01*
X137222865Y-95011215D01*
X137224863Y-95009483D01*
X137226756Y-95006474D01*
X137229010Y-95003729D01*
X137230020Y-95001288D01*
X137235306Y-94992892D01*
X137282925Y-94897655D01*
X137289931Y-94879346D01*
X137290185Y-94875762D01*
X137291561Y-94872442D01*
X137293482Y-94852933D01*
X137293482Y-94757695D01*
X137291561Y-94738186D01*
X137290185Y-94734865D01*
X137289931Y-94731282D01*
X137282925Y-94712973D01*
X137235306Y-94617736D01*
X137230020Y-94609339D01*
X137229010Y-94606899D01*
X137226756Y-94604153D01*
X137224863Y-94601145D01*
X137222865Y-94599412D01*
X137216573Y-94591746D01*
X137168955Y-94544127D01*
X137161284Y-94537832D01*
X137159555Y-94535838D01*
X137156547Y-94533944D01*
X137153801Y-94531691D01*
X137151361Y-94530680D01*
X137142965Y-94525395D01*
X137047727Y-94477776D01*
X137029419Y-94470770D01*
X137025835Y-94470515D01*
X137022515Y-94469140D01*
X137003006Y-94467219D01*
X136669673Y-94467219D01*
X136650164Y-94469140D01*
X136614116Y-94484072D01*
X136586526Y-94511662D01*
X136571594Y-94547710D01*
X136569673Y-94567219D01*
X136458562Y-94567219D01*
X136458562Y-94356108D01*
X139164577Y-94356108D01*
X139164577Y-95778330D01*
G37*
G36*
X139307434Y-115178330D02*
G01*
X136458562Y-115178330D01*
X136458562Y-113967219D01*
X136569673Y-113967219D01*
X136569673Y-114967219D01*
X136571594Y-114986728D01*
X136586526Y-115022776D01*
X136614116Y-115050366D01*
X136650164Y-115065298D01*
X136669673Y-115067219D01*
X137145863Y-115067219D01*
X137165372Y-115065298D01*
X137201420Y-115050366D01*
X137229010Y-115022776D01*
X137243942Y-114986728D01*
X137243942Y-114947710D01*
X137229010Y-114911662D01*
X137201420Y-114884072D01*
X137165372Y-114869140D01*
X137145863Y-114867219D01*
X136769673Y-114867219D01*
X136769673Y-114543409D01*
X137003006Y-114543409D01*
X137022515Y-114541488D01*
X137058563Y-114526556D01*
X137086153Y-114498966D01*
X137101085Y-114462918D01*
X137101085Y-114423900D01*
X137086153Y-114387852D01*
X137058563Y-114360262D01*
X137022515Y-114345330D01*
X137003006Y-114343409D01*
X136769673Y-114343409D01*
X136769673Y-114157695D01*
X137426816Y-114157695D01*
X137426816Y-114252933D01*
X137428737Y-114272442D01*
X137430112Y-114275762D01*
X137430367Y-114279346D01*
X137437373Y-114297654D01*
X137484992Y-114392892D01*
X137490277Y-114401288D01*
X137491288Y-114403728D01*
X137493541Y-114406474D01*
X137495435Y-114409482D01*
X137497429Y-114411211D01*
X137503724Y-114418882D01*
X137551343Y-114466500D01*
X137559009Y-114472792D01*
X137560742Y-114474790D01*
X137563750Y-114476683D01*
X137566496Y-114478937D01*
X137568936Y-114479947D01*
X137577333Y-114485233D01*
X137672570Y-114532852D01*
X137673998Y-114533398D01*
X137674578Y-114533828D01*
X137682754Y-114536749D01*
X137690879Y-114539858D01*
X137691599Y-114539909D01*
X137693038Y-114540423D01*
X137872863Y-114585379D01*
X137943770Y-114620833D01*
X137968439Y-114645501D01*
X137998244Y-114705111D01*
X137998244Y-114753135D01*
X137968439Y-114812743D01*
X137943770Y-114837413D01*
X137884161Y-114867219D01*
X137685899Y-114867219D01*
X137558439Y-114824732D01*
X137539323Y-114820385D01*
X137500403Y-114823151D01*
X137465504Y-114840601D01*
X137439939Y-114870077D01*
X137427601Y-114907093D01*
X137430367Y-114946013D01*
X137447817Y-114980912D01*
X137477293Y-115006477D01*
X137495193Y-115014468D01*
X137638050Y-115062087D01*
X137647722Y-115064286D01*
X137650164Y-115065298D01*
X137653701Y-115065646D01*
X137657165Y-115066434D01*
X137659799Y-115066246D01*
X137669673Y-115067219D01*
X137907768Y-115067219D01*
X137927277Y-115065298D01*
X137930597Y-115063922D01*
X137934181Y-115063668D01*
X137952489Y-115056662D01*
X138047727Y-115009043D01*
X138056122Y-115003758D01*
X138058564Y-115002747D01*
X138061311Y-115000491D01*
X138064317Y-114998600D01*
X138066047Y-114996605D01*
X138073717Y-114990310D01*
X138121336Y-114942690D01*
X138127628Y-114935023D01*
X138129625Y-114933292D01*
X138131518Y-114930284D01*
X138133773Y-114927537D01*
X138134784Y-114925095D01*
X138140068Y-114916701D01*
X138187687Y-114821464D01*
X138194693Y-114803155D01*
X138194947Y-114799571D01*
X138196323Y-114796251D01*
X138198244Y-114776742D01*
X138198244Y-114681504D01*
X138196323Y-114661995D01*
X138194947Y-114658674D01*
X138194693Y-114655091D01*
X138187687Y-114636782D01*
X138140068Y-114541545D01*
X138134782Y-114533148D01*
X138133772Y-114530708D01*
X138131518Y-114527962D01*
X138129625Y-114524954D01*
X138127627Y-114523221D01*
X138121335Y-114515555D01*
X138073717Y-114467936D01*
X138066046Y-114461641D01*
X138064317Y-114459647D01*
X138061309Y-114457753D01*
X138058563Y-114455500D01*
X138056123Y-114454489D01*
X138047727Y-114449204D01*
X137952489Y-114401585D01*
X137951062Y-114401039D01*
X137950482Y-114400609D01*
X137942305Y-114397687D01*
X137937346Y-114395790D01*
X138379197Y-114395790D01*
X138379197Y-114538647D01*
X138379532Y-114542049D01*
X138379315Y-114543508D01*
X138380394Y-114550805D01*
X138381118Y-114558156D01*
X138381682Y-114559519D01*
X138382183Y-114562901D01*
X138429802Y-114753376D01*
X138430315Y-114754813D01*
X138430367Y-114755536D01*
X138433475Y-114763660D01*
X138436397Y-114771837D01*
X138436827Y-114772417D01*
X138437373Y-114773844D01*
X138484992Y-114869082D01*
X138490274Y-114877474D01*
X138491287Y-114879918D01*
X138493543Y-114882667D01*
X138495435Y-114885672D01*
X138497429Y-114887401D01*
X138503724Y-114895071D01*
X138598962Y-114990311D01*
X138614115Y-115002747D01*
X138617434Y-115004122D01*
X138620150Y-115006477D01*
X138638050Y-115014468D01*
X138780907Y-115062087D01*
X138790579Y-115064286D01*
X138793021Y-115065298D01*
X138796558Y-115065646D01*
X138800022Y-115066434D01*
X138802656Y-115066246D01*
X138812530Y-115067219D01*
X138907768Y-115067219D01*
X138917641Y-115066246D01*
X138920275Y-115066434D01*
X138923738Y-115065646D01*
X138927277Y-115065298D01*
X138929719Y-115064286D01*
X138939391Y-115062087D01*
X139082247Y-115014468D01*
X139100148Y-115006477D01*
X139102863Y-115004122D01*
X139106183Y-115002747D01*
X139121336Y-114990310D01*
X139168955Y-114942690D01*
X139181392Y-114927537D01*
X139196323Y-114891488D01*
X139196322Y-114852470D01*
X139181391Y-114816422D01*
X139153800Y-114788832D01*
X139117752Y-114773901D01*
X139078734Y-114773902D01*
X139042686Y-114788833D01*
X139027532Y-114801270D01*
X138996605Y-114832197D01*
X138891541Y-114867219D01*
X138828756Y-114867219D01*
X138723691Y-114832197D01*
X138656621Y-114765127D01*
X138621167Y-114694218D01*
X138579197Y-114526337D01*
X138579197Y-114408100D01*
X138621167Y-114240218D01*
X138656620Y-114169312D01*
X138723692Y-114102240D01*
X138828756Y-114067219D01*
X138891541Y-114067219D01*
X138996606Y-114102240D01*
X139027533Y-114133167D01*
X139042686Y-114145604D01*
X139078735Y-114160535D01*
X139117753Y-114160535D01*
X139153801Y-114145604D01*
X139181391Y-114118014D01*
X139196322Y-114081966D01*
X139196322Y-114042948D01*
X139181391Y-114006899D01*
X139168954Y-113991746D01*
X139121336Y-113944127D01*
X139106182Y-113931691D01*
X139102863Y-113930316D01*
X139100148Y-113927961D01*
X139082247Y-113919970D01*
X138939391Y-113872351D01*
X138929719Y-113870151D01*
X138927277Y-113869140D01*
X138923738Y-113868791D01*
X138920275Y-113868004D01*
X138917641Y-113868191D01*
X138907768Y-113867219D01*
X138812530Y-113867219D01*
X138802656Y-113868191D01*
X138800022Y-113868004D01*
X138796558Y-113868791D01*
X138793021Y-113869140D01*
X138790579Y-113870151D01*
X138780907Y-113872351D01*
X138638050Y-113919970D01*
X138620150Y-113927961D01*
X138617434Y-113930316D01*
X138614116Y-113931691D01*
X138598962Y-113944127D01*
X138503724Y-114039365D01*
X138497429Y-114047035D01*
X138495435Y-114048765D01*
X138493541Y-114051772D01*
X138491288Y-114054519D01*
X138490277Y-114056958D01*
X138484992Y-114065355D01*
X138437373Y-114160593D01*
X138436827Y-114162019D01*
X138436397Y-114162600D01*
X138433475Y-114170776D01*
X138430367Y-114178901D01*
X138430315Y-114179623D01*
X138429802Y-114181061D01*
X138382183Y-114371536D01*
X138381682Y-114374917D01*
X138381118Y-114376281D01*
X138380394Y-114383631D01*
X138379315Y-114390929D01*
X138379532Y-114392387D01*
X138379197Y-114395790D01*
X137937346Y-114395790D01*
X137934181Y-114394579D01*
X137933458Y-114394527D01*
X137932021Y-114394014D01*
X137752196Y-114349057D01*
X137681289Y-114313604D01*
X137656621Y-114288935D01*
X137626816Y-114229325D01*
X137626816Y-114181302D01*
X137656621Y-114121692D01*
X137681289Y-114097023D01*
X137740899Y-114067219D01*
X137939160Y-114067219D01*
X138066621Y-114109706D01*
X138085736Y-114114053D01*
X138124656Y-114111287D01*
X138159555Y-114093837D01*
X138185120Y-114064361D01*
X138197459Y-114027345D01*
X138194692Y-113988425D01*
X138177243Y-113953526D01*
X138147767Y-113927961D01*
X138129866Y-113919970D01*
X137987010Y-113872351D01*
X137977338Y-113870151D01*
X137974896Y-113869140D01*
X137971357Y-113868791D01*
X137967894Y-113868004D01*
X137965260Y-113868191D01*
X137955387Y-113867219D01*
X137717292Y-113867219D01*
X137697783Y-113869140D01*
X137694462Y-113870515D01*
X137690879Y-113870770D01*
X137672570Y-113877776D01*
X137577333Y-113925395D01*
X137568936Y-113930680D01*
X137566496Y-113931691D01*
X137563750Y-113933944D01*
X137560742Y-113935838D01*
X137559009Y-113937835D01*
X137551343Y-113944128D01*
X137503724Y-113991746D01*
X137497429Y-113999416D01*
X137495435Y-114001146D01*
X137493541Y-114004153D01*
X137491288Y-114006900D01*
X137490277Y-114009339D01*
X137484992Y-114017736D01*
X137437373Y-114112974D01*
X137430367Y-114131282D01*
X137430112Y-114134865D01*
X137428737Y-114138186D01*
X137426816Y-114157695D01*
X136769673Y-114157695D01*
X136769673Y-114067219D01*
X137145863Y-114067219D01*
X137165372Y-114065298D01*
X137201420Y-114050366D01*
X137229010Y-114022776D01*
X137243942Y-113986728D01*
X137243942Y-113947710D01*
X137229010Y-113911662D01*
X137201420Y-113884072D01*
X137165372Y-113869140D01*
X137145863Y-113867219D01*
X136669673Y-113867219D01*
X136650164Y-113869140D01*
X136614116Y-113884072D01*
X136586526Y-113911662D01*
X136571594Y-113947710D01*
X136569673Y-113967219D01*
X136458562Y-113967219D01*
X136458562Y-113756108D01*
X139307434Y-113756108D01*
X139307434Y-115178330D01*
G37*
G36*
X173686627Y-113497024D02*
G01*
X173711296Y-113521692D01*
X173741101Y-113581302D01*
X173741101Y-113676945D01*
X173711296Y-113736554D01*
X173686627Y-113761222D01*
X173627018Y-113791028D01*
X173369673Y-113791028D01*
X173369673Y-113467219D01*
X173627018Y-113467219D01*
X173686627Y-113497024D01*
G37*
G36*
X175859815Y-114578330D02*
G01*
X173058562Y-114578330D01*
X173058562Y-113367219D01*
X173169673Y-113367219D01*
X173169673Y-114367219D01*
X173171594Y-114386728D01*
X173186526Y-114422776D01*
X173214116Y-114450366D01*
X173250164Y-114465298D01*
X173289182Y-114465298D01*
X173325230Y-114450366D01*
X173352820Y-114422776D01*
X173367752Y-114386728D01*
X173369673Y-114367219D01*
X173369673Y-113991028D01*
X173455703Y-113991028D01*
X173759178Y-114424565D01*
X173771939Y-114439446D01*
X173804844Y-114460415D01*
X173843269Y-114467196D01*
X173881363Y-114458756D01*
X173913328Y-114436381D01*
X173934297Y-114403476D01*
X173941078Y-114365052D01*
X173932638Y-114326957D01*
X173923024Y-114309873D01*
X173693056Y-113981347D01*
X173695346Y-113980471D01*
X173790584Y-113932852D01*
X173798980Y-113927566D01*
X173801420Y-113926556D01*
X173804166Y-113924302D01*
X173807174Y-113922409D01*
X173808903Y-113920414D01*
X173816574Y-113914120D01*
X173864192Y-113866501D01*
X173870484Y-113858834D01*
X173872482Y-113857102D01*
X173874375Y-113854093D01*
X173876629Y-113851348D01*
X173877639Y-113848907D01*
X173882925Y-113840511D01*
X173930544Y-113745274D01*
X173937550Y-113726965D01*
X173937804Y-113723381D01*
X173939180Y-113720061D01*
X173941101Y-113700552D01*
X173941101Y-113557695D01*
X174122054Y-113557695D01*
X174122054Y-113652933D01*
X174123975Y-113672442D01*
X174125350Y-113675762D01*
X174125605Y-113679346D01*
X174132611Y-113697654D01*
X174180230Y-113792892D01*
X174185515Y-113801288D01*
X174186526Y-113803728D01*
X174188779Y-113806474D01*
X174190673Y-113809482D01*
X174192667Y-113811211D01*
X174198962Y-113818882D01*
X174246581Y-113866500D01*
X174254247Y-113872792D01*
X174255980Y-113874790D01*
X174258988Y-113876683D01*
X174261734Y-113878937D01*
X174264174Y-113879947D01*
X174272571Y-113885233D01*
X174367808Y-113932852D01*
X174369236Y-113933398D01*
X174369816Y-113933828D01*
X174377992Y-113936749D01*
X174386117Y-113939858D01*
X174386837Y-113939909D01*
X174388276Y-113940423D01*
X174568101Y-113985379D01*
X174639008Y-114020833D01*
X174663677Y-114045501D01*
X174693482Y-114105111D01*
X174693482Y-114153135D01*
X174663677Y-114212743D01*
X174639008Y-114237413D01*
X174579399Y-114267219D01*
X174381137Y-114267219D01*
X174253677Y-114224732D01*
X174234561Y-114220385D01*
X174195641Y-114223151D01*
X174160742Y-114240601D01*
X174135177Y-114270077D01*
X174122839Y-114307093D01*
X174125605Y-114346013D01*
X174143055Y-114380912D01*
X174172531Y-114406477D01*
X174190431Y-114414468D01*
X174333288Y-114462087D01*
X174342960Y-114464286D01*
X174345402Y-114465298D01*
X174348939Y-114465646D01*
X174352403Y-114466434D01*
X174355037Y-114466246D01*
X174364911Y-114467219D01*
X174603006Y-114467219D01*
X174622515Y-114465298D01*
X174625835Y-114463922D01*
X174629419Y-114463668D01*
X174647727Y-114456662D01*
X174742965Y-114409043D01*
X174751360Y-114403758D01*
X174753802Y-114402747D01*
X174756549Y-114400491D01*
X174759555Y-114398600D01*
X174761285Y-114396605D01*
X174768955Y-114390310D01*
X174816574Y-114342690D01*
X174822866Y-114335023D01*
X174824863Y-114333292D01*
X174826756Y-114330284D01*
X174829011Y-114327537D01*
X174830022Y-114325095D01*
X174835306Y-114316701D01*
X174882925Y-114221464D01*
X174889931Y-114203155D01*
X174890185Y-114199571D01*
X174891561Y-114196251D01*
X174893482Y-114176742D01*
X174893482Y-114081504D01*
X174891561Y-114061995D01*
X174890185Y-114058674D01*
X174889931Y-114055091D01*
X174882925Y-114036782D01*
X174835306Y-113941545D01*
X174830020Y-113933148D01*
X174829010Y-113930708D01*
X174826756Y-113927962D01*
X174824863Y-113924954D01*
X174822865Y-113923221D01*
X174816573Y-113915555D01*
X174768955Y-113867936D01*
X174761284Y-113861641D01*
X174759555Y-113859647D01*
X174756547Y-113857753D01*
X174753801Y-113855500D01*
X174751361Y-113854489D01*
X174742965Y-113849204D01*
X174647727Y-113801585D01*
X174646300Y-113801039D01*
X174645720Y-113800609D01*
X174637543Y-113797687D01*
X174629419Y-113794579D01*
X174628696Y-113794527D01*
X174627259Y-113794014D01*
X174447434Y-113749057D01*
X174376527Y-113713604D01*
X174351859Y-113688935D01*
X174322054Y-113629325D01*
X174322054Y-113581302D01*
X174351859Y-113521692D01*
X174376527Y-113497023D01*
X174436137Y-113467219D01*
X174634398Y-113467219D01*
X174761859Y-113509706D01*
X174780974Y-113514053D01*
X174819894Y-113511287D01*
X174854793Y-113493837D01*
X174880358Y-113464361D01*
X174892697Y-113427345D01*
X174889930Y-113388425D01*
X174872481Y-113353526D01*
X174865775Y-113347710D01*
X174981118Y-113347710D01*
X174981118Y-113386728D01*
X174996050Y-113422776D01*
X175023640Y-113450366D01*
X175059688Y-113465298D01*
X175079197Y-113467219D01*
X175264911Y-113467219D01*
X175264911Y-114367219D01*
X175266832Y-114386728D01*
X175281764Y-114422776D01*
X175309354Y-114450366D01*
X175345402Y-114465298D01*
X175384420Y-114465298D01*
X175420468Y-114450366D01*
X175448058Y-114422776D01*
X175462990Y-114386728D01*
X175464911Y-114367219D01*
X175464911Y-113467219D01*
X175650625Y-113467219D01*
X175670134Y-113465298D01*
X175706182Y-113450366D01*
X175733772Y-113422776D01*
X175748704Y-113386728D01*
X175748704Y-113347710D01*
X175733772Y-113311662D01*
X175706182Y-113284072D01*
X175670134Y-113269140D01*
X175650625Y-113267219D01*
X175079197Y-113267219D01*
X175059688Y-113269140D01*
X175023640Y-113284072D01*
X174996050Y-113311662D01*
X174981118Y-113347710D01*
X174865775Y-113347710D01*
X174843005Y-113327961D01*
X174825104Y-113319970D01*
X174682248Y-113272351D01*
X174672576Y-113270151D01*
X174670134Y-113269140D01*
X174666595Y-113268791D01*
X174663132Y-113268004D01*
X174660498Y-113268191D01*
X174650625Y-113267219D01*
X174412530Y-113267219D01*
X174393021Y-113269140D01*
X174389700Y-113270515D01*
X174386117Y-113270770D01*
X174367808Y-113277776D01*
X174272571Y-113325395D01*
X174264174Y-113330680D01*
X174261734Y-113331691D01*
X174258988Y-113333944D01*
X174255980Y-113335838D01*
X174254247Y-113337835D01*
X174246581Y-113344128D01*
X174198962Y-113391746D01*
X174192667Y-113399416D01*
X174190673Y-113401146D01*
X174188779Y-113404153D01*
X174186526Y-113406900D01*
X174185515Y-113409339D01*
X174180230Y-113417736D01*
X174132611Y-113512974D01*
X174125605Y-113531282D01*
X174125350Y-113534865D01*
X174123975Y-113538186D01*
X174122054Y-113557695D01*
X173941101Y-113557695D01*
X173939180Y-113538186D01*
X173937804Y-113534865D01*
X173937550Y-113531282D01*
X173930544Y-113512973D01*
X173882925Y-113417736D01*
X173877639Y-113409339D01*
X173876629Y-113406899D01*
X173874375Y-113404153D01*
X173872482Y-113401145D01*
X173870484Y-113399412D01*
X173864192Y-113391746D01*
X173816574Y-113344127D01*
X173808903Y-113337832D01*
X173807174Y-113335838D01*
X173804166Y-113333944D01*
X173801420Y-113331691D01*
X173798980Y-113330680D01*
X173790584Y-113325395D01*
X173695346Y-113277776D01*
X173677038Y-113270770D01*
X173673454Y-113270515D01*
X173670134Y-113269140D01*
X173650625Y-113267219D01*
X173269673Y-113267219D01*
X173250164Y-113269140D01*
X173214116Y-113284072D01*
X173186526Y-113311662D01*
X173171594Y-113347710D01*
X173169673Y-113367219D01*
X173058562Y-113367219D01*
X173058562Y-113156108D01*
X175859815Y-113156108D01*
X175859815Y-114578330D01*
G37*
D10*
X149363333Y-95274819D02*
X149030000Y-94798628D01*
X148791905Y-95274819D02*
X148791905Y-94274819D01*
X148791905Y-94274819D02*
X149172857Y-94274819D01*
X149172857Y-94274819D02*
X149268095Y-94322438D01*
X149268095Y-94322438D02*
X149315714Y-94370057D01*
X149315714Y-94370057D02*
X149363333Y-94465295D01*
X149363333Y-94465295D02*
X149363333Y-94608152D01*
X149363333Y-94608152D02*
X149315714Y-94703390D01*
X149315714Y-94703390D02*
X149268095Y-94751009D01*
X149268095Y-94751009D02*
X149172857Y-94798628D01*
X149172857Y-94798628D02*
X148791905Y-94798628D01*
X149744286Y-94370057D02*
X149791905Y-94322438D01*
X149791905Y-94322438D02*
X149887143Y-94274819D01*
X149887143Y-94274819D02*
X150125238Y-94274819D01*
X150125238Y-94274819D02*
X150220476Y-94322438D01*
X150220476Y-94322438D02*
X150268095Y-94370057D01*
X150268095Y-94370057D02*
X150315714Y-94465295D01*
X150315714Y-94465295D02*
X150315714Y-94560533D01*
X150315714Y-94560533D02*
X150268095Y-94703390D01*
X150268095Y-94703390D02*
X149696667Y-95274819D01*
X149696667Y-95274819D02*
X150315714Y-95274819D01*
X144533333Y-110824819D02*
X144200000Y-110348628D01*
X143961905Y-110824819D02*
X143961905Y-109824819D01*
X143961905Y-109824819D02*
X144342857Y-109824819D01*
X144342857Y-109824819D02*
X144438095Y-109872438D01*
X144438095Y-109872438D02*
X144485714Y-109920057D01*
X144485714Y-109920057D02*
X144533333Y-110015295D01*
X144533333Y-110015295D02*
X144533333Y-110158152D01*
X144533333Y-110158152D02*
X144485714Y-110253390D01*
X144485714Y-110253390D02*
X144438095Y-110301009D01*
X144438095Y-110301009D02*
X144342857Y-110348628D01*
X144342857Y-110348628D02*
X143961905Y-110348628D01*
X145485714Y-110824819D02*
X144914286Y-110824819D01*
X145200000Y-110824819D02*
X145200000Y-109824819D01*
X145200000Y-109824819D02*
X145104762Y-109967676D01*
X145104762Y-109967676D02*
X145009524Y-110062914D01*
X145009524Y-110062914D02*
X144914286Y-110110533D01*
X164423809Y-91278628D02*
X164423809Y-91754819D01*
X164090476Y-90754819D02*
X164423809Y-91278628D01*
X164423809Y-91278628D02*
X164757142Y-90754819D01*
X165042857Y-90850057D02*
X165090476Y-90802438D01*
X165090476Y-90802438D02*
X165185714Y-90754819D01*
X165185714Y-90754819D02*
X165423809Y-90754819D01*
X165423809Y-90754819D02*
X165519047Y-90802438D01*
X165519047Y-90802438D02*
X165566666Y-90850057D01*
X165566666Y-90850057D02*
X165614285Y-90945295D01*
X165614285Y-90945295D02*
X165614285Y-91040533D01*
X165614285Y-91040533D02*
X165566666Y-91183390D01*
X165566666Y-91183390D02*
X164995238Y-91754819D01*
X164995238Y-91754819D02*
X165614285Y-91754819D01*
X162138095Y-97554819D02*
X162138095Y-98364342D01*
X162138095Y-98364342D02*
X162185714Y-98459580D01*
X162185714Y-98459580D02*
X162233333Y-98507200D01*
X162233333Y-98507200D02*
X162328571Y-98554819D01*
X162328571Y-98554819D02*
X162519047Y-98554819D01*
X162519047Y-98554819D02*
X162614285Y-98507200D01*
X162614285Y-98507200D02*
X162661904Y-98459580D01*
X162661904Y-98459580D02*
X162709523Y-98364342D01*
X162709523Y-98364342D02*
X162709523Y-97554819D01*
X163138095Y-97650057D02*
X163185714Y-97602438D01*
X163185714Y-97602438D02*
X163280952Y-97554819D01*
X163280952Y-97554819D02*
X163519047Y-97554819D01*
X163519047Y-97554819D02*
X163614285Y-97602438D01*
X163614285Y-97602438D02*
X163661904Y-97650057D01*
X163661904Y-97650057D02*
X163709523Y-97745295D01*
X163709523Y-97745295D02*
X163709523Y-97840533D01*
X163709523Y-97840533D02*
X163661904Y-97983390D01*
X163661904Y-97983390D02*
X163090476Y-98554819D01*
X163090476Y-98554819D02*
X163709523Y-98554819D01*
X158094642Y-89954819D02*
X157761309Y-89478628D01*
X157523214Y-89954819D02*
X157523214Y-88954819D01*
X157523214Y-88954819D02*
X157904166Y-88954819D01*
X157904166Y-88954819D02*
X157999404Y-89002438D01*
X157999404Y-89002438D02*
X158047023Y-89050057D01*
X158047023Y-89050057D02*
X158094642Y-89145295D01*
X158094642Y-89145295D02*
X158094642Y-89288152D01*
X158094642Y-89288152D02*
X158047023Y-89383390D01*
X158047023Y-89383390D02*
X157999404Y-89431009D01*
X157999404Y-89431009D02*
X157904166Y-89478628D01*
X157904166Y-89478628D02*
X157523214Y-89478628D01*
X159047023Y-89954819D02*
X158475595Y-89954819D01*
X158761309Y-89954819D02*
X158761309Y-88954819D01*
X158761309Y-88954819D02*
X158666071Y-89097676D01*
X158666071Y-89097676D02*
X158570833Y-89192914D01*
X158570833Y-89192914D02*
X158475595Y-89240533D01*
X159427976Y-89050057D02*
X159475595Y-89002438D01*
X159475595Y-89002438D02*
X159570833Y-88954819D01*
X159570833Y-88954819D02*
X159808928Y-88954819D01*
X159808928Y-88954819D02*
X159904166Y-89002438D01*
X159904166Y-89002438D02*
X159951785Y-89050057D01*
X159951785Y-89050057D02*
X159999404Y-89145295D01*
X159999404Y-89145295D02*
X159999404Y-89240533D01*
X159999404Y-89240533D02*
X159951785Y-89383390D01*
X159951785Y-89383390D02*
X159380357Y-89954819D01*
X159380357Y-89954819D02*
X159999404Y-89954819D01*
X145382142Y-107489580D02*
X145334523Y-107537200D01*
X145334523Y-107537200D02*
X145191666Y-107584819D01*
X145191666Y-107584819D02*
X145096428Y-107584819D01*
X145096428Y-107584819D02*
X144953571Y-107537200D01*
X144953571Y-107537200D02*
X144858333Y-107441961D01*
X144858333Y-107441961D02*
X144810714Y-107346723D01*
X144810714Y-107346723D02*
X144763095Y-107156247D01*
X144763095Y-107156247D02*
X144763095Y-107013390D01*
X144763095Y-107013390D02*
X144810714Y-106822914D01*
X144810714Y-106822914D02*
X144858333Y-106727676D01*
X144858333Y-106727676D02*
X144953571Y-106632438D01*
X144953571Y-106632438D02*
X145096428Y-106584819D01*
X145096428Y-106584819D02*
X145191666Y-106584819D01*
X145191666Y-106584819D02*
X145334523Y-106632438D01*
X145334523Y-106632438D02*
X145382142Y-106680057D01*
X146334523Y-107584819D02*
X145763095Y-107584819D01*
X146048809Y-107584819D02*
X146048809Y-106584819D01*
X146048809Y-106584819D02*
X145953571Y-106727676D01*
X145953571Y-106727676D02*
X145858333Y-106822914D01*
X145858333Y-106822914D02*
X145763095Y-106870533D01*
X147286904Y-107584819D02*
X146715476Y-107584819D01*
X147001190Y-107584819D02*
X147001190Y-106584819D01*
X147001190Y-106584819D02*
X146905952Y-106727676D01*
X146905952Y-106727676D02*
X146810714Y-106822914D01*
X146810714Y-106822914D02*
X146715476Y-106870533D01*
X151594642Y-96319580D02*
X151547023Y-96367200D01*
X151547023Y-96367200D02*
X151404166Y-96414819D01*
X151404166Y-96414819D02*
X151308928Y-96414819D01*
X151308928Y-96414819D02*
X151166071Y-96367200D01*
X151166071Y-96367200D02*
X151070833Y-96271961D01*
X151070833Y-96271961D02*
X151023214Y-96176723D01*
X151023214Y-96176723D02*
X150975595Y-95986247D01*
X150975595Y-95986247D02*
X150975595Y-95843390D01*
X150975595Y-95843390D02*
X151023214Y-95652914D01*
X151023214Y-95652914D02*
X151070833Y-95557676D01*
X151070833Y-95557676D02*
X151166071Y-95462438D01*
X151166071Y-95462438D02*
X151308928Y-95414819D01*
X151308928Y-95414819D02*
X151404166Y-95414819D01*
X151404166Y-95414819D02*
X151547023Y-95462438D01*
X151547023Y-95462438D02*
X151594642Y-95510057D01*
X151975595Y-95510057D02*
X152023214Y-95462438D01*
X152023214Y-95462438D02*
X152118452Y-95414819D01*
X152118452Y-95414819D02*
X152356547Y-95414819D01*
X152356547Y-95414819D02*
X152451785Y-95462438D01*
X152451785Y-95462438D02*
X152499404Y-95510057D01*
X152499404Y-95510057D02*
X152547023Y-95605295D01*
X152547023Y-95605295D02*
X152547023Y-95700533D01*
X152547023Y-95700533D02*
X152499404Y-95843390D01*
X152499404Y-95843390D02*
X151927976Y-96414819D01*
X151927976Y-96414819D02*
X152547023Y-96414819D01*
X153404166Y-95748152D02*
X153404166Y-96414819D01*
X153166071Y-95367200D02*
X152927976Y-96081485D01*
X152927976Y-96081485D02*
X153547023Y-96081485D01*
X148557142Y-93159580D02*
X148509523Y-93207200D01*
X148509523Y-93207200D02*
X148366666Y-93254819D01*
X148366666Y-93254819D02*
X148271428Y-93254819D01*
X148271428Y-93254819D02*
X148128571Y-93207200D01*
X148128571Y-93207200D02*
X148033333Y-93111961D01*
X148033333Y-93111961D02*
X147985714Y-93016723D01*
X147985714Y-93016723D02*
X147938095Y-92826247D01*
X147938095Y-92826247D02*
X147938095Y-92683390D01*
X147938095Y-92683390D02*
X147985714Y-92492914D01*
X147985714Y-92492914D02*
X148033333Y-92397676D01*
X148033333Y-92397676D02*
X148128571Y-92302438D01*
X148128571Y-92302438D02*
X148271428Y-92254819D01*
X148271428Y-92254819D02*
X148366666Y-92254819D01*
X148366666Y-92254819D02*
X148509523Y-92302438D01*
X148509523Y-92302438D02*
X148557142Y-92350057D01*
X148938095Y-92350057D02*
X148985714Y-92302438D01*
X148985714Y-92302438D02*
X149080952Y-92254819D01*
X149080952Y-92254819D02*
X149319047Y-92254819D01*
X149319047Y-92254819D02*
X149414285Y-92302438D01*
X149414285Y-92302438D02*
X149461904Y-92350057D01*
X149461904Y-92350057D02*
X149509523Y-92445295D01*
X149509523Y-92445295D02*
X149509523Y-92540533D01*
X149509523Y-92540533D02*
X149461904Y-92683390D01*
X149461904Y-92683390D02*
X148890476Y-93254819D01*
X148890476Y-93254819D02*
X149509523Y-93254819D01*
X149890476Y-92350057D02*
X149938095Y-92302438D01*
X149938095Y-92302438D02*
X150033333Y-92254819D01*
X150033333Y-92254819D02*
X150271428Y-92254819D01*
X150271428Y-92254819D02*
X150366666Y-92302438D01*
X150366666Y-92302438D02*
X150414285Y-92350057D01*
X150414285Y-92350057D02*
X150461904Y-92445295D01*
X150461904Y-92445295D02*
X150461904Y-92540533D01*
X150461904Y-92540533D02*
X150414285Y-92683390D01*
X150414285Y-92683390D02*
X149842857Y-93254819D01*
X149842857Y-93254819D02*
X150461904Y-93254819D01*
X152761904Y-87531009D02*
X152428571Y-87531009D01*
X152428571Y-88054819D02*
X152428571Y-87054819D01*
X152428571Y-87054819D02*
X152904761Y-87054819D01*
X153761904Y-88054819D02*
X153285714Y-88054819D01*
X153285714Y-88054819D02*
X153285714Y-87054819D01*
X154619047Y-88054819D02*
X154047619Y-88054819D01*
X154333333Y-88054819D02*
X154333333Y-87054819D01*
X154333333Y-87054819D02*
X154238095Y-87197676D01*
X154238095Y-87197676D02*
X154142857Y-87292914D01*
X154142857Y-87292914D02*
X154047619Y-87340533D01*
X163657142Y-89259580D02*
X163609523Y-89307200D01*
X163609523Y-89307200D02*
X163466666Y-89354819D01*
X163466666Y-89354819D02*
X163371428Y-89354819D01*
X163371428Y-89354819D02*
X163228571Y-89307200D01*
X163228571Y-89307200D02*
X163133333Y-89211961D01*
X163133333Y-89211961D02*
X163085714Y-89116723D01*
X163085714Y-89116723D02*
X163038095Y-88926247D01*
X163038095Y-88926247D02*
X163038095Y-88783390D01*
X163038095Y-88783390D02*
X163085714Y-88592914D01*
X163085714Y-88592914D02*
X163133333Y-88497676D01*
X163133333Y-88497676D02*
X163228571Y-88402438D01*
X163228571Y-88402438D02*
X163371428Y-88354819D01*
X163371428Y-88354819D02*
X163466666Y-88354819D01*
X163466666Y-88354819D02*
X163609523Y-88402438D01*
X163609523Y-88402438D02*
X163657142Y-88450057D01*
X164038095Y-88450057D02*
X164085714Y-88402438D01*
X164085714Y-88402438D02*
X164180952Y-88354819D01*
X164180952Y-88354819D02*
X164419047Y-88354819D01*
X164419047Y-88354819D02*
X164514285Y-88402438D01*
X164514285Y-88402438D02*
X164561904Y-88450057D01*
X164561904Y-88450057D02*
X164609523Y-88545295D01*
X164609523Y-88545295D02*
X164609523Y-88640533D01*
X164609523Y-88640533D02*
X164561904Y-88783390D01*
X164561904Y-88783390D02*
X163990476Y-89354819D01*
X163990476Y-89354819D02*
X164609523Y-89354819D01*
X165466666Y-88354819D02*
X165276190Y-88354819D01*
X165276190Y-88354819D02*
X165180952Y-88402438D01*
X165180952Y-88402438D02*
X165133333Y-88450057D01*
X165133333Y-88450057D02*
X165038095Y-88592914D01*
X165038095Y-88592914D02*
X164990476Y-88783390D01*
X164990476Y-88783390D02*
X164990476Y-89164342D01*
X164990476Y-89164342D02*
X165038095Y-89259580D01*
X165038095Y-89259580D02*
X165085714Y-89307200D01*
X165085714Y-89307200D02*
X165180952Y-89354819D01*
X165180952Y-89354819D02*
X165371428Y-89354819D01*
X165371428Y-89354819D02*
X165466666Y-89307200D01*
X165466666Y-89307200D02*
X165514285Y-89259580D01*
X165514285Y-89259580D02*
X165561904Y-89164342D01*
X165561904Y-89164342D02*
X165561904Y-88926247D01*
X165561904Y-88926247D02*
X165514285Y-88831009D01*
X165514285Y-88831009D02*
X165466666Y-88783390D01*
X165466666Y-88783390D02*
X165371428Y-88735771D01*
X165371428Y-88735771D02*
X165180952Y-88735771D01*
X165180952Y-88735771D02*
X165085714Y-88783390D01*
X165085714Y-88783390D02*
X165038095Y-88831009D01*
X165038095Y-88831009D02*
X164990476Y-88926247D01*
X168557142Y-101559580D02*
X168509523Y-101607200D01*
X168509523Y-101607200D02*
X168366666Y-101654819D01*
X168366666Y-101654819D02*
X168271428Y-101654819D01*
X168271428Y-101654819D02*
X168128571Y-101607200D01*
X168128571Y-101607200D02*
X168033333Y-101511961D01*
X168033333Y-101511961D02*
X167985714Y-101416723D01*
X167985714Y-101416723D02*
X167938095Y-101226247D01*
X167938095Y-101226247D02*
X167938095Y-101083390D01*
X167938095Y-101083390D02*
X167985714Y-100892914D01*
X167985714Y-100892914D02*
X168033333Y-100797676D01*
X168033333Y-100797676D02*
X168128571Y-100702438D01*
X168128571Y-100702438D02*
X168271428Y-100654819D01*
X168271428Y-100654819D02*
X168366666Y-100654819D01*
X168366666Y-100654819D02*
X168509523Y-100702438D01*
X168509523Y-100702438D02*
X168557142Y-100750057D01*
X169509523Y-101654819D02*
X168938095Y-101654819D01*
X169223809Y-101654819D02*
X169223809Y-100654819D01*
X169223809Y-100654819D02*
X169128571Y-100797676D01*
X169128571Y-100797676D02*
X169033333Y-100892914D01*
X169033333Y-100892914D02*
X168938095Y-100940533D01*
X170366666Y-100988152D02*
X170366666Y-101654819D01*
X170128571Y-100607200D02*
X169890476Y-101321485D01*
X169890476Y-101321485D02*
X170509523Y-101321485D01*
X161538095Y-109329818D02*
X161538095Y-110139341D01*
X161538095Y-110139341D02*
X161585714Y-110234579D01*
X161585714Y-110234579D02*
X161633333Y-110282199D01*
X161633333Y-110282199D02*
X161728571Y-110329818D01*
X161728571Y-110329818D02*
X161919047Y-110329818D01*
X161919047Y-110329818D02*
X162014285Y-110282199D01*
X162014285Y-110282199D02*
X162061904Y-110234579D01*
X162061904Y-110234579D02*
X162109523Y-110139341D01*
X162109523Y-110139341D02*
X162109523Y-109329818D01*
X163014285Y-109329818D02*
X162823809Y-109329818D01*
X162823809Y-109329818D02*
X162728571Y-109377437D01*
X162728571Y-109377437D02*
X162680952Y-109425056D01*
X162680952Y-109425056D02*
X162585714Y-109567913D01*
X162585714Y-109567913D02*
X162538095Y-109758389D01*
X162538095Y-109758389D02*
X162538095Y-110139341D01*
X162538095Y-110139341D02*
X162585714Y-110234579D01*
X162585714Y-110234579D02*
X162633333Y-110282199D01*
X162633333Y-110282199D02*
X162728571Y-110329818D01*
X162728571Y-110329818D02*
X162919047Y-110329818D01*
X162919047Y-110329818D02*
X163014285Y-110282199D01*
X163014285Y-110282199D02*
X163061904Y-110234579D01*
X163061904Y-110234579D02*
X163109523Y-110139341D01*
X163109523Y-110139341D02*
X163109523Y-109901246D01*
X163109523Y-109901246D02*
X163061904Y-109806008D01*
X163061904Y-109806008D02*
X163014285Y-109758389D01*
X163014285Y-109758389D02*
X162919047Y-109710770D01*
X162919047Y-109710770D02*
X162728571Y-109710770D01*
X162728571Y-109710770D02*
X162633333Y-109758389D01*
X162633333Y-109758389D02*
X162585714Y-109806008D01*
X162585714Y-109806008D02*
X162538095Y-109901246D01*
X151667142Y-89554819D02*
X151333809Y-89078628D01*
X151095714Y-89554819D02*
X151095714Y-88554819D01*
X151095714Y-88554819D02*
X151476666Y-88554819D01*
X151476666Y-88554819D02*
X151571904Y-88602438D01*
X151571904Y-88602438D02*
X151619523Y-88650057D01*
X151619523Y-88650057D02*
X151667142Y-88745295D01*
X151667142Y-88745295D02*
X151667142Y-88888152D01*
X151667142Y-88888152D02*
X151619523Y-88983390D01*
X151619523Y-88983390D02*
X151571904Y-89031009D01*
X151571904Y-89031009D02*
X151476666Y-89078628D01*
X151476666Y-89078628D02*
X151095714Y-89078628D01*
X152619523Y-89554819D02*
X152048095Y-89554819D01*
X152333809Y-89554819D02*
X152333809Y-88554819D01*
X152333809Y-88554819D02*
X152238571Y-88697676D01*
X152238571Y-88697676D02*
X152143333Y-88792914D01*
X152143333Y-88792914D02*
X152048095Y-88840533D01*
X153571904Y-89554819D02*
X153000476Y-89554819D01*
X153286190Y-89554819D02*
X153286190Y-88554819D01*
X153286190Y-88554819D02*
X153190952Y-88697676D01*
X153190952Y-88697676D02*
X153095714Y-88792914D01*
X153095714Y-88792914D02*
X153000476Y-88840533D01*
X159957142Y-88159580D02*
X159909523Y-88207200D01*
X159909523Y-88207200D02*
X159766666Y-88254819D01*
X159766666Y-88254819D02*
X159671428Y-88254819D01*
X159671428Y-88254819D02*
X159528571Y-88207200D01*
X159528571Y-88207200D02*
X159433333Y-88111961D01*
X159433333Y-88111961D02*
X159385714Y-88016723D01*
X159385714Y-88016723D02*
X159338095Y-87826247D01*
X159338095Y-87826247D02*
X159338095Y-87683390D01*
X159338095Y-87683390D02*
X159385714Y-87492914D01*
X159385714Y-87492914D02*
X159433333Y-87397676D01*
X159433333Y-87397676D02*
X159528571Y-87302438D01*
X159528571Y-87302438D02*
X159671428Y-87254819D01*
X159671428Y-87254819D02*
X159766666Y-87254819D01*
X159766666Y-87254819D02*
X159909523Y-87302438D01*
X159909523Y-87302438D02*
X159957142Y-87350057D01*
X160338095Y-87350057D02*
X160385714Y-87302438D01*
X160385714Y-87302438D02*
X160480952Y-87254819D01*
X160480952Y-87254819D02*
X160719047Y-87254819D01*
X160719047Y-87254819D02*
X160814285Y-87302438D01*
X160814285Y-87302438D02*
X160861904Y-87350057D01*
X160861904Y-87350057D02*
X160909523Y-87445295D01*
X160909523Y-87445295D02*
X160909523Y-87540533D01*
X160909523Y-87540533D02*
X160861904Y-87683390D01*
X160861904Y-87683390D02*
X160290476Y-88254819D01*
X160290476Y-88254819D02*
X160909523Y-88254819D01*
X161242857Y-87254819D02*
X161861904Y-87254819D01*
X161861904Y-87254819D02*
X161528571Y-87635771D01*
X161528571Y-87635771D02*
X161671428Y-87635771D01*
X161671428Y-87635771D02*
X161766666Y-87683390D01*
X161766666Y-87683390D02*
X161814285Y-87731009D01*
X161814285Y-87731009D02*
X161861904Y-87826247D01*
X161861904Y-87826247D02*
X161861904Y-88064342D01*
X161861904Y-88064342D02*
X161814285Y-88159580D01*
X161814285Y-88159580D02*
X161766666Y-88207200D01*
X161766666Y-88207200D02*
X161671428Y-88254819D01*
X161671428Y-88254819D02*
X161385714Y-88254819D01*
X161385714Y-88254819D02*
X161290476Y-88207200D01*
X161290476Y-88207200D02*
X161242857Y-88159580D01*
X163857142Y-94659580D02*
X163809523Y-94707200D01*
X163809523Y-94707200D02*
X163666666Y-94754819D01*
X163666666Y-94754819D02*
X163571428Y-94754819D01*
X163571428Y-94754819D02*
X163428571Y-94707200D01*
X163428571Y-94707200D02*
X163333333Y-94611961D01*
X163333333Y-94611961D02*
X163285714Y-94516723D01*
X163285714Y-94516723D02*
X163238095Y-94326247D01*
X163238095Y-94326247D02*
X163238095Y-94183390D01*
X163238095Y-94183390D02*
X163285714Y-93992914D01*
X163285714Y-93992914D02*
X163333333Y-93897676D01*
X163333333Y-93897676D02*
X163428571Y-93802438D01*
X163428571Y-93802438D02*
X163571428Y-93754819D01*
X163571428Y-93754819D02*
X163666666Y-93754819D01*
X163666666Y-93754819D02*
X163809523Y-93802438D01*
X163809523Y-93802438D02*
X163857142Y-93850057D01*
X164238095Y-93850057D02*
X164285714Y-93802438D01*
X164285714Y-93802438D02*
X164380952Y-93754819D01*
X164380952Y-93754819D02*
X164619047Y-93754819D01*
X164619047Y-93754819D02*
X164714285Y-93802438D01*
X164714285Y-93802438D02*
X164761904Y-93850057D01*
X164761904Y-93850057D02*
X164809523Y-93945295D01*
X164809523Y-93945295D02*
X164809523Y-94040533D01*
X164809523Y-94040533D02*
X164761904Y-94183390D01*
X164761904Y-94183390D02*
X164190476Y-94754819D01*
X164190476Y-94754819D02*
X164809523Y-94754819D01*
X165714285Y-93754819D02*
X165238095Y-93754819D01*
X165238095Y-93754819D02*
X165190476Y-94231009D01*
X165190476Y-94231009D02*
X165238095Y-94183390D01*
X165238095Y-94183390D02*
X165333333Y-94135771D01*
X165333333Y-94135771D02*
X165571428Y-94135771D01*
X165571428Y-94135771D02*
X165666666Y-94183390D01*
X165666666Y-94183390D02*
X165714285Y-94231009D01*
X165714285Y-94231009D02*
X165761904Y-94326247D01*
X165761904Y-94326247D02*
X165761904Y-94564342D01*
X165761904Y-94564342D02*
X165714285Y-94659580D01*
X165714285Y-94659580D02*
X165666666Y-94707200D01*
X165666666Y-94707200D02*
X165571428Y-94754819D01*
X165571428Y-94754819D02*
X165333333Y-94754819D01*
X165333333Y-94754819D02*
X165238095Y-94707200D01*
X165238095Y-94707200D02*
X165190476Y-94659580D01*
X158438095Y-93954819D02*
X158438095Y-94764342D01*
X158438095Y-94764342D02*
X158485714Y-94859580D01*
X158485714Y-94859580D02*
X158533333Y-94907200D01*
X158533333Y-94907200D02*
X158628571Y-94954819D01*
X158628571Y-94954819D02*
X158819047Y-94954819D01*
X158819047Y-94954819D02*
X158914285Y-94907200D01*
X158914285Y-94907200D02*
X158961904Y-94859580D01*
X158961904Y-94859580D02*
X159009523Y-94764342D01*
X159009523Y-94764342D02*
X159009523Y-93954819D01*
X159390476Y-93954819D02*
X160057142Y-93954819D01*
X160057142Y-93954819D02*
X159628571Y-94954819D01*
X167557142Y-94859580D02*
X167509523Y-94907200D01*
X167509523Y-94907200D02*
X167366666Y-94954819D01*
X167366666Y-94954819D02*
X167271428Y-94954819D01*
X167271428Y-94954819D02*
X167128571Y-94907200D01*
X167128571Y-94907200D02*
X167033333Y-94811961D01*
X167033333Y-94811961D02*
X166985714Y-94716723D01*
X166985714Y-94716723D02*
X166938095Y-94526247D01*
X166938095Y-94526247D02*
X166938095Y-94383390D01*
X166938095Y-94383390D02*
X166985714Y-94192914D01*
X166985714Y-94192914D02*
X167033333Y-94097676D01*
X167033333Y-94097676D02*
X167128571Y-94002438D01*
X167128571Y-94002438D02*
X167271428Y-93954819D01*
X167271428Y-93954819D02*
X167366666Y-93954819D01*
X167366666Y-93954819D02*
X167509523Y-94002438D01*
X167509523Y-94002438D02*
X167557142Y-94050057D01*
X168509523Y-94954819D02*
X167938095Y-94954819D01*
X168223809Y-94954819D02*
X168223809Y-93954819D01*
X168223809Y-93954819D02*
X168128571Y-94097676D01*
X168128571Y-94097676D02*
X168033333Y-94192914D01*
X168033333Y-94192914D02*
X167938095Y-94240533D01*
X168842857Y-93954819D02*
X169461904Y-93954819D01*
X169461904Y-93954819D02*
X169128571Y-94335771D01*
X169128571Y-94335771D02*
X169271428Y-94335771D01*
X169271428Y-94335771D02*
X169366666Y-94383390D01*
X169366666Y-94383390D02*
X169414285Y-94431009D01*
X169414285Y-94431009D02*
X169461904Y-94526247D01*
X169461904Y-94526247D02*
X169461904Y-94764342D01*
X169461904Y-94764342D02*
X169414285Y-94859580D01*
X169414285Y-94859580D02*
X169366666Y-94907200D01*
X169366666Y-94907200D02*
X169271428Y-94954819D01*
X169271428Y-94954819D02*
X168985714Y-94954819D01*
X168985714Y-94954819D02*
X168890476Y-94907200D01*
X168890476Y-94907200D02*
X168842857Y-94859580D01*
X136961905Y-100154819D02*
X136961905Y-99154819D01*
X136961905Y-99154819D02*
X137200000Y-99154819D01*
X137200000Y-99154819D02*
X137342857Y-99202438D01*
X137342857Y-99202438D02*
X137438095Y-99297676D01*
X137438095Y-99297676D02*
X137485714Y-99392914D01*
X137485714Y-99392914D02*
X137533333Y-99583390D01*
X137533333Y-99583390D02*
X137533333Y-99726247D01*
X137533333Y-99726247D02*
X137485714Y-99916723D01*
X137485714Y-99916723D02*
X137438095Y-100011961D01*
X137438095Y-100011961D02*
X137342857Y-100107200D01*
X137342857Y-100107200D02*
X137200000Y-100154819D01*
X137200000Y-100154819D02*
X136961905Y-100154819D01*
X138390476Y-99488152D02*
X138390476Y-100154819D01*
X138152381Y-99107200D02*
X137914286Y-99821485D01*
X137914286Y-99821485D02*
X138533333Y-99821485D01*
X163738095Y-102254819D02*
X163738095Y-103064342D01*
X163738095Y-103064342D02*
X163785714Y-103159580D01*
X163785714Y-103159580D02*
X163833333Y-103207200D01*
X163833333Y-103207200D02*
X163928571Y-103254819D01*
X163928571Y-103254819D02*
X164119047Y-103254819D01*
X164119047Y-103254819D02*
X164214285Y-103207200D01*
X164214285Y-103207200D02*
X164261904Y-103159580D01*
X164261904Y-103159580D02*
X164309523Y-103064342D01*
X164309523Y-103064342D02*
X164309523Y-102254819D01*
X164690476Y-102254819D02*
X165309523Y-102254819D01*
X165309523Y-102254819D02*
X164976190Y-102635771D01*
X164976190Y-102635771D02*
X165119047Y-102635771D01*
X165119047Y-102635771D02*
X165214285Y-102683390D01*
X165214285Y-102683390D02*
X165261904Y-102731009D01*
X165261904Y-102731009D02*
X165309523Y-102826247D01*
X165309523Y-102826247D02*
X165309523Y-103064342D01*
X165309523Y-103064342D02*
X165261904Y-103159580D01*
X165261904Y-103159580D02*
X165214285Y-103207200D01*
X165214285Y-103207200D02*
X165119047Y-103254819D01*
X165119047Y-103254819D02*
X164833333Y-103254819D01*
X164833333Y-103254819D02*
X164738095Y-103207200D01*
X164738095Y-103207200D02*
X164690476Y-103159580D01*
X168557142Y-103159580D02*
X168509523Y-103207200D01*
X168509523Y-103207200D02*
X168366666Y-103254819D01*
X168366666Y-103254819D02*
X168271428Y-103254819D01*
X168271428Y-103254819D02*
X168128571Y-103207200D01*
X168128571Y-103207200D02*
X168033333Y-103111961D01*
X168033333Y-103111961D02*
X167985714Y-103016723D01*
X167985714Y-103016723D02*
X167938095Y-102826247D01*
X167938095Y-102826247D02*
X167938095Y-102683390D01*
X167938095Y-102683390D02*
X167985714Y-102492914D01*
X167985714Y-102492914D02*
X168033333Y-102397676D01*
X168033333Y-102397676D02*
X168128571Y-102302438D01*
X168128571Y-102302438D02*
X168271428Y-102254819D01*
X168271428Y-102254819D02*
X168366666Y-102254819D01*
X168366666Y-102254819D02*
X168509523Y-102302438D01*
X168509523Y-102302438D02*
X168557142Y-102350057D01*
X169509523Y-103254819D02*
X168938095Y-103254819D01*
X169223809Y-103254819D02*
X169223809Y-102254819D01*
X169223809Y-102254819D02*
X169128571Y-102397676D01*
X169128571Y-102397676D02*
X169033333Y-102492914D01*
X169033333Y-102492914D02*
X168938095Y-102540533D01*
X170414285Y-102254819D02*
X169938095Y-102254819D01*
X169938095Y-102254819D02*
X169890476Y-102731009D01*
X169890476Y-102731009D02*
X169938095Y-102683390D01*
X169938095Y-102683390D02*
X170033333Y-102635771D01*
X170033333Y-102635771D02*
X170271428Y-102635771D01*
X170271428Y-102635771D02*
X170366666Y-102683390D01*
X170366666Y-102683390D02*
X170414285Y-102731009D01*
X170414285Y-102731009D02*
X170461904Y-102826247D01*
X170461904Y-102826247D02*
X170461904Y-103064342D01*
X170461904Y-103064342D02*
X170414285Y-103159580D01*
X170414285Y-103159580D02*
X170366666Y-103207200D01*
X170366666Y-103207200D02*
X170271428Y-103254819D01*
X170271428Y-103254819D02*
X170033333Y-103254819D01*
X170033333Y-103254819D02*
X169938095Y-103207200D01*
X169938095Y-103207200D02*
X169890476Y-103159580D01*
X148557142Y-91559580D02*
X148509523Y-91607200D01*
X148509523Y-91607200D02*
X148366666Y-91654819D01*
X148366666Y-91654819D02*
X148271428Y-91654819D01*
X148271428Y-91654819D02*
X148128571Y-91607200D01*
X148128571Y-91607200D02*
X148033333Y-91511961D01*
X148033333Y-91511961D02*
X147985714Y-91416723D01*
X147985714Y-91416723D02*
X147938095Y-91226247D01*
X147938095Y-91226247D02*
X147938095Y-91083390D01*
X147938095Y-91083390D02*
X147985714Y-90892914D01*
X147985714Y-90892914D02*
X148033333Y-90797676D01*
X148033333Y-90797676D02*
X148128571Y-90702438D01*
X148128571Y-90702438D02*
X148271428Y-90654819D01*
X148271428Y-90654819D02*
X148366666Y-90654819D01*
X148366666Y-90654819D02*
X148509523Y-90702438D01*
X148509523Y-90702438D02*
X148557142Y-90750057D01*
X148938095Y-90750057D02*
X148985714Y-90702438D01*
X148985714Y-90702438D02*
X149080952Y-90654819D01*
X149080952Y-90654819D02*
X149319047Y-90654819D01*
X149319047Y-90654819D02*
X149414285Y-90702438D01*
X149414285Y-90702438D02*
X149461904Y-90750057D01*
X149461904Y-90750057D02*
X149509523Y-90845295D01*
X149509523Y-90845295D02*
X149509523Y-90940533D01*
X149509523Y-90940533D02*
X149461904Y-91083390D01*
X149461904Y-91083390D02*
X148890476Y-91654819D01*
X148890476Y-91654819D02*
X149509523Y-91654819D01*
X150461904Y-91654819D02*
X149890476Y-91654819D01*
X150176190Y-91654819D02*
X150176190Y-90654819D01*
X150176190Y-90654819D02*
X150080952Y-90797676D01*
X150080952Y-90797676D02*
X149985714Y-90892914D01*
X149985714Y-90892914D02*
X149890476Y-90940533D01*
X145382142Y-96259580D02*
X145334523Y-96307200D01*
X145334523Y-96307200D02*
X145191666Y-96354819D01*
X145191666Y-96354819D02*
X145096428Y-96354819D01*
X145096428Y-96354819D02*
X144953571Y-96307200D01*
X144953571Y-96307200D02*
X144858333Y-96211961D01*
X144858333Y-96211961D02*
X144810714Y-96116723D01*
X144810714Y-96116723D02*
X144763095Y-95926247D01*
X144763095Y-95926247D02*
X144763095Y-95783390D01*
X144763095Y-95783390D02*
X144810714Y-95592914D01*
X144810714Y-95592914D02*
X144858333Y-95497676D01*
X144858333Y-95497676D02*
X144953571Y-95402438D01*
X144953571Y-95402438D02*
X145096428Y-95354819D01*
X145096428Y-95354819D02*
X145191666Y-95354819D01*
X145191666Y-95354819D02*
X145334523Y-95402438D01*
X145334523Y-95402438D02*
X145382142Y-95450057D01*
X146334523Y-96354819D02*
X145763095Y-96354819D01*
X146048809Y-96354819D02*
X146048809Y-95354819D01*
X146048809Y-95354819D02*
X145953571Y-95497676D01*
X145953571Y-95497676D02*
X145858333Y-95592914D01*
X145858333Y-95592914D02*
X145763095Y-95640533D01*
X146953571Y-95354819D02*
X147048809Y-95354819D01*
X147048809Y-95354819D02*
X147144047Y-95402438D01*
X147144047Y-95402438D02*
X147191666Y-95450057D01*
X147191666Y-95450057D02*
X147239285Y-95545295D01*
X147239285Y-95545295D02*
X147286904Y-95735771D01*
X147286904Y-95735771D02*
X147286904Y-95973866D01*
X147286904Y-95973866D02*
X147239285Y-96164342D01*
X147239285Y-96164342D02*
X147191666Y-96259580D01*
X147191666Y-96259580D02*
X147144047Y-96307200D01*
X147144047Y-96307200D02*
X147048809Y-96354819D01*
X147048809Y-96354819D02*
X146953571Y-96354819D01*
X146953571Y-96354819D02*
X146858333Y-96307200D01*
X146858333Y-96307200D02*
X146810714Y-96259580D01*
X146810714Y-96259580D02*
X146763095Y-96164342D01*
X146763095Y-96164342D02*
X146715476Y-95973866D01*
X146715476Y-95973866D02*
X146715476Y-95735771D01*
X146715476Y-95735771D02*
X146763095Y-95545295D01*
X146763095Y-95545295D02*
X146810714Y-95450057D01*
X146810714Y-95450057D02*
X146858333Y-95402438D01*
X146858333Y-95402438D02*
X146953571Y-95354819D01*
X148038095Y-109554819D02*
X148038095Y-110364342D01*
X148038095Y-110364342D02*
X148085714Y-110459580D01*
X148085714Y-110459580D02*
X148133333Y-110507200D01*
X148133333Y-110507200D02*
X148228571Y-110554819D01*
X148228571Y-110554819D02*
X148419047Y-110554819D01*
X148419047Y-110554819D02*
X148514285Y-110507200D01*
X148514285Y-110507200D02*
X148561904Y-110459580D01*
X148561904Y-110459580D02*
X148609523Y-110364342D01*
X148609523Y-110364342D02*
X148609523Y-109554819D01*
X149609523Y-110554819D02*
X149038095Y-110554819D01*
X149323809Y-110554819D02*
X149323809Y-109554819D01*
X149323809Y-109554819D02*
X149228571Y-109697676D01*
X149228571Y-109697676D02*
X149133333Y-109792914D01*
X149133333Y-109792914D02*
X149038095Y-109840533D01*
%TO.C,R2*%
D13*
X150022500Y-96875241D02*
X150022500Y-97349757D01*
X148977500Y-96875241D02*
X148977500Y-97349757D01*
%TO.C,R1*%
X144462742Y-111277500D02*
X144937258Y-111277500D01*
X144462742Y-112322500D02*
X144937258Y-112322500D01*
%TO.C,Y2*%
D14*
X160550000Y-91680000D02*
X160550000Y-91520000D01*
X163050000Y-91680000D02*
X163050000Y-91520000D01*
D11*
X164050000Y-92700000D02*
G75*
G02*
X163850000Y-92700000I-100000J0D01*
G01*
X163850000Y-92700000D02*
G75*
G02*
X164050000Y-92700000I100000J0D01*
G01*
%TO.C,U2*%
X165050000Y-97725000D02*
X165300000Y-97725000D01*
X165050000Y-97975000D02*
X165050000Y-97725000D01*
X165050000Y-100725000D02*
X165050000Y-100475000D01*
X165300000Y-100725000D02*
X165050000Y-100725000D01*
X167300000Y-97725000D02*
X167550000Y-97725000D01*
X167550000Y-97725000D02*
X167550000Y-97975000D01*
X167550000Y-100475000D02*
X167550000Y-100725000D01*
X167550000Y-100725000D02*
X167300000Y-100725000D01*
X165000000Y-101125000D02*
G75*
G02*
X164800000Y-101125000I-100000J0D01*
G01*
X164800000Y-101125000D02*
G75*
G02*
X165000000Y-101125000I100000J0D01*
G01*
%TO.C,J4*%
X155700000Y-86700000D02*
G75*
G02*
X155500000Y-86700000I-100000J0D01*
G01*
X155500000Y-86700000D02*
G75*
G02*
X155700000Y-86700000I100000J0D01*
G01*
%TO.C,SW1*%
D13*
X167130000Y-108130000D02*
X167130000Y-108530001D01*
X167130000Y-109470000D02*
X167130000Y-111530000D01*
X167130000Y-112870000D02*
X167130000Y-112469999D01*
X171870000Y-108130000D02*
X167130000Y-108130000D01*
X171870000Y-108130000D02*
X171870000Y-108530001D01*
X171870000Y-109470000D02*
X171870000Y-111530000D01*
X171870000Y-112870000D02*
X167130000Y-112870000D01*
X171870000Y-112870000D02*
X171870000Y-112469999D01*
%TO.C,R12*%
X158957500Y-91346359D02*
X158957500Y-91653641D01*
X159717500Y-91346359D02*
X159717500Y-91653641D01*
%TO.C,D5*%
X172300000Y-92735000D02*
X174585000Y-92735000D01*
X174585000Y-91265000D02*
X172300000Y-91265000D01*
X174585000Y-92735000D02*
X174585000Y-91265000D01*
%TO.C,D3*%
X172300000Y-102185000D02*
X174585000Y-102185000D01*
X174585000Y-100715000D02*
X172300000Y-100715000D01*
X174585000Y-102185000D02*
X174585000Y-100715000D01*
%TO.C,C11*%
X146165581Y-105190000D02*
X145884419Y-105190000D01*
X146165581Y-106210000D02*
X145884419Y-106210000D01*
%TO.C,C24*%
X151940000Y-94112164D02*
X151940000Y-94327836D01*
X152660000Y-94112164D02*
X152660000Y-94327836D01*
%TO.C,C22*%
X151940000Y-92187836D02*
X151940000Y-91972164D01*
X152660000Y-92187836D02*
X152660000Y-91972164D01*
%TO.C,J1*%
X136615000Y-104260000D02*
X136615000Y-112140000D01*
X138585000Y-103090000D02*
X141085000Y-103090000D01*
X138585000Y-113310000D02*
X141085000Y-113310000D01*
X141085000Y-103090000D02*
X141085000Y-104140000D01*
X141085000Y-104140000D02*
X142075000Y-104140000D01*
X141085000Y-113310000D02*
X141085000Y-112260000D01*
%TO.C,FL1*%
D14*
X155575000Y-87255000D02*
X156375000Y-87255000D01*
X155575000Y-89145000D02*
X156375000Y-89145000D01*
D15*
X154925000Y-87700000D02*
G75*
G02*
X154825000Y-87700000I-50000J0D01*
G01*
X154825000Y-87700000D02*
G75*
G02*
X154925000Y-87700000I50000J0D01*
G01*
%TO.C,C26*%
D13*
X161349664Y-88500000D02*
X161565336Y-88500000D01*
X161349664Y-89220000D02*
X161565336Y-89220000D01*
%TO.C,D2*%
X172300000Y-98985000D02*
X174585000Y-98985000D01*
X174585000Y-97515000D02*
X172300000Y-97515000D01*
X174585000Y-98985000D02*
X174585000Y-97515000D01*
%TO.C,C14*%
X168790000Y-99065581D02*
X168790000Y-98784419D01*
X169810000Y-99065581D02*
X169810000Y-98784419D01*
%TO.C,Y1*%
D14*
X144100000Y-99050000D02*
X144100000Y-104050000D01*
X147300000Y-99050000D02*
X147300000Y-104050000D01*
%TO.C,U6*%
D13*
X160140000Y-110974999D02*
X160140000Y-112174999D01*
X161860000Y-111174999D02*
X161860000Y-111774999D01*
D10*
X160675000Y-112624999D02*
G75*
G02*
X160525000Y-112624999I-75000J0D01*
G01*
X160525000Y-112624999D02*
G75*
G02*
X160675000Y-112624999I75000J0D01*
G01*
%TO.C,R11*%
D13*
X152463641Y-89920000D02*
X152156359Y-89920000D01*
X152463641Y-90680000D02*
X152156359Y-90680000D01*
%TO.C,C23*%
X158112164Y-87840000D02*
X158327836Y-87840000D01*
X158112164Y-88560000D02*
X158327836Y-88560000D01*
%TO.C,C25*%
X162207836Y-93940000D02*
X161992164Y-93940000D01*
X162207836Y-94660000D02*
X161992164Y-94660000D01*
%TO.C,U7*%
X153652500Y-90190000D02*
X154377500Y-90190000D01*
X153652500Y-90915000D02*
X153652500Y-90190000D01*
X153652500Y-93685000D02*
X153652500Y-94110000D01*
X154377500Y-94410000D02*
X153892500Y-94410000D01*
X157872500Y-90190000D02*
X157147500Y-90190000D01*
X157872500Y-90915000D02*
X157872500Y-90190000D01*
X157872500Y-93685000D02*
X157872500Y-94410000D01*
X157872500Y-94410000D02*
X157147500Y-94410000D01*
X153652500Y-94410000D02*
X153322500Y-94650000D01*
X153322500Y-94170000D01*
X153652500Y-94410000D01*
G36*
X153652500Y-94410000D02*
G01*
X153322500Y-94650000D01*
X153322500Y-94170000D01*
X153652500Y-94410000D01*
G37*
%TO.C,C13*%
X168134420Y-95490000D02*
X168415580Y-95490000D01*
X168134420Y-96510000D02*
X168415580Y-96510000D01*
%TO.C,D4*%
X138950000Y-101810000D02*
X138950000Y-96300000D01*
X138950000Y-101810000D02*
X142250000Y-101810000D01*
X142250000Y-101810000D02*
X142250000Y-96300000D01*
%TO.C,U3*%
X164940000Y-103640000D02*
X165540000Y-103640000D01*
X164940000Y-103940000D02*
X164940000Y-103640000D01*
X164940000Y-106060000D02*
X164940000Y-106360000D01*
X164940000Y-106360000D02*
X165540000Y-106360000D01*
X167060000Y-103640000D02*
X167420000Y-103640000D01*
X167660000Y-106060000D02*
X167660000Y-106360000D01*
X167660000Y-106360000D02*
X167060000Y-106360000D01*
X167990000Y-103880000D02*
X167660000Y-103640000D01*
X167990000Y-103400000D01*
X167990000Y-103880000D01*
G36*
X167990000Y-103880000D02*
G01*
X167660000Y-103640000D01*
X167990000Y-103400000D01*
X167990000Y-103880000D01*
G37*
%TO.C,C15*%
X168490000Y-104859419D02*
X168490000Y-105140581D01*
X169510000Y-104859419D02*
X169510000Y-105140581D01*
%TO.C,D1*%
X172312499Y-95835000D02*
X174597499Y-95835000D01*
X174597499Y-94365000D02*
X172312499Y-94365000D01*
X174597499Y-95835000D02*
X174597499Y-94365000D01*
%TO.C,J3*%
D14*
X157650000Y-118930000D02*
X157650000Y-116570000D01*
X157650000Y-122070000D02*
X157650000Y-122750000D01*
X158270000Y-114250000D02*
X159230000Y-114250000D01*
X164530000Y-114250000D02*
X163570000Y-114250000D01*
X165150000Y-118930000D02*
X165150000Y-116570000D01*
X165150000Y-122070000D02*
X165150000Y-122750000D01*
D11*
X159250000Y-113150000D02*
G75*
G02*
X159050000Y-113150000I-100000J0D01*
G01*
X159050000Y-113150000D02*
G75*
G02*
X159250000Y-113150000I100000J0D01*
G01*
%TO.C,C21*%
D13*
X150740000Y-92187836D02*
X150740000Y-91972164D01*
X151460000Y-92187836D02*
X151460000Y-91972164D01*
%TO.C,C10*%
X146165581Y-96890000D02*
X145884419Y-96890000D01*
X146165581Y-97910000D02*
X145884419Y-97910000D01*
%TO.C,J2*%
D11*
X145260000Y-115485000D02*
X145260000Y-118915000D01*
X154320000Y-118915000D02*
X154320000Y-115485000D01*
X154950000Y-115165000D02*
G75*
G02*
X154750000Y-115165000I-100000J0D01*
G01*
X154750000Y-115165000D02*
G75*
G02*
X154950000Y-115165000I100000J0D01*
G01*
%TO.C,U1*%
D13*
X149740000Y-99065000D02*
X149740000Y-100015000D01*
X149740000Y-109285000D02*
X149740000Y-108335000D01*
X150690000Y-99065000D02*
X149740000Y-99065000D01*
X150690000Y-109285000D02*
X149740000Y-109285000D01*
X159010000Y-99065000D02*
X159960000Y-99065000D01*
X159010000Y-109285000D02*
X159960000Y-109285000D01*
X159960000Y-99065000D02*
X159960000Y-100015000D01*
X159960000Y-109285000D02*
X159960000Y-108335000D01*
X149465000Y-99545001D02*
X149125000Y-100015000D01*
X148785000Y-99545000D01*
X149465000Y-99545001D01*
G36*
X149465000Y-99545001D02*
G01*
X149125000Y-100015000D01*
X148785000Y-99545000D01*
X149465000Y-99545001D01*
G37*
%TD*%
M02*
