%TF.GenerationSoftware,KiCad,Pcbnew,10.0.0*%
%TF.CreationDate,2026-06-04T16:58:12-05:00*%
%TF.ProjectId,sensors_pcb,73656e73-6f72-4735-9f70-63622e6b6963,rev?*%
%TF.SameCoordinates,Original*%
%TF.FileFunction,Copper,L1,Top*%
%TF.FilePolarity,Positive*%
%FSLAX46Y46*%
G04 Gerber Fmt 4.6, Leading zero omitted, Abs format (unit mm)*
G04 Created by KiCad (PCBNEW 10.0.0) date 2026-06-04 16:58:12*
%MOMM*%
%LPD*%
G01*
G04 APERTURE LIST*
G04 Aperture macros list*
%AMRoundRect*
0 Rectangle with rounded corners*
0 $1 Rounding radius*
0 $2 $3 $4 $5 $6 $7 $8 $9 X,Y pos of 4 corners*
0 Add a 4 corners polygon primitive as box body*
4,1,4,$2,$3,$4,$5,$6,$7,$8,$9,$2,$3,0*
0 Add four circle primitives for the rounded corners*
1,1,$1+$1,$2,$3*
1,1,$1+$1,$4,$5*
1,1,$1+$1,$6,$7*
1,1,$1+$1,$8,$9*
0 Add four rect primitives between the rounded corners*
20,1,$1+$1,$2,$3,$4,$5,0*
20,1,$1+$1,$4,$5,$6,$7,0*
20,1,$1+$1,$6,$7,$8,$9,0*
20,1,$1+$1,$8,$9,$2,$3,0*%
G04 Aperture macros list end*
%TA.AperFunction,SMDPad,CuDef*%
%ADD10RoundRect,0.150000X-0.150000X-0.625000X0.150000X-0.625000X0.150000X0.625000X-0.150000X0.625000X0*%
%TD*%
%TA.AperFunction,SMDPad,CuDef*%
%ADD11RoundRect,0.250000X-0.350000X-0.650000X0.350000X-0.650000X0.350000X0.650000X-0.350000X0.650000X0*%
%TD*%
%TA.AperFunction,SMDPad,CuDef*%
%ADD12RoundRect,0.150000X0.625000X-0.150000X0.625000X0.150000X-0.625000X0.150000X-0.625000X-0.150000X0*%
%TD*%
%TA.AperFunction,SMDPad,CuDef*%
%ADD13RoundRect,0.250000X0.650000X-0.350000X0.650000X0.350000X-0.650000X0.350000X-0.650000X-0.350000X0*%
%TD*%
%TA.AperFunction,SMDPad,CuDef*%
%ADD14RoundRect,0.150000X-0.625000X0.150000X-0.625000X-0.150000X0.625000X-0.150000X0.625000X0.150000X0*%
%TD*%
%TA.AperFunction,SMDPad,CuDef*%
%ADD15RoundRect,0.250000X-0.650000X0.350000X-0.650000X-0.350000X0.650000X-0.350000X0.650000X0.350000X0*%
%TD*%
%TA.AperFunction,ComponentPad*%
%ADD16C,5.600000*%
%TD*%
%TA.AperFunction,SMDPad,CuDef*%
%ADD17RoundRect,0.250000X-0.250000X-0.475000X0.250000X-0.475000X0.250000X0.475000X-0.250000X0.475000X0*%
%TD*%
%TA.AperFunction,SMDPad,CuDef*%
%ADD18RoundRect,0.250000X-0.475000X0.250000X-0.475000X-0.250000X0.475000X-0.250000X0.475000X0.250000X0*%
%TD*%
%TA.AperFunction,SMDPad,CuDef*%
%ADD19R,1.800000X0.800000*%
%TD*%
%TA.AperFunction,SMDPad,CuDef*%
%ADD20RoundRect,0.243750X-0.456250X0.243750X-0.456250X-0.243750X0.456250X-0.243750X0.456250X0.243750X0*%
%TD*%
%TA.AperFunction,SMDPad,CuDef*%
%ADD21RoundRect,0.100000X-0.100000X0.175000X-0.100000X-0.175000X0.100000X-0.175000X0.100000X0.175000X0*%
%TD*%
%TA.AperFunction,SMDPad,CuDef*%
%ADD22RoundRect,0.100000X-0.175000X0.100000X-0.175000X-0.100000X0.175000X-0.100000X0.175000X0.100000X0*%
%TD*%
%TA.AperFunction,SMDPad,CuDef*%
%ADD23RoundRect,0.250000X0.262500X0.450000X-0.262500X0.450000X-0.262500X-0.450000X0.262500X-0.450000X0*%
%TD*%
%TA.AperFunction,SMDPad,CuDef*%
%ADD24RoundRect,0.250000X-0.450000X0.262500X-0.450000X-0.262500X0.450000X-0.262500X0.450000X0.262500X0*%
%TD*%
%TA.AperFunction,SMDPad,CuDef*%
%ADD25RoundRect,0.250000X0.475000X-0.250000X0.475000X0.250000X-0.475000X0.250000X-0.475000X-0.250000X0*%
%TD*%
%TA.AperFunction,SMDPad,CuDef*%
%ADD26RoundRect,0.218750X-0.381250X0.218750X-0.381250X-0.218750X0.381250X-0.218750X0.381250X0.218750X0*%
%TD*%
%TA.AperFunction,SMDPad,CuDef*%
%ADD27R,0.900000X0.250000*%
%TD*%
%TA.AperFunction,SMDPad,CuDef*%
%ADD28R,0.250000X0.900000*%
%TD*%
%TA.AperFunction,SMDPad,CuDef*%
%ADD29R,1.100000X2.250000*%
%TD*%
%TA.AperFunction,SMDPad,CuDef*%
%ADD30R,1.050000X1.100000*%
%TD*%
%TA.AperFunction,SMDPad,CuDef*%
%ADD31R,0.300000X0.350000*%
%TD*%
%TA.AperFunction,SMDPad,CuDef*%
%ADD32R,0.350000X0.300000*%
%TD*%
%TA.AperFunction,ViaPad*%
%ADD33C,0.700000*%
%TD*%
%TA.AperFunction,Conductor*%
%ADD34C,0.300000*%
%TD*%
%TA.AperFunction,Conductor*%
%ADD35C,0.500000*%
%TD*%
%TA.AperFunction,Conductor*%
%ADD36C,0.355000*%
%TD*%
G04 APERTURE END LIST*
D10*
%TO.P,J9,1,Pin_1_1*%
%TO.N,/Sensors/IIS2_SCK*%
X147000000Y-55000000D03*
%TO.P,J9,2,Pin_2_2*%
%TO.N,/Sensors/IIS2_MOSI*%
X148000000Y-55000000D03*
%TO.P,J9,3,Pin_3_3*%
%TO.N,/Sensors/IIS2_CS*%
X149000000Y-55000000D03*
%TO.P,J9,4,Pin_4_4*%
%TO.N,/Sensors/IIS2_IRQ*%
X150000000Y-55000000D03*
D11*
%TO.P,J9,MP*%
%TO.N,N/C*%
X145700000Y-58875000D03*
X151300000Y-58875000D03*
%TD*%
D12*
%TO.P,J11,1,Pin_1_1*%
%TO.N,/Sensors/GPS_TX*%
X163500000Y-33000000D03*
%TO.P,J11,2,Pin_2_2*%
%TO.N,/Sensors/GPS_RX*%
X163500000Y-32000000D03*
%TO.P,J11,3,Pin_3_3*%
%TO.N,/Sensors/GPS_1PPS*%
X163500000Y-31000000D03*
D13*
%TO.P,J11,MP*%
%TO.N,N/C*%
X167375000Y-34300000D03*
X167375000Y-29700000D03*
%TD*%
D14*
%TO.P,J5,1,Pin_1_1*%
%TO.N,/Sensors/IMU_SCK*%
X133500000Y-43000000D03*
%TO.P,J5,2,Pin_2_2*%
%TO.N,/Sensors/IMU_MOSI*%
X133500000Y-44000000D03*
%TO.P,J5,3,Pin_3_3*%
%TO.N,/Sensors/IMU_MISO*%
X133500000Y-45000000D03*
%TO.P,J5,4,Pin_4_4*%
%TO.N,/Sensors/IMU_CS*%
X133500000Y-46000000D03*
%TO.P,J5,5,Pin_5_5*%
%TO.N,/Sensors/IMU_INT1*%
X133500000Y-47000000D03*
%TO.P,J5,6,Pin_6_6*%
%TO.N,/Sensors/IMU_INT2*%
X133500000Y-48000000D03*
D15*
%TO.P,J5,MP*%
%TO.N,N/C*%
X129625000Y-41700000D03*
X129625000Y-49300000D03*
%TD*%
D16*
%TO.P,H6,1,1_1*%
%TO.N,GND_SENS*%
X163500000Y-25000000D03*
%TD*%
D17*
%TO.P,C14,1*%
%TO.N,+3V3_SENS*%
X143925000Y-46250000D03*
%TO.P,C14,2*%
%TO.N,GND_SENS*%
X145825000Y-46250000D03*
%TD*%
D18*
%TO.P,C13,1*%
%TO.N,+3V3_SENS*%
X159000000Y-24800000D03*
%TO.P,C13,2*%
%TO.N,GND_SENS*%
X159000000Y-26700000D03*
%TD*%
D19*
%TO.P,U3,1,GND_1*%
%TO.N,GND_SENS*%
X155525000Y-32150000D03*
%TO.P,U3,2,TXD_2*%
%TO.N,/Sensors/GPS_RX*%
X155525000Y-31050000D03*
%TO.P,U3,3,RXD_3*%
%TO.N,/Sensors/GPS_TX*%
X155525000Y-29950000D03*
%TO.P,U3,4,1PPS_4*%
%TO.N,/Sensors/GPS_1PPS*%
X155525000Y-28850000D03*
%TO.P,U3,5,ON/OFF_5*%
%TO.N,unconnected-(U3-ON{slash}OFF-Pad5)*%
X155525000Y-27750000D03*
%TO.P,U3,6,VBAT_6*%
%TO.N,+3V3_SENS*%
X155525000Y-26650000D03*
%TO.P,U3,7,NC_7*%
%TO.N,unconnected-(U3-NC-Pad7)*%
X155525000Y-25550000D03*
%TO.P,U3,8,VCC_8*%
%TO.N,+3V3_SENS*%
X155525000Y-24450000D03*
%TO.P,U3,9,nRST_9*%
%TO.N,unconnected-(U3-nRST-Pad9)*%
X155525000Y-23350000D03*
%TO.P,U3,10,GND_10*%
%TO.N,GND_SENS*%
X145825000Y-23350000D03*
%TO.P,U3,11,RF_IN_11*%
%TO.N,Net-(J13-SIG)*%
X145825000Y-24450000D03*
%TO.P,U3,12,GND_12*%
%TO.N,GND_SENS*%
X145825000Y-25550000D03*
%TO.P,U3,13,NC_13*%
%TO.N,unconnected-(U3-NC-Pad13)*%
X145825000Y-26650000D03*
%TO.P,U3,14,VCC_RF_14*%
%TO.N,Net-(U3-VCC_RF)*%
X145825000Y-27750000D03*
%TO.P,U3,15,Reserved_15*%
%TO.N,unconnected-(U3-Reserved-Pad15)*%
X145825000Y-28850000D03*
%TO.P,U3,16,SDA_16*%
%TO.N,unconnected-(U3-SDA-Pad16)*%
X145825000Y-29950000D03*
%TO.P,U3,17,SCL_17*%
%TO.N,unconnected-(U3-SCL-Pad17)*%
X145825000Y-31050000D03*
%TO.P,U3,18,Reserved_18*%
%TO.N,unconnected-(U3-Reserved-Pad18)*%
X145825000Y-32150000D03*
%TD*%
D18*
%TO.P,C20,1*%
%TO.N,+3V3_SENS*%
X151000000Y-39075000D03*
%TO.P,C20,2*%
%TO.N,GND_SENS*%
X151000000Y-40975000D03*
%TD*%
D20*
%TO.P,D4,1,K_1*%
%TO.N,Net-(D4-K)*%
X166500000Y-46812500D03*
%TO.P,D4,2,A_2*%
%TO.N,+3V3_SENS*%
X166500000Y-48687500D03*
%TD*%
D21*
%TO.P,U5,1,Vdd_IO_1*%
%TO.N,+3V3_SENS*%
X139005000Y-34125000D03*
%TO.P,U5,2,SCL_2*%
%TO.N,/Sensors/BAR_SCK*%
X138405000Y-34125000D03*
D22*
%TO.P,U5,3,GND_3*%
%TO.N,GND_SENS*%
X137780000Y-34450000D03*
%TO.P,U5,4,SDA_4*%
%TO.N,/Sensors/BAR_MOSI*%
X137780000Y-35050000D03*
%TO.P,U5,5,SA0_5*%
%TO.N,/Sensors/BAR_MISO*%
X137780000Y-35650000D03*
D21*
%TO.P,U5,6,~{CS}_6*%
%TO.N,/Sensors/BAR_CS*%
X138405000Y-35975000D03*
%TO.P,U5,7,INT_DRDY_7*%
%TO.N,/Sensors/BAR_INT*%
X139005000Y-35975000D03*
D22*
%TO.P,U5,8,GND_8*%
%TO.N,GND_SENS*%
X139630000Y-35650000D03*
%TO.P,U5,9,GND_9*%
X139630000Y-35050000D03*
%TO.P,U5,10,VDD_10*%
%TO.N,+3V3_SENS*%
X139630000Y-34450000D03*
%TD*%
D23*
%TO.P,R5,1*%
%TO.N,/Sensors/IIS2_MOSI*%
X148500000Y-52250000D03*
%TO.P,R5,2*%
%TO.N,Net-(U2-SDA{slash}SDI{slash}SDO)*%
X146675000Y-52250000D03*
%TD*%
D14*
%TO.P,J7,1,Pin_1_1*%
%TO.N,/Sensors/BAR_SCK*%
X133500000Y-31700000D03*
%TO.P,J7,2,Pin_2_2*%
%TO.N,/Sensors/BAR_MOSI*%
X133500000Y-32700000D03*
%TO.P,J7,3,Pin_3_3*%
%TO.N,/Sensors/BAR_MISO*%
X133500000Y-33700000D03*
%TO.P,J7,4,Pin_4_4*%
%TO.N,/Sensors/BAR_CS*%
X133500000Y-34700000D03*
%TO.P,J7,5,Pin_5_5*%
%TO.N,/Sensors/BAR_INT*%
X133500000Y-35700000D03*
D15*
%TO.P,J7,MP*%
%TO.N,N/C*%
X129625000Y-30400000D03*
X129625000Y-37000000D03*
%TD*%
D18*
%TO.P,C18,1*%
%TO.N,+3V3_SENS*%
X142000000Y-34050000D03*
%TO.P,C18,2*%
%TO.N,GND_SENS*%
X142000000Y-35950000D03*
%TD*%
D24*
%TO.P,R6,1*%
%TO.N,Net-(D4-K)*%
X163500000Y-46837500D03*
%TO.P,R6,2*%
%TO.N,GND_SENS*%
X163500000Y-48662500D03*
%TD*%
D25*
%TO.P,C17,1*%
%TO.N,Net-(U2-C1)*%
X146950000Y-50200000D03*
%TO.P,C17,2*%
%TO.N,GND_SENS*%
X146950000Y-48300000D03*
%TD*%
D26*
%TO.P,L1,1,1_1*%
%TO.N,Net-(J13-SIG)*%
X142500000Y-25937500D03*
%TO.P,L1,2,2_2*%
%TO.N,Net-(U3-VCC_RF)*%
X142500000Y-28062500D03*
%TD*%
D25*
%TO.P,C16,1*%
%TO.N,+3V3_SENS*%
X141575000Y-48900000D03*
%TO.P,C16,2*%
%TO.N,GND_SENS*%
X141575000Y-47000000D03*
%TD*%
D27*
%TO.P,U4,1,SDO/SA0_1*%
%TO.N,/Sensors/IMU_MISO*%
X146550000Y-37000000D03*
%TO.P,U4,2,SDX_2*%
%TO.N,GND_SENS*%
X146550000Y-37500000D03*
%TO.P,U4,3,SCX_3*%
X146550000Y-38000000D03*
%TO.P,U4,4,INT1_4*%
%TO.N,/Sensors/IMU_INT1*%
X146550000Y-38500000D03*
D28*
%TO.P,U4,5,VDDIO_5*%
%TO.N,+3V3_SENS*%
X147400000Y-38850000D03*
%TO.P,U4,6,GND_6*%
%TO.N,GND_SENS*%
X147900000Y-38850000D03*
%TO.P,U4,7,GND_7*%
X148400000Y-38850000D03*
D27*
%TO.P,U4,8,VDD_8*%
%TO.N,+3V3_SENS*%
X149250000Y-38500000D03*
%TO.P,U4,9,INT2_9*%
%TO.N,/Sensors/IMU_INT2*%
X149250000Y-38000000D03*
%TO.P,U4,10,NC_10*%
%TO.N,unconnected-(U4-NC-Pad10)*%
X149250000Y-37500000D03*
%TO.P,U4,11,NC_11*%
%TO.N,unconnected-(U4-NC-Pad11)*%
X149250000Y-37000000D03*
D28*
%TO.P,U4,12,CS_12*%
%TO.N,/Sensors/IMU_CS*%
X148400000Y-36650000D03*
%TO.P,U4,13,SCL_13*%
%TO.N,/Sensors/IMU_SCK*%
X147900000Y-36650000D03*
%TO.P,U4,14,SDA_14*%
%TO.N,/Sensors/IMU_MOSI*%
X147400000Y-36650000D03*
%TD*%
D12*
%TO.P,J3,1,Pin_1_1*%
%TO.N,+3V3_SENS*%
X163375000Y-39200000D03*
%TO.P,J3,2,Pin_2_2*%
%TO.N,GND_SENS*%
X163375000Y-38200000D03*
D13*
%TO.P,J3,MP*%
%TO.N,N/C*%
X167250000Y-40500000D03*
X167250000Y-36900000D03*
%TD*%
D17*
%TO.P,C15,1*%
%TO.N,+3V3_SENS*%
X143925000Y-44000000D03*
%TO.P,C15,2*%
%TO.N,GND_SENS*%
X145825000Y-44000000D03*
%TD*%
D29*
%TO.P,J13,1,GND_1*%
%TO.N,GND_SENS*%
X140800000Y-21750000D03*
%TO.P,J13,2,GND_2*%
X143750000Y-21750000D03*
D30*
%TO.P,J13,3,SIG_3*%
%TO.N,Net-(J13-SIG)*%
X142275000Y-23300000D03*
%TD*%
D31*
%TO.P,U2,1,SCL/SPC_1*%
%TO.N,/Sensors/IIS2_SCK*%
X143575000Y-50250000D03*
%TO.P,U2,2,NC_2*%
%TO.N,unconnected-(U2-NC-Pad2)*%
X144075000Y-50250000D03*
%TO.P,U2,3,CS_3*%
%TO.N,/Sensors/IIS2_CS*%
X144575000Y-50250000D03*
%TO.P,U2,4,SDA/SDI/SDO_4*%
%TO.N,Net-(U2-SDA{slash}SDI{slash}SDO)*%
X145075000Y-50250000D03*
D32*
%TO.P,U2,5,C1_5*%
%TO.N,Net-(U2-C1)*%
X145075000Y-49750000D03*
%TO.P,U2,6,GND_6*%
%TO.N,GND_SENS*%
X145075000Y-49250000D03*
D31*
%TO.P,U2,7,INT/DRDY_7*%
%TO.N,/Sensors/IIS2_IRQ*%
X145075000Y-48750000D03*
%TO.P,U2,8,GND_8*%
%TO.N,GND_SENS*%
X144575000Y-48750000D03*
%TO.P,U2,9,VDD_9*%
%TO.N,+3V3_SENS*%
X144075000Y-48750000D03*
%TO.P,U2,10,VDD_IO_10*%
X143575000Y-48750000D03*
D32*
%TO.P,U2,11,NC_11*%
%TO.N,unconnected-(U2-NC-Pad11)*%
X143575000Y-49250000D03*
%TO.P,U2,12,NC_12*%
%TO.N,unconnected-(U2-NC-Pad12)*%
X143575000Y-49750000D03*
%TD*%
D17*
%TO.P,C19,1*%
%TO.N,+3V3_SENS*%
X146850000Y-40750000D03*
%TO.P,C19,2*%
%TO.N,GND_SENS*%
X148750000Y-40750000D03*
%TD*%
D16*
%TO.P,H8,1,1_1*%
%TO.N,GND_SENS*%
X163500000Y-55000000D03*
%TD*%
%TO.P,H7,1,1_1*%
%TO.N,GND_SENS*%
X133500000Y-55000000D03*
%TD*%
%TO.P,H5,1,1_1*%
%TO.N,GND_SENS*%
X133500000Y-25000000D03*
%TD*%
D33*
%TO.N,/Sensors/IIS2_CS*%
X144750000Y-51000000D03*
X149000000Y-53750000D03*
%TO.N,/Sensors/IIS2_IRQ*%
X145250000Y-48000000D03*
X150000000Y-53750000D03*
%TO.N,/Sensors/GPS_TX*%
X157250000Y-30250000D03*
X161500000Y-33000000D03*
%TO.N,/Sensors/IMU_CS*%
X148500000Y-35500000D03*
X135000000Y-46000000D03*
%TO.N,/Sensors/IMU_INT2*%
X150250000Y-37850000D03*
X135000000Y-48000000D03*
%TO.N,GND_SENS*%
X140750000Y-37000000D03*
X152500000Y-41000000D03*
X157000000Y-37500000D03*
X147250000Y-47000000D03*
X144325000Y-48000000D03*
X156500000Y-33500000D03*
X141575000Y-45750000D03*
X157000000Y-35250000D03*
X161000000Y-35250000D03*
X139500000Y-21750000D03*
X162000000Y-48750000D03*
X145584620Y-38084620D03*
X144250000Y-26000000D03*
X148750000Y-42250000D03*
X146750000Y-22500000D03*
X159000000Y-28000000D03*
X145000000Y-21750000D03*
X148487500Y-48250000D03*
X136750000Y-34450000D03*
%TO.N,+3V3_SENS*%
X146750000Y-42250000D03*
X165000000Y-48750000D03*
X157000000Y-41500000D03*
X143500000Y-33950000D03*
X157000000Y-39500000D03*
X142750000Y-44000000D03*
X141575000Y-50250000D03*
X143325000Y-48000000D03*
X161250000Y-40500000D03*
X159000000Y-23500000D03*
X157250000Y-24750000D03*
X157250000Y-27000000D03*
X152500000Y-39000000D03*
%TD*%
%TO.N,/Sensors/IIS2_SCK*%
D34*
X147000000Y-55000000D02*
X143575000Y-51575000D01*
X143575000Y-51575000D02*
X143575000Y-50250000D01*
%TO.N,/Sensors/IIS2_MOSI*%
X148000000Y-52750000D02*
X148000000Y-55000000D01*
X148500000Y-52250000D02*
X148000000Y-52750000D01*
%TO.N,/Sensors/IIS2_CS*%
X149000000Y-55000000D02*
X149000000Y-53750000D01*
X144750000Y-51000000D02*
X144575000Y-50825000D01*
X144575000Y-50825000D02*
X144575000Y-50250000D01*
%TO.N,/Sensors/IIS2_IRQ*%
X145075000Y-48750000D02*
X145075000Y-48175000D01*
X145075000Y-48175000D02*
X145250000Y-48000000D01*
X150000000Y-55000000D02*
X150000000Y-53750000D01*
%TO.N,/Sensors/GPS_TX*%
X155525000Y-30250000D02*
X157250000Y-30250000D01*
X161500000Y-33000000D02*
X163500000Y-33000000D01*
%TO.N,/Sensors/GPS_RX*%
X156725000Y-31350000D02*
X157375000Y-32000000D01*
X155525000Y-31350000D02*
X156725000Y-31350000D01*
X157375000Y-32000000D02*
X163500000Y-32000000D01*
%TO.N,/Sensors/GPS_1PPS*%
X159750000Y-31000000D02*
X163500000Y-31000000D01*
X157900000Y-29150000D02*
X159750000Y-31000000D01*
X155525000Y-29150000D02*
X157900000Y-29150000D01*
%TO.N,/Sensors/IMU_SCK*%
X137750000Y-43000000D02*
X145250000Y-35500000D01*
X147900000Y-36150000D02*
X147900000Y-36650000D01*
X147250000Y-35500000D02*
X147900000Y-36150000D01*
X145250000Y-35500000D02*
X147250000Y-35500000D01*
X133500000Y-43000000D02*
X137750000Y-43000000D01*
%TO.N,/Sensors/IMU_MOSI*%
X137750000Y-44000000D02*
X145500000Y-36250000D01*
X145500000Y-36250000D02*
X147000000Y-36250000D01*
X147000000Y-36250000D02*
X147400000Y-36650000D01*
X133500000Y-44000000D02*
X137750000Y-44000000D01*
%TO.N,/Sensors/IMU_MISO*%
X137750000Y-45000000D02*
X145750000Y-37000000D01*
X133500000Y-45000000D02*
X137750000Y-45000000D01*
X145750000Y-37000000D02*
X146550000Y-37000000D01*
%TO.N,/Sensors/IMU_CS*%
X148500000Y-36550000D02*
X148400000Y-36650000D01*
X133500000Y-46000000D02*
X135000000Y-46000000D01*
X148500000Y-35500000D02*
X148500000Y-36550000D01*
%TO.N,/Sensors/IMU_INT1*%
X145000000Y-39000000D02*
X146050000Y-39000000D01*
X133500000Y-47000000D02*
X137000000Y-47000000D01*
X146050000Y-39000000D02*
X146550000Y-38500000D01*
X137000000Y-47000000D02*
X145000000Y-39000000D01*
%TO.N,/Sensors/IMU_INT2*%
X150100000Y-38000000D02*
X149250000Y-38000000D01*
X133500000Y-48000000D02*
X135000000Y-48000000D01*
X150250000Y-37850000D02*
X150100000Y-38000000D01*
%TO.N,GND_SENS*%
X148400000Y-40400000D02*
X148750000Y-40750000D01*
X148437500Y-48300000D02*
X148487500Y-48250000D01*
X141700000Y-35650000D02*
X142000000Y-35950000D01*
X146550000Y-38000000D02*
X145669240Y-38000000D01*
X162087500Y-48662500D02*
X162000000Y-48750000D01*
X151000000Y-40975000D02*
X152475000Y-40975000D01*
X141800000Y-35950000D02*
X140750000Y-37000000D01*
D35*
X144400000Y-25850000D02*
X144250000Y-26000000D01*
D34*
X152475000Y-40975000D02*
X152500000Y-41000000D01*
X145075000Y-49250000D02*
X146000000Y-49250000D01*
X148750000Y-40750000D02*
X148750000Y-42250000D01*
X147900000Y-38850000D02*
X148400000Y-38850000D01*
X139630000Y-35650000D02*
X141700000Y-35650000D01*
X146550000Y-37500000D02*
X146550000Y-38000000D01*
X137780000Y-34450000D02*
X136750000Y-34450000D01*
X145669240Y-38000000D02*
X145584620Y-38084620D01*
D35*
X143750000Y-21750000D02*
X145000000Y-21750000D01*
D34*
X163500000Y-48662500D02*
X162087500Y-48662500D01*
D35*
X145825000Y-23650000D02*
X145825000Y-23425000D01*
D34*
X148400000Y-38850000D02*
X148400000Y-40400000D01*
X139630000Y-35050000D02*
X139630000Y-35650000D01*
X146000000Y-49250000D02*
X146950000Y-48300000D01*
X144575000Y-48750000D02*
X144575000Y-48250000D01*
X145825000Y-46250000D02*
X146500000Y-46250000D01*
X145825000Y-44000000D02*
X145825000Y-46250000D01*
D35*
X145825000Y-25850000D02*
X144400000Y-25850000D01*
D34*
X144575000Y-48250000D02*
X144325000Y-48000000D01*
D35*
X155525000Y-32450000D02*
X155525000Y-32525000D01*
D34*
X146950000Y-48300000D02*
X148437500Y-48300000D01*
X141575000Y-45750000D02*
X141575000Y-47000000D01*
D35*
X155525000Y-32525000D02*
X156500000Y-33500000D01*
D34*
X142000000Y-35950000D02*
X141800000Y-35950000D01*
D35*
X145825000Y-23425000D02*
X146750000Y-22500000D01*
X159000000Y-26700000D02*
X159000000Y-28000000D01*
D34*
X146500000Y-46250000D02*
X147250000Y-47000000D01*
D35*
X140800000Y-21750000D02*
X139500000Y-21750000D01*
%TO.N,+3V3_SENS*%
D34*
X143575000Y-48750000D02*
X143575000Y-48250000D01*
X146850000Y-40750000D02*
X146850000Y-42150000D01*
X146850000Y-42150000D02*
X146750000Y-42250000D01*
D35*
X155525000Y-26950000D02*
X157200000Y-26950000D01*
D34*
X139630000Y-34450000D02*
X141600000Y-34450000D01*
X139305000Y-34125000D02*
X139630000Y-34450000D01*
X166500000Y-48687500D02*
X165062500Y-48687500D01*
D35*
X155525000Y-24750000D02*
X157250000Y-24750000D01*
D34*
X147400000Y-38850000D02*
X147400000Y-40200000D01*
X143400000Y-34050000D02*
X143500000Y-33950000D01*
X139005000Y-34125000D02*
X139305000Y-34125000D01*
X141600000Y-34450000D02*
X142000000Y-34050000D01*
X143925000Y-44000000D02*
X142750000Y-44000000D01*
X151000000Y-39075000D02*
X152425000Y-39075000D01*
X150425000Y-38500000D02*
X151000000Y-39075000D01*
X149250000Y-38500000D02*
X150425000Y-38500000D01*
X142000000Y-34050000D02*
X143400000Y-34050000D01*
X141575000Y-50250000D02*
X141575000Y-48900000D01*
X143575000Y-48750000D02*
X144075000Y-48750000D01*
X143925000Y-46250000D02*
X143925000Y-44000000D01*
X147400000Y-40200000D02*
X146850000Y-40750000D01*
D35*
X159000000Y-24800000D02*
X159000000Y-23500000D01*
D34*
X143575000Y-48250000D02*
X143325000Y-48000000D01*
X165062500Y-48687500D02*
X165000000Y-48750000D01*
D35*
X157200000Y-26950000D02*
X157250000Y-27000000D01*
%TO.N,Net-(J13-SIG)*%
D36*
X142500000Y-25937500D02*
X143687500Y-24750000D01*
X143687500Y-24750000D02*
X145825000Y-24750000D01*
X142500000Y-23525000D02*
X142275000Y-23300000D01*
X142500000Y-25937500D02*
X142500000Y-23525000D01*
%TO.N,Net-(U3-VCC_RF)*%
X145812500Y-28062500D02*
X145825000Y-28050000D01*
X142500000Y-28062500D02*
X145812500Y-28062500D01*
%TO.N,Net-(D4-K)*%
D34*
X166500000Y-46812500D02*
X163525000Y-46812500D01*
X163525000Y-46812500D02*
X163500000Y-46837500D01*
%TO.N,/Sensors/BAR_SCK*%
X133500000Y-31700000D02*
X135980000Y-31700000D01*
X135980000Y-31700000D02*
X138405000Y-34125000D01*
%TO.N,/Sensors/BAR_MOSI*%
X136530761Y-35150000D02*
X137680000Y-35150000D01*
X133500000Y-32700000D02*
X134080761Y-32700000D01*
X134080761Y-32700000D02*
X136530761Y-35150000D01*
X137680000Y-35150000D02*
X137780000Y-35050000D01*
%TO.N,/Sensors/BAR_MISO*%
X136394365Y-35650000D02*
X137780000Y-35650000D01*
X133500000Y-33700000D02*
X134444365Y-33700000D01*
X134444365Y-33700000D02*
X136394365Y-35650000D01*
%TO.N,/Sensors/BAR_CS*%
X134807969Y-34700000D02*
X136257969Y-36150000D01*
X133500000Y-34700000D02*
X134807969Y-34700000D01*
X136257969Y-36150000D02*
X138230000Y-36150000D01*
X138230000Y-36150000D02*
X138405000Y-35975000D01*
%TO.N,/Sensors/BAR_INT*%
X133500000Y-35700000D02*
X134400000Y-36600000D01*
X134400000Y-36600000D02*
X138654999Y-36600000D01*
X139005000Y-36249999D02*
X139005000Y-35975000D01*
X138654999Y-36600000D02*
X139005000Y-36249999D01*
%TO.N,Net-(U2-SDA{slash}SDI{slash}SDO)*%
X146675000Y-52250000D02*
X146675000Y-51850000D01*
X146675000Y-51850000D02*
X145075000Y-50250000D01*
%TO.N,Net-(U2-C1)*%
X146500000Y-49750000D02*
X146950000Y-50200000D01*
X145075000Y-49750000D02*
X146500000Y-49750000D01*
%TD*%
%TA.AperFunction,Conductor*%
%TO.N,GND_SENS*%
G36*
X161893106Y-34505023D02*
G01*
X161908104Y-34509427D01*
X161966855Y-34547172D01*
X161968042Y-34548541D01*
X161987907Y-34592004D01*
X161991363Y-34590908D01*
X161994195Y-34599835D01*
X161995582Y-34608794D01*
X161997087Y-34612087D01*
X161996608Y-34615423D01*
X162000000Y-34637331D01*
X162000000Y-37000000D01*
X164108170Y-37000000D01*
X164143106Y-37005023D01*
X164158104Y-37009427D01*
X164216855Y-37047172D01*
X164218042Y-37048541D01*
X164245518Y-37103402D01*
X164247163Y-37110960D01*
X164250000Y-37137331D01*
X164250000Y-37263312D01*
X164244975Y-37298253D01*
X164241064Y-37311570D01*
X164203287Y-37370346D01*
X164139733Y-37399367D01*
X164124318Y-37401583D01*
X164096945Y-37402463D01*
X164065655Y-37400000D01*
X164065649Y-37400000D01*
X163625000Y-37400000D01*
X163625000Y-38058170D01*
X163619975Y-38093114D01*
X163615570Y-38108112D01*
X163577827Y-38166855D01*
X163576458Y-38168042D01*
X163521597Y-38195518D01*
X163514039Y-38197163D01*
X163487668Y-38200000D01*
X163375000Y-38200000D01*
X163375000Y-38257670D01*
X163369975Y-38292614D01*
X163365570Y-38307612D01*
X163327827Y-38366355D01*
X163326458Y-38367542D01*
X163271597Y-38395018D01*
X163264039Y-38396663D01*
X163237668Y-38399500D01*
X162684290Y-38399500D01*
X162647428Y-38402401D01*
X162647426Y-38402401D01*
X162647425Y-38402402D01*
X162647419Y-38402403D01*
X162528699Y-38436896D01*
X162458830Y-38436697D01*
X162412902Y-38411533D01*
X162335465Y-38344433D01*
X162335462Y-38344431D01*
X162335460Y-38344430D01*
X162204594Y-38284664D01*
X162204589Y-38284662D01*
X162204588Y-38284662D01*
X162137549Y-38264977D01*
X162137551Y-38264977D01*
X162137546Y-38264976D01*
X162075483Y-38256053D01*
X161995129Y-38244500D01*
X161995127Y-38244500D01*
X156374000Y-38244500D01*
X156306961Y-38224815D01*
X156261206Y-38172011D01*
X156250000Y-38120500D01*
X156250000Y-37949996D01*
X162102703Y-37949996D01*
X162102704Y-37949999D01*
X162102705Y-37950000D01*
X163125000Y-37950000D01*
X163125000Y-37400000D01*
X162684344Y-37400000D01*
X162653051Y-37402463D01*
X162647510Y-37402899D01*
X162647504Y-37402900D01*
X162647497Y-37402901D01*
X162647493Y-37402902D01*
X162489833Y-37448707D01*
X162489802Y-37448717D01*
X162489799Y-37448718D01*
X162348452Y-37532310D01*
X162348447Y-37532313D01*
X162348436Y-37532322D01*
X162232321Y-37648437D01*
X162232312Y-37648449D01*
X162148719Y-37789799D01*
X162102899Y-37947514D01*
X162102898Y-37947519D01*
X162102703Y-37949996D01*
X156250000Y-37949996D01*
X156250000Y-34641829D01*
X156255023Y-34606893D01*
X156259427Y-34591895D01*
X156297172Y-34533144D01*
X156298541Y-34531957D01*
X156353420Y-34504477D01*
X156360979Y-34502833D01*
X156387332Y-34500000D01*
X161858170Y-34500000D01*
X161893106Y-34505023D01*
G37*
%TD.AperFunction*%
%TD*%
%TA.AperFunction,Conductor*%
%TO.N,+3V3_SENS*%
G36*
X162062168Y-38769685D02*
G01*
X162107923Y-38822489D01*
X162117867Y-38891647D01*
X162114206Y-38908594D01*
X162102899Y-38947511D01*
X162102704Y-38949998D01*
X162102705Y-38950000D01*
X162465950Y-38950000D01*
X162500545Y-38954924D01*
X162647426Y-38997597D01*
X162647429Y-38997597D01*
X162647431Y-38997598D01*
X162684306Y-39000500D01*
X162684314Y-39000500D01*
X163251000Y-39000500D01*
X163318039Y-39020185D01*
X163363794Y-39072989D01*
X163375000Y-39124500D01*
X163375000Y-39200000D01*
X163501000Y-39200000D01*
X163568039Y-39219685D01*
X163613794Y-39272489D01*
X163625000Y-39324000D01*
X163625000Y-40000000D01*
X164065634Y-40000000D01*
X164065649Y-39999999D01*
X164102485Y-39997100D01*
X164103709Y-39996877D01*
X164104400Y-39996949D01*
X164108808Y-39996603D01*
X164108872Y-39997420D01*
X164173195Y-40004189D01*
X164227697Y-40047908D01*
X164249911Y-40114152D01*
X164250000Y-40118857D01*
X164250000Y-40376000D01*
X164230315Y-40443039D01*
X164177511Y-40488794D01*
X164126000Y-40500000D01*
X162000000Y-40500000D01*
X162000000Y-42126000D01*
X161980315Y-42193039D01*
X161927511Y-42238794D01*
X161876000Y-42250000D01*
X156374000Y-42250000D01*
X156306961Y-42230315D01*
X156261206Y-42177511D01*
X156250000Y-42126000D01*
X156250000Y-39450001D01*
X162102704Y-39450001D01*
X162102899Y-39452486D01*
X162148718Y-39610198D01*
X162232314Y-39751552D01*
X162232321Y-39751561D01*
X162348438Y-39867678D01*
X162348447Y-39867685D01*
X162489803Y-39951282D01*
X162489806Y-39951283D01*
X162647504Y-39997099D01*
X162647510Y-39997100D01*
X162684350Y-39999999D01*
X162684366Y-40000000D01*
X163125000Y-40000000D01*
X163125000Y-39450000D01*
X162102705Y-39450000D01*
X162102704Y-39450001D01*
X156250000Y-39450001D01*
X156250000Y-38874000D01*
X156269685Y-38806961D01*
X156322489Y-38761206D01*
X156374000Y-38750000D01*
X161995129Y-38750000D01*
X162062168Y-38769685D01*
G37*
%TD.AperFunction*%
%TD*%
M02*
