%TF.GenerationSoftware,KiCad,Pcbnew,10.0.0*%
%TF.CreationDate,2026-06-04T16:58:12-05:00*%
%TF.ProjectId,sensors_pcb,73656e73-6f72-4735-9f70-63622e6b6963,rev?*%
%TF.SameCoordinates,Original*%
%TF.FileFunction,Copper,L4,Bot*%
%TF.FilePolarity,Positive*%
%FSLAX46Y46*%
G04 Gerber Fmt 4.6, Leading zero omitted, Abs format (unit mm)*
G04 Created by KiCad (PCBNEW 10.0.0) date 2026-06-04 16:58:12*
%MOMM*%
%LPD*%
G01*
G04 APERTURE LIST*
%TA.AperFunction,ComponentPad*%
%ADD10C,5.600000*%
%TD*%
%TA.AperFunction,ViaPad*%
%ADD11C,0.700000*%
%TD*%
%TA.AperFunction,Conductor*%
%ADD12C,0.300000*%
%TD*%
G04 APERTURE END LIST*
D10*
%TO.P,H6,1,1_1*%
%TO.N,GND_SENS*%
X163500000Y-25000000D03*
%TD*%
%TO.P,H8,1,1_1*%
%TO.N,GND_SENS*%
X163500000Y-55000000D03*
%TD*%
%TO.P,H7,1,1_1*%
%TO.N,GND_SENS*%
X133500000Y-55000000D03*
%TD*%
%TO.P,H5,1,1_1*%
%TO.N,GND_SENS*%
X133500000Y-25000000D03*
%TD*%
D11*
%TO.N,/Sensors/IIS2_CS*%
X144750000Y-51000000D03*
X149000000Y-53750000D03*
%TO.N,/Sensors/IIS2_IRQ*%
X145250000Y-48000000D03*
X150000000Y-53750000D03*
%TO.N,/Sensors/GPS_TX*%
X157250000Y-30250000D03*
X161500000Y-33000000D03*
%TO.N,/Sensors/IMU_CS*%
X148500000Y-35500000D03*
X135000000Y-46000000D03*
%TO.N,/Sensors/IMU_INT2*%
X150250000Y-37850000D03*
X135000000Y-48000000D03*
%TO.N,GND_SENS*%
X140750000Y-37000000D03*
X152500000Y-41000000D03*
X157000000Y-37500000D03*
X147250000Y-47000000D03*
X144325000Y-48000000D03*
X156500000Y-33500000D03*
X141575000Y-45750000D03*
X157000000Y-35250000D03*
X161000000Y-35250000D03*
X139500000Y-21750000D03*
X162000000Y-48750000D03*
X145584620Y-38084620D03*
X144250000Y-26000000D03*
X148750000Y-42250000D03*
X146750000Y-22500000D03*
X159000000Y-28000000D03*
X145000000Y-21750000D03*
X148487500Y-48250000D03*
X136750000Y-34450000D03*
%TO.N,+3V3_SENS*%
X146750000Y-42250000D03*
X165000000Y-48750000D03*
X157000000Y-41500000D03*
X143500000Y-33950000D03*
X157000000Y-39500000D03*
X142750000Y-44000000D03*
X141575000Y-50250000D03*
X143325000Y-48000000D03*
X161250000Y-40500000D03*
X159000000Y-23500000D03*
X157250000Y-24750000D03*
X157250000Y-27000000D03*
X152500000Y-39000000D03*
%TD*%
%TO.N,/Sensors/IIS2_CS*%
D12*
X147500000Y-53750000D02*
X144750000Y-51000000D01*
X149000000Y-53750000D02*
X147500000Y-53750000D01*
%TO.N,/Sensors/IIS2_IRQ*%
X150000000Y-53750000D02*
X150000000Y-52500000D01*
X150000000Y-52500000D02*
X145500000Y-48000000D01*
X145500000Y-48000000D02*
X145250000Y-48000000D01*
%TO.N,/Sensors/GPS_TX*%
X160000000Y-33000000D02*
X161500000Y-33000000D01*
X157250000Y-30250000D02*
X160000000Y-33000000D01*
%TO.N,/Sensors/IMU_CS*%
X145500000Y-35500000D02*
X148500000Y-35500000D01*
X135000000Y-46000000D02*
X145500000Y-35500000D01*
%TO.N,/Sensors/IMU_INT2*%
X141400000Y-41600000D02*
X146500000Y-41600000D01*
X135000000Y-48000000D02*
X141400000Y-41600000D01*
X146500000Y-41600000D02*
X150250000Y-37850000D01*
%TD*%
M02*
