%TF.GenerationSoftware,KiCad,Pcbnew,10.0.0*%
%TF.CreationDate,2026-06-04T16:57:15-05:00*%
%TF.ProjectId,mcu_pcb,6d63755f-7063-4622-9e6b-696361645f70,rev?*%
%TF.SameCoordinates,Original*%
%TF.FileFunction,Legend,Bot*%
%TF.FilePolarity,Positive*%
%FSLAX46Y46*%
G04 Gerber Fmt 4.6, Leading zero omitted, Abs format (unit mm)*
G04 Created by KiCad (PCBNEW 10.0.0) date 2026-06-04 16:57:15*
%MOMM*%
%LPD*%
G01*
G04 APERTURE LIST*
%ADD10C,0.153000*%
%ADD11C,0.120000*%
G04 APERTURE END LIST*
D10*
G36*
X134484618Y-36682174D02*
G01*
X134514680Y-36712235D01*
X134548672Y-36780219D01*
X134548672Y-36982194D01*
X134514679Y-37050178D01*
X134484619Y-37080239D01*
X134416636Y-37114231D01*
X134262280Y-37114231D01*
X134194296Y-37080239D01*
X134164236Y-37050178D01*
X134130244Y-36982194D01*
X134130244Y-36780219D01*
X134164235Y-36712236D01*
X134194296Y-36682174D01*
X134262280Y-36648183D01*
X134416636Y-36648183D01*
X134484618Y-36682174D01*
G37*
G36*
X138341761Y-36301222D02*
G01*
X138371823Y-36331283D01*
X138410136Y-36407909D01*
X138453434Y-36581101D01*
X138453434Y-36800360D01*
X138410136Y-36973552D01*
X138371822Y-37050178D01*
X138341762Y-37080239D01*
X138273779Y-37114231D01*
X138214661Y-37114231D01*
X138146677Y-37080239D01*
X138116617Y-37050178D01*
X138078304Y-36973552D01*
X138035006Y-36800360D01*
X138035006Y-36581101D01*
X138078304Y-36407909D01*
X138116616Y-36331284D01*
X138146677Y-36301222D01*
X138214661Y-36267231D01*
X138273779Y-36267231D01*
X138341761Y-36301222D01*
G37*
G36*
X138717545Y-37616437D02*
G01*
X133866133Y-37616437D01*
X133866133Y-36762159D01*
X133977244Y-36762159D01*
X133977244Y-37000254D01*
X133978714Y-37015178D01*
X133979766Y-37017718D01*
X133979961Y-37020460D01*
X133985320Y-37034466D01*
X134032939Y-37129704D01*
X134036981Y-37136126D01*
X134037755Y-37137993D01*
X134039479Y-37140094D01*
X134040928Y-37142395D01*
X134042454Y-37143718D01*
X134047269Y-37149585D01*
X134094888Y-37197205D01*
X134100754Y-37202020D01*
X134102079Y-37203547D01*
X134104380Y-37204995D01*
X134106480Y-37206719D01*
X134108345Y-37207491D01*
X134114770Y-37211536D01*
X134210008Y-37259155D01*
X134224014Y-37264514D01*
X134226755Y-37264708D01*
X134229296Y-37265761D01*
X134244220Y-37267231D01*
X134434696Y-37267231D01*
X134449620Y-37265761D01*
X134452160Y-37264708D01*
X134454902Y-37264514D01*
X134468908Y-37259155D01*
X134564146Y-37211536D01*
X134570570Y-37207491D01*
X134572436Y-37206719D01*
X134574535Y-37204995D01*
X134576837Y-37203547D01*
X134578161Y-37202020D01*
X134584028Y-37197205D01*
X134631647Y-37149585D01*
X134636459Y-37143720D01*
X134637988Y-37142395D01*
X134639438Y-37140090D01*
X134641160Y-37137993D01*
X134641931Y-37136130D01*
X134645977Y-37129704D01*
X134693596Y-37034466D01*
X134698955Y-37020460D01*
X134699149Y-37017718D01*
X134700202Y-37015178D01*
X134701672Y-37000254D01*
X134701672Y-36619302D01*
X134701415Y-36616696D01*
X134701581Y-36615583D01*
X134700755Y-36610001D01*
X134700202Y-36604378D01*
X134699770Y-36603336D01*
X134699388Y-36600748D01*
X134651769Y-36410272D01*
X134648626Y-36401476D01*
X134648260Y-36399625D01*
X134647364Y-36397945D01*
X134646723Y-36396150D01*
X134645597Y-36394631D01*
X134641205Y-36386392D01*
X134637748Y-36381207D01*
X134929625Y-36381207D01*
X134929625Y-36476445D01*
X134930369Y-36483999D01*
X134930226Y-36486013D01*
X134930828Y-36488662D01*
X134931095Y-36491369D01*
X134931868Y-36493236D01*
X134933551Y-36500636D01*
X134981170Y-36643493D01*
X134987284Y-36657186D01*
X134989084Y-36659262D01*
X134990137Y-36661803D01*
X134999650Y-36673396D01*
X135440484Y-37114231D01*
X135006125Y-37114231D01*
X134991201Y-37115701D01*
X134963624Y-37127124D01*
X134942518Y-37148230D01*
X134931095Y-37175807D01*
X134931095Y-37205655D01*
X134942518Y-37233232D01*
X134963624Y-37254338D01*
X134991201Y-37265761D01*
X135006125Y-37267231D01*
X135625172Y-37267231D01*
X135640096Y-37265761D01*
X135667673Y-37254338D01*
X135688779Y-37233232D01*
X135700202Y-37205655D01*
X135700202Y-37175807D01*
X135688779Y-37148230D01*
X135679266Y-37136637D01*
X135120606Y-36577976D01*
X135082625Y-36464031D01*
X135082625Y-36399267D01*
X135116616Y-36331284D01*
X135146677Y-36301222D01*
X135214661Y-36267231D01*
X135416636Y-36267231D01*
X135484618Y-36301222D01*
X135523459Y-36340062D01*
X135535051Y-36349576D01*
X135562628Y-36360998D01*
X135592477Y-36360998D01*
X135620054Y-36349576D01*
X135641160Y-36328470D01*
X135652582Y-36300893D01*
X135652582Y-36271044D01*
X135641160Y-36243467D01*
X135631646Y-36231875D01*
X135584028Y-36184256D01*
X135578161Y-36179441D01*
X135576837Y-36177915D01*
X135574533Y-36176464D01*
X135572435Y-36174743D01*
X135570572Y-36173971D01*
X135564146Y-36169926D01*
X135510358Y-36143032D01*
X135786768Y-36143032D01*
X135792561Y-36172314D01*
X135799616Y-36185547D01*
X136656758Y-37471261D01*
X136666260Y-37482863D01*
X136691061Y-37499472D01*
X136720330Y-37505326D01*
X136749612Y-37499533D01*
X136774447Y-37482977D01*
X136791056Y-37458175D01*
X136796910Y-37428907D01*
X136791117Y-37399625D01*
X136784062Y-37386392D01*
X136367907Y-36762159D01*
X136929625Y-36762159D01*
X136929625Y-37000254D01*
X136931095Y-37015178D01*
X136932147Y-37017718D01*
X136932342Y-37020460D01*
X136937701Y-37034466D01*
X136985320Y-37129704D01*
X136989362Y-37136126D01*
X136990136Y-37137993D01*
X136991860Y-37140094D01*
X136993309Y-37142395D01*
X136994835Y-37143718D01*
X136999650Y-37149585D01*
X137047269Y-37197205D01*
X137053135Y-37202020D01*
X137054460Y-37203547D01*
X137056761Y-37204995D01*
X137058861Y-37206719D01*
X137060726Y-37207491D01*
X137067151Y-37211536D01*
X137162389Y-37259155D01*
X137176395Y-37264514D01*
X137179136Y-37264708D01*
X137181677Y-37265761D01*
X137196601Y-37267231D01*
X137434696Y-37267231D01*
X137449620Y-37265761D01*
X137452160Y-37264708D01*
X137454902Y-37264514D01*
X137468908Y-37259155D01*
X137564146Y-37211536D01*
X137570570Y-37207491D01*
X137572436Y-37206719D01*
X137574535Y-37204995D01*
X137576837Y-37203547D01*
X137578161Y-37202020D01*
X137584028Y-37197205D01*
X137631647Y-37149585D01*
X137641160Y-37137993D01*
X137652583Y-37110416D01*
X137652582Y-37080567D01*
X137641160Y-37052990D01*
X137620054Y-37031885D01*
X137592476Y-37020462D01*
X137562628Y-37020463D01*
X137535051Y-37031885D01*
X137523459Y-37041399D01*
X137484619Y-37080239D01*
X137416636Y-37114231D01*
X137214661Y-37114231D01*
X137146677Y-37080239D01*
X137116617Y-37050178D01*
X137082625Y-36982194D01*
X137082625Y-36780219D01*
X137116616Y-36712236D01*
X137146677Y-36682174D01*
X137214661Y-36648183D01*
X137416636Y-36648183D01*
X137484618Y-36682174D01*
X137523459Y-36721014D01*
X137535051Y-36730528D01*
X137538612Y-36732003D01*
X137541592Y-36734441D01*
X137552298Y-36737671D01*
X137562628Y-36741950D01*
X137566477Y-36741950D01*
X137570169Y-36743064D01*
X137581309Y-36741950D01*
X137592477Y-36741950D01*
X137596031Y-36740477D01*
X137599869Y-36740094D01*
X137609727Y-36734804D01*
X137620054Y-36730528D01*
X137622778Y-36727803D01*
X137626172Y-36725983D01*
X137633250Y-36717331D01*
X137641160Y-36709422D01*
X137642634Y-36705862D01*
X137645073Y-36702882D01*
X137648304Y-36692172D01*
X137652582Y-36681845D01*
X137652582Y-36677996D01*
X137653696Y-36674305D01*
X137653673Y-36659309D01*
X137644910Y-36571683D01*
X137882006Y-36571683D01*
X137882006Y-36809778D01*
X137882262Y-36812383D01*
X137882097Y-36813497D01*
X137882922Y-36819078D01*
X137883476Y-36824702D01*
X137883907Y-36825743D01*
X137884290Y-36828332D01*
X137931909Y-37018808D01*
X137932302Y-37019910D01*
X137932342Y-37020460D01*
X137934720Y-37026675D01*
X137936955Y-37032930D01*
X137937282Y-37033371D01*
X137937701Y-37034466D01*
X137985320Y-37129704D01*
X137989362Y-37136126D01*
X137990136Y-37137993D01*
X137991860Y-37140094D01*
X137993309Y-37142395D01*
X137994835Y-37143718D01*
X137999650Y-37149585D01*
X138047269Y-37197205D01*
X138053135Y-37202020D01*
X138054460Y-37203547D01*
X138056761Y-37204995D01*
X138058861Y-37206719D01*
X138060726Y-37207491D01*
X138067151Y-37211536D01*
X138162389Y-37259155D01*
X138176395Y-37264514D01*
X138179136Y-37264708D01*
X138181677Y-37265761D01*
X138196601Y-37267231D01*
X138291839Y-37267231D01*
X138306763Y-37265761D01*
X138309303Y-37264708D01*
X138312045Y-37264514D01*
X138326051Y-37259155D01*
X138421289Y-37211536D01*
X138427713Y-37207491D01*
X138429579Y-37206719D01*
X138431678Y-37204995D01*
X138433980Y-37203547D01*
X138435304Y-37202020D01*
X138441171Y-37197205D01*
X138488790Y-37149585D01*
X138493602Y-37143720D01*
X138495131Y-37142395D01*
X138496581Y-37140090D01*
X138498303Y-37137993D01*
X138499074Y-37136130D01*
X138503120Y-37129704D01*
X138550739Y-37034466D01*
X138551157Y-37033371D01*
X138551485Y-37032930D01*
X138553719Y-37026675D01*
X138556098Y-37020460D01*
X138556137Y-37019910D01*
X138556531Y-37018808D01*
X138604150Y-36828332D01*
X138604532Y-36825743D01*
X138604964Y-36824702D01*
X138605517Y-36819078D01*
X138606343Y-36813497D01*
X138606177Y-36812383D01*
X138606434Y-36809778D01*
X138606434Y-36571683D01*
X138606177Y-36569077D01*
X138606343Y-36567964D01*
X138605517Y-36562382D01*
X138604964Y-36556759D01*
X138604532Y-36555717D01*
X138604150Y-36553129D01*
X138556531Y-36362653D01*
X138556137Y-36361550D01*
X138556098Y-36361001D01*
X138553719Y-36354785D01*
X138551485Y-36348531D01*
X138551157Y-36348089D01*
X138550739Y-36346995D01*
X138503120Y-36251757D01*
X138499075Y-36245332D01*
X138498303Y-36243467D01*
X138496579Y-36241367D01*
X138495131Y-36239066D01*
X138493604Y-36237741D01*
X138488789Y-36231875D01*
X138441171Y-36184256D01*
X138435304Y-36179441D01*
X138433980Y-36177915D01*
X138431676Y-36176464D01*
X138429578Y-36174743D01*
X138427715Y-36173971D01*
X138421289Y-36169926D01*
X138326051Y-36122307D01*
X138312045Y-36116948D01*
X138309303Y-36116753D01*
X138306763Y-36115701D01*
X138291839Y-36114231D01*
X138196601Y-36114231D01*
X138181677Y-36115701D01*
X138179136Y-36116753D01*
X138176395Y-36116948D01*
X138162389Y-36122307D01*
X138067151Y-36169926D01*
X138060726Y-36173970D01*
X138058861Y-36174743D01*
X138056761Y-36176466D01*
X138054460Y-36177915D01*
X138053135Y-36179441D01*
X138047269Y-36184257D01*
X137999650Y-36231875D01*
X137994835Y-36237741D01*
X137993309Y-36239066D01*
X137991858Y-36241369D01*
X137990137Y-36243468D01*
X137989365Y-36245330D01*
X137985320Y-36251757D01*
X137937701Y-36346995D01*
X137937282Y-36348089D01*
X137936955Y-36348531D01*
X137934720Y-36354785D01*
X137932342Y-36361001D01*
X137932302Y-36361550D01*
X137931909Y-36362653D01*
X137884290Y-36553129D01*
X137883907Y-36555717D01*
X137883476Y-36556759D01*
X137882922Y-36562382D01*
X137882097Y-36567964D01*
X137882262Y-36569077D01*
X137882006Y-36571683D01*
X137644910Y-36571683D01*
X137606054Y-36183119D01*
X137604964Y-36177680D01*
X137604964Y-36175807D01*
X137604236Y-36174050D01*
X137603107Y-36168415D01*
X137597819Y-36158559D01*
X137593541Y-36148230D01*
X137590816Y-36145505D01*
X137588996Y-36142112D01*
X137580344Y-36135033D01*
X137572435Y-36127124D01*
X137568875Y-36125649D01*
X137565895Y-36123211D01*
X137555190Y-36119980D01*
X137544858Y-36115701D01*
X137539140Y-36115137D01*
X137537318Y-36114588D01*
X137535452Y-36114774D01*
X137529934Y-36114231D01*
X137053744Y-36114231D01*
X137038820Y-36115701D01*
X137011243Y-36127124D01*
X136990137Y-36148230D01*
X136978714Y-36175807D01*
X136978714Y-36205655D01*
X136990137Y-36233232D01*
X137011243Y-36254338D01*
X137038820Y-36265761D01*
X137053744Y-36267231D01*
X137460703Y-36267231D01*
X137485116Y-36511363D01*
X137468908Y-36503259D01*
X137454902Y-36497900D01*
X137452160Y-36497705D01*
X137449620Y-36496653D01*
X137434696Y-36495183D01*
X137196601Y-36495183D01*
X137181677Y-36496653D01*
X137179136Y-36497705D01*
X137176395Y-36497900D01*
X137162389Y-36503259D01*
X137067151Y-36550878D01*
X137060726Y-36554922D01*
X137058861Y-36555695D01*
X137056761Y-36557418D01*
X137054460Y-36558867D01*
X137053135Y-36560393D01*
X137047269Y-36565209D01*
X136999650Y-36612827D01*
X136994835Y-36618693D01*
X136993309Y-36620018D01*
X136991858Y-36622321D01*
X136990137Y-36624420D01*
X136989365Y-36626282D01*
X136985320Y-36632709D01*
X136937701Y-36727947D01*
X136932342Y-36741953D01*
X136932147Y-36744694D01*
X136931095Y-36747235D01*
X136929625Y-36762159D01*
X136367907Y-36762159D01*
X135926920Y-36100677D01*
X135917418Y-36089075D01*
X135892617Y-36072466D01*
X135863348Y-36066612D01*
X135834066Y-36072405D01*
X135809231Y-36088962D01*
X135792622Y-36113763D01*
X135786768Y-36143032D01*
X135510358Y-36143032D01*
X135468908Y-36122307D01*
X135454902Y-36116948D01*
X135452160Y-36116753D01*
X135449620Y-36115701D01*
X135434696Y-36114231D01*
X135196601Y-36114231D01*
X135181677Y-36115701D01*
X135179136Y-36116753D01*
X135176395Y-36116948D01*
X135162389Y-36122307D01*
X135067151Y-36169926D01*
X135060726Y-36173970D01*
X135058861Y-36174743D01*
X135056761Y-36176466D01*
X135054460Y-36177915D01*
X135053135Y-36179441D01*
X135047269Y-36184257D01*
X134999650Y-36231875D01*
X134994835Y-36237741D01*
X134993309Y-36239066D01*
X134991858Y-36241369D01*
X134990137Y-36243468D01*
X134989365Y-36245330D01*
X134985320Y-36251757D01*
X134937701Y-36346995D01*
X134932342Y-36361001D01*
X134932147Y-36363742D01*
X134931095Y-36366283D01*
X134929625Y-36381207D01*
X134637748Y-36381207D01*
X134545967Y-36243534D01*
X134545932Y-36243491D01*
X134545922Y-36243467D01*
X134541269Y-36237798D01*
X134536465Y-36231932D01*
X134536442Y-36231916D01*
X134536408Y-36231875D01*
X134488790Y-36184256D01*
X134482923Y-36179441D01*
X134481599Y-36177915D01*
X134479295Y-36176464D01*
X134477197Y-36174743D01*
X134475334Y-36173971D01*
X134468908Y-36169926D01*
X134373670Y-36122307D01*
X134359664Y-36116948D01*
X134356922Y-36116753D01*
X134354382Y-36115701D01*
X134339458Y-36114231D01*
X134148982Y-36114231D01*
X134134058Y-36115701D01*
X134106481Y-36127124D01*
X134085375Y-36148230D01*
X134073952Y-36175807D01*
X134073952Y-36205655D01*
X134085375Y-36233232D01*
X134106481Y-36254338D01*
X134134058Y-36265761D01*
X134148982Y-36267231D01*
X134321398Y-36267231D01*
X134389380Y-36301222D01*
X134422863Y-36334704D01*
X134506551Y-36460236D01*
X134524220Y-36530915D01*
X134468908Y-36503259D01*
X134454902Y-36497900D01*
X134452160Y-36497705D01*
X134449620Y-36496653D01*
X134434696Y-36495183D01*
X134244220Y-36495183D01*
X134229296Y-36496653D01*
X134226755Y-36497705D01*
X134224014Y-36497900D01*
X134210008Y-36503259D01*
X134114770Y-36550878D01*
X134108345Y-36554922D01*
X134106480Y-36555695D01*
X134104380Y-36557418D01*
X134102079Y-36558867D01*
X134100754Y-36560393D01*
X134094888Y-36565209D01*
X134047269Y-36612827D01*
X134042454Y-36618693D01*
X134040928Y-36620018D01*
X134039477Y-36622321D01*
X134037756Y-36624420D01*
X134036984Y-36626282D01*
X134032939Y-36632709D01*
X133985320Y-36727947D01*
X133979961Y-36741953D01*
X133979766Y-36744694D01*
X133978714Y-36747235D01*
X133977244Y-36762159D01*
X133866133Y-36762159D01*
X133866133Y-35955501D01*
X138717545Y-35955501D01*
X138717545Y-37616437D01*
G37*
G36*
X140853663Y-36301222D02*
G01*
X140883725Y-36331283D01*
X140922038Y-36407909D01*
X140965336Y-36581101D01*
X140965336Y-36800360D01*
X140922038Y-36973552D01*
X140883724Y-37050178D01*
X140853664Y-37080239D01*
X140785681Y-37114231D01*
X140726563Y-37114231D01*
X140658579Y-37080239D01*
X140628519Y-37050178D01*
X140590206Y-36973552D01*
X140546908Y-36800360D01*
X140546908Y-36581101D01*
X140590206Y-36407909D01*
X140628518Y-36331284D01*
X140658579Y-36301222D01*
X140726563Y-36267231D01*
X140785681Y-36267231D01*
X140853663Y-36301222D01*
G37*
G36*
X144746721Y-36628703D02*
G01*
X144774860Y-36684981D01*
X144774860Y-36764081D01*
X144451670Y-36699444D01*
X144451670Y-36684981D01*
X144479809Y-36628703D01*
X144536087Y-36600564D01*
X144690443Y-36600564D01*
X144746721Y-36628703D01*
G37*
G36*
X149365769Y-36628703D02*
G01*
X149393908Y-36684981D01*
X149393908Y-36764081D01*
X149070718Y-36699444D01*
X149070718Y-36684981D01*
X149098857Y-36628703D01*
X149155135Y-36600564D01*
X149309491Y-36600564D01*
X149365769Y-36628703D01*
G37*
G36*
X151139378Y-36634555D02*
G01*
X151169440Y-36664616D01*
X151203432Y-36732600D01*
X151203432Y-36982194D01*
X151169439Y-37050178D01*
X151139379Y-37080239D01*
X151071396Y-37114231D01*
X150964659Y-37114231D01*
X150896675Y-37080239D01*
X150866615Y-37050178D01*
X150832623Y-36982194D01*
X150832623Y-36732600D01*
X150866614Y-36664617D01*
X150896675Y-36634555D01*
X150964659Y-36600564D01*
X151071396Y-36600564D01*
X151139378Y-36634555D01*
G37*
G36*
X156234618Y-36634555D02*
G01*
X156264680Y-36664616D01*
X156298672Y-36732600D01*
X156298672Y-36982194D01*
X156264679Y-37050178D01*
X156234619Y-37080239D01*
X156166636Y-37114231D01*
X156059899Y-37114231D01*
X155991915Y-37080239D01*
X155961855Y-37050178D01*
X155927863Y-36982194D01*
X155927863Y-36732600D01*
X155961854Y-36664617D01*
X155991915Y-36634555D01*
X156059899Y-36600564D01*
X156166636Y-36600564D01*
X156234618Y-36634555D01*
G37*
G36*
X145727241Y-36638040D02*
G01*
X145440849Y-36638040D01*
X145372865Y-36604048D01*
X145342804Y-36573986D01*
X145308813Y-36506004D01*
X145308813Y-36399267D01*
X145342804Y-36331284D01*
X145372865Y-36301222D01*
X145440849Y-36267231D01*
X145727241Y-36267231D01*
X145727241Y-36638040D01*
G37*
G36*
X157419926Y-37711074D02*
G01*
X140282797Y-37711074D01*
X140282797Y-37271045D01*
X152204903Y-37271045D01*
X152204903Y-37300893D01*
X152216326Y-37328470D01*
X152237432Y-37349576D01*
X152265009Y-37360999D01*
X152279933Y-37362469D01*
X153041838Y-37362469D01*
X153056762Y-37360999D01*
X153084339Y-37349576D01*
X153105445Y-37328470D01*
X153116868Y-37300893D01*
X153116868Y-37271045D01*
X153105445Y-37243468D01*
X153084339Y-37222362D01*
X153056762Y-37210939D01*
X153041838Y-37209469D01*
X152279933Y-37209469D01*
X152265009Y-37210939D01*
X152237432Y-37222362D01*
X152216326Y-37243468D01*
X152204903Y-37271045D01*
X140282797Y-37271045D01*
X140282797Y-36571683D01*
X140393908Y-36571683D01*
X140393908Y-36809778D01*
X140394164Y-36812383D01*
X140393999Y-36813497D01*
X140394824Y-36819078D01*
X140395378Y-36824702D01*
X140395809Y-36825743D01*
X140396192Y-36828332D01*
X140443811Y-37018808D01*
X140444204Y-37019910D01*
X140444244Y-37020460D01*
X140446622Y-37026675D01*
X140448857Y-37032930D01*
X140449184Y-37033371D01*
X140449603Y-37034466D01*
X140497222Y-37129704D01*
X140501264Y-37136126D01*
X140502038Y-37137993D01*
X140503762Y-37140094D01*
X140505211Y-37142395D01*
X140506737Y-37143718D01*
X140511552Y-37149585D01*
X140559171Y-37197205D01*
X140565037Y-37202020D01*
X140566362Y-37203547D01*
X140568663Y-37204995D01*
X140570763Y-37206719D01*
X140572628Y-37207491D01*
X140579053Y-37211536D01*
X140674291Y-37259155D01*
X140688297Y-37264514D01*
X140691038Y-37264708D01*
X140693579Y-37265761D01*
X140708503Y-37267231D01*
X140803741Y-37267231D01*
X140818665Y-37265761D01*
X140821205Y-37264708D01*
X140823947Y-37264514D01*
X140837953Y-37259155D01*
X140933191Y-37211536D01*
X140939615Y-37207491D01*
X140941481Y-37206719D01*
X140943580Y-37204995D01*
X140945882Y-37203547D01*
X140947206Y-37202020D01*
X140953073Y-37197205D01*
X141000692Y-37149585D01*
X141005504Y-37143720D01*
X141007033Y-37142395D01*
X141008483Y-37140090D01*
X141010205Y-37137993D01*
X141010976Y-37136130D01*
X141015022Y-37129704D01*
X141015780Y-37128189D01*
X141347758Y-37128189D01*
X141347758Y-37158037D01*
X141359181Y-37185614D01*
X141359185Y-37185618D01*
X141368694Y-37197206D01*
X141416313Y-37244824D01*
X141427905Y-37254338D01*
X141439038Y-37258949D01*
X141455483Y-37265761D01*
X141485331Y-37265761D01*
X141512908Y-37254338D01*
X141524501Y-37244825D01*
X141572119Y-37197206D01*
X141581633Y-37185614D01*
X141585695Y-37175807D01*
X141823949Y-37175807D01*
X141823949Y-37205655D01*
X141835372Y-37233232D01*
X141856478Y-37254338D01*
X141884055Y-37265761D01*
X141898979Y-37267231D01*
X142470407Y-37267231D01*
X142485331Y-37265761D01*
X142512908Y-37254338D01*
X142534014Y-37233232D01*
X142545437Y-37205655D01*
X142545437Y-37175807D01*
X142534014Y-37148230D01*
X142512908Y-37127124D01*
X142485331Y-37115701D01*
X142470407Y-37114231D01*
X142261193Y-37114231D01*
X142261193Y-36423038D01*
X142321075Y-36482920D01*
X142326941Y-36487734D01*
X142328266Y-36489261D01*
X142330569Y-36490711D01*
X142332668Y-36492433D01*
X142334530Y-36493204D01*
X142340957Y-36497250D01*
X142436195Y-36544869D01*
X142450201Y-36550228D01*
X142479975Y-36552344D01*
X142508292Y-36542905D01*
X142517124Y-36535245D01*
X143489968Y-36535245D01*
X143493603Y-36549794D01*
X143731698Y-37216460D01*
X143738101Y-37230021D01*
X143740680Y-37232869D01*
X143742323Y-37236338D01*
X143750619Y-37243848D01*
X143758134Y-37252149D01*
X143761604Y-37253792D01*
X143764451Y-37256370D01*
X143774992Y-37260134D01*
X143785109Y-37264927D01*
X143788944Y-37265117D01*
X143792560Y-37266409D01*
X143803741Y-37265853D01*
X143814922Y-37266409D01*
X143818537Y-37265117D01*
X143822373Y-37264927D01*
X143832489Y-37260134D01*
X143843031Y-37256370D01*
X143845877Y-37253792D01*
X143849348Y-37252149D01*
X143856860Y-37243850D01*
X143865159Y-37236338D01*
X143866802Y-37232868D01*
X143869380Y-37230021D01*
X143875784Y-37216461D01*
X144072048Y-36666921D01*
X144298670Y-36666921D01*
X144298670Y-36762159D01*
X144300140Y-36777083D01*
X144303008Y-36784007D01*
X144304463Y-36791360D01*
X144308664Y-36797662D01*
X144311563Y-36804660D01*
X144316862Y-36809959D01*
X144321020Y-36816196D01*
X144327314Y-36820411D01*
X144332669Y-36825766D01*
X144339592Y-36828633D01*
X144345821Y-36832805D01*
X144360167Y-36837173D01*
X144360245Y-36837188D01*
X144360246Y-36837189D01*
X144360247Y-36837189D01*
X144774860Y-36920111D01*
X144774860Y-37029814D01*
X144746721Y-37086092D01*
X144690443Y-37114231D01*
X144536087Y-37114231D01*
X144457001Y-37074688D01*
X144442995Y-37069329D01*
X144413221Y-37067213D01*
X144384904Y-37076652D01*
X144362354Y-37096209D01*
X144349006Y-37122906D01*
X144346890Y-37152680D01*
X144356329Y-37180997D01*
X144375886Y-37203547D01*
X144388577Y-37211536D01*
X144483815Y-37259155D01*
X144497821Y-37264514D01*
X144500562Y-37264708D01*
X144503103Y-37265761D01*
X144518027Y-37267231D01*
X144708503Y-37267231D01*
X144723427Y-37265761D01*
X144725967Y-37264708D01*
X144728709Y-37264514D01*
X144742715Y-37259155D01*
X144837953Y-37211536D01*
X144840450Y-37209963D01*
X144841626Y-37209572D01*
X144843090Y-37208302D01*
X144850644Y-37203547D01*
X144856929Y-37196300D01*
X144864176Y-37190015D01*
X144868931Y-37182461D01*
X144870201Y-37180997D01*
X144870592Y-37179821D01*
X144872165Y-37177324D01*
X144919784Y-37082085D01*
X144925143Y-37068079D01*
X144925337Y-37065337D01*
X144926390Y-37062797D01*
X144927860Y-37047873D01*
X144927860Y-36666921D01*
X144926390Y-36651997D01*
X144925337Y-36649456D01*
X144925143Y-36646715D01*
X144919784Y-36632709D01*
X144872165Y-36537471D01*
X144870592Y-36534973D01*
X144870201Y-36533798D01*
X144868931Y-36532333D01*
X144864176Y-36524780D01*
X144856929Y-36518494D01*
X144850644Y-36511248D01*
X144843090Y-36506492D01*
X144841626Y-36505223D01*
X144840450Y-36504831D01*
X144837953Y-36503259D01*
X144742715Y-36455640D01*
X144728709Y-36450281D01*
X144725967Y-36450086D01*
X144723427Y-36449034D01*
X144708503Y-36447564D01*
X144518027Y-36447564D01*
X144503103Y-36449034D01*
X144500562Y-36450086D01*
X144497821Y-36450281D01*
X144483815Y-36455640D01*
X144388577Y-36503259D01*
X144386079Y-36504831D01*
X144384904Y-36505223D01*
X144383439Y-36506492D01*
X144375886Y-36511248D01*
X144369600Y-36518494D01*
X144362354Y-36524780D01*
X144357598Y-36532333D01*
X144356329Y-36533798D01*
X144355937Y-36534973D01*
X144354365Y-36537471D01*
X144306746Y-36632709D01*
X144301387Y-36646715D01*
X144301192Y-36649456D01*
X144300140Y-36651997D01*
X144298670Y-36666921D01*
X144072048Y-36666921D01*
X144113879Y-36549794D01*
X144117514Y-36535245D01*
X144116032Y-36505433D01*
X144103254Y-36478457D01*
X144081126Y-36458425D01*
X144053017Y-36448386D01*
X144023204Y-36449868D01*
X143996229Y-36462646D01*
X143976196Y-36484774D01*
X143969793Y-36498335D01*
X143803741Y-36963280D01*
X143637689Y-36498334D01*
X143631285Y-36484774D01*
X143611253Y-36462646D01*
X143584278Y-36449868D01*
X143554465Y-36448386D01*
X143526356Y-36458425D01*
X143504228Y-36478457D01*
X143491450Y-36505432D01*
X143489968Y-36535245D01*
X142517124Y-36535245D01*
X142530841Y-36523348D01*
X142544190Y-36496651D01*
X142546306Y-36466877D01*
X142536867Y-36438560D01*
X142517310Y-36416010D01*
X142504619Y-36408021D01*
X142450991Y-36381207D01*
X145155813Y-36381207D01*
X145155813Y-36524064D01*
X145157283Y-36538988D01*
X145158335Y-36541528D01*
X145158530Y-36544270D01*
X145163889Y-36558276D01*
X145211508Y-36653514D01*
X145215553Y-36659940D01*
X145216325Y-36661803D01*
X145218046Y-36663901D01*
X145219497Y-36666205D01*
X145221023Y-36667529D01*
X145225838Y-36673396D01*
X145273457Y-36721014D01*
X145279323Y-36725829D01*
X145280648Y-36727356D01*
X145282949Y-36728804D01*
X145285049Y-36730528D01*
X145286914Y-36731300D01*
X145293339Y-36735345D01*
X145388577Y-36782964D01*
X145402583Y-36788323D01*
X145405324Y-36788517D01*
X145407865Y-36789570D01*
X145418978Y-36790664D01*
X145169642Y-37146861D01*
X145162288Y-37159930D01*
X145155831Y-37189073D01*
X145161019Y-37218467D01*
X145177060Y-37243640D01*
X145201512Y-37260756D01*
X145230655Y-37267213D01*
X145260049Y-37262025D01*
X145285222Y-37245984D01*
X145294984Y-37234601D01*
X145605476Y-36791040D01*
X145727241Y-36791040D01*
X145727241Y-37190731D01*
X145728711Y-37205655D01*
X145740134Y-37233232D01*
X145761240Y-37254338D01*
X145788817Y-37265761D01*
X145818665Y-37265761D01*
X145846242Y-37254338D01*
X145867348Y-37233232D01*
X145878771Y-37205655D01*
X145880241Y-37190731D01*
X145880241Y-36794854D01*
X146966807Y-36794854D01*
X146966807Y-36824702D01*
X146978230Y-36852279D01*
X146999336Y-36873385D01*
X147026913Y-36884808D01*
X147041837Y-36886278D01*
X147803741Y-36886278D01*
X147818665Y-36884808D01*
X147846242Y-36873385D01*
X147867348Y-36852279D01*
X147878771Y-36824702D01*
X147878771Y-36794854D01*
X147867348Y-36767277D01*
X147846242Y-36746171D01*
X147818665Y-36734748D01*
X147803741Y-36733278D01*
X147041837Y-36733278D01*
X147026913Y-36734748D01*
X146999336Y-36746171D01*
X146978230Y-36767277D01*
X146966807Y-36794854D01*
X145880241Y-36794854D01*
X145880241Y-36666921D01*
X148917718Y-36666921D01*
X148917718Y-36762159D01*
X148919188Y-36777083D01*
X148922056Y-36784007D01*
X148923511Y-36791360D01*
X148927712Y-36797662D01*
X148930611Y-36804660D01*
X148935910Y-36809959D01*
X148940068Y-36816196D01*
X148946362Y-36820411D01*
X148951717Y-36825766D01*
X148958640Y-36828633D01*
X148964869Y-36832805D01*
X148979215Y-36837173D01*
X148979293Y-36837188D01*
X148979294Y-36837189D01*
X148979295Y-36837189D01*
X149393908Y-36920111D01*
X149393908Y-37029814D01*
X149365769Y-37086092D01*
X149309491Y-37114231D01*
X149155135Y-37114231D01*
X149076049Y-37074688D01*
X149062043Y-37069329D01*
X149032269Y-37067213D01*
X149003952Y-37076652D01*
X148981402Y-37096209D01*
X148968054Y-37122906D01*
X148965938Y-37152680D01*
X148975377Y-37180997D01*
X148994934Y-37203547D01*
X149007625Y-37211536D01*
X149102863Y-37259155D01*
X149116869Y-37264514D01*
X149119610Y-37264708D01*
X149122151Y-37265761D01*
X149137075Y-37267231D01*
X149327551Y-37267231D01*
X149342475Y-37265761D01*
X149345015Y-37264708D01*
X149347757Y-37264514D01*
X149361763Y-37259155D01*
X149457001Y-37211536D01*
X149459498Y-37209963D01*
X149460674Y-37209572D01*
X149462138Y-37208302D01*
X149469692Y-37203547D01*
X149475977Y-37196300D01*
X149483224Y-37190015D01*
X149487979Y-37182461D01*
X149489249Y-37180997D01*
X149489640Y-37179821D01*
X149491213Y-37177324D01*
X149538832Y-37082085D01*
X149544191Y-37068079D01*
X149544385Y-37065337D01*
X149545438Y-37062797D01*
X149546908Y-37047873D01*
X149546908Y-36666921D01*
X149822480Y-36666921D01*
X149822480Y-37190731D01*
X149823950Y-37205655D01*
X149835373Y-37233232D01*
X149856479Y-37254338D01*
X149884056Y-37265761D01*
X149913904Y-37265761D01*
X149941481Y-37254338D01*
X149962587Y-37233232D01*
X149974010Y-37205655D01*
X149975480Y-37190731D01*
X149975480Y-36684981D01*
X150003619Y-36628703D01*
X150059897Y-36600564D01*
X150166634Y-36600564D01*
X150234616Y-36634555D01*
X150251051Y-36650989D01*
X150251051Y-37190731D01*
X150252521Y-37205655D01*
X150263944Y-37233232D01*
X150285050Y-37254338D01*
X150312627Y-37265761D01*
X150342475Y-37265761D01*
X150370052Y-37254338D01*
X150391158Y-37233232D01*
X150402581Y-37205655D01*
X150404051Y-37190731D01*
X150404051Y-36714540D01*
X150679623Y-36714540D01*
X150679623Y-37000254D01*
X150681093Y-37015178D01*
X150682145Y-37017718D01*
X150682340Y-37020460D01*
X150687699Y-37034466D01*
X150735318Y-37129704D01*
X150739360Y-37136126D01*
X150740134Y-37137993D01*
X150741858Y-37140094D01*
X150743307Y-37142395D01*
X150744833Y-37143718D01*
X150749648Y-37149585D01*
X150797267Y-37197205D01*
X150803133Y-37202020D01*
X150804458Y-37203547D01*
X150806759Y-37204995D01*
X150808859Y-37206719D01*
X150810724Y-37207491D01*
X150817149Y-37211536D01*
X150912387Y-37259155D01*
X150926393Y-37264514D01*
X150929134Y-37264708D01*
X150931675Y-37265761D01*
X150946599Y-37267231D01*
X151089456Y-37267231D01*
X151104380Y-37265761D01*
X151106920Y-37264708D01*
X151109662Y-37264514D01*
X151123668Y-37259155D01*
X151218906Y-37211536D01*
X151225330Y-37207491D01*
X151227196Y-37206719D01*
X151229295Y-37204995D01*
X151231597Y-37203547D01*
X151232921Y-37202020D01*
X151238788Y-37197205D01*
X151286407Y-37149585D01*
X151291219Y-37143720D01*
X151292748Y-37142395D01*
X151294198Y-37140090D01*
X151295920Y-37137993D01*
X151296691Y-37136130D01*
X151300737Y-37129704D01*
X151348356Y-37034466D01*
X151353715Y-37020460D01*
X151353909Y-37017718D01*
X151354962Y-37015178D01*
X151356432Y-37000254D01*
X151356432Y-36714540D01*
X151354962Y-36699616D01*
X151353909Y-36697075D01*
X151353715Y-36694334D01*
X151348356Y-36680328D01*
X151300737Y-36585090D01*
X151296692Y-36578665D01*
X151295920Y-36576800D01*
X151294196Y-36574700D01*
X151292748Y-36572399D01*
X151291221Y-36571074D01*
X151286406Y-36565208D01*
X151251141Y-36529942D01*
X151536993Y-36529942D01*
X151538236Y-36534377D01*
X151538236Y-36538988D01*
X151542231Y-36548633D01*
X151545048Y-36558684D01*
X151548888Y-36564703D01*
X151549659Y-36566565D01*
X151550808Y-36567714D01*
X151553113Y-36571327D01*
X151979680Y-37114231D01*
X151613266Y-37114231D01*
X151598342Y-37115701D01*
X151570765Y-37127124D01*
X151549659Y-37148230D01*
X151538236Y-37175807D01*
X151538236Y-37205655D01*
X151549659Y-37233232D01*
X151570765Y-37254338D01*
X151598342Y-37265761D01*
X151613266Y-37267231D01*
X152137075Y-37267231D01*
X152141342Y-37266810D01*
X152142953Y-37267004D01*
X152144889Y-37266461D01*
X152151999Y-37265761D01*
X152161644Y-37261765D01*
X152171695Y-37258949D01*
X152175319Y-37256101D01*
X152179576Y-37254338D01*
X152186955Y-37246958D01*
X152195165Y-37240508D01*
X152197423Y-37236490D01*
X152200682Y-37233232D01*
X152204677Y-37223586D01*
X152209792Y-37214488D01*
X152210340Y-37209913D01*
X152212105Y-37205655D01*
X152212105Y-37195211D01*
X152213348Y-37184853D01*
X152212105Y-37180417D01*
X152212105Y-37175807D01*
X152208109Y-37166161D01*
X152205293Y-37156111D01*
X152201452Y-37150091D01*
X152200682Y-37148230D01*
X152199532Y-37147080D01*
X152197228Y-37143468D01*
X151770661Y-36600564D01*
X152137075Y-36600564D01*
X152151999Y-36599094D01*
X152179576Y-36587671D01*
X152200682Y-36566565D01*
X152212105Y-36538988D01*
X152212105Y-36535245D01*
X153109017Y-36535245D01*
X153112652Y-36549794D01*
X153350747Y-37216460D01*
X153351361Y-37217761D01*
X153351762Y-37219142D01*
X153446999Y-37457237D01*
X153453907Y-37470548D01*
X153454239Y-37470888D01*
X153454421Y-37471327D01*
X153463934Y-37482920D01*
X153511553Y-37530538D01*
X153517419Y-37535353D01*
X153518744Y-37536880D01*
X153521045Y-37538328D01*
X153523145Y-37540052D01*
X153525010Y-37540824D01*
X153531435Y-37544869D01*
X153626673Y-37592488D01*
X153640679Y-37597847D01*
X153670453Y-37599963D01*
X153698770Y-37590524D01*
X153721319Y-37570967D01*
X153734668Y-37544270D01*
X153736784Y-37514496D01*
X153727345Y-37486179D01*
X153707788Y-37463629D01*
X153695097Y-37455640D01*
X153610961Y-37413572D01*
X153583224Y-37385834D01*
X153537308Y-37271045D01*
X154823952Y-37271045D01*
X154823952Y-37300893D01*
X154835375Y-37328470D01*
X154856481Y-37349576D01*
X154884058Y-37360999D01*
X154898982Y-37362469D01*
X155660887Y-37362469D01*
X155675811Y-37360999D01*
X155703388Y-37349576D01*
X155724494Y-37328470D01*
X155735917Y-37300893D01*
X155735917Y-37271045D01*
X155724494Y-37243468D01*
X155703388Y-37222362D01*
X155675811Y-37210939D01*
X155660887Y-37209469D01*
X154898982Y-37209469D01*
X154884058Y-37210939D01*
X154856481Y-37222362D01*
X154835375Y-37243468D01*
X154823952Y-37271045D01*
X153537308Y-37271045D01*
X153504569Y-37189198D01*
X153507439Y-37181163D01*
X153870701Y-37181163D01*
X153872817Y-37210937D01*
X153886165Y-37237634D01*
X153908715Y-37257191D01*
X153937032Y-37266630D01*
X153966806Y-37264514D01*
X153980812Y-37259155D01*
X154076050Y-37211536D01*
X154078547Y-37209963D01*
X154079723Y-37209572D01*
X154081187Y-37208302D01*
X154088741Y-37203547D01*
X154095026Y-37196300D01*
X154102273Y-37190015D01*
X154107028Y-37182461D01*
X154108298Y-37180997D01*
X154108689Y-37179821D01*
X154110262Y-37177324D01*
X154157881Y-37082085D01*
X154163240Y-37068079D01*
X154163434Y-37065337D01*
X154164487Y-37062797D01*
X154165957Y-37047873D01*
X154165957Y-36190731D01*
X154164487Y-36175807D01*
X154347761Y-36175807D01*
X154347761Y-36205655D01*
X154359184Y-36233232D01*
X154380290Y-36254338D01*
X154407867Y-36265761D01*
X154422791Y-36267231D01*
X154499969Y-36267231D01*
X154556247Y-36295370D01*
X154584386Y-36351648D01*
X154584386Y-36447564D01*
X154422791Y-36447564D01*
X154407867Y-36449034D01*
X154380290Y-36460457D01*
X154359184Y-36481563D01*
X154347761Y-36509140D01*
X154347761Y-36538988D01*
X154359184Y-36566565D01*
X154380290Y-36587671D01*
X154407867Y-36599094D01*
X154422791Y-36600564D01*
X154584386Y-36600564D01*
X154584386Y-37190731D01*
X154585856Y-37205655D01*
X154597279Y-37233232D01*
X154618385Y-37254338D01*
X154645962Y-37265761D01*
X154675810Y-37265761D01*
X154703387Y-37254338D01*
X154724493Y-37233232D01*
X154735916Y-37205655D01*
X154737386Y-37190731D01*
X154737386Y-36714540D01*
X155774863Y-36714540D01*
X155774863Y-37000254D01*
X155776333Y-37015178D01*
X155777385Y-37017718D01*
X155777580Y-37020460D01*
X155782939Y-37034466D01*
X155830558Y-37129704D01*
X155834600Y-37136126D01*
X155835374Y-37137993D01*
X155837098Y-37140094D01*
X155838547Y-37142395D01*
X155840073Y-37143718D01*
X155844888Y-37149585D01*
X155892507Y-37197205D01*
X155898373Y-37202020D01*
X155899698Y-37203547D01*
X155901999Y-37204995D01*
X155904099Y-37206719D01*
X155905964Y-37207491D01*
X155912389Y-37211536D01*
X156007627Y-37259155D01*
X156021633Y-37264514D01*
X156024374Y-37264708D01*
X156026915Y-37265761D01*
X156041839Y-37267231D01*
X156184696Y-37267231D01*
X156199620Y-37265761D01*
X156202160Y-37264708D01*
X156204902Y-37264514D01*
X156218908Y-37259155D01*
X156314146Y-37211536D01*
X156320570Y-37207491D01*
X156322436Y-37206719D01*
X156324535Y-37204995D01*
X156326837Y-37203547D01*
X156328161Y-37202020D01*
X156334028Y-37197205D01*
X156381647Y-37149585D01*
X156386459Y-37143720D01*
X156387988Y-37142395D01*
X156389438Y-37140090D01*
X156391160Y-37137993D01*
X156391931Y-37136130D01*
X156395977Y-37129704D01*
X156443596Y-37034466D01*
X156448955Y-37020460D01*
X156449149Y-37017718D01*
X156450202Y-37015178D01*
X156451672Y-37000254D01*
X156451672Y-36714540D01*
X156450202Y-36699616D01*
X156449149Y-36697075D01*
X156448955Y-36694334D01*
X156443596Y-36680328D01*
X156436892Y-36666921D01*
X156727244Y-36666921D01*
X156727244Y-37190731D01*
X156728714Y-37205655D01*
X156740137Y-37233232D01*
X156761243Y-37254338D01*
X156788820Y-37265761D01*
X156818668Y-37265761D01*
X156846245Y-37254338D01*
X156867351Y-37233232D01*
X156878774Y-37205655D01*
X156880244Y-37190731D01*
X156880244Y-36684981D01*
X156908383Y-36628703D01*
X156964661Y-36600564D01*
X157071398Y-36600564D01*
X157139380Y-36634555D01*
X157155815Y-36650989D01*
X157155815Y-37190731D01*
X157157285Y-37205655D01*
X157168708Y-37233232D01*
X157189814Y-37254338D01*
X157217391Y-37265761D01*
X157247239Y-37265761D01*
X157274816Y-37254338D01*
X157295922Y-37233232D01*
X157307345Y-37205655D01*
X157308815Y-37190731D01*
X157308815Y-36524064D01*
X157307345Y-36509140D01*
X157295922Y-36481563D01*
X157274816Y-36460457D01*
X157247239Y-36449034D01*
X157217391Y-36449034D01*
X157189814Y-36460457D01*
X157170977Y-36479293D01*
X157123670Y-36455640D01*
X157109664Y-36450281D01*
X157106922Y-36450086D01*
X157104382Y-36449034D01*
X157089458Y-36447564D01*
X156946601Y-36447564D01*
X156931677Y-36449034D01*
X156929136Y-36450086D01*
X156926395Y-36450281D01*
X156912389Y-36455640D01*
X156817151Y-36503259D01*
X156814653Y-36504831D01*
X156813478Y-36505223D01*
X156812013Y-36506492D01*
X156804460Y-36511248D01*
X156798174Y-36518494D01*
X156790928Y-36524780D01*
X156786172Y-36532333D01*
X156784903Y-36533798D01*
X156784511Y-36534973D01*
X156782939Y-36537471D01*
X156735320Y-36632709D01*
X156729961Y-36646715D01*
X156729766Y-36649456D01*
X156728714Y-36651997D01*
X156727244Y-36666921D01*
X156436892Y-36666921D01*
X156395977Y-36585090D01*
X156391932Y-36578665D01*
X156391160Y-36576800D01*
X156389436Y-36574700D01*
X156387988Y-36572399D01*
X156386461Y-36571074D01*
X156381646Y-36565208D01*
X156334028Y-36517589D01*
X156328161Y-36512774D01*
X156326837Y-36511248D01*
X156324533Y-36509797D01*
X156322435Y-36508076D01*
X156320572Y-36507304D01*
X156314146Y-36503259D01*
X156218908Y-36455640D01*
X156204902Y-36450281D01*
X156202160Y-36450086D01*
X156199620Y-36449034D01*
X156184696Y-36447564D01*
X156041839Y-36447564D01*
X156026915Y-36449034D01*
X156024374Y-36450086D01*
X156021633Y-36450281D01*
X156007627Y-36455640D01*
X155912389Y-36503259D01*
X155905964Y-36507303D01*
X155904099Y-36508076D01*
X155901999Y-36509799D01*
X155899698Y-36511248D01*
X155898373Y-36512774D01*
X155892507Y-36517590D01*
X155844888Y-36565208D01*
X155840073Y-36571074D01*
X155838547Y-36572399D01*
X155837096Y-36574702D01*
X155835375Y-36576801D01*
X155834603Y-36578663D01*
X155830558Y-36585090D01*
X155782939Y-36680328D01*
X155777580Y-36694334D01*
X155777385Y-36697075D01*
X155776333Y-36699616D01*
X155774863Y-36714540D01*
X154737386Y-36714540D01*
X154737386Y-36600564D01*
X154803743Y-36600564D01*
X154818667Y-36599094D01*
X154846244Y-36587671D01*
X154867350Y-36566565D01*
X154878773Y-36538988D01*
X154878773Y-36509140D01*
X154867350Y-36481563D01*
X154846244Y-36460457D01*
X154818667Y-36449034D01*
X154803743Y-36447564D01*
X154737386Y-36447564D01*
X154737386Y-36333588D01*
X154735916Y-36318664D01*
X154734863Y-36316123D01*
X154734669Y-36313382D01*
X154729310Y-36299376D01*
X154681691Y-36204138D01*
X154680118Y-36201640D01*
X154679727Y-36200465D01*
X154678457Y-36199000D01*
X154673702Y-36191447D01*
X154666455Y-36185161D01*
X154660170Y-36177915D01*
X154652616Y-36173159D01*
X154651152Y-36171890D01*
X154649976Y-36171498D01*
X154647479Y-36169926D01*
X154552241Y-36122307D01*
X154538235Y-36116948D01*
X154535493Y-36116753D01*
X154532953Y-36115701D01*
X154518029Y-36114231D01*
X154422791Y-36114231D01*
X154407867Y-36115701D01*
X154380290Y-36127124D01*
X154359184Y-36148230D01*
X154347761Y-36175807D01*
X154164487Y-36175807D01*
X154153064Y-36148230D01*
X154131958Y-36127124D01*
X154104381Y-36115701D01*
X154074533Y-36115701D01*
X154046956Y-36127124D01*
X154025850Y-36148230D01*
X154014427Y-36175807D01*
X154012957Y-36190731D01*
X154012957Y-37029814D01*
X153984818Y-37086092D01*
X153912388Y-37122307D01*
X153899697Y-37130296D01*
X153880140Y-37152846D01*
X153870701Y-37181163D01*
X153507439Y-37181163D01*
X153732928Y-36549794D01*
X153736563Y-36535245D01*
X153735081Y-36505433D01*
X153722303Y-36478457D01*
X153700175Y-36458425D01*
X153672066Y-36448386D01*
X153642253Y-36449868D01*
X153615278Y-36462646D01*
X153595245Y-36484774D01*
X153588842Y-36498335D01*
X153422790Y-36963280D01*
X153256738Y-36498334D01*
X153250334Y-36484774D01*
X153230302Y-36462646D01*
X153203327Y-36449868D01*
X153173514Y-36448386D01*
X153145405Y-36458425D01*
X153123277Y-36478457D01*
X153110499Y-36505432D01*
X153109017Y-36535245D01*
X152212105Y-36535245D01*
X152212105Y-36509140D01*
X152200682Y-36481563D01*
X152179576Y-36460457D01*
X152151999Y-36449034D01*
X152137075Y-36447564D01*
X151613266Y-36447564D01*
X151608998Y-36447984D01*
X151607388Y-36447791D01*
X151605451Y-36448333D01*
X151598342Y-36449034D01*
X151588696Y-36453029D01*
X151578646Y-36455846D01*
X151575021Y-36458693D01*
X151570765Y-36460457D01*
X151563385Y-36467836D01*
X151555176Y-36474287D01*
X151552917Y-36478304D01*
X151549659Y-36481563D01*
X151545663Y-36491208D01*
X151540549Y-36500307D01*
X151540000Y-36504881D01*
X151538236Y-36509140D01*
X151538236Y-36519583D01*
X151536993Y-36529942D01*
X151251141Y-36529942D01*
X151238788Y-36517589D01*
X151232921Y-36512774D01*
X151231597Y-36511248D01*
X151229293Y-36509797D01*
X151227195Y-36508076D01*
X151225332Y-36507304D01*
X151218906Y-36503259D01*
X151123668Y-36455640D01*
X151109662Y-36450281D01*
X151106920Y-36450086D01*
X151104380Y-36449034D01*
X151089456Y-36447564D01*
X150946599Y-36447564D01*
X150931675Y-36449034D01*
X150929134Y-36450086D01*
X150926393Y-36450281D01*
X150912387Y-36455640D01*
X150817149Y-36503259D01*
X150810724Y-36507303D01*
X150808859Y-36508076D01*
X150806759Y-36509799D01*
X150804458Y-36511248D01*
X150803133Y-36512774D01*
X150797267Y-36517590D01*
X150749648Y-36565208D01*
X150744833Y-36571074D01*
X150743307Y-36572399D01*
X150741856Y-36574702D01*
X150740135Y-36576801D01*
X150739363Y-36578663D01*
X150735318Y-36585090D01*
X150687699Y-36680328D01*
X150682340Y-36694334D01*
X150682145Y-36697075D01*
X150681093Y-36699616D01*
X150679623Y-36714540D01*
X150404051Y-36714540D01*
X150404051Y-36524064D01*
X150402581Y-36509140D01*
X150391158Y-36481563D01*
X150370052Y-36460457D01*
X150342475Y-36449034D01*
X150312627Y-36449034D01*
X150285050Y-36460457D01*
X150266213Y-36479293D01*
X150218906Y-36455640D01*
X150204900Y-36450281D01*
X150202158Y-36450086D01*
X150199618Y-36449034D01*
X150184694Y-36447564D01*
X150041837Y-36447564D01*
X150026913Y-36449034D01*
X150024372Y-36450086D01*
X150021631Y-36450281D01*
X150007625Y-36455640D01*
X149912387Y-36503259D01*
X149909889Y-36504831D01*
X149908714Y-36505223D01*
X149907249Y-36506492D01*
X149899696Y-36511248D01*
X149893410Y-36518494D01*
X149886164Y-36524780D01*
X149881408Y-36532333D01*
X149880139Y-36533798D01*
X149879747Y-36534973D01*
X149878175Y-36537471D01*
X149830556Y-36632709D01*
X149825197Y-36646715D01*
X149825002Y-36649456D01*
X149823950Y-36651997D01*
X149822480Y-36666921D01*
X149546908Y-36666921D01*
X149545438Y-36651997D01*
X149544385Y-36649456D01*
X149544191Y-36646715D01*
X149538832Y-36632709D01*
X149491213Y-36537471D01*
X149489640Y-36534973D01*
X149489249Y-36533798D01*
X149487979Y-36532333D01*
X149483224Y-36524780D01*
X149475977Y-36518494D01*
X149469692Y-36511248D01*
X149462138Y-36506492D01*
X149460674Y-36505223D01*
X149459498Y-36504831D01*
X149457001Y-36503259D01*
X149361763Y-36455640D01*
X149347757Y-36450281D01*
X149345015Y-36450086D01*
X149342475Y-36449034D01*
X149327551Y-36447564D01*
X149137075Y-36447564D01*
X149122151Y-36449034D01*
X149119610Y-36450086D01*
X149116869Y-36450281D01*
X149102863Y-36455640D01*
X149007625Y-36503259D01*
X149005127Y-36504831D01*
X149003952Y-36505223D01*
X149002487Y-36506492D01*
X148994934Y-36511248D01*
X148988648Y-36518494D01*
X148981402Y-36524780D01*
X148976646Y-36532333D01*
X148975377Y-36533798D01*
X148974985Y-36534973D01*
X148973413Y-36537471D01*
X148925794Y-36632709D01*
X148920435Y-36646715D01*
X148920240Y-36649456D01*
X148919188Y-36651997D01*
X148917718Y-36666921D01*
X145880241Y-36666921D01*
X145880241Y-36190731D01*
X145878771Y-36175807D01*
X145867348Y-36148230D01*
X145846242Y-36127124D01*
X145818665Y-36115701D01*
X145803741Y-36114231D01*
X145422789Y-36114231D01*
X145407865Y-36115701D01*
X145405324Y-36116753D01*
X145402583Y-36116948D01*
X145388577Y-36122307D01*
X145293339Y-36169926D01*
X145286914Y-36173970D01*
X145285049Y-36174743D01*
X145282949Y-36176466D01*
X145280648Y-36177915D01*
X145279323Y-36179441D01*
X145273457Y-36184257D01*
X145225838Y-36231875D01*
X145221023Y-36237741D01*
X145219497Y-36239066D01*
X145218046Y-36241369D01*
X145216325Y-36243468D01*
X145215553Y-36245330D01*
X145211508Y-36251757D01*
X145163889Y-36346995D01*
X145158530Y-36361001D01*
X145158335Y-36363742D01*
X145157283Y-36366283D01*
X145155813Y-36381207D01*
X142450991Y-36381207D01*
X142420485Y-36365954D01*
X142339379Y-36284848D01*
X142248345Y-36148296D01*
X142248309Y-36148252D01*
X142248300Y-36148230D01*
X142248249Y-36148179D01*
X142238843Y-36136694D01*
X142232548Y-36132478D01*
X142227194Y-36127124D01*
X142220270Y-36124256D01*
X142214042Y-36120085D01*
X142206614Y-36118599D01*
X142199617Y-36115701D01*
X142192123Y-36115701D01*
X142184773Y-36114231D01*
X142177343Y-36115701D01*
X142169769Y-36115701D01*
X142162844Y-36118569D01*
X142155491Y-36120024D01*
X142149187Y-36124226D01*
X142142192Y-36127124D01*
X142136893Y-36132422D01*
X142130656Y-36136581D01*
X142126440Y-36142875D01*
X142121086Y-36148230D01*
X142118218Y-36155153D01*
X142114047Y-36161382D01*
X142112561Y-36168809D01*
X142109663Y-36175807D01*
X142108208Y-36190573D01*
X142108193Y-36190651D01*
X142108198Y-36190677D01*
X142108193Y-36190731D01*
X142108193Y-37114231D01*
X141898979Y-37114231D01*
X141884055Y-37115701D01*
X141856478Y-37127124D01*
X141835372Y-37148230D01*
X141823949Y-37175807D01*
X141585695Y-37175807D01*
X141593055Y-37158037D01*
X141593055Y-37143468D01*
X141593056Y-37128188D01*
X141581633Y-37100611D01*
X141572120Y-37089019D01*
X141524501Y-37041399D01*
X141512909Y-37031885D01*
X141485332Y-37020462D01*
X141485331Y-37020462D01*
X141455483Y-37020462D01*
X141447406Y-37023807D01*
X141427906Y-37031884D01*
X141427905Y-37031885D01*
X141416313Y-37041399D01*
X141368694Y-37089019D01*
X141359180Y-37100611D01*
X141347758Y-37128189D01*
X141015780Y-37128189D01*
X141062641Y-37034466D01*
X141063059Y-37033371D01*
X141063387Y-37032930D01*
X141065621Y-37026675D01*
X141068000Y-37020460D01*
X141068039Y-37019910D01*
X141068433Y-37018808D01*
X141116052Y-36828332D01*
X141116434Y-36825743D01*
X141116866Y-36824702D01*
X141117419Y-36819078D01*
X141118245Y-36813497D01*
X141118079Y-36812383D01*
X141118336Y-36809778D01*
X141118336Y-36571683D01*
X141118079Y-36569077D01*
X141118245Y-36567964D01*
X141117419Y-36562382D01*
X141116866Y-36556759D01*
X141116434Y-36555717D01*
X141116052Y-36553129D01*
X141068433Y-36362653D01*
X141068039Y-36361550D01*
X141068000Y-36361001D01*
X141065621Y-36354785D01*
X141063387Y-36348531D01*
X141063059Y-36348089D01*
X141062641Y-36346995D01*
X141015022Y-36251757D01*
X141010977Y-36245332D01*
X141010205Y-36243467D01*
X141008481Y-36241367D01*
X141007033Y-36239066D01*
X141005506Y-36237741D01*
X141000691Y-36231875D01*
X140953073Y-36184256D01*
X140947206Y-36179441D01*
X140945882Y-36177915D01*
X140943578Y-36176464D01*
X140941480Y-36174743D01*
X140939617Y-36173971D01*
X140933191Y-36169926D01*
X140837953Y-36122307D01*
X140823947Y-36116948D01*
X140821205Y-36116753D01*
X140818665Y-36115701D01*
X140803741Y-36114231D01*
X140708503Y-36114231D01*
X140693579Y-36115701D01*
X140691038Y-36116753D01*
X140688297Y-36116948D01*
X140674291Y-36122307D01*
X140579053Y-36169926D01*
X140572628Y-36173970D01*
X140570763Y-36174743D01*
X140568663Y-36176466D01*
X140566362Y-36177915D01*
X140565037Y-36179441D01*
X140559171Y-36184257D01*
X140511552Y-36231875D01*
X140506737Y-36237741D01*
X140505211Y-36239066D01*
X140503760Y-36241369D01*
X140502039Y-36243468D01*
X140501267Y-36245330D01*
X140497222Y-36251757D01*
X140449603Y-36346995D01*
X140449184Y-36348089D01*
X140448857Y-36348531D01*
X140446622Y-36354785D01*
X140444244Y-36361001D01*
X140444204Y-36361550D01*
X140443811Y-36362653D01*
X140396192Y-36553129D01*
X140395809Y-36555717D01*
X140395378Y-36556759D01*
X140394824Y-36562382D01*
X140393999Y-36567964D01*
X140394164Y-36569077D01*
X140393908Y-36571683D01*
X140282797Y-36571683D01*
X140282797Y-36003120D01*
X157419926Y-36003120D01*
X157419926Y-37711074D01*
G37*
G36*
X154127476Y-64182174D02*
G01*
X154157538Y-64212235D01*
X154191530Y-64280219D01*
X154191530Y-64482194D01*
X154157537Y-64550178D01*
X154127477Y-64580239D01*
X154059494Y-64614231D01*
X153905138Y-64614231D01*
X153837154Y-64580239D01*
X153807094Y-64550178D01*
X153773102Y-64482194D01*
X153773102Y-64280219D01*
X153807093Y-64212236D01*
X153837154Y-64182174D01*
X153905138Y-64148183D01*
X154059494Y-64148183D01*
X154127476Y-64182174D01*
G37*
G36*
X161312182Y-64878342D02*
G01*
X152557211Y-64878342D01*
X152557211Y-63700299D01*
X152668322Y-63700299D01*
X152671647Y-63714922D01*
X153004980Y-64714922D01*
X153011094Y-64728615D01*
X153014674Y-64732743D01*
X153017120Y-64737634D01*
X153024367Y-64743919D01*
X153030651Y-64751165D01*
X153035538Y-64753608D01*
X153039669Y-64757191D01*
X153048773Y-64760225D01*
X153057348Y-64764513D01*
X153062797Y-64764900D01*
X153067986Y-64766630D01*
X153077556Y-64765949D01*
X153087122Y-64766630D01*
X153092307Y-64764901D01*
X153097760Y-64764514D01*
X153106339Y-64760224D01*
X153115439Y-64757191D01*
X153119568Y-64753609D01*
X153124457Y-64751165D01*
X153130744Y-64743916D01*
X153137988Y-64737633D01*
X153140431Y-64732747D01*
X153144014Y-64728616D01*
X153150128Y-64714922D01*
X153301049Y-64262159D01*
X153620102Y-64262159D01*
X153620102Y-64500254D01*
X153621572Y-64515178D01*
X153622624Y-64517718D01*
X153622819Y-64520460D01*
X153628178Y-64534466D01*
X153675797Y-64629704D01*
X153679839Y-64636126D01*
X153680613Y-64637993D01*
X153682337Y-64640094D01*
X153683786Y-64642395D01*
X153685312Y-64643718D01*
X153690127Y-64649585D01*
X153737746Y-64697205D01*
X153743612Y-64702020D01*
X153744937Y-64703547D01*
X153747238Y-64704995D01*
X153749338Y-64706719D01*
X153751203Y-64707491D01*
X153757628Y-64711536D01*
X153852866Y-64759155D01*
X153866872Y-64764514D01*
X153869613Y-64764708D01*
X153872154Y-64765761D01*
X153887078Y-64767231D01*
X154077554Y-64767231D01*
X154092478Y-64765761D01*
X154095018Y-64764708D01*
X154097760Y-64764514D01*
X154111766Y-64759155D01*
X154207004Y-64711536D01*
X154213428Y-64707491D01*
X154215294Y-64706719D01*
X154217393Y-64704995D01*
X154219695Y-64703547D01*
X154221019Y-64702020D01*
X154226886Y-64697205D01*
X154274505Y-64649585D01*
X154279317Y-64643720D01*
X154280846Y-64642395D01*
X154282296Y-64640090D01*
X154284018Y-64637993D01*
X154284789Y-64636130D01*
X154288835Y-64629704D01*
X154336454Y-64534466D01*
X154341813Y-64520460D01*
X154342007Y-64517718D01*
X154343060Y-64515178D01*
X154344530Y-64500254D01*
X154344530Y-64262159D01*
X154572483Y-64262159D01*
X154572483Y-64500254D01*
X154573953Y-64515178D01*
X154575005Y-64517718D01*
X154575200Y-64520460D01*
X154580559Y-64534466D01*
X154628178Y-64629704D01*
X154632220Y-64636126D01*
X154632994Y-64637993D01*
X154634718Y-64640094D01*
X154636167Y-64642395D01*
X154637693Y-64643718D01*
X154642508Y-64649585D01*
X154690127Y-64697205D01*
X154695993Y-64702020D01*
X154697318Y-64703547D01*
X154699619Y-64704995D01*
X154701719Y-64706719D01*
X154703584Y-64707491D01*
X154710009Y-64711536D01*
X154805247Y-64759155D01*
X154819253Y-64764514D01*
X154821994Y-64764708D01*
X154824535Y-64765761D01*
X154839459Y-64767231D01*
X155125173Y-64767231D01*
X155140097Y-64765761D01*
X155142637Y-64764708D01*
X155145379Y-64764514D01*
X155159385Y-64759155D01*
X155254623Y-64711536D01*
X155261047Y-64707491D01*
X155262913Y-64706719D01*
X155265012Y-64704995D01*
X155267314Y-64703547D01*
X155268638Y-64702020D01*
X155274505Y-64697205D01*
X155322124Y-64649585D01*
X155331637Y-64637993D01*
X155343060Y-64610416D01*
X155343059Y-64580567D01*
X155331637Y-64552990D01*
X155310531Y-64531885D01*
X155282953Y-64520462D01*
X155253105Y-64520463D01*
X155225528Y-64531885D01*
X155213936Y-64541399D01*
X155175096Y-64580239D01*
X155107113Y-64614231D01*
X154857519Y-64614231D01*
X154789535Y-64580239D01*
X154759475Y-64550178D01*
X154725483Y-64482194D01*
X154725483Y-64294854D01*
X155573953Y-64294854D01*
X155573953Y-64324702D01*
X155585376Y-64352279D01*
X155606482Y-64373385D01*
X155634059Y-64384808D01*
X155648983Y-64386278D01*
X156410887Y-64386278D01*
X156425811Y-64384808D01*
X156453388Y-64373385D01*
X156474494Y-64352279D01*
X156478556Y-64342473D01*
X156716810Y-64342473D01*
X156716810Y-64372321D01*
X156728233Y-64399898D01*
X156749339Y-64421004D01*
X156776916Y-64432427D01*
X156791840Y-64433897D01*
X156858197Y-64433897D01*
X156858197Y-64690731D01*
X156859667Y-64705655D01*
X156871090Y-64733232D01*
X156892196Y-64754338D01*
X156919773Y-64765761D01*
X156949621Y-64765761D01*
X156977198Y-64754338D01*
X156998304Y-64733232D01*
X157009727Y-64705655D01*
X157011197Y-64690731D01*
X157011197Y-64628189D01*
X158478714Y-64628189D01*
X158478714Y-64658037D01*
X158490137Y-64685614D01*
X158490141Y-64685618D01*
X158499650Y-64697206D01*
X158547269Y-64744824D01*
X158558861Y-64754338D01*
X158570284Y-64759069D01*
X158586439Y-64765761D01*
X158616287Y-64765761D01*
X158643864Y-64754338D01*
X158655457Y-64744825D01*
X158703075Y-64697206D01*
X158712589Y-64685614D01*
X158724011Y-64658037D01*
X158724011Y-64648229D01*
X158724012Y-64628188D01*
X158712589Y-64600611D01*
X158703076Y-64589019D01*
X158655457Y-64541399D01*
X158643865Y-64531885D01*
X158616288Y-64520462D01*
X158616287Y-64520462D01*
X158586439Y-64520462D01*
X158578362Y-64523807D01*
X158558862Y-64531884D01*
X158558861Y-64531885D01*
X158547269Y-64541399D01*
X158499650Y-64589019D01*
X158490136Y-64600611D01*
X158478714Y-64628189D01*
X157011197Y-64628189D01*
X157011197Y-64433897D01*
X157410887Y-64433897D01*
X157418441Y-64433152D01*
X157420455Y-64433296D01*
X157421908Y-64432811D01*
X157425811Y-64432427D01*
X157437139Y-64427734D01*
X157448772Y-64423857D01*
X157450848Y-64422055D01*
X157453388Y-64421004D01*
X157462063Y-64412328D01*
X157471321Y-64404299D01*
X157472549Y-64401842D01*
X157474494Y-64399898D01*
X157479188Y-64388564D01*
X157484670Y-64377602D01*
X157484864Y-64374861D01*
X157485917Y-64372321D01*
X157485917Y-64360055D01*
X157486786Y-64347828D01*
X157485917Y-64344006D01*
X157485917Y-64342473D01*
X157485144Y-64340607D01*
X157483461Y-64333205D01*
X157407185Y-64104378D01*
X158478714Y-64104378D01*
X158478714Y-64134226D01*
X158490137Y-64161803D01*
X158499650Y-64173396D01*
X158547269Y-64221014D01*
X158558861Y-64230528D01*
X158565501Y-64233278D01*
X158586439Y-64241951D01*
X158616287Y-64241951D01*
X158643864Y-64230528D01*
X158655457Y-64221015D01*
X158703075Y-64173396D01*
X158712589Y-64161804D01*
X158724011Y-64134227D01*
X158724011Y-64104378D01*
X158718480Y-64091022D01*
X158712589Y-64076800D01*
X158703075Y-64065208D01*
X158655457Y-64017589D01*
X158643864Y-64008076D01*
X158616287Y-63996653D01*
X158586439Y-63996653D01*
X158570491Y-64003259D01*
X158558861Y-64008076D01*
X158547269Y-64017590D01*
X158499650Y-64065208D01*
X158490138Y-64076800D01*
X158490137Y-64076801D01*
X158478714Y-64104378D01*
X157407185Y-64104378D01*
X157269303Y-63690731D01*
X159001054Y-63690731D01*
X159001054Y-64690731D01*
X159001432Y-64694570D01*
X159001241Y-64696074D01*
X159001772Y-64698021D01*
X159002524Y-64705655D01*
X159006418Y-64715055D01*
X159009095Y-64724871D01*
X159012080Y-64728726D01*
X159013947Y-64733232D01*
X159021140Y-64740425D01*
X159027371Y-64748471D01*
X159031606Y-64750891D01*
X159035053Y-64754338D01*
X159044448Y-64758229D01*
X159053286Y-64763280D01*
X159058125Y-64763895D01*
X159062630Y-64765761D01*
X159072804Y-64765761D01*
X159082897Y-64767044D01*
X159087601Y-64765761D01*
X159092478Y-64765761D01*
X159101878Y-64761866D01*
X159111694Y-64759190D01*
X159115549Y-64756204D01*
X159120055Y-64754338D01*
X159127248Y-64747144D01*
X159135294Y-64740914D01*
X159139736Y-64734656D01*
X159141161Y-64733232D01*
X159141739Y-64731834D01*
X159143975Y-64728686D01*
X159572482Y-63978797D01*
X159572482Y-64690731D01*
X159573952Y-64705655D01*
X159585375Y-64733232D01*
X159606481Y-64754338D01*
X159634058Y-64765761D01*
X159663906Y-64765761D01*
X159691483Y-64754338D01*
X159712589Y-64733232D01*
X159724012Y-64705655D01*
X159725482Y-64690731D01*
X159725482Y-63690731D01*
X160048672Y-63690731D01*
X160048672Y-64690731D01*
X160050142Y-64705655D01*
X160061565Y-64733232D01*
X160082671Y-64754338D01*
X160110248Y-64765761D01*
X160140096Y-64765761D01*
X160167673Y-64754338D01*
X160188779Y-64733232D01*
X160200202Y-64705655D01*
X160201672Y-64690731D01*
X160201672Y-63700299D01*
X160382607Y-63700299D01*
X160385932Y-63714922D01*
X160719265Y-64714922D01*
X160725379Y-64728615D01*
X160728959Y-64732743D01*
X160731405Y-64737634D01*
X160738652Y-64743919D01*
X160744936Y-64751165D01*
X160749823Y-64753608D01*
X160753954Y-64757191D01*
X160763058Y-64760225D01*
X160771633Y-64764513D01*
X160777082Y-64764900D01*
X160782271Y-64766630D01*
X160791841Y-64765949D01*
X160801407Y-64766630D01*
X160806592Y-64764901D01*
X160812045Y-64764514D01*
X160820624Y-64760224D01*
X160829724Y-64757191D01*
X160833853Y-64753609D01*
X160838742Y-64751165D01*
X160845029Y-64743916D01*
X160852273Y-64737633D01*
X160854716Y-64732747D01*
X160858299Y-64728616D01*
X160864413Y-64714922D01*
X161197746Y-63714923D01*
X161201071Y-63700300D01*
X161198955Y-63670526D01*
X161185606Y-63643829D01*
X161163057Y-63624271D01*
X161134740Y-63614832D01*
X161104966Y-63616949D01*
X161078269Y-63630297D01*
X161058712Y-63652847D01*
X161052598Y-63666540D01*
X160791839Y-64448817D01*
X160531080Y-63666540D01*
X160524966Y-63652846D01*
X160505409Y-63630297D01*
X160478712Y-63616948D01*
X160448938Y-63614832D01*
X160420621Y-63624271D01*
X160398072Y-63643828D01*
X160384723Y-63670525D01*
X160382607Y-63700299D01*
X160201672Y-63700299D01*
X160201672Y-63690731D01*
X160200202Y-63675807D01*
X160188779Y-63648230D01*
X160167673Y-63627124D01*
X160140096Y-63615701D01*
X160110248Y-63615701D01*
X160082671Y-63627124D01*
X160061565Y-63648230D01*
X160050142Y-63675807D01*
X160048672Y-63690731D01*
X159725482Y-63690731D01*
X159725103Y-63686891D01*
X159725295Y-63685388D01*
X159724763Y-63683440D01*
X159724012Y-63675807D01*
X159720117Y-63666406D01*
X159717441Y-63656591D01*
X159714455Y-63652735D01*
X159712589Y-63648230D01*
X159705395Y-63641036D01*
X159699165Y-63632991D01*
X159694929Y-63630570D01*
X159691483Y-63627124D01*
X159682087Y-63623232D01*
X159673250Y-63618182D01*
X159668410Y-63617566D01*
X159663906Y-63615701D01*
X159653732Y-63615701D01*
X159643639Y-63614418D01*
X159638935Y-63615701D01*
X159634058Y-63615701D01*
X159624657Y-63619595D01*
X159614842Y-63622272D01*
X159610986Y-63625257D01*
X159606481Y-63627124D01*
X159599287Y-63634317D01*
X159591242Y-63640548D01*
X159586799Y-63646805D01*
X159585375Y-63648230D01*
X159584796Y-63649627D01*
X159582561Y-63652776D01*
X159154054Y-64402663D01*
X159154054Y-63690731D01*
X159152584Y-63675807D01*
X159141161Y-63648230D01*
X159120055Y-63627124D01*
X159092478Y-63615701D01*
X159062630Y-63615701D01*
X159035053Y-63627124D01*
X159013947Y-63648230D01*
X159002524Y-63675807D01*
X159001054Y-63690731D01*
X157269303Y-63690731D01*
X157245366Y-63618921D01*
X157239252Y-63605227D01*
X157219695Y-63582678D01*
X157192998Y-63569329D01*
X157163224Y-63567213D01*
X157134907Y-63576652D01*
X157112358Y-63596209D01*
X157099009Y-63622906D01*
X157096893Y-63652680D01*
X157100218Y-63667303D01*
X157304749Y-64280897D01*
X157011197Y-64280897D01*
X157011197Y-64024064D01*
X157009727Y-64009140D01*
X156998304Y-63981563D01*
X156977198Y-63960457D01*
X156949621Y-63949034D01*
X156919773Y-63949034D01*
X156892196Y-63960457D01*
X156871090Y-63981563D01*
X156859667Y-64009140D01*
X156858197Y-64024064D01*
X156858197Y-64280897D01*
X156791840Y-64280897D01*
X156776916Y-64282367D01*
X156749339Y-64293790D01*
X156728233Y-64314896D01*
X156716810Y-64342473D01*
X156478556Y-64342473D01*
X156485917Y-64324702D01*
X156485917Y-64294854D01*
X156474494Y-64267277D01*
X156453388Y-64246171D01*
X156425811Y-64234748D01*
X156410887Y-64233278D01*
X155648983Y-64233278D01*
X155634059Y-64234748D01*
X155606482Y-64246171D01*
X155585376Y-64267277D01*
X155573953Y-64294854D01*
X154725483Y-64294854D01*
X154725483Y-64280219D01*
X154759474Y-64212236D01*
X154789535Y-64182174D01*
X154857519Y-64148183D01*
X154982316Y-64148183D01*
X154990210Y-64147405D01*
X154992216Y-64147539D01*
X154993597Y-64147071D01*
X154997240Y-64146713D01*
X155008725Y-64141955D01*
X155020492Y-64137976D01*
X155022433Y-64136277D01*
X155024817Y-64135290D01*
X155033603Y-64126503D01*
X155042955Y-64118321D01*
X155044098Y-64116008D01*
X155045923Y-64114184D01*
X155050678Y-64102704D01*
X155056187Y-64091565D01*
X155056358Y-64088990D01*
X155057346Y-64086607D01*
X155057346Y-64074175D01*
X155058172Y-64061783D01*
X155057346Y-64059340D01*
X155057346Y-64056759D01*
X155052588Y-64045273D01*
X155048609Y-64033507D01*
X155046481Y-64030531D01*
X155045923Y-64029182D01*
X155044500Y-64027759D01*
X155039888Y-64021307D01*
X154817572Y-63767231D01*
X155268030Y-63767231D01*
X155282954Y-63765761D01*
X155310531Y-63754338D01*
X155331637Y-63733232D01*
X155343060Y-63705655D01*
X155343060Y-63675807D01*
X155331637Y-63648230D01*
X155310531Y-63627124D01*
X155282954Y-63615701D01*
X155268030Y-63614231D01*
X154648983Y-63614231D01*
X154641088Y-63615008D01*
X154639083Y-63614875D01*
X154637701Y-63615342D01*
X154634059Y-63615701D01*
X154622573Y-63620458D01*
X154610807Y-63624438D01*
X154608865Y-63626136D01*
X154606482Y-63627124D01*
X154597695Y-63635910D01*
X154588344Y-63644093D01*
X154587200Y-63646405D01*
X154585376Y-63648230D01*
X154580620Y-63659709D01*
X154575112Y-63670849D01*
X154574940Y-63673423D01*
X154573953Y-63675807D01*
X154573953Y-63688238D01*
X154573127Y-63700631D01*
X154573953Y-63703073D01*
X154573953Y-63705655D01*
X154578710Y-63717140D01*
X154582690Y-63728907D01*
X154584817Y-63731882D01*
X154585376Y-63733232D01*
X154586798Y-63734654D01*
X154591411Y-63741107D01*
X154816894Y-63998802D01*
X154805247Y-64003259D01*
X154710009Y-64050878D01*
X154703584Y-64054922D01*
X154701719Y-64055695D01*
X154699619Y-64057418D01*
X154697318Y-64058867D01*
X154695993Y-64060393D01*
X154690127Y-64065209D01*
X154642508Y-64112827D01*
X154637693Y-64118693D01*
X154636167Y-64120018D01*
X154634716Y-64122321D01*
X154632995Y-64124420D01*
X154632223Y-64126282D01*
X154628178Y-64132709D01*
X154580559Y-64227947D01*
X154575200Y-64241953D01*
X154575005Y-64244694D01*
X154573953Y-64247235D01*
X154572483Y-64262159D01*
X154344530Y-64262159D01*
X154344530Y-64119302D01*
X154344273Y-64116696D01*
X154344439Y-64115583D01*
X154343613Y-64110001D01*
X154343060Y-64104378D01*
X154342628Y-64103336D01*
X154342246Y-64100748D01*
X154294627Y-63910272D01*
X154291484Y-63901476D01*
X154291118Y-63899625D01*
X154290222Y-63897945D01*
X154289581Y-63896150D01*
X154288455Y-63894631D01*
X154284063Y-63886392D01*
X154188825Y-63743534D01*
X154188790Y-63743491D01*
X154188780Y-63743467D01*
X154184127Y-63737798D01*
X154179323Y-63731932D01*
X154179300Y-63731916D01*
X154179266Y-63731875D01*
X154131648Y-63684256D01*
X154125781Y-63679441D01*
X154124457Y-63677915D01*
X154122153Y-63676464D01*
X154120055Y-63674743D01*
X154118192Y-63673971D01*
X154111766Y-63669926D01*
X154016528Y-63622307D01*
X154002522Y-63616948D01*
X153999780Y-63616753D01*
X153997240Y-63615701D01*
X153982316Y-63614231D01*
X153791840Y-63614231D01*
X153776916Y-63615701D01*
X153749339Y-63627124D01*
X153728233Y-63648230D01*
X153716810Y-63675807D01*
X153716810Y-63705655D01*
X153728233Y-63733232D01*
X153749339Y-63754338D01*
X153776916Y-63765761D01*
X153791840Y-63767231D01*
X153964256Y-63767231D01*
X154032238Y-63801222D01*
X154065721Y-63834704D01*
X154149409Y-63960236D01*
X154167078Y-64030915D01*
X154111766Y-64003259D01*
X154097760Y-63997900D01*
X154095018Y-63997705D01*
X154092478Y-63996653D01*
X154077554Y-63995183D01*
X153887078Y-63995183D01*
X153872154Y-63996653D01*
X153869613Y-63997705D01*
X153866872Y-63997900D01*
X153852866Y-64003259D01*
X153757628Y-64050878D01*
X153751203Y-64054922D01*
X153749338Y-64055695D01*
X153747238Y-64057418D01*
X153744937Y-64058867D01*
X153743612Y-64060393D01*
X153737746Y-64065209D01*
X153690127Y-64112827D01*
X153685312Y-64118693D01*
X153683786Y-64120018D01*
X153682335Y-64122321D01*
X153680614Y-64124420D01*
X153679842Y-64126282D01*
X153675797Y-64132709D01*
X153628178Y-64227947D01*
X153622819Y-64241953D01*
X153622624Y-64244694D01*
X153621572Y-64247235D01*
X153620102Y-64262159D01*
X153301049Y-64262159D01*
X153483461Y-63714923D01*
X153486786Y-63700300D01*
X153484670Y-63670526D01*
X153471321Y-63643829D01*
X153448772Y-63624271D01*
X153420455Y-63614832D01*
X153390681Y-63616949D01*
X153363984Y-63630297D01*
X153344427Y-63652847D01*
X153338313Y-63666540D01*
X153077554Y-64448817D01*
X152816795Y-63666540D01*
X152810681Y-63652846D01*
X152791124Y-63630297D01*
X152764427Y-63616948D01*
X152734653Y-63614832D01*
X152706336Y-63624271D01*
X152683787Y-63643828D01*
X152670438Y-63670525D01*
X152668322Y-63700299D01*
X152557211Y-63700299D01*
X152557211Y-63456102D01*
X161312182Y-63456102D01*
X161312182Y-64878342D01*
G37*
X139892857Y-64109424D02*
X139940476Y-64157044D01*
X139940476Y-64157044D02*
X140083333Y-64204663D01*
X140083333Y-64204663D02*
X140178571Y-64204663D01*
X140178571Y-64204663D02*
X140321428Y-64157044D01*
X140321428Y-64157044D02*
X140416666Y-64061805D01*
X140416666Y-64061805D02*
X140464285Y-63966567D01*
X140464285Y-63966567D02*
X140511904Y-63776091D01*
X140511904Y-63776091D02*
X140511904Y-63633234D01*
X140511904Y-63633234D02*
X140464285Y-63442758D01*
X140464285Y-63442758D02*
X140416666Y-63347520D01*
X140416666Y-63347520D02*
X140321428Y-63252282D01*
X140321428Y-63252282D02*
X140178571Y-63204663D01*
X140178571Y-63204663D02*
X140083333Y-63204663D01*
X140083333Y-63204663D02*
X139940476Y-63252282D01*
X139940476Y-63252282D02*
X139892857Y-63299901D01*
X139511904Y-63299901D02*
X139464285Y-63252282D01*
X139464285Y-63252282D02*
X139369047Y-63204663D01*
X139369047Y-63204663D02*
X139130952Y-63204663D01*
X139130952Y-63204663D02*
X139035714Y-63252282D01*
X139035714Y-63252282D02*
X138988095Y-63299901D01*
X138988095Y-63299901D02*
X138940476Y-63395139D01*
X138940476Y-63395139D02*
X138940476Y-63490377D01*
X138940476Y-63490377D02*
X138988095Y-63633234D01*
X138988095Y-63633234D02*
X139559523Y-64204663D01*
X139559523Y-64204663D02*
X138940476Y-64204663D01*
X138607142Y-63204663D02*
X137988095Y-63204663D01*
X137988095Y-63204663D02*
X138321428Y-63585615D01*
X138321428Y-63585615D02*
X138178571Y-63585615D01*
X138178571Y-63585615D02*
X138083333Y-63633234D01*
X138083333Y-63633234D02*
X138035714Y-63680853D01*
X138035714Y-63680853D02*
X137988095Y-63776091D01*
X137988095Y-63776091D02*
X137988095Y-64014186D01*
X137988095Y-64014186D02*
X138035714Y-64109424D01*
X138035714Y-64109424D02*
X138083333Y-64157044D01*
X138083333Y-64157044D02*
X138178571Y-64204663D01*
X138178571Y-64204663D02*
X138464285Y-64204663D01*
X138464285Y-64204663D02*
X138559523Y-64157044D01*
X138559523Y-64157044D02*
X138607142Y-64109424D01*
X149487734Y-58025731D02*
X149821067Y-57549540D01*
X150059162Y-58025731D02*
X150059162Y-57025731D01*
X150059162Y-57025731D02*
X149678210Y-57025731D01*
X149678210Y-57025731D02*
X149582972Y-57073350D01*
X149582972Y-57073350D02*
X149535353Y-57120969D01*
X149535353Y-57120969D02*
X149487734Y-57216207D01*
X149487734Y-57216207D02*
X149487734Y-57359064D01*
X149487734Y-57359064D02*
X149535353Y-57454302D01*
X149535353Y-57454302D02*
X149582972Y-57501921D01*
X149582972Y-57501921D02*
X149678210Y-57549540D01*
X149678210Y-57549540D02*
X150059162Y-57549540D01*
X148916305Y-57454302D02*
X149011543Y-57406683D01*
X149011543Y-57406683D02*
X149059162Y-57359064D01*
X149059162Y-57359064D02*
X149106781Y-57263826D01*
X149106781Y-57263826D02*
X149106781Y-57216207D01*
X149106781Y-57216207D02*
X149059162Y-57120969D01*
X149059162Y-57120969D02*
X149011543Y-57073350D01*
X149011543Y-57073350D02*
X148916305Y-57025731D01*
X148916305Y-57025731D02*
X148725829Y-57025731D01*
X148725829Y-57025731D02*
X148630591Y-57073350D01*
X148630591Y-57073350D02*
X148582972Y-57120969D01*
X148582972Y-57120969D02*
X148535353Y-57216207D01*
X148535353Y-57216207D02*
X148535353Y-57263826D01*
X148535353Y-57263826D02*
X148582972Y-57359064D01*
X148582972Y-57359064D02*
X148630591Y-57406683D01*
X148630591Y-57406683D02*
X148725829Y-57454302D01*
X148725829Y-57454302D02*
X148916305Y-57454302D01*
X148916305Y-57454302D02*
X149011543Y-57501921D01*
X149011543Y-57501921D02*
X149059162Y-57549540D01*
X149059162Y-57549540D02*
X149106781Y-57644778D01*
X149106781Y-57644778D02*
X149106781Y-57835254D01*
X149106781Y-57835254D02*
X149059162Y-57930492D01*
X149059162Y-57930492D02*
X149011543Y-57978112D01*
X149011543Y-57978112D02*
X148916305Y-58025731D01*
X148916305Y-58025731D02*
X148725829Y-58025731D01*
X148725829Y-58025731D02*
X148630591Y-57978112D01*
X148630591Y-57978112D02*
X148582972Y-57930492D01*
X148582972Y-57930492D02*
X148535353Y-57835254D01*
X148535353Y-57835254D02*
X148535353Y-57644778D01*
X148535353Y-57644778D02*
X148582972Y-57549540D01*
X148582972Y-57549540D02*
X148630591Y-57501921D01*
X148630591Y-57501921D02*
X148725829Y-57454302D01*
X128963925Y-66775731D02*
X129297258Y-66299540D01*
X129535353Y-66775731D02*
X129535353Y-65775731D01*
X129535353Y-65775731D02*
X129154401Y-65775731D01*
X129154401Y-65775731D02*
X129059163Y-65823350D01*
X129059163Y-65823350D02*
X129011544Y-65870969D01*
X129011544Y-65870969D02*
X128963925Y-65966207D01*
X128963925Y-65966207D02*
X128963925Y-66109064D01*
X128963925Y-66109064D02*
X129011544Y-66204302D01*
X129011544Y-66204302D02*
X129059163Y-66251921D01*
X129059163Y-66251921D02*
X129154401Y-66299540D01*
X129154401Y-66299540D02*
X129535353Y-66299540D01*
X128011544Y-66775731D02*
X128582972Y-66775731D01*
X128297258Y-66775731D02*
X128297258Y-65775731D01*
X128297258Y-65775731D02*
X128392496Y-65918588D01*
X128392496Y-65918588D02*
X128487734Y-66013826D01*
X128487734Y-66013826D02*
X128582972Y-66061445D01*
X127392496Y-65775731D02*
X127297258Y-65775731D01*
X127297258Y-65775731D02*
X127202020Y-65823350D01*
X127202020Y-65823350D02*
X127154401Y-65870969D01*
X127154401Y-65870969D02*
X127106782Y-65966207D01*
X127106782Y-65966207D02*
X127059163Y-66156683D01*
X127059163Y-66156683D02*
X127059163Y-66394778D01*
X127059163Y-66394778D02*
X127106782Y-66585254D01*
X127106782Y-66585254D02*
X127154401Y-66680492D01*
X127154401Y-66680492D02*
X127202020Y-66728112D01*
X127202020Y-66728112D02*
X127297258Y-66775731D01*
X127297258Y-66775731D02*
X127392496Y-66775731D01*
X127392496Y-66775731D02*
X127487734Y-66728112D01*
X127487734Y-66728112D02*
X127535353Y-66680492D01*
X127535353Y-66680492D02*
X127582972Y-66585254D01*
X127582972Y-66585254D02*
X127630591Y-66394778D01*
X127630591Y-66394778D02*
X127630591Y-66156683D01*
X127630591Y-66156683D02*
X127582972Y-65966207D01*
X127582972Y-65966207D02*
X127535353Y-65870969D01*
X127535353Y-65870969D02*
X127487734Y-65823350D01*
X127487734Y-65823350D02*
X127392496Y-65775731D01*
X149237734Y-60775731D02*
X149571067Y-60299540D01*
X149809162Y-60775731D02*
X149809162Y-59775731D01*
X149809162Y-59775731D02*
X149428210Y-59775731D01*
X149428210Y-59775731D02*
X149332972Y-59823350D01*
X149332972Y-59823350D02*
X149285353Y-59870969D01*
X149285353Y-59870969D02*
X149237734Y-59966207D01*
X149237734Y-59966207D02*
X149237734Y-60109064D01*
X149237734Y-60109064D02*
X149285353Y-60204302D01*
X149285353Y-60204302D02*
X149332972Y-60251921D01*
X149332972Y-60251921D02*
X149428210Y-60299540D01*
X149428210Y-60299540D02*
X149809162Y-60299540D01*
X148761543Y-60775731D02*
X148571067Y-60775731D01*
X148571067Y-60775731D02*
X148475829Y-60728112D01*
X148475829Y-60728112D02*
X148428210Y-60680492D01*
X148428210Y-60680492D02*
X148332972Y-60537635D01*
X148332972Y-60537635D02*
X148285353Y-60347159D01*
X148285353Y-60347159D02*
X148285353Y-59966207D01*
X148285353Y-59966207D02*
X148332972Y-59870969D01*
X148332972Y-59870969D02*
X148380591Y-59823350D01*
X148380591Y-59823350D02*
X148475829Y-59775731D01*
X148475829Y-59775731D02*
X148666305Y-59775731D01*
X148666305Y-59775731D02*
X148761543Y-59823350D01*
X148761543Y-59823350D02*
X148809162Y-59870969D01*
X148809162Y-59870969D02*
X148856781Y-59966207D01*
X148856781Y-59966207D02*
X148856781Y-60204302D01*
X148856781Y-60204302D02*
X148809162Y-60299540D01*
X148809162Y-60299540D02*
X148761543Y-60347159D01*
X148761543Y-60347159D02*
X148666305Y-60394778D01*
X148666305Y-60394778D02*
X148475829Y-60394778D01*
X148475829Y-60394778D02*
X148380591Y-60347159D01*
X148380591Y-60347159D02*
X148332972Y-60299540D01*
X148332972Y-60299540D02*
X148285353Y-60204302D01*
X128963925Y-64650731D02*
X129297258Y-64174540D01*
X129535353Y-64650731D02*
X129535353Y-63650731D01*
X129535353Y-63650731D02*
X129154401Y-63650731D01*
X129154401Y-63650731D02*
X129059163Y-63698350D01*
X129059163Y-63698350D02*
X129011544Y-63745969D01*
X129011544Y-63745969D02*
X128963925Y-63841207D01*
X128963925Y-63841207D02*
X128963925Y-63984064D01*
X128963925Y-63984064D02*
X129011544Y-64079302D01*
X129011544Y-64079302D02*
X129059163Y-64126921D01*
X129059163Y-64126921D02*
X129154401Y-64174540D01*
X129154401Y-64174540D02*
X129535353Y-64174540D01*
X128011544Y-64650731D02*
X128582972Y-64650731D01*
X128297258Y-64650731D02*
X128297258Y-63650731D01*
X128297258Y-63650731D02*
X128392496Y-63793588D01*
X128392496Y-63793588D02*
X128487734Y-63888826D01*
X128487734Y-63888826D02*
X128582972Y-63936445D01*
X127059163Y-64650731D02*
X127630591Y-64650731D01*
X127344877Y-64650731D02*
X127344877Y-63650731D01*
X127344877Y-63650731D02*
X127440115Y-63793588D01*
X127440115Y-63793588D02*
X127535353Y-63888826D01*
X127535353Y-63888826D02*
X127630591Y-63936445D01*
X149011904Y-61454663D02*
X149011904Y-62264186D01*
X149011904Y-62264186D02*
X148964285Y-62359424D01*
X148964285Y-62359424D02*
X148916666Y-62407044D01*
X148916666Y-62407044D02*
X148821428Y-62454663D01*
X148821428Y-62454663D02*
X148630952Y-62454663D01*
X148630952Y-62454663D02*
X148535714Y-62407044D01*
X148535714Y-62407044D02*
X148488095Y-62359424D01*
X148488095Y-62359424D02*
X148440476Y-62264186D01*
X148440476Y-62264186D02*
X148440476Y-61454663D01*
X148059523Y-61454663D02*
X147392857Y-61454663D01*
X147392857Y-61454663D02*
X147821428Y-62454663D01*
X149442857Y-65609424D02*
X149490476Y-65657044D01*
X149490476Y-65657044D02*
X149633333Y-65704663D01*
X149633333Y-65704663D02*
X149728571Y-65704663D01*
X149728571Y-65704663D02*
X149871428Y-65657044D01*
X149871428Y-65657044D02*
X149966666Y-65561805D01*
X149966666Y-65561805D02*
X150014285Y-65466567D01*
X150014285Y-65466567D02*
X150061904Y-65276091D01*
X150061904Y-65276091D02*
X150061904Y-65133234D01*
X150061904Y-65133234D02*
X150014285Y-64942758D01*
X150014285Y-64942758D02*
X149966666Y-64847520D01*
X149966666Y-64847520D02*
X149871428Y-64752282D01*
X149871428Y-64752282D02*
X149728571Y-64704663D01*
X149728571Y-64704663D02*
X149633333Y-64704663D01*
X149633333Y-64704663D02*
X149490476Y-64752282D01*
X149490476Y-64752282D02*
X149442857Y-64799901D01*
X149061904Y-64799901D02*
X149014285Y-64752282D01*
X149014285Y-64752282D02*
X148919047Y-64704663D01*
X148919047Y-64704663D02*
X148680952Y-64704663D01*
X148680952Y-64704663D02*
X148585714Y-64752282D01*
X148585714Y-64752282D02*
X148538095Y-64799901D01*
X148538095Y-64799901D02*
X148490476Y-64895139D01*
X148490476Y-64895139D02*
X148490476Y-64990377D01*
X148490476Y-64990377D02*
X148538095Y-65133234D01*
X148538095Y-65133234D02*
X149109523Y-65704663D01*
X149109523Y-65704663D02*
X148490476Y-65704663D01*
X147633333Y-65037996D02*
X147633333Y-65704663D01*
X147871428Y-64657044D02*
X148109523Y-65371329D01*
X148109523Y-65371329D02*
X147490476Y-65371329D01*
X139892857Y-60609424D02*
X139940476Y-60657044D01*
X139940476Y-60657044D02*
X140083333Y-60704663D01*
X140083333Y-60704663D02*
X140178571Y-60704663D01*
X140178571Y-60704663D02*
X140321428Y-60657044D01*
X140321428Y-60657044D02*
X140416666Y-60561805D01*
X140416666Y-60561805D02*
X140464285Y-60466567D01*
X140464285Y-60466567D02*
X140511904Y-60276091D01*
X140511904Y-60276091D02*
X140511904Y-60133234D01*
X140511904Y-60133234D02*
X140464285Y-59942758D01*
X140464285Y-59942758D02*
X140416666Y-59847520D01*
X140416666Y-59847520D02*
X140321428Y-59752282D01*
X140321428Y-59752282D02*
X140178571Y-59704663D01*
X140178571Y-59704663D02*
X140083333Y-59704663D01*
X140083333Y-59704663D02*
X139940476Y-59752282D01*
X139940476Y-59752282D02*
X139892857Y-59799901D01*
X139511904Y-59799901D02*
X139464285Y-59752282D01*
X139464285Y-59752282D02*
X139369047Y-59704663D01*
X139369047Y-59704663D02*
X139130952Y-59704663D01*
X139130952Y-59704663D02*
X139035714Y-59752282D01*
X139035714Y-59752282D02*
X138988095Y-59799901D01*
X138988095Y-59799901D02*
X138940476Y-59895139D01*
X138940476Y-59895139D02*
X138940476Y-59990377D01*
X138940476Y-59990377D02*
X138988095Y-60133234D01*
X138988095Y-60133234D02*
X139559523Y-60704663D01*
X139559523Y-60704663D02*
X138940476Y-60704663D01*
X138035714Y-59704663D02*
X138511904Y-59704663D01*
X138511904Y-59704663D02*
X138559523Y-60180853D01*
X138559523Y-60180853D02*
X138511904Y-60133234D01*
X138511904Y-60133234D02*
X138416666Y-60085615D01*
X138416666Y-60085615D02*
X138178571Y-60085615D01*
X138178571Y-60085615D02*
X138083333Y-60133234D01*
X138083333Y-60133234D02*
X138035714Y-60180853D01*
X138035714Y-60180853D02*
X137988095Y-60276091D01*
X137988095Y-60276091D02*
X137988095Y-60514186D01*
X137988095Y-60514186D02*
X138035714Y-60609424D01*
X138035714Y-60609424D02*
X138083333Y-60657044D01*
X138083333Y-60657044D02*
X138178571Y-60704663D01*
X138178571Y-60704663D02*
X138416666Y-60704663D01*
X138416666Y-60704663D02*
X138511904Y-60657044D01*
X138511904Y-60657044D02*
X138559523Y-60609424D01*
X138316666Y-67454663D02*
X138792856Y-67454663D01*
X138792856Y-67454663D02*
X138792856Y-66454663D01*
X138030951Y-66549901D02*
X137983332Y-66502282D01*
X137983332Y-66502282D02*
X137888094Y-66454663D01*
X137888094Y-66454663D02*
X137649999Y-66454663D01*
X137649999Y-66454663D02*
X137554761Y-66502282D01*
X137554761Y-66502282D02*
X137507142Y-66549901D01*
X137507142Y-66549901D02*
X137459523Y-66645139D01*
X137459523Y-66645139D02*
X137459523Y-66740377D01*
X137459523Y-66740377D02*
X137507142Y-66883234D01*
X137507142Y-66883234D02*
X138078570Y-67454663D01*
X138078570Y-67454663D02*
X137459523Y-67454663D01*
%TO.C,C23*%
D11*
X141015000Y-63288748D02*
X141015000Y-63811252D01*
X142485000Y-63288748D02*
X142485000Y-63811252D01*
%TO.C,R8*%
X146586068Y-57094004D02*
X146586068Y-57548132D01*
X148056068Y-57094004D02*
X148056068Y-57548132D01*
%TO.C,R10*%
X131710632Y-65711068D02*
X131256504Y-65711068D01*
X131710632Y-67181068D02*
X131256504Y-67181068D01*
%TO.C,R9*%
X146389564Y-59515000D02*
X145935436Y-59515000D01*
X146389564Y-60985000D02*
X145935436Y-60985000D01*
%TO.C,R11*%
X131256504Y-63461068D02*
X131710632Y-63461068D01*
X131256504Y-64931068D02*
X131710632Y-64931068D01*
%TO.C,U7*%
X143590000Y-63637500D02*
X143590000Y-62837500D01*
X143590000Y-63637500D02*
X143590000Y-64437500D01*
X146710000Y-63637500D02*
X146710000Y-62837500D01*
X146710000Y-63637500D02*
X146710000Y-64437500D01*
X143640000Y-62337500D02*
X143310000Y-62577500D01*
X143310000Y-62097500D01*
X143640000Y-62337500D01*
G36*
X143640000Y-62337500D02*
G01*
X143310000Y-62577500D01*
X143310000Y-62097500D01*
X143640000Y-62337500D01*
G37*
%TO.C,C24*%
X147688748Y-66265000D02*
X148211252Y-66265000D01*
X147688748Y-67735000D02*
X148211252Y-67735000D01*
%TO.C,C25*%
X142288748Y-59515000D02*
X142811252Y-59515000D01*
X142288748Y-60985000D02*
X142811252Y-60985000D01*
%TO.C,L2*%
X141399622Y-66440000D02*
X140600378Y-66440000D01*
X141399622Y-67560000D02*
X140600378Y-67560000D01*
%TD*%
M02*
