%TF.GenerationSoftware,KiCad,Pcbnew,10.0.0*%
%TF.CreationDate,2026-06-04T16:57:15-05:00*%
%TF.ProjectId,mcu_pcb,6d63755f-7063-4622-9e6b-696361645f70,rev?*%
%TF.SameCoordinates,Original*%
%TF.FileFunction,Copper,L1,Top*%
%TF.FilePolarity,Positive*%
%FSLAX46Y46*%
G04 Gerber Fmt 4.6, Leading zero omitted, Abs format (unit mm)*
G04 Created by KiCad (PCBNEW 10.0.0) date 2026-06-04 16:57:15*
%MOMM*%
%LPD*%
G01*
G04 APERTURE LIST*
G04 Aperture macros list*
%AMRoundRect*
0 Rectangle with rounded corners*
0 $1 Rounding radius*
0 $2 $3 $4 $5 $6 $7 $8 $9 X,Y pos of 4 corners*
0 Add a 4 corners polygon primitive as box body*
4,1,4,$2,$3,$4,$5,$6,$7,$8,$9,$2,$3,0*
0 Add four circle primitives for the rounded corners*
1,1,$1+$1,$2,$3*
1,1,$1+$1,$4,$5*
1,1,$1+$1,$6,$7*
1,1,$1+$1,$8,$9*
0 Add four rect primitives between the rounded corners*
20,1,$1+$1,$2,$3,$4,$5,0*
20,1,$1+$1,$4,$5,$6,$7,0*
20,1,$1+$1,$6,$7,$8,$9,0*
20,1,$1+$1,$8,$9,$2,$3,0*%
G04 Aperture macros list end*
%TA.AperFunction,SMDPad,CuDef*%
%ADD10RoundRect,0.250000X-0.475000X0.250000X-0.475000X-0.250000X0.475000X-0.250000X0.475000X0.250000X0*%
%TD*%
%TA.AperFunction,SMDPad,CuDef*%
%ADD11RoundRect,0.250000X-0.262500X-0.450000X0.262500X-0.450000X0.262500X0.450000X-0.262500X0.450000X0*%
%TD*%
%TA.AperFunction,SMDPad,CuDef*%
%ADD12RoundRect,0.135000X0.185000X-0.135000X0.185000X0.135000X-0.185000X0.135000X-0.185000X-0.135000X0*%
%TD*%
%TA.AperFunction,SMDPad,CuDef*%
%ADD13RoundRect,0.150000X0.625000X-0.150000X0.625000X0.150000X-0.625000X0.150000X-0.625000X-0.150000X0*%
%TD*%
%TA.AperFunction,SMDPad,CuDef*%
%ADD14RoundRect,0.250000X0.650000X-0.350000X0.650000X0.350000X-0.650000X0.350000X-0.650000X-0.350000X0*%
%TD*%
%TA.AperFunction,SMDPad,CuDef*%
%ADD15RoundRect,0.243750X0.243750X0.456250X-0.243750X0.456250X-0.243750X-0.456250X0.243750X-0.456250X0*%
%TD*%
%TA.AperFunction,SMDPad,CuDef*%
%ADD16RoundRect,0.250000X0.475000X-0.250000X0.475000X0.250000X-0.475000X0.250000X-0.475000X-0.250000X0*%
%TD*%
%TA.AperFunction,SMDPad,CuDef*%
%ADD17R,0.550000X0.250000*%
%TD*%
%TA.AperFunction,ComponentPad*%
%ADD18C,5.600000*%
%TD*%
%TA.AperFunction,SMDPad,CuDef*%
%ADD19RoundRect,0.140000X-0.140000X-0.170000X0.140000X-0.170000X0.140000X0.170000X-0.140000X0.170000X0*%
%TD*%
%TA.AperFunction,SMDPad,CuDef*%
%ADD20RoundRect,0.100000X-0.100000X0.125000X-0.100000X-0.125000X0.100000X-0.125000X0.100000X0.125000X0*%
%TD*%
%TA.AperFunction,SMDPad,CuDef*%
%ADD21RoundRect,0.075000X-0.700000X-0.075000X0.700000X-0.075000X0.700000X0.075000X-0.700000X0.075000X0*%
%TD*%
%TA.AperFunction,SMDPad,CuDef*%
%ADD22RoundRect,0.075000X-0.075000X-0.700000X0.075000X-0.700000X0.075000X0.700000X-0.075000X0.700000X0*%
%TD*%
%TA.AperFunction,SMDPad,CuDef*%
%ADD23RoundRect,0.150000X-0.625000X0.150000X-0.625000X-0.150000X0.625000X-0.150000X0.625000X0.150000X0*%
%TD*%
%TA.AperFunction,SMDPad,CuDef*%
%ADD24RoundRect,0.250000X-0.650000X0.350000X-0.650000X-0.350000X0.650000X-0.350000X0.650000X0.350000X0*%
%TD*%
%TA.AperFunction,SMDPad,CuDef*%
%ADD25RoundRect,0.140000X-0.170000X0.140000X-0.170000X-0.140000X0.170000X-0.140000X0.170000X0.140000X0*%
%TD*%
%TA.AperFunction,SMDPad,CuDef*%
%ADD26R,1.200000X1.400000*%
%TD*%
%TA.AperFunction,SMDPad,CuDef*%
%ADD27RoundRect,0.150000X0.512500X0.150000X-0.512500X0.150000X-0.512500X-0.150000X0.512500X-0.150000X0*%
%TD*%
%TA.AperFunction,SMDPad,CuDef*%
%ADD28RoundRect,0.250000X0.250000X0.475000X-0.250000X0.475000X-0.250000X-0.475000X0.250000X-0.475000X0*%
%TD*%
%TA.AperFunction,SMDPad,CuDef*%
%ADD29RoundRect,0.062500X0.062500X-0.350000X0.062500X0.350000X-0.062500X0.350000X-0.062500X-0.350000X0*%
%TD*%
%TA.AperFunction,SMDPad,CuDef*%
%ADD30RoundRect,0.062500X0.350000X-0.062500X0.350000X0.062500X-0.350000X0.062500X-0.350000X-0.062500X0*%
%TD*%
%TA.AperFunction,HeatsinkPad*%
%ADD31R,2.500000X2.500000*%
%TD*%
%TA.AperFunction,SMDPad,CuDef*%
%ADD32RoundRect,0.140000X0.170000X-0.140000X0.170000X0.140000X-0.170000X0.140000X-0.170000X-0.140000X0*%
%TD*%
%TA.AperFunction,SMDPad,CuDef*%
%ADD33RoundRect,0.250000X-0.250000X-0.475000X0.250000X-0.475000X0.250000X0.475000X-0.250000X0.475000X0*%
%TD*%
%TA.AperFunction,SMDPad,CuDef*%
%ADD34R,1.500000X3.500000*%
%TD*%
%TA.AperFunction,SMDPad,CuDef*%
%ADD35RoundRect,0.250000X0.262500X0.450000X-0.262500X0.450000X-0.262500X-0.450000X0.262500X-0.450000X0*%
%TD*%
%TA.AperFunction,SMDPad,CuDef*%
%ADD36R,0.800000X1.000000*%
%TD*%
%TA.AperFunction,SMDPad,CuDef*%
%ADD37R,1.500000X0.700000*%
%TD*%
%TA.AperFunction,SMDPad,CuDef*%
%ADD38RoundRect,0.135000X-0.185000X0.135000X-0.185000X-0.135000X0.185000X-0.135000X0.185000X0.135000X0*%
%TD*%
%TA.AperFunction,SMDPad,CuDef*%
%ADD39RoundRect,0.150000X-0.150000X-0.625000X0.150000X-0.625000X0.150000X0.625000X-0.150000X0.625000X0*%
%TD*%
%TA.AperFunction,SMDPad,CuDef*%
%ADD40RoundRect,0.250000X-0.350000X-0.650000X0.350000X-0.650000X0.350000X0.650000X-0.350000X0.650000X0*%
%TD*%
%TA.AperFunction,SMDPad,CuDef*%
%ADD41RoundRect,0.243750X-0.243750X-0.456250X0.243750X-0.456250X0.243750X0.456250X-0.243750X0.456250X0*%
%TD*%
%TA.AperFunction,SMDPad,CuDef*%
%ADD42R,1.000000X0.800000*%
%TD*%
%TA.AperFunction,SMDPad,CuDef*%
%ADD43R,0.700000X1.500000*%
%TD*%
%TA.AperFunction,SMDPad,CuDef*%
%ADD44R,2.400000X1.900000*%
%TD*%
%TA.AperFunction,SMDPad,CuDef*%
%ADD45R,1.600000X1.400000*%
%TD*%
%TA.AperFunction,ComponentPad*%
%ADD46R,1.700000X1.700000*%
%TD*%
%TA.AperFunction,ComponentPad*%
%ADD47C,1.700000*%
%TD*%
%TA.AperFunction,SMDPad,CuDef*%
%ADD48R,2.300000X0.500000*%
%TD*%
%TA.AperFunction,SMDPad,CuDef*%
%ADD49R,2.500000X2.000000*%
%TD*%
%TA.AperFunction,ViaPad*%
%ADD50C,0.700000*%
%TD*%
%TA.AperFunction,Conductor*%
%ADD51C,0.500000*%
%TD*%
%TA.AperFunction,Conductor*%
%ADD52C,0.300000*%
%TD*%
%TA.AperFunction,Conductor*%
%ADD53C,0.355000*%
%TD*%
G04 APERTURE END LIST*
D10*
%TO.P,C5,1*%
%TO.N,+3V3_MCU*%
X158321068Y-38121068D03*
%TO.P,C5,2*%
%TO.N,GND_MCU*%
X158321068Y-40021068D03*
%TD*%
D11*
%TO.P,R4,1*%
%TO.N,/MCU/STAT2*%
X159496068Y-36071068D03*
%TO.P,R4,2*%
%TO.N,Net-(D3-A)*%
X161321068Y-36071068D03*
%TD*%
D12*
%TO.P,R12,1*%
%TO.N,Net-(U9-IREF)*%
X145500000Y-28250000D03*
%TO.P,R12,2*%
%TO.N,GND_MCU*%
X145500000Y-27230000D03*
%TD*%
D13*
%TO.P,J4,1,Pin_1_1*%
%TO.N,+3V3_MCU*%
X168500000Y-34750000D03*
%TO.P,J4,2,Pin_2_2*%
%TO.N,GND_MCU*%
X168500000Y-33750000D03*
D14*
%TO.P,J4,MP*%
%TO.N,N/C*%
X172375000Y-36050000D03*
X172375000Y-32450000D03*
%TD*%
D15*
%TO.P,D3,1,K_1*%
%TO.N,GND_MCU*%
X171500000Y-28750000D03*
%TO.P,D3,2,A_2*%
%TO.N,Net-(D3-A)*%
X169625000Y-28750000D03*
%TD*%
D16*
%TO.P,C21,1*%
%TO.N,Net-(SW3-B)*%
X166750000Y-54521068D03*
%TO.P,C21,2*%
%TO.N,GND_MCU*%
X166750000Y-52621068D03*
%TD*%
D15*
%TO.P,D2,1,K_1*%
%TO.N,GND_MCU*%
X168437500Y-24250000D03*
%TO.P,D2,2,A_2*%
%TO.N,Net-(D2-A)*%
X166562500Y-24250000D03*
%TD*%
D16*
%TO.P,C7,1*%
%TO.N,+3V3_MCU*%
X139071068Y-48021068D03*
%TO.P,C7,2*%
%TO.N,GND_MCU*%
X139071068Y-46121068D03*
%TD*%
D17*
%TO.P,FL1,1,UNBALPRT_1*%
%TO.N,Net-(FL1-UNBALPRT)*%
X148400000Y-25472500D03*
%TO.P,FL1,2,GND_2*%
%TO.N,GND_MCU*%
X148400000Y-25972500D03*
%TO.P,FL1,3,BALPRT1_3*%
%TO.N,Net-(FL1-BALPRT1)*%
X148400000Y-26472500D03*
%TO.P,FL1,4,BALPRT2_4*%
%TO.N,Net-(FL1-BALPRT2)*%
X149250000Y-26472500D03*
%TO.P,FL1,5,DCFEED+RFGND/GND_5*%
%TO.N,Net-(FL1-DCFEED+RFGND{slash}GND)*%
X149250000Y-25972500D03*
%TO.P,FL1,6*%
%TO.N,N/C*%
X149250000Y-25472500D03*
%TD*%
D11*
%TO.P,R3,1*%
%TO.N,/MCU/STAT1*%
X159496068Y-34000000D03*
%TO.P,R3,2*%
%TO.N,Net-(D2-A)*%
X161321068Y-34000000D03*
%TD*%
D15*
%TO.P,D1,1,K_1*%
%TO.N,GND_MCU*%
X130375000Y-24250000D03*
%TO.P,D1,2,A_2*%
%TO.N,Net-(D1-A)*%
X128500000Y-24250000D03*
%TD*%
D18*
%TO.P,H2,1,1_1*%
%TO.N,GND_MCU*%
X163500000Y-30000000D03*
%TD*%
D19*
%TO.P,C30,1*%
%TO.N,Net-(U9-XC2)*%
X155990000Y-32872500D03*
%TO.P,C30,2*%
%TO.N,GND_MCU*%
X156950000Y-32872500D03*
%TD*%
D20*
%TO.P,U8,1*%
%TO.N,/MCU/OTG_FS_D+*%
X162221068Y-44996068D03*
%TO.P,U8,2*%
%TO.N,/MCU/OTG_FS_D-*%
X161421068Y-44996068D03*
%TO.P,U8,3*%
%TO.N,GND_MCU*%
X161821068Y-46146068D03*
%TD*%
D21*
%TO.P,U1,1,VBAT_1*%
%TO.N,+3V3_MCU*%
X143075000Y-39500000D03*
%TO.P,U1,2,PC13_2*%
%TO.N,unconnected-(U1-PC13-Pad2)*%
X143075000Y-40000000D03*
%TO.P,U1,3,PC14_3*%
%TO.N,unconnected-(U1-PC14-Pad3)*%
X143075000Y-40500000D03*
%TO.P,U1,4,PC15_4*%
%TO.N,unconnected-(U1-PC15-Pad4)*%
X143075000Y-41000000D03*
%TO.P,U1,5,PH0_5*%
%TO.N,/MCU/HSE_IN*%
X143075000Y-41500000D03*
%TO.P,U1,6,PH1_6*%
%TO.N,/MCU/HSE_OUT*%
X143075000Y-42000000D03*
%TO.P,U1,7,NRST_7*%
%TO.N,/MCU/NRST*%
X143075000Y-42500000D03*
%TO.P,U1,8,PC0_8*%
%TO.N,unconnected-(U1-PC0-Pad8)*%
X143075000Y-43000000D03*
%TO.P,U1,9,PC1_9*%
%TO.N,/MCU/ADC_IN11*%
X143075000Y-43500000D03*
%TO.P,U1,10,PC2_10*%
%TO.N,unconnected-(U1-PC2-Pad10)*%
X143075000Y-44000000D03*
%TO.P,U1,11,PC3_11*%
%TO.N,unconnected-(U1-PC3-Pad11)*%
X143075000Y-44500000D03*
%TO.P,U1,12,VSSA_12*%
%TO.N,GND_MCU*%
X143075000Y-45000000D03*
%TO.P,U1,13,VDDA_13*%
%TO.N,+3V3_MCU*%
X143075000Y-45500000D03*
%TO.P,U1,14,PA0_14*%
%TO.N,/ESC4*%
X143075000Y-46000000D03*
%TO.P,U1,15,PA1_15*%
%TO.N,/ESC3*%
X143075000Y-46500000D03*
%TO.P,U1,16,PA2_16*%
%TO.N,/ESC2*%
X143075000Y-47000000D03*
D22*
%TO.P,U1,17,PA3_17*%
%TO.N,/ESC1*%
X145000000Y-48925000D03*
%TO.P,U1,18,VSS_18*%
%TO.N,GND_MCU*%
X145500000Y-48925000D03*
%TO.P,U1,19,VDD_19*%
%TO.N,+3V3_MCU*%
X146000000Y-48925000D03*
%TO.P,U1,20,PA4_20*%
%TO.N,unconnected-(U1-PA4-Pad20)*%
X146500000Y-48925000D03*
%TO.P,U1,21,PA5_21*%
%TO.N,/MCU/SPI1_SCK*%
X147000000Y-48925000D03*
%TO.P,U1,22,PA6_22*%
%TO.N,/MCU/SPI1_MISO*%
X147500000Y-48925000D03*
%TO.P,U1,23,PA7_23*%
%TO.N,/MCU/SPI1_MOSI*%
X148000000Y-48925000D03*
%TO.P,U1,24,PC4_24*%
%TO.N,/MCU/IMU_IRQ1*%
X148500000Y-48925000D03*
%TO.P,U1,25,PC5_25*%
%TO.N,/MCU/IMU_IRQ2*%
X149000000Y-48925000D03*
%TO.P,U1,26,PB0_26*%
%TO.N,/MCU/SPI1_NSS_2*%
X149500000Y-48925000D03*
%TO.P,U1,27,PB1_27*%
%TO.N,/MCU/BAR_IRQ*%
X150000000Y-48925000D03*
%TO.P,U1,28,PB2_28*%
%TO.N,/MCU/SPI1_NSS_1*%
X150500000Y-48925000D03*
%TO.P,U1,29,PB10_29*%
%TO.N,unconnected-(U1-PB10-Pad29)*%
X151000000Y-48925000D03*
%TO.P,U1,30,VCAP_1_30*%
%TO.N,Net-(U1-VCAP_1)*%
X151500000Y-48925000D03*
%TO.P,U1,31,VSS_31*%
%TO.N,GND_MCU*%
X152000000Y-48925000D03*
%TO.P,U1,32,VDD_32*%
%TO.N,+3V3_MCU*%
X152500000Y-48925000D03*
D21*
%TO.P,U1,33,PB12_33*%
%TO.N,/MCU/IIS2_IRQ*%
X154425000Y-47000000D03*
%TO.P,U1,34,PB13_34*%
%TO.N,/MCU/SPI2_SCK*%
X154425000Y-46500000D03*
%TO.P,U1,35,PB14_35*%
%TO.N,unconnected-(U1-PB14-Pad35)*%
X154425000Y-46000000D03*
%TO.P,U1,36,PB15_36*%
%TO.N,/MCU/SPI2_MOSI*%
X154425000Y-45500000D03*
%TO.P,U1,37,PC6_37*%
%TO.N,unconnected-(U1-PC6-Pad37)*%
X154425000Y-45000000D03*
%TO.P,U1,38,PC7_38*%
%TO.N,unconnected-(U1-PC7-Pad38)*%
X154425000Y-44500000D03*
%TO.P,U1,39,PC8_39*%
%TO.N,unconnected-(U1-PC8-Pad39)*%
X154425000Y-44000000D03*
%TO.P,U1,40,PC9_40*%
%TO.N,unconnected-(U1-PC9-Pad40)*%
X154425000Y-43500000D03*
%TO.P,U1,41,PA8_41*%
%TO.N,/MCU/SPI2_NSS*%
X154425000Y-43000000D03*
%TO.P,U1,42,PA9_42*%
%TO.N,/MCU/UART1_TX*%
X154425000Y-42500000D03*
%TO.P,U1,43,PA10_43*%
%TO.N,/MCU/UART1_RX*%
X154425000Y-42000000D03*
%TO.P,U1,44,PA11_44*%
%TO.N,/MCU/OTG_FS_D-*%
X154425000Y-41500000D03*
%TO.P,U1,45,PA12_45*%
%TO.N,/MCU/OTG_FS_D+*%
X154425000Y-41000000D03*
%TO.P,U1,46,PA13_46*%
%TO.N,/MCU/SWDIO*%
X154425000Y-40500000D03*
%TO.P,U1,47,VSS_47*%
%TO.N,GND_MCU*%
X154425000Y-40000000D03*
%TO.P,U1,48,VDD_48*%
%TO.N,+3V3_MCU*%
X154425000Y-39500000D03*
D22*
%TO.P,U1,49,PA14_49*%
%TO.N,/MCU/SWCLK*%
X152500000Y-37575000D03*
%TO.P,U1,50,PA15_50*%
%TO.N,/MCU/RF_IRQ*%
X152000000Y-37575000D03*
%TO.P,U1,51,PC10_51*%
%TO.N,/MCU/SPI3_SCK*%
X151500000Y-37575000D03*
%TO.P,U1,52,PC11_52*%
%TO.N,/MCU/SPI3_MISO*%
X151000000Y-37575000D03*
%TO.P,U1,53,PC12_53*%
%TO.N,/MCU/SPI3_MOSI*%
X150500000Y-37575000D03*
%TO.P,U1,54,PD2_54*%
%TO.N,Net-(U1-PD2)*%
X150000000Y-37575000D03*
%TO.P,U1,55,PB3_55*%
%TO.N,/MCU/SWO*%
X149500000Y-37575000D03*
%TO.P,U1,56,PB4_56*%
%TO.N,/MCU/STAT2*%
X149000000Y-37575000D03*
%TO.P,U1,57,PB5_57*%
%TO.N,/MCU/STAT1*%
X148500000Y-37575000D03*
%TO.P,U1,58,PB6_58*%
%TO.N,/MCU/SPI3_NSS*%
X148000000Y-37575000D03*
%TO.P,U1,59,PB7_59*%
%TO.N,/MCU/RF_CE*%
X147500000Y-37575000D03*
%TO.P,U1,60,BOOT0_60*%
%TO.N,/MCU/BOOT0*%
X147000000Y-37575000D03*
%TO.P,U1,61,PB8_61*%
%TO.N,unconnected-(U1-PB8-Pad61)*%
X146500000Y-37575000D03*
%TO.P,U1,62,PB9_62*%
%TO.N,unconnected-(U1-PB9-Pad62)*%
X146000000Y-37575000D03*
%TO.P,U1,63,VSS_63*%
%TO.N,GND_MCU*%
X145500000Y-37575000D03*
%TO.P,U1,64,VDD_64*%
%TO.N,+3V3_MCU*%
X145000000Y-37575000D03*
%TD*%
D16*
%TO.P,C8,1*%
%TO.N,+3V3_MCU*%
X136571068Y-48021068D03*
%TO.P,C8,2*%
%TO.N,GND_MCU*%
X136571068Y-46121068D03*
%TD*%
D10*
%TO.P,C4,1*%
%TO.N,+3V3_MCU*%
X155821068Y-48621068D03*
%TO.P,C4,2*%
%TO.N,GND_MCU*%
X155821068Y-50521068D03*
%TD*%
D23*
%TO.P,J12,1,Pin_1_1*%
%TO.N,/MCU/UART1_TX*%
X128500000Y-34425000D03*
%TO.P,J12,2,Pin_2_2*%
%TO.N,/MCU/UART1_RX*%
X128500000Y-35425000D03*
%TO.P,J12,3,Pin_3_3*%
%TO.N,unconnected-(J12-Pin_3-Pad3)*%
X128500000Y-36425000D03*
D24*
%TO.P,J12,MP*%
%TO.N,N/C*%
X124625000Y-33125000D03*
X124625000Y-37725000D03*
%TD*%
D25*
%TO.P,C29,1*%
%TO.N,Net-(U9-DVDD)*%
X144950000Y-31912500D03*
%TO.P,C29,2*%
%TO.N,GND_MCU*%
X144950000Y-32872500D03*
%TD*%
D18*
%TO.P,H4,1,1_1*%
%TO.N,GND_MCU*%
X163500000Y-60000000D03*
%TD*%
D26*
%TO.P,Y2,1,1_1*%
%TO.N,Net-(U9-XC2)*%
X155800000Y-31072500D03*
%TO.P,Y2,2,G_2*%
%TO.N,GND_MCU*%
X155800000Y-28872500D03*
%TO.P,Y2,3,3_3*%
%TO.N,Net-(U9-XC1)*%
X154200000Y-28872500D03*
%TO.P,Y2,4,G_4*%
%TO.N,GND_MCU*%
X154200000Y-31072500D03*
%TD*%
D27*
%TO.P,U6,1,VIN_1*%
%TO.N,Net-(SW3-B)*%
X164500000Y-53271068D03*
%TO.P,U6,2,GND_2*%
%TO.N,GND_MCU*%
X164500000Y-52321068D03*
%TO.P,U6,3,EN_3*%
%TO.N,Net-(SW3-B)*%
X164500000Y-51371068D03*
%TO.P,U6,4,NC_4*%
%TO.N,unconnected-(U6-NC-Pad4)*%
X162225000Y-51371068D03*
%TO.P,U6,5,VOUT_5*%
%TO.N,+3V3_MCU*%
X162225000Y-53271068D03*
%TD*%
D28*
%TO.P,C10,1*%
%TO.N,/MCU/HSE_IN*%
X134825000Y-39750000D03*
%TO.P,C10,2*%
%TO.N,GND_MCU*%
X132925000Y-39750000D03*
%TD*%
D29*
%TO.P,U9,1,CE_1*%
%TO.N,/MCU/RF_CE*%
X147450000Y-32247500D03*
%TO.P,U9,2,CSN_2*%
%TO.N,/MCU/SPI3_NSS*%
X147950000Y-32247500D03*
%TO.P,U9,3,SCK_3*%
%TO.N,/MCU/SPI3_SCK*%
X148450000Y-32247500D03*
%TO.P,U9,4,MOSI_4*%
%TO.N,/MCU/SPI3_MOSI*%
X148950000Y-32247500D03*
%TO.P,U9,5,MISO_5*%
%TO.N,/MCU/SPI3_MISO*%
X149450000Y-32247500D03*
D30*
%TO.P,U9,6,IRQ_6*%
%TO.N,/MCU/RF_IRQ*%
X150387500Y-31310000D03*
%TO.P,U9,7,VDD_7*%
%TO.N,Net-(C26-Pad1)*%
X150387500Y-30810000D03*
%TO.P,U9,8,VSS_8*%
%TO.N,GND_MCU*%
X150387500Y-30310000D03*
%TO.P,U9,9,XC2_9*%
%TO.N,Net-(U9-XC2)*%
X150387500Y-29810000D03*
%TO.P,U9,10,XC1_10*%
%TO.N,Net-(U9-XC1)*%
X150387500Y-29310000D03*
D29*
%TO.P,U9,11,VDD_PA_11*%
%TO.N,Net-(FL1-DCFEED+RFGND{slash}GND)*%
X149450000Y-28372500D03*
%TO.P,U9,12,ANT1_12*%
%TO.N,Net-(FL1-BALPRT2)*%
X148950000Y-28372500D03*
%TO.P,U9,13,ANT2_13*%
%TO.N,Net-(FL1-BALPRT1)*%
X148450000Y-28372500D03*
%TO.P,U9,14,VSS_14*%
%TO.N,GND_MCU*%
X147950000Y-28372500D03*
%TO.P,U9,15,VDD_15*%
%TO.N,Net-(C26-Pad1)*%
X147450000Y-28372500D03*
D30*
%TO.P,U9,16,IREF_16*%
%TO.N,Net-(U9-IREF)*%
X146512500Y-29310000D03*
%TO.P,U9,17,VSS_17*%
%TO.N,GND_MCU*%
X146512500Y-29810000D03*
%TO.P,U9,18,VDD_18*%
%TO.N,Net-(C26-Pad1)*%
X146512500Y-30310000D03*
%TO.P,U9,19,DVDD_19*%
%TO.N,Net-(U9-DVDD)*%
X146512500Y-30810000D03*
%TO.P,U9,20,VSS_20*%
%TO.N,GND_MCU*%
X146512500Y-31310000D03*
D31*
%TO.P,U9,21*%
%TO.N,N/C*%
X148450000Y-30310000D03*
%TD*%
D32*
%TO.P,C27,1*%
%TO.N,Net-(C26-Pad1)*%
X143700000Y-30602500D03*
%TO.P,C27,2*%
%TO.N,GND_MCU*%
X143700000Y-29642500D03*
%TD*%
D33*
%TO.P,C12,1*%
%TO.N,Net-(U1-VCAP_1)*%
X150871068Y-51321068D03*
%TO.P,C12,2*%
%TO.N,GND_MCU*%
X152771068Y-51321068D03*
%TD*%
D34*
%TO.P,J15,1*%
%TO.N,Net-(FL1-UNBALPRT)*%
X148500000Y-22222500D03*
%TO.P,J15,G1*%
%TO.N,GND_MCU*%
X151200000Y-22222500D03*
%TO.P,J15,G2*%
X145800000Y-22222500D03*
%TD*%
D19*
%TO.P,C28,1*%
%TO.N,Net-(FL1-DCFEED+RFGND{slash}GND)*%
X150500000Y-25972500D03*
%TO.P,C28,2*%
%TO.N,GND_MCU*%
X151460000Y-25972500D03*
%TD*%
D35*
%TO.P,FB1,1*%
%TO.N,Net-(C26-Pad1)*%
X142275000Y-30122500D03*
%TO.P,FB1,2*%
%TO.N,+3V3_MCU*%
X140450000Y-30122500D03*
%TD*%
D36*
%TO.P,SW3,*%
%TO.N,*%
X170495000Y-57900000D03*
X172705000Y-57900000D03*
X170495000Y-50600000D03*
X172705000Y-50600000D03*
D37*
%TO.P,SW3,1,A_1*%
%TO.N,VBUS*%
X169845000Y-56500000D03*
%TO.P,SW3,2,B_2*%
%TO.N,Net-(SW3-B)*%
X169845000Y-53500000D03*
%TO.P,SW3,3,C_3*%
%TO.N,+5V*%
X169845000Y-52000000D03*
%TD*%
D19*
%TO.P,C31,1*%
%TO.N,Net-(U9-XC1)*%
X154240000Y-27122500D03*
%TO.P,C31,2*%
%TO.N,GND_MCU*%
X155200000Y-27122500D03*
%TD*%
D38*
%TO.P,R13,1*%
%TO.N,Net-(U9-XC1)*%
X152250000Y-28695000D03*
%TO.P,R13,2*%
%TO.N,Net-(U9-XC2)*%
X152250000Y-29715000D03*
%TD*%
D28*
%TO.P,C3,1*%
%TO.N,+3V3_MCU*%
X146500000Y-51250000D03*
%TO.P,C3,2*%
%TO.N,GND_MCU*%
X144600000Y-51250000D03*
%TD*%
D39*
%TO.P,J10,1,Pin_1_1*%
%TO.N,/MCU/SPI2_SCK*%
X148050000Y-64875000D03*
%TO.P,J10,2,Pin_2_2*%
%TO.N,/MCU/SPI2_MOSI*%
X149050000Y-64875000D03*
%TO.P,J10,3,Pin_3_3*%
%TO.N,/MCU/SPI2_NSS*%
X150050000Y-64875000D03*
%TO.P,J10,4,Pin_4_4*%
%TO.N,/MCU/IIS2_IRQ*%
X151050000Y-64875000D03*
D40*
%TO.P,J10,MP*%
%TO.N,N/C*%
X146750000Y-68750000D03*
X152350000Y-68750000D03*
%TD*%
D41*
%TO.P,D5,1,K_1*%
%TO.N,Net-(D5-K)*%
X125562500Y-28750000D03*
%TO.P,D5,2,A_2*%
%TO.N,+3V3_MCU*%
X127437500Y-28750000D03*
%TD*%
D16*
%TO.P,C1,1*%
%TO.N,+3V3_MCU*%
X141321068Y-38021068D03*
%TO.P,C1,2*%
%TO.N,GND_MCU*%
X141321068Y-36121068D03*
%TD*%
D35*
%TO.P,R1,1*%
%TO.N,Net-(SW2-B)*%
X160233568Y-63821068D03*
%TO.P,R1,2*%
%TO.N,/MCU/BOOT0*%
X158408568Y-63821068D03*
%TD*%
D33*
%TO.P,C2,1*%
%TO.N,+3V3_MCU*%
X143921068Y-35321068D03*
%TO.P,C2,2*%
%TO.N,GND_MCU*%
X145821068Y-35321068D03*
%TD*%
D11*
%TO.P,R7,1*%
%TO.N,Net-(D5-K)*%
X136246068Y-36321068D03*
%TO.P,R7,2*%
%TO.N,GND_MCU*%
X138071068Y-36321068D03*
%TD*%
D18*
%TO.P,H3,1,1_1*%
%TO.N,GND_MCU*%
X133500000Y-30000000D03*
%TD*%
D23*
%TO.P,J6,1,Pin_1_1*%
%TO.N,/MCU/SPI1_SCK*%
X128500000Y-50500000D03*
%TO.P,J6,2,Pin_2_2*%
%TO.N,/MCU/SPI1_MOSI*%
X128500000Y-51500000D03*
%TO.P,J6,3,Pin_3_3*%
%TO.N,/MCU/SPI1_MISO*%
X128500000Y-52500000D03*
%TO.P,J6,4,Pin_4_4*%
%TO.N,/MCU/SPI1_NSS_1*%
X128500000Y-53500000D03*
%TO.P,J6,5,Pin_5_5*%
%TO.N,/MCU/IMU_IRQ1*%
X128500000Y-54500000D03*
%TO.P,J6,6,Pin_6_6*%
%TO.N,/MCU/IMU_IRQ2*%
X128500000Y-55500000D03*
D24*
%TO.P,J6,MP*%
%TO.N,N/C*%
X124625000Y-49200000D03*
X124625000Y-56800000D03*
%TD*%
D42*
%TO.P,SW2,*%
%TO.N,*%
X154700000Y-67000000D03*
X154700000Y-69210000D03*
X162000000Y-67000000D03*
X162000000Y-69210000D03*
D43*
%TO.P,SW2,1,A_1*%
%TO.N,+3V3_MCU*%
X156100000Y-66350000D03*
%TO.P,SW2,2,B_2*%
%TO.N,Net-(SW2-B)*%
X159100000Y-66350000D03*
%TO.P,SW2,3,C_3*%
%TO.N,GND_MCU*%
X160600000Y-66350000D03*
%TD*%
D35*
%TO.P,R2,1*%
%TO.N,Net-(U1-PD2)*%
X138076068Y-34081068D03*
%TO.P,R2,2*%
%TO.N,Net-(D1-A)*%
X136251068Y-34081068D03*
%TD*%
D32*
%TO.P,C26,1*%
%TO.N,Net-(C26-Pad1)*%
X144950000Y-30602500D03*
%TO.P,C26,2*%
%TO.N,GND_MCU*%
X144950000Y-29642500D03*
%TD*%
D39*
%TO.P,J1,1,Pin_1_1*%
%TO.N,/CURR_ADC*%
X136050000Y-64875000D03*
%TO.P,J1,2,Pin_2_2*%
%TO.N,/NC*%
X137050000Y-64875000D03*
%TO.P,J1,3,Pin_3_3*%
%TO.N,/ESC4*%
X138050000Y-64875000D03*
%TO.P,J1,4,Pin_4_4*%
%TO.N,/ESC3*%
X139050000Y-64875000D03*
%TO.P,J1,5,Pin_5_5*%
%TO.N,/ESC2*%
X140050000Y-64875000D03*
%TO.P,J1,6,Pin_6_6*%
%TO.N,/ESC1*%
X141050000Y-64875000D03*
%TO.P,J1,7,Pin_7_7*%
%TO.N,VBAT*%
X142050000Y-64875000D03*
%TO.P,J1,8,Pin_8_8*%
%TO.N,GND_MCU*%
X143050000Y-64875000D03*
D40*
%TO.P,J1,MP*%
%TO.N,N/C*%
X134750000Y-68750000D03*
X144350000Y-68750000D03*
%TD*%
D44*
%TO.P,Y1,1,1_1*%
%TO.N,/MCU/HSE_IN*%
X137925000Y-39700000D03*
%TO.P,Y1,2,2_2*%
%TO.N,/MCU/HSE_OUT*%
X137925000Y-43800000D03*
%TD*%
D18*
%TO.P,H1,1,1_1*%
%TO.N,GND_MCU*%
X133500000Y-60000000D03*
%TD*%
D33*
%TO.P,C22,1*%
%TO.N,+3V3_MCU*%
X162121068Y-55321068D03*
%TO.P,C22,2*%
%TO.N,GND_MCU*%
X164021068Y-55321068D03*
%TD*%
D45*
%TO.P,SW1,1,1_1*%
%TO.N,GND_MCU*%
X144850000Y-56750000D03*
X137650000Y-56750000D03*
%TO.P,SW1,2,2_2*%
%TO.N,/MCU/NRST*%
X144850000Y-53750000D03*
X137650000Y-53750000D03*
%TD*%
D46*
%TO.P,J2,1,Pin_1_1*%
%TO.N,+3V3_MCU*%
X152210000Y-56210000D03*
D47*
%TO.P,J2,2,Pin_2_2*%
%TO.N,/MCU/SWCLK*%
X154750000Y-56210000D03*
%TO.P,J2,3,Pin_3_3*%
%TO.N,/MCU/SWDIO*%
X152210000Y-58750000D03*
%TO.P,J2,4,Pin_4_4*%
%TO.N,GND_MCU*%
X154750000Y-58750000D03*
%TO.P,J2,5,Pin_5_5*%
%TO.N,/MCU/NRST*%
X152210000Y-61290000D03*
%TO.P,J2,6,Pin_6_6*%
%TO.N,/MCU/SWO*%
X154750000Y-61290000D03*
%TD*%
D23*
%TO.P,J8,1,Pin_1_1*%
%TO.N,/MCU/SPI1_SCK*%
X128500000Y-41500000D03*
%TO.P,J8,2,Pin_2_2*%
%TO.N,/MCU/SPI1_MOSI*%
X128500000Y-42500000D03*
%TO.P,J8,3,Pin_3_3*%
%TO.N,/MCU/SPI1_MISO*%
X128500000Y-43500000D03*
%TO.P,J8,4,Pin_4_4*%
%TO.N,/MCU/SPI1_NSS_2*%
X128500000Y-44500000D03*
%TO.P,J8,5,Pin_5_5*%
%TO.N,/MCU/BAR_IRQ*%
X128500000Y-45500000D03*
D24*
%TO.P,J8,MP*%
%TO.N,N/C*%
X124625000Y-40200000D03*
X124625000Y-46800000D03*
%TD*%
D48*
%TO.P,J14,1,VBUS_1*%
%TO.N,VBUS*%
X165400000Y-45050000D03*
%TO.P,J14,2,D-_2*%
%TO.N,/MCU/OTG_FS_D-*%
X165400000Y-44250000D03*
%TO.P,J14,3,D+_3*%
%TO.N,/MCU/OTG_FS_D+*%
X165400000Y-43450000D03*
%TO.P,J14,4,ID_4*%
%TO.N,unconnected-(J14-ID-Pad4)*%
X165400000Y-42650000D03*
%TO.P,J14,5,GND_5*%
%TO.N,GND_MCU*%
X165400000Y-41850000D03*
D49*
%TO.P,J14,SH,Shield_SH*%
%TO.N,unconnected-(J14-Shield-PadSH)_1*%
X165500000Y-47900000D03*
%TO.N,unconnected-(J14-Shield-PadSH)_2*%
X171000000Y-47900000D03*
%TO.N,unconnected-(J14-Shield-PadSH)_3*%
X165500000Y-39000000D03*
%TO.N,unconnected-(J14-Shield-PadSH)*%
X171000000Y-39000000D03*
%TD*%
D10*
%TO.P,C9,1*%
%TO.N,/MCU/NRST*%
X135250000Y-53800000D03*
%TO.P,C9,2*%
%TO.N,GND_MCU*%
X135250000Y-55700000D03*
%TD*%
%TO.P,C6,1*%
%TO.N,+3V3_MCU*%
X160571068Y-38121068D03*
%TO.P,C6,2*%
%TO.N,GND_MCU*%
X160571068Y-40021068D03*
%TD*%
D28*
%TO.P,C11,1*%
%TO.N,/MCU/HSE_OUT*%
X134825000Y-43750000D03*
%TO.P,C11,2*%
%TO.N,GND_MCU*%
X132925000Y-43750000D03*
%TD*%
D50*
%TO.N,+3V3_MCU*%
X156821068Y-38071068D03*
X156571068Y-47321068D03*
X135071068Y-48071068D03*
X155821068Y-38571068D03*
X160321068Y-56071068D03*
X139250000Y-30222500D03*
X139821068Y-37821068D03*
X146071068Y-47571068D03*
X128000000Y-30250000D03*
X141321068Y-45100003D03*
X167321068Y-34821068D03*
X152861448Y-48030688D03*
X144571068Y-38821068D03*
X160321068Y-53571068D03*
X141250000Y-39750000D03*
X160321068Y-54821068D03*
X154571068Y-65571068D03*
%TO.N,GND_MCU*%
X167321068Y-33821068D03*
X138071068Y-37821068D03*
X152050000Y-30645000D03*
X159571068Y-27071068D03*
X156571068Y-24071068D03*
X163571068Y-41571068D03*
X166821068Y-51321068D03*
X152500000Y-25972500D03*
X137571068Y-27071068D03*
X155321068Y-51821068D03*
X130500000Y-25750000D03*
X152071068Y-47571068D03*
X137571068Y-21071068D03*
X143571068Y-21071068D03*
X139821068Y-36071068D03*
X153571068Y-21071068D03*
X154250000Y-32445000D03*
X141321068Y-44250000D03*
X161821068Y-65571068D03*
X145500000Y-26250000D03*
X147671068Y-63571068D03*
X156250000Y-27195000D03*
X145221065Y-47571068D03*
X157250000Y-28695000D03*
X143571068Y-58571068D03*
X135821068Y-57071068D03*
X162071068Y-39071068D03*
X161821068Y-47071068D03*
X145455689Y-38855686D03*
X145321068Y-58571068D03*
X144000000Y-32945000D03*
X147688036Y-27393086D03*
X147321068Y-26071068D03*
X140571068Y-24071068D03*
X171250000Y-30250000D03*
X131675000Y-43750000D03*
X165571068Y-55821068D03*
X131675000Y-39750000D03*
X143750000Y-28750000D03*
X133821068Y-64321068D03*
X150821068Y-67071068D03*
X156071068Y-39499997D03*
X169750000Y-24250000D03*
X163571068Y-39071068D03*
X135071068Y-46500000D03*
X158000000Y-32945000D03*
X159571068Y-21071068D03*
X162071068Y-41571068D03*
X151221068Y-60030379D03*
%TO.N,/MCU/STAT2*%
X148688902Y-39500000D03*
X158071068Y-36071068D03*
%TO.N,/MCU/STAT1*%
X158071068Y-34071068D03*
X148069066Y-38850000D03*
%TO.N,/MCU/OTG_FS_D+*%
X163071068Y-44821068D03*
X163071068Y-42821068D03*
%TO.N,/MCU/NRST*%
X143071068Y-48321068D03*
X137571068Y-49821068D03*
%TO.N,/MCU/ADC_IN11*%
X141321068Y-43321068D03*
%TO.N,/MCU/SPI1_SCK*%
X147071068Y-47571068D03*
X129821068Y-50571068D03*
%TO.N,/MCU/SPI1_MISO*%
X129821068Y-52571068D03*
X142571068Y-52571068D03*
%TO.N,/MCU/SPI1_MOSI*%
X127071068Y-51071068D03*
X129821068Y-51571068D03*
X127072120Y-43072120D03*
X148071068Y-47571068D03*
%TO.N,/MCU/IMU_IRQ1*%
X129821068Y-54571068D03*
X148321068Y-51071068D03*
%TO.N,/MCU/IMU_IRQ2*%
X129821068Y-55571068D03*
X149071068Y-50571068D03*
%TO.N,/MCU/SPI1_NSS_2*%
X129821068Y-44571068D03*
X149071068Y-45571068D03*
%TO.N,/MCU/BAR_IRQ*%
X150130583Y-46842314D03*
X129821068Y-45571068D03*
%TO.N,/MCU/SPI1_NSS_1*%
X151071068Y-47071068D03*
X129821068Y-53571068D03*
%TO.N,/MCU/SPI2_SCK*%
X155921068Y-46571068D03*
X148821068Y-54321068D03*
%TO.N,/MCU/SPI2_MOSI*%
X149627451Y-54589862D03*
X156071068Y-45571068D03*
%TO.N,/MCU/UART1_TX*%
X130071068Y-34571068D03*
X148571068Y-40921068D03*
%TO.N,/MCU/UART1_RX*%
X130071068Y-35571068D03*
X150230688Y-41661448D03*
%TO.N,/MCU/SWDIO*%
X156071068Y-40350000D03*
X157321068Y-57571068D03*
X156071068Y-42150000D03*
%TO.N,/MCU/SWCLK*%
X152571068Y-40150000D03*
X156071068Y-43071068D03*
%TO.N,/MCU/SPI3_SCK*%
X148742535Y-34411775D03*
X151350000Y-34428300D03*
%TO.N,Net-(U1-PD2)*%
X149821068Y-35571068D03*
X140071068Y-34821068D03*
%TO.N,/MCU/SWO*%
X149571068Y-40150000D03*
X156111448Y-44030688D03*
%TO.N,/MCU/BOOT0*%
X159321068Y-45821068D03*
X147071068Y-42321068D03*
%TO.N,Net-(C26-Pad1)*%
X142750000Y-31472500D03*
X146750000Y-27445000D03*
X151998734Y-31493455D03*
X142500000Y-28750000D03*
%TO.N,+5V*%
X168310073Y-52763168D03*
%TO.N,VBAT*%
X145571068Y-67321068D03*
X135821068Y-66571068D03*
%TD*%
%TO.N,+3V3_MCU*%
D51*
X158321068Y-38121068D02*
X156871068Y-38121068D01*
D52*
X140450000Y-30122500D02*
X139350000Y-30122500D01*
D51*
X136571068Y-48021068D02*
X135121068Y-48021068D01*
D52*
X155567020Y-38815571D02*
X155576565Y-38815571D01*
X141321068Y-38021068D02*
X140021068Y-38021068D01*
X146000000Y-47642136D02*
X146071068Y-47571068D01*
D51*
X135121068Y-48021068D02*
X135071068Y-48071068D01*
D52*
X145000000Y-36400000D02*
X143921068Y-35321068D01*
X155821068Y-48071068D02*
X156571068Y-47321068D01*
X152500000Y-48392136D02*
X152861448Y-48030688D01*
D51*
X139071068Y-48021068D02*
X136571068Y-48021068D01*
D52*
X127437500Y-29687500D02*
X128000000Y-30250000D01*
D51*
X158321068Y-38121068D02*
X160571068Y-38121068D01*
D52*
X152500000Y-48925000D02*
X152500000Y-48392136D01*
X141321068Y-45100003D02*
X141321068Y-45136019D01*
X146000000Y-48925000D02*
X146000000Y-50750000D01*
X154882591Y-39500000D02*
X155567020Y-38815571D01*
X143075000Y-39500000D02*
X141500000Y-39500000D01*
X140021068Y-38021068D02*
X139821068Y-37821068D01*
X141500000Y-39500000D02*
X141250000Y-39750000D01*
X145000000Y-37575000D02*
X145000000Y-38392136D01*
X141321068Y-45136019D02*
X141685049Y-45500000D01*
X146000000Y-48925000D02*
X146000000Y-47642136D01*
X141685049Y-45500000D02*
X143075000Y-45500000D01*
D51*
X155321068Y-65571068D02*
X154571068Y-65571068D01*
D52*
X155821068Y-48621068D02*
X155821068Y-48071068D01*
X155576565Y-38815571D02*
X155821068Y-38571068D01*
X146000000Y-50750000D02*
X146500000Y-51250000D01*
D51*
X156100000Y-66350000D02*
X155321068Y-65571068D01*
X168500000Y-34750000D02*
X167392136Y-34750000D01*
X167392136Y-34750000D02*
X167321068Y-34821068D01*
D52*
X145000000Y-38392136D02*
X144571068Y-38821068D01*
X127437500Y-28750000D02*
X127437500Y-29687500D01*
X154425000Y-39500000D02*
X154882591Y-39500000D01*
X145000000Y-37575000D02*
X145000000Y-36400000D01*
X139350000Y-30122500D02*
X139250000Y-30222500D01*
D51*
X156871068Y-38121068D02*
X156821068Y-38071068D01*
%TO.N,GND_MCU*%
D52*
X143700000Y-29642500D02*
X143700000Y-28800000D01*
X161821068Y-46146068D02*
X161821068Y-47071068D01*
D51*
X164500000Y-52321068D02*
X166450000Y-52321068D01*
X166750000Y-51392136D02*
X166821068Y-51321068D01*
D52*
X145500000Y-38811375D02*
X145455689Y-38855686D01*
X147419636Y-25972500D02*
X147321068Y-26071068D01*
D51*
X166750000Y-52621068D02*
X166750000Y-51392136D01*
D52*
X156950000Y-32872500D02*
X157927500Y-32872500D01*
X132925000Y-43750000D02*
X131675000Y-43750000D01*
X145117500Y-29810000D02*
X146512500Y-29810000D01*
X152000000Y-48925000D02*
X152000000Y-47642136D01*
X155800000Y-28872500D02*
X157072500Y-28872500D01*
X147950000Y-28372500D02*
X147950000Y-27655050D01*
X154425000Y-40000000D02*
X155392136Y-40000000D01*
X145074999Y-32872500D02*
X144950000Y-32872500D01*
D51*
X166450000Y-52321068D02*
X166750000Y-52621068D01*
D52*
X151460000Y-25972500D02*
X152500000Y-25972500D01*
X132925000Y-39750000D02*
X131675000Y-39750000D01*
X145500000Y-37575000D02*
X145500000Y-38811375D01*
D51*
X168500000Y-33750000D02*
X167392136Y-33750000D01*
D52*
X145500000Y-48925000D02*
X145500000Y-47919239D01*
D51*
X136571068Y-46121068D02*
X135450000Y-46121068D01*
D52*
X145500000Y-48925000D02*
X145500000Y-50350000D01*
X145500000Y-27230000D02*
X145500000Y-26250000D01*
D51*
X167392136Y-33750000D02*
X167321068Y-33821068D01*
X136600000Y-55700000D02*
X137650000Y-56750000D01*
X139071068Y-46121068D02*
X136571068Y-46121068D01*
X164021068Y-55321068D02*
X165071068Y-55321068D01*
D52*
X148400000Y-25972500D02*
X147419636Y-25972500D01*
D51*
X135250000Y-56500000D02*
X135821068Y-57071068D01*
X135450000Y-46121068D02*
X135071068Y-46500000D01*
X165071068Y-55321068D02*
X165571068Y-55821068D01*
D52*
X130375000Y-24250000D02*
X130375000Y-25625000D01*
X145221065Y-47640304D02*
X145221065Y-47571068D01*
X144950000Y-32872500D02*
X144072500Y-32872500D01*
X152000000Y-48925000D02*
X152000000Y-50550000D01*
X155200000Y-27122500D02*
X156177500Y-27122500D01*
X144072500Y-32872500D02*
X144000000Y-32945000D01*
X130375000Y-25625000D02*
X130500000Y-25750000D01*
X150387500Y-30310000D02*
X151715000Y-30310000D01*
X141321068Y-36121068D02*
X139871068Y-36121068D01*
D51*
X165400000Y-41850000D02*
X163850000Y-41850000D01*
D52*
X142175000Y-45000000D02*
X143075000Y-45000000D01*
X145500000Y-35642136D02*
X145821068Y-35321068D01*
X171500000Y-28750000D02*
X171500000Y-30000000D01*
X155892139Y-39499997D02*
X156071068Y-39499997D01*
D51*
X158321068Y-40021068D02*
X160571068Y-40021068D01*
X135250000Y-55700000D02*
X135250000Y-56500000D01*
X163850000Y-41850000D02*
X163571068Y-41571068D01*
D52*
X157927500Y-32872500D02*
X158000000Y-32945000D01*
X152000000Y-47642136D02*
X152071068Y-47571068D01*
X146512500Y-31310000D02*
X146512500Y-31434999D01*
X156177500Y-27122500D02*
X156250000Y-27195000D01*
X154200000Y-32395000D02*
X154250000Y-32445000D01*
D51*
X143050000Y-64875000D02*
X143050000Y-59092136D01*
X161071068Y-65571068D02*
X161821068Y-65571068D01*
D52*
X145500000Y-37575000D02*
X145500000Y-35642136D01*
X143700000Y-28800000D02*
X143750000Y-28750000D01*
X145500000Y-50350000D02*
X144600000Y-51250000D01*
X138071068Y-36321068D02*
X138071068Y-37821068D01*
X152000000Y-50550000D02*
X152771068Y-51321068D01*
D51*
X143050000Y-59092136D02*
X143571068Y-58571068D01*
D52*
X144950000Y-29642500D02*
X143700000Y-29642500D01*
X141321068Y-44250000D02*
X141425000Y-44250000D01*
X151715000Y-30310000D02*
X152050000Y-30645000D01*
X145500000Y-47919239D02*
X145221065Y-47640304D01*
X157072500Y-28872500D02*
X157250000Y-28695000D01*
X154200000Y-31072500D02*
X154200000Y-32395000D01*
X139871068Y-36121068D02*
X139821068Y-36071068D01*
X168437500Y-24250000D02*
X169750000Y-24250000D01*
D51*
X160600000Y-66042136D02*
X161071068Y-65571068D01*
D52*
X155821068Y-50521068D02*
X155821068Y-51321068D01*
X141425000Y-44250000D02*
X142175000Y-45000000D01*
X144950000Y-29642500D02*
X145117500Y-29810000D01*
X155821068Y-51321068D02*
X155321068Y-51821068D01*
X155392136Y-40000000D02*
X155892139Y-39499997D01*
D51*
X160600000Y-66350000D02*
X160600000Y-66042136D01*
D52*
X147950000Y-27655050D02*
X147688036Y-27393086D01*
D51*
X135250000Y-55700000D02*
X136600000Y-55700000D01*
D52*
X146512500Y-31434999D02*
X145074999Y-32872500D01*
%TO.N,/MCU/STAT2*%
X149000000Y-39188902D02*
X148688902Y-39500000D01*
X158071068Y-36071068D02*
X159496068Y-36071068D01*
X149000000Y-37575000D02*
X149000000Y-39188902D01*
%TO.N,Net-(D3-A)*%
X169625000Y-30017136D02*
X169625000Y-28750000D01*
X161321068Y-36071068D02*
X163571068Y-36071068D01*
X163571068Y-36071068D02*
X169625000Y-30017136D01*
%TO.N,Net-(U9-IREF)*%
X145500000Y-28297500D02*
X146512500Y-29310000D01*
X145500000Y-28250000D02*
X145500000Y-28297500D01*
%TO.N,Net-(SW3-B)*%
D51*
X166750000Y-54521068D02*
X165750000Y-54521068D01*
X163771068Y-51371068D02*
X163321068Y-51821068D01*
X168823932Y-54521068D02*
X169845000Y-53500000D01*
X164500000Y-51371068D02*
X163771068Y-51371068D01*
X163321068Y-52821068D02*
X163771068Y-53271068D01*
X163321068Y-51821068D02*
X163321068Y-52821068D01*
X163771068Y-53271068D02*
X164500000Y-53271068D01*
X165750000Y-54521068D02*
X164500000Y-53271068D01*
X166750000Y-54521068D02*
X168823932Y-54521068D01*
%TO.N,Net-(D2-A)*%
D52*
X164642136Y-34000000D02*
X161321068Y-34000000D01*
X164642136Y-34000000D02*
X167071068Y-31571068D01*
X167071068Y-31571068D02*
X167071068Y-24758568D01*
X167071068Y-24758568D02*
X166562500Y-24250000D01*
%TO.N,Net-(FL1-UNBALPRT)*%
D53*
X148400000Y-22322500D02*
X148500000Y-22222500D01*
X148400000Y-25472500D02*
X148400000Y-22322500D01*
%TO.N,Net-(FL1-BALPRT1)*%
X148450000Y-28372500D02*
X148450000Y-26522500D01*
X148450000Y-26522500D02*
X148400000Y-26472500D01*
%TO.N,Net-(FL1-BALPRT2)*%
X148955000Y-26767500D02*
X148955000Y-28372500D01*
X149250000Y-26472500D02*
X148955000Y-26767500D01*
%TO.N,Net-(FL1-DCFEED+RFGND{slash}GND)*%
X150495000Y-25967500D02*
X149250000Y-25967500D01*
X150500000Y-25972500D02*
X150495000Y-25967500D01*
X150500000Y-25972500D02*
X150500000Y-27332500D01*
X150500000Y-27332500D02*
X149460000Y-28372500D01*
%TO.N,/MCU/STAT1*%
D52*
X148500000Y-37575000D02*
X148500000Y-38419066D01*
X148500000Y-38419066D02*
X148069066Y-38850000D01*
X159425000Y-34071068D02*
X159496068Y-34000000D01*
X158071068Y-34071068D02*
X159425000Y-34071068D01*
%TO.N,Net-(D1-A)*%
X128500000Y-24250000D02*
X128500000Y-28500000D01*
X132571068Y-34071068D02*
X132581068Y-34081068D01*
X132581068Y-34081068D02*
X136251068Y-34081068D01*
X128500000Y-28500000D02*
X129321068Y-29321068D01*
X129321068Y-29321068D02*
X129321068Y-31071068D01*
X129321068Y-31071068D02*
X132321068Y-34071068D01*
X132321068Y-34071068D02*
X132571068Y-34071068D01*
%TO.N,Net-(U9-XC2)*%
X155800000Y-31072500D02*
X155800000Y-32682500D01*
X155750000Y-30022500D02*
X155800000Y-30072500D01*
X150387500Y-29810000D02*
X152155000Y-29810000D01*
X152155000Y-29810000D02*
X152250000Y-29715000D01*
X155800000Y-32682500D02*
X155990000Y-32872500D01*
X152250000Y-29715000D02*
X152557500Y-30022500D01*
X155800000Y-30072500D02*
X155800000Y-31072500D01*
X152557500Y-30022500D02*
X155750000Y-30022500D01*
%TO.N,/MCU/OTG_FS_D+*%
X163071068Y-43600000D02*
X160453554Y-43600000D01*
X160453554Y-43600000D02*
X157853554Y-41000000D01*
X163071068Y-42821068D02*
X163071068Y-43600000D01*
X162896068Y-44996068D02*
X163071068Y-44821068D01*
X163524999Y-43600000D02*
X163071068Y-43600000D01*
X163674999Y-43450000D02*
X163524999Y-43600000D01*
X157853554Y-41000000D02*
X154425000Y-41000000D01*
X165400000Y-43450000D02*
X163674999Y-43450000D01*
X162221068Y-44996068D02*
X162896068Y-44996068D01*
%TO.N,/MCU/OTG_FS_D-*%
X163674999Y-44250000D02*
X163524999Y-44100000D01*
X160246446Y-44100000D02*
X157646446Y-41500000D01*
X163524999Y-44100000D02*
X161321068Y-44100000D01*
X161421068Y-44200000D02*
X161321068Y-44100000D01*
X161421068Y-44996068D02*
X161421068Y-44200000D01*
X165400000Y-44250000D02*
X163674999Y-44250000D01*
X161321068Y-44100000D02*
X160246446Y-44100000D01*
X157646446Y-41500000D02*
X154425000Y-41500000D01*
%TO.N,/MCU/HSE_IN*%
X137925000Y-39700000D02*
X139725000Y-41500000D01*
X137875000Y-39750000D02*
X137925000Y-39700000D01*
X139725000Y-41500000D02*
X143075000Y-41500000D01*
X134825000Y-39750000D02*
X137875000Y-39750000D01*
%TO.N,/MCU/HSE_OUT*%
X137925000Y-43800000D02*
X134875000Y-43800000D01*
X134875000Y-43800000D02*
X134825000Y-43750000D01*
X137925000Y-43800000D02*
X139725000Y-42000000D01*
X139725000Y-42000000D02*
X143075000Y-42000000D01*
%TO.N,/MCU/NRST*%
X147571068Y-66321068D02*
X146321068Y-65071068D01*
X146000000Y-53750000D02*
X144850000Y-53750000D01*
D51*
X137650000Y-53750000D02*
X135300000Y-53750000D01*
D52*
X143882410Y-42500000D02*
X144321068Y-42938658D01*
X152210000Y-65682136D02*
X151571068Y-66321068D01*
X151571068Y-66321068D02*
X147571068Y-66321068D01*
X146321068Y-54071068D02*
X146000000Y-53750000D01*
X137571068Y-49821068D02*
X137650000Y-49900000D01*
X144321068Y-47071068D02*
X143071068Y-48321068D01*
X137650000Y-49900000D02*
X137650000Y-53750000D01*
X152210000Y-61290000D02*
X152210000Y-65682136D01*
X143075000Y-42500000D02*
X143882410Y-42500000D01*
D51*
X135300000Y-53750000D02*
X135250000Y-53800000D01*
D52*
X144321068Y-42938658D02*
X144321068Y-47071068D01*
X146321068Y-65071068D02*
X146321068Y-54071068D01*
%TO.N,/MCU/ADC_IN11*%
X141321068Y-43321068D02*
X141500000Y-43500000D01*
X141500000Y-43500000D02*
X143075000Y-43500000D01*
%TO.N,/ESC4*%
X139321068Y-50821068D02*
X139321068Y-58571068D01*
X143075000Y-46000000D02*
X141392136Y-46000000D01*
X140321068Y-47071068D02*
X140321068Y-49821068D01*
X140321068Y-49821068D02*
X139321068Y-50821068D01*
X138050000Y-59842136D02*
X138050000Y-64875000D01*
X139321068Y-58571068D02*
X138050000Y-59842136D01*
X141392136Y-46000000D02*
X140321068Y-47071068D01*
%TO.N,/ESC3*%
X139050000Y-64875000D02*
X139050000Y-60092136D01*
X141892136Y-46500000D02*
X143075000Y-46500000D01*
X140071068Y-59071068D02*
X140071068Y-51071068D01*
X139050000Y-60092136D02*
X140071068Y-59071068D01*
X140071068Y-51071068D02*
X141071068Y-50071068D01*
X141071068Y-50071068D02*
X141071068Y-47321068D01*
X141071068Y-47321068D02*
X141892136Y-46500000D01*
%TO.N,/ESC2*%
X140821068Y-51321068D02*
X140821068Y-59321068D01*
X141821068Y-50321068D02*
X140821068Y-51321068D01*
X140821068Y-59321068D02*
X140050000Y-60092136D01*
X143075000Y-47000000D02*
X141821068Y-48253932D01*
X141821068Y-48253932D02*
X141821068Y-50321068D01*
X140050000Y-60092136D02*
X140050000Y-64875000D01*
%TO.N,/ESC1*%
X141050000Y-60342136D02*
X141571068Y-59821068D01*
X141050000Y-64875000D02*
X141050000Y-60342136D01*
X144467136Y-48925000D02*
X145000000Y-48925000D01*
X141571068Y-51821068D02*
X144467136Y-48925000D01*
X141571068Y-59821068D02*
X141571068Y-51821068D01*
%TO.N,/MCU/SPI1_SCK*%
X147071068Y-47571068D02*
X147000000Y-47642136D01*
X130000000Y-41500000D02*
X130571068Y-42071068D01*
X129750000Y-50500000D02*
X129821068Y-50571068D01*
X128500000Y-41500000D02*
X130000000Y-41500000D01*
X130571068Y-49821068D02*
X129821068Y-50571068D01*
X147000000Y-47642136D02*
X147000000Y-48925000D01*
X128500000Y-50500000D02*
X129750000Y-50500000D01*
X130571068Y-42071068D02*
X130571068Y-49821068D01*
%TO.N,/MCU/SPI1_MISO*%
X126421068Y-51421068D02*
X127500000Y-52500000D01*
X142571068Y-52571068D02*
X147004872Y-52571068D01*
X147500000Y-52075940D02*
X147500000Y-48925000D01*
X127725001Y-43500000D02*
X126421068Y-44803933D01*
X126421068Y-44803933D02*
X126421068Y-51421068D01*
X128500000Y-43500000D02*
X127725001Y-43500000D01*
X127500000Y-52500000D02*
X128500000Y-52500000D01*
X129750000Y-52500000D02*
X129821068Y-52571068D01*
X128500000Y-52500000D02*
X129750000Y-52500000D01*
X147004872Y-52571068D02*
X147500000Y-52075940D01*
%TO.N,/MCU/SPI1_MOSI*%
X128500000Y-42500000D02*
X127644240Y-42500000D01*
X148071068Y-47571068D02*
X148000000Y-47642136D01*
X148000000Y-47642136D02*
X148000000Y-48925000D01*
X128500000Y-51500000D02*
X129750000Y-51500000D01*
X129750000Y-51500000D02*
X129821068Y-51571068D01*
X127500000Y-51500000D02*
X128500000Y-51500000D01*
X127071068Y-51071068D02*
X127500000Y-51500000D01*
X127644240Y-42500000D02*
X127072120Y-43072120D01*
%TO.N,/MCU/IMU_IRQ1*%
X148500000Y-50222897D02*
X148321068Y-50401829D01*
X148500000Y-48925000D02*
X148500000Y-50222897D01*
X129750000Y-54500000D02*
X129821068Y-54571068D01*
X128500000Y-54500000D02*
X129750000Y-54500000D01*
X148321068Y-50401829D02*
X148321068Y-51071068D01*
%TO.N,/MCU/IMU_IRQ2*%
X128500000Y-55500000D02*
X129750000Y-55500000D01*
X149071068Y-50571068D02*
X149000000Y-50500000D01*
X149000000Y-50500000D02*
X149000000Y-48925000D01*
X129750000Y-55500000D02*
X129821068Y-55571068D01*
%TO.N,/MCU/SPI1_NSS_2*%
X149480583Y-48905583D02*
X149480583Y-45980583D01*
X129821068Y-44571068D02*
X128571068Y-44571068D01*
X128571068Y-44571068D02*
X128500000Y-44500000D01*
X149500000Y-48925000D02*
X149480583Y-48905583D01*
X149480583Y-45980583D02*
X149071068Y-45571068D01*
%TO.N,/MCU/BAR_IRQ*%
X128571068Y-45571068D02*
X128500000Y-45500000D01*
X129821068Y-45571068D02*
X128571068Y-45571068D01*
X150000000Y-48925000D02*
X150000000Y-46972897D01*
X150000000Y-46972897D02*
X150130583Y-46842314D01*
%TO.N,/MCU/SPI1_NSS_1*%
X150500000Y-47642136D02*
X151071068Y-47071068D01*
X129750000Y-53500000D02*
X129821068Y-53571068D01*
X128500000Y-53500000D02*
X129750000Y-53500000D01*
X150500000Y-48925000D02*
X150500000Y-47642136D01*
%TO.N,Net-(U1-VCAP_1)*%
X151500000Y-48925000D02*
X151500000Y-50692136D01*
X151500000Y-50692136D02*
X150871068Y-51321068D01*
%TO.N,/MCU/IIS2_IRQ*%
X151050000Y-63300000D02*
X151050000Y-64875000D01*
X154571068Y-53071068D02*
X153321068Y-54321068D01*
X150571068Y-55571068D02*
X150571068Y-62821068D01*
X153321068Y-54321068D02*
X151821068Y-54321068D01*
X151821068Y-54321068D02*
X150571068Y-55571068D01*
X150571068Y-62821068D02*
X151050000Y-63300000D01*
X154425000Y-47000000D02*
X154571068Y-47146068D01*
X154571068Y-47146068D02*
X154571068Y-53071068D01*
%TO.N,/MCU/SPI2_SCK*%
X148050000Y-64875000D02*
X148321068Y-64603932D01*
X148321068Y-64603932D02*
X148321068Y-63571068D01*
X154425000Y-46500000D02*
X155850000Y-46500000D01*
X155850000Y-46500000D02*
X155921068Y-46571068D01*
X148321068Y-63571068D02*
X148321068Y-54821068D01*
X148321068Y-54821068D02*
X148821068Y-54321068D01*
%TO.N,/MCU/SPI2_MOSI*%
X156000000Y-45500000D02*
X154425000Y-45500000D01*
X156071068Y-45571068D02*
X156000000Y-45500000D01*
X149050000Y-55092136D02*
X149552274Y-54589862D01*
X149552274Y-54589862D02*
X149627451Y-54589862D01*
X149050000Y-64875000D02*
X149050000Y-55092136D01*
%TO.N,/MCU/SPI2_NSS*%
X151571068Y-53571068D02*
X153071068Y-53571068D01*
X149821068Y-64646068D02*
X149821068Y-55321068D01*
X153617590Y-43000000D02*
X154425000Y-43000000D01*
X153821068Y-48071068D02*
X152321068Y-46571068D01*
X152321068Y-44296522D02*
X153617590Y-43000000D01*
X150050000Y-64875000D02*
X149821068Y-64646068D01*
X152321068Y-46571068D02*
X152321068Y-44296522D01*
X149821068Y-55321068D02*
X151571068Y-53571068D01*
X153071068Y-53571068D02*
X153821068Y-52821068D01*
X153821068Y-52821068D02*
X153821068Y-48071068D01*
%TO.N,/MCU/UART1_TX*%
X154425000Y-42500000D02*
X150150000Y-42500000D01*
X128646068Y-34571068D02*
X128500000Y-34425000D01*
X150150000Y-42500000D02*
X148571068Y-40921068D01*
X130071068Y-34571068D02*
X128646068Y-34571068D01*
X128591068Y-34571068D02*
X128445000Y-34425000D01*
%TO.N,/MCU/UART1_RX*%
X128646068Y-35571068D02*
X128500000Y-35425000D01*
X154425000Y-42000000D02*
X150569240Y-42000000D01*
X128591068Y-35571068D02*
X128445000Y-35425000D01*
X130071068Y-35571068D02*
X128646068Y-35571068D01*
X150569240Y-42000000D02*
X150230688Y-41661448D01*
%TO.N,/MCU/SWDIO*%
X156071068Y-42150000D02*
X158571068Y-44650000D01*
X158571068Y-52071068D02*
X157321068Y-53321068D01*
X155921068Y-40500000D02*
X156071068Y-40350000D01*
X158571068Y-44650000D02*
X158571068Y-52071068D01*
X157321068Y-53321068D02*
X157321068Y-57571068D01*
X154425000Y-40500000D02*
X155921068Y-40500000D01*
%TO.N,/MCU/SWCLK*%
X157902446Y-44902446D02*
X156071068Y-43071068D01*
X152571068Y-37646068D02*
X152500000Y-37575000D01*
X157902446Y-51739690D02*
X157902446Y-44902446D01*
X154750000Y-54892136D02*
X157902446Y-51739690D01*
X152571068Y-40150000D02*
X152571068Y-37646068D01*
X154750000Y-56210000D02*
X154750000Y-54892136D01*
%TO.N,/MCU/RF_IRQ*%
X152000000Y-32922500D02*
X150387500Y-31310000D01*
X152000000Y-37575000D02*
X152000000Y-32922500D01*
%TO.N,/MCU/SPI3_SCK*%
X151500000Y-34578300D02*
X151350000Y-34428300D01*
X148742535Y-34411775D02*
X148450000Y-34119240D01*
X148450000Y-34119240D02*
X148450000Y-32247500D01*
X151500000Y-37575000D02*
X151500000Y-34578300D01*
%TO.N,/MCU/SPI3_MISO*%
X151000000Y-37575000D02*
X151000000Y-35000000D01*
X151000000Y-35000000D02*
X149450000Y-33450000D01*
X149450000Y-33450000D02*
X149450000Y-32247500D01*
%TO.N,/MCU/SPI3_MOSI*%
X150500000Y-37575000D02*
X150500000Y-35250000D01*
X150500000Y-35250000D02*
X148950000Y-33700000D01*
X148950000Y-33700000D02*
X148950000Y-32247500D01*
%TO.N,Net-(U1-PD2)*%
X150000000Y-35750000D02*
X150000000Y-37575000D01*
X149821068Y-35571068D02*
X150000000Y-35750000D01*
X140071068Y-34821068D02*
X138816068Y-34821068D01*
X138816068Y-34821068D02*
X138076068Y-34081068D01*
%TO.N,/MCU/SWO*%
X157252446Y-45171686D02*
X157252446Y-51389690D01*
X149500000Y-40078932D02*
X149571068Y-40150000D01*
X153600000Y-60140000D02*
X154750000Y-61290000D01*
X153600000Y-55042136D02*
X153600000Y-60140000D01*
X157252446Y-45171686D02*
X156111448Y-44030688D01*
X149500000Y-37575000D02*
X149500000Y-40078932D01*
X157252446Y-51389690D02*
X153600000Y-55042136D01*
%TO.N,/MCU/SPI3_NSS*%
X148000000Y-37575000D02*
X148000000Y-32297500D01*
X148000000Y-32297500D02*
X147950000Y-32247500D01*
%TO.N,/MCU/RF_CE*%
X147500000Y-37575000D02*
X147500000Y-32297500D01*
X147500000Y-32297500D02*
X147450000Y-32247500D01*
%TO.N,/MCU/BOOT0*%
X159321068Y-52571068D02*
X158408568Y-53483568D01*
X159321068Y-45821068D02*
X159321068Y-52571068D01*
X158408568Y-53483568D02*
X158408568Y-63821068D01*
X147000000Y-42250000D02*
X147000000Y-37575000D01*
X147071068Y-42321068D02*
X147000000Y-42250000D01*
%TO.N,Net-(U9-DVDD)*%
X144950000Y-31745000D02*
X144950000Y-31912500D01*
X145885000Y-30810000D02*
X144950000Y-31745000D01*
X146512500Y-30810000D02*
X145885000Y-30810000D01*
%TO.N,Net-(U9-XC1)*%
X154022500Y-28695000D02*
X154200000Y-28872500D01*
X154200000Y-28872500D02*
X154200000Y-27162500D01*
X154200000Y-27162500D02*
X154240000Y-27122500D01*
X151635000Y-29310000D02*
X152250000Y-28695000D01*
X152250000Y-28695000D02*
X154022500Y-28695000D01*
X150387500Y-29310000D02*
X151635000Y-29310000D01*
%TO.N,Net-(C26-Pad1)*%
X147450000Y-28372500D02*
X147450000Y-28145000D01*
X151295761Y-30810000D02*
X151979216Y-31493455D01*
X145242500Y-30310000D02*
X146512500Y-30310000D01*
X147450000Y-28145000D02*
X146750000Y-27445000D01*
X151979216Y-31493455D02*
X151998734Y-31493455D01*
X142275000Y-30997500D02*
X142750000Y-31472500D01*
X142275000Y-30122500D02*
X142275000Y-30997500D01*
X142500000Y-28750000D02*
X142500000Y-29897500D01*
X142755000Y-30602500D02*
X142275000Y-30122500D01*
X142500000Y-29897500D02*
X142275000Y-30122500D01*
X143700000Y-30602500D02*
X142755000Y-30602500D01*
X144950000Y-30602500D02*
X145242500Y-30310000D01*
X150387500Y-30810000D02*
X151295761Y-30810000D01*
X144950000Y-30602500D02*
X143700000Y-30602500D01*
%TO.N,VBUS*%
D51*
X164250000Y-49700000D02*
X171295000Y-49700000D01*
X169845000Y-56166497D02*
X169845000Y-56500000D01*
X171571068Y-49976068D02*
X171571068Y-51071068D01*
X172571068Y-52071068D02*
X172571068Y-53440429D01*
X171571068Y-51071068D02*
X172571068Y-52071068D01*
X172571068Y-53440429D02*
X169845000Y-56166497D01*
X165400000Y-45050000D02*
X164146446Y-45050000D01*
X163321068Y-45875378D02*
X163321068Y-48771068D01*
X171295000Y-49700000D02*
X171571068Y-49976068D01*
X164146446Y-45050000D02*
X163321068Y-45875378D01*
X163321068Y-48771068D02*
X164250000Y-49700000D01*
%TO.N,+5V*%
X168310073Y-52763168D02*
X169073241Y-52000000D01*
X169073241Y-52000000D02*
X169845000Y-52000000D01*
%TO.N,Net-(D5-K)*%
D52*
X125562500Y-30312500D02*
X127321068Y-32071068D01*
X128821068Y-32071068D02*
X133071068Y-36321068D01*
X125562500Y-28750000D02*
X125562500Y-30312500D01*
X133071068Y-36321068D02*
X136246068Y-36321068D01*
X127321068Y-32071068D02*
X128821068Y-32071068D01*
%TO.N,Net-(SW2-B)*%
X160233568Y-63821068D02*
X159100000Y-64954636D01*
X159100000Y-64954636D02*
X159100000Y-66350000D01*
%TO.N,VBAT*%
D51*
X143721069Y-67321068D02*
X142050000Y-65649999D01*
X145571068Y-67321068D02*
X143721069Y-67321068D01*
X142050000Y-65649999D02*
X141128931Y-66571068D01*
X142050000Y-65649999D02*
X142050000Y-64875000D01*
X141128931Y-66571068D02*
X135821068Y-66571068D01*
%TD*%
%TA.AperFunction,Conductor*%
%TO.N,GND_MCU*%
G36*
X163642606Y-38576091D02*
G01*
X163657604Y-38580495D01*
X163716355Y-38618240D01*
X163717542Y-38619609D01*
X163737407Y-38663072D01*
X163740863Y-38661976D01*
X163743695Y-38670903D01*
X163745082Y-38679862D01*
X163746587Y-38683155D01*
X163746108Y-38686491D01*
X163749500Y-38708399D01*
X163749500Y-40047876D01*
X163749659Y-40049806D01*
X163749885Y-40051454D01*
X163755907Y-40107482D01*
X163769926Y-40145068D01*
X163806202Y-40242328D01*
X163806203Y-40242330D01*
X163806204Y-40242332D01*
X163806205Y-40242333D01*
X163892450Y-40357542D01*
X163892452Y-40357544D01*
X163892455Y-40357547D01*
X163998458Y-40436902D01*
X164011814Y-40448475D01*
X164031842Y-40468502D01*
X164064309Y-40525512D01*
X164067214Y-40536891D01*
X164071068Y-40567564D01*
X164071068Y-41830183D01*
X164066044Y-41865121D01*
X164060965Y-41882417D01*
X164026487Y-41938232D01*
X164010063Y-41953524D01*
X163999876Y-41962038D01*
X163944825Y-42003249D01*
X163944824Y-42003249D01*
X163892453Y-42042452D01*
X163818844Y-42140781D01*
X163793891Y-42165734D01*
X163782780Y-42174052D01*
X163717316Y-42198471D01*
X163649043Y-42183621D01*
X163649038Y-42183618D01*
X163636655Y-42176856D01*
X163617422Y-42163880D01*
X163613236Y-42160445D01*
X163473924Y-42067360D01*
X163319151Y-42003252D01*
X163319124Y-42003246D01*
X163154841Y-41970568D01*
X163154839Y-41970568D01*
X163154835Y-41970568D01*
X162987301Y-41970568D01*
X162987296Y-41970568D01*
X162987294Y-41970568D01*
X162823010Y-42003246D01*
X162822983Y-42003252D01*
X162668210Y-42067360D01*
X162528906Y-42160440D01*
X162528905Y-42160441D01*
X162528902Y-42160444D01*
X162472061Y-42217284D01*
X162423057Y-42266289D01*
X162405168Y-42281101D01*
X162378289Y-42299404D01*
X162327849Y-42319390D01*
X162326839Y-42319549D01*
X162307497Y-42321068D01*
X160163760Y-42321068D01*
X160128824Y-42316045D01*
X160103582Y-42308633D01*
X160050837Y-42277337D01*
X159619994Y-41846494D01*
X159598842Y-41818238D01*
X159586235Y-41795149D01*
X159571068Y-41735724D01*
X159571068Y-41068442D01*
X159576090Y-41033509D01*
X159580001Y-41020190D01*
X159617774Y-40961413D01*
X159681326Y-40932388D01*
X159682028Y-40932287D01*
X159741899Y-40938453D01*
X159748184Y-40940732D01*
X159771023Y-40951772D01*
X159776937Y-40955420D01*
X159776938Y-40955420D01*
X159776944Y-40955424D01*
X159776948Y-40955426D01*
X159943370Y-41010573D01*
X159943377Y-41010574D01*
X160046087Y-41021067D01*
X160321067Y-41021067D01*
X160821068Y-41021067D01*
X161096028Y-41021067D01*
X161096040Y-41021067D01*
X161096054Y-41021066D01*
X161198765Y-41010573D01*
X161365187Y-40955426D01*
X161365192Y-40955424D01*
X161514413Y-40863383D01*
X161638383Y-40739413D01*
X161730424Y-40590192D01*
X161730426Y-40590187D01*
X161785573Y-40423765D01*
X161785574Y-40423758D01*
X161796067Y-40321054D01*
X161796068Y-40321041D01*
X161796068Y-40271068D01*
X160821068Y-40271068D01*
X160821068Y-41021067D01*
X160321067Y-41021067D01*
X160321068Y-41021066D01*
X160321068Y-40162897D01*
X160326091Y-40127961D01*
X160330495Y-40112963D01*
X160340137Y-40097954D01*
X160340753Y-40095858D01*
X160342402Y-40094428D01*
X160368240Y-40054212D01*
X160369609Y-40053025D01*
X160424488Y-40025545D01*
X160432047Y-40023901D01*
X160458400Y-40021068D01*
X160571068Y-40021068D01*
X160571068Y-39912897D01*
X160576091Y-39877961D01*
X160580495Y-39862963D01*
X160618240Y-39804212D01*
X160619609Y-39803025D01*
X160674488Y-39775545D01*
X160682047Y-39773901D01*
X160708400Y-39771068D01*
X161796067Y-39771068D01*
X161796067Y-39721100D01*
X161796067Y-39721096D01*
X161796066Y-39721081D01*
X161785573Y-39618370D01*
X161730426Y-39451948D01*
X161730424Y-39451943D01*
X161638383Y-39302722D01*
X161514412Y-39178751D01*
X161514411Y-39178750D01*
X161510081Y-39174420D01*
X161510133Y-39174367D01*
X161503026Y-39167578D01*
X161490205Y-39153323D01*
X161460011Y-39090318D01*
X161468671Y-39020990D01*
X161470080Y-39017748D01*
X161502623Y-38973437D01*
X161503852Y-38972372D01*
X161509200Y-38968449D01*
X161509053Y-38968263D01*
X161514717Y-38963784D01*
X161514724Y-38963780D01*
X161638780Y-38839724D01*
X161730882Y-38690402D01*
X161736652Y-38672985D01*
X161752408Y-38641404D01*
X161761313Y-38628544D01*
X161815655Y-38584639D01*
X161825452Y-38580566D01*
X161873049Y-38571068D01*
X163607670Y-38571068D01*
X163642606Y-38576091D01*
G37*
%TD.AperFunction*%
%TD*%
%TA.AperFunction,Conductor*%
%TO.N,+3V3_MCU*%
G36*
X161130487Y-51840753D02*
G01*
X161170180Y-51881947D01*
X161194417Y-51922930D01*
X161194423Y-51922938D01*
X161310629Y-52039144D01*
X161310633Y-52039147D01*
X161310635Y-52039149D01*
X161452102Y-52122812D01*
X161493724Y-52134904D01*
X161609926Y-52168665D01*
X161609929Y-52168665D01*
X161609931Y-52168666D01*
X161646806Y-52171568D01*
X162446568Y-52171568D01*
X162513607Y-52191253D01*
X162559362Y-52244057D01*
X162570568Y-52295568D01*
X162570568Y-52347068D01*
X162550883Y-52414107D01*
X162498079Y-52459862D01*
X162482904Y-52463163D01*
X162475000Y-52471068D01*
X162475000Y-54077068D01*
X162455315Y-54144107D01*
X162402511Y-54189862D01*
X162376647Y-54195488D01*
X162371068Y-54201068D01*
X162371068Y-56546067D01*
X162421040Y-56546067D01*
X162421054Y-56546066D01*
X162523765Y-56535573D01*
X162690187Y-56480426D01*
X162690192Y-56480424D01*
X162839413Y-56388383D01*
X162859387Y-56368410D01*
X162920710Y-56334925D01*
X162990402Y-56339909D01*
X163046335Y-56381781D01*
X163070752Y-56447245D01*
X163071068Y-56456091D01*
X163071068Y-56618395D01*
X163051383Y-56685434D01*
X162998579Y-56731189D01*
X162971259Y-56740012D01*
X162697098Y-56794545D01*
X162697086Y-56794548D01*
X162661287Y-56805407D01*
X162627261Y-56815729D01*
X162591268Y-56821068D01*
X159183068Y-56821068D01*
X159116029Y-56801383D01*
X159070274Y-56748579D01*
X159059068Y-56697068D01*
X159059068Y-55846054D01*
X161121069Y-55846054D01*
X161131562Y-55948765D01*
X161186709Y-56115187D01*
X161186711Y-56115192D01*
X161278752Y-56264413D01*
X161402722Y-56388383D01*
X161551943Y-56480424D01*
X161551948Y-56480426D01*
X161718370Y-56535573D01*
X161718377Y-56535574D01*
X161821087Y-56546067D01*
X161871067Y-56546066D01*
X161871068Y-56546066D01*
X161871068Y-55571068D01*
X161121069Y-55571068D01*
X161121069Y-55846054D01*
X159059068Y-55846054D01*
X159059068Y-53804376D01*
X159078753Y-53737337D01*
X159095387Y-53716695D01*
X159291013Y-53521069D01*
X161065204Y-53521069D01*
X161065399Y-53523554D01*
X161111218Y-53681266D01*
X161194814Y-53822620D01*
X161194821Y-53822629D01*
X161310938Y-53938746D01*
X161310946Y-53938752D01*
X161441816Y-54016148D01*
X161489499Y-54067217D01*
X161502003Y-54135958D01*
X161475358Y-54200548D01*
X161443794Y-54228417D01*
X161402727Y-54253748D01*
X161402723Y-54253751D01*
X161278752Y-54377722D01*
X161186711Y-54526943D01*
X161186709Y-54526948D01*
X161131562Y-54693370D01*
X161131561Y-54693377D01*
X161121068Y-54796081D01*
X161121068Y-55071068D01*
X161871068Y-55071068D01*
X161871068Y-54090068D01*
X161890753Y-54023029D01*
X161943557Y-53977274D01*
X161969420Y-53971647D01*
X161975000Y-53966068D01*
X161975000Y-53521068D01*
X161065205Y-53521068D01*
X161065204Y-53521069D01*
X159291013Y-53521069D01*
X159454695Y-53357387D01*
X159516018Y-53323902D01*
X159542376Y-53321068D01*
X159821068Y-53321068D01*
X159821068Y-53031248D01*
X159824058Y-53021066D01*
X161065204Y-53021066D01*
X161065205Y-53021068D01*
X161975000Y-53021068D01*
X161975000Y-52471068D01*
X161646850Y-52471068D01*
X161610010Y-52473967D01*
X161610004Y-52473968D01*
X161452306Y-52519784D01*
X161452303Y-52519785D01*
X161310947Y-52603382D01*
X161310938Y-52603389D01*
X161194821Y-52719506D01*
X161194814Y-52719515D01*
X161111218Y-52860869D01*
X161065399Y-53018581D01*
X161065204Y-53021066D01*
X159824058Y-53021066D01*
X159840753Y-52964209D01*
X159841927Y-52962415D01*
X159897533Y-52879195D01*
X159946569Y-52760812D01*
X159954375Y-52721568D01*
X159971568Y-52635137D01*
X159971568Y-51945068D01*
X159991253Y-51878029D01*
X160044057Y-51832274D01*
X160095568Y-51821068D01*
X161063448Y-51821068D01*
X161130487Y-51840753D01*
G37*
%TD.AperFunction*%
%TD*%
%TA.AperFunction,Conductor*%
%TO.N,GND_MCU*%
G36*
X144506248Y-20220185D02*
G01*
X144552003Y-20272989D01*
X144561947Y-20342147D01*
X144558020Y-20357530D01*
X144558187Y-20357570D01*
X144556401Y-20365127D01*
X144550000Y-20424655D01*
X144550000Y-21972500D01*
X145676000Y-21972500D01*
X145743039Y-21992185D01*
X145788794Y-22044989D01*
X145800000Y-22096500D01*
X145800000Y-22222500D01*
X145926000Y-22222500D01*
X145993039Y-22242185D01*
X146038794Y-22294989D01*
X146050000Y-22346500D01*
X146050000Y-24472500D01*
X146597828Y-24472500D01*
X146597844Y-24472499D01*
X146657372Y-24466098D01*
X146657379Y-24466096D01*
X146792086Y-24415854D01*
X146792093Y-24415850D01*
X146907187Y-24329690D01*
X146907190Y-24329687D01*
X146993350Y-24214593D01*
X146993355Y-24214584D01*
X147033551Y-24106813D01*
X147075422Y-24050879D01*
X147140886Y-24026461D01*
X147209159Y-24041312D01*
X147258565Y-24090717D01*
X147265915Y-24106812D01*
X147306202Y-24214828D01*
X147306206Y-24214835D01*
X147392452Y-24330044D01*
X147392455Y-24330047D01*
X147507664Y-24416293D01*
X147507673Y-24416298D01*
X147641332Y-24466149D01*
X147697266Y-24508020D01*
X147721684Y-24573484D01*
X147722000Y-24582331D01*
X147722000Y-25009400D01*
X147702315Y-25076439D01*
X147697268Y-25083710D01*
X147681203Y-25105169D01*
X147681202Y-25105171D01*
X147630910Y-25240013D01*
X147630909Y-25240017D01*
X147624500Y-25299627D01*
X147624500Y-25299634D01*
X147624500Y-25299635D01*
X147624500Y-25645369D01*
X147624501Y-25645376D01*
X147631619Y-25711592D01*
X147631619Y-25738099D01*
X147625000Y-25799669D01*
X147625000Y-25847500D01*
X147625051Y-25847551D01*
X147691915Y-25867185D01*
X147724171Y-25897227D01*
X147724919Y-25898227D01*
X147749311Y-25963701D01*
X147734434Y-26031968D01*
X147724919Y-26046773D01*
X147724171Y-26047773D01*
X147668254Y-26089665D01*
X147625027Y-26097472D01*
X147625000Y-26097500D01*
X147625000Y-26145344D01*
X147631619Y-26206898D01*
X147631620Y-26233409D01*
X147630909Y-26240014D01*
X147630909Y-26240017D01*
X147624500Y-26299627D01*
X147624500Y-26299634D01*
X147624500Y-26299635D01*
X147624500Y-26645369D01*
X147624501Y-26645376D01*
X147630908Y-26704983D01*
X147681202Y-26839828D01*
X147681206Y-26839835D01*
X147747266Y-26928079D01*
X147771684Y-26993543D01*
X147772000Y-27002390D01*
X147772000Y-27066472D01*
X147752315Y-27133511D01*
X147699511Y-27179266D01*
X147630353Y-27189210D01*
X147566797Y-27160185D01*
X147533439Y-27113925D01*
X147503704Y-27042139D01*
X147410626Y-26902837D01*
X147292162Y-26784373D01*
X147152860Y-26691295D01*
X146998082Y-26627184D01*
X146998074Y-26627182D01*
X146833771Y-26594500D01*
X146833767Y-26594500D01*
X146666233Y-26594500D01*
X146666228Y-26594500D01*
X146501925Y-26627182D01*
X146501917Y-26627184D01*
X146347137Y-26691296D01*
X146331149Y-26701979D01*
X146264471Y-26722854D01*
X146197091Y-26704367D01*
X146174581Y-26686555D01*
X146077294Y-26589268D01*
X146077285Y-26589261D01*
X145939191Y-26507593D01*
X145939188Y-26507592D01*
X145785130Y-26462834D01*
X145750000Y-26460068D01*
X145750000Y-27106000D01*
X145730315Y-27173039D01*
X145677511Y-27218794D01*
X145626000Y-27230000D01*
X145500000Y-27230000D01*
X145500000Y-27355500D01*
X145480315Y-27422539D01*
X145427511Y-27468294D01*
X145376455Y-27479499D01*
X145375977Y-27479500D01*
X145250820Y-27479501D01*
X145244706Y-27479981D01*
X145240062Y-27479999D01*
X145240010Y-27479984D01*
X145239607Y-27480000D01*
X144687156Y-27480000D01*
X144727594Y-27619193D01*
X144761419Y-27676388D01*
X144778601Y-27744112D01*
X144761419Y-27802628D01*
X144727130Y-27860607D01*
X144727129Y-27860611D01*
X144682335Y-28014791D01*
X144682334Y-28014797D01*
X144679500Y-28050811D01*
X144679500Y-28449169D01*
X144679501Y-28449191D01*
X144682335Y-28485205D01*
X144727129Y-28639388D01*
X144727130Y-28639391D01*
X144727131Y-28639393D01*
X144743004Y-28666233D01*
X144752751Y-28682714D01*
X144769933Y-28750438D01*
X144747772Y-28816700D01*
X144693306Y-28860463D01*
X144680613Y-28864910D01*
X144523810Y-28910466D01*
X144523804Y-28910468D01*
X144388121Y-28990711D01*
X144320397Y-29007894D01*
X144261879Y-28990711D01*
X144126195Y-28910468D01*
X144126190Y-28910466D01*
X143970918Y-28865355D01*
X143970912Y-28865354D01*
X143950000Y-28863709D01*
X143950000Y-29392500D01*
X144826000Y-29392500D01*
X144893039Y-29412185D01*
X144938794Y-29464989D01*
X144950000Y-29516500D01*
X144950000Y-29656813D01*
X144930315Y-29723852D01*
X144894891Y-29759915D01*
X144833251Y-29801102D01*
X144766574Y-29821980D01*
X144764360Y-29822000D01*
X144715302Y-29822000D01*
X144679008Y-29824856D01*
X144679002Y-29824857D01*
X144523610Y-29870003D01*
X144523605Y-29870006D01*
X144514766Y-29875232D01*
X144451648Y-29892500D01*
X144198352Y-29892500D01*
X144135233Y-29875232D01*
X144126395Y-29870006D01*
X144126393Y-29870005D01*
X144126389Y-29870003D01*
X143970997Y-29824857D01*
X143970991Y-29824856D01*
X143934697Y-29822000D01*
X143934690Y-29822000D01*
X143824000Y-29822000D01*
X143756961Y-29802315D01*
X143711206Y-29749511D01*
X143700000Y-29698000D01*
X143700000Y-29642500D01*
X143574000Y-29642500D01*
X143506961Y-29622815D01*
X143461206Y-29570011D01*
X143450000Y-29518500D01*
X143450000Y-28863710D01*
X143436159Y-28850916D01*
X143415848Y-28846649D01*
X143366093Y-28797596D01*
X143350500Y-28737397D01*
X143350500Y-28666232D01*
X143350499Y-28666228D01*
X143341801Y-28622500D01*
X143317816Y-28501918D01*
X143253703Y-28347137D01*
X143219200Y-28295500D01*
X143160626Y-28207837D01*
X143042162Y-28089373D01*
X142902860Y-27996295D01*
X142748082Y-27932184D01*
X142748074Y-27932182D01*
X142583771Y-27899500D01*
X142583767Y-27899500D01*
X142416233Y-27899500D01*
X142416228Y-27899500D01*
X142251925Y-27932182D01*
X142251917Y-27932184D01*
X142097139Y-27996295D01*
X141957837Y-28089373D01*
X141839373Y-28207837D01*
X141746295Y-28347139D01*
X141682184Y-28501917D01*
X141682182Y-28501925D01*
X141649500Y-28666228D01*
X141649500Y-28666232D01*
X141649500Y-28666233D01*
X141649500Y-28833767D01*
X141652911Y-28850916D01*
X141664734Y-28910355D01*
X141658505Y-28979946D01*
X141622720Y-29029620D01*
X141615840Y-29035380D01*
X141543844Y-29079788D01*
X141446301Y-29177330D01*
X141442104Y-29180845D01*
X141414900Y-29192715D01*
X141388858Y-29206936D01*
X141383234Y-29206533D01*
X141378066Y-29208789D01*
X141348767Y-29204068D01*
X141319166Y-29201952D01*
X141313659Y-29198412D01*
X141309085Y-29197676D01*
X141300410Y-29189897D01*
X141274819Y-29173451D01*
X141181157Y-29079789D01*
X141181156Y-29079788D01*
X141064597Y-29007894D01*
X141031836Y-28987687D01*
X141031831Y-28987685D01*
X140987119Y-28972869D01*
X140865297Y-28932501D01*
X140865295Y-28932500D01*
X140762510Y-28922000D01*
X140137498Y-28922000D01*
X140137480Y-28922001D01*
X140034703Y-28932500D01*
X140034700Y-28932501D01*
X139868168Y-28987685D01*
X139868163Y-28987687D01*
X139718842Y-29079789D01*
X139594789Y-29203842D01*
X139519108Y-29326541D01*
X139467160Y-29373266D01*
X139398197Y-29384487D01*
X139389378Y-29383061D01*
X139333771Y-29372000D01*
X139333767Y-29372000D01*
X139166233Y-29372000D01*
X139166228Y-29372000D01*
X139001925Y-29404682D01*
X139001917Y-29404684D01*
X138847139Y-29468795D01*
X138707837Y-29561873D01*
X138589373Y-29680337D01*
X138496295Y-29819639D01*
X138432184Y-29974417D01*
X138432182Y-29974425D01*
X138399500Y-30138728D01*
X138399500Y-30306271D01*
X138432182Y-30470574D01*
X138432184Y-30470582D01*
X138496295Y-30625360D01*
X138589373Y-30764662D01*
X138707837Y-30883126D01*
X138800494Y-30945037D01*
X138847137Y-30976203D01*
X139001918Y-31040316D01*
X139153951Y-31070557D01*
X139166228Y-31072999D01*
X139166232Y-31073000D01*
X139166233Y-31073000D01*
X139333768Y-31073000D01*
X139333769Y-31072999D01*
X139498082Y-31040316D01*
X139498086Y-31040314D01*
X139500508Y-31039580D01*
X139501844Y-31039568D01*
X139504057Y-31039128D01*
X139504140Y-31039547D01*
X139570375Y-31038953D01*
X139624189Y-31070557D01*
X139718844Y-31165212D01*
X139868166Y-31257314D01*
X140034703Y-31312499D01*
X140137491Y-31323000D01*
X140762508Y-31322999D01*
X140762516Y-31322998D01*
X140762519Y-31322998D01*
X140818802Y-31317248D01*
X140865297Y-31312499D01*
X141031834Y-31257314D01*
X141181156Y-31165212D01*
X141274819Y-31071549D01*
X141336142Y-31038064D01*
X141405834Y-31043048D01*
X141450181Y-31071549D01*
X141543845Y-31165213D01*
X141639375Y-31224135D01*
X141686100Y-31276082D01*
X141688839Y-31282220D01*
X141698535Y-31305627D01*
X141768065Y-31409688D01*
X141769726Y-31412173D01*
X141869345Y-31511792D01*
X141902830Y-31573115D01*
X141903281Y-31575281D01*
X141932182Y-31720576D01*
X141932184Y-31720582D01*
X141996295Y-31875360D01*
X142089373Y-32014662D01*
X142207837Y-32133126D01*
X142239199Y-32154081D01*
X142347137Y-32226203D01*
X142347138Y-32226203D01*
X142347139Y-32226204D01*
X142368843Y-32235194D01*
X142501918Y-32290316D01*
X142633867Y-32316562D01*
X142666228Y-32322999D01*
X142666232Y-32323000D01*
X142666233Y-32323000D01*
X142833768Y-32323000D01*
X142833769Y-32322999D01*
X142998082Y-32290316D01*
X143152863Y-32226203D01*
X143292162Y-32133126D01*
X143410626Y-32014662D01*
X143503703Y-31875363D01*
X143567816Y-31720582D01*
X143600500Y-31556267D01*
X143600500Y-31507000D01*
X143620185Y-31439961D01*
X143672989Y-31394206D01*
X143724500Y-31383000D01*
X143934682Y-31383000D01*
X143934690Y-31383000D01*
X143970993Y-31380143D01*
X144034008Y-31361835D01*
X144103876Y-31362034D01*
X144162547Y-31399975D01*
X144191391Y-31463613D01*
X144187679Y-31515506D01*
X144142357Y-31671502D01*
X144142356Y-31671508D01*
X144139500Y-31707802D01*
X144139500Y-32117197D01*
X144142356Y-32153491D01*
X144142357Y-32153497D01*
X144187504Y-32308890D01*
X144187507Y-32308897D01*
X144199910Y-32329870D01*
X144217093Y-32397594D01*
X144199912Y-32456108D01*
X144187968Y-32476304D01*
X144145496Y-32622500D01*
X144451648Y-32622500D01*
X144514766Y-32639767D01*
X144523605Y-32644994D01*
X144523608Y-32644994D01*
X144523610Y-32644996D01*
X144679002Y-32690142D01*
X144679005Y-32690142D01*
X144679007Y-32690143D01*
X144715310Y-32693000D01*
X144715318Y-32693000D01*
X145184682Y-32693000D01*
X145184690Y-32693000D01*
X145220993Y-32690143D01*
X145220995Y-32690142D01*
X145220997Y-32690142D01*
X145376389Y-32644996D01*
X145376389Y-32644995D01*
X145376395Y-32644994D01*
X145385233Y-32639767D01*
X145448352Y-32622500D01*
X145754504Y-32622500D01*
X145712031Y-32476303D01*
X145700090Y-32456113D01*
X145682906Y-32388389D01*
X145700089Y-32329869D01*
X145712494Y-32308895D01*
X145757643Y-32153493D01*
X145760500Y-32117190D01*
X145760500Y-32000411D01*
X145780185Y-31933372D01*
X145832989Y-31887617D01*
X145902147Y-31877673D01*
X145931953Y-31885850D01*
X146015658Y-31920521D01*
X146125622Y-31934999D01*
X146125637Y-31935000D01*
X146387500Y-31935000D01*
X146387500Y-31584500D01*
X146407185Y-31517461D01*
X146459989Y-31471706D01*
X146511500Y-31460500D01*
X146513500Y-31460500D01*
X146580539Y-31480185D01*
X146626294Y-31532989D01*
X146637500Y-31584500D01*
X146637500Y-31935000D01*
X146697822Y-31935000D01*
X146764861Y-31954685D01*
X146810616Y-32007489D01*
X146820560Y-32076647D01*
X146819439Y-32083191D01*
X146799501Y-32183426D01*
X146799501Y-32311573D01*
X146822117Y-32425270D01*
X146824500Y-32449460D01*
X146824500Y-32634401D01*
X146838990Y-32744470D01*
X146838991Y-32744472D01*
X146840059Y-32747051D01*
X146849500Y-32794507D01*
X146849500Y-33947068D01*
X146829815Y-34014107D01*
X146777011Y-34059862D01*
X146725500Y-34071068D01*
X140507537Y-34071068D01*
X140460084Y-34061629D01*
X140319150Y-34003252D01*
X140319142Y-34003250D01*
X140154839Y-33970568D01*
X140154835Y-33970568D01*
X139987301Y-33970568D01*
X139987296Y-33970568D01*
X139822993Y-34003250D01*
X139822985Y-34003252D01*
X139682052Y-34061629D01*
X139634599Y-34071068D01*
X139213068Y-34071068D01*
X139146029Y-34051383D01*
X139100274Y-33998579D01*
X139089068Y-33947068D01*
X139089067Y-33581066D01*
X139089066Y-33581048D01*
X139078567Y-33478271D01*
X139078566Y-33478268D01*
X139060429Y-33423535D01*
X139023382Y-33311734D01*
X138931280Y-33162412D01*
X138891368Y-33122500D01*
X144145496Y-33122500D01*
X144187968Y-33268695D01*
X144270278Y-33407874D01*
X144270285Y-33407883D01*
X144384616Y-33522214D01*
X144384625Y-33522221D01*
X144523804Y-33604531D01*
X144679089Y-33649645D01*
X144700000Y-33651289D01*
X145200000Y-33651289D01*
X145220910Y-33649645D01*
X145376195Y-33604531D01*
X145515374Y-33522221D01*
X145515383Y-33522214D01*
X145629714Y-33407883D01*
X145629721Y-33407874D01*
X145712031Y-33268695D01*
X145754504Y-33122500D01*
X145200000Y-33122500D01*
X145200000Y-33651289D01*
X144700000Y-33651289D01*
X144700000Y-33122500D01*
X144145496Y-33122500D01*
X138891368Y-33122500D01*
X138807224Y-33038356D01*
X138675791Y-32957288D01*
X138657904Y-32946255D01*
X138657899Y-32946253D01*
X138654604Y-32945161D01*
X138491365Y-32891069D01*
X138491363Y-32891068D01*
X138388578Y-32880568D01*
X137763566Y-32880568D01*
X137763548Y-32880569D01*
X137660771Y-32891068D01*
X137660768Y-32891069D01*
X137494236Y-32946253D01*
X137494231Y-32946255D01*
X137344910Y-33038357D01*
X137251249Y-33132019D01*
X137189926Y-33165504D01*
X137120234Y-33160520D01*
X137075887Y-33132019D01*
X136982225Y-33038357D01*
X136982224Y-33038356D01*
X136850791Y-32957288D01*
X136832904Y-32946255D01*
X136832899Y-32946253D01*
X136829604Y-32945161D01*
X136666365Y-32891069D01*
X136666363Y-32891068D01*
X136563584Y-32880568D01*
X136445068Y-32880568D01*
X136378029Y-32860883D01*
X136332274Y-32808079D01*
X136321068Y-32756568D01*
X136321068Y-26980000D01*
X144687156Y-26980000D01*
X145250000Y-26980000D01*
X145250000Y-26460068D01*
X145249999Y-26460068D01*
X145214869Y-26462834D01*
X145214868Y-26462834D01*
X145060811Y-26507592D01*
X145060808Y-26507593D01*
X144922714Y-26589261D01*
X144922705Y-26589268D01*
X144809268Y-26702705D01*
X144809261Y-26702714D01*
X144727595Y-26840805D01*
X144687156Y-26980000D01*
X136321068Y-26980000D01*
X136321068Y-24020344D01*
X144550000Y-24020344D01*
X144556401Y-24079872D01*
X144556403Y-24079879D01*
X144606645Y-24214586D01*
X144606649Y-24214593D01*
X144692809Y-24329687D01*
X144692812Y-24329690D01*
X144807906Y-24415850D01*
X144807913Y-24415854D01*
X144942620Y-24466096D01*
X144942627Y-24466098D01*
X145002155Y-24472499D01*
X145002172Y-24472500D01*
X145550000Y-24472500D01*
X145550000Y-22472500D01*
X144550000Y-22472500D01*
X144550000Y-24020344D01*
X136321068Y-24020344D01*
X136321068Y-20324500D01*
X136340753Y-20257461D01*
X136393557Y-20211706D01*
X136445068Y-20200500D01*
X144439209Y-20200500D01*
X144506248Y-20220185D01*
G37*
%TD.AperFunction*%
%TA.AperFunction,Conductor*%
G36*
X161014107Y-20220185D02*
G01*
X161059862Y-20272989D01*
X161071068Y-20324500D01*
X161071068Y-32681137D01*
X161051383Y-32748176D01*
X160998579Y-32793931D01*
X160959670Y-32804495D01*
X160905770Y-32810001D01*
X160905768Y-32810001D01*
X160739236Y-32865185D01*
X160739231Y-32865187D01*
X160589910Y-32957289D01*
X160496249Y-33050951D01*
X160434926Y-33084436D01*
X160365234Y-33079452D01*
X160320887Y-33050951D01*
X160227225Y-32957289D01*
X160227224Y-32957288D01*
X160102842Y-32880569D01*
X160077904Y-32865187D01*
X160077899Y-32865185D01*
X160057508Y-32858428D01*
X159911365Y-32810001D01*
X159911363Y-32810000D01*
X159808578Y-32799500D01*
X159183566Y-32799500D01*
X159183548Y-32799501D01*
X159080771Y-32810000D01*
X159080768Y-32810001D01*
X158914236Y-32865185D01*
X158914231Y-32865187D01*
X158764910Y-32957289D01*
X158640857Y-33081342D01*
X158546368Y-33234534D01*
X158494420Y-33281258D01*
X158425457Y-33292481D01*
X158393377Y-33283998D01*
X158319150Y-33253252D01*
X158319142Y-33253250D01*
X158154839Y-33220568D01*
X158154835Y-33220568D01*
X157987301Y-33220568D01*
X157987296Y-33220568D01*
X157877499Y-33242408D01*
X157807907Y-33236181D01*
X157752730Y-33193317D01*
X157729486Y-33127428D01*
X157729537Y-33123308D01*
X157728790Y-33122500D01*
X157200000Y-33122500D01*
X157200000Y-33677004D01*
X157210040Y-33684543D01*
X157251832Y-33740536D01*
X157256716Y-33810235D01*
X157254250Y-33819696D01*
X157253250Y-33822991D01*
X157223758Y-33971259D01*
X157191373Y-34033170D01*
X157130657Y-34067744D01*
X157102141Y-34071068D01*
X152774500Y-34071068D01*
X152707461Y-34051383D01*
X152661706Y-33998579D01*
X152650500Y-33947068D01*
X152650500Y-32858428D01*
X152625502Y-32732761D01*
X152625501Y-32732760D01*
X152625501Y-32732756D01*
X152576465Y-32614373D01*
X152541883Y-32562617D01*
X152505276Y-32507830D01*
X152411257Y-32413811D01*
X152408411Y-32410536D01*
X152395586Y-32382559D01*
X152380842Y-32355557D01*
X152381161Y-32351091D01*
X152379296Y-32347022D01*
X152383630Y-32316562D01*
X152385826Y-32285865D01*
X152388509Y-32282280D01*
X152389140Y-32277849D01*
X152409257Y-32254564D01*
X152427698Y-32229932D01*
X152433117Y-32226097D01*
X152448447Y-32215854D01*
X152540896Y-32154081D01*
X152659360Y-32035617D01*
X152752437Y-31896318D01*
X152783907Y-31820344D01*
X153100000Y-31820344D01*
X153106401Y-31879872D01*
X153106403Y-31879879D01*
X153156645Y-32014586D01*
X153156649Y-32014593D01*
X153242809Y-32129687D01*
X153242812Y-32129690D01*
X153357906Y-32215850D01*
X153357913Y-32215854D01*
X153492620Y-32266096D01*
X153492627Y-32266098D01*
X153552155Y-32272499D01*
X153552172Y-32272500D01*
X153950000Y-32272500D01*
X153950000Y-31322500D01*
X153100000Y-31322500D01*
X153100000Y-31820344D01*
X152783907Y-31820344D01*
X152816550Y-31741537D01*
X152849234Y-31577222D01*
X152849234Y-31409688D01*
X152831991Y-31322999D01*
X152826488Y-31295334D01*
X152826487Y-31295332D01*
X152816550Y-31245373D01*
X152752437Y-31090592D01*
X152697639Y-31008581D01*
X152659360Y-30951292D01*
X152592749Y-30884681D01*
X152559264Y-30823358D01*
X152564248Y-30753666D01*
X152606120Y-30697733D01*
X152671584Y-30673316D01*
X152680430Y-30673000D01*
X152976000Y-30673000D01*
X153043039Y-30692685D01*
X153088794Y-30745489D01*
X153100000Y-30797000D01*
X153100000Y-30822500D01*
X154076000Y-30822500D01*
X154143039Y-30842185D01*
X154188794Y-30894989D01*
X154200000Y-30946500D01*
X154200000Y-31072500D01*
X154326000Y-31072500D01*
X154393039Y-31092185D01*
X154438794Y-31144989D01*
X154450000Y-31196500D01*
X154450000Y-32272500D01*
X154847828Y-32272500D01*
X154847844Y-32272499D01*
X154907372Y-32266098D01*
X154955947Y-32247980D01*
X155025638Y-32242994D01*
X155042615Y-32247979D01*
X155068832Y-32257757D01*
X155124766Y-32299627D01*
X155149184Y-32365091D01*
X155149500Y-32373939D01*
X155149500Y-32746570D01*
X155160903Y-32803896D01*
X155160904Y-32803901D01*
X155162118Y-32810001D01*
X155174499Y-32872244D01*
X155202342Y-32939462D01*
X155204084Y-32945161D01*
X155204189Y-32954710D01*
X155209500Y-32981408D01*
X155209500Y-33107197D01*
X155212356Y-33143491D01*
X155212357Y-33143497D01*
X155257504Y-33298890D01*
X155257505Y-33298893D01*
X155339881Y-33438184D01*
X155339887Y-33438192D01*
X155454307Y-33552612D01*
X155454311Y-33552615D01*
X155454313Y-33552617D01*
X155593605Y-33634994D01*
X155634587Y-33646900D01*
X155749002Y-33680142D01*
X155749005Y-33680142D01*
X155749007Y-33680143D01*
X155785310Y-33683000D01*
X155785318Y-33683000D01*
X156194682Y-33683000D01*
X156194690Y-33683000D01*
X156230993Y-33680143D01*
X156230995Y-33680142D01*
X156230997Y-33680142D01*
X156278300Y-33666399D01*
X156386395Y-33634994D01*
X156407369Y-33622589D01*
X156475088Y-33605406D01*
X156533613Y-33622590D01*
X156553803Y-33634531D01*
X156700000Y-33677004D01*
X156700000Y-33370852D01*
X156717267Y-33307733D01*
X156722494Y-33298895D01*
X156724358Y-33292481D01*
X156767642Y-33143497D01*
X156767643Y-33143491D01*
X156768907Y-33127428D01*
X156770500Y-33107190D01*
X156770500Y-32637810D01*
X156767643Y-32601507D01*
X156756344Y-32562617D01*
X156722495Y-32446108D01*
X156722492Y-32446100D01*
X156717266Y-32437263D01*
X156700000Y-32374145D01*
X156700000Y-32235194D01*
X156719685Y-32168155D01*
X156749690Y-32135926D01*
X156757546Y-32130046D01*
X156803998Y-32067994D01*
X157200000Y-32067994D01*
X157200000Y-32622500D01*
X157728790Y-32622500D01*
X157727145Y-32601589D01*
X157682031Y-32446304D01*
X157599721Y-32307125D01*
X157599714Y-32307116D01*
X157485383Y-32192785D01*
X157485374Y-32192778D01*
X157346193Y-32110467D01*
X157346190Y-32110465D01*
X157200001Y-32067993D01*
X157200000Y-32067994D01*
X156803998Y-32067994D01*
X156843796Y-32014831D01*
X156894091Y-31879983D01*
X156900500Y-31820373D01*
X156900499Y-30324628D01*
X156894091Y-30265017D01*
X156846988Y-30138728D01*
X156843797Y-30130171D01*
X156843795Y-30130168D01*
X156781081Y-30046393D01*
X156756664Y-29980931D01*
X156771515Y-29912658D01*
X156781082Y-29897771D01*
X156843352Y-29814589D01*
X156843354Y-29814586D01*
X156893596Y-29679879D01*
X156893598Y-29679872D01*
X156899999Y-29620344D01*
X156900000Y-29620327D01*
X156900000Y-29122500D01*
X155924000Y-29122500D01*
X155856961Y-29102815D01*
X155811206Y-29050011D01*
X155800000Y-28998500D01*
X155800000Y-28746500D01*
X155819685Y-28679461D01*
X155872489Y-28633706D01*
X155924000Y-28622500D01*
X156900000Y-28622500D01*
X156900000Y-28124672D01*
X156899999Y-28124655D01*
X156893598Y-28065127D01*
X156893596Y-28065120D01*
X156843354Y-27930413D01*
X156843350Y-27930406D01*
X156757190Y-27815312D01*
X156757187Y-27815309D01*
X156642093Y-27729149D01*
X156642086Y-27729145D01*
X156507379Y-27678903D01*
X156507372Y-27678901D01*
X156447844Y-27672500D01*
X156061216Y-27672500D01*
X155994177Y-27652815D01*
X155948422Y-27600011D01*
X155938478Y-27530853D01*
X155942139Y-27513905D01*
X155977145Y-27393410D01*
X155978790Y-27372500D01*
X155324000Y-27372500D01*
X155256961Y-27352815D01*
X155211206Y-27300011D01*
X155200000Y-27248500D01*
X155200000Y-27122500D01*
X155144500Y-27122500D01*
X155077461Y-27102815D01*
X155031706Y-27050011D01*
X155020500Y-26998500D01*
X155020500Y-26887817D01*
X155020499Y-26887802D01*
X155017643Y-26851508D01*
X155017642Y-26851502D01*
X154972495Y-26696108D01*
X154972492Y-26696100D01*
X154967266Y-26687263D01*
X154950000Y-26624145D01*
X154950000Y-26317994D01*
X155450000Y-26317994D01*
X155450000Y-26872500D01*
X155978790Y-26872500D01*
X155977145Y-26851589D01*
X155932031Y-26696304D01*
X155849721Y-26557125D01*
X155849714Y-26557116D01*
X155735383Y-26442785D01*
X155735374Y-26442778D01*
X155596193Y-26360467D01*
X155596190Y-26360465D01*
X155450001Y-26317993D01*
X155450000Y-26317994D01*
X154950000Y-26317994D01*
X154949998Y-26317993D01*
X154803809Y-26360465D01*
X154803806Y-26360467D01*
X154783608Y-26372412D01*
X154715884Y-26389592D01*
X154657370Y-26372410D01*
X154636397Y-26360007D01*
X154636390Y-26360004D01*
X154480997Y-26314857D01*
X154480991Y-26314856D01*
X154444697Y-26312000D01*
X154444690Y-26312000D01*
X154035310Y-26312000D01*
X154035302Y-26312000D01*
X153999008Y-26314856D01*
X153999002Y-26314857D01*
X153843609Y-26360004D01*
X153843606Y-26360005D01*
X153704315Y-26442381D01*
X153704307Y-26442387D01*
X153589887Y-26556807D01*
X153589881Y-26556815D01*
X153507505Y-26696106D01*
X153507504Y-26696109D01*
X153462357Y-26851502D01*
X153462356Y-26851508D01*
X153459500Y-26887802D01*
X153459500Y-27357197D01*
X153462356Y-27393491D01*
X153462357Y-27393497D01*
X153507871Y-27550155D01*
X153507672Y-27620025D01*
X153469730Y-27678695D01*
X153432128Y-27700932D01*
X153357671Y-27728702D01*
X153357664Y-27728706D01*
X153242455Y-27814952D01*
X153242452Y-27814955D01*
X153156206Y-27930164D01*
X153156201Y-27930173D01*
X153143648Y-27963832D01*
X153101777Y-28019766D01*
X153036313Y-28044184D01*
X153027466Y-28044500D01*
X152845685Y-28044500D01*
X152782564Y-28027232D01*
X152761537Y-28014797D01*
X152689393Y-27972131D01*
X152689388Y-27972129D01*
X152535208Y-27927335D01*
X152535202Y-27927334D01*
X152499181Y-27924500D01*
X152000830Y-27924500D01*
X152000808Y-27924501D01*
X151964794Y-27927335D01*
X151810611Y-27972129D01*
X151810606Y-27972131D01*
X151672404Y-28053863D01*
X151672396Y-28053869D01*
X151558869Y-28167396D01*
X151558863Y-28167404D01*
X151477131Y-28305606D01*
X151477129Y-28305611D01*
X151432335Y-28459791D01*
X151432334Y-28459797D01*
X151429500Y-28495811D01*
X151429500Y-28535500D01*
X151409815Y-28602539D01*
X151357011Y-28648294D01*
X151305500Y-28659500D01*
X150431199Y-28659500D01*
X150364160Y-28639815D01*
X150318405Y-28587011D01*
X150308461Y-28517853D01*
X150337486Y-28454297D01*
X150343518Y-28447819D01*
X151026634Y-27764703D01*
X151026634Y-27764702D01*
X151026637Y-27764700D01*
X151100836Y-27653654D01*
X151151945Y-27530265D01*
X151152569Y-27527131D01*
X151177999Y-27399281D01*
X151178000Y-27399278D01*
X151178000Y-26862990D01*
X151197685Y-26795951D01*
X151210000Y-26782704D01*
X151210000Y-26777003D01*
X151710000Y-26777003D01*
X151856195Y-26734531D01*
X151995374Y-26652221D01*
X151995383Y-26652214D01*
X152109714Y-26537883D01*
X152109721Y-26537874D01*
X152192031Y-26398695D01*
X152192033Y-26398690D01*
X152237144Y-26243418D01*
X152237145Y-26243412D01*
X152238790Y-26222500D01*
X151710000Y-26222500D01*
X151710000Y-26777003D01*
X151210000Y-26777003D01*
X151210000Y-26470852D01*
X151227267Y-26407733D01*
X151232494Y-26398895D01*
X151243793Y-26360006D01*
X151277642Y-26243497D01*
X151277643Y-26243491D01*
X151277649Y-26243412D01*
X151280500Y-26207190D01*
X151280500Y-25737810D01*
X151277643Y-25701507D01*
X151261335Y-25645376D01*
X151232495Y-25546108D01*
X151232492Y-25546100D01*
X151227266Y-25537263D01*
X151210000Y-25474145D01*
X151210000Y-25167994D01*
X151710000Y-25167994D01*
X151710000Y-25722500D01*
X152238790Y-25722500D01*
X152237145Y-25701589D01*
X152192031Y-25546304D01*
X152109721Y-25407125D01*
X152109714Y-25407116D01*
X151995383Y-25292785D01*
X151995374Y-25292778D01*
X151856193Y-25210467D01*
X151856190Y-25210465D01*
X151710001Y-25167993D01*
X151710000Y-25167994D01*
X151210000Y-25167994D01*
X151209998Y-25167993D01*
X151063809Y-25210465D01*
X151063806Y-25210467D01*
X151043608Y-25222412D01*
X150975884Y-25239592D01*
X150917370Y-25222410D01*
X150896397Y-25210007D01*
X150896390Y-25210004D01*
X150740997Y-25164857D01*
X150740991Y-25164856D01*
X150704697Y-25162000D01*
X150704690Y-25162000D01*
X150295310Y-25162000D01*
X150295302Y-25162000D01*
X150259008Y-25164856D01*
X150259002Y-25164857D01*
X150127802Y-25202975D01*
X150057932Y-25202776D01*
X149999262Y-25164834D01*
X149977025Y-25127231D01*
X149968798Y-25105173D01*
X149968793Y-25105164D01*
X149882547Y-24989955D01*
X149882544Y-24989952D01*
X149767335Y-24903706D01*
X149767328Y-24903702D01*
X149632482Y-24853408D01*
X149632483Y-24853408D01*
X149572883Y-24847001D01*
X149572881Y-24847000D01*
X149572873Y-24847000D01*
X149572865Y-24847000D01*
X149202000Y-24847000D01*
X149134961Y-24827315D01*
X149089206Y-24774511D01*
X149078000Y-24723000D01*
X149078000Y-24596999D01*
X149097685Y-24529960D01*
X149150489Y-24484205D01*
X149202000Y-24472999D01*
X149297871Y-24472999D01*
X149297872Y-24472999D01*
X149357483Y-24466591D01*
X149492331Y-24416296D01*
X149607546Y-24330046D01*
X149693796Y-24214831D01*
X149693888Y-24214586D01*
X149734084Y-24106813D01*
X149775954Y-24050879D01*
X149841419Y-24026461D01*
X149909692Y-24041312D01*
X149959098Y-24090717D01*
X149966448Y-24106812D01*
X150006645Y-24214586D01*
X150006649Y-24214593D01*
X150092809Y-24329687D01*
X150092812Y-24329690D01*
X150207906Y-24415850D01*
X150207913Y-24415854D01*
X150342620Y-24466096D01*
X150342627Y-24466098D01*
X150402155Y-24472499D01*
X150402172Y-24472500D01*
X150950000Y-24472500D01*
X151450000Y-24472500D01*
X151997828Y-24472500D01*
X151997844Y-24472499D01*
X152057372Y-24466098D01*
X152057379Y-24466096D01*
X152192086Y-24415854D01*
X152192093Y-24415850D01*
X152307187Y-24329690D01*
X152307190Y-24329687D01*
X152393350Y-24214593D01*
X152393354Y-24214586D01*
X152443596Y-24079879D01*
X152443598Y-24079872D01*
X152449999Y-24020344D01*
X152450000Y-24020327D01*
X152450000Y-22472500D01*
X151450000Y-22472500D01*
X151450000Y-24472500D01*
X150950000Y-24472500D01*
X150950000Y-22346500D01*
X150969685Y-22279461D01*
X151022489Y-22233706D01*
X151074000Y-22222500D01*
X151200000Y-22222500D01*
X151200000Y-22096500D01*
X151219685Y-22029461D01*
X151272489Y-21983706D01*
X151324000Y-21972500D01*
X152450000Y-21972500D01*
X152450000Y-20424672D01*
X152449999Y-20424655D01*
X152443598Y-20365127D01*
X152441813Y-20357570D01*
X152443839Y-20357091D01*
X152439627Y-20298132D01*
X152473117Y-20236812D01*
X152534443Y-20203332D01*
X152560791Y-20200500D01*
X160947068Y-20200500D01*
X161014107Y-20220185D01*
G37*
%TD.AperFunction*%
%TD*%
M02*
