%TF.GenerationSoftware,KiCad,Pcbnew,10.0.0*%
%TF.CreationDate,2026-06-04T16:57:15-05:00*%
%TF.ProjectId,mcu_pcb,6d63755f-7063-4622-9e6b-696361645f70,rev?*%
%TF.SameCoordinates,Original*%
%TF.FileFunction,Paste,Top*%
%TF.FilePolarity,Positive*%
%FSLAX46Y46*%
G04 Gerber Fmt 4.6, Leading zero omitted, Abs format (unit mm)*
G04 Created by KiCad (PCBNEW 10.0.0) date 2026-06-04 16:57:15*
%MOMM*%
%LPD*%
G01*
G04 APERTURE LIST*
G04 Aperture macros list*
%AMRoundRect*
0 Rectangle with rounded corners*
0 $1 Rounding radius*
0 $2 $3 $4 $5 $6 $7 $8 $9 X,Y pos of 4 corners*
0 Add a 4 corners polygon primitive as box body*
4,1,4,$2,$3,$4,$5,$6,$7,$8,$9,$2,$3,0*
0 Add four circle primitives for the rounded corners*
1,1,$1+$1,$2,$3*
1,1,$1+$1,$4,$5*
1,1,$1+$1,$6,$7*
1,1,$1+$1,$8,$9*
0 Add four rect primitives between the rounded corners*
20,1,$1+$1,$2,$3,$4,$5,0*
20,1,$1+$1,$4,$5,$6,$7,0*
20,1,$1+$1,$6,$7,$8,$9,0*
20,1,$1+$1,$8,$9,$2,$3,0*%
G04 Aperture macros list end*
%ADD10RoundRect,0.250000X-0.475000X0.250000X-0.475000X-0.250000X0.475000X-0.250000X0.475000X0.250000X0*%
%ADD11RoundRect,0.250000X-0.262500X-0.450000X0.262500X-0.450000X0.262500X0.450000X-0.262500X0.450000X0*%
%ADD12RoundRect,0.135000X0.185000X-0.135000X0.185000X0.135000X-0.185000X0.135000X-0.185000X-0.135000X0*%
%ADD13RoundRect,0.150000X0.625000X-0.150000X0.625000X0.150000X-0.625000X0.150000X-0.625000X-0.150000X0*%
%ADD14RoundRect,0.250000X0.650000X-0.350000X0.650000X0.350000X-0.650000X0.350000X-0.650000X-0.350000X0*%
%ADD15RoundRect,0.243750X0.243750X0.456250X-0.243750X0.456250X-0.243750X-0.456250X0.243750X-0.456250X0*%
%ADD16RoundRect,0.250000X0.475000X-0.250000X0.475000X0.250000X-0.475000X0.250000X-0.475000X-0.250000X0*%
%ADD17R,0.550000X0.250000*%
%ADD18RoundRect,0.140000X-0.140000X-0.170000X0.140000X-0.170000X0.140000X0.170000X-0.140000X0.170000X0*%
%ADD19RoundRect,0.100000X-0.100000X0.125000X-0.100000X-0.125000X0.100000X-0.125000X0.100000X0.125000X0*%
%ADD20RoundRect,0.075000X-0.700000X-0.075000X0.700000X-0.075000X0.700000X0.075000X-0.700000X0.075000X0*%
%ADD21RoundRect,0.075000X-0.075000X-0.700000X0.075000X-0.700000X0.075000X0.700000X-0.075000X0.700000X0*%
%ADD22RoundRect,0.150000X-0.625000X0.150000X-0.625000X-0.150000X0.625000X-0.150000X0.625000X0.150000X0*%
%ADD23RoundRect,0.250000X-0.650000X0.350000X-0.650000X-0.350000X0.650000X-0.350000X0.650000X0.350000X0*%
%ADD24RoundRect,0.140000X-0.170000X0.140000X-0.170000X-0.140000X0.170000X-0.140000X0.170000X0.140000X0*%
%ADD25R,1.200000X1.400000*%
%ADD26RoundRect,0.150000X0.512500X0.150000X-0.512500X0.150000X-0.512500X-0.150000X0.512500X-0.150000X0*%
%ADD27RoundRect,0.250000X0.250000X0.475000X-0.250000X0.475000X-0.250000X-0.475000X0.250000X-0.475000X0*%
%ADD28RoundRect,0.250000X0.255000X-0.255000X0.255000X0.255000X-0.255000X0.255000X-0.255000X-0.255000X0*%
%ADD29RoundRect,0.062500X0.062500X-0.350000X0.062500X0.350000X-0.062500X0.350000X-0.062500X-0.350000X0*%
%ADD30RoundRect,0.062500X0.350000X-0.062500X0.350000X0.062500X-0.350000X0.062500X-0.350000X-0.062500X0*%
%ADD31RoundRect,0.140000X0.170000X-0.140000X0.170000X0.140000X-0.170000X0.140000X-0.170000X-0.140000X0*%
%ADD32RoundRect,0.250000X-0.250000X-0.475000X0.250000X-0.475000X0.250000X0.475000X-0.250000X0.475000X0*%
%ADD33R,1.500000X3.500000*%
%ADD34RoundRect,0.250000X0.262500X0.450000X-0.262500X0.450000X-0.262500X-0.450000X0.262500X-0.450000X0*%
%ADD35R,0.800000X1.000000*%
%ADD36R,1.500000X0.700000*%
%ADD37RoundRect,0.135000X-0.185000X0.135000X-0.185000X-0.135000X0.185000X-0.135000X0.185000X0.135000X0*%
%ADD38RoundRect,0.150000X-0.150000X-0.625000X0.150000X-0.625000X0.150000X0.625000X-0.150000X0.625000X0*%
%ADD39RoundRect,0.250000X-0.350000X-0.650000X0.350000X-0.650000X0.350000X0.650000X-0.350000X0.650000X0*%
%ADD40RoundRect,0.243750X-0.243750X-0.456250X0.243750X-0.456250X0.243750X0.456250X-0.243750X0.456250X0*%
%ADD41R,1.000000X0.800000*%
%ADD42R,0.700000X1.500000*%
%ADD43R,2.400000X1.900000*%
%ADD44R,1.600000X1.400000*%
%ADD45R,2.300000X0.500000*%
%ADD46R,2.500000X2.000000*%
G04 APERTURE END LIST*
D10*
%TO.C,C5*%
X158321068Y-38121068D03*
X158321068Y-40021068D03*
%TD*%
D11*
%TO.C,R4*%
X159496068Y-36071068D03*
X161321068Y-36071068D03*
%TD*%
D12*
%TO.C,R12*%
X145500000Y-28250000D03*
X145500000Y-27230000D03*
%TD*%
D13*
%TO.C,J4*%
X168500000Y-34750000D03*
X168500000Y-33750000D03*
D14*
X172375000Y-36050000D03*
X172375000Y-32450000D03*
%TD*%
D15*
%TO.C,D3*%
X171500000Y-28750000D03*
X169625000Y-28750000D03*
%TD*%
D16*
%TO.C,C21*%
X166750000Y-54521068D03*
X166750000Y-52621068D03*
%TD*%
D15*
%TO.C,D2*%
X168437500Y-24250000D03*
X166562500Y-24250000D03*
%TD*%
D16*
%TO.C,C7*%
X139071068Y-48021068D03*
X139071068Y-46121068D03*
%TD*%
D17*
%TO.C,FL1*%
X148400000Y-25472500D03*
X148400000Y-25972500D03*
X148400000Y-26472500D03*
X149250000Y-26472500D03*
X149250000Y-25972500D03*
X149250000Y-25472500D03*
%TD*%
D11*
%TO.C,R3*%
X159496068Y-34000000D03*
X161321068Y-34000000D03*
%TD*%
D15*
%TO.C,D1*%
X130375000Y-24250000D03*
X128500000Y-24250000D03*
%TD*%
D18*
%TO.C,C30*%
X155990000Y-32872500D03*
X156950000Y-32872500D03*
%TD*%
D19*
%TO.C,U8*%
X162221068Y-44996068D03*
X161421068Y-44996068D03*
X161821068Y-46146068D03*
%TD*%
D20*
%TO.C,U1*%
X143075000Y-39500000D03*
X143075000Y-40000000D03*
X143075000Y-40500000D03*
X143075000Y-41000000D03*
X143075000Y-41500000D03*
X143075000Y-42000000D03*
X143075000Y-42500000D03*
X143075000Y-43000000D03*
X143075000Y-43500000D03*
X143075000Y-44000000D03*
X143075000Y-44500000D03*
X143075000Y-45000000D03*
X143075000Y-45500000D03*
X143075000Y-46000000D03*
X143075000Y-46500000D03*
X143075000Y-47000000D03*
D21*
X145000000Y-48925000D03*
X145500000Y-48925000D03*
X146000000Y-48925000D03*
X146500000Y-48925000D03*
X147000000Y-48925000D03*
X147500000Y-48925000D03*
X148000000Y-48925000D03*
X148500000Y-48925000D03*
X149000000Y-48925000D03*
X149500000Y-48925000D03*
X150000000Y-48925000D03*
X150500000Y-48925000D03*
X151000000Y-48925000D03*
X151500000Y-48925000D03*
X152000000Y-48925000D03*
X152500000Y-48925000D03*
D20*
X154425000Y-47000000D03*
X154425000Y-46500000D03*
X154425000Y-46000000D03*
X154425000Y-45500000D03*
X154425000Y-45000000D03*
X154425000Y-44500000D03*
X154425000Y-44000000D03*
X154425000Y-43500000D03*
X154425000Y-43000000D03*
X154425000Y-42500000D03*
X154425000Y-42000000D03*
X154425000Y-41500000D03*
X154425000Y-41000000D03*
X154425000Y-40500000D03*
X154425000Y-40000000D03*
X154425000Y-39500000D03*
D21*
X152500000Y-37575000D03*
X152000000Y-37575000D03*
X151500000Y-37575000D03*
X151000000Y-37575000D03*
X150500000Y-37575000D03*
X150000000Y-37575000D03*
X149500000Y-37575000D03*
X149000000Y-37575000D03*
X148500000Y-37575000D03*
X148000000Y-37575000D03*
X147500000Y-37575000D03*
X147000000Y-37575000D03*
X146500000Y-37575000D03*
X146000000Y-37575000D03*
X145500000Y-37575000D03*
X145000000Y-37575000D03*
%TD*%
D16*
%TO.C,C8*%
X136571068Y-48021068D03*
X136571068Y-46121068D03*
%TD*%
D10*
%TO.C,C4*%
X155821068Y-48621068D03*
X155821068Y-50521068D03*
%TD*%
D22*
%TO.C,J12*%
X128500000Y-34425000D03*
X128500000Y-35425000D03*
X128500000Y-36425000D03*
D23*
X124625000Y-33125000D03*
X124625000Y-37725000D03*
%TD*%
D24*
%TO.C,C29*%
X144950000Y-31912500D03*
X144950000Y-32872500D03*
%TD*%
D25*
%TO.C,Y2*%
X155800000Y-31072500D03*
X155800000Y-28872500D03*
X154200000Y-28872500D03*
X154200000Y-31072500D03*
%TD*%
D26*
%TO.C,U6*%
X164500000Y-53271068D03*
X164500000Y-52321068D03*
X164500000Y-51371068D03*
X162225000Y-51371068D03*
X162225000Y-53271068D03*
%TD*%
D27*
%TO.C,C10*%
X134825000Y-39750000D03*
X132925000Y-39750000D03*
%TD*%
D28*
%TO.C,U9*%
X147825000Y-30935000D03*
X149075000Y-30935000D03*
X147825000Y-29685000D03*
X149075000Y-29685000D03*
D29*
X147450000Y-32247500D03*
X147950000Y-32247500D03*
X148450000Y-32247500D03*
X148950000Y-32247500D03*
X149450000Y-32247500D03*
D30*
X150387500Y-31310000D03*
X150387500Y-30810000D03*
X150387500Y-30310000D03*
X150387500Y-29810000D03*
X150387500Y-29310000D03*
D29*
X149450000Y-28372500D03*
X148950000Y-28372500D03*
X148450000Y-28372500D03*
X147950000Y-28372500D03*
X147450000Y-28372500D03*
D30*
X146512500Y-29310000D03*
X146512500Y-29810000D03*
X146512500Y-30310000D03*
X146512500Y-30810000D03*
X146512500Y-31310000D03*
%TD*%
D31*
%TO.C,C27*%
X143700000Y-30602500D03*
X143700000Y-29642500D03*
%TD*%
D32*
%TO.C,C12*%
X150871068Y-51321068D03*
X152771068Y-51321068D03*
%TD*%
D33*
%TO.C,J15*%
X148500000Y-22222500D03*
X151200000Y-22222500D03*
X145800000Y-22222500D03*
%TD*%
D18*
%TO.C,C28*%
X150500000Y-25972500D03*
X151460000Y-25972500D03*
%TD*%
D34*
%TO.C,FB1*%
X142275000Y-30122500D03*
X140450000Y-30122500D03*
%TD*%
D35*
%TO.C,SW3*%
X170495000Y-57900000D03*
X172705000Y-57900000D03*
X170495000Y-50600000D03*
X172705000Y-50600000D03*
D36*
X169845000Y-56500000D03*
X169845000Y-53500000D03*
X169845000Y-52000000D03*
%TD*%
D18*
%TO.C,C31*%
X154240000Y-27122500D03*
X155200000Y-27122500D03*
%TD*%
D37*
%TO.C,R13*%
X152250000Y-28695000D03*
X152250000Y-29715000D03*
%TD*%
D27*
%TO.C,C3*%
X146500000Y-51250000D03*
X144600000Y-51250000D03*
%TD*%
D38*
%TO.C,J10*%
X148050000Y-64875000D03*
X149050000Y-64875000D03*
X150050000Y-64875000D03*
X151050000Y-64875000D03*
D39*
X146750000Y-68750000D03*
X152350000Y-68750000D03*
%TD*%
D40*
%TO.C,D5*%
X125562500Y-28750000D03*
X127437500Y-28750000D03*
%TD*%
D16*
%TO.C,C1*%
X141321068Y-38021068D03*
X141321068Y-36121068D03*
%TD*%
D34*
%TO.C,R1*%
X160233568Y-63821068D03*
X158408568Y-63821068D03*
%TD*%
D32*
%TO.C,C2*%
X143921068Y-35321068D03*
X145821068Y-35321068D03*
%TD*%
D11*
%TO.C,R7*%
X136246068Y-36321068D03*
X138071068Y-36321068D03*
%TD*%
D22*
%TO.C,J6*%
X128500000Y-50500000D03*
X128500000Y-51500000D03*
X128500000Y-52500000D03*
X128500000Y-53500000D03*
X128500000Y-54500000D03*
X128500000Y-55500000D03*
D23*
X124625000Y-49200000D03*
X124625000Y-56800000D03*
%TD*%
D41*
%TO.C,SW2*%
X154700000Y-67000000D03*
X154700000Y-69210000D03*
X162000000Y-67000000D03*
X162000000Y-69210000D03*
D42*
X156100000Y-66350000D03*
X159100000Y-66350000D03*
X160600000Y-66350000D03*
%TD*%
D34*
%TO.C,R2*%
X138076068Y-34081068D03*
X136251068Y-34081068D03*
%TD*%
D31*
%TO.C,C26*%
X144950000Y-30602500D03*
X144950000Y-29642500D03*
%TD*%
D38*
%TO.C,J1*%
X136050000Y-64875000D03*
X137050000Y-64875000D03*
X138050000Y-64875000D03*
X139050000Y-64875000D03*
X140050000Y-64875000D03*
X141050000Y-64875000D03*
X142050000Y-64875000D03*
X143050000Y-64875000D03*
D39*
X134750000Y-68750000D03*
X144350000Y-68750000D03*
%TD*%
D43*
%TO.C,Y1*%
X137925000Y-39700000D03*
X137925000Y-43800000D03*
%TD*%
D32*
%TO.C,C22*%
X162121068Y-55321068D03*
X164021068Y-55321068D03*
%TD*%
D44*
%TO.C,SW1*%
X144850000Y-56750000D03*
X137650000Y-56750000D03*
X144850000Y-53750000D03*
X137650000Y-53750000D03*
%TD*%
D22*
%TO.C,J8*%
X128500000Y-41500000D03*
X128500000Y-42500000D03*
X128500000Y-43500000D03*
X128500000Y-44500000D03*
X128500000Y-45500000D03*
D23*
X124625000Y-40200000D03*
X124625000Y-46800000D03*
%TD*%
D45*
%TO.C,J14*%
X165400000Y-45050000D03*
X165400000Y-44250000D03*
X165400000Y-43450000D03*
X165400000Y-42650000D03*
X165400000Y-41850000D03*
D46*
X165500000Y-47900000D03*
X171000000Y-47900000D03*
X165500000Y-39000000D03*
X171000000Y-39000000D03*
%TD*%
D10*
%TO.C,C9*%
X135250000Y-53800000D03*
X135250000Y-55700000D03*
%TD*%
%TO.C,C6*%
X160571068Y-38121068D03*
X160571068Y-40021068D03*
%TD*%
D27*
%TO.C,C11*%
X134825000Y-43750000D03*
X132925000Y-43750000D03*
%TD*%
M02*
