M48
; DRILL file KiCad 10.0.0 date 2026-06-04T16:57:19
; FORMAT={-:-/ absolute / metric / decimal}
; #@! TF.CreationDate,2026-06-04T16:57:19-05:00
; #@! TF.GenerationSoftware,Kicad,Pcbnew,10.0.0
; #@! TF.FileFunction,Plated,1,4,PTH
FMAT,2
METRIC
; #@! TA.AperFunction,Plated,PTH,ViaDrill
T1C0.300
; #@! TA.AperFunction,Plated,PTH,ComponentDrill
T2C1.000
; #@! TA.AperFunction,Plated,PTH,ComponentDrill
T3C3.200
%
G90
G05
T1
X127.071Y-51.071
X127.072Y-43.072
X128.0Y-30.25
X129.821Y-44.571
X129.821Y-45.571
X129.821Y-50.571
X129.821Y-51.571
X129.821Y-52.571
X129.821Y-53.571
X129.821Y-54.571
X129.821Y-55.571
X130.071Y-34.571
X130.071Y-35.571
X130.5Y-25.75
X131.675Y-39.75
X131.675Y-43.75
X133.821Y-64.321
X135.071Y-46.5
X135.071Y-48.071
X135.821Y-57.071
X135.821Y-66.571
X137.571Y-21.071
X137.571Y-27.071
X137.571Y-49.821
X138.071Y-37.821
X139.25Y-30.223
X139.821Y-36.071
X139.821Y-37.821
X140.071Y-34.821
X140.571Y-24.071
X141.25Y-39.75
X141.321Y-43.321
X141.321Y-44.25
X141.321Y-45.1
X142.5Y-28.75
X142.571Y-52.571
X142.75Y-31.473
X143.071Y-48.321
X143.571Y-21.071
X143.571Y-58.571
X143.75Y-28.75
X144.0Y-32.945
X144.571Y-38.821
X145.221Y-47.571
X145.321Y-58.571
X145.456Y-38.856
X145.5Y-26.25
X145.571Y-67.321
X146.071Y-47.571
X146.75Y-27.445
X147.071Y-42.321
X147.071Y-47.571
X147.321Y-26.071
X147.671Y-63.571
X147.688Y-27.393
X148.069Y-38.85
X148.071Y-47.571
X148.321Y-51.071
X148.571Y-40.921
X148.689Y-39.5
X148.743Y-34.412
X148.821Y-54.321
X149.071Y-45.571
X149.071Y-50.571
X149.571Y-40.15
X149.627Y-54.59
X149.821Y-35.571
X150.131Y-46.842
X150.231Y-41.661
X150.821Y-67.071
X151.071Y-47.071
X151.221Y-60.03
X151.35Y-34.428
X151.999Y-31.493
X152.05Y-30.645
X152.071Y-47.571
X152.5Y-25.973
X152.571Y-40.15
X152.861Y-48.031
X153.571Y-21.071
X154.25Y-32.445
X154.571Y-65.571
X155.321Y-51.821
X155.821Y-38.571
X155.921Y-46.571
X156.071Y-39.5
X156.071Y-40.35
X156.071Y-42.15
X156.071Y-43.071
X156.071Y-45.571
X156.111Y-44.031
X156.25Y-27.195
X156.571Y-24.071
X156.571Y-47.321
X156.821Y-38.071
X157.25Y-28.695
X157.321Y-57.571
X158.0Y-32.945
X158.071Y-34.071
X158.071Y-36.071
X159.321Y-45.821
X159.571Y-21.071
X159.571Y-27.071
X160.321Y-53.571
X160.321Y-54.821
X160.321Y-56.071
X161.821Y-47.071
X161.821Y-65.571
X162.071Y-39.071
X162.071Y-41.571
X163.071Y-42.821
X163.071Y-44.821
X163.571Y-39.071
X163.571Y-41.571
X165.571Y-55.821
X166.821Y-51.321
X167.321Y-33.821
X167.321Y-34.821
X168.31Y-52.763
X169.75Y-24.25
X171.25Y-30.25
T2
X152.21Y-56.21
X152.21Y-58.75
X152.21Y-61.29
X154.75Y-56.21
X154.75Y-58.75
X154.75Y-61.29
T3
X133.5Y-30.0
X133.5Y-60.0
X163.5Y-30.0
X163.5Y-60.0
M30
