%TF.GenerationSoftware,KiCad,Pcbnew,10.0.0*%
%TF.CreationDate,2026-05-11T18:40:22-05:00*%
%TF.ProjectId,no_fly_zone_remote_revised,6e6f5f66-6c79-45f7-9a6f-6e655f72656d,rev?*%
%TF.SameCoordinates,Original*%
%TF.FileFunction,Copper,L4,Bot*%
%TF.FilePolarity,Positive*%
%FSLAX46Y46*%
G04 Gerber Fmt 4.6, Leading zero omitted, Abs format (unit mm)*
G04 Created by KiCad (PCBNEW 10.0.0) date 2026-05-11 18:40:22*
%MOMM*%
%LPD*%
G01*
G04 APERTURE LIST*
G04 Aperture macros list*
%AMRoundRect*
0 Rectangle with rounded corners*
0 $1 Rounding radius*
0 $2 $3 $4 $5 $6 $7 $8 $9 X,Y pos of 4 corners*
0 Add a 4 corners polygon primitive as box body*
4,1,4,$2,$3,$4,$5,$6,$7,$8,$9,$2,$3,0*
0 Add four circle primitives for the rounded corners*
1,1,$1+$1,$2,$3*
1,1,$1+$1,$4,$5*
1,1,$1+$1,$6,$7*
1,1,$1+$1,$8,$9*
0 Add four rect primitives between the rounded corners*
20,1,$1+$1,$2,$3,$4,$5,0*
20,1,$1+$1,$4,$5,$6,$7,0*
20,1,$1+$1,$6,$7,$8,$9,0*
20,1,$1+$1,$8,$9,$2,$3,0*%
G04 Aperture macros list end*
%TA.AperFunction,ComponentPad*%
%ADD10R,1.700000X1.700000*%
%TD*%
%TA.AperFunction,ComponentPad*%
%ADD11C,1.700000*%
%TD*%
%TA.AperFunction,ComponentPad*%
%ADD12C,6.400000*%
%TD*%
%TA.AperFunction,ComponentPad*%
%ADD13RoundRect,0.250000X-0.625000X0.350000X-0.625000X-0.350000X0.625000X-0.350000X0.625000X0.350000X0*%
%TD*%
%TA.AperFunction,ComponentPad*%
%ADD14O,1.750000X1.200000*%
%TD*%
%TA.AperFunction,SMDPad,CuDef*%
%ADD15R,1.500000X3.500000*%
%TD*%
%TA.AperFunction,ComponentPad*%
%ADD16C,2.550000*%
%TD*%
%TA.AperFunction,ComponentPad*%
%ADD17C,2.050000*%
%TD*%
%TA.AperFunction,ComponentPad*%
%ADD18C,2.250000*%
%TD*%
%TA.AperFunction,ComponentPad*%
%ADD19R,1.650000X1.650000*%
%TD*%
%TA.AperFunction,ComponentPad*%
%ADD20C,1.650000*%
%TD*%
%TA.AperFunction,ComponentPad*%
%ADD21O,3.000000X6.000000*%
%TD*%
%TA.AperFunction,ViaPad*%
%ADD22C,0.700000*%
%TD*%
%TA.AperFunction,Conductor*%
%ADD23C,0.300000*%
%TD*%
%TA.AperFunction,Conductor*%
%ADD24C,0.500000*%
%TD*%
G04 APERTURE END LIST*
D10*
%TO.P,J3,1,Pin_1_1*%
%TO.N,+3V3*%
X221000000Y-85090000D03*
D11*
%TO.P,J3,2,Pin_2_2*%
%TO.N,/MCU/SWCLK*%
X221000000Y-87630000D03*
%TO.P,J3,3,Pin_3_3*%
%TO.N,/MCU/SWDIO*%
X221000000Y-90170000D03*
%TO.P,J3,4,Pin_4_4*%
%TO.N,/MCU/NRST*%
X221000000Y-92710000D03*
%TO.P,J3,5,Pin_5_5*%
%TO.N,/MCU/SWO*%
X221000000Y-95250000D03*
%TO.P,J3,6,Pin_6_6*%
%TO.N,GND*%
X221000000Y-97790000D03*
%TD*%
D12*
%TO.P,H3,1,1_1*%
%TO.N,unconnected-(H3-Pad1)*%
X132000000Y-73000000D03*
%TD*%
%TO.P,H1,1,1_1*%
%TO.N,unconnected-(H1-Pad1)*%
X132000000Y-121000000D03*
%TD*%
%TO.P,H2,1,1_1*%
%TO.N,unconnected-(H2-Pad1)*%
X217000000Y-121000000D03*
%TD*%
D13*
%TO.P,J1,1,Pin_1_1*%
%TO.N,GND*%
X130500000Y-92365200D03*
D14*
%TO.P,J1,2,Pin_2_2*%
%TO.N,Net-(J1-Pin_2)*%
X130500000Y-94365200D03*
%TD*%
D15*
%TO.P,J4,G3*%
%TO.N,GND*%
X195450000Y-70222500D03*
%TO.P,J4,G4*%
X190050000Y-70222500D03*
%TD*%
D10*
%TO.P,U5,1,VCC_1*%
%TO.N,+3V3*%
X192200000Y-94590000D03*
D11*
%TO.P,U5,2,GND_2*%
%TO.N,GND*%
X192200000Y-97130000D03*
%TO.P,U5,3,SCL_3*%
%TO.N,/MCU/I2C1_SCL*%
X192200000Y-99670000D03*
%TO.P,U5,4,SDA_4*%
%TO.N,/MCU/I2C1_SDA*%
X192200000Y-102210000D03*
%TD*%
D16*
%TO.P,U7,*%
%TO.N,*%
X154325000Y-115000000D03*
X154325000Y-105000000D03*
X141675000Y-115000000D03*
X141675000Y-105000000D03*
D17*
%TO.P,U7,1,H-_1*%
%TO.N,GND*%
X145500000Y-118730000D03*
%TO.P,U7,1',V-_1'*%
X139270000Y-107500000D03*
%TO.P,U7,2,H_2*%
%TO.N,/MCU/ADC1_IN16*%
X148000000Y-118730000D03*
%TO.P,U7,2',V_2'*%
%TO.N,/MCU/ADC1_IN9*%
X139270000Y-110000000D03*
%TO.P,U7,3,H+_3*%
%TO.N,+3V3*%
X150500000Y-118730000D03*
%TO.P,U7,3',V+_3'*%
X139270000Y-112500000D03*
D18*
%TO.P,U7,a,SEL+_a*%
%TO.N,unconnected-(U7-SEL+-Pada)*%
X151250000Y-104250000D03*
%TO.P,U7,b*%
%TO.N,N/C*%
X144750000Y-104250000D03*
%TO.P,U7,c,SEL-_c*%
%TO.N,GND*%
X151250000Y-99750000D03*
%TO.P,U7,d*%
%TO.N,N/C*%
X144750000Y-99750000D03*
%TD*%
D12*
%TO.P,H4,1,1_1*%
%TO.N,unconnected-(H4-Pad1)*%
X217000000Y-73000000D03*
%TD*%
D19*
%TO.P,S1,1*%
%TO.N,GND*%
X180500000Y-125700000D03*
D20*
%TO.P,S1,2*%
%TO.N,/MCU/ENC_SW*%
X175500000Y-125700000D03*
%TO.P,S1,A,A_A*%
%TO.N,Net-(R12-Pad2)*%
X180500000Y-111200000D03*
%TO.P,S1,B,B_B*%
%TO.N,Net-(R13-Pad2)*%
X175500000Y-111200000D03*
%TO.P,S1,C,COM_C*%
%TO.N,GND*%
X178000000Y-111200000D03*
D21*
%TO.P,S1,SH1,SHIELD_SH1*%
%TO.N,unconnected-(S1-SHIELD-PadSH1)*%
X183700000Y-118700000D03*
%TO.P,S1,SH2,SHIELD__1_SH2*%
%TO.N,unconnected-(S1-SHIELD__1-PadSH2)*%
X172300000Y-118700000D03*
%TD*%
D16*
%TO.P,U8,*%
%TO.N,*%
X214325000Y-115000000D03*
X214325000Y-105000000D03*
X201675000Y-115000000D03*
X201675000Y-105000000D03*
D17*
%TO.P,U8,1,H-_1*%
%TO.N,GND*%
X205500000Y-118730000D03*
%TO.P,U8,1',V-_1'*%
X199270000Y-107500000D03*
%TO.P,U8,2,H_2*%
%TO.N,/MCU/ADC1_IN8*%
X208000000Y-118730000D03*
%TO.P,U8,2',V_2'*%
%TO.N,/MCU/ADC1_IN7*%
X199270000Y-110000000D03*
%TO.P,U8,3,H+_3*%
%TO.N,+3V3*%
X210500000Y-118730000D03*
%TO.P,U8,3',V+_3'*%
X199270000Y-112500000D03*
D18*
%TO.P,U8,a,SEL+_a*%
%TO.N,unconnected-(U8-SEL+-Pada)*%
X211250000Y-104250000D03*
%TO.P,U8,b*%
%TO.N,N/C*%
X204750000Y-104250000D03*
%TO.P,U8,c,SEL-_c*%
%TO.N,GND*%
X211250000Y-99750000D03*
%TO.P,U8,d*%
%TO.N,N/C*%
X204750000Y-99750000D03*
%TD*%
D22*
%TO.N,/MCU/BOOT0*%
X199250000Y-100500000D03*
%TO.N,+3V3*%
X218500000Y-108250000D03*
%TO.N,GND*%
X218500000Y-103750000D03*
%TO.N,+3V3*%
X158500000Y-110250000D03*
%TO.N,GND*%
X191600000Y-75600000D03*
X176200000Y-95400000D03*
X175967272Y-75000000D03*
X196600000Y-81400000D03*
X195800000Y-79800000D03*
X182083636Y-75000000D03*
X197400000Y-81980000D03*
X159750000Y-98750000D03*
X157000000Y-82500000D03*
X134500000Y-86250000D03*
X203683636Y-68400000D03*
X138750000Y-89250000D03*
X188200000Y-83000000D03*
X203683636Y-75141473D03*
X136500000Y-91000000D03*
X196400000Y-75400000D03*
X189600000Y-78925000D03*
X187800000Y-75000000D03*
X154750000Y-96250000D03*
X145600000Y-79200000D03*
X179400000Y-103250000D03*
X203683636Y-80941473D03*
X200800000Y-77980000D03*
X182083636Y-68800000D03*
X199400000Y-75380000D03*
X182083636Y-81000000D03*
X138750000Y-86250000D03*
X141200000Y-84400000D03*
X209800000Y-68458527D03*
X166750000Y-80500000D03*
X191489825Y-76510175D03*
X175967272Y-81000000D03*
X188400000Y-77200000D03*
X149000000Y-81600000D03*
X140750000Y-79250000D03*
X155750000Y-88750000D03*
X175967272Y-68941473D03*
X156250000Y-74500000D03*
X134500000Y-89250000D03*
X187800000Y-68741473D03*
X142500000Y-76000000D03*
X136500000Y-88000000D03*
X209800000Y-81000000D03*
X134500000Y-92750000D03*
X142750000Y-92000000D03*
X209800000Y-75200000D03*
X176600000Y-103600000D03*
X185800000Y-97596800D03*
X187400000Y-81800000D03*
X138750000Y-92750000D03*
X132500000Y-91000000D03*
X163531250Y-122887500D03*
X174250000Y-88900000D03*
X212737500Y-94000000D03*
X197716364Y-68458527D03*
X144500000Y-93500000D03*
%TO.N,+3V3*%
X163481250Y-110887500D03*
X203937500Y-94000000D03*
X158400000Y-93000000D03*
X181400000Y-103250000D03*
X155800000Y-93000000D03*
X150800000Y-91000000D03*
X171500000Y-88900000D03*
X155800000Y-91000000D03*
X183200000Y-80200000D03*
X185800000Y-95696800D03*
X153400000Y-91000000D03*
X158400000Y-91000000D03*
%TO.N,Net-(U3-~{CHRG})*%
X154000000Y-77750000D03*
X160750000Y-92901000D03*
%TO.N,/MCU/NRST*%
X178200000Y-105600000D03*
X176400000Y-105600000D03*
%TO.N,/MCU/ADC1_IN9*%
X177800000Y-91200000D03*
%TO.N,/MCU/SPI1_SCK*%
X186250000Y-90000000D03*
X189630025Y-86380025D03*
%TO.N,/MCU/ADC1_IN15*%
X175600000Y-89000000D03*
X163400000Y-82200000D03*
%TO.N,/MCU/ADC1_IN16*%
X174800000Y-91800000D03*
%TO.N,/MCU/RF_CE*%
X171400000Y-87300000D03*
X170500000Y-91600000D03*
%TO.N,/MCU/RF_IRQ*%
X172413251Y-94503201D03*
X188600000Y-90200000D03*
%TO.N,/MCU/SWDIO*%
X172400000Y-97200000D03*
%TO.N,/MCU/SWCLK*%
X173000000Y-98600000D03*
%TO.N,/MCU/SWO*%
X174844400Y-100200000D03*
%TO.N,/MCU/I2C1_SCL*%
X176244400Y-99030000D03*
%TO.N,/MCU/I2C1_SDA*%
X177000000Y-100370000D03*
%TO.N,/MCU/BOOT0*%
X177800000Y-101800000D03*
%TO.N,Net-(U3-~{STDBY})*%
X159500000Y-89750000D03*
X154000000Y-79000000D03*
%TO.N,Net-(C13-Pad1)*%
X195795014Y-80997507D03*
X186400000Y-81800000D03*
%TO.N,VBUS*%
X141200000Y-85800000D03*
X147000000Y-81400000D03*
%TO.N,VBAT*%
X152250000Y-81750000D03*
X144750000Y-87750000D03*
%TD*%
%TO.N,/MCU/SWDIO*%
D23*
X220720000Y-90450000D02*
X221000000Y-90170000D01*
X192697057Y-98330000D02*
X200577057Y-90450000D01*
X172710050Y-99300000D02*
X173289950Y-99300000D01*
X173289950Y-99300000D02*
X174259950Y-98330000D01*
X200577057Y-90450000D02*
X220720000Y-90450000D01*
X172300000Y-98889950D02*
X172710050Y-99300000D01*
X174259950Y-98330000D02*
X192697057Y-98330000D01*
X172400000Y-97200000D02*
X172300000Y-97300000D01*
X172300000Y-97300000D02*
X172300000Y-98889950D01*
%TO.N,/MCU/SWCLK*%
X193820050Y-95790000D02*
X201980050Y-87630000D01*
X191842943Y-95790000D02*
X193820050Y-95790000D01*
X201980050Y-87630000D02*
X221000000Y-87630000D01*
%TO.N,/MCU/BOOT0*%
X194000000Y-105750000D02*
X199250000Y-100500000D01*
X177800000Y-101800000D02*
X177800000Y-103300000D01*
X180250000Y-105750000D02*
X194000000Y-105750000D01*
X177800000Y-103300000D02*
X180250000Y-105750000D01*
%TO.N,/MCU/SWO*%
X206500000Y-95250000D02*
X221000000Y-95250000D01*
X194224500Y-107525500D02*
X206500000Y-95250000D01*
X177335550Y-107525500D02*
X194224500Y-107525500D01*
X174844400Y-105034350D02*
X177335550Y-107525500D01*
X174844400Y-100200000D02*
X174844400Y-105034350D01*
%TO.N,/MCU/NRST*%
X208290000Y-92710000D02*
X221000000Y-92710000D01*
X193974500Y-107025500D02*
X208290000Y-92710000D01*
X176400000Y-105600000D02*
X177825500Y-107025500D01*
X177825500Y-107025500D02*
X193974500Y-107025500D01*
X221000000Y-93329950D02*
X221000000Y-92710000D01*
%TO.N,Net-(U3-~{CHRG})*%
X160750000Y-84500000D02*
X160750000Y-92901000D01*
X154000000Y-77750000D02*
X160750000Y-84500000D01*
%TO.N,/MCU/NRST*%
X178200000Y-105600000D02*
X176400000Y-105600000D01*
%TO.N,/MCU/ADC1_IN9*%
X153623098Y-110000000D02*
X139270000Y-110000000D01*
X153623098Y-110000000D02*
X172523098Y-91100000D01*
X172523098Y-91100000D02*
X177700000Y-91100000D01*
X177700000Y-91100000D02*
X177800000Y-91200000D01*
%TO.N,/MCU/SPI1_SCK*%
X186250000Y-90000000D02*
X189630025Y-86619975D01*
X189630025Y-86619975D02*
X189630025Y-86380025D01*
%TO.N,/MCU/ADC1_IN15*%
X168800000Y-82200000D02*
X163400000Y-82200000D01*
X175600000Y-89000000D02*
X168800000Y-82200000D01*
%TO.N,/MCU/ADC1_IN16*%
X174800000Y-91800000D02*
X173450000Y-91800000D01*
X173450000Y-91800000D02*
X148000000Y-117250000D01*
X148000000Y-117250000D02*
X148000000Y-118730000D01*
%TO.N,/MCU/RF_CE*%
X170000000Y-88700000D02*
X170000000Y-91100000D01*
X171400000Y-87300000D02*
X170000000Y-88700000D01*
X170000000Y-91100000D02*
X170500000Y-91600000D01*
%TO.N,/MCU/RF_IRQ*%
X172916452Y-94000000D02*
X184800000Y-94000000D01*
X188600000Y-90200000D02*
X184800000Y-94000000D01*
X172413251Y-94503201D02*
X172916452Y-94000000D01*
%TO.N,/MCU/SWCLK*%
X175203200Y-96396800D02*
X191236143Y-96396800D01*
X191236143Y-96396800D02*
X191842943Y-95790000D01*
X173000000Y-98600000D02*
X175203200Y-96396800D01*
%TO.N,/MCU/I2C1_SCL*%
X176244400Y-99030000D02*
X176884400Y-99670000D01*
X176884400Y-99670000D02*
X192200000Y-99670000D01*
%TO.N,/MCU/I2C1_SDA*%
X190360000Y-100370000D02*
X192200000Y-102210000D01*
X177000000Y-100370000D02*
X190360000Y-100370000D01*
%TO.N,Net-(U3-~{STDBY})*%
X154000000Y-84250000D02*
X154000000Y-79000000D01*
X159500000Y-89750000D02*
X154000000Y-84250000D01*
%TO.N,Net-(C13-Pad1)*%
X187202493Y-80997507D02*
X186400000Y-81800000D01*
X195795014Y-80997507D02*
X187202493Y-80997507D01*
%TO.N,VBUS*%
D24*
X147000000Y-81400000D02*
X142600000Y-85800000D01*
X142600000Y-85800000D02*
X141200000Y-85800000D01*
%TO.N,VBAT*%
X150750000Y-81750000D02*
X152250000Y-81750000D01*
X144750000Y-87750000D02*
X150750000Y-81750000D01*
%TD*%
%TA.AperFunction,Conductor*%
%TO.N,GND*%
G36*
X189184746Y-67770185D02*
G01*
X189230501Y-67822989D01*
X189240445Y-67892147D01*
X189211420Y-67955703D01*
X189161040Y-67990682D01*
X189057913Y-68029145D01*
X189057906Y-68029149D01*
X188942812Y-68115309D01*
X188942809Y-68115312D01*
X188856649Y-68230406D01*
X188856645Y-68230413D01*
X188806403Y-68365120D01*
X188806401Y-68365127D01*
X188800000Y-68424655D01*
X188800000Y-69972500D01*
X191300000Y-69972500D01*
X191300000Y-68424672D01*
X191299999Y-68424655D01*
X191293598Y-68365127D01*
X191293596Y-68365120D01*
X191243354Y-68230413D01*
X191243350Y-68230406D01*
X191157190Y-68115312D01*
X191157187Y-68115309D01*
X191042093Y-68029149D01*
X191042086Y-68029145D01*
X190938960Y-67990682D01*
X190883026Y-67948811D01*
X190858609Y-67883347D01*
X190873461Y-67815074D01*
X190922866Y-67765668D01*
X190982293Y-67750500D01*
X194517707Y-67750500D01*
X194584746Y-67770185D01*
X194630501Y-67822989D01*
X194640445Y-67892147D01*
X194611420Y-67955703D01*
X194561040Y-67990682D01*
X194457913Y-68029145D01*
X194457906Y-68029149D01*
X194342812Y-68115309D01*
X194342809Y-68115312D01*
X194256649Y-68230406D01*
X194256645Y-68230413D01*
X194206403Y-68365120D01*
X194206401Y-68365127D01*
X194200000Y-68424655D01*
X194200000Y-69972500D01*
X196700000Y-69972500D01*
X196700000Y-68424672D01*
X196699999Y-68424655D01*
X196693598Y-68365127D01*
X196693596Y-68365120D01*
X196643354Y-68230413D01*
X196643350Y-68230406D01*
X196557190Y-68115312D01*
X196557187Y-68115309D01*
X196442093Y-68029149D01*
X196442086Y-68029145D01*
X196338960Y-67990682D01*
X196283026Y-67948811D01*
X196258609Y-67883347D01*
X196273461Y-67815074D01*
X196322866Y-67765668D01*
X196382293Y-67750500D01*
X213076000Y-67750500D01*
X213143039Y-67770185D01*
X213188794Y-67822989D01*
X213200000Y-67874500D01*
X213200000Y-85276000D01*
X213180315Y-85343039D01*
X213127511Y-85388794D01*
X213076000Y-85400000D01*
X173724000Y-85400000D01*
X173656961Y-85380315D01*
X173611206Y-85327511D01*
X173600000Y-85276000D01*
X173600000Y-81716228D01*
X185549500Y-81716228D01*
X185549500Y-81883771D01*
X185582182Y-82048074D01*
X185582184Y-82048082D01*
X185646295Y-82202860D01*
X185739373Y-82342162D01*
X185857837Y-82460626D01*
X185928928Y-82508127D01*
X185997137Y-82553703D01*
X186151918Y-82617816D01*
X186316228Y-82650499D01*
X186316232Y-82650500D01*
X186316233Y-82650500D01*
X186483768Y-82650500D01*
X186483769Y-82650499D01*
X186648082Y-82617816D01*
X186802863Y-82553703D01*
X186942162Y-82460626D01*
X187060626Y-82342162D01*
X187153703Y-82202863D01*
X187217816Y-82048082D01*
X187246718Y-81902781D01*
X187279102Y-81840870D01*
X187280543Y-81839402D01*
X187435622Y-81684323D01*
X187496943Y-81650841D01*
X187523301Y-81648007D01*
X195200082Y-81648007D01*
X195267121Y-81667692D01*
X195268973Y-81668905D01*
X195321219Y-81703814D01*
X195392151Y-81751210D01*
X195546932Y-81815323D01*
X195675367Y-81840870D01*
X195711242Y-81848006D01*
X195711246Y-81848007D01*
X195711247Y-81848007D01*
X195878782Y-81848007D01*
X195878783Y-81848006D01*
X196043096Y-81815323D01*
X196197877Y-81751210D01*
X196337176Y-81658133D01*
X196455640Y-81539669D01*
X196548717Y-81400370D01*
X196612830Y-81245589D01*
X196645514Y-81081274D01*
X196645514Y-80913740D01*
X196612830Y-80749425D01*
X196563241Y-80629708D01*
X196548718Y-80594646D01*
X196455640Y-80455344D01*
X196337176Y-80336880D01*
X196197874Y-80243802D01*
X196043096Y-80179691D01*
X196043088Y-80179689D01*
X195878785Y-80147007D01*
X195878781Y-80147007D01*
X195711247Y-80147007D01*
X195711242Y-80147007D01*
X195546939Y-80179689D01*
X195546931Y-80179691D01*
X195392153Y-80243802D01*
X195268973Y-80326109D01*
X195202295Y-80346987D01*
X195200082Y-80347007D01*
X187138422Y-80347007D01*
X187012754Y-80372004D01*
X187012748Y-80372006D01*
X186894363Y-80421042D01*
X186787824Y-80492229D01*
X186787817Y-80492235D01*
X186360708Y-80919345D01*
X186299385Y-80952830D01*
X186297219Y-80953281D01*
X186151923Y-80982182D01*
X186151917Y-80982184D01*
X185997139Y-81046295D01*
X185857837Y-81139373D01*
X185739373Y-81257837D01*
X185646295Y-81397139D01*
X185582184Y-81551917D01*
X185582182Y-81551925D01*
X185549500Y-81716228D01*
X173600000Y-81716228D01*
X173600000Y-80116228D01*
X182349500Y-80116228D01*
X182349500Y-80283771D01*
X182382182Y-80448074D01*
X182382184Y-80448082D01*
X182446295Y-80602860D01*
X182539373Y-80742162D01*
X182657837Y-80860626D01*
X182737321Y-80913735D01*
X182797137Y-80953703D01*
X182951918Y-81017816D01*
X183095093Y-81046295D01*
X183116228Y-81050499D01*
X183116232Y-81050500D01*
X183116233Y-81050500D01*
X183283768Y-81050500D01*
X183283769Y-81050499D01*
X183448082Y-81017816D01*
X183602863Y-80953703D01*
X183742162Y-80860626D01*
X183860626Y-80742162D01*
X183953703Y-80602863D01*
X184017816Y-80448082D01*
X184050500Y-80283767D01*
X184050500Y-80116233D01*
X184017816Y-79951918D01*
X183953703Y-79797137D01*
X183922537Y-79750494D01*
X183860626Y-79657837D01*
X183742162Y-79539373D01*
X183602860Y-79446295D01*
X183448082Y-79382184D01*
X183448074Y-79382182D01*
X183283771Y-79349500D01*
X183283767Y-79349500D01*
X183116233Y-79349500D01*
X183116228Y-79349500D01*
X182951925Y-79382182D01*
X182951917Y-79382184D01*
X182797139Y-79446295D01*
X182657837Y-79539373D01*
X182539373Y-79657837D01*
X182446295Y-79797139D01*
X182382184Y-79951917D01*
X182382182Y-79951925D01*
X182349500Y-80116228D01*
X173600000Y-80116228D01*
X173600000Y-72020344D01*
X188800000Y-72020344D01*
X188806401Y-72079872D01*
X188806403Y-72079879D01*
X188856645Y-72214586D01*
X188856649Y-72214593D01*
X188942809Y-72329687D01*
X188942812Y-72329690D01*
X189057906Y-72415850D01*
X189057913Y-72415854D01*
X189192620Y-72466096D01*
X189192627Y-72466098D01*
X189252155Y-72472499D01*
X189252172Y-72472500D01*
X189800000Y-72472500D01*
X190300000Y-72472500D01*
X190847828Y-72472500D01*
X190847844Y-72472499D01*
X190907372Y-72466098D01*
X190907379Y-72466096D01*
X191042086Y-72415854D01*
X191042093Y-72415850D01*
X191157187Y-72329690D01*
X191157190Y-72329687D01*
X191243350Y-72214593D01*
X191243354Y-72214586D01*
X191293596Y-72079879D01*
X191293598Y-72079872D01*
X191299999Y-72020344D01*
X194200000Y-72020344D01*
X194206401Y-72079872D01*
X194206403Y-72079879D01*
X194256645Y-72214586D01*
X194256649Y-72214593D01*
X194342809Y-72329687D01*
X194342812Y-72329690D01*
X194457906Y-72415850D01*
X194457913Y-72415854D01*
X194592620Y-72466096D01*
X194592627Y-72466098D01*
X194652155Y-72472499D01*
X194652172Y-72472500D01*
X195200000Y-72472500D01*
X195700000Y-72472500D01*
X196247828Y-72472500D01*
X196247844Y-72472499D01*
X196307372Y-72466098D01*
X196307379Y-72466096D01*
X196442086Y-72415854D01*
X196442093Y-72415850D01*
X196557187Y-72329690D01*
X196557190Y-72329687D01*
X196643350Y-72214593D01*
X196643354Y-72214586D01*
X196693596Y-72079879D01*
X196693598Y-72079872D01*
X196699999Y-72020344D01*
X196700000Y-72020327D01*
X196700000Y-70472500D01*
X195700000Y-70472500D01*
X195700000Y-72472500D01*
X195200000Y-72472500D01*
X195200000Y-70472500D01*
X194200000Y-70472500D01*
X194200000Y-72020344D01*
X191299999Y-72020344D01*
X191300000Y-72020327D01*
X191300000Y-70472500D01*
X190300000Y-70472500D01*
X190300000Y-72472500D01*
X189800000Y-72472500D01*
X189800000Y-70472500D01*
X188800000Y-70472500D01*
X188800000Y-72020344D01*
X173600000Y-72020344D01*
X173600000Y-67874500D01*
X173619685Y-67807461D01*
X173672489Y-67761706D01*
X173724000Y-67750500D01*
X189117707Y-67750500D01*
X189184746Y-67770185D01*
G37*
%TD.AperFunction*%
%TD*%
M02*
