%TF.GenerationSoftware,KiCad,Pcbnew,10.0.0*%
%TF.CreationDate,2026-05-11T18:40:22-05:00*%
%TF.ProjectId,no_fly_zone_remote_revised,6e6f5f66-6c79-45f7-9a6f-6e655f72656d,rev?*%
%TF.SameCoordinates,Original*%
%TF.FileFunction,Paste,Top*%
%TF.FilePolarity,Positive*%
%FSLAX46Y46*%
G04 Gerber Fmt 4.6, Leading zero omitted, Abs format (unit mm)*
G04 Created by KiCad (PCBNEW 10.0.0) date 2026-05-11 18:40:22*
%MOMM*%
%LPD*%
G01*
G04 APERTURE LIST*
G04 Aperture macros list*
%AMRoundRect*
0 Rectangle with rounded corners*
0 $1 Rounding radius*
0 $2 $3 $4 $5 $6 $7 $8 $9 X,Y pos of 4 corners*
0 Add a 4 corners polygon primitive as box body*
4,1,4,$2,$3,$4,$5,$6,$7,$8,$9,$2,$3,0*
0 Add four circle primitives for the rounded corners*
1,1,$1+$1,$2,$3*
1,1,$1+$1,$4,$5*
1,1,$1+$1,$6,$7*
1,1,$1+$1,$8,$9*
0 Add four rect primitives between the rounded corners*
20,1,$1+$1,$2,$3,$4,$5,0*
20,1,$1+$1,$4,$5,$6,$7,0*
20,1,$1+$1,$6,$7,$8,$9,0*
20,1,$1+$1,$8,$9,$2,$3,0*%
G04 Aperture macros list end*
%ADD10RoundRect,0.250000X-0.262500X-0.450000X0.262500X-0.450000X0.262500X0.450000X-0.262500X0.450000X0*%
%ADD11RoundRect,0.250000X0.450000X-0.262500X0.450000X0.262500X-0.450000X0.262500X-0.450000X-0.262500X0*%
%ADD12RoundRect,0.250000X-0.450000X0.262500X-0.450000X-0.262500X0.450000X-0.262500X0.450000X0.262500X0*%
%ADD13RoundRect,0.250000X-0.475000X0.250000X-0.475000X-0.250000X0.475000X-0.250000X0.475000X0.250000X0*%
%ADD14RoundRect,0.140000X-0.170000X0.140000X-0.170000X-0.140000X0.170000X-0.140000X0.170000X0.140000X0*%
%ADD15RoundRect,0.135000X-0.185000X0.135000X-0.185000X-0.135000X0.185000X-0.135000X0.185000X0.135000X0*%
%ADD16RoundRect,0.243750X-0.243750X-0.456250X0.243750X-0.456250X0.243750X0.456250X-0.243750X0.456250X0*%
%ADD17RoundRect,0.140000X0.140000X0.170000X-0.140000X0.170000X-0.140000X-0.170000X0.140000X-0.170000X0*%
%ADD18RoundRect,0.250000X0.262500X0.450000X-0.262500X0.450000X-0.262500X-0.450000X0.262500X-0.450000X0*%
%ADD19R,1.600000X1.400000*%
%ADD20RoundRect,0.250000X-0.250000X-0.475000X0.250000X-0.475000X0.250000X0.475000X-0.250000X0.475000X0*%
%ADD21RoundRect,0.232500X0.232500X0.232500X-0.232500X0.232500X-0.232500X-0.232500X0.232500X-0.232500X0*%
%ADD22RoundRect,0.062500X0.375000X0.062500X-0.375000X0.062500X-0.375000X-0.062500X0.375000X-0.062500X0*%
%ADD23RoundRect,0.062500X0.062500X0.375000X-0.062500X0.375000X-0.062500X-0.375000X0.062500X-0.375000X0*%
%ADD24RoundRect,0.250000X0.475000X-0.250000X0.475000X0.250000X-0.475000X0.250000X-0.475000X-0.250000X0*%
%ADD25RoundRect,0.250000X0.250000X0.475000X-0.250000X0.475000X-0.250000X-0.475000X0.250000X-0.475000X0*%
%ADD26R,1.200000X1.400000*%
%ADD27RoundRect,0.243750X0.243750X0.456250X-0.243750X0.456250X-0.243750X-0.456250X0.243750X-0.456250X0*%
%ADD28R,0.812800X0.812800*%
%ADD29R,1.092200X2.006600*%
%ADD30RoundRect,0.250000X0.255000X-0.255000X0.255000X0.255000X-0.255000X0.255000X-0.255000X-0.255000X0*%
%ADD31RoundRect,0.062500X0.062500X-0.350000X0.062500X0.350000X-0.062500X0.350000X-0.062500X-0.350000X0*%
%ADD32RoundRect,0.062500X0.350000X-0.062500X0.350000X0.062500X-0.350000X0.062500X-0.350000X-0.062500X0*%
%ADD33RoundRect,0.135000X0.185000X-0.135000X0.185000X0.135000X-0.185000X0.135000X-0.185000X-0.135000X0*%
%ADD34RoundRect,0.140000X-0.140000X-0.170000X0.140000X-0.170000X0.140000X0.170000X-0.140000X0.170000X0*%
%ADD35R,0.550000X0.250000*%
%ADD36RoundRect,0.150000X-0.512500X-0.150000X0.512500X-0.150000X0.512500X0.150000X-0.512500X0.150000X0*%
%ADD37RoundRect,0.242500X-0.242500X-0.422500X0.242500X-0.422500X0.242500X0.422500X-0.242500X0.422500X0*%
%ADD38RoundRect,0.150000X-0.825000X-0.150000X0.825000X-0.150000X0.825000X0.150000X-0.825000X0.150000X0*%
%ADD39R,1.500000X3.500000*%
%ADD40R,2.300000X0.500000*%
%ADD41R,2.500000X2.000000*%
%ADD42R,0.800000X1.000000*%
%ADD43R,1.500000X0.700000*%
%ADD44R,1.500000X0.300000*%
G04 APERTURE END LIST*
D10*
%TO.C,R11*%
X158587500Y-108750000D03*
X160412500Y-108750000D03*
%TD*%
D11*
%TO.C,R16*%
X165881250Y-117612500D03*
X165881250Y-115787500D03*
%TD*%
D12*
%TO.C,R15*%
X163481250Y-115775000D03*
X163481250Y-117600000D03*
%TD*%
D13*
%TO.C,C20*%
X165931250Y-119487500D03*
X165931250Y-121387500D03*
%TD*%
D12*
%TO.C,R13*%
X165881250Y-112075000D03*
X165881250Y-113900000D03*
%TD*%
D14*
%TO.C,C16*%
X189000000Y-81824100D03*
X189000000Y-82784100D03*
%TD*%
D15*
%TO.C,R14*%
X196200000Y-77890000D03*
X196200000Y-78910000D03*
%TD*%
D16*
%TO.C,D6*%
X164812500Y-98750000D03*
X166687500Y-98750000D03*
%TD*%
D17*
%TO.C,C17*%
X199360000Y-81980000D03*
X198400000Y-81980000D03*
%TD*%
D18*
%TO.C,R6*%
X162690000Y-94310200D03*
X160865000Y-94310200D03*
%TD*%
D19*
%TO.C,SW2*%
X167800000Y-103600000D03*
X175000000Y-103600000D03*
X167800000Y-106600000D03*
X175000000Y-106600000D03*
%TD*%
D20*
%TO.C,C8*%
X171850000Y-90400000D03*
X173750000Y-90400000D03*
%TD*%
D10*
%TO.C,R1*%
X209337500Y-94000000D03*
X211162500Y-94000000D03*
%TD*%
D21*
%TO.C,U4*%
X177444400Y-96603200D03*
X177444400Y-95453200D03*
X177444400Y-94303200D03*
X176294400Y-96603200D03*
X176294400Y-95453200D03*
X176294400Y-94303200D03*
X175144400Y-96603200D03*
X175144400Y-95453200D03*
X175144400Y-94303200D03*
D22*
X178731900Y-97203200D03*
X178731900Y-96703200D03*
X178731900Y-96203200D03*
X178731900Y-95703200D03*
X178731900Y-95203200D03*
X178731900Y-94703200D03*
X178731900Y-94203200D03*
X178731900Y-93703200D03*
D23*
X178044400Y-93015700D03*
X177544400Y-93015700D03*
X177044400Y-93015700D03*
X176544400Y-93015700D03*
X176044400Y-93015700D03*
X175544400Y-93015700D03*
X175044400Y-93015700D03*
X174544400Y-93015700D03*
D22*
X173856900Y-93703200D03*
X173856900Y-94203200D03*
X173856900Y-94703200D03*
X173856900Y-95203200D03*
X173856900Y-95703200D03*
X173856900Y-96203200D03*
X173856900Y-96703200D03*
X173856900Y-97203200D03*
D23*
X174544400Y-97890700D03*
X175044400Y-97890700D03*
X175544400Y-97890700D03*
X176044400Y-97890700D03*
X176544400Y-97890700D03*
X177044400Y-97890700D03*
X177544400Y-97890700D03*
X178044400Y-97890700D03*
%TD*%
D18*
%TO.C,R5*%
X162711600Y-89683200D03*
X160886600Y-89683200D03*
%TD*%
D24*
%TO.C,C3*%
X146000000Y-95418500D03*
X146000000Y-93518500D03*
%TD*%
D25*
%TO.C,C7*%
X181400000Y-99593400D03*
X179500000Y-99593400D03*
%TD*%
D26*
%TO.C,Y1*%
X199600000Y-80280000D03*
X199600000Y-78080000D03*
X198000000Y-78080000D03*
X198000000Y-80280000D03*
%TD*%
D27*
%TO.C,D1*%
X207162500Y-94000000D03*
X205287500Y-94000000D03*
%TD*%
D28*
%TO.C,D2*%
X136560200Y-84484950D03*
D29*
X136560200Y-86148650D03*
%TD*%
D30*
%TO.C,U6*%
X192052200Y-80250000D03*
X193302200Y-80250000D03*
X192052200Y-79000000D03*
X193302200Y-79000000D03*
D31*
X191677200Y-81562500D03*
X192177200Y-81562500D03*
X192677200Y-81562500D03*
X193177200Y-81562500D03*
X193677200Y-81562500D03*
D32*
X194614700Y-80625000D03*
X194614700Y-80125000D03*
X194614700Y-79625000D03*
X194614700Y-79125000D03*
X194614700Y-78625000D03*
D31*
X193677200Y-77687500D03*
X193177200Y-77687500D03*
X192677200Y-77687500D03*
X192177200Y-77687500D03*
X191677200Y-77687500D03*
D32*
X190739700Y-78625000D03*
X190739700Y-79125000D03*
X190739700Y-79625000D03*
X190739700Y-80125000D03*
X190739700Y-80625000D03*
%TD*%
D33*
%TO.C,R10*%
X189400000Y-78021800D03*
X189400000Y-77001800D03*
%TD*%
D11*
%TO.C,R8*%
X216587500Y-102412500D03*
X216587500Y-100587500D03*
%TD*%
D13*
%TO.C,C10*%
X181914000Y-95596800D03*
X181914000Y-97496800D03*
%TD*%
D34*
%TO.C,C18*%
X198440000Y-76380000D03*
X199400000Y-76380000D03*
%TD*%
D10*
%TO.C,R4*%
X163425000Y-80500000D03*
X165250000Y-80500000D03*
%TD*%
D24*
%TO.C,C12*%
X164800000Y-106460000D03*
X164800000Y-104560000D03*
%TD*%
D35*
%TO.C,FL1*%
X192550000Y-75000000D03*
X192550000Y-75500000D03*
X192550000Y-76000000D03*
X193400000Y-76000000D03*
X193400000Y-75500000D03*
X193400000Y-75000000D03*
%TD*%
D20*
%TO.C,C5*%
X153050000Y-74500000D03*
X154950000Y-74500000D03*
%TD*%
D36*
%TO.C,U1*%
X148543700Y-92850000D03*
X148543700Y-93800000D03*
X148543700Y-94750000D03*
X150818700Y-94750000D03*
X150818700Y-92850000D03*
%TD*%
D37*
%TO.C,U3*%
X149235200Y-77540000D03*
X149235200Y-79190000D03*
X150435200Y-77540000D03*
X150435200Y-79190000D03*
D38*
X147360200Y-76460000D03*
X147360200Y-77730000D03*
X147360200Y-79000000D03*
X147360200Y-80270000D03*
X152310200Y-80270000D03*
X152310200Y-79000000D03*
X152310200Y-77730000D03*
X152310200Y-76460000D03*
%TD*%
D39*
%TO.C,J4*%
X192750000Y-70222500D03*
X195450000Y-70222500D03*
X190050000Y-70222500D03*
%TD*%
D16*
%TO.C,D4*%
X164625000Y-89683200D03*
X166500000Y-89683200D03*
%TD*%
D18*
%TO.C,R9*%
X162852100Y-98750000D03*
X161027100Y-98750000D03*
%TD*%
D13*
%TO.C,C19*%
X163531250Y-119487500D03*
X163531250Y-121387500D03*
%TD*%
D14*
%TO.C,C14*%
X189000000Y-79844100D03*
X189000000Y-80804100D03*
%TD*%
D40*
%TO.C,J2*%
X132000000Y-81550000D03*
X132000000Y-82350000D03*
X132000000Y-83150000D03*
X132000000Y-83950000D03*
X132000000Y-84750000D03*
D41*
X131900000Y-78700000D03*
X126400000Y-78700000D03*
X131900000Y-87600000D03*
X126400000Y-87600000D03*
%TD*%
D16*
%TO.C,D5*%
X164685200Y-94310200D03*
X166560200Y-94310200D03*
%TD*%
D11*
%TO.C,R7*%
X144060200Y-77915200D03*
X144060200Y-76090200D03*
%TD*%
D25*
%TO.C,C9*%
X181400000Y-101828600D03*
X179500000Y-101828600D03*
%TD*%
D42*
%TO.C,SW3*%
X220640000Y-109650000D03*
X222850000Y-109650000D03*
X220640000Y-102350000D03*
X222850000Y-102350000D03*
D43*
X219990000Y-108250000D03*
X219990000Y-105250000D03*
X219990000Y-103750000D03*
%TD*%
D24*
%TO.C,C2*%
X142810200Y-87000000D03*
X142810200Y-85100000D03*
%TD*%
D12*
%TO.C,R12*%
X163481250Y-112075000D03*
X163481250Y-113900000D03*
%TD*%
D13*
%TO.C,C11*%
X184300000Y-95596800D03*
X184300000Y-97496800D03*
%TD*%
%TO.C,C4*%
X153250000Y-93800000D03*
X153250000Y-95700000D03*
%TD*%
D28*
%TO.C,D3*%
X139000000Y-80965200D03*
D29*
X139000000Y-79301500D03*
%TD*%
D12*
%TO.C,R2*%
X155750000Y-85750000D03*
X155750000Y-87575000D03*
%TD*%
D34*
%TO.C,C15*%
X194566200Y-75400000D03*
X195526200Y-75400000D03*
%TD*%
D13*
%TO.C,C6*%
X155500000Y-80550000D03*
X155500000Y-82450000D03*
%TD*%
D10*
%TO.C,R3*%
X159390200Y-80525400D03*
X161215200Y-80525400D03*
%TD*%
D14*
%TO.C,C13*%
X187750000Y-79844100D03*
X187750000Y-80804100D03*
%TD*%
D42*
%TO.C,SW1*%
X127150000Y-102350000D03*
X124940000Y-102350000D03*
X127150000Y-109650000D03*
X124940000Y-109650000D03*
D43*
X127800000Y-103750000D03*
X127800000Y-106750000D03*
X127800000Y-108250000D03*
%TD*%
D18*
%TO.C,FB1*%
X186250000Y-80304100D03*
X184425000Y-80304100D03*
%TD*%
D44*
%TO.C,U2*%
X153089800Y-87700000D03*
X153089800Y-87050000D03*
X153089800Y-86400000D03*
X153089800Y-85750000D03*
X146689800Y-85750000D03*
X146689800Y-86400000D03*
X146689800Y-87050000D03*
X146689800Y-87700000D03*
%TD*%
D13*
%TO.C,C1*%
X142810200Y-88850000D03*
X142810200Y-90750000D03*
%TD*%
M02*
