%TF.GenerationSoftware,KiCad,Pcbnew,10.0.0*%
%TF.CreationDate,2026-05-11T18:40:22-05:00*%
%TF.ProjectId,no_fly_zone_remote_revised,6e6f5f66-6c79-45f7-9a6f-6e655f72656d,rev?*%
%TF.SameCoordinates,Original*%
%TF.FileFunction,Copper,L1,Top*%
%TF.FilePolarity,Positive*%
%FSLAX46Y46*%
G04 Gerber Fmt 4.6, Leading zero omitted, Abs format (unit mm)*
G04 Created by KiCad (PCBNEW 10.0.0) date 2026-05-11 18:40:22*
%MOMM*%
%LPD*%
G01*
G04 APERTURE LIST*
G04 Aperture macros list*
%AMRoundRect*
0 Rectangle with rounded corners*
0 $1 Rounding radius*
0 $2 $3 $4 $5 $6 $7 $8 $9 X,Y pos of 4 corners*
0 Add a 4 corners polygon primitive as box body*
4,1,4,$2,$3,$4,$5,$6,$7,$8,$9,$2,$3,0*
0 Add four circle primitives for the rounded corners*
1,1,$1+$1,$2,$3*
1,1,$1+$1,$4,$5*
1,1,$1+$1,$6,$7*
1,1,$1+$1,$8,$9*
0 Add four rect primitives between the rounded corners*
20,1,$1+$1,$2,$3,$4,$5,0*
20,1,$1+$1,$4,$5,$6,$7,0*
20,1,$1+$1,$6,$7,$8,$9,0*
20,1,$1+$1,$8,$9,$2,$3,0*%
G04 Aperture macros list end*
%TA.AperFunction,ComponentPad*%
%ADD10R,1.700000X1.700000*%
%TD*%
%TA.AperFunction,ComponentPad*%
%ADD11C,1.700000*%
%TD*%
%TA.AperFunction,SMDPad,CuDef*%
%ADD12RoundRect,0.250000X-0.262500X-0.450000X0.262500X-0.450000X0.262500X0.450000X-0.262500X0.450000X0*%
%TD*%
%TA.AperFunction,SMDPad,CuDef*%
%ADD13RoundRect,0.250000X0.450000X-0.262500X0.450000X0.262500X-0.450000X0.262500X-0.450000X-0.262500X0*%
%TD*%
%TA.AperFunction,SMDPad,CuDef*%
%ADD14RoundRect,0.250000X-0.450000X0.262500X-0.450000X-0.262500X0.450000X-0.262500X0.450000X0.262500X0*%
%TD*%
%TA.AperFunction,SMDPad,CuDef*%
%ADD15RoundRect,0.250000X-0.475000X0.250000X-0.475000X-0.250000X0.475000X-0.250000X0.475000X0.250000X0*%
%TD*%
%TA.AperFunction,ComponentPad*%
%ADD16C,6.400000*%
%TD*%
%TA.AperFunction,SMDPad,CuDef*%
%ADD17RoundRect,0.140000X-0.170000X0.140000X-0.170000X-0.140000X0.170000X-0.140000X0.170000X0.140000X0*%
%TD*%
%TA.AperFunction,SMDPad,CuDef*%
%ADD18RoundRect,0.135000X-0.185000X0.135000X-0.185000X-0.135000X0.185000X-0.135000X0.185000X0.135000X0*%
%TD*%
%TA.AperFunction,SMDPad,CuDef*%
%ADD19RoundRect,0.243750X-0.243750X-0.456250X0.243750X-0.456250X0.243750X0.456250X-0.243750X0.456250X0*%
%TD*%
%TA.AperFunction,SMDPad,CuDef*%
%ADD20RoundRect,0.140000X0.140000X0.170000X-0.140000X0.170000X-0.140000X-0.170000X0.140000X-0.170000X0*%
%TD*%
%TA.AperFunction,SMDPad,CuDef*%
%ADD21RoundRect,0.250000X0.262500X0.450000X-0.262500X0.450000X-0.262500X-0.450000X0.262500X-0.450000X0*%
%TD*%
%TA.AperFunction,SMDPad,CuDef*%
%ADD22R,1.600000X1.400000*%
%TD*%
%TA.AperFunction,SMDPad,CuDef*%
%ADD23RoundRect,0.250000X-0.250000X-0.475000X0.250000X-0.475000X0.250000X0.475000X-0.250000X0.475000X0*%
%TD*%
%TA.AperFunction,SMDPad,CuDef*%
%ADD24RoundRect,0.062500X0.375000X0.062500X-0.375000X0.062500X-0.375000X-0.062500X0.375000X-0.062500X0*%
%TD*%
%TA.AperFunction,SMDPad,CuDef*%
%ADD25RoundRect,0.062500X0.062500X0.375000X-0.062500X0.375000X-0.062500X-0.375000X0.062500X-0.375000X0*%
%TD*%
%TA.AperFunction,HeatsinkPad*%
%ADD26R,3.450000X3.450000*%
%TD*%
%TA.AperFunction,SMDPad,CuDef*%
%ADD27RoundRect,0.250000X0.475000X-0.250000X0.475000X0.250000X-0.475000X0.250000X-0.475000X-0.250000X0*%
%TD*%
%TA.AperFunction,SMDPad,CuDef*%
%ADD28RoundRect,0.250000X0.250000X0.475000X-0.250000X0.475000X-0.250000X-0.475000X0.250000X-0.475000X0*%
%TD*%
%TA.AperFunction,SMDPad,CuDef*%
%ADD29R,1.200000X1.400000*%
%TD*%
%TA.AperFunction,SMDPad,CuDef*%
%ADD30RoundRect,0.243750X0.243750X0.456250X-0.243750X0.456250X-0.243750X-0.456250X0.243750X-0.456250X0*%
%TD*%
%TA.AperFunction,SMDPad,CuDef*%
%ADD31R,0.812800X0.812800*%
%TD*%
%TA.AperFunction,SMDPad,CuDef*%
%ADD32R,1.092200X2.006600*%
%TD*%
%TA.AperFunction,SMDPad,CuDef*%
%ADD33RoundRect,0.062500X0.062500X-0.350000X0.062500X0.350000X-0.062500X0.350000X-0.062500X-0.350000X0*%
%TD*%
%TA.AperFunction,SMDPad,CuDef*%
%ADD34RoundRect,0.062500X0.350000X-0.062500X0.350000X0.062500X-0.350000X0.062500X-0.350000X-0.062500X0*%
%TD*%
%TA.AperFunction,HeatsinkPad*%
%ADD35R,2.500000X2.500000*%
%TD*%
%TA.AperFunction,SMDPad,CuDef*%
%ADD36RoundRect,0.135000X0.185000X-0.135000X0.185000X0.135000X-0.185000X0.135000X-0.185000X-0.135000X0*%
%TD*%
%TA.AperFunction,SMDPad,CuDef*%
%ADD37RoundRect,0.140000X-0.140000X-0.170000X0.140000X-0.170000X0.140000X0.170000X-0.140000X0.170000X0*%
%TD*%
%TA.AperFunction,ComponentPad*%
%ADD38RoundRect,0.250000X-0.625000X0.350000X-0.625000X-0.350000X0.625000X-0.350000X0.625000X0.350000X0*%
%TD*%
%TA.AperFunction,ComponentPad*%
%ADD39O,1.750000X1.200000*%
%TD*%
%TA.AperFunction,SMDPad,CuDef*%
%ADD40R,0.550000X0.250000*%
%TD*%
%TA.AperFunction,SMDPad,CuDef*%
%ADD41RoundRect,0.150000X-0.512500X-0.150000X0.512500X-0.150000X0.512500X0.150000X-0.512500X0.150000X0*%
%TD*%
%TA.AperFunction,SMDPad,CuDef*%
%ADD42RoundRect,0.150000X-0.825000X-0.150000X0.825000X-0.150000X0.825000X0.150000X-0.825000X0.150000X0*%
%TD*%
%TA.AperFunction,HeatsinkPad*%
%ADD43R,2.410000X3.300000*%
%TD*%
%TA.AperFunction,SMDPad,CuDef*%
%ADD44R,1.500000X3.500000*%
%TD*%
%TA.AperFunction,ComponentPad*%
%ADD45C,2.550000*%
%TD*%
%TA.AperFunction,ComponentPad*%
%ADD46C,2.050000*%
%TD*%
%TA.AperFunction,ComponentPad*%
%ADD47C,2.250000*%
%TD*%
%TA.AperFunction,SMDPad,CuDef*%
%ADD48R,2.300000X0.500000*%
%TD*%
%TA.AperFunction,SMDPad,CuDef*%
%ADD49R,2.500000X2.000000*%
%TD*%
%TA.AperFunction,SMDPad,CuDef*%
%ADD50R,0.800000X1.000000*%
%TD*%
%TA.AperFunction,SMDPad,CuDef*%
%ADD51R,1.500000X0.700000*%
%TD*%
%TA.AperFunction,ComponentPad*%
%ADD52R,1.650000X1.650000*%
%TD*%
%TA.AperFunction,ComponentPad*%
%ADD53C,1.650000*%
%TD*%
%TA.AperFunction,ComponentPad*%
%ADD54O,3.000000X6.000000*%
%TD*%
%TA.AperFunction,SMDPad,CuDef*%
%ADD55R,1.500000X0.300000*%
%TD*%
%TA.AperFunction,ViaPad*%
%ADD56C,0.700000*%
%TD*%
%TA.AperFunction,Conductor*%
%ADD57C,0.300000*%
%TD*%
%TA.AperFunction,Conductor*%
%ADD58C,0.500000*%
%TD*%
%TA.AperFunction,Conductor*%
%ADD59C,0.355000*%
%TD*%
G04 APERTURE END LIST*
D10*
%TO.P,J3,1,Pin_1_1*%
%TO.N,+3V3*%
X221000000Y-85090000D03*
D11*
%TO.P,J3,2,Pin_2_2*%
%TO.N,/MCU/SWCLK*%
X221000000Y-87630000D03*
%TO.P,J3,3,Pin_3_3*%
%TO.N,/MCU/SWDIO*%
X221000000Y-90170000D03*
%TO.P,J3,4,Pin_4_4*%
%TO.N,/MCU/NRST*%
X221000000Y-92710000D03*
%TO.P,J3,5,Pin_5_5*%
%TO.N,/MCU/SWO*%
X221000000Y-95250000D03*
%TO.P,J3,6,Pin_6_6*%
%TO.N,GND*%
X221000000Y-97790000D03*
%TD*%
D12*
%TO.P,R11,1*%
%TO.N,+3V3*%
X158587500Y-108750000D03*
%TO.P,R11,2*%
%TO.N,/MCU/ENC_SW*%
X160412500Y-108750000D03*
%TD*%
D13*
%TO.P,R16,1*%
%TO.N,/MCU/TIM2_CH2*%
X165881250Y-117612500D03*
%TO.P,R16,2*%
%TO.N,Net-(R13-Pad2)*%
X165881250Y-115787500D03*
%TD*%
D14*
%TO.P,R15,1*%
%TO.N,Net-(R12-Pad2)*%
X163481250Y-115775000D03*
%TO.P,R15,2*%
%TO.N,/MCU/TIM2_CH1*%
X163481250Y-117600000D03*
%TD*%
D15*
%TO.P,C20,1*%
%TO.N,/MCU/TIM2_CH2*%
X165931250Y-119487500D03*
%TO.P,C20,2*%
%TO.N,GND*%
X165931250Y-121387500D03*
%TD*%
D16*
%TO.P,H3,1,1_1*%
%TO.N,unconnected-(H3-Pad1)*%
X132000000Y-73000000D03*
%TD*%
D14*
%TO.P,R13,1*%
%TO.N,+3V3*%
X165881250Y-112075000D03*
%TO.P,R13,2*%
%TO.N,Net-(R13-Pad2)*%
X165881250Y-113900000D03*
%TD*%
D17*
%TO.P,C16,1*%
%TO.N,Net-(U6-DVDD)*%
X189000000Y-81824100D03*
%TO.P,C16,2*%
%TO.N,GND*%
X189000000Y-82784100D03*
%TD*%
D18*
%TO.P,R14,1*%
%TO.N,Net-(U6-XC1)*%
X196200000Y-77890000D03*
%TO.P,R14,2*%
%TO.N,Net-(U6-XC2)*%
X196200000Y-78910000D03*
%TD*%
D19*
%TO.P,D6,1,K_1*%
%TO.N,Net-(D6-K)*%
X164812500Y-98750000D03*
%TO.P,D6,2,A_2*%
%TO.N,Net-(D6-A)*%
X166687500Y-98750000D03*
%TD*%
D20*
%TO.P,C17,1*%
%TO.N,Net-(U6-XC2)*%
X199360000Y-81980000D03*
%TO.P,C17,2*%
%TO.N,GND*%
X198400000Y-81980000D03*
%TD*%
D21*
%TO.P,R6,1*%
%TO.N,Net-(D5-K)*%
X162690000Y-94310200D03*
%TO.P,R6,2*%
%TO.N,Net-(U3-~{CHRG})*%
X160865000Y-94310200D03*
%TD*%
D22*
%TO.P,SW2,1,1_1*%
%TO.N,GND*%
X167800000Y-103600000D03*
X175000000Y-103600000D03*
%TO.P,SW2,2,2_2*%
%TO.N,/MCU/NRST*%
X167800000Y-106600000D03*
X175000000Y-106600000D03*
%TD*%
D23*
%TO.P,C8,1*%
%TO.N,+3V3*%
X171850000Y-90400000D03*
%TO.P,C8,2*%
%TO.N,GND*%
X173750000Y-90400000D03*
%TD*%
D12*
%TO.P,R1,1*%
%TO.N,Net-(D1-K)*%
X209337500Y-94000000D03*
%TO.P,R1,2*%
%TO.N,GND*%
X211162500Y-94000000D03*
%TD*%
D24*
%TO.P,U4,1,VDD_1*%
%TO.N,+3V3*%
X178731900Y-97203200D03*
%TO.P,U4,2,PC14_2*%
%TO.N,unconnected-(U4-PC14-Pad2)*%
X178731900Y-96703200D03*
%TO.P,U4,3,PC15_3*%
%TO.N,unconnected-(U4-PC15-Pad3)*%
X178731900Y-96203200D03*
%TO.P,U4,4,NRST_4*%
%TO.N,/MCU/NRST*%
X178731900Y-95703200D03*
%TO.P,U4,5,VDDA_5*%
%TO.N,+3V3*%
X178731900Y-95203200D03*
%TO.P,U4,6,PA0_6*%
%TO.N,/MCU/TIM2_CH1*%
X178731900Y-94703200D03*
%TO.P,U4,7,PA1_7*%
%TO.N,/MCU/TIM2_CH2*%
X178731900Y-94203200D03*
%TO.P,U4,8,PA2_8*%
%TO.N,/MCU/ADC1_IN7*%
X178731900Y-93703200D03*
D25*
%TO.P,U4,9,PA3_9*%
%TO.N,/MCU/ADC1_IN8*%
X178044400Y-93015700D03*
%TO.P,U4,10,PA4_10*%
%TO.N,/MCU/ADC1_IN9*%
X177544400Y-93015700D03*
%TO.P,U4,11,PA5_11*%
%TO.N,/MCU/SPI1_SCK*%
X177044400Y-93015700D03*
%TO.P,U4,12,PA6_12*%
%TO.N,/MCU/SPI1_MISO*%
X176544400Y-93015700D03*
%TO.P,U4,13,PA7_13*%
%TO.N,/MCU/SPI1_MOSI*%
X176044400Y-93015700D03*
%TO.P,U4,14,PB0_14*%
%TO.N,/MCU/ADC1_IN15*%
X175544400Y-93015700D03*
%TO.P,U4,15,PB1_15*%
%TO.N,/MCU/ADC1_IN16*%
X175044400Y-93015700D03*
%TO.P,U4,16,VSS_16*%
%TO.N,GND*%
X174544400Y-93015700D03*
D24*
%TO.P,U4,17,VDD_17*%
%TO.N,+3V3*%
X173856900Y-93703200D03*
%TO.P,U4,18,PA8_18*%
%TO.N,/MCU/RF_CE*%
X173856900Y-94203200D03*
%TO.P,U4,19,PA9_19*%
%TO.N,/MCU/RF_IRQ*%
X173856900Y-94703200D03*
%TO.P,U4,20,PA10_20*%
%TO.N,/MCU/RF_CS*%
X173856900Y-95203200D03*
%TO.P,U4,21,PA11_21*%
%TO.N,/MCU/USB_D-*%
X173856900Y-95703200D03*
%TO.P,U4,22,PA12_22*%
%TO.N,/MCU/USB_D+*%
X173856900Y-96203200D03*
%TO.P,U4,23,PA13_23*%
%TO.N,/MCU/SWDIO*%
X173856900Y-96703200D03*
%TO.P,U4,24,PA14_24*%
%TO.N,/MCU/SWCLK*%
X173856900Y-97203200D03*
D25*
%TO.P,U4,25,PA15_25*%
%TO.N,Net-(D6-A)*%
X174544400Y-97890700D03*
%TO.P,U4,26,PB3_26*%
%TO.N,/MCU/SWO*%
X175044400Y-97890700D03*
%TO.P,U4,27,PB4_27*%
%TO.N,/MCU/ENC_SW*%
X175544400Y-97890700D03*
%TO.P,U4,28,PB5_28*%
%TO.N,unconnected-(U4-PB5-Pad28)*%
X176044400Y-97890700D03*
%TO.P,U4,29,PB6_29*%
%TO.N,/MCU/I2C1_SCL*%
X176544400Y-97890700D03*
%TO.P,U4,30,PB7_30*%
%TO.N,/MCU/I2C1_SDA*%
X177044400Y-97890700D03*
%TO.P,U4,31,PH3_31*%
%TO.N,/MCU/BOOT0*%
X177544400Y-97890700D03*
%TO.P,U4,32,VSS_32*%
%TO.N,GND*%
X178044400Y-97890700D03*
D26*
%TO.P,U4,33,VSS_33*%
X176294400Y-95453200D03*
%TD*%
D21*
%TO.P,R5,1*%
%TO.N,Net-(D4-K)*%
X162711600Y-89683200D03*
%TO.P,R5,2*%
%TO.N,Net-(U3-~{STDBY})*%
X160886600Y-89683200D03*
%TD*%
D27*
%TO.P,C3,1*%
%TO.N,VSEL*%
X146000000Y-95418500D03*
%TO.P,C3,2*%
%TO.N,GND*%
X146000000Y-93518500D03*
%TD*%
D28*
%TO.P,C7,1*%
%TO.N,+3V3*%
X181400000Y-99593400D03*
%TO.P,C7,2*%
%TO.N,GND*%
X179500000Y-99593400D03*
%TD*%
D29*
%TO.P,Y1,1,1_1*%
%TO.N,Net-(U6-XC2)*%
X199600000Y-80280000D03*
%TO.P,Y1,2,G_2*%
%TO.N,GND*%
X199600000Y-78080000D03*
%TO.P,Y1,3,3_3*%
%TO.N,Net-(U6-XC1)*%
X198000000Y-78080000D03*
%TO.P,Y1,4,G_4*%
%TO.N,GND*%
X198000000Y-80280000D03*
%TD*%
D30*
%TO.P,D1,1,K_1*%
%TO.N,Net-(D1-K)*%
X207162500Y-94000000D03*
%TO.P,D1,2,A_2*%
%TO.N,+3V3*%
X205287500Y-94000000D03*
%TD*%
D31*
%TO.P,D2,1*%
%TO.N,/MCU/USB_D+*%
X136560200Y-84484950D03*
D32*
%TO.P,D2,2*%
%TO.N,GND*%
X136560200Y-86148650D03*
%TD*%
D33*
%TO.P,U6,1,CE_1*%
%TO.N,/MCU/RF_CE*%
X191677200Y-81562500D03*
%TO.P,U6,2,CSN_2*%
%TO.N,/MCU/RF_CS*%
X192177200Y-81562500D03*
%TO.P,U6,3,SCK_3*%
%TO.N,/MCU/SPI1_SCK*%
X192677200Y-81562500D03*
%TO.P,U6,4,MOSI_4*%
%TO.N,/MCU/SPI1_MOSI*%
X193177200Y-81562500D03*
%TO.P,U6,5,MISO_5*%
%TO.N,/MCU/SPI1_MISO*%
X193677200Y-81562500D03*
D34*
%TO.P,U6,6,IRQ_6*%
%TO.N,/MCU/RF_IRQ*%
X194614700Y-80625000D03*
%TO.P,U6,7,VDD_7*%
%TO.N,Net-(C13-Pad1)*%
X194614700Y-80125000D03*
%TO.P,U6,8,VSS_8*%
%TO.N,GND*%
X194614700Y-79625000D03*
%TO.P,U6,9,XC2_9*%
%TO.N,Net-(U6-XC2)*%
X194614700Y-79125000D03*
%TO.P,U6,10,XC1_10*%
%TO.N,Net-(U6-XC1)*%
X194614700Y-78625000D03*
D33*
%TO.P,U6,11,VDD_PA_11*%
%TO.N,Net-(FL1-DCFEED+RFGND{slash}GND)*%
X193677200Y-77687500D03*
%TO.P,U6,12,ANT1_12*%
%TO.N,Net-(FL1-BALPRT2)*%
X193177200Y-77687500D03*
%TO.P,U6,13,ANT2_13*%
%TO.N,Net-(FL1-BALPRT1)*%
X192677200Y-77687500D03*
%TO.P,U6,14,VSS_14*%
%TO.N,GND*%
X192177200Y-77687500D03*
%TO.P,U6,15,VDD_15*%
%TO.N,Net-(C13-Pad1)*%
X191677200Y-77687500D03*
D34*
%TO.P,U6,16,IREF_16*%
%TO.N,Net-(U6-IREF)*%
X190739700Y-78625000D03*
%TO.P,U6,17,VSS_17*%
%TO.N,GND*%
X190739700Y-79125000D03*
%TO.P,U6,18,VDD_18*%
%TO.N,Net-(C13-Pad1)*%
X190739700Y-79625000D03*
%TO.P,U6,19,DVDD_19*%
%TO.N,Net-(U6-DVDD)*%
X190739700Y-80125000D03*
%TO.P,U6,20,VSS_20*%
%TO.N,GND*%
X190739700Y-80625000D03*
D35*
%TO.P,U6,21*%
%TO.N,N/C*%
X192677200Y-79625000D03*
%TD*%
D36*
%TO.P,R10,1*%
%TO.N,Net-(U6-IREF)*%
X189400000Y-78021800D03*
%TO.P,R10,2*%
%TO.N,GND*%
X189400000Y-77001800D03*
%TD*%
D13*
%TO.P,R8,1*%
%TO.N,Net-(SW3-B)*%
X216587500Y-102412500D03*
%TO.P,R8,2*%
%TO.N,/MCU/BOOT0*%
X216587500Y-100587500D03*
%TD*%
D15*
%TO.P,C10,1*%
%TO.N,+3V3*%
X181914000Y-95596800D03*
%TO.P,C10,2*%
%TO.N,GND*%
X181914000Y-97496800D03*
%TD*%
D37*
%TO.P,C18,1*%
%TO.N,Net-(U6-XC1)*%
X198440000Y-76380000D03*
%TO.P,C18,2*%
%TO.N,GND*%
X199400000Y-76380000D03*
%TD*%
D16*
%TO.P,H1,1,1_1*%
%TO.N,unconnected-(H1-Pad1)*%
X132000000Y-121000000D03*
%TD*%
D12*
%TO.P,R4,1*%
%TO.N,/MCU/ADC1_IN15*%
X163425000Y-80500000D03*
%TO.P,R4,2*%
%TO.N,GND*%
X165250000Y-80500000D03*
%TD*%
D16*
%TO.P,H2,1,1_1*%
%TO.N,unconnected-(H2-Pad1)*%
X217000000Y-121000000D03*
%TD*%
D27*
%TO.P,C12,1*%
%TO.N,/MCU/NRST*%
X164800000Y-106460000D03*
%TO.P,C12,2*%
%TO.N,GND*%
X164800000Y-104560000D03*
%TD*%
D38*
%TO.P,J1,1,Pin_1_1*%
%TO.N,GND*%
X130500000Y-92365200D03*
D39*
%TO.P,J1,2,Pin_2_2*%
%TO.N,Net-(J1-Pin_2)*%
X130500000Y-94365200D03*
%TD*%
D40*
%TO.P,FL1,1,UNBALPRT_1*%
%TO.N,Net-(FL1-UNBALPRT)*%
X192550000Y-75000000D03*
%TO.P,FL1,2,GND_2*%
%TO.N,GND*%
X192550000Y-75500000D03*
%TO.P,FL1,3,BALPRT1_3*%
%TO.N,Net-(FL1-BALPRT1)*%
X192550000Y-76000000D03*
%TO.P,FL1,4,BALPRT2_4*%
%TO.N,Net-(FL1-BALPRT2)*%
X193400000Y-76000000D03*
%TO.P,FL1,5,DCFEED+RFGND/GND_5*%
%TO.N,Net-(FL1-DCFEED+RFGND{slash}GND)*%
X193400000Y-75500000D03*
%TO.P,FL1,6*%
%TO.N,N/C*%
X193400000Y-75000000D03*
%TD*%
D23*
%TO.P,C5,1*%
%TO.N,VBUS*%
X153050000Y-74500000D03*
%TO.P,C5,2*%
%TO.N,GND*%
X154950000Y-74500000D03*
%TD*%
D41*
%TO.P,U1,1,VIN_1*%
%TO.N,VSEL*%
X148543700Y-92850000D03*
%TO.P,U1,2,GND_2*%
%TO.N,GND*%
X148543700Y-93800000D03*
%TO.P,U1,3,EN_3*%
%TO.N,VSEL*%
X148543700Y-94750000D03*
%TO.P,U1,4,NC_4*%
%TO.N,unconnected-(U1-NC-Pad4)*%
X150818700Y-94750000D03*
%TO.P,U1,5,VOUT_5*%
%TO.N,+3V3*%
X150818700Y-92850000D03*
%TD*%
D42*
%TO.P,U3,1,TEMP_1*%
%TO.N,GND*%
X147360200Y-76460000D03*
%TO.P,U3,2,PROG_2*%
%TO.N,Net-(U3-PROG)*%
X147360200Y-77730000D03*
%TO.P,U3,3,GND_3*%
%TO.N,GND*%
X147360200Y-79000000D03*
%TO.P,U3,4,V_{CC}_4*%
%TO.N,VBUS*%
X147360200Y-80270000D03*
%TO.P,U3,5,BAT_5*%
%TO.N,VBAT*%
X152310200Y-80270000D03*
%TO.P,U3,6,~{STDBY}_6*%
%TO.N,Net-(U3-~{STDBY})*%
X152310200Y-79000000D03*
%TO.P,U3,7,~{CHRG}_7*%
%TO.N,Net-(U3-~{CHRG})*%
X152310200Y-77730000D03*
%TO.P,U3,8,CE_8*%
%TO.N,VBUS*%
X152310200Y-76460000D03*
D43*
%TO.P,U3,9,EPAD_9*%
%TO.N,GND*%
X149835200Y-78365000D03*
%TD*%
D44*
%TO.P,J4,1*%
%TO.N,Net-(FL1-UNBALPRT)*%
X192750000Y-70222500D03*
%TO.P,J4,G1*%
%TO.N,GND*%
X195450000Y-70222500D03*
%TO.P,J4,G2*%
X190050000Y-70222500D03*
%TD*%
D19*
%TO.P,D4,1,K_1*%
%TO.N,Net-(D4-K)*%
X164625000Y-89683200D03*
%TO.P,D4,2,A_2*%
%TO.N,VBUS*%
X166500000Y-89683200D03*
%TD*%
D10*
%TO.P,U5,1,VCC_1*%
%TO.N,+3V3*%
X192200000Y-94590000D03*
D11*
%TO.P,U5,2,GND_2*%
%TO.N,GND*%
X192200000Y-97130000D03*
%TO.P,U5,3,SCL_3*%
%TO.N,/MCU/I2C1_SCL*%
X192200000Y-99670000D03*
%TO.P,U5,4,SDA_4*%
%TO.N,/MCU/I2C1_SDA*%
X192200000Y-102210000D03*
%TD*%
D45*
%TO.P,U7,*%
%TO.N,*%
X154325000Y-115000000D03*
X154325000Y-105000000D03*
X141675000Y-115000000D03*
X141675000Y-105000000D03*
D46*
%TO.P,U7,1,H-_1*%
%TO.N,GND*%
X145500000Y-118730000D03*
%TO.P,U7,1',V-_1'*%
X139270000Y-107500000D03*
%TO.P,U7,2,H_2*%
%TO.N,/MCU/ADC1_IN16*%
X148000000Y-118730000D03*
%TO.P,U7,2',V_2'*%
%TO.N,/MCU/ADC1_IN9*%
X139270000Y-110000000D03*
%TO.P,U7,3,H+_3*%
%TO.N,+3V3*%
X150500000Y-118730000D03*
%TO.P,U7,3',V+_3'*%
X139270000Y-112500000D03*
D47*
%TO.P,U7,a,SEL+_a*%
%TO.N,unconnected-(U7-SEL+-Pada)*%
X151250000Y-104250000D03*
%TO.P,U7,b*%
%TO.N,N/C*%
X144750000Y-104250000D03*
%TO.P,U7,c,SEL-_c*%
%TO.N,GND*%
X151250000Y-99750000D03*
%TO.P,U7,d*%
%TO.N,N/C*%
X144750000Y-99750000D03*
%TD*%
D21*
%TO.P,R9,1*%
%TO.N,Net-(D6-K)*%
X162852100Y-98750000D03*
%TO.P,R9,2*%
%TO.N,GND*%
X161027100Y-98750000D03*
%TD*%
D15*
%TO.P,C19,1*%
%TO.N,/MCU/TIM2_CH1*%
X163531250Y-119487500D03*
%TO.P,C19,2*%
%TO.N,GND*%
X163531250Y-121387500D03*
%TD*%
D17*
%TO.P,C14,1*%
%TO.N,Net-(C13-Pad1)*%
X189000000Y-79844100D03*
%TO.P,C14,2*%
%TO.N,GND*%
X189000000Y-80804100D03*
%TD*%
D48*
%TO.P,J2,1,VBUS_1*%
%TO.N,VBUS*%
X132000000Y-81550000D03*
%TO.P,J2,2,D-_2*%
%TO.N,/MCU/USB_D-*%
X132000000Y-82350000D03*
%TO.P,J2,3,D+_3*%
%TO.N,/MCU/USB_D+*%
X132000000Y-83150000D03*
%TO.P,J2,4,ID_4*%
%TO.N,unconnected-(J2-ID-Pad4)*%
X132000000Y-83950000D03*
%TO.P,J2,5,GND_5*%
%TO.N,GND*%
X132000000Y-84750000D03*
D49*
%TO.P,J2,SH,Shield_SH*%
%TO.N,unconnected-(J2-Shield-PadSH)_2*%
X131900000Y-78700000D03*
%TO.N,unconnected-(J2-Shield-PadSH)_3*%
X126400000Y-78700000D03*
%TO.N,unconnected-(J2-Shield-PadSH)_1*%
X131900000Y-87600000D03*
%TO.N,unconnected-(J2-Shield-PadSH)*%
X126400000Y-87600000D03*
%TD*%
D19*
%TO.P,D5,1,K_1*%
%TO.N,Net-(D5-K)*%
X164685200Y-94310200D03*
%TO.P,D5,2,A_2*%
%TO.N,VBUS*%
X166560200Y-94310200D03*
%TD*%
D13*
%TO.P,R7,1*%
%TO.N,Net-(U3-PROG)*%
X144060200Y-77915200D03*
%TO.P,R7,2*%
%TO.N,GND*%
X144060200Y-76090200D03*
%TD*%
D28*
%TO.P,C9,1*%
%TO.N,+3V3*%
X181400000Y-101828600D03*
%TO.P,C9,2*%
%TO.N,GND*%
X179500000Y-101828600D03*
%TD*%
D50*
%TO.P,SW3,*%
%TO.N,*%
X220640000Y-109650000D03*
X222850000Y-109650000D03*
X220640000Y-102350000D03*
X222850000Y-102350000D03*
D51*
%TO.P,SW3,1,A_1*%
%TO.N,+3V3*%
X219990000Y-108250000D03*
%TO.P,SW3,2,B_2*%
%TO.N,Net-(SW3-B)*%
X219990000Y-105250000D03*
%TO.P,SW3,3,C_3*%
%TO.N,GND*%
X219990000Y-103750000D03*
%TD*%
D27*
%TO.P,C2,1*%
%TO.N,VBUS*%
X142810200Y-87000000D03*
%TO.P,C2,2*%
%TO.N,GND*%
X142810200Y-85100000D03*
%TD*%
D14*
%TO.P,R12,1*%
%TO.N,+3V3*%
X163481250Y-112075000D03*
%TO.P,R12,2*%
%TO.N,Net-(R12-Pad2)*%
X163481250Y-113900000D03*
%TD*%
D15*
%TO.P,C11,1*%
%TO.N,+3V3*%
X184300000Y-95596800D03*
%TO.P,C11,2*%
%TO.N,GND*%
X184300000Y-97496800D03*
%TD*%
%TO.P,C4,1*%
%TO.N,+3V3*%
X153250000Y-93800000D03*
%TO.P,C4,2*%
%TO.N,GND*%
X153250000Y-95700000D03*
%TD*%
D31*
%TO.P,D3,1*%
%TO.N,/MCU/USB_D-*%
X139000000Y-80965200D03*
D32*
%TO.P,D3,2*%
%TO.N,GND*%
X139000000Y-79301500D03*
%TD*%
D14*
%TO.P,R2,1*%
%TO.N,Net-(U2-ILIM)*%
X155750000Y-85750000D03*
%TO.P,R2,2*%
%TO.N,GND*%
X155750000Y-87575000D03*
%TD*%
D16*
%TO.P,H4,1,1_1*%
%TO.N,unconnected-(H4-Pad1)*%
X217000000Y-73000000D03*
%TD*%
D37*
%TO.P,C15,1*%
%TO.N,Net-(FL1-DCFEED+RFGND{slash}GND)*%
X194566200Y-75400000D03*
%TO.P,C15,2*%
%TO.N,GND*%
X195526200Y-75400000D03*
%TD*%
D15*
%TO.P,C6,1*%
%TO.N,VBAT*%
X155500000Y-80550000D03*
%TO.P,C6,2*%
%TO.N,GND*%
X155500000Y-82450000D03*
%TD*%
D52*
%TO.P,S1,1*%
%TO.N,GND*%
X180500000Y-125700000D03*
D53*
%TO.P,S1,2*%
%TO.N,/MCU/ENC_SW*%
X175500000Y-125700000D03*
%TO.P,S1,A,A_A*%
%TO.N,Net-(R12-Pad2)*%
X180500000Y-111200000D03*
%TO.P,S1,B,B_B*%
%TO.N,Net-(R13-Pad2)*%
X175500000Y-111200000D03*
%TO.P,S1,C,COM_C*%
%TO.N,GND*%
X178000000Y-111200000D03*
D54*
%TO.P,S1,SH1,SHIELD_SH1*%
%TO.N,unconnected-(S1-SHIELD-PadSH1)*%
X183700000Y-118700000D03*
%TO.P,S1,SH2,SHIELD__1_SH2*%
%TO.N,unconnected-(S1-SHIELD__1-PadSH2)*%
X172300000Y-118700000D03*
%TD*%
D12*
%TO.P,R3,1*%
%TO.N,VBAT*%
X159390200Y-80525400D03*
%TO.P,R3,2*%
%TO.N,/MCU/ADC1_IN15*%
X161215200Y-80525400D03*
%TD*%
D17*
%TO.P,C13,1*%
%TO.N,Net-(C13-Pad1)*%
X187750000Y-79844100D03*
%TO.P,C13,2*%
%TO.N,GND*%
X187750000Y-80804100D03*
%TD*%
D50*
%TO.P,SW1,*%
%TO.N,*%
X127150000Y-102350000D03*
X124940000Y-102350000D03*
X127150000Y-109650000D03*
X124940000Y-109650000D03*
D51*
%TO.P,SW1,1,A_1*%
%TO.N,VBAT*%
X127800000Y-103750000D03*
%TO.P,SW1,2,B_2*%
%TO.N,Net-(J1-Pin_2)*%
X127800000Y-106750000D03*
%TO.P,SW1,3,C_3*%
%TO.N,unconnected-(SW1-C-Pad3)*%
X127800000Y-108250000D03*
%TD*%
D21*
%TO.P,FB1,1*%
%TO.N,Net-(C13-Pad1)*%
X186250000Y-80304100D03*
%TO.P,FB1,2*%
%TO.N,+3V3*%
X184425000Y-80304100D03*
%TD*%
D55*
%TO.P,U2,1,STAT_1*%
%TO.N,unconnected-(U2-STAT-Pad1)*%
X153089800Y-87700000D03*
%TO.P,U2,2,D0_2*%
%TO.N,unconnected-(U2-D0-Pad2)*%
X153089800Y-87050000D03*
%TO.P,U2,3,D1_3*%
%TO.N,GND*%
X153089800Y-86400000D03*
%TO.P,U2,4,ILIM_4*%
%TO.N,Net-(U2-ILIM)*%
X153089800Y-85750000D03*
%TO.P,U2,5,GND_5*%
%TO.N,GND*%
X146689800Y-85750000D03*
%TO.P,U2,6,IN2_6*%
%TO.N,VBUS*%
X146689800Y-86400000D03*
%TO.P,U2,7,OUT_7*%
%TO.N,VSEL*%
X146689800Y-87050000D03*
%TO.P,U2,8,IN1_8*%
%TO.N,VBAT*%
X146689800Y-87700000D03*
%TD*%
D15*
%TO.P,C1,1*%
%TO.N,VBAT*%
X142810200Y-88850000D03*
%TO.P,C1,2*%
%TO.N,GND*%
X142810200Y-90750000D03*
%TD*%
D45*
%TO.P,U8,*%
%TO.N,*%
X214325000Y-115000000D03*
X214325000Y-105000000D03*
X201675000Y-115000000D03*
X201675000Y-105000000D03*
D46*
%TO.P,U8,1,H-_1*%
%TO.N,GND*%
X205500000Y-118730000D03*
%TO.P,U8,1',V-_1'*%
X199270000Y-107500000D03*
%TO.P,U8,2,H_2*%
%TO.N,/MCU/ADC1_IN8*%
X208000000Y-118730000D03*
%TO.P,U8,2',V_2'*%
%TO.N,/MCU/ADC1_IN7*%
X199270000Y-110000000D03*
%TO.P,U8,3,H+_3*%
%TO.N,+3V3*%
X210500000Y-118730000D03*
%TO.P,U8,3',V+_3'*%
X199270000Y-112500000D03*
D47*
%TO.P,U8,a,SEL+_a*%
%TO.N,unconnected-(U8-SEL+-Pada)*%
X211250000Y-104250000D03*
%TO.P,U8,b*%
%TO.N,N/C*%
X204750000Y-104250000D03*
%TO.P,U8,c,SEL-_c*%
%TO.N,GND*%
X211250000Y-99750000D03*
%TO.P,U8,d*%
%TO.N,N/C*%
X204750000Y-99750000D03*
%TD*%
D56*
%TO.N,/MCU/BOOT0*%
X199250000Y-100500000D03*
%TO.N,+3V3*%
X218500000Y-108250000D03*
%TO.N,GND*%
X218500000Y-103750000D03*
%TO.N,+3V3*%
X158500000Y-110250000D03*
%TO.N,GND*%
X191600000Y-75600000D03*
X176200000Y-95400000D03*
X175967272Y-75000000D03*
X196600000Y-81400000D03*
X195800000Y-79800000D03*
X182083636Y-75000000D03*
X197400000Y-81980000D03*
X159750000Y-98750000D03*
X157000000Y-82500000D03*
X134500000Y-86250000D03*
X203683636Y-68400000D03*
X138750000Y-89250000D03*
X188200000Y-83000000D03*
X203683636Y-75141473D03*
X136500000Y-91000000D03*
X196400000Y-75400000D03*
X189600000Y-78925000D03*
X187800000Y-75000000D03*
X154750000Y-96250000D03*
X145600000Y-79200000D03*
X179400000Y-103250000D03*
X203683636Y-80941473D03*
X200800000Y-77980000D03*
X182083636Y-68800000D03*
X199400000Y-75380000D03*
X182083636Y-81000000D03*
X138750000Y-86250000D03*
X141200000Y-84400000D03*
X209800000Y-68458527D03*
X166750000Y-80500000D03*
X191489825Y-76510175D03*
X175967272Y-81000000D03*
X188400000Y-77200000D03*
X149000000Y-81600000D03*
X140750000Y-79250000D03*
X155750000Y-88750000D03*
X175967272Y-68941473D03*
X156250000Y-74500000D03*
X134500000Y-89250000D03*
X187800000Y-68741473D03*
X142500000Y-76000000D03*
X136500000Y-88000000D03*
X209800000Y-81000000D03*
X134500000Y-92750000D03*
X142750000Y-92000000D03*
X209800000Y-75200000D03*
X176600000Y-103600000D03*
X185800000Y-97596800D03*
X187400000Y-81800000D03*
X138750000Y-92750000D03*
X132500000Y-91000000D03*
X163531250Y-122887500D03*
X174250000Y-88900000D03*
X212737500Y-94000000D03*
X197716364Y-68458527D03*
X144500000Y-93500000D03*
%TO.N,+3V3*%
X163481250Y-110887500D03*
X203937500Y-94000000D03*
X158400000Y-93000000D03*
X181400000Y-103250000D03*
X155800000Y-93000000D03*
X150800000Y-91000000D03*
X171500000Y-88900000D03*
X155800000Y-91000000D03*
X183200000Y-80200000D03*
X185800000Y-95696800D03*
X153400000Y-91000000D03*
X158400000Y-91000000D03*
%TO.N,Net-(U3-~{CHRG})*%
X154000000Y-77750000D03*
X160750000Y-92901000D03*
%TO.N,/MCU/NRST*%
X178200000Y-105600000D03*
X176400000Y-105600000D03*
%TO.N,/MCU/ADC1_IN9*%
X177800000Y-91200000D03*
%TO.N,/MCU/SPI1_SCK*%
X186250000Y-90000000D03*
X189630025Y-86380025D03*
%TO.N,/MCU/ADC1_IN15*%
X175600000Y-89000000D03*
X163400000Y-82200000D03*
%TO.N,/MCU/ADC1_IN16*%
X174800000Y-91800000D03*
%TO.N,/MCU/RF_CE*%
X171400000Y-87300000D03*
X170500000Y-91600000D03*
%TO.N,/MCU/RF_IRQ*%
X172413251Y-94503201D03*
X188600000Y-90200000D03*
%TO.N,/MCU/SWDIO*%
X172400000Y-97200000D03*
%TO.N,/MCU/SWCLK*%
X173000000Y-98600000D03*
%TO.N,/MCU/SWO*%
X174844400Y-100200000D03*
%TO.N,/MCU/I2C1_SCL*%
X176244400Y-99030000D03*
%TO.N,/MCU/I2C1_SDA*%
X177000000Y-100370000D03*
%TO.N,/MCU/BOOT0*%
X177800000Y-101800000D03*
%TO.N,Net-(U3-~{STDBY})*%
X159500000Y-89750000D03*
X154000000Y-79000000D03*
%TO.N,Net-(C13-Pad1)*%
X195795014Y-80997507D03*
X186400000Y-81800000D03*
%TO.N,VBUS*%
X141200000Y-85800000D03*
X147000000Y-81400000D03*
%TO.N,VBAT*%
X152250000Y-81750000D03*
X144750000Y-87750000D03*
%TD*%
%TO.N,/MCU/BOOT0*%
D57*
X215675000Y-101500000D02*
X216587500Y-100587500D01*
X200250000Y-101500000D02*
X215675000Y-101500000D01*
X199250000Y-100500000D02*
X200250000Y-101500000D01*
X216500000Y-100500000D02*
X216587500Y-100587500D01*
%TO.N,Net-(SW3-B)*%
D58*
X218868629Y-105250000D02*
X219990000Y-105250000D01*
X216587500Y-102968871D02*
X218868629Y-105250000D01*
X216587500Y-102412500D02*
X216587500Y-102968871D01*
%TO.N,+3V3*%
X219990000Y-108250000D02*
X218500000Y-108250000D01*
%TO.N,GND*%
X219990000Y-103750000D02*
X218500000Y-103750000D01*
%TO.N,Net-(D6-A)*%
D57*
X173572599Y-99300000D02*
X167237500Y-99300000D01*
%TO.N,GND*%
X173750000Y-92221300D02*
X174544400Y-93015700D01*
X173750000Y-90400000D02*
X173750000Y-92221300D01*
%TO.N,+3V3*%
X171850000Y-91696300D02*
X173856900Y-93703200D01*
X171850000Y-90400000D02*
X171850000Y-91696300D01*
%TO.N,VBUS*%
D58*
X166500000Y-94250000D02*
X166560200Y-94310200D01*
X166500000Y-89683200D02*
X166500000Y-94250000D01*
%TO.N,Net-(D6-A)*%
D57*
X167237500Y-99300000D02*
X166687500Y-98750000D01*
X174544400Y-98328199D02*
X173572599Y-99300000D01*
X174544400Y-97890700D02*
X174544400Y-98328199D01*
%TO.N,+3V3*%
X158587500Y-110162500D02*
X158500000Y-110250000D01*
X158587500Y-108750000D02*
X158587500Y-110162500D01*
%TO.N,/MCU/ENC_SW*%
X177300000Y-106500000D02*
X175050000Y-108750000D01*
X177300000Y-103310050D02*
X177300000Y-106500000D01*
X175544400Y-101554450D02*
X177300000Y-103310050D01*
X175544400Y-97890700D02*
X175544400Y-101554450D01*
X175050000Y-108750000D02*
X160412500Y-108750000D01*
D58*
X165212379Y-125700000D02*
X175500000Y-125700000D01*
X160412500Y-120900121D02*
X165212379Y-125700000D01*
X160412500Y-108750000D02*
X160412500Y-120900121D01*
%TO.N,/MCU/TIM2_CH2*%
D57*
X180011701Y-115350000D02*
X187000000Y-108361701D01*
X187000000Y-108361701D02*
X187000000Y-95199743D01*
X168843750Y-115350000D02*
X180011701Y-115350000D01*
X166581250Y-117612500D02*
X168843750Y-115350000D01*
X187000000Y-95199743D02*
X186003457Y-94203200D01*
X165881250Y-117612500D02*
X166581250Y-117612500D01*
X186003457Y-94203200D02*
X178731900Y-94203200D01*
%TO.N,/MCU/TIM2_CH1*%
X186500000Y-95406850D02*
X185796350Y-94703200D01*
X168568750Y-114850000D02*
X179650000Y-114850000D01*
X179650000Y-114850000D02*
X186500000Y-108000000D01*
X166668750Y-116750000D02*
X168568750Y-114850000D01*
X186500000Y-108000000D02*
X186500000Y-95406850D01*
X164331250Y-116750000D02*
X166668750Y-116750000D01*
X163481250Y-117600000D02*
X164331250Y-116750000D01*
X185796350Y-94703200D02*
X178731900Y-94703200D01*
%TO.N,Net-(R13-Pad2)*%
X167850000Y-113900000D02*
X165881250Y-113900000D01*
X170550000Y-111200000D02*
X167850000Y-113900000D01*
X175500000Y-111200000D02*
X170550000Y-111200000D01*
%TO.N,Net-(R12-Pad2)*%
X179325000Y-110025000D02*
X180500000Y-111200000D01*
X167417956Y-112937500D02*
X170330456Y-110025000D01*
X170330456Y-110025000D02*
X179325000Y-110025000D01*
X164443750Y-112937500D02*
X167417956Y-112937500D01*
X163481250Y-113900000D02*
X164443750Y-112937500D01*
%TO.N,Net-(R13-Pad2)*%
D58*
X165881250Y-115787500D02*
X165881250Y-113900000D01*
%TO.N,/MCU/TIM2_CH2*%
X165931250Y-117662500D02*
X165881250Y-117612500D01*
X165931250Y-119487500D02*
X165931250Y-117662500D01*
%TO.N,/MCU/TIM2_CH1*%
X163481250Y-119437500D02*
X163531250Y-119487500D01*
X163481250Y-117600000D02*
X163481250Y-119437500D01*
%TO.N,Net-(R12-Pad2)*%
X163481250Y-115775000D02*
X163481250Y-113900000D01*
%TO.N,Net-(R13-Pad2)*%
D57*
X165881250Y-113900000D02*
X165918750Y-113937500D01*
%TO.N,GND*%
D58*
X142590200Y-76090200D02*
X142500000Y-76000000D01*
X155750000Y-87575000D02*
X155750000Y-88750000D01*
D57*
X190739700Y-80625000D02*
X190739700Y-81354399D01*
X165250000Y-80500000D02*
X166750000Y-80500000D01*
D58*
X146281500Y-93800000D02*
X148543700Y-93800000D01*
D57*
X165931250Y-121387500D02*
X163531250Y-121387500D01*
D58*
X144060200Y-76090200D02*
X142590200Y-76090200D01*
X142810200Y-85100000D02*
X141900000Y-85100000D01*
D57*
X189800000Y-79125000D02*
X189600000Y-78925000D01*
X176294400Y-95453200D02*
X176253200Y-95453200D01*
X188598200Y-77001800D02*
X188400000Y-77200000D01*
D58*
X154575000Y-86400000D02*
X155750000Y-87575000D01*
X156950000Y-82450000D02*
X157000000Y-82500000D01*
X142810200Y-85100000D02*
X146139800Y-85100000D01*
D57*
X173750000Y-90400000D02*
X173750000Y-89400000D01*
D58*
X175000000Y-103600000D02*
X176600000Y-103600000D01*
X147360200Y-79000000D02*
X145800000Y-79000000D01*
D57*
X198000000Y-80280000D02*
X197720000Y-80280000D01*
X195625000Y-79625000D02*
X195800000Y-79800000D01*
X179500000Y-103150000D02*
X179400000Y-103250000D01*
X192550000Y-75500000D02*
X191700000Y-75500000D01*
X199400000Y-76380000D02*
X199400000Y-75380000D01*
D58*
X147360200Y-79000000D02*
X149200200Y-79000000D01*
X142810200Y-90750000D02*
X142810200Y-91939800D01*
X149200200Y-79000000D02*
X149835200Y-78365000D01*
D57*
X200700000Y-78080000D02*
X200800000Y-77980000D01*
X173750000Y-89400000D02*
X174250000Y-88900000D01*
D58*
X144060200Y-76090200D02*
X146990400Y-76090200D01*
D57*
X198400000Y-81980000D02*
X197400000Y-81980000D01*
X195526200Y-75400000D02*
X196400000Y-75400000D01*
X178044400Y-97890700D02*
X178044400Y-98137800D01*
D58*
X142810200Y-91939800D02*
X142750000Y-92000000D01*
X132000000Y-84750000D02*
X134350000Y-84750000D01*
X139000000Y-79301500D02*
X140698500Y-79301500D01*
X145800000Y-79000000D02*
X145600000Y-79200000D01*
X144518500Y-93518500D02*
X144500000Y-93500000D01*
D57*
X176253200Y-95453200D02*
X176200000Y-95400000D01*
D58*
X166840000Y-104560000D02*
X167800000Y-103600000D01*
X153250000Y-95700000D02*
X154200000Y-95700000D01*
D57*
X188415900Y-82784100D02*
X188200000Y-83000000D01*
X178044400Y-98137800D02*
X179500000Y-99593400D01*
X181914000Y-97496800D02*
X184300000Y-97496800D01*
D58*
X155500000Y-82450000D02*
X156950000Y-82450000D01*
D57*
X189309999Y-82784100D02*
X189000000Y-82784100D01*
D58*
X149835200Y-80764800D02*
X149000000Y-81600000D01*
D57*
X184300000Y-97496800D02*
X185700000Y-97496800D01*
X192177200Y-77687500D02*
X192177200Y-77189904D01*
D58*
X153089800Y-86400000D02*
X154575000Y-86400000D01*
D57*
X192177200Y-77189904D02*
X191497471Y-76510175D01*
X189400000Y-77001800D02*
X188598200Y-77001800D01*
D58*
X146000000Y-93518500D02*
X144518500Y-93518500D01*
D57*
X163531250Y-121387500D02*
X163531250Y-122887500D01*
D59*
X211162500Y-94000000D02*
X212737500Y-94000000D01*
D57*
X191497471Y-76510175D02*
X191489825Y-76510175D01*
D58*
X149835200Y-78365000D02*
X149835200Y-80764800D01*
D57*
X199600000Y-78080000D02*
X200700000Y-78080000D01*
X179500000Y-101828600D02*
X179500000Y-99593400D01*
D58*
X135748650Y-86148650D02*
X136560200Y-86148650D01*
D57*
X194614700Y-79625000D02*
X195625000Y-79625000D01*
D58*
X146000000Y-93518500D02*
X146281500Y-93800000D01*
X134350000Y-84750000D02*
X135748650Y-86148650D01*
D57*
X190739700Y-79125000D02*
X189800000Y-79125000D01*
X185700000Y-97496800D02*
X185800000Y-97596800D01*
D58*
X164800000Y-104560000D02*
X166840000Y-104560000D01*
D57*
X191700000Y-75500000D02*
X191600000Y-75600000D01*
X190739700Y-81354399D02*
X189309999Y-82784100D01*
D58*
X154950000Y-74500000D02*
X156250000Y-74500000D01*
X154200000Y-95700000D02*
X154750000Y-96250000D01*
D57*
X187750000Y-80804100D02*
X189000000Y-80804100D01*
X187750000Y-80804100D02*
X187750000Y-81450000D01*
D58*
X146139800Y-85100000D02*
X146689800Y-85650000D01*
D57*
X179500000Y-101828600D02*
X179500000Y-103150000D01*
D58*
X146990400Y-76090200D02*
X147360200Y-76460000D01*
X140698500Y-79301500D02*
X140750000Y-79250000D01*
X175000000Y-103600000D02*
X167800000Y-103600000D01*
D57*
X189000000Y-82784100D02*
X188415900Y-82784100D01*
X197720000Y-80280000D02*
X196600000Y-81400000D01*
X161027100Y-98750000D02*
X159750000Y-98750000D01*
D58*
X141900000Y-85100000D02*
X141200000Y-84400000D01*
D57*
X187750000Y-81450000D02*
X187400000Y-81800000D01*
%TO.N,+3V3*%
X181914000Y-95596800D02*
X184300000Y-95596800D01*
X181122100Y-99593400D02*
X181400000Y-99593400D01*
X184300000Y-95596800D02*
X185700000Y-95596800D01*
D58*
X183304100Y-80304100D02*
X183200000Y-80200000D01*
D57*
X181400000Y-99593400D02*
X181400000Y-101828600D01*
X184096800Y-95800000D02*
X184300000Y-95596800D01*
X171850000Y-89250000D02*
X171500000Y-88900000D01*
X178731900Y-97203200D02*
X181122100Y-99593400D01*
X165881250Y-112075000D02*
X163481250Y-112075000D01*
X181400000Y-101828600D02*
X181400000Y-103250000D01*
D58*
X184425000Y-80304100D02*
X183304100Y-80304100D01*
D59*
X205287500Y-94000000D02*
X203937500Y-94000000D01*
D57*
X185700000Y-95596800D02*
X185800000Y-95696800D01*
X181520400Y-95203200D02*
X181914000Y-95596800D01*
X163481250Y-112075000D02*
X163481250Y-110887500D01*
X178731900Y-95203200D02*
X181520400Y-95203200D01*
%TO.N,Net-(U6-DVDD)*%
X189800000Y-80567104D02*
X190242104Y-80125000D01*
X189000000Y-81824100D02*
X189800000Y-81024100D01*
X189800000Y-81024100D02*
X189800000Y-80567104D01*
X190242104Y-80125000D02*
X190739700Y-80125000D01*
%TO.N,Net-(U6-XC1)*%
X198440000Y-76380000D02*
X198440000Y-77640000D01*
X198440000Y-77640000D02*
X198000000Y-78080000D01*
X196200000Y-77890000D02*
X197810000Y-77890000D01*
X197810000Y-77890000D02*
X198000000Y-78080000D01*
X195349700Y-77890000D02*
X196200000Y-77890000D01*
X194614700Y-78625000D02*
X195349700Y-77890000D01*
%TO.N,Net-(U6-XC2)*%
X199600000Y-79880000D02*
X199600000Y-80280000D01*
X194614700Y-79125000D02*
X195329279Y-79125000D01*
X199360000Y-80520000D02*
X199600000Y-80280000D01*
X198920000Y-79200000D02*
X199600000Y-79880000D01*
X195329279Y-79125000D02*
X195544279Y-78910000D01*
X199360000Y-81980000D02*
X199360000Y-80520000D01*
X196200000Y-78910000D02*
X196490000Y-79200000D01*
X196490000Y-79200000D02*
X198920000Y-79200000D01*
X195544279Y-78910000D02*
X196200000Y-78910000D01*
%TO.N,Net-(D6-K)*%
X162852100Y-98750000D02*
X164812500Y-98750000D01*
%TO.N,Net-(D5-K)*%
D58*
X162690000Y-94310200D02*
X164685200Y-94310200D01*
%TO.N,Net-(U3-~{CHRG})*%
D57*
X160865000Y-94310200D02*
X160865000Y-93016000D01*
X154000000Y-77750000D02*
X152330200Y-77750000D01*
X152330200Y-77750000D02*
X152310200Y-77730000D01*
X160865000Y-93016000D02*
X160750000Y-92901000D01*
%TO.N,/MCU/NRST*%
D58*
X167800000Y-106600000D02*
X164940000Y-106600000D01*
D57*
X182250000Y-103389950D02*
X180039950Y-105600000D01*
X178731900Y-95703200D02*
X179254496Y-95703200D01*
X182250000Y-98862944D02*
X182250000Y-103389950D01*
X179254496Y-95703200D02*
X180839000Y-97287704D01*
D58*
X164940000Y-106600000D02*
X164800000Y-106460000D01*
D57*
X176000000Y-105600000D02*
X175000000Y-106600000D01*
X180839000Y-97287704D02*
X180839000Y-98462856D01*
D58*
X175000000Y-106600000D02*
X167800000Y-106600000D01*
X175000000Y-106600000D02*
X175400000Y-106600000D01*
D57*
X180839000Y-98462856D02*
X181849912Y-98462856D01*
X180039950Y-105600000D02*
X178200000Y-105600000D01*
X176400000Y-105600000D02*
X176000000Y-105600000D01*
X181849912Y-98462856D02*
X182250000Y-98862944D01*
%TO.N,Net-(D1-K)*%
D59*
X207162500Y-94000000D02*
X209337500Y-94000000D01*
%TO.N,/MCU/ADC1_IN7*%
D57*
X178731900Y-93703200D02*
X186210564Y-93703200D01*
X187600000Y-102850000D02*
X194750000Y-110000000D01*
X194750000Y-110000000D02*
X199270000Y-110000000D01*
X187600000Y-95092636D02*
X187600000Y-102850000D01*
X186210564Y-93703200D02*
X187600000Y-95092636D01*
%TO.N,/MCU/ADC1_IN8*%
X188200000Y-94985530D02*
X188200000Y-102700000D01*
X188200000Y-102700000D02*
X191250000Y-105750000D01*
X208000000Y-113892728D02*
X208000000Y-118730000D01*
X186230170Y-93015700D02*
X188200000Y-94985530D01*
X178044400Y-93015700D02*
X186230170Y-93015700D01*
X199857272Y-105750000D02*
X208000000Y-113892728D01*
X191250000Y-105750000D02*
X199857272Y-105750000D01*
%TO.N,/MCU/ADC1_IN9*%
X177544400Y-93015700D02*
X177544400Y-91455600D01*
X177544400Y-91455600D02*
X177800000Y-91200000D01*
%TO.N,/MCU/SPI1_SCK*%
X177044400Y-90955600D02*
X178000000Y-90000000D01*
X177044400Y-93015700D02*
X177044400Y-90955600D01*
X189630025Y-86380025D02*
X192677200Y-83332850D01*
X192677200Y-83332850D02*
X192677200Y-81562500D01*
X178000000Y-90000000D02*
X186250000Y-90000000D01*
%TO.N,/MCU/SPI1_MISO*%
X176544400Y-90412706D02*
X177853553Y-89103553D01*
X188850000Y-89103553D02*
X193677200Y-84276353D01*
X193677200Y-84276353D02*
X193677200Y-81562500D01*
X177853553Y-89103553D02*
X188850000Y-89103553D01*
X176544400Y-93015700D02*
X176544400Y-90412706D01*
%TO.N,/MCU/SPI1_MOSI*%
X193177200Y-81562500D02*
X193177200Y-83822800D01*
X176044400Y-90205600D02*
X176044400Y-93015700D01*
X177750000Y-88500000D02*
X176044400Y-90205600D01*
X188500000Y-88500000D02*
X177750000Y-88500000D01*
X193177200Y-83822800D02*
X188500000Y-88500000D01*
%TO.N,/MCU/ADC1_IN15*%
X161215200Y-80525400D02*
X163399600Y-80525400D01*
X163399600Y-80525400D02*
X163425000Y-80500000D01*
X163400000Y-82200000D02*
X163400000Y-80525000D01*
X163400000Y-80525000D02*
X163425000Y-80500000D01*
X175544400Y-89055600D02*
X175600000Y-89000000D01*
X175544400Y-93015700D02*
X175544400Y-89055600D01*
%TO.N,/MCU/ADC1_IN16*%
X175044400Y-92044400D02*
X174800000Y-91800000D01*
X175044400Y-93015700D02*
X175044400Y-92044400D01*
%TO.N,/MCU/RF_CE*%
X173856900Y-94203200D02*
X173103200Y-94203200D01*
X186600000Y-87400000D02*
X191677200Y-82322800D01*
X171400000Y-87300000D02*
X171500000Y-87400000D01*
X171500000Y-87400000D02*
X186600000Y-87400000D01*
X173103200Y-94203200D02*
X170500000Y-91600000D01*
X171400000Y-87300000D02*
X171400000Y-87200000D01*
X191677200Y-82322800D02*
X191677200Y-81562500D01*
%TO.N,/MCU/RF_IRQ*%
X188800000Y-90200000D02*
X188600000Y-90200000D01*
X194614700Y-84385300D02*
X188800000Y-90200000D01*
X194614700Y-84385300D02*
X194614700Y-80625000D01*
X173856900Y-94703200D02*
X172613250Y-94703200D01*
X172613250Y-94703200D02*
X172413251Y-94503201D01*
%TO.N,/MCU/RF_CS*%
X170600000Y-88000000D02*
X187000000Y-88000000D01*
X169800000Y-93600000D02*
X169800000Y-88800000D01*
X171403200Y-95203200D02*
X169800000Y-93600000D01*
X192177200Y-82822800D02*
X192177200Y-81562500D01*
X187000000Y-88000000D02*
X192177200Y-82822800D01*
X169800000Y-88800000D02*
X170600000Y-88000000D01*
X173856900Y-95203200D02*
X171403200Y-95203200D01*
%TO.N,/MCU/USB_D-*%
X132000000Y-82350000D02*
X133725001Y-82350000D01*
X169050000Y-87875736D02*
X169050000Y-93875736D01*
X154124264Y-83950000D02*
X165124264Y-83950000D01*
X139000000Y-80965200D02*
X139000000Y-82450000D01*
X152624264Y-82450000D02*
X154124264Y-83950000D01*
X139000000Y-82450000D02*
X152624264Y-82450000D01*
X133825001Y-82450000D02*
X139000000Y-82450000D01*
X170877464Y-95703200D02*
X173856900Y-95703200D01*
X165124264Y-83950000D02*
X169050000Y-87875736D01*
X169050000Y-93875736D02*
X170877464Y-95703200D01*
X133725001Y-82350000D02*
X133825001Y-82450000D01*
%TO.N,/MCU/USB_D+*%
X136500000Y-83050000D02*
X133825001Y-83050000D01*
X153875736Y-84550000D02*
X152375736Y-83050000D01*
X168450000Y-88124264D02*
X164875736Y-84550000D01*
X152375736Y-83050000D02*
X136500000Y-83050000D01*
X133725001Y-83150000D02*
X132000000Y-83150000D01*
X173000000Y-96303200D02*
X173100000Y-96203200D01*
X136560200Y-84484950D02*
X136560200Y-83110200D01*
X168450000Y-94124264D02*
X168450000Y-88124264D01*
X133825001Y-83050000D02*
X133725001Y-83150000D01*
X170628936Y-96303200D02*
X173000000Y-96303200D01*
X168450000Y-94124264D02*
X170628936Y-96303200D01*
X164875736Y-84550000D02*
X153875736Y-84550000D01*
X173100000Y-96203200D02*
X173856900Y-96203200D01*
X136560200Y-83110200D02*
X136500000Y-83050000D01*
%TO.N,/MCU/SWDIO*%
X173307107Y-96703200D02*
X172810307Y-97200000D01*
X172810307Y-97200000D02*
X172400000Y-97200000D01*
X173856900Y-96703200D02*
X173307107Y-96703200D01*
%TO.N,/MCU/SWCLK*%
X173856900Y-97743100D02*
X173000000Y-98600000D01*
X173856900Y-97203200D02*
X173856900Y-97743100D01*
%TO.N,/MCU/SWO*%
X175044400Y-100000000D02*
X174844400Y-100200000D01*
X175044400Y-97890700D02*
X175044400Y-100000000D01*
%TO.N,/MCU/I2C1_SCL*%
X176544400Y-97890700D02*
X176544400Y-98730000D01*
X176544400Y-98730000D02*
X176244400Y-99030000D01*
%TO.N,/MCU/I2C1_SDA*%
X177044400Y-97890700D02*
X177044400Y-100325600D01*
X177044400Y-100325600D02*
X177000000Y-100370000D01*
%TO.N,/MCU/BOOT0*%
X177544400Y-97890700D02*
X177544400Y-99303456D01*
X177800000Y-99559056D02*
X177800000Y-101800000D01*
X177544400Y-99303456D02*
X177800000Y-99559056D01*
%TO.N,Net-(D4-K)*%
D58*
X162711600Y-89683200D02*
X164625000Y-89683200D01*
%TO.N,Net-(U3-~{STDBY})*%
D57*
X159566800Y-89683200D02*
X159500000Y-89750000D01*
X160886600Y-89683200D02*
X159566800Y-89683200D01*
X154000000Y-79000000D02*
X152310200Y-79000000D01*
%TO.N,VSEL*%
D58*
X149206199Y-92850000D02*
X149656200Y-93300001D01*
X146689800Y-87050000D02*
X147800000Y-87050000D01*
X149250000Y-94750000D02*
X148543700Y-94750000D01*
X148543700Y-92850000D02*
X149206199Y-92850000D01*
X149656200Y-94343800D02*
X149250000Y-94750000D01*
X146000000Y-95418500D02*
X147875200Y-95418500D01*
X147800000Y-87050000D02*
X148543700Y-87793700D01*
X147875200Y-95418500D02*
X148543700Y-94750000D01*
X148543700Y-87793700D02*
X148543700Y-92850000D01*
X149656200Y-93300001D02*
X149656200Y-94343800D01*
%TO.N,Net-(C13-Pad1)*%
D57*
X189219100Y-79625000D02*
X190739700Y-79625000D01*
X189000000Y-79844100D02*
X189219100Y-79625000D01*
X186250000Y-80304100D02*
X186710000Y-79844100D01*
X186400000Y-80454100D02*
X186250000Y-80304100D01*
X194614700Y-80125000D02*
X195112296Y-80125000D01*
X191677200Y-77687500D02*
X190371500Y-76381800D01*
X190371500Y-76381800D02*
X188228250Y-76381800D01*
X195112296Y-80125000D02*
X195795014Y-80807718D01*
X187750000Y-79844100D02*
X189000000Y-79844100D01*
X186400000Y-81800000D02*
X186400000Y-80454100D01*
X186250000Y-78360050D02*
X186250000Y-80304100D01*
X186710000Y-79844100D02*
X187750000Y-79844100D01*
X188228250Y-76381800D02*
X186250000Y-78360050D01*
X195795014Y-80807718D02*
X195795014Y-80997507D01*
%TO.N,Net-(FL1-DCFEED+RFGND{slash}GND)*%
X193400000Y-75500000D02*
X194466200Y-75500000D01*
X193677200Y-77687500D02*
X194566200Y-76798500D01*
X194566200Y-76798500D02*
X194566200Y-75400000D01*
X194466200Y-75500000D02*
X194566200Y-75400000D01*
%TO.N,Net-(FL1-BALPRT2)*%
X193177200Y-77687500D02*
X193177200Y-76222800D01*
X193177200Y-76222800D02*
X193400000Y-76000000D01*
%TO.N,Net-(FL1-BALPRT1)*%
X192677200Y-77687500D02*
X192677200Y-76127200D01*
X192677200Y-76127200D02*
X192550000Y-76000000D01*
%TO.N,Net-(U6-IREF)*%
X189400000Y-78021800D02*
X190136500Y-78021800D01*
X190136500Y-78021800D02*
X190739700Y-78625000D01*
%TO.N,Net-(J1-Pin_2)*%
D58*
X126300000Y-102896497D02*
X125090000Y-104106497D01*
X126946497Y-106750000D02*
X127800000Y-106750000D01*
X130500000Y-94365200D02*
X126300000Y-98565200D01*
X126300000Y-98565200D02*
X126300000Y-102896497D01*
X125090000Y-104893503D02*
X126946497Y-106750000D01*
X125090000Y-104106497D02*
X125090000Y-104893503D01*
%TO.N,Net-(FL1-UNBALPRT)*%
D59*
X192750000Y-70222500D02*
X192750000Y-74772500D01*
X192750000Y-74772500D02*
X192550000Y-74972500D01*
%TO.N,VBUS*%
D58*
X152550000Y-75000000D02*
X153050000Y-74500000D01*
X156081371Y-89550000D02*
X151289950Y-89550000D01*
X166500000Y-89683200D02*
X165066800Y-88250000D01*
X141200000Y-85800000D02*
X141610200Y-85800000D01*
X141732322Y-77296700D02*
X144705622Y-80270000D01*
X140300600Y-75000000D02*
X152550000Y-75000000D01*
X165066800Y-88250000D02*
X157381371Y-88250000D01*
X157381371Y-88250000D02*
X156081371Y-89550000D01*
X144705622Y-80270000D02*
X147360200Y-80270000D01*
X132000000Y-81550000D02*
X133750600Y-81550000D01*
X138003900Y-77296700D02*
X141732322Y-77296700D01*
X138003900Y-77296700D02*
X140300600Y-75000000D01*
X147360200Y-81039800D02*
X147000000Y-81400000D01*
X151289950Y-89550000D02*
X148089950Y-86350000D01*
X147360200Y-80270000D02*
X147360200Y-81039800D01*
X141610200Y-85800000D02*
X142810200Y-87000000D01*
X152310200Y-76460000D02*
X152700200Y-76460000D01*
X148089950Y-86350000D02*
X143460200Y-86350000D01*
X153050000Y-74500000D02*
X153050000Y-75720200D01*
X143460200Y-86350000D02*
X142810200Y-87000000D01*
X133750600Y-81550000D02*
X138003900Y-77296700D01*
X153050000Y-75720200D02*
X152310200Y-76460000D01*
%TO.N,Net-(U3-PROG)*%
X147175000Y-77915200D02*
X147360200Y-77730000D01*
X144060200Y-77915200D02*
X147175000Y-77915200D01*
%TO.N,VBAT*%
X155500000Y-80550000D02*
X159365600Y-80550000D01*
X152250000Y-80330200D02*
X152310200Y-80270000D01*
X152310200Y-80270000D02*
X155220000Y-80270000D01*
X141635200Y-91164800D02*
X141635200Y-90025000D01*
X127800000Y-103750000D02*
X129050000Y-103750000D01*
X159365600Y-80550000D02*
X159390200Y-80525400D01*
X142810200Y-88850000D02*
X143650000Y-88850000D01*
X152250000Y-81750000D02*
X152250000Y-80330200D01*
X141635200Y-90025000D02*
X142810200Y-88850000D01*
X129050000Y-103750000D02*
X141635200Y-91164800D01*
X145589800Y-88850000D02*
X146689800Y-87750000D01*
X155220000Y-80270000D02*
X155500000Y-80550000D01*
X142810200Y-88850000D02*
X145589800Y-88850000D01*
X143650000Y-88850000D02*
X144750000Y-87750000D01*
%TO.N,Net-(U2-ILIM)*%
X155750000Y-85750000D02*
X155700000Y-85700000D01*
X155700000Y-85700000D02*
X153089800Y-85700000D01*
%TO.N,+3V3*%
D57*
X171850000Y-90400000D02*
X171850000Y-89250000D01*
%TD*%
%TA.AperFunction,Conductor*%
%TO.N,GND*%
G36*
X189184746Y-67770185D02*
G01*
X189230501Y-67822989D01*
X189240445Y-67892147D01*
X189211420Y-67955703D01*
X189161040Y-67990682D01*
X189057913Y-68029145D01*
X189057906Y-68029149D01*
X188942812Y-68115309D01*
X188942809Y-68115312D01*
X188856649Y-68230406D01*
X188856645Y-68230413D01*
X188806403Y-68365120D01*
X188806401Y-68365127D01*
X188800000Y-68424655D01*
X188800000Y-69972500D01*
X189926000Y-69972500D01*
X189993039Y-69992185D01*
X190038794Y-70044989D01*
X190050000Y-70096500D01*
X190050000Y-70222500D01*
X190176000Y-70222500D01*
X190243039Y-70242185D01*
X190288794Y-70294989D01*
X190300000Y-70346500D01*
X190300000Y-72472500D01*
X190847828Y-72472500D01*
X190847844Y-72472499D01*
X190907372Y-72466098D01*
X190907379Y-72466096D01*
X191042086Y-72415854D01*
X191042093Y-72415850D01*
X191157187Y-72329690D01*
X191157190Y-72329687D01*
X191243350Y-72214593D01*
X191243355Y-72214584D01*
X191283551Y-72106813D01*
X191325422Y-72050879D01*
X191390886Y-72026461D01*
X191459159Y-72041312D01*
X191508565Y-72090717D01*
X191515915Y-72106812D01*
X191556202Y-72214828D01*
X191556206Y-72214835D01*
X191642452Y-72330044D01*
X191642455Y-72330047D01*
X191757664Y-72416293D01*
X191757671Y-72416297D01*
X191892516Y-72466591D01*
X191952103Y-72472998D01*
X191952113Y-72472998D01*
X191952127Y-72473000D01*
X191952140Y-72472999D01*
X191954610Y-72473132D01*
X191955163Y-72473327D01*
X191955431Y-72473356D01*
X191955424Y-72473419D01*
X192020505Y-72496362D01*
X192063380Y-72551530D01*
X192072000Y-72596956D01*
X192072000Y-74339692D01*
X192052315Y-74406731D01*
X192022314Y-74438955D01*
X191917454Y-74517454D01*
X191917453Y-74517455D01*
X191917452Y-74517456D01*
X191831206Y-74632664D01*
X191831202Y-74632671D01*
X191798525Y-74720285D01*
X191780909Y-74767517D01*
X191774500Y-74827127D01*
X191774500Y-74827134D01*
X191774500Y-74827135D01*
X191774500Y-75172869D01*
X191774501Y-75172876D01*
X191781619Y-75239092D01*
X191781619Y-75265599D01*
X191775000Y-75327169D01*
X191775000Y-75375000D01*
X191775051Y-75375051D01*
X191841915Y-75394685D01*
X191874171Y-75424727D01*
X191874919Y-75425727D01*
X191899311Y-75491201D01*
X191884434Y-75559468D01*
X191874919Y-75574273D01*
X191874171Y-75575273D01*
X191818254Y-75617165D01*
X191775027Y-75624972D01*
X191775000Y-75625000D01*
X191775000Y-75672844D01*
X191781619Y-75734398D01*
X191781620Y-75760909D01*
X191780909Y-75767514D01*
X191780909Y-75767517D01*
X191774500Y-75827127D01*
X191774500Y-75827134D01*
X191774500Y-75827135D01*
X191774500Y-76172869D01*
X191774501Y-76172876D01*
X191780908Y-76232483D01*
X191831202Y-76367328D01*
X191831203Y-76367329D01*
X191831204Y-76367331D01*
X191917452Y-76482543D01*
X191917455Y-76482547D01*
X191977010Y-76527129D01*
X192018882Y-76583062D01*
X192026700Y-76626396D01*
X192026700Y-76666031D01*
X192007015Y-76733070D01*
X191954211Y-76778825D01*
X191886515Y-76788970D01*
X191776611Y-76774501D01*
X191776606Y-76774500D01*
X191776601Y-76774500D01*
X191776594Y-76774500D01*
X191735508Y-76774500D01*
X191668469Y-76754815D01*
X191647827Y-76738181D01*
X190786174Y-75876527D01*
X190786173Y-75876526D01*
X190786169Y-75876523D01*
X190679627Y-75805335D01*
X190572373Y-75760909D01*
X190561244Y-75756299D01*
X190552195Y-75754499D01*
X190435571Y-75731300D01*
X190435569Y-75731300D01*
X188164181Y-75731300D01*
X188164179Y-75731300D01*
X188047555Y-75754499D01*
X188038506Y-75756299D01*
X188038505Y-75756299D01*
X187920124Y-75805334D01*
X187813576Y-75876526D01*
X185744724Y-77945378D01*
X185708561Y-77999500D01*
X185708562Y-77999501D01*
X185673534Y-78051924D01*
X185624499Y-78170305D01*
X185624497Y-78170311D01*
X185599500Y-78295978D01*
X185599500Y-79142431D01*
X185579815Y-79209470D01*
X185558723Y-79234354D01*
X185550279Y-79241998D01*
X185518844Y-79261388D01*
X185423005Y-79357226D01*
X185420723Y-79359293D01*
X185391925Y-79373210D01*
X185363858Y-79388536D01*
X185360682Y-79388308D01*
X185357814Y-79389695D01*
X185326062Y-79385833D01*
X185294166Y-79383552D01*
X185291098Y-79381580D01*
X185288456Y-79381259D01*
X185281070Y-79375135D01*
X185249819Y-79355051D01*
X185156157Y-79261389D01*
X185156156Y-79261388D01*
X185037873Y-79188431D01*
X185006836Y-79169287D01*
X185006831Y-79169285D01*
X185005362Y-79168798D01*
X184840297Y-79114101D01*
X184840295Y-79114100D01*
X184737510Y-79103600D01*
X184112498Y-79103600D01*
X184112480Y-79103601D01*
X184009703Y-79114100D01*
X184009700Y-79114101D01*
X183843168Y-79169285D01*
X183843163Y-79169287D01*
X183693842Y-79261389D01*
X183595031Y-79360199D01*
X183533708Y-79393683D01*
X183464016Y-79388698D01*
X183459901Y-79387079D01*
X183448086Y-79382185D01*
X183448074Y-79382182D01*
X183283771Y-79349500D01*
X183283767Y-79349500D01*
X183116233Y-79349500D01*
X183116228Y-79349500D01*
X182951925Y-79382182D01*
X182951917Y-79382184D01*
X182797139Y-79446295D01*
X182657837Y-79539373D01*
X182539373Y-79657837D01*
X182446295Y-79797139D01*
X182382184Y-79951917D01*
X182382182Y-79951925D01*
X182349500Y-80116228D01*
X182349500Y-80283771D01*
X182382182Y-80448074D01*
X182382184Y-80448082D01*
X182446295Y-80602860D01*
X182539373Y-80742162D01*
X182657837Y-80860626D01*
X182727087Y-80906897D01*
X182797137Y-80953703D01*
X182951918Y-81017816D01*
X183109577Y-81049176D01*
X183116228Y-81050499D01*
X183116232Y-81050500D01*
X183116233Y-81050500D01*
X183197358Y-81050500D01*
X183199906Y-81050526D01*
X183210829Y-81050750D01*
X183230182Y-81054600D01*
X183230183Y-81054600D01*
X183378018Y-81054600D01*
X183398145Y-81054600D01*
X183399410Y-81054626D01*
X183431576Y-81064793D01*
X183463901Y-81074285D01*
X183464933Y-81075337D01*
X183466031Y-81075684D01*
X183470208Y-81080709D01*
X183502399Y-81113501D01*
X183569788Y-81222756D01*
X183693844Y-81346812D01*
X183843166Y-81438914D01*
X184009703Y-81494099D01*
X184112491Y-81504600D01*
X184737508Y-81504599D01*
X184737516Y-81504598D01*
X184737519Y-81504598D01*
X184797889Y-81498431D01*
X184840297Y-81494099D01*
X185006834Y-81438914D01*
X185156156Y-81346812D01*
X185249819Y-81253149D01*
X185311142Y-81219664D01*
X185380834Y-81224648D01*
X185420061Y-81248312D01*
X185422690Y-81250658D01*
X185518844Y-81346812D01*
X185556395Y-81369973D01*
X185564554Y-81377254D01*
X185577468Y-81398007D01*
X185593814Y-81416181D01*
X185595598Y-81427144D01*
X185601467Y-81436576D01*
X185601110Y-81461015D01*
X185605037Y-81485143D01*
X185600508Y-81502269D01*
X185600448Y-81506439D01*
X185598716Y-81509048D01*
X185596555Y-81517222D01*
X185582184Y-81551918D01*
X185582183Y-81551921D01*
X185582183Y-81551922D01*
X185582182Y-81551925D01*
X185549500Y-81716228D01*
X185549500Y-81883771D01*
X185582182Y-82048074D01*
X185582184Y-82048082D01*
X185646295Y-82202860D01*
X185739373Y-82342162D01*
X185857837Y-82460626D01*
X185950494Y-82522537D01*
X185997137Y-82553703D01*
X186151918Y-82617816D01*
X186316228Y-82650499D01*
X186316232Y-82650500D01*
X186316233Y-82650500D01*
X186483768Y-82650500D01*
X186483769Y-82650499D01*
X186648082Y-82617816D01*
X186802863Y-82553703D01*
X186942162Y-82460626D01*
X187060626Y-82342162D01*
X187153703Y-82202863D01*
X187217816Y-82048082D01*
X187250500Y-81883767D01*
X187250500Y-81716233D01*
X187247809Y-81702704D01*
X187254036Y-81633113D01*
X187296898Y-81577935D01*
X187362788Y-81554690D01*
X187404022Y-81559436D01*
X187479088Y-81581245D01*
X187500000Y-81582889D01*
X187500000Y-80928100D01*
X187519685Y-80861061D01*
X187572489Y-80815306D01*
X187624000Y-80804100D01*
X187750000Y-80804100D01*
X187750000Y-80748600D01*
X187769685Y-80681561D01*
X187822489Y-80635806D01*
X187874000Y-80624600D01*
X187984682Y-80624600D01*
X187984690Y-80624600D01*
X188020993Y-80621743D01*
X188020995Y-80621742D01*
X188020997Y-80621742D01*
X188176389Y-80576596D01*
X188176389Y-80576595D01*
X188176395Y-80576594D01*
X188185233Y-80571367D01*
X188248352Y-80554100D01*
X188501648Y-80554100D01*
X188564766Y-80571367D01*
X188573605Y-80576594D01*
X188573608Y-80576594D01*
X188573610Y-80576596D01*
X188729002Y-80621742D01*
X188729005Y-80621742D01*
X188729007Y-80621743D01*
X188765310Y-80624600D01*
X188876000Y-80624600D01*
X188943039Y-80644285D01*
X188988794Y-80697089D01*
X189000000Y-80748600D01*
X189000000Y-80852792D01*
X188980315Y-80919831D01*
X188963681Y-80940473D01*
X188896873Y-81007281D01*
X188835550Y-81040766D01*
X188809192Y-81043600D01*
X188765302Y-81043600D01*
X188729010Y-81046456D01*
X188729007Y-81046457D01*
X188719645Y-81049176D01*
X188685053Y-81054100D01*
X188000000Y-81054100D01*
X188000000Y-81582889D01*
X188020911Y-81581245D01*
X188030904Y-81578342D01*
X188100773Y-81578541D01*
X188159444Y-81616482D01*
X188188288Y-81680120D01*
X188189500Y-81697418D01*
X188189500Y-82028797D01*
X188192356Y-82065091D01*
X188192357Y-82065097D01*
X188237504Y-82220490D01*
X188237507Y-82220497D01*
X188249910Y-82241470D01*
X188267093Y-82309194D01*
X188249912Y-82367708D01*
X188237968Y-82387904D01*
X188195496Y-82534100D01*
X188501648Y-82534100D01*
X188564766Y-82551367D01*
X188573605Y-82556594D01*
X188573608Y-82556594D01*
X188573610Y-82556596D01*
X188729002Y-82601742D01*
X188729005Y-82601742D01*
X188729007Y-82601743D01*
X188765310Y-82604600D01*
X188765318Y-82604600D01*
X189234682Y-82604600D01*
X189234690Y-82604600D01*
X189270993Y-82601743D01*
X189270995Y-82601742D01*
X189270997Y-82601742D01*
X189426389Y-82556596D01*
X189426389Y-82556595D01*
X189426395Y-82556594D01*
X189435233Y-82551367D01*
X189498352Y-82534100D01*
X189804504Y-82534100D01*
X189762031Y-82387903D01*
X189750090Y-82367713D01*
X189732906Y-82299989D01*
X189750089Y-82241469D01*
X189762494Y-82220495D01*
X189807643Y-82065093D01*
X189810500Y-82028790D01*
X189810500Y-81984908D01*
X189830185Y-81917869D01*
X189846819Y-81897227D01*
X190305273Y-81438773D01*
X190305277Y-81438769D01*
X190376465Y-81332227D01*
X190378818Y-81326547D01*
X190422660Y-81272143D01*
X190488954Y-81250079D01*
X190493379Y-81250000D01*
X190614700Y-81250000D01*
X190614700Y-80899500D01*
X190634385Y-80832461D01*
X190687189Y-80786706D01*
X190738700Y-80775500D01*
X190740700Y-80775500D01*
X190807739Y-80795185D01*
X190853494Y-80847989D01*
X190864700Y-80899500D01*
X190864700Y-81250000D01*
X190925022Y-81250000D01*
X190992061Y-81269685D01*
X191037816Y-81322489D01*
X191047760Y-81391647D01*
X191046639Y-81398192D01*
X191026700Y-81498428D01*
X191026700Y-82001992D01*
X191007015Y-82069031D01*
X190990381Y-82089673D01*
X190009091Y-83070962D01*
X189947768Y-83104447D01*
X189878076Y-83099463D01*
X189822249Y-83057733D01*
X189804505Y-83034100D01*
X189250000Y-83034100D01*
X189250000Y-83562890D01*
X189268224Y-83579737D01*
X189273286Y-83580801D01*
X189323042Y-83629852D01*
X189338381Y-83698018D01*
X189314432Y-83763654D01*
X189302318Y-83777735D01*
X187716373Y-85363681D01*
X187655050Y-85397166D01*
X187628692Y-85400000D01*
X173724000Y-85400000D01*
X173656961Y-85380315D01*
X173611206Y-85327511D01*
X173600000Y-85276000D01*
X173600000Y-83034100D01*
X188195496Y-83034100D01*
X188237968Y-83180295D01*
X188320278Y-83319474D01*
X188320285Y-83319483D01*
X188434616Y-83433814D01*
X188434625Y-83433821D01*
X188573804Y-83516131D01*
X188729089Y-83561245D01*
X188750000Y-83562889D01*
X188750000Y-83034100D01*
X188195496Y-83034100D01*
X173600000Y-83034100D01*
X173600000Y-72020344D01*
X188800000Y-72020344D01*
X188806401Y-72079872D01*
X188806403Y-72079879D01*
X188856645Y-72214586D01*
X188856649Y-72214593D01*
X188942809Y-72329687D01*
X188942812Y-72329690D01*
X189057906Y-72415850D01*
X189057913Y-72415854D01*
X189192620Y-72466096D01*
X189192627Y-72466098D01*
X189252155Y-72472499D01*
X189252172Y-72472500D01*
X189800000Y-72472500D01*
X189800000Y-70472500D01*
X188800000Y-70472500D01*
X188800000Y-72020344D01*
X173600000Y-72020344D01*
X173600000Y-67874500D01*
X173619685Y-67807461D01*
X173672489Y-67761706D01*
X173724000Y-67750500D01*
X189117707Y-67750500D01*
X189184746Y-67770185D01*
G37*
%TD.AperFunction*%
%TA.AperFunction,Conductor*%
G36*
X213143039Y-67770185D02*
G01*
X213188794Y-67822989D01*
X213200000Y-67874500D01*
X213200000Y-85276000D01*
X213180315Y-85343039D01*
X213127511Y-85388794D01*
X213076000Y-85400000D01*
X194819308Y-85400000D01*
X194752269Y-85380315D01*
X194706514Y-85327511D01*
X194696570Y-85258353D01*
X194725595Y-85194797D01*
X194731627Y-85188319D01*
X195119972Y-84799974D01*
X195119977Y-84799969D01*
X195191166Y-84693426D01*
X195240201Y-84575043D01*
X195261873Y-84466097D01*
X195265200Y-84449369D01*
X195265200Y-82230000D01*
X197621210Y-82230000D01*
X197622854Y-82250910D01*
X197667968Y-82406195D01*
X197750278Y-82545374D01*
X197750285Y-82545383D01*
X197864616Y-82659714D01*
X197864625Y-82659721D01*
X198003804Y-82742031D01*
X198150000Y-82784504D01*
X198150000Y-82230000D01*
X197621210Y-82230000D01*
X195265200Y-82230000D01*
X195265200Y-81884204D01*
X195284885Y-81817165D01*
X195337689Y-81771410D01*
X195406847Y-81761466D01*
X195436649Y-81769642D01*
X195546932Y-81815323D01*
X195711242Y-81848006D01*
X195711246Y-81848007D01*
X195711247Y-81848007D01*
X195878782Y-81848007D01*
X195878783Y-81848006D01*
X196043096Y-81815323D01*
X196197877Y-81751210D01*
X196337176Y-81658133D01*
X196455640Y-81539669D01*
X196548717Y-81400370D01*
X196612830Y-81245589D01*
X196645514Y-81081274D01*
X196645514Y-80913740D01*
X196612830Y-80749425D01*
X196559942Y-80621743D01*
X196548718Y-80594646D01*
X196536657Y-80576596D01*
X196505523Y-80530000D01*
X196455640Y-80455344D01*
X196337176Y-80336880D01*
X196197876Y-80243803D01*
X196140714Y-80220125D01*
X196100488Y-80193246D01*
X195791314Y-79884072D01*
X195757829Y-79822749D01*
X195762813Y-79753057D01*
X195804685Y-79697124D01*
X195870149Y-79672707D01*
X195887233Y-79672665D01*
X195900663Y-79673559D01*
X195914796Y-79677665D01*
X195950819Y-79680500D01*
X196004901Y-79680499D01*
X196009010Y-79680773D01*
X196038082Y-79691454D01*
X196067809Y-79700182D01*
X196070230Y-79701945D01*
X196070266Y-79701893D01*
X196143015Y-79750502D01*
X196143016Y-79750502D01*
X196181866Y-79776461D01*
X196181872Y-79776464D01*
X196181873Y-79776465D01*
X196300256Y-79825501D01*
X196300260Y-79825501D01*
X196300261Y-79825502D01*
X196425928Y-79850500D01*
X196425931Y-79850500D01*
X196776000Y-79850500D01*
X196843039Y-79870185D01*
X196888794Y-79922989D01*
X196900000Y-79974500D01*
X196900000Y-80030000D01*
X197876000Y-80030000D01*
X197943039Y-80049685D01*
X197988794Y-80102489D01*
X198000000Y-80154000D01*
X198000000Y-80406000D01*
X197980315Y-80473039D01*
X197927511Y-80518794D01*
X197876000Y-80530000D01*
X196900000Y-80530000D01*
X196900000Y-81027844D01*
X196906401Y-81087372D01*
X196906403Y-81087379D01*
X196956645Y-81222086D01*
X196956649Y-81222093D01*
X197042809Y-81337187D01*
X197042812Y-81337190D01*
X197157906Y-81423350D01*
X197157913Y-81423354D01*
X197292620Y-81473596D01*
X197292627Y-81473598D01*
X197352155Y-81479999D01*
X197352172Y-81480000D01*
X197524258Y-81480000D01*
X197591297Y-81499685D01*
X197637052Y-81552489D01*
X197646996Y-81621647D01*
X197643334Y-81638595D01*
X197622855Y-81709081D01*
X197622854Y-81709087D01*
X197621209Y-81729999D01*
X197621210Y-81730000D01*
X198276000Y-81730000D01*
X198343039Y-81749685D01*
X198388794Y-81802489D01*
X198400000Y-81854000D01*
X198400000Y-81980000D01*
X198455500Y-81980000D01*
X198522539Y-81999685D01*
X198568294Y-82052489D01*
X198579500Y-82104000D01*
X198579500Y-82214697D01*
X198582356Y-82250991D01*
X198582357Y-82250997D01*
X198627503Y-82406389D01*
X198627505Y-82406393D01*
X198627506Y-82406395D01*
X198632732Y-82415233D01*
X198650000Y-82478352D01*
X198650000Y-82784503D01*
X198796194Y-82742032D01*
X198816384Y-82730091D01*
X198884108Y-82712906D01*
X198942629Y-82730089D01*
X198963605Y-82742494D01*
X199004587Y-82754400D01*
X199119002Y-82787642D01*
X199119005Y-82787642D01*
X199119007Y-82787643D01*
X199155310Y-82790500D01*
X199155318Y-82790500D01*
X199564682Y-82790500D01*
X199564690Y-82790500D01*
X199600993Y-82787643D01*
X199600995Y-82787642D01*
X199600997Y-82787642D01*
X199641975Y-82775736D01*
X199756395Y-82742494D01*
X199895687Y-82660117D01*
X200010117Y-82545687D01*
X200092494Y-82406395D01*
X200137643Y-82250993D01*
X200140500Y-82214690D01*
X200140500Y-81745310D01*
X200137643Y-81709007D01*
X200135812Y-81702704D01*
X200117332Y-81639094D01*
X200117531Y-81569224D01*
X200155473Y-81510554D01*
X200219112Y-81481711D01*
X200236408Y-81480499D01*
X200247871Y-81480499D01*
X200247872Y-81480499D01*
X200307483Y-81474091D01*
X200442331Y-81423796D01*
X200557546Y-81337546D01*
X200643796Y-81222331D01*
X200694091Y-81087483D01*
X200700500Y-81027873D01*
X200700499Y-79532128D01*
X200694091Y-79472517D01*
X200663200Y-79389695D01*
X200643797Y-79337671D01*
X200643795Y-79337668D01*
X200581081Y-79253893D01*
X200556664Y-79188431D01*
X200571515Y-79120158D01*
X200581082Y-79105271D01*
X200643352Y-79022089D01*
X200643354Y-79022086D01*
X200693596Y-78887379D01*
X200693598Y-78887372D01*
X200699999Y-78827844D01*
X200700000Y-78827827D01*
X200700000Y-78330000D01*
X199724000Y-78330000D01*
X199656961Y-78310315D01*
X199611206Y-78257511D01*
X199600000Y-78206000D01*
X199600000Y-78080000D01*
X199474000Y-78080000D01*
X199406961Y-78060315D01*
X199361206Y-78007511D01*
X199350000Y-77956000D01*
X199350000Y-77320000D01*
X199274000Y-77320000D01*
X199206961Y-77300315D01*
X199161206Y-77247511D01*
X199150000Y-77196000D01*
X199150000Y-76878352D01*
X199167267Y-76815233D01*
X199172494Y-76806395D01*
X199175116Y-76797372D01*
X199188879Y-76750000D01*
X199650000Y-76750000D01*
X199726000Y-76750000D01*
X199793039Y-76769685D01*
X199838794Y-76822489D01*
X199850000Y-76874000D01*
X199850000Y-77830000D01*
X200700000Y-77830000D01*
X200700000Y-77332172D01*
X200699999Y-77332155D01*
X200693598Y-77272627D01*
X200693596Y-77272620D01*
X200643354Y-77137913D01*
X200643350Y-77137906D01*
X200557190Y-77022812D01*
X200557187Y-77022809D01*
X200442093Y-76936649D01*
X200442086Y-76936645D01*
X200307379Y-76886403D01*
X200307373Y-76886401D01*
X200261839Y-76881505D01*
X200197288Y-76854765D01*
X200157442Y-76797372D01*
X200154950Y-76727547D01*
X200156021Y-76723620D01*
X200177144Y-76650914D01*
X200177145Y-76650912D01*
X200178790Y-76630000D01*
X199650000Y-76630000D01*
X199650000Y-76750000D01*
X199188879Y-76750000D01*
X199217642Y-76650997D01*
X199217643Y-76650991D01*
X199219295Y-76630000D01*
X199220500Y-76614690D01*
X199220500Y-76145310D01*
X199217643Y-76109007D01*
X199209132Y-76079714D01*
X199172495Y-75953608D01*
X199172492Y-75953600D01*
X199167266Y-75944763D01*
X199150000Y-75881645D01*
X199150000Y-75575494D01*
X199650000Y-75575494D01*
X199650000Y-76130000D01*
X200178790Y-76130000D01*
X200177145Y-76109089D01*
X200132031Y-75953804D01*
X200049721Y-75814625D01*
X200049714Y-75814616D01*
X199935383Y-75700285D01*
X199935374Y-75700278D01*
X199796193Y-75617967D01*
X199796190Y-75617965D01*
X199650001Y-75575493D01*
X199650000Y-75575494D01*
X199150000Y-75575494D01*
X199149998Y-75575493D01*
X199003809Y-75617965D01*
X199003806Y-75617967D01*
X198983608Y-75629912D01*
X198915884Y-75647092D01*
X198857370Y-75629910D01*
X198836397Y-75617507D01*
X198836390Y-75617504D01*
X198680997Y-75572357D01*
X198680991Y-75572356D01*
X198644697Y-75569500D01*
X198644690Y-75569500D01*
X198235310Y-75569500D01*
X198235302Y-75569500D01*
X198199008Y-75572356D01*
X198199002Y-75572357D01*
X198043609Y-75617504D01*
X198043606Y-75617505D01*
X197904315Y-75699881D01*
X197904307Y-75699887D01*
X197789887Y-75814307D01*
X197789881Y-75814315D01*
X197707505Y-75953606D01*
X197707504Y-75953609D01*
X197662357Y-76109002D01*
X197662356Y-76109008D01*
X197659500Y-76145302D01*
X197659500Y-76614697D01*
X197662356Y-76650991D01*
X197662357Y-76650997D01*
X197682668Y-76720905D01*
X197682469Y-76790774D01*
X197644527Y-76849444D01*
X197580889Y-76878288D01*
X197563593Y-76879500D01*
X197352130Y-76879500D01*
X197352123Y-76879501D01*
X197292516Y-76885908D01*
X197157671Y-76936202D01*
X197157664Y-76936206D01*
X197042455Y-77022452D01*
X197042452Y-77022455D01*
X196956206Y-77137664D01*
X196956202Y-77137671D01*
X196948310Y-77158833D01*
X196906439Y-77214767D01*
X196840975Y-77239184D01*
X196832128Y-77239500D01*
X196795685Y-77239500D01*
X196732564Y-77222232D01*
X196719941Y-77214767D01*
X196639393Y-77167131D01*
X196639388Y-77167129D01*
X196485208Y-77122335D01*
X196485202Y-77122334D01*
X196449181Y-77119500D01*
X195950830Y-77119500D01*
X195950808Y-77119501D01*
X195914794Y-77122335D01*
X195760611Y-77167129D01*
X195760606Y-77167131D01*
X195711792Y-77196000D01*
X195680059Y-77214767D01*
X195667436Y-77222232D01*
X195604315Y-77239500D01*
X195285625Y-77239500D01*
X195285087Y-77239553D01*
X195284808Y-77239500D01*
X195279539Y-77239500D01*
X195279539Y-77238500D01*
X195216441Y-77226532D01*
X195165733Y-77178465D01*
X195149061Y-77110614D01*
X195155322Y-77076873D01*
X195156704Y-77072731D01*
X195191701Y-76988244D01*
X195200166Y-76945687D01*
X195216700Y-76862569D01*
X195216700Y-76311138D01*
X195236385Y-76244099D01*
X195266248Y-76211977D01*
X195276200Y-76204504D01*
X195276200Y-76204503D01*
X195776200Y-76204503D01*
X195922395Y-76162031D01*
X196061574Y-76079721D01*
X196061583Y-76079714D01*
X196175914Y-75965383D01*
X196175921Y-75965374D01*
X196258231Y-75826195D01*
X196258233Y-75826190D01*
X196303344Y-75670918D01*
X196303345Y-75670912D01*
X196304990Y-75650000D01*
X195776200Y-75650000D01*
X195776200Y-76204503D01*
X195276200Y-76204503D01*
X195276200Y-75898352D01*
X195293467Y-75835233D01*
X195298694Y-75826395D01*
X195322285Y-75745197D01*
X195343842Y-75670997D01*
X195343843Y-75670991D01*
X195346699Y-75634697D01*
X195346700Y-75634690D01*
X195346700Y-75165310D01*
X195343843Y-75129007D01*
X195298694Y-74973605D01*
X195298693Y-74973604D01*
X195298692Y-74973600D01*
X195293466Y-74964763D01*
X195276200Y-74901645D01*
X195276200Y-74595494D01*
X195776200Y-74595494D01*
X195776200Y-75150000D01*
X196304990Y-75150000D01*
X196303345Y-75129089D01*
X196258231Y-74973804D01*
X196175921Y-74834625D01*
X196175914Y-74834616D01*
X196061583Y-74720285D01*
X196061574Y-74720278D01*
X195922393Y-74637967D01*
X195922390Y-74637965D01*
X195776201Y-74595493D01*
X195776200Y-74595494D01*
X195276200Y-74595494D01*
X195276198Y-74595493D01*
X195130009Y-74637965D01*
X195130006Y-74637967D01*
X195109808Y-74649912D01*
X195042084Y-74667092D01*
X194983570Y-74649910D01*
X194962597Y-74637507D01*
X194962590Y-74637504D01*
X194807197Y-74592357D01*
X194807191Y-74592356D01*
X194770897Y-74589500D01*
X194770890Y-74589500D01*
X194361510Y-74589500D01*
X194361502Y-74589500D01*
X194325208Y-74592356D01*
X194325202Y-74592357D01*
X194213306Y-74624867D01*
X194143437Y-74624668D01*
X194084767Y-74586726D01*
X194079445Y-74580102D01*
X194032547Y-74517455D01*
X194032544Y-74517452D01*
X193917335Y-74431206D01*
X193917328Y-74431202D01*
X193782482Y-74380908D01*
X193782483Y-74380908D01*
X193722883Y-74374501D01*
X193722881Y-74374500D01*
X193722873Y-74374500D01*
X193722865Y-74374500D01*
X193552000Y-74374500D01*
X193484961Y-74354815D01*
X193439206Y-74302011D01*
X193428000Y-74250500D01*
X193428000Y-72596955D01*
X193447685Y-72529916D01*
X193500489Y-72484161D01*
X193545388Y-72473131D01*
X193547849Y-72472999D01*
X193547872Y-72472999D01*
X193607483Y-72466591D01*
X193742331Y-72416296D01*
X193857546Y-72330046D01*
X193943796Y-72214831D01*
X193943888Y-72214586D01*
X193984084Y-72106813D01*
X194025954Y-72050879D01*
X194091419Y-72026461D01*
X194159692Y-72041312D01*
X194209098Y-72090717D01*
X194216448Y-72106812D01*
X194256645Y-72214586D01*
X194256649Y-72214593D01*
X194342809Y-72329687D01*
X194342812Y-72329690D01*
X194457906Y-72415850D01*
X194457913Y-72415854D01*
X194592620Y-72466096D01*
X194592627Y-72466098D01*
X194652155Y-72472499D01*
X194652172Y-72472500D01*
X195200000Y-72472500D01*
X195700000Y-72472500D01*
X196247828Y-72472500D01*
X196247844Y-72472499D01*
X196307372Y-72466098D01*
X196307379Y-72466096D01*
X196442086Y-72415854D01*
X196442093Y-72415850D01*
X196557187Y-72329690D01*
X196557190Y-72329687D01*
X196643350Y-72214593D01*
X196643354Y-72214586D01*
X196693596Y-72079879D01*
X196693598Y-72079872D01*
X196699999Y-72020344D01*
X196700000Y-72020327D01*
X196700000Y-70472500D01*
X195700000Y-70472500D01*
X195700000Y-72472500D01*
X195200000Y-72472500D01*
X195200000Y-70346500D01*
X195219685Y-70279461D01*
X195272489Y-70233706D01*
X195324000Y-70222500D01*
X195450000Y-70222500D01*
X195450000Y-70096500D01*
X195469685Y-70029461D01*
X195522489Y-69983706D01*
X195574000Y-69972500D01*
X196700000Y-69972500D01*
X196700000Y-68424672D01*
X196699999Y-68424655D01*
X196693598Y-68365127D01*
X196693596Y-68365120D01*
X196643354Y-68230413D01*
X196643350Y-68230406D01*
X196557190Y-68115312D01*
X196557187Y-68115309D01*
X196442093Y-68029149D01*
X196442086Y-68029145D01*
X196338960Y-67990682D01*
X196283026Y-67948811D01*
X196258609Y-67883347D01*
X196273461Y-67815074D01*
X196322866Y-67765668D01*
X196382293Y-67750500D01*
X213076000Y-67750500D01*
X213143039Y-67770185D01*
G37*
%TD.AperFunction*%
%TA.AperFunction,Conductor*%
G36*
X188502511Y-77129998D02*
G01*
X188558444Y-77171870D01*
X188580694Y-77230871D01*
X188581694Y-77230689D01*
X188582697Y-77236185D01*
X188582794Y-77236440D01*
X188582831Y-77236916D01*
X188582833Y-77236929D01*
X188627592Y-77390988D01*
X188627592Y-77390989D01*
X188661419Y-77448188D01*
X188678601Y-77515912D01*
X188661419Y-77574428D01*
X188627130Y-77632407D01*
X188627129Y-77632411D01*
X188582335Y-77786591D01*
X188582334Y-77786597D01*
X188579500Y-77822611D01*
X188579500Y-78220969D01*
X188579501Y-78220991D01*
X188582335Y-78257005D01*
X188627129Y-78411188D01*
X188627131Y-78411193D01*
X188708863Y-78549395D01*
X188708869Y-78549403D01*
X188822396Y-78662930D01*
X188822400Y-78662933D01*
X188822402Y-78662935D01*
X188960607Y-78744669D01*
X189023792Y-78763025D01*
X189057008Y-78784238D01*
X189071604Y-78791460D01*
X189073644Y-78794862D01*
X189082675Y-78800630D01*
X189101059Y-78840582D01*
X189107535Y-78851382D01*
X189107439Y-78854448D01*
X189111882Y-78864102D01*
X189105798Y-78907287D01*
X189105366Y-78921218D01*
X189103442Y-78924016D01*
X189102136Y-78933289D01*
X189077052Y-78962405D01*
X189065785Y-78978796D01*
X189059916Y-78982296D01*
X189056533Y-78986224D01*
X189037044Y-78996497D01*
X189030330Y-78999305D01*
X189029356Y-78999499D01*
X188910973Y-79048535D01*
X188908194Y-79050391D01*
X188899577Y-79053996D01*
X188882497Y-79055892D01*
X188851728Y-79063600D01*
X188765302Y-79063600D01*
X188729008Y-79066456D01*
X188729002Y-79066457D01*
X188573609Y-79111604D01*
X188573606Y-79111605D01*
X188532012Y-79136204D01*
X188468247Y-79173915D01*
X188464160Y-79176332D01*
X188401039Y-79193600D01*
X188348961Y-79193600D01*
X188285840Y-79176332D01*
X188281753Y-79173915D01*
X188176395Y-79111606D01*
X188176394Y-79111605D01*
X188176393Y-79111605D01*
X188176390Y-79111604D01*
X188020997Y-79066457D01*
X188020991Y-79066456D01*
X187984697Y-79063600D01*
X187984690Y-79063600D01*
X187515310Y-79063600D01*
X187515302Y-79063600D01*
X187479008Y-79066456D01*
X187479002Y-79066457D01*
X187323609Y-79111604D01*
X187323606Y-79111605D01*
X187282012Y-79136204D01*
X187218247Y-79173915D01*
X187214160Y-79176332D01*
X187151039Y-79193600D01*
X187024500Y-79193600D01*
X186957461Y-79173915D01*
X186911706Y-79121111D01*
X186900500Y-79069600D01*
X186900500Y-78680858D01*
X186920185Y-78613819D01*
X186936819Y-78593177D01*
X187584618Y-77945378D01*
X188371498Y-77158497D01*
X188432819Y-77125014D01*
X188502511Y-77129998D01*
G37*
%TD.AperFunction*%
%TD*%
%TA.AperFunction,Conductor*%
%TO.N,+3V3*%
G36*
X151041537Y-90259438D02*
G01*
X151071037Y-90271658D01*
X151071041Y-90271658D01*
X151071042Y-90271659D01*
X151216029Y-90300500D01*
X151216032Y-90300500D01*
X156155291Y-90300500D01*
X156252833Y-90281096D01*
X156300284Y-90271658D01*
X156329783Y-90259438D01*
X156377236Y-90250000D01*
X158746124Y-90250000D01*
X158813163Y-90269685D01*
X158834365Y-90288555D01*
X158835066Y-90287855D01*
X158957837Y-90410626D01*
X159020557Y-90452534D01*
X159097137Y-90503703D01*
X159251918Y-90567816D01*
X159398190Y-90596911D01*
X159416228Y-90600499D01*
X159416232Y-90600500D01*
X159416233Y-90600500D01*
X159583765Y-90600500D01*
X159583767Y-90600500D01*
X159601808Y-90596911D01*
X159671397Y-90603137D01*
X159726576Y-90645998D01*
X159749822Y-90711887D01*
X159750000Y-90718528D01*
X159750000Y-94126000D01*
X159730315Y-94193039D01*
X159677511Y-94238794D01*
X159626000Y-94250000D01*
X154596987Y-94250000D01*
X154529948Y-94230315D01*
X154484193Y-94177511D01*
X154473629Y-94113395D01*
X154474999Y-94099981D01*
X154475000Y-94099973D01*
X154475000Y-94050000D01*
X152025001Y-94050000D01*
X152025001Y-94074492D01*
X152005316Y-94141531D01*
X151952512Y-94187286D01*
X151883354Y-94197230D01*
X151819798Y-94168205D01*
X151813320Y-94162173D01*
X151733070Y-94081923D01*
X151733062Y-94081917D01*
X151591596Y-93998255D01*
X151591593Y-93998254D01*
X151433773Y-93952402D01*
X151433767Y-93952401D01*
X151396901Y-93949500D01*
X151396894Y-93949500D01*
X150530700Y-93949500D01*
X150463661Y-93929815D01*
X150417906Y-93877011D01*
X150406700Y-93825500D01*
X150406700Y-93774000D01*
X150426385Y-93706961D01*
X150479189Y-93661206D01*
X150530700Y-93650000D01*
X150568700Y-93650000D01*
X150568700Y-93100000D01*
X151068700Y-93100000D01*
X151068700Y-93650000D01*
X151396834Y-93650000D01*
X151396849Y-93649999D01*
X151433689Y-93647100D01*
X151433695Y-93647099D01*
X151591393Y-93601283D01*
X151591396Y-93601282D01*
X151732752Y-93517685D01*
X151732761Y-93517678D01*
X151813319Y-93437121D01*
X151874642Y-93403636D01*
X151944334Y-93408620D01*
X152000267Y-93450492D01*
X152024684Y-93515956D01*
X152025000Y-93524802D01*
X152025000Y-93550000D01*
X153000000Y-93550000D01*
X153500000Y-93550000D01*
X154474999Y-93550000D01*
X154474999Y-93500028D01*
X154474998Y-93500013D01*
X154464505Y-93397302D01*
X154409358Y-93230880D01*
X154409356Y-93230875D01*
X154317315Y-93081654D01*
X154193345Y-92957684D01*
X154044124Y-92865643D01*
X154044119Y-92865641D01*
X153877697Y-92810494D01*
X153877690Y-92810493D01*
X153774986Y-92800000D01*
X153500000Y-92800000D01*
X153500000Y-93550000D01*
X153000000Y-93550000D01*
X153000000Y-92800000D01*
X152725029Y-92800000D01*
X152725012Y-92800001D01*
X152622302Y-92810494D01*
X152455880Y-92865641D01*
X152455875Y-92865643D01*
X152306654Y-92957684D01*
X152182683Y-93081655D01*
X152182679Y-93081660D01*
X152179908Y-93086153D01*
X152127956Y-93132873D01*
X152058993Y-93144089D01*
X151994913Y-93116240D01*
X151983319Y-93105218D01*
X151978496Y-93100000D01*
X151068700Y-93100000D01*
X150568700Y-93100000D01*
X150568700Y-92600000D01*
X151068700Y-92600000D01*
X151978495Y-92600000D01*
X151978495Y-92599998D01*
X151978300Y-92597513D01*
X151932481Y-92439801D01*
X151848885Y-92298447D01*
X151848878Y-92298438D01*
X151732761Y-92182321D01*
X151732752Y-92182314D01*
X151591396Y-92098717D01*
X151591393Y-92098716D01*
X151433695Y-92052900D01*
X151433689Y-92052899D01*
X151396849Y-92050000D01*
X151068700Y-92050000D01*
X151068700Y-92600000D01*
X150568700Y-92600000D01*
X150568700Y-92050000D01*
X150374000Y-92050000D01*
X150306961Y-92030315D01*
X150261206Y-91977511D01*
X150250000Y-91926000D01*
X150250000Y-90374000D01*
X150269685Y-90306961D01*
X150322489Y-90261206D01*
X150374000Y-90250000D01*
X150994085Y-90250000D01*
X151041537Y-90259438D01*
G37*
%TD.AperFunction*%
%TD*%
%TA.AperFunction,Conductor*%
%TO.N,GND*%
G36*
X134893106Y-84255023D02*
G01*
X134908104Y-84259427D01*
X134966855Y-84297172D01*
X134968042Y-84298541D01*
X134995518Y-84353402D01*
X134997163Y-84360960D01*
X135000000Y-84387331D01*
X135000000Y-85250000D01*
X135372270Y-85250000D01*
X135407206Y-85255023D01*
X135422204Y-85259427D01*
X135480955Y-85297172D01*
X135482142Y-85298541D01*
X135509618Y-85353402D01*
X135511263Y-85360960D01*
X135514100Y-85387331D01*
X135514100Y-85898650D01*
X137606300Y-85898650D01*
X137606300Y-85391829D01*
X137611323Y-85356893D01*
X137615727Y-85341895D01*
X137653472Y-85283144D01*
X137654841Y-85281957D01*
X137709720Y-85254477D01*
X137717279Y-85252833D01*
X137743632Y-85250000D01*
X140303834Y-85250000D01*
X140338766Y-85255021D01*
X140352085Y-85258932D01*
X140410863Y-85296706D01*
X140439889Y-85360261D01*
X140439890Y-85360271D01*
X140440635Y-85365455D01*
X140432457Y-85430547D01*
X140382187Y-85551908D01*
X140382183Y-85551921D01*
X140382178Y-85551942D01*
X140349500Y-85716225D01*
X140349500Y-85716228D01*
X140349500Y-85883771D01*
X140349500Y-85883773D01*
X140349499Y-85883773D01*
X140382178Y-86048056D01*
X140382184Y-86048081D01*
X140446297Y-86202865D01*
X140446417Y-86203105D01*
X140447521Y-86204696D01*
X140469196Y-86237134D01*
X140484428Y-86268970D01*
X140494334Y-86300605D01*
X140500000Y-86337657D01*
X140500000Y-91169440D01*
X140494976Y-91204377D01*
X140487564Y-91229618D01*
X140456269Y-91282362D01*
X138037558Y-93701073D01*
X138009307Y-93722222D01*
X137986219Y-93734830D01*
X137926789Y-93750000D01*
X131769335Y-93750000D01*
X131734397Y-93744976D01*
X131711731Y-93738320D01*
X131652954Y-93700544D01*
X131646351Y-93692229D01*
X131614418Y-93648277D01*
X131614414Y-93648272D01*
X131517342Y-93551200D01*
X131493447Y-93517618D01*
X131488465Y-93507344D01*
X131476930Y-93438434D01*
X131500780Y-93378929D01*
X131506585Y-93371176D01*
X131540748Y-93339956D01*
X131593345Y-93307515D01*
X131717315Y-93183545D01*
X131809356Y-93034324D01*
X131809358Y-93034319D01*
X131864505Y-92867897D01*
X131864506Y-92867890D01*
X131874999Y-92765186D01*
X131875000Y-92765173D01*
X131875000Y-92615200D01*
X130982841Y-92615200D01*
X130915802Y-92595515D01*
X130870047Y-92542711D01*
X130860103Y-92473553D01*
X130863066Y-92459107D01*
X130875000Y-92414570D01*
X130875000Y-92315830D01*
X130863066Y-92271292D01*
X130864729Y-92201444D01*
X130903892Y-92143581D01*
X130968120Y-92116077D01*
X130982841Y-92115200D01*
X131874999Y-92115200D01*
X131874999Y-91965232D01*
X131874999Y-91965228D01*
X131874998Y-91965213D01*
X131864505Y-91862502D01*
X131809358Y-91696080D01*
X131809356Y-91696075D01*
X131717315Y-91546854D01*
X131593345Y-91422884D01*
X131444124Y-91330843D01*
X131444119Y-91330841D01*
X131444110Y-91330838D01*
X131277699Y-91275694D01*
X131277694Y-91275693D01*
X131174991Y-91265200D01*
X131174986Y-91265200D01*
X130750000Y-91265200D01*
X130750000Y-91882359D01*
X130730315Y-91949398D01*
X130677511Y-91995153D01*
X130608353Y-92005097D01*
X130593909Y-92002134D01*
X130549370Y-91990200D01*
X130549369Y-91990200D01*
X130450630Y-91990200D01*
X130406092Y-92002133D01*
X130336244Y-92000471D01*
X130278381Y-91961308D01*
X130250877Y-91897080D01*
X130250000Y-91882359D01*
X130250000Y-91265200D01*
X129825028Y-91265200D01*
X129825012Y-91265201D01*
X129825002Y-91265201D01*
X129825002Y-91265202D01*
X129722304Y-91275693D01*
X129722302Y-91275694D01*
X129555887Y-91330838D01*
X129555879Y-91330841D01*
X129555877Y-91330842D01*
X129555875Y-91330843D01*
X129473892Y-91381410D01*
X129406655Y-91422883D01*
X129282685Y-91546852D01*
X129282671Y-91546872D01*
X129238894Y-91617845D01*
X129224358Y-91632331D01*
X129222620Y-91636706D01*
X129213204Y-91643447D01*
X129198098Y-91658503D01*
X129188741Y-91664231D01*
X129187350Y-91661959D01*
X129165811Y-91677382D01*
X129096029Y-91680887D01*
X129035430Y-91646109D01*
X129021923Y-91629309D01*
X129021053Y-91628010D01*
X129001484Y-91577608D01*
X129001401Y-91577066D01*
X129000000Y-91558474D01*
X129000000Y-89891829D01*
X129005023Y-89856893D01*
X129009427Y-89841895D01*
X129047172Y-89783144D01*
X129048541Y-89781957D01*
X129103420Y-89754477D01*
X129110979Y-89752833D01*
X129137332Y-89750000D01*
X133500000Y-89750000D01*
X133500000Y-89026726D01*
X133505022Y-88991793D01*
X133513638Y-88962450D01*
X133533345Y-88923081D01*
X133593796Y-88842331D01*
X133644091Y-88707483D01*
X133650500Y-88647873D01*
X133650499Y-87199802D01*
X135514100Y-87199802D01*
X135520500Y-87259320D01*
X135520502Y-87259327D01*
X135570746Y-87394038D01*
X135570748Y-87394041D01*
X135656907Y-87509135D01*
X135656909Y-87509137D01*
X135656912Y-87509140D01*
X135772006Y-87595300D01*
X135772013Y-87595304D01*
X135906720Y-87645546D01*
X135906727Y-87645548D01*
X135913568Y-87646283D01*
X135966238Y-87651948D01*
X135966255Y-87651949D01*
X135966272Y-87651950D01*
X136310200Y-87651950D01*
X136810200Y-87651950D01*
X137154128Y-87651950D01*
X137154136Y-87651950D01*
X137154147Y-87651949D01*
X137189860Y-87648108D01*
X137213672Y-87645548D01*
X137213679Y-87645546D01*
X137348386Y-87595304D01*
X137348393Y-87595300D01*
X137463487Y-87509140D01*
X137463490Y-87509137D01*
X137549650Y-87394043D01*
X137549654Y-87394036D01*
X137599896Y-87259329D01*
X137599898Y-87259322D01*
X137601369Y-87245639D01*
X137606298Y-87199810D01*
X137606300Y-87199777D01*
X137606300Y-86398650D01*
X136810200Y-86398650D01*
X136810200Y-87651950D01*
X136310200Y-87651950D01*
X136310200Y-86398650D01*
X135514100Y-86398650D01*
X135514100Y-87199802D01*
X133650499Y-87199802D01*
X133650499Y-86552128D01*
X133644091Y-86492517D01*
X133644091Y-86492516D01*
X133610535Y-86402547D01*
X133610533Y-86402544D01*
X133593796Y-86357669D01*
X133533129Y-86276628D01*
X133514577Y-86240978D01*
X133513786Y-86238567D01*
X133510840Y-86228167D01*
X133506956Y-86217752D01*
X133506181Y-86215391D01*
X133506013Y-86210064D01*
X133500000Y-86176730D01*
X133500000Y-85250000D01*
X133490023Y-85240023D01*
X133476627Y-85232075D01*
X133477191Y-85231123D01*
X133433118Y-85202799D01*
X133433114Y-85202794D01*
X133431927Y-85201424D01*
X133404477Y-85146583D01*
X133402832Y-85139021D01*
X133400000Y-85112668D01*
X133400000Y-84717952D01*
X133405023Y-84683017D01*
X133411430Y-84661197D01*
X133439641Y-84611648D01*
X133442123Y-84608982D01*
X133458563Y-84594213D01*
X133507546Y-84557546D01*
X133593796Y-84442331D01*
X133629213Y-84347372D01*
X133646126Y-84316398D01*
X133655494Y-84303883D01*
X133711426Y-84262010D01*
X133720062Y-84258788D01*
X133722677Y-84257814D01*
X133766000Y-84250000D01*
X134858170Y-84250000D01*
X134893106Y-84255023D01*
G37*
%TD.AperFunction*%
%TD*%
M02*
