M48
; DRILL file KiCad 10.0.0 date 2026-05-11T18:40:27
; FORMAT={-:-/ absolute / metric / decimal}
; #@! TF.CreationDate,2026-05-11T18:40:27-05:00
; #@! TF.GenerationSoftware,Kicad,Pcbnew,10.0.0
; #@! TF.FileFunction,Plated,1,4,PTH
FMAT,2
METRIC
; #@! TA.AperFunction,Plated,PTH,ViaDrill
T1C0.300
; #@! TA.AperFunction,Plated,PTH,ComponentDrill
T2C0.750
; #@! TA.AperFunction,Plated,PTH,ComponentDrill
T3C1.000
; #@! TA.AperFunction,Plated,PTH,ComponentDrill
T4C1.050
; #@! TA.AperFunction,Plated,PTH,ComponentDrill
T5C1.100
; #@! TA.AperFunction,Plated,PTH,ComponentDrill
T6C1.250
; #@! TA.AperFunction,Plated,PTH,ComponentDrill
T7C1.550
; #@! TA.AperFunction,Plated,PTH,ComponentDrill
T8C2.000
; #@! TA.AperFunction,Plated,PTH,ComponentDrill
T9C3.200
%
G90
G05
T1
X132.5Y-91.0
X134.5Y-86.25
X134.5Y-89.25
X134.5Y-92.75
X136.5Y-88.0
X136.5Y-91.0
X138.75Y-86.25
X138.75Y-89.25
X138.75Y-92.75
X140.75Y-79.25
X141.2Y-84.4
X141.2Y-85.8
X142.5Y-76.0
X142.75Y-92.0
X144.5Y-93.5
X144.75Y-87.75
X145.6Y-79.2
X147.0Y-81.4
X149.0Y-81.6
X150.8Y-91.0
X152.25Y-81.75
X153.4Y-91.0
X154.0Y-77.75
X154.0Y-79.0
X154.75Y-96.25
X155.75Y-88.75
X155.8Y-91.0
X155.8Y-93.0
X156.25Y-74.5
X157.0Y-82.5
X158.4Y-91.0
X158.4Y-93.0
X158.5Y-110.25
X159.5Y-89.75
X159.75Y-98.75
X160.75Y-92.901
X163.4Y-82.2
X163.481Y-110.887
X163.531Y-122.887
X166.75Y-80.5
X170.5Y-91.6
X171.4Y-87.3
X171.5Y-88.9
X172.4Y-97.2
X172.413Y-94.503
X173.0Y-98.6
X174.25Y-88.9
X174.8Y-91.8
X174.844Y-100.2
X175.6Y-89.0
X175.967Y-68.941
X175.967Y-75.0
X175.967Y-81.0
X176.2Y-95.4
X176.244Y-99.03
X176.4Y-105.6
X176.6Y-103.6
X177.0Y-100.37
X177.8Y-91.2
X177.8Y-101.8
X178.2Y-105.6
X179.4Y-103.25
X181.4Y-103.25
X182.084Y-68.8
X182.084Y-75.0
X182.084Y-81.0
X183.2Y-80.2
X185.8Y-95.697
X185.8Y-97.597
X186.25Y-90.0
X186.4Y-81.8
X187.4Y-81.8
X187.8Y-68.741
X187.8Y-75.0
X188.2Y-83.0
X188.4Y-77.2
X188.6Y-90.2
X189.6Y-78.925
X189.63Y-86.38
X191.49Y-76.51
X191.6Y-75.6
X195.795Y-80.998
X195.8Y-79.8
X196.4Y-75.4
X196.6Y-81.4
X197.4Y-81.98
X197.716Y-68.459
X199.25Y-100.5
X199.4Y-75.38
X200.8Y-77.98
X203.684Y-68.4
X203.684Y-75.141
X203.684Y-80.941
X203.938Y-94.0
X209.8Y-68.459
X209.8Y-75.2
X209.8Y-81.0
X212.737Y-94.0
X218.5Y-103.75
X218.5Y-108.25
T2
X130.5Y-92.365
X130.5Y-94.365
T3
X192.2Y-94.59
X192.2Y-97.13
X192.2Y-99.67
X192.2Y-102.21
X221.0Y-85.09
X221.0Y-87.63
X221.0Y-90.17
X221.0Y-92.71
X221.0Y-95.25
X221.0Y-97.79
T4
X139.27Y-107.5
X139.27Y-110.0
X139.27Y-112.5
X145.5Y-118.73
X148.0Y-118.73
X150.5Y-118.73
X199.27Y-107.5
X199.27Y-110.0
X199.27Y-112.5
X205.5Y-118.73
X208.0Y-118.73
X210.5Y-118.73
T5
X175.5Y-111.2
X175.5Y-125.7
X178.0Y-111.2
X180.5Y-111.2
X180.5Y-125.7
T6
X144.75Y-99.75
X144.75Y-104.25
X151.25Y-99.75
X151.25Y-104.25
X204.75Y-99.75
X204.75Y-104.25
X211.25Y-99.75
X211.25Y-104.25
T7
X141.675Y-105.0
X141.675Y-115.0
X154.325Y-105.0
X154.325Y-115.0
X201.675Y-105.0
X201.675Y-115.0
X214.325Y-105.0
X214.325Y-115.0
T9
X132.0Y-73.0
X132.0Y-121.0
X217.0Y-73.0
X217.0Y-121.0
T8
G00X172.3Y-119.1
M15
G01X172.3Y-118.3
M16
G05
G00X183.7Y-119.1
M15
G01X183.7Y-118.3
M16
G05
M30
