%TF.GenerationSoftware,KiCad,Pcbnew,10.0.0*%
%TF.CreationDate,2026-05-11T18:40:22-05:00*%
%TF.ProjectId,no_fly_zone_remote_revised,6e6f5f66-6c79-45f7-9a6f-6e655f72656d,rev?*%
%TF.SameCoordinates,Original*%
%TF.FileFunction,Soldermask,Bot*%
%TF.FilePolarity,Negative*%
%FSLAX46Y46*%
G04 Gerber Fmt 4.6, Leading zero omitted, Abs format (unit mm)*
G04 Created by KiCad (PCBNEW 10.0.0) date 2026-05-11 18:40:22*
%MOMM*%
%LPD*%
G01*
G04 APERTURE LIST*
G04 Aperture macros list*
%AMRoundRect*
0 Rectangle with rounded corners*
0 $1 Rounding radius*
0 $2 $3 $4 $5 $6 $7 $8 $9 X,Y pos of 4 corners*
0 Add a 4 corners polygon primitive as box body*
4,1,4,$2,$3,$4,$5,$6,$7,$8,$9,$2,$3,0*
0 Add four circle primitives for the rounded corners*
1,1,$1+$1,$2,$3*
1,1,$1+$1,$4,$5*
1,1,$1+$1,$6,$7*
1,1,$1+$1,$8,$9*
0 Add four rect primitives between the rounded corners*
20,1,$1+$1,$2,$3,$4,$5,0*
20,1,$1+$1,$4,$5,$6,$7,0*
20,1,$1+$1,$6,$7,$8,$9,0*
20,1,$1+$1,$8,$9,$2,$3,0*%
G04 Aperture macros list end*
%ADD10R,1.700000X1.700000*%
%ADD11C,1.700000*%
%ADD12C,6.400000*%
%ADD13RoundRect,0.250000X-0.625000X0.350000X-0.625000X-0.350000X0.625000X-0.350000X0.625000X0.350000X0*%
%ADD14O,1.750000X1.200000*%
%ADD15RoundRect,0.102000X-0.750000X1.750000X-0.750000X-1.750000X0.750000X-1.750000X0.750000X1.750000X0*%
%ADD16C,2.750000*%
%ADD17C,2.250000*%
%ADD18C,2.450000*%
%ADD19C,0.900000*%
%ADD20RoundRect,0.102000X0.825000X0.825000X-0.825000X0.825000X-0.825000X-0.825000X0.825000X-0.825000X0*%
%ADD21C,1.854000*%
%ADD22O,3.204000X6.204000*%
G04 APERTURE END LIST*
D10*
%TO.C,J3*%
X221000000Y-85090000D03*
D11*
X221000000Y-87630000D03*
X221000000Y-90170000D03*
X221000000Y-92710000D03*
X221000000Y-95250000D03*
X221000000Y-97790000D03*
%TD*%
D12*
%TO.C,H3*%
X132000000Y-73000000D03*
%TD*%
%TO.C,H1*%
X132000000Y-121000000D03*
%TD*%
%TO.C,H2*%
X217000000Y-121000000D03*
%TD*%
D13*
%TO.C,J1*%
X130500000Y-92365200D03*
D14*
X130500000Y-94365200D03*
%TD*%
D15*
%TO.C,J4*%
X195450000Y-70222500D03*
X190050000Y-70222500D03*
%TD*%
D10*
%TO.C,U5*%
X192200000Y-94590000D03*
D11*
X192200000Y-97130000D03*
X192200000Y-99670000D03*
X192200000Y-102210000D03*
%TD*%
D16*
%TO.C,U7*%
X154325000Y-115000000D03*
X154325000Y-105000000D03*
X141675000Y-115000000D03*
X141675000Y-105000000D03*
D17*
X145500000Y-118730000D03*
X139270000Y-107500000D03*
X148000000Y-118730000D03*
X139270000Y-110000000D03*
X150500000Y-118730000D03*
X139270000Y-112500000D03*
D18*
X151250000Y-104250000D03*
X144750000Y-104250000D03*
X151250000Y-99750000D03*
X144750000Y-99750000D03*
%TD*%
D19*
%TO.C,J2*%
X129350000Y-80950000D03*
X129350000Y-85350000D03*
%TD*%
%TO.C,SW3*%
X221750000Y-107500000D03*
X221750000Y-104500000D03*
%TD*%
D12*
%TO.C,H4*%
X217000000Y-73000000D03*
%TD*%
D20*
%TO.C,S1*%
X180500000Y-125700000D03*
D21*
X175500000Y-125700000D03*
X180500000Y-111200000D03*
X175500000Y-111200000D03*
X178000000Y-111200000D03*
D22*
X183700000Y-118700000D03*
X172300000Y-118700000D03*
%TD*%
D19*
%TO.C,SW1*%
X126040000Y-104500000D03*
X126040000Y-107500000D03*
%TD*%
D16*
%TO.C,U8*%
X214325000Y-115000000D03*
X214325000Y-105000000D03*
X201675000Y-115000000D03*
X201675000Y-105000000D03*
D17*
X205500000Y-118730000D03*
X199270000Y-107500000D03*
X208000000Y-118730000D03*
X199270000Y-110000000D03*
X210500000Y-118730000D03*
X199270000Y-112500000D03*
D18*
X211250000Y-104250000D03*
X204750000Y-104250000D03*
X211250000Y-99750000D03*
X204750000Y-99750000D03*
%TD*%
M02*
